%TF.GenerationSoftware,KiCad,Pcbnew,9.0.0*%
%TF.CreationDate,2025-04-19T15:24:46+09:00*%
%TF.ProjectId,nofy_V2_L,6e6f6679-5f56-4325-9f4c-2e6b69636164,rev?*%
%TF.SameCoordinates,Original*%
%TF.FileFunction,Profile,NP*%
%FSLAX46Y46*%
G04 Gerber Fmt 4.6, Leading zero omitted, Abs format (unit mm)*
G04 Created by KiCad (PCBNEW 9.0.0) date 2025-04-19 15:24:46*
%MOMM*%
%LPD*%
G01*
G04 APERTURE LIST*
%TA.AperFunction,Profile*%
%ADD10C,0.050000*%
%TD*%
G04 APERTURE END LIST*
D10*
X32667865Y-98732135D02*
G75*
G02*
X33667865Y-97732065I1000035J35D01*
G01*
X100067865Y-100132135D02*
G75*
G02*
X101067865Y-101132135I35J-999965D01*
G01*
X84667865Y-32532135D02*
X99667865Y-32532135D01*
X84667865Y-32532135D02*
G75*
G02*
X83667865Y-31532135I35J1000035D01*
G01*
X83067865Y-97732135D02*
G75*
G02*
X84067865Y-98732135I35J-999965D01*
G01*
X66667865Y-28032135D02*
X66667865Y-29132135D01*
X85067865Y-100132135D02*
G75*
G02*
X84067865Y-99132135I35J1000035D01*
G01*
X18267865Y-105932135D02*
G75*
G02*
X17267865Y-104932135I35J1000035D01*
G01*
X50067865Y-28032135D02*
G75*
G02*
X51067865Y-27032065I1000035J35D01*
G01*
X115967865Y-38332135D02*
X101667865Y-38332135D01*
X67667865Y-30132135D02*
G75*
G02*
X66667865Y-29132135I35J1000035D01*
G01*
X51067865Y-27032135D02*
X65667865Y-27032135D01*
X18267865Y-38332135D02*
X32067865Y-38332128D01*
X82667865Y-30132135D02*
G75*
G02*
X83667865Y-31132135I35J-999965D01*
G01*
X67667865Y-30132135D02*
X82667865Y-30132135D01*
X17267865Y-39332135D02*
G75*
G02*
X18267865Y-38332135I999995J5D01*
G01*
X65667865Y-27032135D02*
G75*
G02*
X66667865Y-28032135I35J-999965D01*
G01*
X32667865Y-98732135D02*
X32667865Y-104932135D01*
X100667865Y-33532135D02*
X100667865Y-37328381D01*
X50067865Y-29132135D02*
X50067865Y-28032135D01*
X101667865Y-38332135D02*
G75*
G02*
X100667865Y-37332135I35J1000035D01*
G01*
X99667865Y-32532135D02*
G75*
G02*
X100667865Y-33532135I35J-999965D01*
G01*
X83067865Y-97732135D02*
X68067865Y-97732135D01*
X33067865Y-37332128D02*
G75*
G02*
X32067865Y-38332065I-999965J28D01*
G01*
X17267865Y-104932135D02*
X17267865Y-39332135D01*
X49667865Y-96732135D02*
G75*
G02*
X48667865Y-97732065I-999965J35D01*
G01*
X48667865Y-97732135D02*
X33667865Y-97732135D01*
X67067865Y-96732135D02*
X67067865Y-95632135D01*
X33067865Y-37332128D02*
X33067865Y-31132135D01*
X66067865Y-94632135D02*
G75*
G02*
X67067865Y-95632135I35J-999965D01*
G01*
X115967865Y-38332135D02*
G75*
G02*
X116967865Y-39332135I35J-999965D01*
G01*
X115967865Y-105932135D02*
X102067865Y-105932135D01*
X32667865Y-104932135D02*
G75*
G02*
X31667865Y-105932065I-999965J35D01*
G01*
X102067865Y-105932135D02*
G75*
G02*
X101067865Y-104932135I35J1000035D01*
G01*
X49667865Y-95632135D02*
G75*
G02*
X50667865Y-94632065I1000035J35D01*
G01*
X49667865Y-95632135D02*
X49667865Y-96732135D01*
X100067865Y-100132135D02*
X85067865Y-100132135D01*
X101067865Y-104932135D02*
X101067865Y-101132135D01*
X116967865Y-104932135D02*
G75*
G02*
X115967865Y-105932065I-999965J35D01*
G01*
X50067865Y-29132135D02*
G75*
G02*
X49067865Y-30132065I-999965J35D01*
G01*
X34067865Y-30132135D02*
X49067865Y-30132135D01*
X33067865Y-31132135D02*
G75*
G02*
X34067865Y-30132065I1000035J35D01*
G01*
X84067865Y-99132135D02*
X84067865Y-98732135D01*
X31667865Y-105932135D02*
X18267865Y-105932135D01*
X116967865Y-104932135D02*
X116967865Y-39332135D01*
X83667865Y-31132135D02*
X83667865Y-31532135D01*
X66067865Y-94632135D02*
X50667865Y-94632135D01*
X68067865Y-97732135D02*
G75*
G02*
X67067865Y-96732135I35J1000035D01*
G01*
M02*
