%TF.GenerationSoftware,KiCad,Pcbnew,9.0.0*%
%TF.CreationDate,2025-04-19T15:24:46+09:00*%
%TF.ProjectId,nofy_V2_L,6e6f6679-5f56-4325-9f4c-2e6b69636164,rev?*%
%TF.SameCoordinates,Original*%
%TF.FileFunction,Copper,L1,Top*%
%TF.FilePolarity,Positive*%
%FSLAX46Y46*%
G04 Gerber Fmt 4.6, Leading zero omitted, Abs format (unit mm)*
G04 Created by KiCad (PCBNEW 9.0.0) date 2025-04-19 15:24:46*
%MOMM*%
%LPD*%
G01*
G04 APERTURE LIST*
%TA.AperFunction,ComponentPad*%
%ADD10C,2.000000*%
%TD*%
%TA.AperFunction,ComponentPad*%
%ADD11C,1.700000*%
%TD*%
%TA.AperFunction,ComponentPad*%
%ADD12O,1.700000X1.700000*%
%TD*%
%TA.AperFunction,ViaPad*%
%ADD13C,0.600000*%
%TD*%
%TA.AperFunction,Conductor*%
%ADD14C,0.200000*%
%TD*%
%TA.AperFunction,Conductor*%
%ADD15C,0.300000*%
%TD*%
G04 APERTURE END LIST*
D10*
%TO.P,SW3,A,A*%
%TO.N,RE_A_L*%
X100767865Y-91132135D03*
%TO.P,SW3,B,B*%
%TO.N,RE_B_L*%
X100767865Y-96132135D03*
%TO.P,SW3,C,C*%
%TO.N,GND_L*%
X100767865Y-93632135D03*
%TD*%
D11*
%TO.P,J18,1,Pin_1*%
%TO.N,Pin0*%
X32882865Y-66137135D03*
D12*
%TO.P,J18,2,Pin_2*%
%TO.N,Pin1*%
X32882865Y-68677135D03*
%TO.P,J18,3,Pin_3*%
%TO.N,Pin2*%
X32882865Y-71217135D03*
%TO.P,J18,4,Pin_4*%
%TO.N,Net-(D16-K)*%
X32882865Y-73757135D03*
%TD*%
D11*
%TO.P,Con_L_6,1,Pin_1*%
%TO.N,unconnected-(Con_L_6-Pin_1-Pad1)*%
X100867865Y-54692135D03*
D12*
%TO.P,Con_L_6,2,Pin_2*%
%TO.N,unconnected-(Con_L_6-Pin_2-Pad2)*%
X100867865Y-57232135D03*
%TO.P,Con_L_6,3,Pin_3*%
%TO.N,unconnected-(Con_L_6-Pin_3-Pad3)*%
X100867865Y-59772135D03*
%TO.P,Con_L_6,4,Pin_4*%
%TO.N,unconnected-(Con_L_6-Pin_4-Pad4)*%
X100867865Y-62312135D03*
%TD*%
D11*
%TO.P,Con_L_4,1,Pin_1*%
%TO.N,VCC_L*%
X100882865Y-39637135D03*
D12*
%TO.P,Con_L_4,2,Pin_2*%
%TO.N,GND_L*%
X100882865Y-42177135D03*
%TO.P,Con_L_4,3,Pin_3*%
%TO.N,unconnected-(Con_L_4-Pin_3-Pad3)*%
X100882865Y-44717135D03*
%TO.P,Con_L_4,4,Pin_4*%
%TO.N,Pin0*%
X100882865Y-47257135D03*
%TD*%
D11*
%TO.P,Con_L_0,1,Pin_1*%
%TO.N,RE_B_L*%
X66867865Y-31492135D03*
D12*
%TO.P,Con_L_0,2,Pin_2*%
%TO.N,INTR0*%
X66867865Y-34032135D03*
%TO.P,Con_L_0,3,Pin_3*%
%TO.N,Pin5*%
X66867865Y-36572135D03*
%TO.P,Con_L_0,4,Pin_4*%
%TO.N,Pin4*%
X66867865Y-39112135D03*
%TD*%
D11*
%TO.P,Con_L_2,1,Pin_1*%
%TO.N,Pin3*%
X66867865Y-46637135D03*
D12*
%TO.P,Con_L_2,2,Pin_2*%
%TO.N,RE_A_L*%
X66867865Y-49177135D03*
%TO.P,Con_L_2,3,Pin_3*%
%TO.N,Pin2*%
X66867865Y-51717135D03*
%TO.P,Con_L_2,4,Pin_4*%
%TO.N,Pin1*%
X66867865Y-54257135D03*
%TD*%
D13*
%TO.N,Pin5*%
X99932865Y-52286335D03*
X71574665Y-52105535D03*
X68764965Y-36572135D03*
%TO.N,Pin4*%
X53317865Y-34732135D03*
X66867865Y-43105235D03*
X81915265Y-43105235D03*
%TO.N,Pin3*%
X63705765Y-67988535D03*
X32717865Y-46182135D03*
X81315265Y-45758835D03*
X67016265Y-67988535D03*
%TO.N,Pin2*%
X54656665Y-69875735D03*
X50017865Y-70709535D03*
X54656665Y-65350635D03*
X51949665Y-65350635D03*
X62927965Y-65350635D03*
%TO.N,Pin1*%
X49717865Y-63934135D03*
X60450465Y-63934135D03*
X34216965Y-63934135D03*
%TO.N,Pin0*%
X93717865Y-49340935D03*
X34090165Y-46972535D03*
%TO.N,Net-(D17-K)*%
X79078465Y-82274335D03*
X81983265Y-45081935D03*
X72176365Y-45157135D03*
X81138465Y-81966735D03*
%TO.N,Net-(D16-K)*%
X71861065Y-66354135D03*
X79442865Y-57982135D03*
X34616665Y-69213535D03*
X73219465Y-57932135D03*
X43431365Y-69213535D03*
X43431365Y-65952435D03*
%TO.N,Net-(D13-K)*%
X31086265Y-78802435D03*
X67373065Y-44042235D03*
X34537365Y-78802435D03*
X67477865Y-42338335D03*
X35500965Y-44042235D03*
X88551265Y-41900235D03*
X75190865Y-42265635D03*
%TO.N,Net-(D11-K)*%
X65111965Y-80299435D03*
X81878065Y-63597735D03*
X71373165Y-63597735D03*
X32907065Y-82500135D03*
X82691365Y-51569835D03*
X76294665Y-51498235D03*
%TO.N,Net-(D15-K)*%
X44086365Y-86730435D03*
X44086365Y-66604235D03*
X30729980Y-85845506D03*
X67338965Y-66604235D03*
%TO.N,Net-(D1-K)*%
X71607965Y-52931235D03*
X30797965Y-80028835D03*
X77455565Y-52714135D03*
X65817865Y-78332135D03*
X64367865Y-78282135D03*
%TO.N,Net-(D25-A)*%
X77485265Y-70136735D03*
X112842865Y-72732435D03*
%TO.N,Net-(D24-A)*%
X74691308Y-59320835D03*
X111817365Y-60923835D03*
%TO.N,Net-(D27-A)*%
X74610212Y-68958736D03*
X99602765Y-69563035D03*
%TO.N,Net-(D26-A)*%
X105654065Y-69133835D03*
X74550000Y-68050000D03*
%TO.N,Net-(D23-A)*%
X61842865Y-44779235D03*
X68679565Y-44332135D03*
%TO.N,RE_A_L*%
X86982965Y-49177135D03*
X94467865Y-85432135D03*
%TO.N,RE_B_L*%
X71926765Y-41052935D03*
X81689465Y-50197335D03*
X97627765Y-50197335D03*
X97217865Y-94982135D03*
X80682165Y-40313035D03*
%TO.N,GND_L*%
X98167865Y-92432135D03*
%TO.N,Net-(D21-A)*%
X78224765Y-57366935D03*
X87658265Y-57366935D03*
X95842865Y-70796635D03*
X89021965Y-70796635D03*
%TO.N,Net-(D20-A)*%
X95842865Y-53183835D03*
X81528265Y-53183835D03*
%TO.N,Net-(D19-A)*%
X95830365Y-48649035D03*
X79916665Y-46824735D03*
%TO.N,Net-(D18-A)*%
X78698465Y-41663935D03*
X37892865Y-43220435D03*
%TO.N,Net-(D9-A)*%
X55465465Y-79068235D03*
X35985165Y-79068235D03*
%TD*%
D14*
%TO.N,Pin5*%
X71574665Y-52105535D02*
X82216565Y-52105535D01*
X82397365Y-52286335D02*
X99932865Y-52286335D01*
X66867865Y-36572135D02*
X68764965Y-36572135D01*
X82216565Y-52105535D02*
X82397365Y-52286335D01*
%TO.N,Pin4*%
X53317865Y-34732135D02*
X57697865Y-39112135D01*
X57697865Y-39112135D02*
X66867865Y-39112135D01*
X81915265Y-43105235D02*
X66867865Y-43105235D01*
%TO.N,Pin3*%
X67746165Y-45758835D02*
X81315265Y-45758835D01*
X66412865Y-46182135D02*
X66867865Y-46637135D01*
X66867865Y-46637135D02*
X67746165Y-45758835D01*
X67016265Y-67988535D02*
X63705765Y-67988535D01*
X32717865Y-46182135D02*
X66412865Y-46182135D01*
%TO.N,Pin2*%
X38351465Y-69697535D02*
X42862365Y-69697535D01*
X50017865Y-70709535D02*
X50851665Y-69875735D01*
X54656665Y-65350635D02*
X51949665Y-65350635D01*
X43874365Y-70709535D02*
X50017865Y-70709535D01*
X42862365Y-69697535D02*
X43874365Y-70709535D01*
X62927965Y-65350635D02*
X54656665Y-65350635D01*
X32882865Y-71217135D02*
X34277865Y-69822135D01*
X38226865Y-69822135D02*
X38351465Y-69697535D01*
X50851665Y-69875735D02*
X54656665Y-69875735D01*
X34277865Y-69822135D02*
X38226865Y-69822135D01*
%TO.N,Pin1*%
X34216965Y-63934135D02*
X49717865Y-63934135D01*
X49717865Y-63934135D02*
X60450465Y-63934135D01*
%TO.N,Pin0*%
X90069265Y-47788835D02*
X91621365Y-49340935D01*
X99346265Y-47257135D02*
X100882865Y-47257135D01*
X66390865Y-47788835D02*
X90069265Y-47788835D01*
X97262465Y-49340935D02*
X99346265Y-47257135D01*
X91621365Y-49340935D02*
X93717865Y-49340935D01*
X97136965Y-49340935D02*
X97262465Y-49340935D01*
X65574565Y-46972535D02*
X66390865Y-47788835D01*
X34090165Y-46972535D02*
X65574565Y-46972535D01*
X97136965Y-49340935D02*
X93717865Y-49340935D01*
%TO.N,Net-(D17-K)*%
X72176365Y-45157135D02*
X72251565Y-45081935D01*
X81138465Y-81966735D02*
X80830865Y-82274335D01*
X80830865Y-82274335D02*
X79078465Y-82274335D01*
X72251565Y-45081935D02*
X81983265Y-45081935D01*
%TO.N,Net-(D16-K)*%
X73387565Y-57932135D02*
X73219465Y-57932135D01*
X43431365Y-69213535D02*
X34616665Y-69213535D01*
X79442865Y-57982135D02*
X73437565Y-57982135D01*
X71459365Y-65952435D02*
X71861065Y-66354135D01*
X43431365Y-65952435D02*
X71459365Y-65952435D01*
X73437565Y-57982135D02*
X73387565Y-57932135D01*
%TO.N,Net-(D13-K)*%
X34537365Y-78802435D02*
X31086265Y-78802435D01*
X67373065Y-44042235D02*
X35500965Y-44042235D01*
X79039565Y-42265635D02*
X79404965Y-41900235D01*
X75190865Y-42265635D02*
X79039565Y-42265635D01*
X79404965Y-41900235D02*
X88551265Y-41900235D01*
X75118165Y-42338335D02*
X75190865Y-42265635D01*
X67477865Y-42338335D02*
X75118165Y-42338335D01*
%TO.N,Net-(D11-K)*%
X32907065Y-82500135D02*
X35107765Y-80299435D01*
X82691365Y-51569835D02*
X76366265Y-51569835D01*
X76366265Y-51569835D02*
X76294665Y-51498235D01*
X81878065Y-63597735D02*
X71373165Y-63597735D01*
X35107765Y-80299435D02*
X65111965Y-80299435D01*
%TO.N,Net-(D15-K)*%
X44086365Y-66604235D02*
X67338965Y-66604235D01*
X44034665Y-86782135D02*
X44086365Y-86730435D01*
X31666609Y-86782135D02*
X44034665Y-86782135D01*
X30729980Y-85845506D02*
X31666609Y-86782135D01*
%TO.N,Net-(D1-K)*%
X71607965Y-52931235D02*
X71825065Y-52714135D01*
X31129065Y-79697735D02*
X30797965Y-80028835D01*
X64367865Y-78282135D02*
X64417865Y-78332135D01*
X64417865Y-78332135D02*
X65817865Y-78332135D01*
X71825065Y-52714135D02*
X77455565Y-52714135D01*
X64367865Y-78382135D02*
X63052265Y-79697735D01*
X64367865Y-78282135D02*
X64367865Y-78382135D01*
X63052265Y-79697735D02*
X31129065Y-79697735D01*
%TO.N,Net-(D25-A)*%
X98064665Y-70136735D02*
X100660365Y-72732435D01*
X77485265Y-70136735D02*
X98064665Y-70136735D01*
X100660365Y-72732435D02*
X112842865Y-72732435D01*
%TO.N,Net-(D24-A)*%
X74691308Y-59320835D02*
X74702608Y-59332135D01*
X89490965Y-60923835D02*
X111817365Y-60923835D01*
X74702608Y-59332135D02*
X87899265Y-59332135D01*
X87899265Y-59332135D02*
X89490965Y-60923835D01*
%TO.N,Net-(D27-A)*%
X98990765Y-68951035D02*
X99602765Y-69563035D01*
X74617913Y-68951035D02*
X98990765Y-68951035D01*
X74610212Y-68958736D02*
X74617913Y-68951035D01*
%TO.N,Net-(D26-A)*%
X101212365Y-69133835D02*
X105654065Y-69133835D01*
X75033135Y-68533135D02*
X100611665Y-68533135D01*
X74550000Y-68050000D02*
X75033135Y-68533135D01*
X100611665Y-68533135D02*
X101212365Y-69133835D01*
%TO.N,Net-(D23-A)*%
X68232465Y-44779235D02*
X61842865Y-44779235D01*
X68679565Y-44332135D02*
X68232465Y-44779235D01*
%TO.N,RE_A_L*%
X66867865Y-49177135D02*
X68019565Y-49177135D01*
X100167865Y-91132135D02*
X100767865Y-91132135D01*
X86982965Y-49177135D02*
X68019565Y-49177135D01*
X94467865Y-85432135D02*
X100167865Y-91132135D01*
%TO.N,RE_B_L*%
X98367865Y-96132135D02*
X100767865Y-96132135D01*
X81689465Y-50197335D02*
X97627765Y-50197335D01*
X97217865Y-94982135D02*
X98367865Y-96132135D01*
X78338465Y-41164735D02*
X72038565Y-41164735D01*
X80682165Y-40313035D02*
X79190165Y-40313035D01*
X79190165Y-40313035D02*
X78338465Y-41164735D01*
X72038565Y-41164735D02*
X71926765Y-41052935D01*
D15*
%TO.N,GND_L*%
X99367865Y-93632135D02*
X100767865Y-93632135D01*
X98167865Y-92432135D02*
X99367865Y-93632135D01*
D14*
%TO.N,Net-(D21-A)*%
X89021965Y-70796635D02*
X95842865Y-70796635D01*
X87658265Y-57366935D02*
X78224765Y-57366935D01*
%TO.N,Net-(D20-A)*%
X95842865Y-53183835D02*
X81528265Y-53183835D01*
%TO.N,Net-(D19-A)*%
X91624465Y-48649035D02*
X95830365Y-48649035D01*
X79916665Y-46824735D02*
X89800165Y-46824735D01*
X89800165Y-46824735D02*
X91624465Y-48649035D01*
%TO.N,Net-(D18-A)*%
X63770265Y-41663935D02*
X78698465Y-41663935D01*
X37892865Y-43220435D02*
X62213765Y-43220435D01*
X62213765Y-43220435D02*
X63770265Y-41663935D01*
%TO.N,Net-(D9-A)*%
X35985165Y-79068235D02*
X55465465Y-79068235D01*
%TD*%
M02*
