%TF.GenerationSoftware,KiCad,Pcbnew,9.0.0*%
%TF.CreationDate,2025-04-19T15:24:46+09:00*%
%TF.ProjectId,nofy_V2_L,6e6f6679-5f56-4325-9f4c-2e6b69636164,rev?*%
%TF.SameCoordinates,Original*%
%TF.FileFunction,Soldermask,Top*%
%TF.FilePolarity,Negative*%
%FSLAX46Y46*%
G04 Gerber Fmt 4.6, Leading zero omitted, Abs format (unit mm)*
G04 Created by KiCad (PCBNEW 9.0.0) date 2025-04-19 15:24:46*
%MOMM*%
%LPD*%
G01*
G04 APERTURE LIST*
%ADD10C,2.000000*%
%ADD11C,1.700000*%
%ADD12O,1.700000X1.700000*%
%ADD13C,0.600000*%
G04 APERTURE END LIST*
D10*
%TO.C,SW3*%
X100767865Y-91132135D03*
X100767865Y-96132135D03*
X100767865Y-93632135D03*
%TD*%
D11*
%TO.C,J18*%
X32882865Y-66137135D03*
D12*
X32882865Y-68677135D03*
X32882865Y-71217135D03*
X32882865Y-73757135D03*
%TD*%
D11*
%TO.C,Con_L_6*%
X100867865Y-54692135D03*
D12*
X100867865Y-57232135D03*
X100867865Y-59772135D03*
X100867865Y-62312135D03*
%TD*%
D11*
%TO.C,Con_L_4*%
X100882865Y-39637135D03*
D12*
X100882865Y-42177135D03*
X100882865Y-44717135D03*
X100882865Y-47257135D03*
%TD*%
D11*
%TO.C,Con_L_0*%
X66867865Y-31492135D03*
D12*
X66867865Y-34032135D03*
X66867865Y-36572135D03*
X66867865Y-39112135D03*
%TD*%
D11*
%TO.C,Con_L_2*%
X66867865Y-46637135D03*
D12*
X66867865Y-49177135D03*
X66867865Y-51717135D03*
X66867865Y-54257135D03*
%TD*%
D13*
X99932865Y-52286335D03*
X71574665Y-52105535D03*
X68764965Y-36572135D03*
X53317865Y-34732135D03*
X66867865Y-43105235D03*
X81915265Y-43105235D03*
X63705765Y-67988535D03*
X32717865Y-46182135D03*
X81315265Y-45758835D03*
X67016265Y-67988535D03*
X54656665Y-69875735D03*
X50017865Y-70709535D03*
X54656665Y-65350635D03*
X51949665Y-65350635D03*
X62927965Y-65350635D03*
X49717865Y-63934135D03*
X60450465Y-63934135D03*
X34216965Y-63934135D03*
X93717865Y-49340935D03*
X34090165Y-46972535D03*
X79078465Y-82274335D03*
X81983265Y-45081935D03*
X72176365Y-45157135D03*
X81138465Y-81966735D03*
X71861065Y-66354135D03*
X79442865Y-57982135D03*
X34616665Y-69213535D03*
X73219465Y-57932135D03*
X43431365Y-69213535D03*
X43431365Y-65952435D03*
X31086265Y-78802435D03*
X67373065Y-44042235D03*
X34537365Y-78802435D03*
X67477865Y-42338335D03*
X35500965Y-44042235D03*
X88551265Y-41900235D03*
X75190865Y-42265635D03*
X65111965Y-80299435D03*
X81878065Y-63597735D03*
X71373165Y-63597735D03*
X32907065Y-82500135D03*
X82691365Y-51569835D03*
X76294665Y-51498235D03*
X44086365Y-86730435D03*
X44086365Y-66604235D03*
X30729980Y-85845506D03*
X67338965Y-66604235D03*
X71607965Y-52931235D03*
X30797965Y-80028835D03*
X77455565Y-52714135D03*
X65817865Y-78332135D03*
X64367865Y-78282135D03*
X77485265Y-70136735D03*
X112842865Y-72732435D03*
X74691308Y-59320835D03*
X111817365Y-60923835D03*
X74610212Y-68958736D03*
X99602765Y-69563035D03*
X105654065Y-69133835D03*
X74550000Y-68050000D03*
X61842865Y-44779235D03*
X68679565Y-44332135D03*
X86982965Y-49177135D03*
X94467865Y-85432135D03*
X71926765Y-41052935D03*
X81689465Y-50197335D03*
X97627765Y-50197335D03*
X97217865Y-94982135D03*
X80682165Y-40313035D03*
X98167865Y-92432135D03*
X78224765Y-57366935D03*
X87658265Y-57366935D03*
X95842865Y-70796635D03*
X89021965Y-70796635D03*
X95842865Y-53183835D03*
X81528265Y-53183835D03*
X95830365Y-48649035D03*
X79916665Y-46824735D03*
X78698465Y-41663935D03*
X37892865Y-43220435D03*
X55465465Y-79068235D03*
X35985165Y-79068235D03*
M02*
