%TF.GenerationSoftware,KiCad,Pcbnew,9.0.0*%
%TF.CreationDate,2025-04-19T15:24:46+09:00*%
%TF.ProjectId,nofy_V2_L,6e6f6679-5f56-4325-9f4c-2e6b69636164,rev?*%
%TF.SameCoordinates,Original*%
%TF.FileFunction,Legend,Bot*%
%TF.FilePolarity,Positive*%
%FSLAX46Y46*%
G04 Gerber Fmt 4.6, Leading zero omitted, Abs format (unit mm)*
G04 Created by KiCad (PCBNEW 9.0.0) date 2025-04-19 15:24:46*
%MOMM*%
%LPD*%
G01*
G04 APERTURE LIST*
%ADD10C,0.150000*%
%ADD11C,0.200000*%
%ADD12C,0.500000*%
%ADD13R,1.200000X0.950000*%
%ADD14C,2.000000*%
%ADD15C,3.000000*%
%ADD16C,4.800000*%
%ADD17R,3.000000X2.800000*%
%ADD18R,2.850000X2.750000*%
%ADD19C,1.700000*%
%ADD20O,1.700000X1.700000*%
%ADD21C,2.200000*%
%ADD22R,2.800000X3.000000*%
%ADD23R,2.750000X2.850000*%
%ADD24C,0.600000*%
G04 APERTURE END LIST*
D10*
X115481085Y-104285287D02*
X115481085Y-104951954D01*
X115481085Y-104380525D02*
X115433466Y-104332906D01*
X115433466Y-104332906D02*
X115338228Y-104285287D01*
X115338228Y-104285287D02*
X115195371Y-104285287D01*
X115195371Y-104285287D02*
X115100133Y-104332906D01*
X115100133Y-104332906D02*
X115052514Y-104428144D01*
X115052514Y-104428144D02*
X115052514Y-104951954D01*
X114433466Y-104951954D02*
X114528704Y-104904335D01*
X114528704Y-104904335D02*
X114576323Y-104856715D01*
X114576323Y-104856715D02*
X114623942Y-104761477D01*
X114623942Y-104761477D02*
X114623942Y-104475763D01*
X114623942Y-104475763D02*
X114576323Y-104380525D01*
X114576323Y-104380525D02*
X114528704Y-104332906D01*
X114528704Y-104332906D02*
X114433466Y-104285287D01*
X114433466Y-104285287D02*
X114290609Y-104285287D01*
X114290609Y-104285287D02*
X114195371Y-104332906D01*
X114195371Y-104332906D02*
X114147752Y-104380525D01*
X114147752Y-104380525D02*
X114100133Y-104475763D01*
X114100133Y-104475763D02*
X114100133Y-104761477D01*
X114100133Y-104761477D02*
X114147752Y-104856715D01*
X114147752Y-104856715D02*
X114195371Y-104904335D01*
X114195371Y-104904335D02*
X114290609Y-104951954D01*
X114290609Y-104951954D02*
X114433466Y-104951954D01*
X113814418Y-104285287D02*
X113433466Y-104285287D01*
X113671561Y-104951954D02*
X113671561Y-104094811D01*
X113671561Y-104094811D02*
X113623942Y-103999573D01*
X113623942Y-103999573D02*
X113528704Y-103951954D01*
X113528704Y-103951954D02*
X113433466Y-103951954D01*
X113195370Y-104285287D02*
X112957275Y-104951954D01*
X112719180Y-104285287D02*
X112957275Y-104951954D01*
X112957275Y-104951954D02*
X113052513Y-105190049D01*
X113052513Y-105190049D02*
X113100132Y-105237668D01*
X113100132Y-105237668D02*
X113195370Y-105285287D01*
X111719179Y-103951954D02*
X111385846Y-104951954D01*
X111385846Y-104951954D02*
X111052513Y-103951954D01*
X110766798Y-104047192D02*
X110719179Y-103999573D01*
X110719179Y-103999573D02*
X110623941Y-103951954D01*
X110623941Y-103951954D02*
X110385846Y-103951954D01*
X110385846Y-103951954D02*
X110290608Y-103999573D01*
X110290608Y-103999573D02*
X110242989Y-104047192D01*
X110242989Y-104047192D02*
X110195370Y-104142430D01*
X110195370Y-104142430D02*
X110195370Y-104237668D01*
X110195370Y-104237668D02*
X110242989Y-104380525D01*
X110242989Y-104380525D02*
X110814417Y-104951954D01*
X110814417Y-104951954D02*
X110195370Y-104951954D01*
D11*
%TO.C,D3*%
X27149080Y-89077449D02*
X28736584Y-89077449D01*
X27149080Y-88482135D02*
X26950642Y-88482135D01*
X27149080Y-87886821D02*
X27149080Y-89077449D01*
X28339708Y-87886821D02*
X28339708Y-89077449D01*
X28736584Y-89077449D02*
X28736584Y-87886821D01*
X28736584Y-87886821D02*
X27149080Y-87886821D01*
X28935022Y-88482135D02*
X28736584Y-88482135D01*
D10*
%TO.C,SW3*%
X87711615Y-88075885D02*
X88505365Y-88075885D01*
X87711615Y-88869635D02*
X87711615Y-88075885D01*
X87711615Y-98394635D02*
X87711615Y-99188385D01*
X87711615Y-99188385D02*
X88505365Y-99188385D01*
X98030365Y-99188385D02*
X98824115Y-99188385D01*
X98824115Y-88075885D02*
X98030365Y-88075885D01*
X98824115Y-88869635D02*
X98824115Y-88075885D01*
X98824115Y-99188385D02*
X98824115Y-98394635D01*
%TO.C,SW11*%
X39067865Y-82207135D02*
X40067865Y-81207135D01*
X39067865Y-84857135D02*
X39067865Y-82207135D01*
X39067865Y-84857135D02*
X40067865Y-85857135D01*
X39217865Y-82062135D02*
X39217865Y-84992135D01*
X39317865Y-81982135D02*
X39317865Y-85102135D01*
X39417865Y-81872135D02*
X39417865Y-85202135D01*
X39517865Y-81772135D02*
X39517865Y-85302135D01*
X39667865Y-81612135D02*
X39667865Y-85442135D01*
X39817865Y-81482135D02*
X39817865Y-85602135D01*
X39967865Y-81342135D02*
X39967865Y-85732135D01*
X40067865Y-81207135D02*
X42392865Y-81207135D01*
X40067865Y-85857135D02*
X42642865Y-85857135D01*
X40117865Y-81232135D02*
X40117865Y-85832135D01*
X40267865Y-81232135D02*
X40267865Y-85832135D01*
X40417865Y-81232135D02*
X40417865Y-85832135D01*
X40567865Y-81232135D02*
X40567865Y-85832135D01*
X40717865Y-81232135D02*
X40717865Y-85832135D01*
X40867865Y-81232135D02*
X40867865Y-85832135D01*
X41017865Y-81232135D02*
X41017865Y-85832135D01*
X41167865Y-81232135D02*
X41167865Y-85832135D01*
X41317865Y-81232135D02*
X41317865Y-85832135D01*
X41467865Y-81232135D02*
X41467865Y-85832135D01*
X41617865Y-81232135D02*
X41617865Y-85832135D01*
X41767865Y-81232135D02*
X41767865Y-85832135D01*
X41917865Y-81232135D02*
X41917865Y-85832135D01*
X42067865Y-81232135D02*
X42067865Y-85832135D01*
X42217865Y-81232135D02*
X42217865Y-85832135D01*
X42367865Y-81232135D02*
X42367865Y-85832135D01*
X42517865Y-81322135D02*
X42517865Y-85782135D01*
X42667865Y-81442135D02*
X42667865Y-85832135D01*
X42817865Y-81552135D02*
X42817865Y-85832135D01*
X42967865Y-81672135D02*
X42967865Y-85832135D01*
X43117865Y-81812135D02*
X43117865Y-85932135D01*
X43257865Y-81912135D02*
X43267865Y-85982135D01*
X43367865Y-82002135D02*
X43367865Y-86032135D01*
X43467865Y-82082135D02*
X43467865Y-86082135D01*
X43567865Y-82162135D02*
X43567865Y-86182135D01*
X43667865Y-82232135D02*
X42392865Y-81207135D01*
X43667865Y-82232135D02*
X43667865Y-86382135D01*
X43767865Y-82412135D02*
X43767865Y-86532135D01*
X43817865Y-87032135D02*
X43817865Y-87355248D01*
X43867865Y-82582135D02*
X43867865Y-87482135D01*
X44017865Y-82732135D02*
X44017865Y-87682135D01*
X44167865Y-82882135D02*
X44167865Y-87872135D01*
X44317865Y-82982135D02*
X44317865Y-87952135D01*
X44467865Y-83082135D02*
X44467865Y-88002135D01*
X44617865Y-83182135D02*
X44617865Y-88032135D01*
X44679069Y-88057135D02*
X47642865Y-88057135D01*
X44767865Y-83232135D02*
X44767865Y-88052135D01*
X44917865Y-83332135D02*
X44917865Y-88042135D01*
X45067865Y-83382135D02*
X45067865Y-87982135D01*
X45217865Y-83382135D02*
X45217865Y-88032135D01*
X45367865Y-83392135D02*
X45367865Y-88032135D01*
X45517865Y-83432135D02*
X45517865Y-87982135D01*
X45667865Y-83407135D02*
X47642865Y-83407135D01*
X45667865Y-83432135D02*
X45667865Y-88032135D01*
X45817865Y-83432135D02*
X45817865Y-88032135D01*
X45967865Y-83432135D02*
X45967865Y-88032135D01*
X46117865Y-83432135D02*
X46117865Y-88032135D01*
X46267865Y-83432135D02*
X46267865Y-88032135D01*
X46417865Y-83432135D02*
X46417865Y-88032135D01*
X46567865Y-83432135D02*
X46567865Y-88032135D01*
X46717865Y-83432135D02*
X46717865Y-88032135D01*
X46867865Y-83432135D02*
X46867865Y-88032135D01*
X47017865Y-83432135D02*
X47017865Y-88032135D01*
X47167865Y-83432135D02*
X47167865Y-88032135D01*
D12*
X47167865Y-87877135D02*
X49717865Y-87877135D01*
D10*
X47317865Y-83432135D02*
X47317865Y-88032135D01*
X47467865Y-83432135D02*
X47467865Y-88032135D01*
X47617865Y-83432135D02*
X47617865Y-88032135D01*
X47767865Y-83422135D02*
X47767865Y-87932135D01*
X47917865Y-83462135D02*
X47917865Y-87782135D01*
X48067865Y-83512135D02*
X48067865Y-87632135D01*
X48217865Y-83592135D02*
X48217865Y-87732135D01*
X48367865Y-83732135D02*
X48367865Y-87702135D01*
X48517865Y-83902135D02*
X48517865Y-87582135D01*
X48672865Y-87057135D02*
X48672865Y-84407135D01*
X42642865Y-85857135D02*
G75*
G02*
X43817865Y-87032135I-2J-1175002D01*
G01*
X44679069Y-88057135D02*
G75*
G02*
X43817865Y-87355248I38796J926887D01*
G01*
X45667865Y-83414677D02*
G75*
G02*
X43667865Y-82232135I2J2282546D01*
G01*
X47672865Y-83407135D02*
G75*
G02*
X48672865Y-84407135I1J-999999D01*
G01*
X48672865Y-87057135D02*
G75*
G02*
X47672865Y-88057135I-999999J-1D01*
G01*
%TO.C,SW5*%
X22067865Y-56407135D02*
X23067865Y-55407135D01*
X22067865Y-59057135D02*
X22067865Y-56407135D01*
X22067865Y-59057135D02*
X23067865Y-60057135D01*
X22217865Y-56262135D02*
X22217865Y-59192135D01*
X22317865Y-56182135D02*
X22317865Y-59302135D01*
X22417865Y-56072135D02*
X22417865Y-59402135D01*
X22517865Y-55972135D02*
X22517865Y-59502135D01*
X22667865Y-55812135D02*
X22667865Y-59642135D01*
X22817865Y-55682135D02*
X22817865Y-59802135D01*
X22967865Y-55542135D02*
X22967865Y-59932135D01*
X23067865Y-55407135D02*
X25392865Y-55407135D01*
X23067865Y-60057135D02*
X25642865Y-60057135D01*
X23117865Y-55432135D02*
X23117865Y-60032135D01*
X23267865Y-55432135D02*
X23267865Y-60032135D01*
X23417865Y-55432135D02*
X23417865Y-60032135D01*
X23567865Y-55432135D02*
X23567865Y-60032135D01*
X23717865Y-55432135D02*
X23717865Y-60032135D01*
X23867865Y-55432135D02*
X23867865Y-60032135D01*
X24017865Y-55432135D02*
X24017865Y-60032135D01*
X24167865Y-55432135D02*
X24167865Y-60032135D01*
X24317865Y-55432135D02*
X24317865Y-60032135D01*
X24467865Y-55432135D02*
X24467865Y-60032135D01*
X24617865Y-55432135D02*
X24617865Y-60032135D01*
X24767865Y-55432135D02*
X24767865Y-60032135D01*
X24917865Y-55432135D02*
X24917865Y-60032135D01*
X25067865Y-55432135D02*
X25067865Y-60032135D01*
X25217865Y-55432135D02*
X25217865Y-60032135D01*
X25367865Y-55432135D02*
X25367865Y-60032135D01*
X25517865Y-55522135D02*
X25517865Y-59982135D01*
X25667865Y-55642135D02*
X25667865Y-60032135D01*
X25817865Y-55752135D02*
X25817865Y-60032135D01*
X25967865Y-55872135D02*
X25967865Y-60032135D01*
X26117865Y-56012135D02*
X26117865Y-60132135D01*
X26257865Y-56112135D02*
X26267865Y-60182135D01*
X26367865Y-56202135D02*
X26367865Y-60232135D01*
X26467865Y-56282135D02*
X26467865Y-60282135D01*
X26567865Y-56362135D02*
X26567865Y-60382135D01*
X26667865Y-56432135D02*
X25392865Y-55407135D01*
X26667865Y-56432135D02*
X26667865Y-60582135D01*
X26767865Y-56612135D02*
X26767865Y-60732135D01*
X26817865Y-61232135D02*
X26817865Y-61555248D01*
X26867865Y-56782135D02*
X26867865Y-61682135D01*
X27017865Y-56932135D02*
X27017865Y-61882135D01*
X27167865Y-57082135D02*
X27167865Y-62072135D01*
X27317865Y-57182135D02*
X27317865Y-62152135D01*
X27467865Y-57282135D02*
X27467865Y-62202135D01*
X27617865Y-57382135D02*
X27617865Y-62232135D01*
X27679069Y-62257135D02*
X30642865Y-62257135D01*
X27767865Y-57432135D02*
X27767865Y-62252135D01*
X27917865Y-57532135D02*
X27917865Y-62242135D01*
X28067865Y-57582135D02*
X28067865Y-62182135D01*
X28217865Y-57582135D02*
X28217865Y-62232135D01*
X28367865Y-57592135D02*
X28367865Y-62232135D01*
X28517865Y-57632135D02*
X28517865Y-62182135D01*
X28667865Y-57607135D02*
X30642865Y-57607135D01*
X28667865Y-57632135D02*
X28667865Y-62232135D01*
X28817865Y-57632135D02*
X28817865Y-62232135D01*
X28967865Y-57632135D02*
X28967865Y-62232135D01*
X29117865Y-57632135D02*
X29117865Y-62232135D01*
X29267865Y-57632135D02*
X29267865Y-62232135D01*
X29417865Y-57632135D02*
X29417865Y-62232135D01*
X29567865Y-57632135D02*
X29567865Y-62232135D01*
X29717865Y-57632135D02*
X29717865Y-62232135D01*
X29867865Y-57632135D02*
X29867865Y-62232135D01*
X30017865Y-57632135D02*
X30017865Y-62232135D01*
X30167865Y-57632135D02*
X30167865Y-62232135D01*
D12*
X30167865Y-62077135D02*
X32717865Y-62077135D01*
D10*
X30317865Y-57632135D02*
X30317865Y-62232135D01*
X30467865Y-57632135D02*
X30467865Y-62232135D01*
X30617865Y-57632135D02*
X30617865Y-62232135D01*
X30767865Y-57622135D02*
X30767865Y-62132135D01*
X30917865Y-57662135D02*
X30917865Y-61982135D01*
X31067865Y-57712135D02*
X31067865Y-61832135D01*
X31217865Y-57792135D02*
X31217865Y-61932135D01*
X31367865Y-57932135D02*
X31367865Y-61902135D01*
X31517865Y-58102135D02*
X31517865Y-61782135D01*
X31672865Y-61257135D02*
X31672865Y-58607135D01*
X25642865Y-60057135D02*
G75*
G02*
X26817865Y-61232135I-2J-1175002D01*
G01*
X27679069Y-62257135D02*
G75*
G02*
X26817865Y-61555248I38796J926887D01*
G01*
X28667865Y-57614677D02*
G75*
G02*
X26667865Y-56432135I2J2282546D01*
G01*
X30672865Y-57607135D02*
G75*
G02*
X31672865Y-58607135I1J-999999D01*
G01*
X31672865Y-61257135D02*
G75*
G02*
X30672865Y-62257135I-999999J-1D01*
G01*
%TO.C,SW21*%
X68062865Y-91807135D02*
X68062865Y-94457135D01*
X68217865Y-94962135D02*
X68217865Y-91282135D01*
X68367865Y-95132135D02*
X68367865Y-91162135D01*
X68517865Y-95272135D02*
X68517865Y-91132135D01*
X68667865Y-95352135D02*
X68667865Y-91232135D01*
X68817865Y-95402135D02*
X68817865Y-91082135D01*
X68967865Y-95442135D02*
X68967865Y-90932135D01*
X69117865Y-95432135D02*
X69117865Y-90832135D01*
X69267865Y-95432135D02*
X69267865Y-90832135D01*
X69417865Y-95432135D02*
X69417865Y-90832135D01*
D12*
X69567865Y-90987135D02*
X67017865Y-90987135D01*
D10*
X69567865Y-95432135D02*
X69567865Y-90832135D01*
X69717865Y-95432135D02*
X69717865Y-90832135D01*
X69867865Y-95432135D02*
X69867865Y-90832135D01*
X70017865Y-95432135D02*
X70017865Y-90832135D01*
X70167865Y-95432135D02*
X70167865Y-90832135D01*
X70317865Y-95432135D02*
X70317865Y-90832135D01*
X70467865Y-95432135D02*
X70467865Y-90832135D01*
X70617865Y-95432135D02*
X70617865Y-90832135D01*
X70767865Y-95432135D02*
X70767865Y-90832135D01*
X70917865Y-95432135D02*
X70917865Y-90832135D01*
X71067865Y-95432135D02*
X71067865Y-90832135D01*
X71067865Y-95457135D02*
X69092865Y-95457135D01*
X71217865Y-95432135D02*
X71217865Y-90882135D01*
X71367865Y-95472135D02*
X71367865Y-90832135D01*
X71517865Y-95482135D02*
X71517865Y-90832135D01*
X71667865Y-95482135D02*
X71667865Y-90882135D01*
X71817865Y-95532135D02*
X71817865Y-90822135D01*
X71967865Y-95632135D02*
X71967865Y-90812135D01*
X72056661Y-90807135D02*
X69092865Y-90807135D01*
X72117865Y-95682135D02*
X72117865Y-90832135D01*
X72267865Y-95782135D02*
X72267865Y-90862135D01*
X72417865Y-95882135D02*
X72417865Y-90912135D01*
X72567865Y-95982135D02*
X72567865Y-90992135D01*
X72717865Y-96132135D02*
X72717865Y-91182135D01*
X72867865Y-96282135D02*
X72867865Y-91382135D01*
X72917865Y-91832135D02*
X72917865Y-91509022D01*
X72967865Y-96452135D02*
X72967865Y-92332135D01*
X73067865Y-96632135D02*
X73067865Y-92482135D01*
X73067865Y-96632135D02*
X74342865Y-97657135D01*
X73167865Y-96702135D02*
X73167865Y-92682135D01*
X73267865Y-96782135D02*
X73267865Y-92782135D01*
X73367865Y-96862135D02*
X73367865Y-92832135D01*
X73477865Y-96952135D02*
X73467865Y-92882135D01*
X73617865Y-97052135D02*
X73617865Y-92932135D01*
X73767865Y-97192135D02*
X73767865Y-93032135D01*
X73917865Y-97312135D02*
X73917865Y-93032135D01*
X74067865Y-97422135D02*
X74067865Y-93032135D01*
X74217865Y-97542135D02*
X74217865Y-93082135D01*
X74367865Y-97632135D02*
X74367865Y-93032135D01*
X74517865Y-97632135D02*
X74517865Y-93032135D01*
X74667865Y-97632135D02*
X74667865Y-93032135D01*
X74817865Y-97632135D02*
X74817865Y-93032135D01*
X74967865Y-97632135D02*
X74967865Y-93032135D01*
X75117865Y-97632135D02*
X75117865Y-93032135D01*
X75267865Y-97632135D02*
X75267865Y-93032135D01*
X75417865Y-97632135D02*
X75417865Y-93032135D01*
X75567865Y-97632135D02*
X75567865Y-93032135D01*
X75717865Y-97632135D02*
X75717865Y-93032135D01*
X75867865Y-97632135D02*
X75867865Y-93032135D01*
X76017865Y-97632135D02*
X76017865Y-93032135D01*
X76167865Y-97632135D02*
X76167865Y-93032135D01*
X76317865Y-97632135D02*
X76317865Y-93032135D01*
X76467865Y-97632135D02*
X76467865Y-93032135D01*
X76617865Y-97632135D02*
X76617865Y-93032135D01*
X76667865Y-93007135D02*
X74092865Y-93007135D01*
X76667865Y-97657135D02*
X74342865Y-97657135D01*
X76767865Y-97522135D02*
X76767865Y-93132135D01*
X76917865Y-97382135D02*
X76917865Y-93262135D01*
X77067865Y-97252135D02*
X77067865Y-93422135D01*
X77217865Y-97092135D02*
X77217865Y-93562135D01*
X77317865Y-96992135D02*
X77317865Y-93662135D01*
X77417865Y-96882135D02*
X77417865Y-93762135D01*
X77517865Y-96802135D02*
X77517865Y-93872135D01*
X77667865Y-94007135D02*
X76667865Y-93007135D01*
X77667865Y-94007135D02*
X77667865Y-96657135D01*
X77667865Y-96657135D02*
X76667865Y-97657135D01*
X68062865Y-91807135D02*
G75*
G02*
X69062865Y-90807135I999999J1D01*
G01*
X69062865Y-95457135D02*
G75*
G02*
X68062865Y-94457135I-1J999999D01*
G01*
X71067865Y-95449593D02*
G75*
G02*
X73067865Y-96632135I-2J-2282546D01*
G01*
X72056661Y-90807135D02*
G75*
G02*
X72917865Y-91509022I-38796J-926887D01*
G01*
X74092865Y-93007135D02*
G75*
G02*
X72917865Y-91832135I2J1175002D01*
G01*
%TO.C,SW23*%
X85050365Y-43182135D02*
X85050365Y-45832135D01*
X85205365Y-46337135D02*
X85205365Y-42657135D01*
X85355365Y-46507135D02*
X85355365Y-42537135D01*
X85505365Y-46647135D02*
X85505365Y-42507135D01*
X85655365Y-46727135D02*
X85655365Y-42607135D01*
X85805365Y-46777135D02*
X85805365Y-42457135D01*
X85955365Y-46817135D02*
X85955365Y-42307135D01*
X86105365Y-46807135D02*
X86105365Y-42207135D01*
X86255365Y-46807135D02*
X86255365Y-42207135D01*
X86405365Y-46807135D02*
X86405365Y-42207135D01*
D12*
X86555365Y-42362135D02*
X84005365Y-42362135D01*
D10*
X86555365Y-46807135D02*
X86555365Y-42207135D01*
X86705365Y-46807135D02*
X86705365Y-42207135D01*
X86855365Y-46807135D02*
X86855365Y-42207135D01*
X87005365Y-46807135D02*
X87005365Y-42207135D01*
X87155365Y-46807135D02*
X87155365Y-42207135D01*
X87305365Y-46807135D02*
X87305365Y-42207135D01*
X87455365Y-46807135D02*
X87455365Y-42207135D01*
X87605365Y-46807135D02*
X87605365Y-42207135D01*
X87755365Y-46807135D02*
X87755365Y-42207135D01*
X87905365Y-46807135D02*
X87905365Y-42207135D01*
X88055365Y-46807135D02*
X88055365Y-42207135D01*
X88055365Y-46832135D02*
X86080365Y-46832135D01*
X88205365Y-46807135D02*
X88205365Y-42257135D01*
X88355365Y-46847135D02*
X88355365Y-42207135D01*
X88505365Y-46857135D02*
X88505365Y-42207135D01*
X88655365Y-46857135D02*
X88655365Y-42257135D01*
X88805365Y-46907135D02*
X88805365Y-42197135D01*
X88955365Y-47007135D02*
X88955365Y-42187135D01*
X89044161Y-42182135D02*
X86080365Y-42182135D01*
X89105365Y-47057135D02*
X89105365Y-42207135D01*
X89255365Y-47157135D02*
X89255365Y-42237135D01*
X89405365Y-47257135D02*
X89405365Y-42287135D01*
X89555365Y-47357135D02*
X89555365Y-42367135D01*
X89705365Y-47507135D02*
X89705365Y-42557135D01*
X89855365Y-47657135D02*
X89855365Y-42757135D01*
X89905365Y-43207135D02*
X89905365Y-42884022D01*
X89955365Y-47827135D02*
X89955365Y-43707135D01*
X90055365Y-48007135D02*
X90055365Y-43857135D01*
X90055365Y-48007135D02*
X91330365Y-49032135D01*
X90155365Y-48077135D02*
X90155365Y-44057135D01*
X90255365Y-48157135D02*
X90255365Y-44157135D01*
X90355365Y-48237135D02*
X90355365Y-44207135D01*
X90465365Y-48327135D02*
X90455365Y-44257135D01*
X90605365Y-48427135D02*
X90605365Y-44307135D01*
X90755365Y-48567135D02*
X90755365Y-44407135D01*
X90905365Y-48687135D02*
X90905365Y-44407135D01*
X91055365Y-48797135D02*
X91055365Y-44407135D01*
X91205365Y-48917135D02*
X91205365Y-44457135D01*
X91355365Y-49007135D02*
X91355365Y-44407135D01*
X91505365Y-49007135D02*
X91505365Y-44407135D01*
X91655365Y-49007135D02*
X91655365Y-44407135D01*
X91805365Y-49007135D02*
X91805365Y-44407135D01*
X91955365Y-49007135D02*
X91955365Y-44407135D01*
X92105365Y-49007135D02*
X92105365Y-44407135D01*
X92255365Y-49007135D02*
X92255365Y-44407135D01*
X92405365Y-49007135D02*
X92405365Y-44407135D01*
X92555365Y-49007135D02*
X92555365Y-44407135D01*
X92705365Y-49007135D02*
X92705365Y-44407135D01*
X92855365Y-49007135D02*
X92855365Y-44407135D01*
X93005365Y-49007135D02*
X93005365Y-44407135D01*
X93155365Y-49007135D02*
X93155365Y-44407135D01*
X93305365Y-49007135D02*
X93305365Y-44407135D01*
X93455365Y-49007135D02*
X93455365Y-44407135D01*
X93605365Y-49007135D02*
X93605365Y-44407135D01*
X93655365Y-44382135D02*
X91080365Y-44382135D01*
X93655365Y-49032135D02*
X91330365Y-49032135D01*
X93755365Y-48897135D02*
X93755365Y-44507135D01*
X93905365Y-48757135D02*
X93905365Y-44637135D01*
X94055365Y-48627135D02*
X94055365Y-44797135D01*
X94205365Y-48467135D02*
X94205365Y-44937135D01*
X94305365Y-48367135D02*
X94305365Y-45037135D01*
X94405365Y-48257135D02*
X94405365Y-45137135D01*
X94505365Y-48177135D02*
X94505365Y-45247135D01*
X94655365Y-45382135D02*
X93655365Y-44382135D01*
X94655365Y-45382135D02*
X94655365Y-48032135D01*
X94655365Y-48032135D02*
X93655365Y-49032135D01*
X85050365Y-43182135D02*
G75*
G02*
X86050365Y-42182135I999999J1D01*
G01*
X86050365Y-46832135D02*
G75*
G02*
X85050365Y-45832135I-1J999999D01*
G01*
X88055365Y-46824593D02*
G75*
G02*
X90055365Y-48007135I-2J-2282546D01*
G01*
X89044161Y-42182135D02*
G75*
G02*
X89905365Y-42884022I-38796J-926887D01*
G01*
X91080365Y-44382135D02*
G75*
G02*
X89905365Y-43207135I2J1175002D01*
G01*
%TO.C,SW7*%
X22067865Y-90407135D02*
X23067865Y-89407135D01*
X22067865Y-93057135D02*
X22067865Y-90407135D01*
X22067865Y-93057135D02*
X23067865Y-94057135D01*
X22217865Y-90262135D02*
X22217865Y-93192135D01*
X22317865Y-90182135D02*
X22317865Y-93302135D01*
X22417865Y-90072135D02*
X22417865Y-93402135D01*
X22517865Y-89972135D02*
X22517865Y-93502135D01*
X22667865Y-89812135D02*
X22667865Y-93642135D01*
X22817865Y-89682135D02*
X22817865Y-93802135D01*
X22967865Y-89542135D02*
X22967865Y-93932135D01*
X23067865Y-89407135D02*
X25392865Y-89407135D01*
X23067865Y-94057135D02*
X25642865Y-94057135D01*
X23117865Y-89432135D02*
X23117865Y-94032135D01*
X23267865Y-89432135D02*
X23267865Y-94032135D01*
X23417865Y-89432135D02*
X23417865Y-94032135D01*
X23567865Y-89432135D02*
X23567865Y-94032135D01*
X23717865Y-89432135D02*
X23717865Y-94032135D01*
X23867865Y-89432135D02*
X23867865Y-94032135D01*
X24017865Y-89432135D02*
X24017865Y-94032135D01*
X24167865Y-89432135D02*
X24167865Y-94032135D01*
X24317865Y-89432135D02*
X24317865Y-94032135D01*
X24467865Y-89432135D02*
X24467865Y-94032135D01*
X24617865Y-89432135D02*
X24617865Y-94032135D01*
X24767865Y-89432135D02*
X24767865Y-94032135D01*
X24917865Y-89432135D02*
X24917865Y-94032135D01*
X25067865Y-89432135D02*
X25067865Y-94032135D01*
X25217865Y-89432135D02*
X25217865Y-94032135D01*
X25367865Y-89432135D02*
X25367865Y-94032135D01*
X25517865Y-89522135D02*
X25517865Y-93982135D01*
X25667865Y-89642135D02*
X25667865Y-94032135D01*
X25817865Y-89752135D02*
X25817865Y-94032135D01*
X25967865Y-89872135D02*
X25967865Y-94032135D01*
X26117865Y-90012135D02*
X26117865Y-94132135D01*
X26257865Y-90112135D02*
X26267865Y-94182135D01*
X26367865Y-90202135D02*
X26367865Y-94232135D01*
X26467865Y-90282135D02*
X26467865Y-94282135D01*
X26567865Y-90362135D02*
X26567865Y-94382135D01*
X26667865Y-90432135D02*
X25392865Y-89407135D01*
X26667865Y-90432135D02*
X26667865Y-94582135D01*
X26767865Y-90612135D02*
X26767865Y-94732135D01*
X26817865Y-95232135D02*
X26817865Y-95555248D01*
X26867865Y-90782135D02*
X26867865Y-95682135D01*
X27017865Y-90932135D02*
X27017865Y-95882135D01*
X27167865Y-91082135D02*
X27167865Y-96072135D01*
X27317865Y-91182135D02*
X27317865Y-96152135D01*
X27467865Y-91282135D02*
X27467865Y-96202135D01*
X27617865Y-91382135D02*
X27617865Y-96232135D01*
X27679069Y-96257135D02*
X30642865Y-96257135D01*
X27767865Y-91432135D02*
X27767865Y-96252135D01*
X27917865Y-91532135D02*
X27917865Y-96242135D01*
X28067865Y-91582135D02*
X28067865Y-96182135D01*
X28217865Y-91582135D02*
X28217865Y-96232135D01*
X28367865Y-91592135D02*
X28367865Y-96232135D01*
X28517865Y-91632135D02*
X28517865Y-96182135D01*
X28667865Y-91607135D02*
X30642865Y-91607135D01*
X28667865Y-91632135D02*
X28667865Y-96232135D01*
X28817865Y-91632135D02*
X28817865Y-96232135D01*
X28967865Y-91632135D02*
X28967865Y-96232135D01*
X29117865Y-91632135D02*
X29117865Y-96232135D01*
X29267865Y-91632135D02*
X29267865Y-96232135D01*
X29417865Y-91632135D02*
X29417865Y-96232135D01*
X29567865Y-91632135D02*
X29567865Y-96232135D01*
X29717865Y-91632135D02*
X29717865Y-96232135D01*
X29867865Y-91632135D02*
X29867865Y-96232135D01*
X30017865Y-91632135D02*
X30017865Y-96232135D01*
X30167865Y-91632135D02*
X30167865Y-96232135D01*
D12*
X30167865Y-96077135D02*
X32717865Y-96077135D01*
D10*
X30317865Y-91632135D02*
X30317865Y-96232135D01*
X30467865Y-91632135D02*
X30467865Y-96232135D01*
X30617865Y-91632135D02*
X30617865Y-96232135D01*
X30767865Y-91622135D02*
X30767865Y-96132135D01*
X30917865Y-91662135D02*
X30917865Y-95982135D01*
X31067865Y-91712135D02*
X31067865Y-95832135D01*
X31217865Y-91792135D02*
X31217865Y-95932135D01*
X31367865Y-91932135D02*
X31367865Y-95902135D01*
X31517865Y-92102135D02*
X31517865Y-95782135D01*
X31672865Y-95257135D02*
X31672865Y-92607135D01*
X25642865Y-94057135D02*
G75*
G02*
X26817865Y-95232135I-2J-1175002D01*
G01*
X27679069Y-96257135D02*
G75*
G02*
X26817865Y-95555248I38796J926887D01*
G01*
X28667865Y-91614677D02*
G75*
G02*
X26667865Y-90432135I2J2282546D01*
G01*
X30672865Y-91607135D02*
G75*
G02*
X31672865Y-92607135I1J-999999D01*
G01*
X31672865Y-95257135D02*
G75*
G02*
X30672865Y-96257135I-999999J-1D01*
G01*
%TO.C,SW28*%
X102062865Y-49007135D02*
X102062865Y-51657135D01*
X102217865Y-52162135D02*
X102217865Y-48482135D01*
X102367865Y-52332135D02*
X102367865Y-48362135D01*
X102517865Y-52472135D02*
X102517865Y-48332135D01*
X102667865Y-52552135D02*
X102667865Y-48432135D01*
X102817865Y-52602135D02*
X102817865Y-48282135D01*
X102967865Y-52642135D02*
X102967865Y-48132135D01*
X103117865Y-52632135D02*
X103117865Y-48032135D01*
X103267865Y-52632135D02*
X103267865Y-48032135D01*
X103417865Y-52632135D02*
X103417865Y-48032135D01*
X103567865Y-52632135D02*
X103567865Y-48032135D01*
X103717865Y-52632135D02*
X103717865Y-48032135D01*
X103867865Y-52632135D02*
X103867865Y-48032135D01*
X104017865Y-52632135D02*
X104017865Y-48032135D01*
X104167865Y-52632135D02*
X104167865Y-48032135D01*
X104317865Y-52632135D02*
X104317865Y-48032135D01*
X104467865Y-52632135D02*
X104467865Y-48032135D01*
X104617865Y-52632135D02*
X104617865Y-48032135D01*
X104767865Y-52632135D02*
X104767865Y-48032135D01*
X104917865Y-52632135D02*
X104917865Y-48032135D01*
X105067865Y-52632135D02*
X105067865Y-48032135D01*
X105067865Y-52657135D02*
X103092865Y-52657135D01*
X105217865Y-52632135D02*
X105217865Y-48082135D01*
X105367865Y-52672135D02*
X105367865Y-48032135D01*
X105517865Y-52682135D02*
X105517865Y-48032135D01*
X105667865Y-52682135D02*
X105667865Y-48082135D01*
X105817865Y-52732135D02*
X105817865Y-48022135D01*
X105967865Y-52832135D02*
X105967865Y-48012135D01*
X106056661Y-48007135D02*
X103092865Y-48007135D01*
X106117865Y-52882135D02*
X106117865Y-48032135D01*
X106267865Y-52982135D02*
X106267865Y-48062135D01*
X106417865Y-53082135D02*
X106417865Y-48112135D01*
X106567865Y-53182135D02*
X106567865Y-48192135D01*
X106717865Y-53332135D02*
X106717865Y-48382135D01*
X106867865Y-53482135D02*
X106867865Y-48582135D01*
X106917865Y-49032135D02*
X106917865Y-48709022D01*
X106967865Y-53652135D02*
X106967865Y-49532135D01*
X107067865Y-53832135D02*
X107067865Y-49682135D01*
X107067865Y-53832135D02*
X108342865Y-54857135D01*
X107167865Y-53902135D02*
X107167865Y-49882135D01*
X107267865Y-53982135D02*
X107267865Y-49982135D01*
X107367865Y-54062135D02*
X107367865Y-50032135D01*
X107477865Y-54152135D02*
X107467865Y-50082135D01*
X107617865Y-54252135D02*
X107617865Y-50132135D01*
X107767865Y-54392135D02*
X107767865Y-50232135D01*
X107917865Y-54512135D02*
X107917865Y-50232135D01*
X108067865Y-54622135D02*
X108067865Y-50232135D01*
X108217865Y-54742135D02*
X108217865Y-50282135D01*
X108367865Y-54832135D02*
X108367865Y-50232135D01*
X108517865Y-54832135D02*
X108517865Y-50232135D01*
X108667865Y-54832135D02*
X108667865Y-50232135D01*
X108817865Y-54832135D02*
X108817865Y-50232135D01*
X108967865Y-54832135D02*
X108967865Y-50232135D01*
X109117865Y-54832135D02*
X109117865Y-50232135D01*
X109267865Y-54832135D02*
X109267865Y-50232135D01*
X109417865Y-54832135D02*
X109417865Y-50232135D01*
X109567865Y-54832135D02*
X109567865Y-50232135D01*
X109717865Y-54832135D02*
X109717865Y-50232135D01*
X109867865Y-54832135D02*
X109867865Y-50232135D01*
X110017865Y-54832135D02*
X110017865Y-50232135D01*
X110167865Y-54832135D02*
X110167865Y-50232135D01*
X110317865Y-54832135D02*
X110317865Y-50232135D01*
X110467865Y-54832135D02*
X110467865Y-50232135D01*
X110617865Y-54832135D02*
X110617865Y-50232135D01*
X110667865Y-50207135D02*
X108092865Y-50207135D01*
X110667865Y-54857135D02*
X108342865Y-54857135D01*
X110767865Y-54722135D02*
X110767865Y-50332135D01*
X110917865Y-54582135D02*
X110917865Y-50462135D01*
X111067865Y-54452135D02*
X111067865Y-50622135D01*
X111217865Y-54292135D02*
X111217865Y-50762135D01*
X111317865Y-54192135D02*
X111317865Y-50862135D01*
X111417865Y-54082135D02*
X111417865Y-50962135D01*
X111517865Y-54002135D02*
X111517865Y-51072135D01*
X111667865Y-51207135D02*
X110667865Y-50207135D01*
X111667865Y-51207135D02*
X111667865Y-53857135D01*
X111667865Y-53857135D02*
X110667865Y-54857135D01*
X102062865Y-49007135D02*
G75*
G02*
X103062865Y-48007135I999999J1D01*
G01*
X103062865Y-52657135D02*
G75*
G02*
X102062865Y-51657135I-1J999999D01*
G01*
X105067865Y-52649593D02*
G75*
G02*
X107067865Y-53832135I-2J-2282546D01*
G01*
X106056661Y-48007135D02*
G75*
G02*
X106917865Y-48709022I-38796J-926887D01*
G01*
X108092865Y-50207135D02*
G75*
G02*
X106917865Y-49032135I2J1175002D01*
G01*
%TO.C,SW20*%
X68062865Y-74807135D02*
X68062865Y-77457135D01*
X68217865Y-77962135D02*
X68217865Y-74282135D01*
X68367865Y-78132135D02*
X68367865Y-74162135D01*
X68517865Y-78272135D02*
X68517865Y-74132135D01*
X68667865Y-78352135D02*
X68667865Y-74232135D01*
X68817865Y-78402135D02*
X68817865Y-74082135D01*
X68967865Y-78442135D02*
X68967865Y-73932135D01*
X69117865Y-78432135D02*
X69117865Y-73832135D01*
X69267865Y-78432135D02*
X69267865Y-73832135D01*
X69417865Y-78432135D02*
X69417865Y-73832135D01*
D12*
X69567865Y-73987135D02*
X67017865Y-73987135D01*
D10*
X69567865Y-78432135D02*
X69567865Y-73832135D01*
X69717865Y-78432135D02*
X69717865Y-73832135D01*
X69867865Y-78432135D02*
X69867865Y-73832135D01*
X70017865Y-78432135D02*
X70017865Y-73832135D01*
X70167865Y-78432135D02*
X70167865Y-73832135D01*
X70317865Y-78432135D02*
X70317865Y-73832135D01*
X70467865Y-78432135D02*
X70467865Y-73832135D01*
X70617865Y-78432135D02*
X70617865Y-73832135D01*
X70767865Y-78432135D02*
X70767865Y-73832135D01*
X70917865Y-78432135D02*
X70917865Y-73832135D01*
X71067865Y-78432135D02*
X71067865Y-73832135D01*
X71067865Y-78457135D02*
X69092865Y-78457135D01*
X71217865Y-78432135D02*
X71217865Y-73882135D01*
X71367865Y-78472135D02*
X71367865Y-73832135D01*
X71517865Y-78482135D02*
X71517865Y-73832135D01*
X71667865Y-78482135D02*
X71667865Y-73882135D01*
X71817865Y-78532135D02*
X71817865Y-73822135D01*
X71967865Y-78632135D02*
X71967865Y-73812135D01*
X72056661Y-73807135D02*
X69092865Y-73807135D01*
X72117865Y-78682135D02*
X72117865Y-73832135D01*
X72267865Y-78782135D02*
X72267865Y-73862135D01*
X72417865Y-78882135D02*
X72417865Y-73912135D01*
X72567865Y-78982135D02*
X72567865Y-73992135D01*
X72717865Y-79132135D02*
X72717865Y-74182135D01*
X72867865Y-79282135D02*
X72867865Y-74382135D01*
X72917865Y-74832135D02*
X72917865Y-74509022D01*
X72967865Y-79452135D02*
X72967865Y-75332135D01*
X73067865Y-79632135D02*
X73067865Y-75482135D01*
X73067865Y-79632135D02*
X74342865Y-80657135D01*
X73167865Y-79702135D02*
X73167865Y-75682135D01*
X73267865Y-79782135D02*
X73267865Y-75782135D01*
X73367865Y-79862135D02*
X73367865Y-75832135D01*
X73477865Y-79952135D02*
X73467865Y-75882135D01*
X73617865Y-80052135D02*
X73617865Y-75932135D01*
X73767865Y-80192135D02*
X73767865Y-76032135D01*
X73917865Y-80312135D02*
X73917865Y-76032135D01*
X74067865Y-80422135D02*
X74067865Y-76032135D01*
X74217865Y-80542135D02*
X74217865Y-76082135D01*
X74367865Y-80632135D02*
X74367865Y-76032135D01*
X74517865Y-80632135D02*
X74517865Y-76032135D01*
X74667865Y-80632135D02*
X74667865Y-76032135D01*
X74817865Y-80632135D02*
X74817865Y-76032135D01*
X74967865Y-80632135D02*
X74967865Y-76032135D01*
X75117865Y-80632135D02*
X75117865Y-76032135D01*
X75267865Y-80632135D02*
X75267865Y-76032135D01*
X75417865Y-80632135D02*
X75417865Y-76032135D01*
X75567865Y-80632135D02*
X75567865Y-76032135D01*
X75717865Y-80632135D02*
X75717865Y-76032135D01*
X75867865Y-80632135D02*
X75867865Y-76032135D01*
X76017865Y-80632135D02*
X76017865Y-76032135D01*
X76167865Y-80632135D02*
X76167865Y-76032135D01*
X76317865Y-80632135D02*
X76317865Y-76032135D01*
X76467865Y-80632135D02*
X76467865Y-76032135D01*
X76617865Y-80632135D02*
X76617865Y-76032135D01*
X76667865Y-76007135D02*
X74092865Y-76007135D01*
X76667865Y-80657135D02*
X74342865Y-80657135D01*
X76767865Y-80522135D02*
X76767865Y-76132135D01*
X76917865Y-80382135D02*
X76917865Y-76262135D01*
X77067865Y-80252135D02*
X77067865Y-76422135D01*
X77217865Y-80092135D02*
X77217865Y-76562135D01*
X77317865Y-79992135D02*
X77317865Y-76662135D01*
X77417865Y-79882135D02*
X77417865Y-76762135D01*
X77517865Y-79802135D02*
X77517865Y-76872135D01*
X77667865Y-77007135D02*
X76667865Y-76007135D01*
X77667865Y-77007135D02*
X77667865Y-79657135D01*
X77667865Y-79657135D02*
X76667865Y-80657135D01*
X68062865Y-74807135D02*
G75*
G02*
X69062865Y-73807135I999999J1D01*
G01*
X69062865Y-78457135D02*
G75*
G02*
X68062865Y-77457135I-1J999999D01*
G01*
X71067865Y-78449593D02*
G75*
G02*
X73067865Y-79632135I-2J-2282546D01*
G01*
X72056661Y-73807135D02*
G75*
G02*
X72917865Y-74509022I-38796J-926887D01*
G01*
X74092865Y-76007135D02*
G75*
G02*
X72917865Y-74832135I2J1175002D01*
G01*
%TO.C,SW27*%
X51062865Y-37707135D02*
X51062865Y-40357135D01*
X51217865Y-40862135D02*
X51217865Y-37182135D01*
X51367865Y-41032135D02*
X51367865Y-37062135D01*
X51517865Y-41172135D02*
X51517865Y-37032135D01*
X51667865Y-41252135D02*
X51667865Y-37132135D01*
X51817865Y-41302135D02*
X51817865Y-36982135D01*
X51967865Y-41342135D02*
X51967865Y-36832135D01*
X52117865Y-41332135D02*
X52117865Y-36732135D01*
X52267865Y-41332135D02*
X52267865Y-36732135D01*
X52417865Y-41332135D02*
X52417865Y-36732135D01*
D12*
X52567865Y-36887135D02*
X50017865Y-36887135D01*
D10*
X52567865Y-41332135D02*
X52567865Y-36732135D01*
X52717865Y-41332135D02*
X52717865Y-36732135D01*
X52867865Y-41332135D02*
X52867865Y-36732135D01*
X53017865Y-41332135D02*
X53017865Y-36732135D01*
X53167865Y-41332135D02*
X53167865Y-36732135D01*
X53317865Y-41332135D02*
X53317865Y-36732135D01*
X53467865Y-41332135D02*
X53467865Y-36732135D01*
X53617865Y-41332135D02*
X53617865Y-36732135D01*
X53767865Y-41332135D02*
X53767865Y-36732135D01*
X53917865Y-41332135D02*
X53917865Y-36732135D01*
X54067865Y-41332135D02*
X54067865Y-36732135D01*
X54067865Y-41357135D02*
X52092865Y-41357135D01*
X54217865Y-41332135D02*
X54217865Y-36782135D01*
X54367865Y-41372135D02*
X54367865Y-36732135D01*
X54517865Y-41382135D02*
X54517865Y-36732135D01*
X54667865Y-41382135D02*
X54667865Y-36782135D01*
X54817865Y-41432135D02*
X54817865Y-36722135D01*
X54967865Y-41532135D02*
X54967865Y-36712135D01*
X55056661Y-36707135D02*
X52092865Y-36707135D01*
X55117865Y-41582135D02*
X55117865Y-36732135D01*
X55267865Y-41682135D02*
X55267865Y-36762135D01*
X55417865Y-41782135D02*
X55417865Y-36812135D01*
X55567865Y-41882135D02*
X55567865Y-36892135D01*
X55717865Y-42032135D02*
X55717865Y-37082135D01*
X55867865Y-42182135D02*
X55867865Y-37282135D01*
X55917865Y-37732135D02*
X55917865Y-37409022D01*
X55967865Y-42352135D02*
X55967865Y-38232135D01*
X56067865Y-42532135D02*
X56067865Y-38382135D01*
X56067865Y-42532135D02*
X57342865Y-43557135D01*
X56167865Y-42602135D02*
X56167865Y-38582135D01*
X56267865Y-42682135D02*
X56267865Y-38682135D01*
X56367865Y-42762135D02*
X56367865Y-38732135D01*
X56477865Y-42852135D02*
X56467865Y-38782135D01*
X56617865Y-42952135D02*
X56617865Y-38832135D01*
X56767865Y-43092135D02*
X56767865Y-38932135D01*
X56917865Y-43212135D02*
X56917865Y-38932135D01*
X57067865Y-43322135D02*
X57067865Y-38932135D01*
X57217865Y-43442135D02*
X57217865Y-38982135D01*
X57367865Y-43532135D02*
X57367865Y-38932135D01*
X57517865Y-43532135D02*
X57517865Y-38932135D01*
X57667865Y-43532135D02*
X57667865Y-38932135D01*
X57817865Y-43532135D02*
X57817865Y-38932135D01*
X57967865Y-43532135D02*
X57967865Y-38932135D01*
X58117865Y-43532135D02*
X58117865Y-38932135D01*
X58267865Y-43532135D02*
X58267865Y-38932135D01*
X58417865Y-43532135D02*
X58417865Y-38932135D01*
X58567865Y-43532135D02*
X58567865Y-38932135D01*
X58717865Y-43532135D02*
X58717865Y-38932135D01*
X58867865Y-43532135D02*
X58867865Y-38932135D01*
X59017865Y-43532135D02*
X59017865Y-38932135D01*
X59167865Y-43532135D02*
X59167865Y-38932135D01*
X59317865Y-43532135D02*
X59317865Y-38932135D01*
X59467865Y-43532135D02*
X59467865Y-38932135D01*
X59617865Y-43532135D02*
X59617865Y-38932135D01*
X59667865Y-38907135D02*
X57092865Y-38907135D01*
X59667865Y-43557135D02*
X57342865Y-43557135D01*
X59767865Y-43422135D02*
X59767865Y-39032135D01*
X59917865Y-43282135D02*
X59917865Y-39162135D01*
X60067865Y-43152135D02*
X60067865Y-39322135D01*
X60217865Y-42992135D02*
X60217865Y-39462135D01*
X60317865Y-42892135D02*
X60317865Y-39562135D01*
X60417865Y-42782135D02*
X60417865Y-39662135D01*
X60517865Y-42702135D02*
X60517865Y-39772135D01*
X60667865Y-39907135D02*
X59667865Y-38907135D01*
X60667865Y-39907135D02*
X60667865Y-42557135D01*
X60667865Y-42557135D02*
X59667865Y-43557135D01*
X51062865Y-37707135D02*
G75*
G02*
X52062865Y-36707135I999999J1D01*
G01*
X52062865Y-41357135D02*
G75*
G02*
X51062865Y-40357135I-1J999999D01*
G01*
X54067865Y-41349593D02*
G75*
G02*
X56067865Y-42532135I-2J-2282546D01*
G01*
X55056661Y-36707135D02*
G75*
G02*
X55917865Y-37409022I-38796J-926887D01*
G01*
X57092865Y-38907135D02*
G75*
G02*
X55917865Y-37732135I2J1175002D01*
G01*
%TO.C,SW15*%
X51062865Y-88707135D02*
X51062865Y-91357135D01*
X51217865Y-91862135D02*
X51217865Y-88182135D01*
X51367865Y-92032135D02*
X51367865Y-88062135D01*
X51517865Y-92172135D02*
X51517865Y-88032135D01*
X51667865Y-92252135D02*
X51667865Y-88132135D01*
X51817865Y-92302135D02*
X51817865Y-87982135D01*
X51967865Y-92342135D02*
X51967865Y-87832135D01*
X52117865Y-92332135D02*
X52117865Y-87732135D01*
X52267865Y-92332135D02*
X52267865Y-87732135D01*
X52417865Y-92332135D02*
X52417865Y-87732135D01*
D12*
X52567865Y-87887135D02*
X50017865Y-87887135D01*
D10*
X52567865Y-92332135D02*
X52567865Y-87732135D01*
X52717865Y-92332135D02*
X52717865Y-87732135D01*
X52867865Y-92332135D02*
X52867865Y-87732135D01*
X53017865Y-92332135D02*
X53017865Y-87732135D01*
X53167865Y-92332135D02*
X53167865Y-87732135D01*
X53317865Y-92332135D02*
X53317865Y-87732135D01*
X53467865Y-92332135D02*
X53467865Y-87732135D01*
X53617865Y-92332135D02*
X53617865Y-87732135D01*
X53767865Y-92332135D02*
X53767865Y-87732135D01*
X53917865Y-92332135D02*
X53917865Y-87732135D01*
X54067865Y-92332135D02*
X54067865Y-87732135D01*
X54067865Y-92357135D02*
X52092865Y-92357135D01*
X54217865Y-92332135D02*
X54217865Y-87782135D01*
X54367865Y-92372135D02*
X54367865Y-87732135D01*
X54517865Y-92382135D02*
X54517865Y-87732135D01*
X54667865Y-92382135D02*
X54667865Y-87782135D01*
X54817865Y-92432135D02*
X54817865Y-87722135D01*
X54967865Y-92532135D02*
X54967865Y-87712135D01*
X55056661Y-87707135D02*
X52092865Y-87707135D01*
X55117865Y-92582135D02*
X55117865Y-87732135D01*
X55267865Y-92682135D02*
X55267865Y-87762135D01*
X55417865Y-92782135D02*
X55417865Y-87812135D01*
X55567865Y-92882135D02*
X55567865Y-87892135D01*
X55717865Y-93032135D02*
X55717865Y-88082135D01*
X55867865Y-93182135D02*
X55867865Y-88282135D01*
X55917865Y-88732135D02*
X55917865Y-88409022D01*
X55967865Y-93352135D02*
X55967865Y-89232135D01*
X56067865Y-93532135D02*
X56067865Y-89382135D01*
X56067865Y-93532135D02*
X57342865Y-94557135D01*
X56167865Y-93602135D02*
X56167865Y-89582135D01*
X56267865Y-93682135D02*
X56267865Y-89682135D01*
X56367865Y-93762135D02*
X56367865Y-89732135D01*
X56477865Y-93852135D02*
X56467865Y-89782135D01*
X56617865Y-93952135D02*
X56617865Y-89832135D01*
X56767865Y-94092135D02*
X56767865Y-89932135D01*
X56917865Y-94212135D02*
X56917865Y-89932135D01*
X57067865Y-94322135D02*
X57067865Y-89932135D01*
X57217865Y-94442135D02*
X57217865Y-89982135D01*
X57367865Y-94532135D02*
X57367865Y-89932135D01*
X57517865Y-94532135D02*
X57517865Y-89932135D01*
X57667865Y-94532135D02*
X57667865Y-89932135D01*
X57817865Y-94532135D02*
X57817865Y-89932135D01*
X57967865Y-94532135D02*
X57967865Y-89932135D01*
X58117865Y-94532135D02*
X58117865Y-89932135D01*
X58267865Y-94532135D02*
X58267865Y-89932135D01*
X58417865Y-94532135D02*
X58417865Y-89932135D01*
X58567865Y-94532135D02*
X58567865Y-89932135D01*
X58717865Y-94532135D02*
X58717865Y-89932135D01*
X58867865Y-94532135D02*
X58867865Y-89932135D01*
X59017865Y-94532135D02*
X59017865Y-89932135D01*
X59167865Y-94532135D02*
X59167865Y-89932135D01*
X59317865Y-94532135D02*
X59317865Y-89932135D01*
X59467865Y-94532135D02*
X59467865Y-89932135D01*
X59617865Y-94532135D02*
X59617865Y-89932135D01*
X59667865Y-89907135D02*
X57092865Y-89907135D01*
X59667865Y-94557135D02*
X57342865Y-94557135D01*
X59767865Y-94422135D02*
X59767865Y-90032135D01*
X59917865Y-94282135D02*
X59917865Y-90162135D01*
X60067865Y-94152135D02*
X60067865Y-90322135D01*
X60217865Y-93992135D02*
X60217865Y-90462135D01*
X60317865Y-93892135D02*
X60317865Y-90562135D01*
X60417865Y-93782135D02*
X60417865Y-90662135D01*
X60517865Y-93702135D02*
X60517865Y-90772135D01*
X60667865Y-90907135D02*
X59667865Y-89907135D01*
X60667865Y-90907135D02*
X60667865Y-93557135D01*
X60667865Y-93557135D02*
X59667865Y-94557135D01*
X51062865Y-88707135D02*
G75*
G02*
X52062865Y-87707135I999999J1D01*
G01*
X52062865Y-92357135D02*
G75*
G02*
X51062865Y-91357135I-1J999999D01*
G01*
X54067865Y-92349593D02*
G75*
G02*
X56067865Y-93532135I-2J-2282546D01*
G01*
X55056661Y-87707135D02*
G75*
G02*
X55917865Y-88409022I-38796J-926887D01*
G01*
X57092865Y-89907135D02*
G75*
G02*
X55917865Y-88732135I2J1175002D01*
G01*
%TO.C,SW13*%
X51062865Y-54707135D02*
X51062865Y-57357135D01*
X51217865Y-57862135D02*
X51217865Y-54182135D01*
X51367865Y-58032135D02*
X51367865Y-54062135D01*
X51517865Y-58172135D02*
X51517865Y-54032135D01*
X51667865Y-58252135D02*
X51667865Y-54132135D01*
X51817865Y-58302135D02*
X51817865Y-53982135D01*
X51967865Y-58342135D02*
X51967865Y-53832135D01*
X52117865Y-58332135D02*
X52117865Y-53732135D01*
X52267865Y-58332135D02*
X52267865Y-53732135D01*
X52417865Y-58332135D02*
X52417865Y-53732135D01*
D12*
X52567865Y-53887135D02*
X50017865Y-53887135D01*
D10*
X52567865Y-58332135D02*
X52567865Y-53732135D01*
X52717865Y-58332135D02*
X52717865Y-53732135D01*
X52867865Y-58332135D02*
X52867865Y-53732135D01*
X53017865Y-58332135D02*
X53017865Y-53732135D01*
X53167865Y-58332135D02*
X53167865Y-53732135D01*
X53317865Y-58332135D02*
X53317865Y-53732135D01*
X53467865Y-58332135D02*
X53467865Y-53732135D01*
X53617865Y-58332135D02*
X53617865Y-53732135D01*
X53767865Y-58332135D02*
X53767865Y-53732135D01*
X53917865Y-58332135D02*
X53917865Y-53732135D01*
X54067865Y-58332135D02*
X54067865Y-53732135D01*
X54067865Y-58357135D02*
X52092865Y-58357135D01*
X54217865Y-58332135D02*
X54217865Y-53782135D01*
X54367865Y-58372135D02*
X54367865Y-53732135D01*
X54517865Y-58382135D02*
X54517865Y-53732135D01*
X54667865Y-58382135D02*
X54667865Y-53782135D01*
X54817865Y-58432135D02*
X54817865Y-53722135D01*
X54967865Y-58532135D02*
X54967865Y-53712135D01*
X55056661Y-53707135D02*
X52092865Y-53707135D01*
X55117865Y-58582135D02*
X55117865Y-53732135D01*
X55267865Y-58682135D02*
X55267865Y-53762135D01*
X55417865Y-58782135D02*
X55417865Y-53812135D01*
X55567865Y-58882135D02*
X55567865Y-53892135D01*
X55717865Y-59032135D02*
X55717865Y-54082135D01*
X55867865Y-59182135D02*
X55867865Y-54282135D01*
X55917865Y-54732135D02*
X55917865Y-54409022D01*
X55967865Y-59352135D02*
X55967865Y-55232135D01*
X56067865Y-59532135D02*
X56067865Y-55382135D01*
X56067865Y-59532135D02*
X57342865Y-60557135D01*
X56167865Y-59602135D02*
X56167865Y-55582135D01*
X56267865Y-59682135D02*
X56267865Y-55682135D01*
X56367865Y-59762135D02*
X56367865Y-55732135D01*
X56477865Y-59852135D02*
X56467865Y-55782135D01*
X56617865Y-59952135D02*
X56617865Y-55832135D01*
X56767865Y-60092135D02*
X56767865Y-55932135D01*
X56917865Y-60212135D02*
X56917865Y-55932135D01*
X57067865Y-60322135D02*
X57067865Y-55932135D01*
X57217865Y-60442135D02*
X57217865Y-55982135D01*
X57367865Y-60532135D02*
X57367865Y-55932135D01*
X57517865Y-60532135D02*
X57517865Y-55932135D01*
X57667865Y-60532135D02*
X57667865Y-55932135D01*
X57817865Y-60532135D02*
X57817865Y-55932135D01*
X57967865Y-60532135D02*
X57967865Y-55932135D01*
X58117865Y-60532135D02*
X58117865Y-55932135D01*
X58267865Y-60532135D02*
X58267865Y-55932135D01*
X58417865Y-60532135D02*
X58417865Y-55932135D01*
X58567865Y-60532135D02*
X58567865Y-55932135D01*
X58717865Y-60532135D02*
X58717865Y-55932135D01*
X58867865Y-60532135D02*
X58867865Y-55932135D01*
X59017865Y-60532135D02*
X59017865Y-55932135D01*
X59167865Y-60532135D02*
X59167865Y-55932135D01*
X59317865Y-60532135D02*
X59317865Y-55932135D01*
X59467865Y-60532135D02*
X59467865Y-55932135D01*
X59617865Y-60532135D02*
X59617865Y-55932135D01*
X59667865Y-55907135D02*
X57092865Y-55907135D01*
X59667865Y-60557135D02*
X57342865Y-60557135D01*
X59767865Y-60422135D02*
X59767865Y-56032135D01*
X59917865Y-60282135D02*
X59917865Y-56162135D01*
X60067865Y-60152135D02*
X60067865Y-56322135D01*
X60217865Y-59992135D02*
X60217865Y-56462135D01*
X60317865Y-59892135D02*
X60317865Y-56562135D01*
X60417865Y-59782135D02*
X60417865Y-56662135D01*
X60517865Y-59702135D02*
X60517865Y-56772135D01*
X60667865Y-56907135D02*
X59667865Y-55907135D01*
X60667865Y-56907135D02*
X60667865Y-59557135D01*
X60667865Y-59557135D02*
X59667865Y-60557135D01*
X51062865Y-54707135D02*
G75*
G02*
X52062865Y-53707135I999999J1D01*
G01*
X52062865Y-58357135D02*
G75*
G02*
X51062865Y-57357135I-1J999999D01*
G01*
X54067865Y-58349593D02*
G75*
G02*
X56067865Y-59532135I-2J-2282546D01*
G01*
X55056661Y-53707135D02*
G75*
G02*
X55917865Y-54409022I-38796J-926887D01*
G01*
X57092865Y-55907135D02*
G75*
G02*
X55917865Y-54732135I2J1175002D01*
G01*
%TO.C,SW30*%
X102062865Y-83007135D02*
X102062865Y-85657135D01*
X102217865Y-86162135D02*
X102217865Y-82482135D01*
X102367865Y-86332135D02*
X102367865Y-82362135D01*
X102517865Y-86472135D02*
X102517865Y-82332135D01*
X102667865Y-86552135D02*
X102667865Y-82432135D01*
X102817865Y-86602135D02*
X102817865Y-82282135D01*
X102967865Y-86642135D02*
X102967865Y-82132135D01*
X103117865Y-86632135D02*
X103117865Y-82032135D01*
X103267865Y-86632135D02*
X103267865Y-82032135D01*
X103417865Y-86632135D02*
X103417865Y-82032135D01*
D12*
X103567865Y-82187135D02*
X101017865Y-82187135D01*
D10*
X103567865Y-86632135D02*
X103567865Y-82032135D01*
X103717865Y-86632135D02*
X103717865Y-82032135D01*
X103867865Y-86632135D02*
X103867865Y-82032135D01*
X104017865Y-86632135D02*
X104017865Y-82032135D01*
X104167865Y-86632135D02*
X104167865Y-82032135D01*
X104317865Y-86632135D02*
X104317865Y-82032135D01*
X104467865Y-86632135D02*
X104467865Y-82032135D01*
X104617865Y-86632135D02*
X104617865Y-82032135D01*
X104767865Y-86632135D02*
X104767865Y-82032135D01*
X104917865Y-86632135D02*
X104917865Y-82032135D01*
X105067865Y-86632135D02*
X105067865Y-82032135D01*
X105067865Y-86657135D02*
X103092865Y-86657135D01*
X105217865Y-86632135D02*
X105217865Y-82082135D01*
X105367865Y-86672135D02*
X105367865Y-82032135D01*
X105517865Y-86682135D02*
X105517865Y-82032135D01*
X105667865Y-86682135D02*
X105667865Y-82082135D01*
X105817865Y-86732135D02*
X105817865Y-82022135D01*
X105967865Y-86832135D02*
X105967865Y-82012135D01*
X106056661Y-82007135D02*
X103092865Y-82007135D01*
X106117865Y-86882135D02*
X106117865Y-82032135D01*
X106267865Y-86982135D02*
X106267865Y-82062135D01*
X106417865Y-87082135D02*
X106417865Y-82112135D01*
X106567865Y-87182135D02*
X106567865Y-82192135D01*
X106717865Y-87332135D02*
X106717865Y-82382135D01*
X106867865Y-87482135D02*
X106867865Y-82582135D01*
X106917865Y-83032135D02*
X106917865Y-82709022D01*
X106967865Y-87652135D02*
X106967865Y-83532135D01*
X107067865Y-87832135D02*
X107067865Y-83682135D01*
X107067865Y-87832135D02*
X108342865Y-88857135D01*
X107167865Y-87902135D02*
X107167865Y-83882135D01*
X107267865Y-87982135D02*
X107267865Y-83982135D01*
X107367865Y-88062135D02*
X107367865Y-84032135D01*
X107477865Y-88152135D02*
X107467865Y-84082135D01*
X107617865Y-88252135D02*
X107617865Y-84132135D01*
X107767865Y-88392135D02*
X107767865Y-84232135D01*
X107917865Y-88512135D02*
X107917865Y-84232135D01*
X108067865Y-88622135D02*
X108067865Y-84232135D01*
X108217865Y-88742135D02*
X108217865Y-84282135D01*
X108367865Y-88832135D02*
X108367865Y-84232135D01*
X108517865Y-88832135D02*
X108517865Y-84232135D01*
X108667865Y-88832135D02*
X108667865Y-84232135D01*
X108817865Y-88832135D02*
X108817865Y-84232135D01*
X108967865Y-88832135D02*
X108967865Y-84232135D01*
X109117865Y-88832135D02*
X109117865Y-84232135D01*
X109267865Y-88832135D02*
X109267865Y-84232135D01*
X109417865Y-88832135D02*
X109417865Y-84232135D01*
X109567865Y-88832135D02*
X109567865Y-84232135D01*
X109717865Y-88832135D02*
X109717865Y-84232135D01*
X109867865Y-88832135D02*
X109867865Y-84232135D01*
X110017865Y-88832135D02*
X110017865Y-84232135D01*
X110167865Y-88832135D02*
X110167865Y-84232135D01*
X110317865Y-88832135D02*
X110317865Y-84232135D01*
X110467865Y-88832135D02*
X110467865Y-84232135D01*
X110617865Y-88832135D02*
X110617865Y-84232135D01*
X110667865Y-84207135D02*
X108092865Y-84207135D01*
X110667865Y-88857135D02*
X108342865Y-88857135D01*
X110767865Y-88722135D02*
X110767865Y-84332135D01*
X110917865Y-88582135D02*
X110917865Y-84462135D01*
X111067865Y-88452135D02*
X111067865Y-84622135D01*
X111217865Y-88292135D02*
X111217865Y-84762135D01*
X111317865Y-88192135D02*
X111317865Y-84862135D01*
X111417865Y-88082135D02*
X111417865Y-84962135D01*
X111517865Y-88002135D02*
X111517865Y-85072135D01*
X111667865Y-85207135D02*
X110667865Y-84207135D01*
X111667865Y-85207135D02*
X111667865Y-87857135D01*
X111667865Y-87857135D02*
X110667865Y-88857135D01*
X102062865Y-83007135D02*
G75*
G02*
X103062865Y-82007135I999999J1D01*
G01*
X103062865Y-86657135D02*
G75*
G02*
X102062865Y-85657135I-1J999999D01*
G01*
X105067865Y-86649593D02*
G75*
G02*
X107067865Y-87832135I-2J-2282546D01*
G01*
X106056661Y-82007135D02*
G75*
G02*
X106917865Y-82709022I-38796J-926887D01*
G01*
X108092865Y-84207135D02*
G75*
G02*
X106917865Y-83032135I2J1175002D01*
G01*
%TO.C,SW14*%
X51062865Y-71707135D02*
X51062865Y-74357135D01*
X51217865Y-74862135D02*
X51217865Y-71182135D01*
X51367865Y-75032135D02*
X51367865Y-71062135D01*
X51517865Y-75172135D02*
X51517865Y-71032135D01*
X51667865Y-75252135D02*
X51667865Y-71132135D01*
X51817865Y-75302135D02*
X51817865Y-70982135D01*
X51967865Y-75342135D02*
X51967865Y-70832135D01*
X52117865Y-75332135D02*
X52117865Y-70732135D01*
X52267865Y-75332135D02*
X52267865Y-70732135D01*
X52417865Y-75332135D02*
X52417865Y-70732135D01*
D12*
X52567865Y-70887135D02*
X50017865Y-70887135D01*
D10*
X52567865Y-75332135D02*
X52567865Y-70732135D01*
X52717865Y-75332135D02*
X52717865Y-70732135D01*
X52867865Y-75332135D02*
X52867865Y-70732135D01*
X53017865Y-75332135D02*
X53017865Y-70732135D01*
X53167865Y-75332135D02*
X53167865Y-70732135D01*
X53317865Y-75332135D02*
X53317865Y-70732135D01*
X53467865Y-75332135D02*
X53467865Y-70732135D01*
X53617865Y-75332135D02*
X53617865Y-70732135D01*
X53767865Y-75332135D02*
X53767865Y-70732135D01*
X53917865Y-75332135D02*
X53917865Y-70732135D01*
X54067865Y-75332135D02*
X54067865Y-70732135D01*
X54067865Y-75357135D02*
X52092865Y-75357135D01*
X54217865Y-75332135D02*
X54217865Y-70782135D01*
X54367865Y-75372135D02*
X54367865Y-70732135D01*
X54517865Y-75382135D02*
X54517865Y-70732135D01*
X54667865Y-75382135D02*
X54667865Y-70782135D01*
X54817865Y-75432135D02*
X54817865Y-70722135D01*
X54967865Y-75532135D02*
X54967865Y-70712135D01*
X55056661Y-70707135D02*
X52092865Y-70707135D01*
X55117865Y-75582135D02*
X55117865Y-70732135D01*
X55267865Y-75682135D02*
X55267865Y-70762135D01*
X55417865Y-75782135D02*
X55417865Y-70812135D01*
X55567865Y-75882135D02*
X55567865Y-70892135D01*
X55717865Y-76032135D02*
X55717865Y-71082135D01*
X55867865Y-76182135D02*
X55867865Y-71282135D01*
X55917865Y-71732135D02*
X55917865Y-71409022D01*
X55967865Y-76352135D02*
X55967865Y-72232135D01*
X56067865Y-76532135D02*
X56067865Y-72382135D01*
X56067865Y-76532135D02*
X57342865Y-77557135D01*
X56167865Y-76602135D02*
X56167865Y-72582135D01*
X56267865Y-76682135D02*
X56267865Y-72682135D01*
X56367865Y-76762135D02*
X56367865Y-72732135D01*
X56477865Y-76852135D02*
X56467865Y-72782135D01*
X56617865Y-76952135D02*
X56617865Y-72832135D01*
X56767865Y-77092135D02*
X56767865Y-72932135D01*
X56917865Y-77212135D02*
X56917865Y-72932135D01*
X57067865Y-77322135D02*
X57067865Y-72932135D01*
X57217865Y-77442135D02*
X57217865Y-72982135D01*
X57367865Y-77532135D02*
X57367865Y-72932135D01*
X57517865Y-77532135D02*
X57517865Y-72932135D01*
X57667865Y-77532135D02*
X57667865Y-72932135D01*
X57817865Y-77532135D02*
X57817865Y-72932135D01*
X57967865Y-77532135D02*
X57967865Y-72932135D01*
X58117865Y-77532135D02*
X58117865Y-72932135D01*
X58267865Y-77532135D02*
X58267865Y-72932135D01*
X58417865Y-77532135D02*
X58417865Y-72932135D01*
X58567865Y-77532135D02*
X58567865Y-72932135D01*
X58717865Y-77532135D02*
X58717865Y-72932135D01*
X58867865Y-77532135D02*
X58867865Y-72932135D01*
X59017865Y-77532135D02*
X59017865Y-72932135D01*
X59167865Y-77532135D02*
X59167865Y-72932135D01*
X59317865Y-77532135D02*
X59317865Y-72932135D01*
X59467865Y-77532135D02*
X59467865Y-72932135D01*
X59617865Y-77532135D02*
X59617865Y-72932135D01*
X59667865Y-72907135D02*
X57092865Y-72907135D01*
X59667865Y-77557135D02*
X57342865Y-77557135D01*
X59767865Y-77422135D02*
X59767865Y-73032135D01*
X59917865Y-77282135D02*
X59917865Y-73162135D01*
X60067865Y-77152135D02*
X60067865Y-73322135D01*
X60217865Y-76992135D02*
X60217865Y-73462135D01*
X60317865Y-76892135D02*
X60317865Y-73562135D01*
X60417865Y-76782135D02*
X60417865Y-73662135D01*
X60517865Y-76702135D02*
X60517865Y-73772135D01*
X60667865Y-73907135D02*
X59667865Y-72907135D01*
X60667865Y-73907135D02*
X60667865Y-76557135D01*
X60667865Y-76557135D02*
X59667865Y-77557135D01*
X51062865Y-71707135D02*
G75*
G02*
X52062865Y-70707135I999999J1D01*
G01*
X52062865Y-75357135D02*
G75*
G02*
X51062865Y-74357135I-1J999999D01*
G01*
X54067865Y-75349593D02*
G75*
G02*
X56067865Y-76532135I-2J-2282546D01*
G01*
X55056661Y-70707135D02*
G75*
G02*
X55917865Y-71409022I-38796J-926887D01*
G01*
X57092865Y-72907135D02*
G75*
G02*
X55917865Y-71732135I2J1175002D01*
G01*
%TO.C,SW31*%
X101917865Y-99582135D02*
X101917865Y-95732135D01*
X101997865Y-99782135D02*
X104927865Y-99782135D01*
X102017865Y-95532135D02*
X106017865Y-95532135D01*
X102017865Y-95742135D02*
X105917865Y-95732135D01*
X102017865Y-95882135D02*
X105867865Y-95882135D01*
X102017865Y-96032135D02*
X105767865Y-96032135D01*
X102017865Y-96182135D02*
X105767865Y-96182135D01*
X102017865Y-96332135D02*
X105767865Y-96332135D01*
X102017865Y-96482135D02*
X106477865Y-96482135D01*
X102017865Y-96632135D02*
X105767865Y-96632135D01*
X102017865Y-96782135D02*
X105767865Y-96782135D01*
X102017865Y-96932135D02*
X105767865Y-96932135D01*
X102017865Y-97082135D02*
X105767865Y-97082135D01*
X102017865Y-97232135D02*
X105767865Y-97232135D01*
X102017865Y-97382135D02*
X105767865Y-97382135D01*
X102017865Y-97532135D02*
X105767865Y-97532135D01*
X102017865Y-97682135D02*
X105817865Y-97682135D01*
X102017865Y-97832135D02*
X105767865Y-97832135D01*
X102017865Y-97982135D02*
X105767865Y-97982135D01*
X102017865Y-98132135D02*
X105767865Y-98132135D01*
X102017865Y-98282135D02*
X105767865Y-98282135D01*
X102017865Y-98432135D02*
X105767865Y-98432135D01*
X102017865Y-98582135D02*
X105767865Y-98582135D01*
X102017865Y-98732135D02*
X105767865Y-98732135D01*
X102017865Y-98882135D02*
X105817865Y-98882135D01*
X102017865Y-99032135D02*
X105667865Y-99032135D01*
X102017865Y-99182135D02*
X105537865Y-99182135D01*
X102017865Y-99332135D02*
X105377865Y-99332135D01*
X102017865Y-99482135D02*
X105237865Y-99482135D01*
X102017865Y-99582135D02*
X105137865Y-99582135D01*
X102017865Y-99682135D02*
X105037865Y-99682135D01*
X102067865Y-95632135D02*
X106097865Y-95632135D01*
X102097865Y-95432135D02*
X106117865Y-95432135D01*
X102142865Y-99932135D02*
X101917865Y-99582135D01*
X102167865Y-95332135D02*
X101917865Y-95682135D01*
X102167865Y-95332135D02*
X106317865Y-95332135D01*
X102347865Y-95232135D02*
X106467865Y-95232135D01*
X102517865Y-95132135D02*
X107417865Y-95132135D01*
X102667865Y-94982135D02*
X107617865Y-94982135D01*
X102817865Y-94832135D02*
X107807865Y-94832135D01*
X102917865Y-94682135D02*
X107887865Y-94682135D01*
X103017865Y-94532135D02*
X107937865Y-94532135D01*
X103117865Y-94382135D02*
X107967865Y-94382135D01*
X103167865Y-94232135D02*
X107987865Y-94232135D01*
X103267865Y-94082135D02*
X107977865Y-94082135D01*
X103317865Y-93782135D02*
X107967865Y-93782135D01*
X103317865Y-93932135D02*
X107917865Y-93932135D01*
X103327865Y-93632135D02*
X107967865Y-93632135D01*
X103342865Y-93332135D02*
X103342865Y-91357135D01*
X103357865Y-91232135D02*
X107867865Y-91232135D01*
X103367865Y-91382135D02*
X107967865Y-91382135D01*
X103367865Y-91532135D02*
X107967865Y-91532135D01*
X103367865Y-91682135D02*
X107967865Y-91682135D01*
X103367865Y-91832135D02*
X107967865Y-91832135D01*
X103367865Y-91982135D02*
X107967865Y-91982135D01*
X103367865Y-92132135D02*
X107967865Y-92132135D01*
X103367865Y-92282135D02*
X107967865Y-92282135D01*
X103367865Y-92432135D02*
X107967865Y-92432135D01*
X103367865Y-92582135D02*
X107967865Y-92582135D01*
X103367865Y-92732135D02*
X107967865Y-92732135D01*
X103367865Y-92882135D02*
X107967865Y-92882135D01*
X103367865Y-93032135D02*
X107967865Y-93032135D01*
X103367865Y-93182135D02*
X107967865Y-93182135D01*
X103367865Y-93332135D02*
X107967865Y-93332135D01*
X103367865Y-93482135D02*
X107917865Y-93482135D01*
X103397865Y-91082135D02*
X107717865Y-91082135D01*
X103447865Y-90932135D02*
X107567865Y-90932135D01*
X103527865Y-90782135D02*
X107667865Y-90782135D01*
X103667865Y-90632135D02*
X107637865Y-90632135D01*
X103837865Y-90482135D02*
X107517865Y-90482135D01*
X104792865Y-99932135D02*
X102142865Y-99932135D01*
X104792865Y-99932135D02*
X105792865Y-98932135D01*
X105792865Y-98932135D02*
X105792865Y-96357135D01*
X106967865Y-95182135D02*
X107290978Y-95182135D01*
X106992865Y-90327135D02*
X104342865Y-90327135D01*
D12*
X107812865Y-91832135D02*
X107812865Y-89282135D01*
D10*
X107992865Y-94320931D02*
X107992865Y-91357135D01*
X103342865Y-91327135D02*
G75*
G02*
X104342865Y-90327135I999999J1D01*
G01*
X103350407Y-93332135D02*
G75*
G02*
X102167865Y-95332135I-2282546J2D01*
G01*
X105792865Y-96357135D02*
G75*
G02*
X106967865Y-95182135I1175002J-2D01*
G01*
X106992865Y-90327135D02*
G75*
G02*
X107992865Y-91327135I1J-999999D01*
G01*
X107992865Y-94320931D02*
G75*
G02*
X107290978Y-95182135I-926887J38796D01*
G01*
%TO.C,SW9*%
X39067865Y-48207135D02*
X40067865Y-47207135D01*
X39067865Y-50857135D02*
X39067865Y-48207135D01*
X39067865Y-50857135D02*
X40067865Y-51857135D01*
X39217865Y-48062135D02*
X39217865Y-50992135D01*
X39317865Y-47982135D02*
X39317865Y-51102135D01*
X39417865Y-47872135D02*
X39417865Y-51202135D01*
X39517865Y-47772135D02*
X39517865Y-51302135D01*
X39667865Y-47612135D02*
X39667865Y-51442135D01*
X39817865Y-47482135D02*
X39817865Y-51602135D01*
X39967865Y-47342135D02*
X39967865Y-51732135D01*
X40067865Y-47207135D02*
X42392865Y-47207135D01*
X40067865Y-51857135D02*
X42642865Y-51857135D01*
X40117865Y-47232135D02*
X40117865Y-51832135D01*
X40267865Y-47232135D02*
X40267865Y-51832135D01*
X40417865Y-47232135D02*
X40417865Y-51832135D01*
X40567865Y-47232135D02*
X40567865Y-51832135D01*
X40717865Y-47232135D02*
X40717865Y-51832135D01*
X40867865Y-47232135D02*
X40867865Y-51832135D01*
X41017865Y-47232135D02*
X41017865Y-51832135D01*
X41167865Y-47232135D02*
X41167865Y-51832135D01*
X41317865Y-47232135D02*
X41317865Y-51832135D01*
X41467865Y-47232135D02*
X41467865Y-51832135D01*
X41617865Y-47232135D02*
X41617865Y-51832135D01*
X41767865Y-47232135D02*
X41767865Y-51832135D01*
X41917865Y-47232135D02*
X41917865Y-51832135D01*
X42067865Y-47232135D02*
X42067865Y-51832135D01*
X42217865Y-47232135D02*
X42217865Y-51832135D01*
X42367865Y-47232135D02*
X42367865Y-51832135D01*
X42517865Y-47322135D02*
X42517865Y-51782135D01*
X42667865Y-47442135D02*
X42667865Y-51832135D01*
X42817865Y-47552135D02*
X42817865Y-51832135D01*
X42967865Y-47672135D02*
X42967865Y-51832135D01*
X43117865Y-47812135D02*
X43117865Y-51932135D01*
X43257865Y-47912135D02*
X43267865Y-51982135D01*
X43367865Y-48002135D02*
X43367865Y-52032135D01*
X43467865Y-48082135D02*
X43467865Y-52082135D01*
X43567865Y-48162135D02*
X43567865Y-52182135D01*
X43667865Y-48232135D02*
X42392865Y-47207135D01*
X43667865Y-48232135D02*
X43667865Y-52382135D01*
X43767865Y-48412135D02*
X43767865Y-52532135D01*
X43817865Y-53032135D02*
X43817865Y-53355248D01*
X43867865Y-48582135D02*
X43867865Y-53482135D01*
X44017865Y-48732135D02*
X44017865Y-53682135D01*
X44167865Y-48882135D02*
X44167865Y-53872135D01*
X44317865Y-48982135D02*
X44317865Y-53952135D01*
X44467865Y-49082135D02*
X44467865Y-54002135D01*
X44617865Y-49182135D02*
X44617865Y-54032135D01*
X44679069Y-54057135D02*
X47642865Y-54057135D01*
X44767865Y-49232135D02*
X44767865Y-54052135D01*
X44917865Y-49332135D02*
X44917865Y-54042135D01*
X45067865Y-49382135D02*
X45067865Y-53982135D01*
X45217865Y-49382135D02*
X45217865Y-54032135D01*
X45367865Y-49392135D02*
X45367865Y-54032135D01*
X45517865Y-49432135D02*
X45517865Y-53982135D01*
X45667865Y-49407135D02*
X47642865Y-49407135D01*
X45667865Y-49432135D02*
X45667865Y-54032135D01*
X45817865Y-49432135D02*
X45817865Y-54032135D01*
X45967865Y-49432135D02*
X45967865Y-54032135D01*
X46117865Y-49432135D02*
X46117865Y-54032135D01*
X46267865Y-49432135D02*
X46267865Y-54032135D01*
X46417865Y-49432135D02*
X46417865Y-54032135D01*
X46567865Y-49432135D02*
X46567865Y-54032135D01*
X46717865Y-49432135D02*
X46717865Y-54032135D01*
X46867865Y-49432135D02*
X46867865Y-54032135D01*
X47017865Y-49432135D02*
X47017865Y-54032135D01*
X47167865Y-49432135D02*
X47167865Y-54032135D01*
D12*
X47167865Y-53877135D02*
X49717865Y-53877135D01*
D10*
X47317865Y-49432135D02*
X47317865Y-54032135D01*
X47467865Y-49432135D02*
X47467865Y-54032135D01*
X47617865Y-49432135D02*
X47617865Y-54032135D01*
X47767865Y-49422135D02*
X47767865Y-53932135D01*
X47917865Y-49462135D02*
X47917865Y-53782135D01*
X48067865Y-49512135D02*
X48067865Y-53632135D01*
X48217865Y-49592135D02*
X48217865Y-53732135D01*
X48367865Y-49732135D02*
X48367865Y-53702135D01*
X48517865Y-49902135D02*
X48517865Y-53582135D01*
X48672865Y-53057135D02*
X48672865Y-50407135D01*
X42642865Y-51857135D02*
G75*
G02*
X43817865Y-53032135I-2J-1175002D01*
G01*
X44679069Y-54057135D02*
G75*
G02*
X43817865Y-53355248I38796J926887D01*
G01*
X45667865Y-49414677D02*
G75*
G02*
X43667865Y-48232135I2J2282546D01*
G01*
X47672865Y-49407135D02*
G75*
G02*
X48672865Y-50407135I1J-999999D01*
G01*
X48672865Y-53057135D02*
G75*
G02*
X47672865Y-54057135I-999999J-1D01*
G01*
%TO.C,SW17*%
X22067865Y-39407135D02*
X23067865Y-38407135D01*
X22067865Y-42057135D02*
X22067865Y-39407135D01*
X22067865Y-42057135D02*
X23067865Y-43057135D01*
X22217865Y-39262135D02*
X22217865Y-42192135D01*
X22317865Y-39182135D02*
X22317865Y-42302135D01*
X22417865Y-39072135D02*
X22417865Y-42402135D01*
X22517865Y-38972135D02*
X22517865Y-42502135D01*
X22667865Y-38812135D02*
X22667865Y-42642135D01*
X22817865Y-38682135D02*
X22817865Y-42802135D01*
X22967865Y-38542135D02*
X22967865Y-42932135D01*
X23067865Y-38407135D02*
X25392865Y-38407135D01*
X23067865Y-43057135D02*
X25642865Y-43057135D01*
X23117865Y-38432135D02*
X23117865Y-43032135D01*
X23267865Y-38432135D02*
X23267865Y-43032135D01*
X23417865Y-38432135D02*
X23417865Y-43032135D01*
X23567865Y-38432135D02*
X23567865Y-43032135D01*
X23717865Y-38432135D02*
X23717865Y-43032135D01*
X23867865Y-38432135D02*
X23867865Y-43032135D01*
X24017865Y-38432135D02*
X24017865Y-43032135D01*
X24167865Y-38432135D02*
X24167865Y-43032135D01*
X24317865Y-38432135D02*
X24317865Y-43032135D01*
X24467865Y-38432135D02*
X24467865Y-43032135D01*
X24617865Y-38432135D02*
X24617865Y-43032135D01*
X24767865Y-38432135D02*
X24767865Y-43032135D01*
X24917865Y-38432135D02*
X24917865Y-43032135D01*
X25067865Y-38432135D02*
X25067865Y-43032135D01*
X25217865Y-38432135D02*
X25217865Y-43032135D01*
X25367865Y-38432135D02*
X25367865Y-43032135D01*
X25517865Y-38522135D02*
X25517865Y-42982135D01*
X25667865Y-38642135D02*
X25667865Y-43032135D01*
X25817865Y-38752135D02*
X25817865Y-43032135D01*
X25967865Y-38872135D02*
X25967865Y-43032135D01*
X26117865Y-39012135D02*
X26117865Y-43132135D01*
X26257865Y-39112135D02*
X26267865Y-43182135D01*
X26367865Y-39202135D02*
X26367865Y-43232135D01*
X26467865Y-39282135D02*
X26467865Y-43282135D01*
X26567865Y-39362135D02*
X26567865Y-43382135D01*
X26667865Y-39432135D02*
X25392865Y-38407135D01*
X26667865Y-39432135D02*
X26667865Y-43582135D01*
X26767865Y-39612135D02*
X26767865Y-43732135D01*
X26817865Y-44232135D02*
X26817865Y-44555248D01*
X26867865Y-39782135D02*
X26867865Y-44682135D01*
X27017865Y-39932135D02*
X27017865Y-44882135D01*
X27167865Y-40082135D02*
X27167865Y-45072135D01*
X27317865Y-40182135D02*
X27317865Y-45152135D01*
X27467865Y-40282135D02*
X27467865Y-45202135D01*
X27617865Y-40382135D02*
X27617865Y-45232135D01*
X27679069Y-45257135D02*
X30642865Y-45257135D01*
X27767865Y-40432135D02*
X27767865Y-45252135D01*
X27917865Y-40532135D02*
X27917865Y-45242135D01*
X28067865Y-40582135D02*
X28067865Y-45182135D01*
X28217865Y-40582135D02*
X28217865Y-45232135D01*
X28367865Y-40592135D02*
X28367865Y-45232135D01*
X28517865Y-40632135D02*
X28517865Y-45182135D01*
X28667865Y-40607135D02*
X30642865Y-40607135D01*
X28667865Y-40632135D02*
X28667865Y-45232135D01*
X28817865Y-40632135D02*
X28817865Y-45232135D01*
X28967865Y-40632135D02*
X28967865Y-45232135D01*
X29117865Y-40632135D02*
X29117865Y-45232135D01*
X29267865Y-40632135D02*
X29267865Y-45232135D01*
X29417865Y-40632135D02*
X29417865Y-45232135D01*
X29567865Y-40632135D02*
X29567865Y-45232135D01*
X29717865Y-40632135D02*
X29717865Y-45232135D01*
X29867865Y-40632135D02*
X29867865Y-45232135D01*
X30017865Y-40632135D02*
X30017865Y-45232135D01*
X30167865Y-40632135D02*
X30167865Y-45232135D01*
D12*
X30167865Y-45077135D02*
X32717865Y-45077135D01*
D10*
X30317865Y-40632135D02*
X30317865Y-45232135D01*
X30467865Y-40632135D02*
X30467865Y-45232135D01*
X30617865Y-40632135D02*
X30617865Y-45232135D01*
X30767865Y-40622135D02*
X30767865Y-45132135D01*
X30917865Y-40662135D02*
X30917865Y-44982135D01*
X31067865Y-40712135D02*
X31067865Y-44832135D01*
X31217865Y-40792135D02*
X31217865Y-44932135D01*
X31367865Y-40932135D02*
X31367865Y-44902135D01*
X31517865Y-41102135D02*
X31517865Y-44782135D01*
X31672865Y-44257135D02*
X31672865Y-41607135D01*
X25642865Y-43057135D02*
G75*
G02*
X26817865Y-44232135I-2J-1175002D01*
G01*
X27679069Y-45257135D02*
G75*
G02*
X26817865Y-44555248I38796J926887D01*
G01*
X28667865Y-40614677D02*
G75*
G02*
X26667865Y-39432135I2J2282546D01*
G01*
X30672865Y-40607135D02*
G75*
G02*
X31672865Y-41607135I1J-999999D01*
G01*
X31672865Y-44257135D02*
G75*
G02*
X30672865Y-45257135I-999999J-1D01*
G01*
%TO.C,SW29*%
X102062865Y-66007135D02*
X102062865Y-68657135D01*
X102217865Y-69162135D02*
X102217865Y-65482135D01*
X102367865Y-69332135D02*
X102367865Y-65362135D01*
X102517865Y-69472135D02*
X102517865Y-65332135D01*
X102667865Y-69552135D02*
X102667865Y-65432135D01*
X102817865Y-69602135D02*
X102817865Y-65282135D01*
X102967865Y-69642135D02*
X102967865Y-65132135D01*
X103117865Y-69632135D02*
X103117865Y-65032135D01*
X103267865Y-69632135D02*
X103267865Y-65032135D01*
X103417865Y-69632135D02*
X103417865Y-65032135D01*
D12*
X103567865Y-65187135D02*
X101017865Y-65187135D01*
D10*
X103567865Y-69632135D02*
X103567865Y-65032135D01*
X103717865Y-69632135D02*
X103717865Y-65032135D01*
X103867865Y-69632135D02*
X103867865Y-65032135D01*
X104017865Y-69632135D02*
X104017865Y-65032135D01*
X104167865Y-69632135D02*
X104167865Y-65032135D01*
X104317865Y-69632135D02*
X104317865Y-65032135D01*
X104467865Y-69632135D02*
X104467865Y-65032135D01*
X104617865Y-69632135D02*
X104617865Y-65032135D01*
X104767865Y-69632135D02*
X104767865Y-65032135D01*
X104917865Y-69632135D02*
X104917865Y-65032135D01*
X105067865Y-69632135D02*
X105067865Y-65032135D01*
X105067865Y-69657135D02*
X103092865Y-69657135D01*
X105217865Y-69632135D02*
X105217865Y-65082135D01*
X105367865Y-69672135D02*
X105367865Y-65032135D01*
X105517865Y-69682135D02*
X105517865Y-65032135D01*
X105667865Y-69682135D02*
X105667865Y-65082135D01*
X105817865Y-69732135D02*
X105817865Y-65022135D01*
X105967865Y-69832135D02*
X105967865Y-65012135D01*
X106056661Y-65007135D02*
X103092865Y-65007135D01*
X106117865Y-69882135D02*
X106117865Y-65032135D01*
X106267865Y-69982135D02*
X106267865Y-65062135D01*
X106417865Y-70082135D02*
X106417865Y-65112135D01*
X106567865Y-70182135D02*
X106567865Y-65192135D01*
X106717865Y-70332135D02*
X106717865Y-65382135D01*
X106867865Y-70482135D02*
X106867865Y-65582135D01*
X106917865Y-66032135D02*
X106917865Y-65709022D01*
X106967865Y-70652135D02*
X106967865Y-66532135D01*
X107067865Y-70832135D02*
X107067865Y-66682135D01*
X107067865Y-70832135D02*
X108342865Y-71857135D01*
X107167865Y-70902135D02*
X107167865Y-66882135D01*
X107267865Y-70982135D02*
X107267865Y-66982135D01*
X107367865Y-71062135D02*
X107367865Y-67032135D01*
X107477865Y-71152135D02*
X107467865Y-67082135D01*
X107617865Y-71252135D02*
X107617865Y-67132135D01*
X107767865Y-71392135D02*
X107767865Y-67232135D01*
X107917865Y-71512135D02*
X107917865Y-67232135D01*
X108067865Y-71622135D02*
X108067865Y-67232135D01*
X108217865Y-71742135D02*
X108217865Y-67282135D01*
X108367865Y-71832135D02*
X108367865Y-67232135D01*
X108517865Y-71832135D02*
X108517865Y-67232135D01*
X108667865Y-71832135D02*
X108667865Y-67232135D01*
X108817865Y-71832135D02*
X108817865Y-67232135D01*
X108967865Y-71832135D02*
X108967865Y-67232135D01*
X109117865Y-71832135D02*
X109117865Y-67232135D01*
X109267865Y-71832135D02*
X109267865Y-67232135D01*
X109417865Y-71832135D02*
X109417865Y-67232135D01*
X109567865Y-71832135D02*
X109567865Y-67232135D01*
X109717865Y-71832135D02*
X109717865Y-67232135D01*
X109867865Y-71832135D02*
X109867865Y-67232135D01*
X110017865Y-71832135D02*
X110017865Y-67232135D01*
X110167865Y-71832135D02*
X110167865Y-67232135D01*
X110317865Y-71832135D02*
X110317865Y-67232135D01*
X110467865Y-71832135D02*
X110467865Y-67232135D01*
X110617865Y-71832135D02*
X110617865Y-67232135D01*
X110667865Y-67207135D02*
X108092865Y-67207135D01*
X110667865Y-71857135D02*
X108342865Y-71857135D01*
X110767865Y-71722135D02*
X110767865Y-67332135D01*
X110917865Y-71582135D02*
X110917865Y-67462135D01*
X111067865Y-71452135D02*
X111067865Y-67622135D01*
X111217865Y-71292135D02*
X111217865Y-67762135D01*
X111317865Y-71192135D02*
X111317865Y-67862135D01*
X111417865Y-71082135D02*
X111417865Y-67962135D01*
X111517865Y-71002135D02*
X111517865Y-68072135D01*
X111667865Y-68207135D02*
X110667865Y-67207135D01*
X111667865Y-68207135D02*
X111667865Y-70857135D01*
X111667865Y-70857135D02*
X110667865Y-71857135D01*
X102062865Y-66007135D02*
G75*
G02*
X103062865Y-65007135I999999J1D01*
G01*
X103062865Y-69657135D02*
G75*
G02*
X102062865Y-68657135I-1J999999D01*
G01*
X105067865Y-69649593D02*
G75*
G02*
X107067865Y-70832135I-2J-2282546D01*
G01*
X106056661Y-65007135D02*
G75*
G02*
X106917865Y-65709022I-38796J-926887D01*
G01*
X108092865Y-67207135D02*
G75*
G02*
X106917865Y-66032135I2J1175002D01*
G01*
%TO.C,SW18*%
X73067865Y-31207135D02*
X74067865Y-30207135D01*
X73067865Y-33857135D02*
X73067865Y-31207135D01*
X73067865Y-33857135D02*
X74067865Y-34857135D01*
X73217865Y-31062135D02*
X73217865Y-33992135D01*
X73317865Y-30982135D02*
X73317865Y-34102135D01*
X73417865Y-30872135D02*
X73417865Y-34202135D01*
X73517865Y-30772135D02*
X73517865Y-34302135D01*
X73667865Y-30612135D02*
X73667865Y-34442135D01*
X73817865Y-30482135D02*
X73817865Y-34602135D01*
X73967865Y-30342135D02*
X73967865Y-34732135D01*
X74067865Y-30207135D02*
X76392865Y-30207135D01*
X74067865Y-34857135D02*
X76642865Y-34857135D01*
X74117865Y-30232135D02*
X74117865Y-34832135D01*
X74267865Y-30232135D02*
X74267865Y-34832135D01*
X74417865Y-30232135D02*
X74417865Y-34832135D01*
X74567865Y-30232135D02*
X74567865Y-34832135D01*
X74717865Y-30232135D02*
X74717865Y-34832135D01*
X74867865Y-30232135D02*
X74867865Y-34832135D01*
X75017865Y-30232135D02*
X75017865Y-34832135D01*
X75167865Y-30232135D02*
X75167865Y-34832135D01*
X75317865Y-30232135D02*
X75317865Y-34832135D01*
X75467865Y-30232135D02*
X75467865Y-34832135D01*
X75617865Y-30232135D02*
X75617865Y-34832135D01*
X75767865Y-30232135D02*
X75767865Y-34832135D01*
X75917865Y-30232135D02*
X75917865Y-34832135D01*
X76067865Y-30232135D02*
X76067865Y-34832135D01*
X76217865Y-30232135D02*
X76217865Y-34832135D01*
X76367865Y-30232135D02*
X76367865Y-34832135D01*
X76517865Y-30322135D02*
X76517865Y-34782135D01*
X76667865Y-30442135D02*
X76667865Y-34832135D01*
X76817865Y-30552135D02*
X76817865Y-34832135D01*
X76967865Y-30672135D02*
X76967865Y-34832135D01*
X77117865Y-30812135D02*
X77117865Y-34932135D01*
X77257865Y-30912135D02*
X77267865Y-34982135D01*
X77367865Y-31002135D02*
X77367865Y-35032135D01*
X77467865Y-31082135D02*
X77467865Y-35082135D01*
X77567865Y-31162135D02*
X77567865Y-35182135D01*
X77667865Y-31232135D02*
X76392865Y-30207135D01*
X77667865Y-31232135D02*
X77667865Y-35382135D01*
X77767865Y-31412135D02*
X77767865Y-35532135D01*
X77817865Y-36032135D02*
X77817865Y-36355248D01*
X77867865Y-31582135D02*
X77867865Y-36482135D01*
X78017865Y-31732135D02*
X78017865Y-36682135D01*
X78167865Y-31882135D02*
X78167865Y-36872135D01*
X78317865Y-31982135D02*
X78317865Y-36952135D01*
X78467865Y-32082135D02*
X78467865Y-37002135D01*
X78617865Y-32182135D02*
X78617865Y-37032135D01*
X78679069Y-37057135D02*
X81642865Y-37057135D01*
X78767865Y-32232135D02*
X78767865Y-37052135D01*
X78917865Y-32332135D02*
X78917865Y-37042135D01*
X79067865Y-32382135D02*
X79067865Y-36982135D01*
X79217865Y-32382135D02*
X79217865Y-37032135D01*
X79367865Y-32392135D02*
X79367865Y-37032135D01*
X79517865Y-32432135D02*
X79517865Y-36982135D01*
X79667865Y-32407135D02*
X81642865Y-32407135D01*
X79667865Y-32432135D02*
X79667865Y-37032135D01*
X79817865Y-32432135D02*
X79817865Y-37032135D01*
X79967865Y-32432135D02*
X79967865Y-37032135D01*
X80117865Y-32432135D02*
X80117865Y-37032135D01*
X80267865Y-32432135D02*
X80267865Y-37032135D01*
X80417865Y-32432135D02*
X80417865Y-37032135D01*
X80567865Y-32432135D02*
X80567865Y-37032135D01*
X80717865Y-32432135D02*
X80717865Y-37032135D01*
X80867865Y-32432135D02*
X80867865Y-37032135D01*
X81017865Y-32432135D02*
X81017865Y-37032135D01*
X81167865Y-32432135D02*
X81167865Y-37032135D01*
D12*
X81167865Y-36877135D02*
X83717865Y-36877135D01*
D10*
X81317865Y-32432135D02*
X81317865Y-37032135D01*
X81467865Y-32432135D02*
X81467865Y-37032135D01*
X81617865Y-32432135D02*
X81617865Y-37032135D01*
X81767865Y-32422135D02*
X81767865Y-36932135D01*
X81917865Y-32462135D02*
X81917865Y-36782135D01*
X82067865Y-32512135D02*
X82067865Y-36632135D01*
X82217865Y-32592135D02*
X82217865Y-36732135D01*
X82367865Y-32732135D02*
X82367865Y-36702135D01*
X82517865Y-32902135D02*
X82517865Y-36582135D01*
X82672865Y-36057135D02*
X82672865Y-33407135D01*
X76642865Y-34857135D02*
G75*
G02*
X77817865Y-36032135I-2J-1175002D01*
G01*
X78679069Y-37057135D02*
G75*
G02*
X77817865Y-36355248I38796J926887D01*
G01*
X79667865Y-32414677D02*
G75*
G02*
X77667865Y-31232135I2J2282546D01*
G01*
X81672865Y-32407135D02*
G75*
G02*
X82672865Y-33407135I1J-999999D01*
G01*
X82672865Y-36057135D02*
G75*
G02*
X81672865Y-37057135I-999999J-1D01*
G01*
%TO.C,SW22*%
X39067865Y-31207135D02*
X40067865Y-30207135D01*
X39067865Y-33857135D02*
X39067865Y-31207135D01*
X39067865Y-33857135D02*
X40067865Y-34857135D01*
X39217865Y-31062135D02*
X39217865Y-33992135D01*
X39317865Y-30982135D02*
X39317865Y-34102135D01*
X39417865Y-30872135D02*
X39417865Y-34202135D01*
X39517865Y-30772135D02*
X39517865Y-34302135D01*
X39667865Y-30612135D02*
X39667865Y-34442135D01*
X39817865Y-30482135D02*
X39817865Y-34602135D01*
X39967865Y-30342135D02*
X39967865Y-34732135D01*
X40067865Y-30207135D02*
X42392865Y-30207135D01*
X40067865Y-34857135D02*
X42642865Y-34857135D01*
X40117865Y-30232135D02*
X40117865Y-34832135D01*
X40267865Y-30232135D02*
X40267865Y-34832135D01*
X40417865Y-30232135D02*
X40417865Y-34832135D01*
X40567865Y-30232135D02*
X40567865Y-34832135D01*
X40717865Y-30232135D02*
X40717865Y-34832135D01*
X40867865Y-30232135D02*
X40867865Y-34832135D01*
X41017865Y-30232135D02*
X41017865Y-34832135D01*
X41167865Y-30232135D02*
X41167865Y-34832135D01*
X41317865Y-30232135D02*
X41317865Y-34832135D01*
X41467865Y-30232135D02*
X41467865Y-34832135D01*
X41617865Y-30232135D02*
X41617865Y-34832135D01*
X41767865Y-30232135D02*
X41767865Y-34832135D01*
X41917865Y-30232135D02*
X41917865Y-34832135D01*
X42067865Y-30232135D02*
X42067865Y-34832135D01*
X42217865Y-30232135D02*
X42217865Y-34832135D01*
X42367865Y-30232135D02*
X42367865Y-34832135D01*
X42517865Y-30322135D02*
X42517865Y-34782135D01*
X42667865Y-30442135D02*
X42667865Y-34832135D01*
X42817865Y-30552135D02*
X42817865Y-34832135D01*
X42967865Y-30672135D02*
X42967865Y-34832135D01*
X43117865Y-30812135D02*
X43117865Y-34932135D01*
X43257865Y-30912135D02*
X43267865Y-34982135D01*
X43367865Y-31002135D02*
X43367865Y-35032135D01*
X43467865Y-31082135D02*
X43467865Y-35082135D01*
X43567865Y-31162135D02*
X43567865Y-35182135D01*
X43667865Y-31232135D02*
X42392865Y-30207135D01*
X43667865Y-31232135D02*
X43667865Y-35382135D01*
X43767865Y-31412135D02*
X43767865Y-35532135D01*
X43817865Y-36032135D02*
X43817865Y-36355248D01*
X43867865Y-31582135D02*
X43867865Y-36482135D01*
X44017865Y-31732135D02*
X44017865Y-36682135D01*
X44167865Y-31882135D02*
X44167865Y-36872135D01*
X44317865Y-31982135D02*
X44317865Y-36952135D01*
X44467865Y-32082135D02*
X44467865Y-37002135D01*
X44617865Y-32182135D02*
X44617865Y-37032135D01*
X44679069Y-37057135D02*
X47642865Y-37057135D01*
X44767865Y-32232135D02*
X44767865Y-37052135D01*
X44917865Y-32332135D02*
X44917865Y-37042135D01*
X45067865Y-32382135D02*
X45067865Y-36982135D01*
X45217865Y-32382135D02*
X45217865Y-37032135D01*
X45367865Y-32392135D02*
X45367865Y-37032135D01*
X45517865Y-32432135D02*
X45517865Y-36982135D01*
X45667865Y-32407135D02*
X47642865Y-32407135D01*
X45667865Y-32432135D02*
X45667865Y-37032135D01*
X45817865Y-32432135D02*
X45817865Y-37032135D01*
X45967865Y-32432135D02*
X45967865Y-37032135D01*
X46117865Y-32432135D02*
X46117865Y-37032135D01*
X46267865Y-32432135D02*
X46267865Y-37032135D01*
X46417865Y-32432135D02*
X46417865Y-37032135D01*
X46567865Y-32432135D02*
X46567865Y-37032135D01*
X46717865Y-32432135D02*
X46717865Y-37032135D01*
X46867865Y-32432135D02*
X46867865Y-37032135D01*
X47017865Y-32432135D02*
X47017865Y-37032135D01*
X47167865Y-32432135D02*
X47167865Y-37032135D01*
D12*
X47167865Y-36877135D02*
X49717865Y-36877135D01*
D10*
X47317865Y-32432135D02*
X47317865Y-37032135D01*
X47467865Y-32432135D02*
X47467865Y-37032135D01*
X47617865Y-32432135D02*
X47617865Y-37032135D01*
X47767865Y-32422135D02*
X47767865Y-36932135D01*
X47917865Y-32462135D02*
X47917865Y-36782135D01*
X48067865Y-32512135D02*
X48067865Y-36632135D01*
X48217865Y-32592135D02*
X48217865Y-36732135D01*
X48367865Y-32732135D02*
X48367865Y-36702135D01*
X48517865Y-32902135D02*
X48517865Y-36582135D01*
X48672865Y-36057135D02*
X48672865Y-33407135D01*
X42642865Y-34857135D02*
G75*
G02*
X43817865Y-36032135I-2J-1175002D01*
G01*
X44679069Y-37057135D02*
G75*
G02*
X43817865Y-36355248I38796J926887D01*
G01*
X45667865Y-32414677D02*
G75*
G02*
X43667865Y-31232135I2J2282546D01*
G01*
X47672865Y-32407135D02*
G75*
G02*
X48672865Y-33407135I1J-999999D01*
G01*
X48672865Y-36057135D02*
G75*
G02*
X47672865Y-37057135I-999999J-1D01*
G01*
%TO.C,SW19*%
X68062865Y-57807135D02*
X68062865Y-60457135D01*
X68217865Y-60962135D02*
X68217865Y-57282135D01*
X68367865Y-61132135D02*
X68367865Y-57162135D01*
X68517865Y-61272135D02*
X68517865Y-57132135D01*
X68667865Y-61352135D02*
X68667865Y-57232135D01*
X68817865Y-61402135D02*
X68817865Y-57082135D01*
X68967865Y-61442135D02*
X68967865Y-56932135D01*
X69117865Y-61432135D02*
X69117865Y-56832135D01*
X69267865Y-61432135D02*
X69267865Y-56832135D01*
X69417865Y-61432135D02*
X69417865Y-56832135D01*
D12*
X69567865Y-56987135D02*
X67017865Y-56987135D01*
D10*
X69567865Y-61432135D02*
X69567865Y-56832135D01*
X69717865Y-61432135D02*
X69717865Y-56832135D01*
X69867865Y-61432135D02*
X69867865Y-56832135D01*
X70017865Y-61432135D02*
X70017865Y-56832135D01*
X70167865Y-61432135D02*
X70167865Y-56832135D01*
X70317865Y-61432135D02*
X70317865Y-56832135D01*
X70467865Y-61432135D02*
X70467865Y-56832135D01*
X70617865Y-61432135D02*
X70617865Y-56832135D01*
X70767865Y-61432135D02*
X70767865Y-56832135D01*
X70917865Y-61432135D02*
X70917865Y-56832135D01*
X71067865Y-61432135D02*
X71067865Y-56832135D01*
X71067865Y-61457135D02*
X69092865Y-61457135D01*
X71217865Y-61432135D02*
X71217865Y-56882135D01*
X71367865Y-61472135D02*
X71367865Y-56832135D01*
X71517865Y-61482135D02*
X71517865Y-56832135D01*
X71667865Y-61482135D02*
X71667865Y-56882135D01*
X71817865Y-61532135D02*
X71817865Y-56822135D01*
X71967865Y-61632135D02*
X71967865Y-56812135D01*
X72056661Y-56807135D02*
X69092865Y-56807135D01*
X72117865Y-61682135D02*
X72117865Y-56832135D01*
X72267865Y-61782135D02*
X72267865Y-56862135D01*
X72417865Y-61882135D02*
X72417865Y-56912135D01*
X72567865Y-61982135D02*
X72567865Y-56992135D01*
X72717865Y-62132135D02*
X72717865Y-57182135D01*
X72867865Y-62282135D02*
X72867865Y-57382135D01*
X72917865Y-57832135D02*
X72917865Y-57509022D01*
X72967865Y-62452135D02*
X72967865Y-58332135D01*
X73067865Y-62632135D02*
X73067865Y-58482135D01*
X73067865Y-62632135D02*
X74342865Y-63657135D01*
X73167865Y-62702135D02*
X73167865Y-58682135D01*
X73267865Y-62782135D02*
X73267865Y-58782135D01*
X73367865Y-62862135D02*
X73367865Y-58832135D01*
X73477865Y-62952135D02*
X73467865Y-58882135D01*
X73617865Y-63052135D02*
X73617865Y-58932135D01*
X73767865Y-63192135D02*
X73767865Y-59032135D01*
X73917865Y-63312135D02*
X73917865Y-59032135D01*
X74067865Y-63422135D02*
X74067865Y-59032135D01*
X74217865Y-63542135D02*
X74217865Y-59082135D01*
X74367865Y-63632135D02*
X74367865Y-59032135D01*
X74517865Y-63632135D02*
X74517865Y-59032135D01*
X74667865Y-63632135D02*
X74667865Y-59032135D01*
X74817865Y-63632135D02*
X74817865Y-59032135D01*
X74967865Y-63632135D02*
X74967865Y-59032135D01*
X75117865Y-63632135D02*
X75117865Y-59032135D01*
X75267865Y-63632135D02*
X75267865Y-59032135D01*
X75417865Y-63632135D02*
X75417865Y-59032135D01*
X75567865Y-63632135D02*
X75567865Y-59032135D01*
X75717865Y-63632135D02*
X75717865Y-59032135D01*
X75867865Y-63632135D02*
X75867865Y-59032135D01*
X76017865Y-63632135D02*
X76017865Y-59032135D01*
X76167865Y-63632135D02*
X76167865Y-59032135D01*
X76317865Y-63632135D02*
X76317865Y-59032135D01*
X76467865Y-63632135D02*
X76467865Y-59032135D01*
X76617865Y-63632135D02*
X76617865Y-59032135D01*
X76667865Y-59007135D02*
X74092865Y-59007135D01*
X76667865Y-63657135D02*
X74342865Y-63657135D01*
X76767865Y-63522135D02*
X76767865Y-59132135D01*
X76917865Y-63382135D02*
X76917865Y-59262135D01*
X77067865Y-63252135D02*
X77067865Y-59422135D01*
X77217865Y-63092135D02*
X77217865Y-59562135D01*
X77317865Y-62992135D02*
X77317865Y-59662135D01*
X77417865Y-62882135D02*
X77417865Y-59762135D01*
X77517865Y-62802135D02*
X77517865Y-59872135D01*
X77667865Y-60007135D02*
X76667865Y-59007135D01*
X77667865Y-60007135D02*
X77667865Y-62657135D01*
X77667865Y-62657135D02*
X76667865Y-63657135D01*
X68062865Y-57807135D02*
G75*
G02*
X69062865Y-56807135I999999J1D01*
G01*
X69062865Y-61457135D02*
G75*
G02*
X68062865Y-60457135I-1J999999D01*
G01*
X71067865Y-61449593D02*
G75*
G02*
X73067865Y-62632135I-2J-2282546D01*
G01*
X72056661Y-56807135D02*
G75*
G02*
X72917865Y-57509022I-38796J-926887D01*
G01*
X74092865Y-59007135D02*
G75*
G02*
X72917865Y-57832135I2J1175002D01*
G01*
%TO.C,SW24*%
X85062865Y-60207135D02*
X85062865Y-62857135D01*
X85217865Y-63362135D02*
X85217865Y-59682135D01*
X85367865Y-63532135D02*
X85367865Y-59562135D01*
X85517865Y-63672135D02*
X85517865Y-59532135D01*
X85667865Y-63752135D02*
X85667865Y-59632135D01*
X85817865Y-63802135D02*
X85817865Y-59482135D01*
X85967865Y-63842135D02*
X85967865Y-59332135D01*
X86117865Y-63832135D02*
X86117865Y-59232135D01*
X86267865Y-63832135D02*
X86267865Y-59232135D01*
X86417865Y-63832135D02*
X86417865Y-59232135D01*
D12*
X86567865Y-59387135D02*
X84017865Y-59387135D01*
D10*
X86567865Y-63832135D02*
X86567865Y-59232135D01*
X86717865Y-63832135D02*
X86717865Y-59232135D01*
X86867865Y-63832135D02*
X86867865Y-59232135D01*
X87017865Y-63832135D02*
X87017865Y-59232135D01*
X87167865Y-63832135D02*
X87167865Y-59232135D01*
X87317865Y-63832135D02*
X87317865Y-59232135D01*
X87467865Y-63832135D02*
X87467865Y-59232135D01*
X87617865Y-63832135D02*
X87617865Y-59232135D01*
X87767865Y-63832135D02*
X87767865Y-59232135D01*
X87917865Y-63832135D02*
X87917865Y-59232135D01*
X88067865Y-63832135D02*
X88067865Y-59232135D01*
X88067865Y-63857135D02*
X86092865Y-63857135D01*
X88217865Y-63832135D02*
X88217865Y-59282135D01*
X88367865Y-63872135D02*
X88367865Y-59232135D01*
X88517865Y-63882135D02*
X88517865Y-59232135D01*
X88667865Y-63882135D02*
X88667865Y-59282135D01*
X88817865Y-63932135D02*
X88817865Y-59222135D01*
X88967865Y-64032135D02*
X88967865Y-59212135D01*
X89056661Y-59207135D02*
X86092865Y-59207135D01*
X89117865Y-64082135D02*
X89117865Y-59232135D01*
X89267865Y-64182135D02*
X89267865Y-59262135D01*
X89417865Y-64282135D02*
X89417865Y-59312135D01*
X89567865Y-64382135D02*
X89567865Y-59392135D01*
X89717865Y-64532135D02*
X89717865Y-59582135D01*
X89867865Y-64682135D02*
X89867865Y-59782135D01*
X89917865Y-60232135D02*
X89917865Y-59909022D01*
X89967865Y-64852135D02*
X89967865Y-60732135D01*
X90067865Y-65032135D02*
X90067865Y-60882135D01*
X90067865Y-65032135D02*
X91342865Y-66057135D01*
X90167865Y-65102135D02*
X90167865Y-61082135D01*
X90267865Y-65182135D02*
X90267865Y-61182135D01*
X90367865Y-65262135D02*
X90367865Y-61232135D01*
X90477865Y-65352135D02*
X90467865Y-61282135D01*
X90617865Y-65452135D02*
X90617865Y-61332135D01*
X90767865Y-65592135D02*
X90767865Y-61432135D01*
X90917865Y-65712135D02*
X90917865Y-61432135D01*
X91067865Y-65822135D02*
X91067865Y-61432135D01*
X91217865Y-65942135D02*
X91217865Y-61482135D01*
X91367865Y-66032135D02*
X91367865Y-61432135D01*
X91517865Y-66032135D02*
X91517865Y-61432135D01*
X91667865Y-66032135D02*
X91667865Y-61432135D01*
X91817865Y-66032135D02*
X91817865Y-61432135D01*
X91967865Y-66032135D02*
X91967865Y-61432135D01*
X92117865Y-66032135D02*
X92117865Y-61432135D01*
X92267865Y-66032135D02*
X92267865Y-61432135D01*
X92417865Y-66032135D02*
X92417865Y-61432135D01*
X92567865Y-66032135D02*
X92567865Y-61432135D01*
X92717865Y-66032135D02*
X92717865Y-61432135D01*
X92867865Y-66032135D02*
X92867865Y-61432135D01*
X93017865Y-66032135D02*
X93017865Y-61432135D01*
X93167865Y-66032135D02*
X93167865Y-61432135D01*
X93317865Y-66032135D02*
X93317865Y-61432135D01*
X93467865Y-66032135D02*
X93467865Y-61432135D01*
X93617865Y-66032135D02*
X93617865Y-61432135D01*
X93667865Y-61407135D02*
X91092865Y-61407135D01*
X93667865Y-66057135D02*
X91342865Y-66057135D01*
X93767865Y-65922135D02*
X93767865Y-61532135D01*
X93917865Y-65782135D02*
X93917865Y-61662135D01*
X94067865Y-65652135D02*
X94067865Y-61822135D01*
X94217865Y-65492135D02*
X94217865Y-61962135D01*
X94317865Y-65392135D02*
X94317865Y-62062135D01*
X94417865Y-65282135D02*
X94417865Y-62162135D01*
X94517865Y-65202135D02*
X94517865Y-62272135D01*
X94667865Y-62407135D02*
X93667865Y-61407135D01*
X94667865Y-62407135D02*
X94667865Y-65057135D01*
X94667865Y-65057135D02*
X93667865Y-66057135D01*
X85062865Y-60207135D02*
G75*
G02*
X86062865Y-59207135I999999J1D01*
G01*
X86062865Y-63857135D02*
G75*
G02*
X85062865Y-62857135I-1J999999D01*
G01*
X88067865Y-63849593D02*
G75*
G02*
X90067865Y-65032135I-2J-2282546D01*
G01*
X89056661Y-59207135D02*
G75*
G02*
X89917865Y-59909022I-38796J-926887D01*
G01*
X91092865Y-61407135D02*
G75*
G02*
X89917865Y-60232135I2J1175002D01*
G01*
%TO.C,SW25*%
X85062865Y-77207135D02*
X85062865Y-79857135D01*
X85217865Y-80362135D02*
X85217865Y-76682135D01*
X85367865Y-80532135D02*
X85367865Y-76562135D01*
X85517865Y-80672135D02*
X85517865Y-76532135D01*
X85667865Y-80752135D02*
X85667865Y-76632135D01*
X85817865Y-80802135D02*
X85817865Y-76482135D01*
X85967865Y-80842135D02*
X85967865Y-76332135D01*
X86117865Y-80832135D02*
X86117865Y-76232135D01*
X86267865Y-80832135D02*
X86267865Y-76232135D01*
X86417865Y-80832135D02*
X86417865Y-76232135D01*
D12*
X86567865Y-76387135D02*
X84017865Y-76387135D01*
D10*
X86567865Y-80832135D02*
X86567865Y-76232135D01*
X86717865Y-80832135D02*
X86717865Y-76232135D01*
X86867865Y-80832135D02*
X86867865Y-76232135D01*
X87017865Y-80832135D02*
X87017865Y-76232135D01*
X87167865Y-80832135D02*
X87167865Y-76232135D01*
X87317865Y-80832135D02*
X87317865Y-76232135D01*
X87467865Y-80832135D02*
X87467865Y-76232135D01*
X87617865Y-80832135D02*
X87617865Y-76232135D01*
X87767865Y-80832135D02*
X87767865Y-76232135D01*
X87917865Y-80832135D02*
X87917865Y-76232135D01*
X88067865Y-80832135D02*
X88067865Y-76232135D01*
X88067865Y-80857135D02*
X86092865Y-80857135D01*
X88217865Y-80832135D02*
X88217865Y-76282135D01*
X88367865Y-80872135D02*
X88367865Y-76232135D01*
X88517865Y-80882135D02*
X88517865Y-76232135D01*
X88667865Y-80882135D02*
X88667865Y-76282135D01*
X88817865Y-80932135D02*
X88817865Y-76222135D01*
X88967865Y-81032135D02*
X88967865Y-76212135D01*
X89056661Y-76207135D02*
X86092865Y-76207135D01*
X89117865Y-81082135D02*
X89117865Y-76232135D01*
X89267865Y-81182135D02*
X89267865Y-76262135D01*
X89417865Y-81282135D02*
X89417865Y-76312135D01*
X89567865Y-81382135D02*
X89567865Y-76392135D01*
X89717865Y-81532135D02*
X89717865Y-76582135D01*
X89867865Y-81682135D02*
X89867865Y-76782135D01*
X89917865Y-77232135D02*
X89917865Y-76909022D01*
X89967865Y-81852135D02*
X89967865Y-77732135D01*
X90067865Y-82032135D02*
X90067865Y-77882135D01*
X90067865Y-82032135D02*
X91342865Y-83057135D01*
X90167865Y-82102135D02*
X90167865Y-78082135D01*
X90267865Y-82182135D02*
X90267865Y-78182135D01*
X90367865Y-82262135D02*
X90367865Y-78232135D01*
X90477865Y-82352135D02*
X90467865Y-78282135D01*
X90617865Y-82452135D02*
X90617865Y-78332135D01*
X90767865Y-82592135D02*
X90767865Y-78432135D01*
X90917865Y-82712135D02*
X90917865Y-78432135D01*
X91067865Y-82822135D02*
X91067865Y-78432135D01*
X91217865Y-82942135D02*
X91217865Y-78482135D01*
X91367865Y-83032135D02*
X91367865Y-78432135D01*
X91517865Y-83032135D02*
X91517865Y-78432135D01*
X91667865Y-83032135D02*
X91667865Y-78432135D01*
X91817865Y-83032135D02*
X91817865Y-78432135D01*
X91967865Y-83032135D02*
X91967865Y-78432135D01*
X92117865Y-83032135D02*
X92117865Y-78432135D01*
X92267865Y-83032135D02*
X92267865Y-78432135D01*
X92417865Y-83032135D02*
X92417865Y-78432135D01*
X92567865Y-83032135D02*
X92567865Y-78432135D01*
X92717865Y-83032135D02*
X92717865Y-78432135D01*
X92867865Y-83032135D02*
X92867865Y-78432135D01*
X93017865Y-83032135D02*
X93017865Y-78432135D01*
X93167865Y-83032135D02*
X93167865Y-78432135D01*
X93317865Y-83032135D02*
X93317865Y-78432135D01*
X93467865Y-83032135D02*
X93467865Y-78432135D01*
X93617865Y-83032135D02*
X93617865Y-78432135D01*
X93667865Y-78407135D02*
X91092865Y-78407135D01*
X93667865Y-83057135D02*
X91342865Y-83057135D01*
X93767865Y-82922135D02*
X93767865Y-78532135D01*
X93917865Y-82782135D02*
X93917865Y-78662135D01*
X94067865Y-82652135D02*
X94067865Y-78822135D01*
X94217865Y-82492135D02*
X94217865Y-78962135D01*
X94317865Y-82392135D02*
X94317865Y-79062135D01*
X94417865Y-82282135D02*
X94417865Y-79162135D01*
X94517865Y-82202135D02*
X94517865Y-79272135D01*
X94667865Y-79407135D02*
X93667865Y-78407135D01*
X94667865Y-79407135D02*
X94667865Y-82057135D01*
X94667865Y-82057135D02*
X93667865Y-83057135D01*
X85062865Y-77207135D02*
G75*
G02*
X86062865Y-76207135I999999J1D01*
G01*
X86062865Y-80857135D02*
G75*
G02*
X85062865Y-79857135I-1J999999D01*
G01*
X88067865Y-80849593D02*
G75*
G02*
X90067865Y-82032135I-2J-2282546D01*
G01*
X89056661Y-76207135D02*
G75*
G02*
X89917865Y-76909022I-38796J-926887D01*
G01*
X91092865Y-78407135D02*
G75*
G02*
X89917865Y-77232135I2J1175002D01*
G01*
%TO.C,SW10*%
X39067865Y-65207135D02*
X40067865Y-64207135D01*
X39067865Y-67857135D02*
X39067865Y-65207135D01*
X39067865Y-67857135D02*
X40067865Y-68857135D01*
X39217865Y-65062135D02*
X39217865Y-67992135D01*
X39317865Y-64982135D02*
X39317865Y-68102135D01*
X39417865Y-64872135D02*
X39417865Y-68202135D01*
X39517865Y-64772135D02*
X39517865Y-68302135D01*
X39667865Y-64612135D02*
X39667865Y-68442135D01*
X39817865Y-64482135D02*
X39817865Y-68602135D01*
X39967865Y-64342135D02*
X39967865Y-68732135D01*
X40067865Y-64207135D02*
X42392865Y-64207135D01*
X40067865Y-68857135D02*
X42642865Y-68857135D01*
X40117865Y-64232135D02*
X40117865Y-68832135D01*
X40267865Y-64232135D02*
X40267865Y-68832135D01*
X40417865Y-64232135D02*
X40417865Y-68832135D01*
X40567865Y-64232135D02*
X40567865Y-68832135D01*
X40717865Y-64232135D02*
X40717865Y-68832135D01*
X40867865Y-64232135D02*
X40867865Y-68832135D01*
X41017865Y-64232135D02*
X41017865Y-68832135D01*
X41167865Y-64232135D02*
X41167865Y-68832135D01*
X41317865Y-64232135D02*
X41317865Y-68832135D01*
X41467865Y-64232135D02*
X41467865Y-68832135D01*
X41617865Y-64232135D02*
X41617865Y-68832135D01*
X41767865Y-64232135D02*
X41767865Y-68832135D01*
X41917865Y-64232135D02*
X41917865Y-68832135D01*
X42067865Y-64232135D02*
X42067865Y-68832135D01*
X42217865Y-64232135D02*
X42217865Y-68832135D01*
X42367865Y-64232135D02*
X42367865Y-68832135D01*
X42517865Y-64322135D02*
X42517865Y-68782135D01*
X42667865Y-64442135D02*
X42667865Y-68832135D01*
X42817865Y-64552135D02*
X42817865Y-68832135D01*
X42967865Y-64672135D02*
X42967865Y-68832135D01*
X43117865Y-64812135D02*
X43117865Y-68932135D01*
X43257865Y-64912135D02*
X43267865Y-68982135D01*
X43367865Y-65002135D02*
X43367865Y-69032135D01*
X43467865Y-65082135D02*
X43467865Y-69082135D01*
X43567865Y-65162135D02*
X43567865Y-69182135D01*
X43667865Y-65232135D02*
X42392865Y-64207135D01*
X43667865Y-65232135D02*
X43667865Y-69382135D01*
X43767865Y-65412135D02*
X43767865Y-69532135D01*
X43817865Y-70032135D02*
X43817865Y-70355248D01*
X43867865Y-65582135D02*
X43867865Y-70482135D01*
X44017865Y-65732135D02*
X44017865Y-70682135D01*
X44167865Y-65882135D02*
X44167865Y-70872135D01*
X44317865Y-65982135D02*
X44317865Y-70952135D01*
X44467865Y-66082135D02*
X44467865Y-71002135D01*
X44617865Y-66182135D02*
X44617865Y-71032135D01*
X44679069Y-71057135D02*
X47642865Y-71057135D01*
X44767865Y-66232135D02*
X44767865Y-71052135D01*
X44917865Y-66332135D02*
X44917865Y-71042135D01*
X45067865Y-66382135D02*
X45067865Y-70982135D01*
X45217865Y-66382135D02*
X45217865Y-71032135D01*
X45367865Y-66392135D02*
X45367865Y-71032135D01*
X45517865Y-66432135D02*
X45517865Y-70982135D01*
X45667865Y-66407135D02*
X47642865Y-66407135D01*
X45667865Y-66432135D02*
X45667865Y-71032135D01*
X45817865Y-66432135D02*
X45817865Y-71032135D01*
X45967865Y-66432135D02*
X45967865Y-71032135D01*
X46117865Y-66432135D02*
X46117865Y-71032135D01*
X46267865Y-66432135D02*
X46267865Y-71032135D01*
X46417865Y-66432135D02*
X46417865Y-71032135D01*
X46567865Y-66432135D02*
X46567865Y-71032135D01*
X46717865Y-66432135D02*
X46717865Y-71032135D01*
X46867865Y-66432135D02*
X46867865Y-71032135D01*
X47017865Y-66432135D02*
X47017865Y-71032135D01*
X47167865Y-66432135D02*
X47167865Y-71032135D01*
D12*
X47167865Y-70877135D02*
X49717865Y-70877135D01*
D10*
X47317865Y-66432135D02*
X47317865Y-71032135D01*
X47467865Y-66432135D02*
X47467865Y-71032135D01*
X47617865Y-66432135D02*
X47617865Y-71032135D01*
X47767865Y-66422135D02*
X47767865Y-70932135D01*
X47917865Y-66462135D02*
X47917865Y-70782135D01*
X48067865Y-66512135D02*
X48067865Y-70632135D01*
X48217865Y-66592135D02*
X48217865Y-70732135D01*
X48367865Y-66732135D02*
X48367865Y-70702135D01*
X48517865Y-66902135D02*
X48517865Y-70582135D01*
X48672865Y-70057135D02*
X48672865Y-67407135D01*
X42642865Y-68857135D02*
G75*
G02*
X43817865Y-70032135I-2J-1175002D01*
G01*
X44679069Y-71057135D02*
G75*
G02*
X43817865Y-70355248I38796J926887D01*
G01*
X45667865Y-66414677D02*
G75*
G02*
X43667865Y-65232135I2J2282546D01*
G01*
X47672865Y-66407135D02*
G75*
G02*
X48672865Y-67407135I1J-999999D01*
G01*
X48672865Y-70057135D02*
G75*
G02*
X47672865Y-71057135I-999999J-1D01*
G01*
%TO.C,SW26*%
X84142865Y-93132135D02*
X84142865Y-90807135D01*
X84167865Y-90832135D02*
X88767865Y-90832135D01*
X84167865Y-90982135D02*
X88767865Y-90982135D01*
X84167865Y-91132135D02*
X88767865Y-91132135D01*
X84167865Y-91282135D02*
X88767865Y-91282135D01*
X84167865Y-91432135D02*
X88767865Y-91432135D01*
X84167865Y-91582135D02*
X88767865Y-91582135D01*
X84167865Y-91732135D02*
X88767865Y-91732135D01*
X84167865Y-91882135D02*
X88767865Y-91882135D01*
X84167865Y-92032135D02*
X88767865Y-92032135D01*
X84167865Y-92182135D02*
X88767865Y-92182135D01*
X84167865Y-92332135D02*
X88767865Y-92332135D01*
X84167865Y-92482135D02*
X88767865Y-92482135D01*
X84167865Y-92632135D02*
X88767865Y-92632135D01*
X84167865Y-92782135D02*
X88767865Y-92782135D01*
X84167865Y-92932135D02*
X88767865Y-92932135D01*
X84167865Y-93082135D02*
X88767865Y-93082135D01*
X84257865Y-90682135D02*
X88717865Y-90682135D01*
X84277865Y-93232135D02*
X88667865Y-93232135D01*
X84377865Y-90532135D02*
X88767865Y-90532135D01*
X84417865Y-93382135D02*
X88537865Y-93382135D01*
X84487865Y-90382135D02*
X88767865Y-90382135D01*
X84547865Y-93532135D02*
X88377865Y-93532135D01*
X84607865Y-90232135D02*
X88767865Y-90232135D01*
X84707865Y-93682135D02*
X88237865Y-93682135D01*
X84747865Y-90082135D02*
X88867865Y-90082135D01*
X84807865Y-93782135D02*
X88137865Y-93782135D01*
X84847865Y-89942135D02*
X88917865Y-89932135D01*
X84917865Y-93882135D02*
X88037865Y-93882135D01*
X84937865Y-89832135D02*
X88967865Y-89832135D01*
X84997865Y-93982135D02*
X87927865Y-93982135D01*
X85017865Y-89732135D02*
X89017865Y-89732135D01*
X85097865Y-89632135D02*
X89117865Y-89632135D01*
X85142865Y-94132135D02*
X84142865Y-93132135D01*
X85167865Y-89532135D02*
X84142865Y-90807135D01*
X85167865Y-89532135D02*
X89317865Y-89532135D01*
X85347865Y-89432135D02*
X89467865Y-89432135D01*
X85517865Y-89332135D02*
X90417865Y-89332135D01*
X85667865Y-89182135D02*
X90617865Y-89182135D01*
X85817865Y-89032135D02*
X90807865Y-89032135D01*
X85917865Y-88882135D02*
X90887865Y-88882135D01*
X86017865Y-88732135D02*
X90937865Y-88732135D01*
X86117865Y-88582135D02*
X90967865Y-88582135D01*
X86167865Y-88432135D02*
X90987865Y-88432135D01*
X86267865Y-88282135D02*
X90977865Y-88282135D01*
X86317865Y-87982135D02*
X90967865Y-87982135D01*
X86317865Y-88132135D02*
X90917865Y-88132135D01*
X86327865Y-87832135D02*
X90967865Y-87832135D01*
X86342865Y-87532135D02*
X86342865Y-85557135D01*
X86357865Y-85432135D02*
X90867865Y-85432135D01*
X86367865Y-85582135D02*
X90967865Y-85582135D01*
X86367865Y-85732135D02*
X90967865Y-85732135D01*
X86367865Y-85882135D02*
X90967865Y-85882135D01*
X86367865Y-86032135D02*
X90967865Y-86032135D01*
X86367865Y-86182135D02*
X90967865Y-86182135D01*
X86367865Y-86332135D02*
X90967865Y-86332135D01*
X86367865Y-86482135D02*
X90967865Y-86482135D01*
X86367865Y-86632135D02*
X90967865Y-86632135D01*
X86367865Y-86782135D02*
X90967865Y-86782135D01*
X86367865Y-86932135D02*
X90967865Y-86932135D01*
X86367865Y-87082135D02*
X90967865Y-87082135D01*
X86367865Y-87232135D02*
X90967865Y-87232135D01*
X86367865Y-87382135D02*
X90967865Y-87382135D01*
X86367865Y-87532135D02*
X90967865Y-87532135D01*
X86367865Y-87682135D02*
X90917865Y-87682135D01*
X86397865Y-85282135D02*
X90717865Y-85282135D01*
X86447865Y-85132135D02*
X90567865Y-85132135D01*
X86527865Y-84982135D02*
X90667865Y-84982135D01*
X86667865Y-84832135D02*
X90637865Y-84832135D01*
X86837865Y-84682135D02*
X90517865Y-84682135D01*
X87792865Y-94132135D02*
X85142865Y-94132135D01*
X87792865Y-94132135D02*
X88792865Y-93132135D01*
X88792865Y-93132135D02*
X88792865Y-90557135D01*
X89967865Y-89382135D02*
X90290978Y-89382135D01*
X89992865Y-84527135D02*
X87342865Y-84527135D01*
D12*
X90812865Y-86032135D02*
X90812865Y-83482135D01*
D10*
X90992865Y-88520931D02*
X90992865Y-85557135D01*
X86342865Y-85527135D02*
G75*
G02*
X87342865Y-84527135I999999J1D01*
G01*
X86350407Y-87532135D02*
G75*
G02*
X85167865Y-89532135I-2282546J2D01*
G01*
X88792865Y-90557135D02*
G75*
G02*
X89967865Y-89382135I1175002J-2D01*
G01*
X89992865Y-84527135D02*
G75*
G02*
X90992865Y-85527135I1J-999999D01*
G01*
X90992865Y-88520931D02*
G75*
G02*
X90290978Y-89382135I-926887J38796D01*
G01*
%TO.C,SW6*%
X22067865Y-73407135D02*
X23067865Y-72407135D01*
X22067865Y-76057135D02*
X22067865Y-73407135D01*
X22067865Y-76057135D02*
X23067865Y-77057135D01*
X22217865Y-73262135D02*
X22217865Y-76192135D01*
X22317865Y-73182135D02*
X22317865Y-76302135D01*
X22417865Y-73072135D02*
X22417865Y-76402135D01*
X22517865Y-72972135D02*
X22517865Y-76502135D01*
X22667865Y-72812135D02*
X22667865Y-76642135D01*
X22817865Y-72682135D02*
X22817865Y-76802135D01*
X22967865Y-72542135D02*
X22967865Y-76932135D01*
X23067865Y-72407135D02*
X25392865Y-72407135D01*
X23067865Y-77057135D02*
X25642865Y-77057135D01*
X23117865Y-72432135D02*
X23117865Y-77032135D01*
X23267865Y-72432135D02*
X23267865Y-77032135D01*
X23417865Y-72432135D02*
X23417865Y-77032135D01*
X23567865Y-72432135D02*
X23567865Y-77032135D01*
X23717865Y-72432135D02*
X23717865Y-77032135D01*
X23867865Y-72432135D02*
X23867865Y-77032135D01*
X24017865Y-72432135D02*
X24017865Y-77032135D01*
X24167865Y-72432135D02*
X24167865Y-77032135D01*
X24317865Y-72432135D02*
X24317865Y-77032135D01*
X24467865Y-72432135D02*
X24467865Y-77032135D01*
X24617865Y-72432135D02*
X24617865Y-77032135D01*
X24767865Y-72432135D02*
X24767865Y-77032135D01*
X24917865Y-72432135D02*
X24917865Y-77032135D01*
X25067865Y-72432135D02*
X25067865Y-77032135D01*
X25217865Y-72432135D02*
X25217865Y-77032135D01*
X25367865Y-72432135D02*
X25367865Y-77032135D01*
X25517865Y-72522135D02*
X25517865Y-76982135D01*
X25667865Y-72642135D02*
X25667865Y-77032135D01*
X25817865Y-72752135D02*
X25817865Y-77032135D01*
X25967865Y-72872135D02*
X25967865Y-77032135D01*
X26117865Y-73012135D02*
X26117865Y-77132135D01*
X26257865Y-73112135D02*
X26267865Y-77182135D01*
X26367865Y-73202135D02*
X26367865Y-77232135D01*
X26467865Y-73282135D02*
X26467865Y-77282135D01*
X26567865Y-73362135D02*
X26567865Y-77382135D01*
X26667865Y-73432135D02*
X25392865Y-72407135D01*
X26667865Y-73432135D02*
X26667865Y-77582135D01*
X26767865Y-73612135D02*
X26767865Y-77732135D01*
X26817865Y-78232135D02*
X26817865Y-78555248D01*
X26867865Y-73782135D02*
X26867865Y-78682135D01*
X27017865Y-73932135D02*
X27017865Y-78882135D01*
X27167865Y-74082135D02*
X27167865Y-79072135D01*
X27317865Y-74182135D02*
X27317865Y-79152135D01*
X27467865Y-74282135D02*
X27467865Y-79202135D01*
X27617865Y-74382135D02*
X27617865Y-79232135D01*
X27679069Y-79257135D02*
X30642865Y-79257135D01*
X27767865Y-74432135D02*
X27767865Y-79252135D01*
X27917865Y-74532135D02*
X27917865Y-79242135D01*
X28067865Y-74582135D02*
X28067865Y-79182135D01*
X28217865Y-74582135D02*
X28217865Y-79232135D01*
X28367865Y-74592135D02*
X28367865Y-79232135D01*
X28517865Y-74632135D02*
X28517865Y-79182135D01*
X28667865Y-74607135D02*
X30642865Y-74607135D01*
X28667865Y-74632135D02*
X28667865Y-79232135D01*
X28817865Y-74632135D02*
X28817865Y-79232135D01*
X28967865Y-74632135D02*
X28967865Y-79232135D01*
X29117865Y-74632135D02*
X29117865Y-79232135D01*
X29267865Y-74632135D02*
X29267865Y-79232135D01*
X29417865Y-74632135D02*
X29417865Y-79232135D01*
X29567865Y-74632135D02*
X29567865Y-79232135D01*
X29717865Y-74632135D02*
X29717865Y-79232135D01*
X29867865Y-74632135D02*
X29867865Y-79232135D01*
X30017865Y-74632135D02*
X30017865Y-79232135D01*
X30167865Y-74632135D02*
X30167865Y-79232135D01*
D12*
X30167865Y-79077135D02*
X32717865Y-79077135D01*
D10*
X30317865Y-74632135D02*
X30317865Y-79232135D01*
X30467865Y-74632135D02*
X30467865Y-79232135D01*
X30617865Y-74632135D02*
X30617865Y-79232135D01*
X30767865Y-74622135D02*
X30767865Y-79132135D01*
X30917865Y-74662135D02*
X30917865Y-78982135D01*
X31067865Y-74712135D02*
X31067865Y-78832135D01*
X31217865Y-74792135D02*
X31217865Y-78932135D01*
X31367865Y-74932135D02*
X31367865Y-78902135D01*
X31517865Y-75102135D02*
X31517865Y-78782135D01*
X31672865Y-78257135D02*
X31672865Y-75607135D01*
X25642865Y-77057135D02*
G75*
G02*
X26817865Y-78232135I-2J-1175002D01*
G01*
X27679069Y-79257135D02*
G75*
G02*
X26817865Y-78555248I38796J926887D01*
G01*
X28667865Y-74614677D02*
G75*
G02*
X26667865Y-73432135I2J2282546D01*
G01*
X30672865Y-74607135D02*
G75*
G02*
X31672865Y-75607135I1J-999999D01*
G01*
X31672865Y-78257135D02*
G75*
G02*
X30672865Y-79257135I-999999J-1D01*
G01*
D11*
%TO.C,DI1*%
X70500708Y-45932135D02*
X70699146Y-45932135D01*
X70699146Y-46527449D02*
X72286650Y-46527449D01*
X70699146Y-45336821D02*
X70699146Y-46527449D01*
X71096022Y-46527449D02*
X71096022Y-45336821D01*
X72286650Y-46527449D02*
X72286650Y-45336821D01*
X72286650Y-45932135D02*
X72485088Y-45932135D01*
X72286650Y-45336821D02*
X70699146Y-45336821D01*
%TO.C,D27*%
X70400708Y-69032135D02*
X70599146Y-69032135D01*
X70599146Y-69627449D02*
X72186650Y-69627449D01*
X70599146Y-68436821D02*
X70599146Y-69627449D01*
X70996022Y-69627449D02*
X70996022Y-68436821D01*
X72186650Y-69627449D02*
X72186650Y-68436821D01*
X72186650Y-69032135D02*
X72385088Y-69032135D01*
X72186650Y-68436821D02*
X70599146Y-68436821D01*
%TO.C,D10*%
X66135022Y-79882135D02*
X65936584Y-79882135D01*
X65936584Y-79286821D02*
X64349080Y-79286821D01*
X65936584Y-80477449D02*
X65936584Y-79286821D01*
X65539708Y-79286821D02*
X65539708Y-80477449D01*
X64349080Y-79286821D02*
X64349080Y-80477449D01*
X64349080Y-79882135D02*
X64150642Y-79882135D01*
X64349080Y-80477449D02*
X65936584Y-80477449D01*
%TO.C,D16*%
X78853808Y-84041535D02*
X79052246Y-84041535D01*
X79052246Y-84636849D02*
X80639750Y-84636849D01*
X79052246Y-83446221D02*
X79052246Y-84636849D01*
X79449122Y-84636849D02*
X79449122Y-83446221D01*
X80639750Y-84636849D02*
X80639750Y-83446221D01*
X80639750Y-84041535D02*
X80838188Y-84041535D01*
X80639750Y-83446221D02*
X79052246Y-83446221D01*
%TO.C,DI6*%
X70500708Y-42882135D02*
X70699146Y-42882135D01*
X70699146Y-43477449D02*
X72286650Y-43477449D01*
X70699146Y-42286821D02*
X70699146Y-43477449D01*
X71096022Y-43477449D02*
X71096022Y-42286821D01*
X72286650Y-43477449D02*
X72286650Y-42286821D01*
X72286650Y-42882135D02*
X72485088Y-42882135D01*
X72286650Y-42286821D02*
X70699146Y-42286821D01*
%TO.C,D11*%
X65785022Y-87482135D02*
X65586584Y-87482135D01*
X65586584Y-86886821D02*
X63999080Y-86886821D01*
X65586584Y-88077449D02*
X65586584Y-86886821D01*
X65189708Y-86886821D02*
X65189708Y-88077449D01*
X63999080Y-86886821D02*
X63999080Y-88077449D01*
X63999080Y-87482135D02*
X63800642Y-87482135D01*
X63999080Y-88077449D02*
X65586584Y-88077449D01*
%TO.C,D1*%
X28935022Y-85082135D02*
X28736584Y-85082135D01*
X28736584Y-84486821D02*
X27149080Y-84486821D01*
X28736584Y-85677449D02*
X28736584Y-84486821D01*
X28339708Y-84486821D02*
X28339708Y-85677449D01*
X27149080Y-84486821D02*
X27149080Y-85677449D01*
X27149080Y-85082135D02*
X26950642Y-85082135D01*
X27149080Y-85677449D02*
X28736584Y-85677449D01*
%TO.C,D25*%
X70400708Y-65882135D02*
X70599146Y-65882135D01*
X70599146Y-66477449D02*
X72186650Y-66477449D01*
X70599146Y-65286821D02*
X70599146Y-66477449D01*
X70996022Y-66477449D02*
X70996022Y-65286821D01*
X72186650Y-66477449D02*
X72186650Y-65286821D01*
X72186650Y-65882135D02*
X72385088Y-65882135D01*
X72186650Y-65286821D02*
X70599146Y-65286821D01*
%TO.C,D18*%
X75924108Y-43894635D02*
X76122546Y-43894635D01*
X76122546Y-44489949D02*
X77710050Y-44489949D01*
X76122546Y-43299321D02*
X76122546Y-44489949D01*
X76519422Y-44489949D02*
X76519422Y-43299321D01*
X77710050Y-44489949D02*
X77710050Y-43299321D01*
X77710050Y-43894635D02*
X77908488Y-43894635D01*
X77710050Y-43299321D02*
X76122546Y-43299321D01*
%TO.C,DS6*%
X70450708Y-41282135D02*
X70649146Y-41282135D01*
X70649146Y-41877449D02*
X72236650Y-41877449D01*
X70649146Y-40686821D02*
X70649146Y-41877449D01*
X71046022Y-41877449D02*
X71046022Y-40686821D01*
X72236650Y-41877449D02*
X72236650Y-40686821D01*
X72236650Y-41282135D02*
X72435088Y-41282135D01*
X72236650Y-40686821D02*
X70649146Y-40686821D01*
%TO.C,D15*%
X75900708Y-50032135D02*
X76099146Y-50032135D01*
X76099146Y-50627449D02*
X77686650Y-50627449D01*
X76099146Y-49436821D02*
X76099146Y-50627449D01*
X76496022Y-50627449D02*
X76496022Y-49436821D01*
X77686650Y-50627449D02*
X77686650Y-49436821D01*
X77686650Y-50032135D02*
X77885088Y-50032135D01*
X77686650Y-49436821D02*
X76099146Y-49436821D01*
%TO.C,DI3*%
X70500708Y-49082135D02*
X70699146Y-49082135D01*
X70699146Y-49677449D02*
X72286650Y-49677449D01*
X70699146Y-48486821D02*
X70699146Y-49677449D01*
X71096022Y-49677449D02*
X71096022Y-48486821D01*
X72286650Y-49677449D02*
X72286650Y-48486821D01*
X72286650Y-49082135D02*
X72485088Y-49082135D01*
X72286650Y-48486821D02*
X70699146Y-48486821D01*
%TO.C,D7*%
X32453808Y-86632135D02*
X32652246Y-86632135D01*
X32652246Y-87227449D02*
X34239750Y-87227449D01*
X32652246Y-86036821D02*
X32652246Y-87227449D01*
X33049122Y-87227449D02*
X33049122Y-86036821D01*
X34239750Y-87227449D02*
X34239750Y-86036821D01*
X34239750Y-86632135D02*
X34438188Y-86632135D01*
X34239750Y-86036821D02*
X32652246Y-86036821D01*
%TO.C,DS3*%
X62550708Y-65882135D02*
X62749146Y-65882135D01*
X62749146Y-66477449D02*
X64336650Y-66477449D01*
X62749146Y-65286821D02*
X62749146Y-66477449D01*
X63146022Y-66477449D02*
X63146022Y-65286821D01*
X64336650Y-66477449D02*
X64336650Y-65286821D01*
X64336650Y-65882135D02*
X64535088Y-65882135D01*
X64336650Y-65286821D02*
X62749146Y-65286821D01*
%TO.C,DI2*%
X70500708Y-47532135D02*
X70699146Y-47532135D01*
X70699146Y-48127449D02*
X72286650Y-48127449D01*
X70699146Y-46936821D02*
X70699146Y-48127449D01*
X71096022Y-48127449D02*
X71096022Y-46936821D01*
X72286650Y-48127449D02*
X72286650Y-46936821D01*
X72286650Y-47532135D02*
X72485088Y-47532135D01*
X72286650Y-46936821D02*
X70699146Y-46936821D01*
%TO.C,D13*%
X28935022Y-83432135D02*
X28736584Y-83432135D01*
X28736584Y-82836821D02*
X27149080Y-82836821D01*
X28736584Y-84027449D02*
X28736584Y-82836821D01*
X28339708Y-82836821D02*
X28339708Y-84027449D01*
X27149080Y-82836821D02*
X27149080Y-84027449D01*
X27149080Y-83432135D02*
X26950642Y-83432135D01*
X27149080Y-84027449D02*
X28736584Y-84027449D01*
%TO.C,D21*%
X75924108Y-51494635D02*
X76122546Y-51494635D01*
X76122546Y-52089949D02*
X77710050Y-52089949D01*
X76122546Y-50899321D02*
X76122546Y-52089949D01*
X76519422Y-52089949D02*
X76519422Y-50899321D01*
X77710050Y-52089949D02*
X77710050Y-50899321D01*
X77710050Y-51494635D02*
X77908488Y-51494635D01*
X77710050Y-50899321D02*
X76122546Y-50899321D01*
%TO.C,DS1*%
X92985022Y-50332135D02*
X92786584Y-50332135D01*
X92786584Y-49736821D02*
X91199080Y-49736821D01*
X92786584Y-50927449D02*
X92786584Y-49736821D01*
X92389708Y-49736821D02*
X92389708Y-50927449D01*
X91199080Y-49736821D02*
X91199080Y-50927449D01*
X91199080Y-50332135D02*
X91000642Y-50332135D01*
X91199080Y-50927449D02*
X92786584Y-50927449D01*
%TO.C,D22*%
X78850708Y-85582135D02*
X79049146Y-85582135D01*
X79049146Y-86177449D02*
X80636650Y-86177449D01*
X79049146Y-84986821D02*
X79049146Y-86177449D01*
X79446022Y-86177449D02*
X79446022Y-84986821D01*
X80636650Y-86177449D02*
X80636650Y-84986821D01*
X80636650Y-85582135D02*
X80835088Y-85582135D01*
X80636650Y-84986821D02*
X79049146Y-84986821D01*
%TO.C,D5*%
X32450708Y-83232135D02*
X32649146Y-83232135D01*
X32649146Y-83827449D02*
X34236650Y-83827449D01*
X32649146Y-82636821D02*
X32649146Y-83827449D01*
X33046022Y-83827449D02*
X33046022Y-82636821D01*
X34236650Y-83827449D02*
X34236650Y-82636821D01*
X34236650Y-83232135D02*
X34435088Y-83232135D01*
X34236650Y-82636821D02*
X32649146Y-82636821D01*
%TO.C,D19*%
X75924108Y-45532135D02*
X76122546Y-45532135D01*
X76122546Y-46127449D02*
X77710050Y-46127449D01*
X76122546Y-44936821D02*
X76122546Y-46127449D01*
X76519422Y-46127449D02*
X76519422Y-44936821D01*
X77710050Y-46127449D02*
X77710050Y-44936821D01*
X77710050Y-45532135D02*
X77908488Y-45532135D01*
X77710050Y-44936821D02*
X76122546Y-44936821D01*
%TO.C,D6*%
X32450708Y-84932135D02*
X32649146Y-84932135D01*
X32649146Y-85527449D02*
X34236650Y-85527449D01*
X32649146Y-84336821D02*
X32649146Y-85527449D01*
X33046022Y-85527449D02*
X33046022Y-84336821D01*
X34236650Y-85527449D02*
X34236650Y-84336821D01*
X34236650Y-84932135D02*
X34435088Y-84932135D01*
X34236650Y-84336821D02*
X32649146Y-84336821D01*
%TO.C,D17*%
X78850708Y-87132135D02*
X79049146Y-87132135D01*
X79049146Y-87727449D02*
X80636650Y-87727449D01*
X79049146Y-86536821D02*
X79049146Y-87727449D01*
X79446022Y-87727449D02*
X79446022Y-86536821D01*
X80636650Y-87727449D02*
X80636650Y-86536821D01*
X80636650Y-87132135D02*
X80835088Y-87132135D01*
X80636650Y-86536821D02*
X79049146Y-86536821D01*
%TO.C,D24*%
X70400708Y-64232135D02*
X70599146Y-64232135D01*
X70599146Y-64827449D02*
X72186650Y-64827449D01*
X70599146Y-63636821D02*
X70599146Y-64827449D01*
X70996022Y-64827449D02*
X70996022Y-63636821D01*
X72186650Y-64827449D02*
X72186650Y-63636821D01*
X72186650Y-64232135D02*
X72385088Y-64232135D01*
X72186650Y-63636821D02*
X70599146Y-63636821D01*
%TO.C,D2*%
X28935022Y-86791535D02*
X28736584Y-86791535D01*
X28736584Y-86196221D02*
X27149080Y-86196221D01*
X28736584Y-87386849D02*
X28736584Y-86196221D01*
X28339708Y-86196221D02*
X28339708Y-87386849D01*
X27149080Y-86196221D02*
X27149080Y-87386849D01*
X27149080Y-86791535D02*
X26950642Y-86791535D01*
X27149080Y-87386849D02*
X28736584Y-87386849D01*
%TO.C,D23*%
X72485022Y-44382135D02*
X72286584Y-44382135D01*
X72286584Y-43786821D02*
X70699080Y-43786821D01*
X72286584Y-44977449D02*
X72286584Y-43786821D01*
X71889708Y-43786821D02*
X71889708Y-44977449D01*
X70699080Y-43786821D02*
X70699080Y-44977449D01*
X70699080Y-44382135D02*
X70500642Y-44382135D01*
X70699080Y-44977449D02*
X72286584Y-44977449D01*
%TO.C,DS2*%
X62553808Y-64282135D02*
X62752246Y-64282135D01*
X62752246Y-64877449D02*
X64339750Y-64877449D01*
X62752246Y-63686821D02*
X62752246Y-64877449D01*
X63149122Y-64877449D02*
X63149122Y-63686821D01*
X64339750Y-64877449D02*
X64339750Y-63686821D01*
X64339750Y-64282135D02*
X64538188Y-64282135D01*
X64339750Y-63686821D02*
X62752246Y-63686821D01*
%TO.C,D9*%
X32450708Y-81432135D02*
X32649146Y-81432135D01*
X32649146Y-82027449D02*
X34236650Y-82027449D01*
X32649146Y-80836821D02*
X32649146Y-82027449D01*
X33046022Y-82027449D02*
X33046022Y-80836821D01*
X34236650Y-82027449D02*
X34236650Y-80836821D01*
X34236650Y-81432135D02*
X34435088Y-81432135D01*
X34236650Y-80836821D02*
X32649146Y-80836821D01*
%TO.C,D20*%
X75924108Y-48582135D02*
X76122546Y-48582135D01*
X76122546Y-49177449D02*
X77710050Y-49177449D01*
X76122546Y-47986821D02*
X76122546Y-49177449D01*
X76519422Y-49177449D02*
X76519422Y-47986821D01*
X77710050Y-49177449D02*
X77710050Y-47986821D01*
X77710050Y-48582135D02*
X77908488Y-48582135D01*
X77710050Y-47986821D02*
X76122546Y-47986821D01*
%TO.C,D14*%
X75900708Y-47082135D02*
X76099146Y-47082135D01*
X76099146Y-47677449D02*
X77686650Y-47677449D01*
X76099146Y-46486821D02*
X76099146Y-47677449D01*
X76496022Y-47677449D02*
X76496022Y-46486821D01*
X77686650Y-47677449D02*
X77686650Y-46486821D01*
X77686650Y-47082135D02*
X77885088Y-47082135D01*
X77686650Y-46486821D02*
X76099146Y-46486821D01*
%TO.C,DS4*%
X62550708Y-67482135D02*
X62749146Y-67482135D01*
X62749146Y-68077449D02*
X64336650Y-68077449D01*
X62749146Y-66886821D02*
X62749146Y-68077449D01*
X63146022Y-68077449D02*
X63146022Y-66886821D01*
X64336650Y-68077449D02*
X64336650Y-66886821D01*
X64336650Y-67482135D02*
X64535088Y-67482135D01*
X64336650Y-66886821D02*
X62749146Y-66886821D01*
%TO.C,D26*%
X70400708Y-67482135D02*
X70599146Y-67482135D01*
X70599146Y-68077449D02*
X72186650Y-68077449D01*
X70599146Y-66886821D02*
X70599146Y-68077449D01*
X70996022Y-68077449D02*
X70996022Y-66886821D01*
X72186650Y-68077449D02*
X72186650Y-66886821D01*
X72186650Y-67482135D02*
X72385088Y-67482135D01*
X72186650Y-66886821D02*
X70599146Y-66886821D01*
%TO.C,DS5*%
X83108522Y-57482135D02*
X82910084Y-57482135D01*
X82910084Y-56886821D02*
X81322580Y-56886821D01*
X82910084Y-58077449D02*
X82910084Y-56886821D01*
X82513208Y-56886821D02*
X82513208Y-58077449D01*
X81322580Y-56886821D02*
X81322580Y-58077449D01*
X81322580Y-57482135D02*
X81124142Y-57482135D01*
X81322580Y-58077449D02*
X82910084Y-58077449D01*
%TO.C,DI5*%
X70450708Y-52182135D02*
X70649146Y-52182135D01*
X70649146Y-52777449D02*
X72236650Y-52777449D01*
X70649146Y-51586821D02*
X70649146Y-52777449D01*
X71046022Y-52777449D02*
X71046022Y-51586821D01*
X72236650Y-52777449D02*
X72236650Y-51586821D01*
X72236650Y-52182135D02*
X72435088Y-52182135D01*
X72236650Y-51586821D02*
X70649146Y-51586821D01*
%TO.C,DI4*%
X70450708Y-50632135D02*
X70649146Y-50632135D01*
X70649146Y-51227449D02*
X72236650Y-51227449D01*
X70649146Y-50036821D02*
X70649146Y-51227449D01*
X71046022Y-51227449D02*
X71046022Y-50036821D01*
X72236650Y-51227449D02*
X72236650Y-50036821D01*
X72236650Y-50632135D02*
X72435088Y-50632135D01*
X72236650Y-50036821D02*
X70649146Y-50036821D01*
%TD*%
%LPC*%
D13*
%TO.C,D3*%
X26217840Y-88482135D03*
X29667840Y-88482135D03*
%TD*%
D14*
%TO.C,SW3*%
X100767865Y-91132135D03*
X100767865Y-96132135D03*
X100767865Y-93632135D03*
%TD*%
D15*
%TO.C,SW11*%
X46367865Y-85732135D03*
D16*
X41367865Y-89432135D03*
D15*
X41367865Y-83532135D03*
D17*
X49717865Y-85682135D03*
D18*
X37892865Y-83557135D03*
%TD*%
D15*
%TO.C,SW5*%
X29367865Y-59932135D03*
D16*
X24367865Y-63632135D03*
D15*
X24367865Y-57732135D03*
D17*
X32717865Y-59882135D03*
D18*
X20892865Y-57757135D03*
%TD*%
D15*
%TO.C,SW21*%
X70367865Y-93132135D03*
D16*
X75367865Y-89432135D03*
D15*
X75367865Y-95332135D03*
D17*
X67017865Y-93182135D03*
D18*
X78842865Y-95307135D03*
%TD*%
D15*
%TO.C,SW23*%
X87355365Y-44507135D03*
D16*
X92355365Y-40807135D03*
D15*
X92355365Y-46707135D03*
D17*
X84005365Y-44557135D03*
D18*
X95830365Y-46682135D03*
%TD*%
D15*
%TO.C,SW7*%
X29367865Y-93932135D03*
D16*
X24367865Y-97632135D03*
D15*
X24367865Y-91732135D03*
D17*
X32717865Y-93882135D03*
D18*
X20892865Y-91757135D03*
%TD*%
D15*
%TO.C,SW28*%
X104367865Y-50332135D03*
D16*
X109367865Y-46632135D03*
D15*
X109367865Y-52532135D03*
D17*
X101017865Y-50382135D03*
D18*
X112842865Y-52507135D03*
%TD*%
D15*
%TO.C,SW20*%
X70367865Y-76132135D03*
D16*
X75367865Y-72432135D03*
D15*
X75367865Y-78332135D03*
D17*
X67017865Y-76182135D03*
D18*
X78842865Y-78307135D03*
%TD*%
D19*
%TO.C,J18*%
X32882865Y-66137135D03*
D20*
X32882865Y-68677135D03*
X32882865Y-71217135D03*
X32882865Y-73757135D03*
%TD*%
D15*
%TO.C,SW27*%
X53367865Y-39032135D03*
D16*
X58367865Y-35332135D03*
D15*
X58367865Y-41232135D03*
D17*
X50017865Y-39082135D03*
D18*
X61842865Y-41207135D03*
%TD*%
D15*
%TO.C,SW15*%
X53367865Y-90032135D03*
D16*
X58367865Y-86332135D03*
D15*
X58367865Y-92232135D03*
D17*
X50017865Y-90082135D03*
D18*
X61842865Y-92207135D03*
%TD*%
D21*
%TO.C,Hole2*%
X84067865Y-66832135D03*
%TD*%
D15*
%TO.C,SW13*%
X53367865Y-56032135D03*
D16*
X58367865Y-52332135D03*
D15*
X58367865Y-58232135D03*
D17*
X50017865Y-56082135D03*
D18*
X61842865Y-58207135D03*
%TD*%
D15*
%TO.C,SW30*%
X104367865Y-84332135D03*
D16*
X109367865Y-80632135D03*
D15*
X109367865Y-86532135D03*
D17*
X101017865Y-84382135D03*
D18*
X112842865Y-86507135D03*
%TD*%
D19*
%TO.C,Con_L_6*%
X100867865Y-54692135D03*
D20*
X100867865Y-57232135D03*
X100867865Y-59772135D03*
X100867865Y-62312135D03*
%TD*%
D21*
%TO.C,Hole0*%
X32367865Y-55132135D03*
%TD*%
D15*
%TO.C,SW14*%
X53367865Y-73032135D03*
D16*
X58367865Y-69332135D03*
D15*
X58367865Y-75232135D03*
D17*
X50017865Y-73082135D03*
D18*
X61842865Y-75207135D03*
%TD*%
D15*
%TO.C,SW31*%
X105667865Y-92632135D03*
D16*
X109367865Y-97632135D03*
D15*
X103467865Y-97632135D03*
D22*
X105617865Y-89282135D03*
D23*
X103492865Y-101107135D03*
%TD*%
D15*
%TO.C,SW9*%
X46367865Y-51732135D03*
D16*
X41367865Y-55432135D03*
D15*
X41367865Y-49532135D03*
D17*
X49717865Y-51682135D03*
D18*
X37892865Y-49557135D03*
%TD*%
D15*
%TO.C,SW17*%
X29367865Y-42932135D03*
D16*
X24367865Y-46632135D03*
D15*
X24367865Y-40732135D03*
D17*
X32717865Y-42882135D03*
D18*
X20892865Y-40757135D03*
%TD*%
D15*
%TO.C,SW29*%
X104367865Y-67332135D03*
D16*
X109367865Y-63632135D03*
D15*
X109367865Y-69532135D03*
D17*
X101017865Y-67382135D03*
D18*
X112842865Y-69507135D03*
%TD*%
D15*
%TO.C,SW18*%
X80367865Y-34732135D03*
D16*
X75367865Y-38432135D03*
D15*
X75367865Y-32532135D03*
D17*
X83717865Y-34682135D03*
D18*
X71892865Y-32557135D03*
%TD*%
D15*
%TO.C,SW22*%
X46367865Y-34732135D03*
D16*
X41367865Y-38432135D03*
D15*
X41367865Y-32532135D03*
D17*
X49717865Y-34682135D03*
D18*
X37892865Y-32557135D03*
%TD*%
D15*
%TO.C,SW19*%
X70367865Y-59132135D03*
D16*
X75367865Y-55432135D03*
D15*
X75367865Y-61332135D03*
D17*
X67017865Y-59182135D03*
D18*
X78842865Y-61307135D03*
%TD*%
D19*
%TO.C,Con_L_4*%
X100882865Y-39637135D03*
D20*
X100882865Y-42177135D03*
X100882865Y-44717135D03*
X100882865Y-47257135D03*
%TD*%
D15*
%TO.C,SW24*%
X87367865Y-61532135D03*
D16*
X92367865Y-57832135D03*
D15*
X92367865Y-63732135D03*
D17*
X84017865Y-61582135D03*
D18*
X95842865Y-63707135D03*
%TD*%
D21*
%TO.C,Hole1*%
X32467865Y-89132135D03*
%TD*%
D19*
%TO.C,Con_L_0*%
X66867865Y-31492135D03*
D20*
X66867865Y-34032135D03*
X66867865Y-36572135D03*
X66867865Y-39112135D03*
%TD*%
D15*
%TO.C,SW25*%
X87367865Y-78532135D03*
D16*
X92367865Y-74832135D03*
D15*
X92367865Y-80732135D03*
D17*
X84017865Y-78582135D03*
D18*
X95842865Y-80707135D03*
%TD*%
D21*
%TO.C,Hole3*%
X84197865Y-83242135D03*
%TD*%
D15*
%TO.C,SW10*%
X46367865Y-68732135D03*
D16*
X41367865Y-72432135D03*
D15*
X41367865Y-66532135D03*
D17*
X49717865Y-68682135D03*
D18*
X37892865Y-66557135D03*
%TD*%
D15*
%TO.C,SW26*%
X88667865Y-86832135D03*
D16*
X92367865Y-91832135D03*
D15*
X86467865Y-91832135D03*
D22*
X88617865Y-83482135D03*
D23*
X86492865Y-95307135D03*
%TD*%
D19*
%TO.C,Con_L_2*%
X66867865Y-46637135D03*
D20*
X66867865Y-49177135D03*
X66867865Y-51717135D03*
X66867865Y-54257135D03*
%TD*%
D15*
%TO.C,SW6*%
X29367865Y-76932135D03*
D16*
X24367865Y-80632135D03*
D15*
X24367865Y-74732135D03*
D17*
X32717865Y-76882135D03*
D18*
X20892865Y-74757135D03*
%TD*%
D13*
%TO.C,DI1*%
X69767890Y-45932135D03*
X73217890Y-45932135D03*
%TD*%
%TO.C,D27*%
X69667890Y-69032135D03*
X73117890Y-69032135D03*
%TD*%
%TO.C,D10*%
X66867840Y-79882135D03*
X63417840Y-79882135D03*
%TD*%
%TO.C,D16*%
X78120990Y-84041535D03*
X81570990Y-84041535D03*
%TD*%
%TO.C,DI6*%
X69767890Y-42882135D03*
X73217890Y-42882135D03*
%TD*%
%TO.C,D11*%
X66517840Y-87482135D03*
X63067840Y-87482135D03*
%TD*%
%TO.C,D1*%
X29667840Y-85082135D03*
X26217840Y-85082135D03*
%TD*%
%TO.C,D25*%
X69667890Y-65882135D03*
X73117890Y-65882135D03*
%TD*%
%TO.C,D18*%
X75191290Y-43894635D03*
X78641290Y-43894635D03*
%TD*%
%TO.C,DS6*%
X69717890Y-41282135D03*
X73167890Y-41282135D03*
%TD*%
%TO.C,D15*%
X75167890Y-50032135D03*
X78617890Y-50032135D03*
%TD*%
%TO.C,DI3*%
X69767890Y-49082135D03*
X73217890Y-49082135D03*
%TD*%
%TO.C,D7*%
X31720990Y-86632135D03*
X35170990Y-86632135D03*
%TD*%
%TO.C,DS3*%
X61817890Y-65882135D03*
X65267890Y-65882135D03*
%TD*%
%TO.C,DI2*%
X69767890Y-47532135D03*
X73217890Y-47532135D03*
%TD*%
%TO.C,D13*%
X29667840Y-83432135D03*
X26217840Y-83432135D03*
%TD*%
%TO.C,D21*%
X75191290Y-51494635D03*
X78641290Y-51494635D03*
%TD*%
%TO.C,DS1*%
X93717840Y-50332135D03*
X90267840Y-50332135D03*
%TD*%
%TO.C,D22*%
X78117890Y-85582135D03*
X81567890Y-85582135D03*
%TD*%
%TO.C,D5*%
X31717890Y-83232135D03*
X35167890Y-83232135D03*
%TD*%
%TO.C,D19*%
X75191290Y-45532135D03*
X78641290Y-45532135D03*
%TD*%
%TO.C,D6*%
X31717890Y-84932135D03*
X35167890Y-84932135D03*
%TD*%
%TO.C,D17*%
X78117890Y-87132135D03*
X81567890Y-87132135D03*
%TD*%
%TO.C,D24*%
X69667890Y-64232135D03*
X73117890Y-64232135D03*
%TD*%
%TO.C,D2*%
X29667840Y-86791535D03*
X26217840Y-86791535D03*
%TD*%
%TO.C,D23*%
X73217840Y-44382135D03*
X69767840Y-44382135D03*
%TD*%
%TO.C,DS2*%
X61820990Y-64282135D03*
X65270990Y-64282135D03*
%TD*%
%TO.C,D9*%
X31717890Y-81432135D03*
X35167890Y-81432135D03*
%TD*%
%TO.C,D20*%
X75191290Y-48582135D03*
X78641290Y-48582135D03*
%TD*%
%TO.C,D14*%
X75167890Y-47082135D03*
X78617890Y-47082135D03*
%TD*%
%TO.C,DS4*%
X61817890Y-67482135D03*
X65267890Y-67482135D03*
%TD*%
%TO.C,D26*%
X69667890Y-67482135D03*
X73117890Y-67482135D03*
%TD*%
%TO.C,DS5*%
X83841340Y-57482135D03*
X80391340Y-57482135D03*
%TD*%
%TO.C,DI5*%
X69717890Y-52182135D03*
X73167890Y-52182135D03*
%TD*%
%TO.C,DI4*%
X69717890Y-50632135D03*
X73167890Y-50632135D03*
%TD*%
D24*
X99932865Y-52286335D03*
X71574665Y-52105535D03*
X68764965Y-36572135D03*
X53317865Y-34732135D03*
X66867865Y-43105235D03*
X81915265Y-43105235D03*
X63705765Y-67988535D03*
X32717865Y-46182135D03*
X81315265Y-45758835D03*
X67016265Y-67988535D03*
X54656665Y-69875735D03*
X50017865Y-70709535D03*
X54656665Y-65350635D03*
X51949665Y-65350635D03*
X62927965Y-65350635D03*
X49717865Y-63934135D03*
X60450465Y-63934135D03*
X34216965Y-63934135D03*
X93717865Y-49340935D03*
X34090165Y-46972535D03*
X79078465Y-82274335D03*
X81983265Y-45081935D03*
X72176365Y-45157135D03*
X81138465Y-81966735D03*
X71861065Y-66354135D03*
X79442865Y-57982135D03*
X34616665Y-69213535D03*
X73219465Y-57932135D03*
X43431365Y-69213535D03*
X43431365Y-65952435D03*
X31086265Y-78802435D03*
X67373065Y-44042235D03*
X34537365Y-78802435D03*
X67477865Y-42338335D03*
X35500965Y-44042235D03*
X88551265Y-41900235D03*
X75190865Y-42265635D03*
X65111965Y-80299435D03*
X81878065Y-63597735D03*
X71373165Y-63597735D03*
X32907065Y-82500135D03*
X82691365Y-51569835D03*
X76294665Y-51498235D03*
X44086365Y-86730435D03*
X44086365Y-66604235D03*
X30729980Y-85845506D03*
X67338965Y-66604235D03*
X71607965Y-52931235D03*
X30797965Y-80028835D03*
X77455565Y-52714135D03*
X65817865Y-78332135D03*
X64367865Y-78282135D03*
X77485265Y-70136735D03*
X112842865Y-72732435D03*
X74691308Y-59320835D03*
X111817365Y-60923835D03*
X74610212Y-68958736D03*
X99602765Y-69563035D03*
X105654065Y-69133835D03*
X74550000Y-68050000D03*
X61842865Y-44779235D03*
X68679565Y-44332135D03*
X86982965Y-49177135D03*
X94467865Y-85432135D03*
X71926765Y-41052935D03*
X81689465Y-50197335D03*
X97627765Y-50197335D03*
X97217865Y-94982135D03*
X80682165Y-40313035D03*
X98167865Y-92432135D03*
X78224765Y-57366935D03*
X87658265Y-57366935D03*
X95842865Y-70796635D03*
X89021965Y-70796635D03*
X95842865Y-53183835D03*
X81528265Y-53183835D03*
X95830365Y-48649035D03*
X79916665Y-46824735D03*
X78698465Y-41663935D03*
X37892865Y-43220435D03*
X55465465Y-79068235D03*
X35985165Y-79068235D03*
%LPD*%
M02*
