M48
; DRILL file {KiCad 9.0.0} date 2025-04-19T15:24:46+0900
; FORMAT={-:-/ absolute / inch / decimal}
; #@! TF.CreationDate,2025-04-19T15:24:46+09:00
; #@! TF.GenerationSoftware,Kicad,Pcbnew,9.0.0
; #@! TF.FileFunction,Plated,1,2,PTH
FMAT,2
INCH
; #@! TA.AperFunction,Plated,PTH,ViaDrill
T1C0.0118
; #@! TA.AperFunction,Plated,PTH,ComponentDrill
T2C0.0394
%
G90
G05
T1
X1.2098Y-3.3797
X1.2125Y-3.1507
X1.2239Y-3.1025
X1.2881Y-1.8182
X1.2956Y-3.248
X1.3421Y-1.8493
X1.3471Y-2.5171
X1.3597Y-3.1025
X1.3629Y-2.7249
X1.3977Y-1.7339
X1.4167Y-3.1129
X1.4918Y-1.7016
X1.7099Y-2.5966
X1.7099Y-2.7249
X1.7357Y-2.6222
X1.7357Y-3.4146
X1.9574Y-2.5171
X1.9692Y-2.7838
X2.0453Y-2.5729
X2.0991Y-1.3674
X2.1518Y-2.5729
X2.1518Y-2.751
X2.1837Y-3.1129
X2.3799Y-2.5171
X2.4348Y-1.763
X2.4775Y-2.5729
X2.5081Y-2.6767
X2.5342Y-3.082
X2.5635Y-3.1614
X2.5913Y-3.0839
X2.6326Y-1.6971
X2.6384Y-2.6767
X2.6511Y-2.6222
X2.6525Y-1.7339
X2.6566Y-1.6669
X2.7039Y-1.7454
X2.7073Y-1.4398
X2.81Y-2.5038
X2.8179Y-2.0514
X2.8192Y-2.0839
X2.8292Y-2.6124
X2.8318Y-1.6163
X2.8416Y-1.7778
X2.8827Y-2.2808
X2.935Y-2.6791
X2.9374Y-2.7149
X2.9406Y-2.3355
X2.9603Y-1.664
X3.0037Y-2.0275
X3.0494Y-2.0754
X3.0506Y-2.7613
X3.0797Y-2.2585
X3.0984Y-1.6403
X3.1133Y-3.2391
X3.1277Y-2.2828
X3.1463Y-1.8435
X3.1765Y-1.5871
X3.1944Y-3.227
X3.2014Y-1.8015
X3.2098Y-2.0939
X3.2161Y-1.9763
X3.2235Y-2.5038
X3.225Y-1.6971
X3.2277Y-1.7749
X3.2556Y-2.0303
X3.4245Y-1.9361
X3.4511Y-2.2585
X3.4863Y-1.6496
X3.5048Y-2.7873
X3.6897Y-1.9426
X3.7192Y-3.3635
X3.7728Y-1.9153
X3.7733Y-2.0939
X3.7733Y-2.7873
X3.8275Y-3.7395
X3.8436Y-1.9763
X3.8649Y-3.6391
X3.9214Y-2.7387
X3.9344Y-2.0585
X4.1596Y-2.7218
X4.4023Y-2.3986
X4.4426Y-2.8635
T2
X1.2946Y-2.6038
X1.2946Y-2.7038
X1.2946Y-2.8038
X1.2946Y-2.9038
X2.6326Y-1.2398
X2.6326Y-1.3398
X2.6326Y-1.4398
X2.6326Y-1.5398
X2.6326Y-1.8361
X2.6326Y-1.9361
X2.6326Y-2.0361
X2.6326Y-2.1361
X3.9672Y-3.5879
X3.9672Y-3.6863
X3.9672Y-3.7847
X3.9712Y-2.1532
X3.9712Y-2.2532
X3.9712Y-2.3532
X3.9712Y-2.4532
X3.9718Y-1.5605
X3.9718Y-1.6605
X3.9718Y-1.7605
X3.9718Y-1.8605
M30
