M48
; DRILL file {KiCad 9.0.0} date 2025-04-19T15:24:46+0900
; FORMAT={-:-/ absolute / inch / decimal}
; #@! TF.CreationDate,2025-04-19T15:24:46+09:00
; #@! TF.GenerationSoftware,Kicad,Pcbnew,9.0.0
; #@! TF.FileFunction,NonPlated,1,2,NPTH
FMAT,2
INCH
; #@! TA.AperFunction,NonPlated,NPTH,ComponentDrill
T1C0.0866
; #@! TA.AperFunction,NonPlated,NPTH,ComponentDrill
T2C0.1181
; #@! TA.AperFunction,NonPlated,NPTH,ComponentDrill
T3C0.1890
%
G90
G05
T1
X1.2743Y-2.1706
X1.2783Y-3.5091
X3.3098Y-2.6312
X3.3149Y-3.2772
T2
X0.9594Y-1.6036
X0.9594Y-2.2729
X0.9594Y-2.9422
X0.9594Y-3.6115
X1.1562Y-1.6902
X1.1562Y-2.3595
X1.1562Y-3.0288
X1.1562Y-3.6981
X1.6287Y-1.2808
X1.6287Y-1.9501
X1.6287Y-2.6194
X1.6287Y-3.2887
X1.8255Y-1.3674
X1.8255Y-2.0367
X1.8255Y-2.706
X1.8255Y-3.3753
X2.1011Y-1.5367
X2.1011Y-2.206
X2.1011Y-2.8753
X2.1011Y-3.5446
X2.2979Y-1.6233
X2.2979Y-2.2926
X2.2979Y-2.9619
X2.2979Y-3.6312
X2.7704Y-2.328
X2.7704Y-2.9973
X2.7704Y-3.6666
X2.9672Y-1.2808
X2.9672Y-2.4147
X2.9672Y-3.0839
X2.9672Y-3.7532
X3.1641Y-1.3674
X3.4042Y-3.6154
X3.4392Y-1.7522
X3.4397Y-2.4225
X3.4397Y-3.0918
X3.4909Y-3.4186
X3.636Y-1.8389
X3.6365Y-2.5091
X3.6365Y-3.1784
X4.0735Y-3.8438
X4.109Y-1.9816
X4.109Y-2.6509
X4.109Y-3.3202
X4.1602Y-3.6469
X4.3058Y-2.0682
X4.3058Y-2.7375
X4.3058Y-3.4068
T3
X0.9594Y-1.8359
X0.9594Y-2.5052
X0.9594Y-3.1745
X0.9594Y-3.8438
X1.6287Y-1.5131
X1.6287Y-2.1824
X1.6287Y-2.8517
X1.6287Y-3.521
X2.2979Y-1.391
X2.2979Y-2.0603
X2.2979Y-2.7296
X2.2979Y-3.3989
X2.9672Y-1.5131
X2.9672Y-2.1824
X2.9672Y-2.8517
X2.9672Y-3.521
X3.636Y-1.6066
X3.6365Y-2.2769
X3.6365Y-2.9461
X3.6365Y-3.6154
X4.3058Y-1.8359
X4.3058Y-2.5052
X4.3058Y-3.1745
X4.3058Y-3.8438
M30
