G04 #@! TF.GenerationSoftware,KiCad,Pcbnew,9.0.0*
G04 #@! TF.CreationDate,2025-04-19T15:23:07+09:00*
G04 #@! TF.ProjectId,nofy_V2_L,6e6f6679-5f56-4325-9f4c-2e6b69636164,rev?*
G04 #@! TF.SameCoordinates,Original*
G04 #@! TF.FileFunction,Soldermask,Top*
G04 #@! TF.FilePolarity,Negative*
%FSLAX46Y46*%
G04 Gerber Fmt 4.6, Leading zero omitted, Abs format (unit mm)*
G04 Created by KiCad (PCBNEW 9.0.0) date 2025-04-19 15:23:07*
%MOMM*%
%LPD*%
G01*
G04 APERTURE LIST*
%ADD10C,2.000000*%
%ADD11C,3.000000*%
%ADD12C,4.800000*%
%ADD13C,1.700000*%
%ADD14O,1.700000X1.700000*%
%ADD15C,2.200000*%
%ADD16C,0.600000*%
G04 APERTURE END LIST*
D10*
X100767865Y-91132135D03*
X100767865Y-96132135D03*
X100767865Y-93632135D03*
D11*
X46367865Y-85732135D03*
D12*
X41367865Y-89432135D03*
D11*
X41367865Y-83532135D03*
X29367865Y-59932135D03*
D12*
X24367865Y-63632135D03*
D11*
X24367865Y-57732135D03*
X70367865Y-93132135D03*
D12*
X75367865Y-89432135D03*
D11*
X75367865Y-95332135D03*
X87355365Y-44507135D03*
D12*
X92355365Y-40807135D03*
D11*
X92355365Y-46707135D03*
X29367865Y-93932135D03*
D12*
X24367865Y-97632135D03*
D11*
X24367865Y-91732135D03*
X104367865Y-50332135D03*
D12*
X109367865Y-46632135D03*
D11*
X109367865Y-52532135D03*
X70367865Y-76132135D03*
D12*
X75367865Y-72432135D03*
D11*
X75367865Y-78332135D03*
D13*
X32882865Y-66137135D03*
D14*
X32882865Y-68677135D03*
X32882865Y-71217135D03*
X32882865Y-73757135D03*
D11*
X53367865Y-39032135D03*
D12*
X58367865Y-35332135D03*
D11*
X58367865Y-41232135D03*
X53367865Y-90032135D03*
D12*
X58367865Y-86332135D03*
D11*
X58367865Y-92232135D03*
D15*
X84067865Y-66832135D03*
D11*
X53367865Y-56032135D03*
D12*
X58367865Y-52332135D03*
D11*
X58367865Y-58232135D03*
X104367865Y-84332135D03*
D12*
X109367865Y-80632135D03*
D11*
X109367865Y-86532135D03*
D13*
X100867865Y-54692135D03*
D14*
X100867865Y-57232135D03*
X100867865Y-59772135D03*
X100867865Y-62312135D03*
D15*
X32367865Y-55132135D03*
D11*
X53367865Y-73032135D03*
D12*
X58367865Y-69332135D03*
D11*
X58367865Y-75232135D03*
X105667865Y-92632135D03*
D12*
X109367865Y-97632135D03*
D11*
X103467865Y-97632135D03*
X46367865Y-51732135D03*
D12*
X41367865Y-55432135D03*
D11*
X41367865Y-49532135D03*
X29367865Y-42932135D03*
D12*
X24367865Y-46632135D03*
D11*
X24367865Y-40732135D03*
X104367865Y-67332135D03*
D12*
X109367865Y-63632135D03*
D11*
X109367865Y-69532135D03*
X80367865Y-34732135D03*
D12*
X75367865Y-38432135D03*
D11*
X75367865Y-32532135D03*
X46367865Y-34732135D03*
D12*
X41367865Y-38432135D03*
D11*
X41367865Y-32532135D03*
X70367865Y-59132135D03*
D12*
X75367865Y-55432135D03*
D11*
X75367865Y-61332135D03*
D13*
X100882865Y-39637135D03*
D14*
X100882865Y-42177135D03*
X100882865Y-44717135D03*
X100882865Y-47257135D03*
D11*
X87367865Y-61532135D03*
D12*
X92367865Y-57832135D03*
D11*
X92367865Y-63732135D03*
D15*
X32467865Y-89132135D03*
D13*
X66867865Y-31492135D03*
D14*
X66867865Y-34032135D03*
X66867865Y-36572135D03*
X66867865Y-39112135D03*
D11*
X87367865Y-78532135D03*
D12*
X92367865Y-74832135D03*
D11*
X92367865Y-80732135D03*
D15*
X84197865Y-83242135D03*
D11*
X46367865Y-68732135D03*
D12*
X41367865Y-72432135D03*
D11*
X41367865Y-66532135D03*
X88667865Y-86832135D03*
D12*
X92367865Y-91832135D03*
D11*
X86467865Y-91832135D03*
D13*
X66867865Y-46637135D03*
D14*
X66867865Y-49177135D03*
X66867865Y-51717135D03*
X66867865Y-54257135D03*
D11*
X29367865Y-76932135D03*
D12*
X24367865Y-80632135D03*
D11*
X24367865Y-74732135D03*
D16*
X99932865Y-52286335D03*
X71574665Y-52105535D03*
X68764965Y-36572135D03*
X53317865Y-34732135D03*
X66867865Y-43105235D03*
X81915265Y-43105235D03*
X63705765Y-67988535D03*
X32717865Y-46182135D03*
X81315265Y-45758835D03*
X67016265Y-67988535D03*
X54656665Y-69875735D03*
X50017865Y-70709535D03*
X54656665Y-65350635D03*
X51949665Y-65350635D03*
X62927965Y-65350635D03*
X49717865Y-63934135D03*
X60450465Y-63934135D03*
X34216965Y-63934135D03*
X93717865Y-49340935D03*
X34090165Y-46972535D03*
X79078465Y-82274335D03*
X81983265Y-45081935D03*
X72176365Y-45157135D03*
X81138465Y-81966735D03*
X71861065Y-66354135D03*
X79442865Y-57982135D03*
X34616665Y-69213535D03*
X73219465Y-57932135D03*
X43431365Y-69213535D03*
X43431365Y-65952435D03*
X31086265Y-78802435D03*
X67373065Y-44042235D03*
X34537365Y-78802435D03*
X67477865Y-42338335D03*
X35500965Y-44042235D03*
X88551265Y-41900235D03*
X75190865Y-42265635D03*
X65111965Y-80299435D03*
X81878065Y-63597735D03*
X71373165Y-63597735D03*
X32907065Y-82500135D03*
X82691365Y-51569835D03*
X76294665Y-51498235D03*
X44086365Y-86730435D03*
X44086365Y-66604235D03*
X30729980Y-85845506D03*
X67338965Y-66604235D03*
X71607965Y-52931235D03*
X30797965Y-80028835D03*
X77455565Y-52714135D03*
X65817865Y-78332135D03*
X64367865Y-78282135D03*
X77485265Y-70136735D03*
X112842865Y-72732435D03*
X74691308Y-59320835D03*
X111817365Y-60923835D03*
X74610212Y-68958736D03*
X99602765Y-69563035D03*
X105654065Y-69133835D03*
X74550000Y-68050000D03*
X61842865Y-44779235D03*
X68679565Y-44332135D03*
X86982965Y-49177135D03*
X94467865Y-85432135D03*
X71926765Y-41052935D03*
X81689465Y-50197335D03*
X97627765Y-50197335D03*
X97217865Y-94982135D03*
X80682165Y-40313035D03*
X98167865Y-92432135D03*
X78224765Y-57366935D03*
X87658265Y-57366935D03*
X95842865Y-70796635D03*
X89021965Y-70796635D03*
X95842865Y-53183835D03*
X81528265Y-53183835D03*
X95830365Y-48649035D03*
X79916665Y-46824735D03*
X78698465Y-41663935D03*
X37892865Y-43220435D03*
X55465465Y-79068235D03*
X35985165Y-79068235D03*
M02*
