G04 #@! TF.GenerationSoftware,KiCad,Pcbnew,9.0.0*
G04 #@! TF.CreationDate,2025-04-19T15:23:07+09:00*
G04 #@! TF.ProjectId,nofy_V2_L,6e6f6679-5f56-4325-9f4c-2e6b69636164,rev?*
G04 #@! TF.SameCoordinates,Original*
G04 #@! TF.FileFunction,Copper,L2,Bot*
G04 #@! TF.FilePolarity,Positive*
%FSLAX46Y46*%
G04 Gerber Fmt 4.6, Leading zero omitted, Abs format (unit mm)*
G04 Created by KiCad (PCBNEW 9.0.0) date 2025-04-19 15:23:07*
%MOMM*%
%LPD*%
G01*
G04 APERTURE LIST*
G04 #@! TA.AperFunction,SMDPad,CuDef*
%ADD10R,1.200000X0.950000*%
G04 #@! TD*
G04 #@! TA.AperFunction,ComponentPad*
%ADD11C,2.000000*%
G04 #@! TD*
G04 #@! TA.AperFunction,SMDPad,CuDef*
%ADD12R,3.000000X2.800000*%
G04 #@! TD*
G04 #@! TA.AperFunction,SMDPad,CuDef*
%ADD13R,2.850000X2.750000*%
G04 #@! TD*
G04 #@! TA.AperFunction,ComponentPad*
%ADD14C,1.700000*%
G04 #@! TD*
G04 #@! TA.AperFunction,ComponentPad*
%ADD15O,1.700000X1.700000*%
G04 #@! TD*
G04 #@! TA.AperFunction,SMDPad,CuDef*
%ADD16R,2.800000X3.000000*%
G04 #@! TD*
G04 #@! TA.AperFunction,SMDPad,CuDef*
%ADD17R,2.750000X2.850000*%
G04 #@! TD*
G04 #@! TA.AperFunction,ViaPad*
%ADD18C,0.600000*%
G04 #@! TD*
G04 #@! TA.AperFunction,Conductor*
%ADD19C,0.200000*%
G04 #@! TD*
G04 #@! TA.AperFunction,Conductor*
%ADD20C,0.300000*%
G04 #@! TD*
G04 APERTURE END LIST*
D10*
X26217840Y-88482135D03*
X29667840Y-88482135D03*
D11*
X100767865Y-91132135D03*
X100767865Y-96132135D03*
X100767865Y-93632135D03*
D12*
X49717865Y-85682135D03*
D13*
X37892865Y-83557135D03*
D12*
X32717865Y-59882135D03*
D13*
X20892865Y-57757135D03*
D12*
X67017865Y-93182135D03*
D13*
X78842865Y-95307135D03*
D12*
X84005365Y-44557135D03*
D13*
X95830365Y-46682135D03*
D12*
X32717865Y-93882135D03*
D13*
X20892865Y-91757135D03*
D12*
X101017865Y-50382135D03*
D13*
X112842865Y-52507135D03*
D12*
X67017865Y-76182135D03*
D13*
X78842865Y-78307135D03*
D14*
X32882865Y-66137135D03*
D15*
X32882865Y-68677135D03*
X32882865Y-71217135D03*
X32882865Y-73757135D03*
D12*
X50017865Y-39082135D03*
D13*
X61842865Y-41207135D03*
D12*
X50017865Y-90082135D03*
D13*
X61842865Y-92207135D03*
D12*
X50017865Y-56082135D03*
D13*
X61842865Y-58207135D03*
D12*
X101017865Y-84382135D03*
D13*
X112842865Y-86507135D03*
D14*
X100867865Y-54692135D03*
D15*
X100867865Y-57232135D03*
X100867865Y-59772135D03*
X100867865Y-62312135D03*
D12*
X50017865Y-73082135D03*
D13*
X61842865Y-75207135D03*
D16*
X105617865Y-89282135D03*
D17*
X103492865Y-101107135D03*
D12*
X49717865Y-51682135D03*
D13*
X37892865Y-49557135D03*
D12*
X32717865Y-42882135D03*
D13*
X20892865Y-40757135D03*
D12*
X101017865Y-67382135D03*
D13*
X112842865Y-69507135D03*
D12*
X83717865Y-34682135D03*
D13*
X71892865Y-32557135D03*
D12*
X49717865Y-34682135D03*
D13*
X37892865Y-32557135D03*
D12*
X67017865Y-59182135D03*
D13*
X78842865Y-61307135D03*
D14*
X100882865Y-39637135D03*
D15*
X100882865Y-42177135D03*
X100882865Y-44717135D03*
X100882865Y-47257135D03*
D12*
X84017865Y-61582135D03*
D13*
X95842865Y-63707135D03*
D14*
X66867865Y-31492135D03*
D15*
X66867865Y-34032135D03*
X66867865Y-36572135D03*
X66867865Y-39112135D03*
D12*
X84017865Y-78582135D03*
D13*
X95842865Y-80707135D03*
D12*
X49717865Y-68682135D03*
D13*
X37892865Y-66557135D03*
D16*
X88617865Y-83482135D03*
D17*
X86492865Y-95307135D03*
D14*
X66867865Y-46637135D03*
D15*
X66867865Y-49177135D03*
X66867865Y-51717135D03*
X66867865Y-54257135D03*
D12*
X32717865Y-76882135D03*
D13*
X20892865Y-74757135D03*
D10*
X69767890Y-45932135D03*
X73217890Y-45932135D03*
X69667890Y-69032135D03*
X73117890Y-69032135D03*
X66867840Y-79882135D03*
X63417840Y-79882135D03*
X78120990Y-84041535D03*
X81570990Y-84041535D03*
X69767890Y-42882135D03*
X73217890Y-42882135D03*
X66517840Y-87482135D03*
X63067840Y-87482135D03*
X29667840Y-85082135D03*
X26217840Y-85082135D03*
X69667890Y-65882135D03*
X73117890Y-65882135D03*
X75191290Y-43894635D03*
X78641290Y-43894635D03*
X69717890Y-41282135D03*
X73167890Y-41282135D03*
X75167890Y-50032135D03*
X78617890Y-50032135D03*
X69767890Y-49082135D03*
X73217890Y-49082135D03*
X31720990Y-86632135D03*
X35170990Y-86632135D03*
X61817890Y-65882135D03*
X65267890Y-65882135D03*
X69767890Y-47532135D03*
X73217890Y-47532135D03*
X29667840Y-83432135D03*
X26217840Y-83432135D03*
X75191290Y-51494635D03*
X78641290Y-51494635D03*
X93717840Y-50332135D03*
X90267840Y-50332135D03*
X78117890Y-85582135D03*
X81567890Y-85582135D03*
X31717890Y-83232135D03*
X35167890Y-83232135D03*
X75191290Y-45532135D03*
X78641290Y-45532135D03*
X31717890Y-84932135D03*
X35167890Y-84932135D03*
X78117890Y-87132135D03*
X81567890Y-87132135D03*
X69667890Y-64232135D03*
X73117890Y-64232135D03*
X29667840Y-86791535D03*
X26217840Y-86791535D03*
X73217840Y-44382135D03*
X69767840Y-44382135D03*
X61820990Y-64282135D03*
X65270990Y-64282135D03*
X31717890Y-81432135D03*
X35167890Y-81432135D03*
X75191290Y-48582135D03*
X78641290Y-48582135D03*
X75167890Y-47082135D03*
X78617890Y-47082135D03*
X61817890Y-67482135D03*
X65267890Y-67482135D03*
X69667890Y-67482135D03*
X73117890Y-67482135D03*
X83841340Y-57482135D03*
X80391340Y-57482135D03*
X69717890Y-52182135D03*
X73167890Y-52182135D03*
X69717890Y-50632135D03*
X73167890Y-50632135D03*
D18*
X99932865Y-52286335D03*
X71574665Y-52105535D03*
X68764965Y-36572135D03*
X53317865Y-34732135D03*
X66867865Y-43105235D03*
X81915265Y-43105235D03*
X63705765Y-67988535D03*
X32717865Y-46182135D03*
X81315265Y-45758835D03*
X67016265Y-67988535D03*
X54656665Y-69875735D03*
X50017865Y-70709535D03*
X54656665Y-65350635D03*
X51949665Y-65350635D03*
X62927965Y-65350635D03*
X49717865Y-63934135D03*
X60450465Y-63934135D03*
X34216965Y-63934135D03*
X93717865Y-49340935D03*
X34090165Y-46972535D03*
X79078465Y-82274335D03*
X81983265Y-45081935D03*
X72176365Y-45157135D03*
X81138465Y-81966735D03*
X71861065Y-66354135D03*
X79442865Y-57982135D03*
X34616665Y-69213535D03*
X73219465Y-57932135D03*
X43431365Y-69213535D03*
X43431365Y-65952435D03*
X31086265Y-78802435D03*
X67373065Y-44042235D03*
X34537365Y-78802435D03*
X67477865Y-42338335D03*
X35500965Y-44042235D03*
X88551265Y-41900235D03*
X75190865Y-42265635D03*
X65111965Y-80299435D03*
X81878065Y-63597735D03*
X71373165Y-63597735D03*
X32907065Y-82500135D03*
X82691365Y-51569835D03*
X76294665Y-51498235D03*
X44086365Y-86730435D03*
X44086365Y-66604235D03*
X30729980Y-85845506D03*
X67338965Y-66604235D03*
X71607965Y-52931235D03*
X30797965Y-80028835D03*
X77455565Y-52714135D03*
X65817865Y-78332135D03*
X64367865Y-78282135D03*
X77485265Y-70136735D03*
X112842865Y-72732435D03*
X74691308Y-59320835D03*
X111817365Y-60923835D03*
X74610212Y-68958736D03*
X99602765Y-69563035D03*
X105654065Y-69133835D03*
X74550000Y-68050000D03*
X61842865Y-44779235D03*
X68679565Y-44332135D03*
X86982965Y-49177135D03*
X94467865Y-85432135D03*
X71926765Y-41052935D03*
X81689465Y-50197335D03*
X97627765Y-50197335D03*
X97217865Y-94982135D03*
X80682165Y-40313035D03*
X98167865Y-92432135D03*
X78224765Y-57366935D03*
X87658265Y-57366935D03*
X95842865Y-70796635D03*
X89021965Y-70796635D03*
X95842865Y-53183835D03*
X81528265Y-53183835D03*
X95830365Y-48649035D03*
X79916665Y-46824735D03*
X78698465Y-41663935D03*
X37892865Y-43220435D03*
X55465465Y-79068235D03*
X35985165Y-79068235D03*
D19*
X99932865Y-52286335D02*
X99932865Y-51467135D01*
X69717865Y-41282135D02*
X69717865Y-41670435D01*
X99701065Y-52518135D02*
X99932865Y-52286335D01*
X105617865Y-88982135D02*
X101017865Y-84382135D01*
X56517865Y-32582135D02*
X62877865Y-32582135D01*
X105617865Y-89282135D02*
X105617865Y-88982135D01*
X71574665Y-43162035D02*
X71574665Y-52105535D01*
X101017865Y-67382135D02*
X101017865Y-65680435D01*
X62877865Y-32582135D02*
X66867865Y-36572135D01*
X70083065Y-41670435D02*
X71574665Y-43162035D01*
X68764965Y-40717535D02*
X68764965Y-36572135D01*
X50017865Y-39082135D02*
X56517865Y-32582135D01*
X99701065Y-64363635D02*
X99701065Y-52518135D01*
X101017865Y-65680435D02*
X99701065Y-64363635D01*
X69717865Y-41670435D02*
X68764965Y-40717535D01*
X69717865Y-41670435D02*
X70083065Y-41670435D01*
X99932865Y-51467135D02*
X101017865Y-50382135D01*
X101017865Y-84382135D02*
X101017865Y-67382135D01*
X82553465Y-43105235D02*
X84005365Y-44557135D01*
X84017865Y-78582135D02*
X84017865Y-78882135D01*
X84017865Y-76880435D02*
X85494265Y-75404035D01*
X84017865Y-57658660D02*
X83841340Y-57482135D01*
X81915265Y-43105235D02*
X82553465Y-43105235D01*
X84017865Y-78582135D02*
X84017865Y-76880435D01*
X53267865Y-34682135D02*
X53317865Y-34732135D01*
X84017865Y-61582135D02*
X84017865Y-63283835D01*
X85494265Y-64760235D02*
X84017865Y-63283835D01*
X84017865Y-61582135D02*
X84017865Y-57658660D01*
X84005365Y-57318110D02*
X84005365Y-44557135D01*
X49717865Y-34682135D02*
X53267865Y-34682135D01*
X84017865Y-78882135D02*
X88617865Y-83482135D01*
X85494265Y-75404035D02*
X85494265Y-64760235D01*
X66867865Y-39112135D02*
X66867865Y-43105235D01*
X83841340Y-57482135D02*
X84005365Y-57318110D01*
X32717865Y-42882135D02*
X32717865Y-46182135D01*
X67017865Y-59182135D02*
X67017865Y-58331235D01*
X64224265Y-64704935D02*
X63564365Y-65364835D01*
X62015065Y-67482135D02*
X61817865Y-67482135D01*
X67017865Y-58331235D02*
X67018765Y-58331235D01*
X67017865Y-60907735D02*
X64224265Y-63701335D01*
X63564365Y-65932835D02*
X62791765Y-66705435D01*
X62791765Y-66705435D02*
X62015065Y-67482135D01*
X67018765Y-58331235D02*
X68436765Y-56913235D01*
X67016265Y-74478835D02*
X67017865Y-74480435D01*
X64224265Y-63701335D02*
X64224265Y-64704935D01*
X68436765Y-48206035D02*
X66867865Y-46637135D01*
X81315265Y-38786435D02*
X81315265Y-45758835D01*
X63564365Y-65364835D02*
X63564365Y-65932835D01*
X68436765Y-56913235D02*
X68436765Y-48206035D01*
X63705765Y-67619435D02*
X63705765Y-67988535D01*
X83717865Y-34682135D02*
X83717865Y-36383835D01*
X67017865Y-77132135D02*
X67017865Y-76182135D01*
X67769565Y-77883835D02*
X67017865Y-77132135D01*
X67769565Y-92430435D02*
X67769565Y-77883835D01*
X62791765Y-66705435D02*
X63705765Y-67619435D01*
X67017865Y-93182135D02*
X67769565Y-92430435D01*
X83717865Y-36383835D02*
X81315265Y-38786435D01*
X67016265Y-67988535D02*
X67016265Y-74478835D01*
X67017865Y-76182135D02*
X67017865Y-74480435D01*
X67017865Y-59182135D02*
X67017865Y-60907735D01*
X51949665Y-59715635D02*
X51949665Y-65350635D01*
X50017865Y-88782135D02*
X51549365Y-87250635D01*
X68035065Y-54823935D02*
X65216165Y-57642835D01*
X50017865Y-73082135D02*
X50017865Y-71380435D01*
X63822565Y-63806435D02*
X62603165Y-65025835D01*
X51549365Y-76315335D02*
X50017865Y-74783835D01*
X54656665Y-69875735D02*
X54656665Y-65350635D01*
X50017865Y-56082135D02*
X50017865Y-57783835D01*
X66867865Y-51982135D02*
X68035065Y-53149335D01*
X62603165Y-65025835D02*
X62927965Y-65350635D01*
X61817865Y-65811135D02*
X61817865Y-65882135D01*
X50017865Y-71380435D02*
X50017865Y-70709535D01*
X62603165Y-65025835D02*
X61817865Y-65811135D01*
X66867865Y-51717135D02*
X66867865Y-51982135D01*
X65216165Y-61915835D02*
X63822565Y-63309435D01*
X50017865Y-57783835D02*
X51949665Y-59715635D01*
X50017865Y-74783835D02*
X50017865Y-73082135D01*
X50017865Y-90082135D02*
X50017865Y-88782135D01*
X65216165Y-57642835D02*
X65216165Y-61915835D01*
X51549365Y-87250635D02*
X51549365Y-76315335D01*
X63822565Y-63309435D02*
X63822565Y-63806435D01*
X68035065Y-53149335D02*
X68035065Y-54823935D01*
X61820965Y-64282135D02*
X61820965Y-63505435D01*
X60450465Y-63934135D02*
X60798465Y-64282135D01*
X61820990Y-64282135D02*
X61820965Y-64282110D01*
X66867865Y-54732135D02*
X64363565Y-57236435D01*
X66867865Y-54257135D02*
X66867865Y-54732135D01*
X48162965Y-54549935D02*
X48162965Y-62379235D01*
X48210765Y-82473335D02*
X48210765Y-70189235D01*
X49717865Y-68682135D02*
X49717865Y-63934135D01*
X64363565Y-57236435D02*
X64363565Y-60962835D01*
X61820965Y-64282110D02*
X61820965Y-63505435D01*
X60798465Y-64282135D02*
X61820990Y-64282135D01*
X49717865Y-85682135D02*
X49717865Y-83980435D01*
X49717865Y-52995035D02*
X48162965Y-54549935D01*
X32882865Y-68677135D02*
X32882865Y-68467135D01*
X64363565Y-60962835D02*
X61820965Y-63505435D01*
X49717865Y-51682135D02*
X49717865Y-52995035D01*
X34216965Y-67133035D02*
X34216965Y-63934135D01*
X32882865Y-68467135D02*
X34216965Y-67133035D01*
X48210765Y-70189235D02*
X49717865Y-68682135D01*
X48162965Y-62379235D02*
X49717865Y-63934135D01*
X49717865Y-83980435D02*
X48210765Y-82473335D01*
X34090165Y-56808135D02*
X34090165Y-46972535D01*
X33869565Y-82575335D02*
X33869565Y-92730435D01*
X93717865Y-49555435D02*
X93717865Y-49340935D01*
X32717865Y-59882135D02*
X32717865Y-58180435D01*
X32717865Y-76882135D02*
X32717865Y-81423635D01*
X33869565Y-92730435D02*
X32717865Y-93882135D01*
X32717865Y-60732935D02*
X32882865Y-60897935D01*
X32882865Y-66137135D02*
X31729665Y-67290335D01*
X31729665Y-75893935D02*
X32717865Y-76882135D01*
X32717865Y-81423635D02*
X33869565Y-82575335D01*
X32717865Y-58180435D02*
X34090165Y-56808135D01*
X32882865Y-60897935D02*
X32882865Y-66137135D01*
X31729665Y-67290335D02*
X31729665Y-75893935D01*
X93717865Y-50332135D02*
X93717865Y-49555435D01*
X32717865Y-59882135D02*
X32717865Y-60732935D01*
X68079565Y-42105435D02*
X68079565Y-35975685D01*
X68079565Y-42105435D02*
X68091165Y-42105435D01*
X68079565Y-45145535D02*
X68079565Y-42105435D01*
X69717865Y-49632135D02*
X69767890Y-49582110D01*
X68079565Y-35975685D02*
X66867865Y-34763985D01*
X69717865Y-52182135D02*
X69717865Y-49632135D01*
X69192865Y-43207135D02*
X69517865Y-42882135D01*
X69767890Y-49082135D02*
X69767865Y-49082110D01*
X68091165Y-42105435D02*
X69192865Y-43207135D01*
X69767865Y-45932135D02*
X68866165Y-45932135D01*
X69767865Y-49082110D02*
X69767865Y-45932135D01*
X66867865Y-34763985D02*
X66867865Y-34032135D01*
X69517865Y-42882135D02*
X69767865Y-42882135D01*
X68866165Y-45932135D02*
X68079565Y-45145535D01*
X69767890Y-49582110D02*
X69767890Y-49082135D01*
X79078465Y-82274335D02*
X79078465Y-84621535D01*
X73217865Y-42493735D02*
X72176365Y-43535235D01*
X73217865Y-42882135D02*
X73217865Y-42493735D01*
X81308965Y-57321135D02*
X81308965Y-60000635D01*
X82137865Y-56492235D02*
X81308965Y-57321135D01*
X73167865Y-42058835D02*
X73214465Y-42105435D01*
X73214465Y-42105435D02*
X73217865Y-42105435D01*
X82291165Y-46430735D02*
X82291165Y-50959535D01*
X82087265Y-51976135D02*
X82137865Y-52026735D01*
X79078465Y-84621535D02*
X78117865Y-85582135D01*
X73217865Y-42493735D02*
X73217865Y-42105435D01*
X81983265Y-45081935D02*
X81983265Y-46122835D01*
X78117865Y-85582135D02*
X78117865Y-87132135D01*
X82087265Y-51163435D02*
X82087265Y-51976135D01*
X72176365Y-43535235D02*
X72176365Y-45157135D01*
X82137865Y-52026735D02*
X82137865Y-56492235D01*
X81138465Y-60171135D02*
X81138465Y-81966735D01*
X73167865Y-41282135D02*
X73167865Y-42058835D01*
X81308965Y-60000635D02*
X81138465Y-60171135D01*
X82291165Y-50959535D02*
X82087265Y-51163435D01*
X81983265Y-46122835D02*
X82291165Y-46430735D01*
X78120965Y-83885235D02*
X75267865Y-81032135D01*
X72080065Y-66135135D02*
X72080065Y-63456735D01*
X72080065Y-63456735D02*
X73021165Y-62515635D01*
X73167865Y-52182135D02*
X73167865Y-52958835D01*
X71861065Y-66354135D02*
X72080065Y-66135135D01*
X75267865Y-81032135D02*
X72193465Y-77957735D01*
X73021165Y-57199335D02*
X72628265Y-56806435D01*
X72628265Y-53498435D02*
X73167865Y-52958835D01*
X69667865Y-69808835D02*
X69667865Y-69748635D01*
X71861065Y-67113948D02*
X69667865Y-69307148D01*
X34616665Y-69213535D02*
X34616665Y-71733335D01*
X69667865Y-69032135D02*
X69667865Y-69748635D01*
X72628265Y-56806435D02*
X72628265Y-53498435D01*
X73219465Y-57932135D02*
X73051365Y-57764035D01*
X79442865Y-57982135D02*
X79492865Y-58032135D01*
X71861065Y-66354135D02*
X71861065Y-67113948D01*
X79841340Y-58032135D02*
X80391340Y-57482135D01*
X73051365Y-57764035D02*
X73021165Y-57764035D01*
X69667865Y-69307148D02*
X69667865Y-69748635D01*
X78120965Y-84041535D02*
X78120965Y-83885235D01*
X73021165Y-57764035D02*
X73021165Y-57199335D01*
X34616665Y-71733335D02*
X32882865Y-73467135D01*
X79492865Y-58032135D02*
X79841340Y-58032135D01*
X73021165Y-62515635D02*
X73021165Y-57764035D01*
X43431365Y-69213535D02*
X43431365Y-65952435D01*
X72193465Y-77957735D02*
X72193465Y-72334435D01*
X72193465Y-72334435D02*
X69667865Y-69808835D01*
X32882865Y-73467135D02*
X32882865Y-73757135D01*
X80391340Y-57482135D02*
X80391365Y-57482135D01*
X67477865Y-43937435D02*
X67477865Y-42338335D01*
X30549022Y-79427835D02*
X31046908Y-79427835D01*
X30371465Y-79582135D02*
X30394722Y-79582135D01*
X30394722Y-79582135D02*
X30549022Y-79427835D01*
X73217865Y-44382135D02*
X74119565Y-44382135D01*
X29667865Y-80285735D02*
X30371465Y-79582135D01*
X67373065Y-44042235D02*
X67477865Y-43937435D01*
X75191265Y-42266035D02*
X75190865Y-42265635D01*
X74119565Y-44064635D02*
X74289565Y-43894635D01*
X31064887Y-79445813D02*
X31086265Y-79424435D01*
X31046908Y-79427835D02*
X31064887Y-79445813D01*
X31717865Y-83232135D02*
X31717865Y-81432135D01*
X90267865Y-50332135D02*
X90267865Y-43616835D01*
X90267865Y-43616835D02*
X88551265Y-41900235D01*
X75191265Y-43894635D02*
X74289565Y-43894635D01*
X75191265Y-43894635D02*
X75191265Y-42266035D01*
X29667865Y-83432135D02*
X29667865Y-80285735D01*
X31717865Y-80056035D02*
X31717865Y-81432135D01*
X35500965Y-44042235D02*
X35500965Y-77838835D01*
X35500965Y-77838835D02*
X34537365Y-78802435D01*
X74119565Y-44382135D02*
X74119565Y-44064635D01*
X31086265Y-79424435D02*
X31086265Y-78802435D01*
X31086265Y-79424435D02*
X31717865Y-80056035D01*
X73217865Y-44382135D02*
X73217865Y-45932135D01*
X65111965Y-85299535D02*
X65111965Y-80299435D01*
X29667865Y-88482135D02*
X30569565Y-88482135D01*
X76092965Y-51494635D02*
X76291065Y-51494635D01*
X75191265Y-51494635D02*
X76092965Y-51494635D01*
X81878065Y-59431535D02*
X82691365Y-58618235D01*
X69667865Y-67482135D02*
X69667865Y-66705435D01*
X31031365Y-88482135D02*
X31720965Y-87792535D01*
X65130465Y-80280935D02*
X65130465Y-68396235D01*
X65111965Y-80299435D02*
X65130465Y-80280935D01*
X76291065Y-51494635D02*
X76294665Y-51498235D01*
X65267865Y-67994235D02*
X65875265Y-67386835D01*
X70347465Y-66705435D02*
X71373165Y-65679735D01*
X68670865Y-67386835D02*
X68766165Y-67482135D01*
X65267865Y-67482135D02*
X65267865Y-67994235D01*
X31720965Y-87792535D02*
X31720965Y-87408835D01*
X32907065Y-85834335D02*
X32907065Y-82500135D01*
X65875265Y-67386835D02*
X68670865Y-67386835D01*
X82691365Y-58618235D02*
X82691365Y-51569835D01*
X69667865Y-66705435D02*
X70347465Y-66705435D01*
X31720965Y-86632135D02*
X31720965Y-87020435D01*
X31720965Y-87020435D02*
X31720965Y-87408835D01*
X66517865Y-87482135D02*
X66517865Y-86705435D01*
X65130465Y-68396235D02*
X65267865Y-68258835D01*
X30569565Y-88482135D02*
X31031365Y-88482135D01*
X75191265Y-51494635D02*
X74030365Y-51494635D01*
X71373165Y-65679735D02*
X71373165Y-63597735D01*
X65267865Y-67994235D02*
X65267865Y-68258835D01*
X31720965Y-87020435D02*
X32907065Y-85834335D01*
X81878065Y-63597735D02*
X81878065Y-59431535D01*
X66517865Y-86705435D02*
X65111965Y-85299535D01*
X74030365Y-51494635D02*
X73167865Y-50632135D01*
X69667865Y-67482135D02*
X68766165Y-67482135D01*
X69543065Y-65882135D02*
X70573465Y-64851735D01*
X74419565Y-49382135D02*
X75167765Y-49382135D01*
X72619465Y-60818135D02*
X72619465Y-57365635D01*
X30729980Y-85845506D02*
X30729980Y-85856620D01*
X70573465Y-62864135D02*
X72619465Y-60818135D01*
X75167765Y-49382135D02*
X75167865Y-49382235D01*
X75167865Y-50032135D02*
X75167865Y-49382235D01*
X75191265Y-48582160D02*
X74779527Y-48993897D01*
X31654465Y-84932135D02*
X30614965Y-85971635D01*
X67338965Y-65882135D02*
X67338965Y-66604235D01*
X29795065Y-86791535D02*
X29667865Y-86791535D01*
X70573465Y-64851735D02*
X70573465Y-62864135D01*
X66169565Y-65882135D02*
X67338965Y-65882135D01*
X65267865Y-65882135D02*
X66169565Y-65882135D01*
X30614965Y-85971635D02*
X29795065Y-86791535D01*
X69317865Y-65882135D02*
X69543065Y-65882135D01*
X31717865Y-84932135D02*
X31654465Y-84932135D01*
X72619465Y-57365635D02*
X72217765Y-56963935D01*
X74779527Y-48993897D02*
X75167865Y-49382235D01*
X69317865Y-65882135D02*
X68766165Y-65882135D01*
X69667865Y-65882135D02*
X69317865Y-65882135D01*
X67338965Y-65882135D02*
X68766165Y-65882135D01*
X44086365Y-86730435D02*
X44086365Y-66604235D01*
X72217765Y-49832235D02*
X72967865Y-49082135D01*
X74119565Y-49082135D02*
X74419565Y-49382135D01*
X75191265Y-48582135D02*
X75191265Y-48582160D01*
X72217765Y-56963935D02*
X72217765Y-49832235D01*
X72967865Y-49082135D02*
X74119565Y-49082135D01*
X30729980Y-85856620D02*
X30614965Y-85971635D01*
X29667865Y-84985035D02*
X30797965Y-83854935D01*
X69598265Y-63132135D02*
X65644265Y-63132135D01*
X75167865Y-47082160D02*
X75167865Y-47082135D01*
X65270965Y-65058835D02*
X64494265Y-65058835D01*
X75191265Y-46308835D02*
X75167865Y-46332235D01*
X71607965Y-57122335D02*
X71607965Y-52931235D01*
X69667865Y-64232135D02*
X69667865Y-63132135D01*
X29667865Y-85082135D02*
X29667865Y-84985035D01*
X75191265Y-45532135D02*
X75191265Y-46308835D01*
X75167865Y-46332235D02*
X75167865Y-47082135D01*
X66867865Y-79382135D02*
X66867865Y-79882135D01*
X69667865Y-63132135D02*
X72217765Y-60582235D01*
X76069565Y-47082135D02*
X77455565Y-48468135D01*
X64318165Y-78232435D02*
X64367865Y-78282135D01*
X65817865Y-78332135D02*
X66867865Y-79382135D01*
X77455565Y-48468135D02*
X77455565Y-52714135D01*
X30797965Y-83854935D02*
X30797965Y-80028835D01*
X73217865Y-47532135D02*
X74717890Y-47532135D01*
X65644265Y-63132135D02*
X65270965Y-63505435D01*
X64494265Y-65058835D02*
X64318165Y-65234935D01*
X72217765Y-60582235D02*
X72217765Y-57732135D01*
X65270965Y-63505435D02*
X65270965Y-65058835D01*
X64318165Y-65234935D02*
X64318165Y-78232435D01*
X75167865Y-47082135D02*
X76069565Y-47082135D01*
X74717890Y-47532135D02*
X75167865Y-47082160D01*
X72217765Y-57732135D02*
X71607965Y-57122335D01*
X73117865Y-65882135D02*
X74019565Y-65882135D01*
X77485265Y-70136735D02*
X74019565Y-66671035D01*
X112842865Y-69507135D02*
X112842865Y-72732435D01*
X74019565Y-66671035D02*
X74019565Y-65882135D01*
X112842865Y-54183835D02*
X111817365Y-55209335D01*
X74691308Y-59320835D02*
X74342200Y-59320835D01*
X73422865Y-63150435D02*
X73117865Y-63455435D01*
X74342200Y-59320835D02*
X73422865Y-60240170D01*
X111817365Y-55209335D02*
X111817365Y-60923835D01*
X73422865Y-60240170D02*
X73422865Y-63150435D01*
X112842865Y-52507135D02*
X112842865Y-54183835D01*
X73117865Y-63455435D02*
X73117865Y-64232135D01*
X74610212Y-68958736D02*
X74536813Y-69032135D01*
X98917865Y-96532135D02*
X98917865Y-83155435D01*
X103492865Y-101107135D02*
X98917865Y-96532135D01*
X99602765Y-82470535D02*
X99602765Y-69563035D01*
X98917865Y-83155435D02*
X99602765Y-82470535D01*
X74536813Y-69032135D02*
X73117865Y-69032135D01*
X81917865Y-85582135D02*
X81567865Y-85582135D01*
X84217865Y-87882135D02*
X81917865Y-85582135D01*
X86492865Y-95307135D02*
X84217865Y-93032135D01*
X84217865Y-93032135D02*
X84217865Y-87882135D01*
X86492865Y-95307135D02*
X86617865Y-95182135D01*
X74550000Y-68050000D02*
X73935730Y-68050000D01*
X112842865Y-86507135D02*
X112842865Y-76322635D01*
X73367865Y-67482135D02*
X73117865Y-67482135D01*
X73935730Y-68050000D02*
X73367865Y-67482135D01*
X112842865Y-76322635D02*
X105654065Y-69133835D01*
X68729565Y-44382135D02*
X69767865Y-44382135D01*
X68679565Y-44332135D02*
X68729565Y-44382135D01*
X61842865Y-41207135D02*
X61842865Y-44779235D01*
X89623465Y-51817635D02*
X86982965Y-49177135D01*
X89623465Y-80637735D02*
X89623465Y-51817635D01*
X90917865Y-81882135D02*
X90867865Y-81882135D01*
X90867865Y-81882135D02*
X89623465Y-80637735D01*
X94467865Y-85432135D02*
X90917865Y-81882135D01*
X97217865Y-94982135D02*
X97217865Y-82615535D01*
X66867865Y-31492135D02*
X71926765Y-36551035D01*
X80682165Y-49190035D02*
X80682165Y-40313035D01*
X81689465Y-50197335D02*
X80682165Y-49190035D01*
X97217865Y-82615535D02*
X97627765Y-82205635D01*
X97627765Y-82205635D02*
X97627765Y-50197335D01*
X71926765Y-36551035D02*
X71926765Y-41052935D01*
D20*
X98167865Y-92432135D02*
X98167865Y-83082135D01*
X100882865Y-42667135D02*
X100882865Y-42177135D01*
X98167865Y-83082135D02*
X98941965Y-82308035D01*
X98941965Y-82308035D02*
X98941965Y-44608035D01*
X98941965Y-44608035D02*
X100882865Y-42667135D01*
D19*
X89021965Y-70796635D02*
X89021965Y-58730635D01*
X78224765Y-52687835D02*
X78641265Y-52271335D01*
X78641265Y-51494635D02*
X78641265Y-52271335D01*
X78224765Y-57366935D02*
X78224765Y-52687835D01*
X89021965Y-58730635D02*
X87658265Y-57366935D01*
X95842865Y-80707135D02*
X95842865Y-70796635D01*
X78641265Y-48582135D02*
X79223465Y-48582135D01*
X79223465Y-48582135D02*
X81528265Y-50886935D01*
X81528265Y-50886935D02*
X81528265Y-53183835D01*
X95842865Y-63707135D02*
X95842865Y-53183835D01*
X95830365Y-46682135D02*
X95830365Y-48649035D01*
X79916665Y-46807535D02*
X79916665Y-46824735D01*
X78641265Y-45532135D02*
X79916665Y-46807535D01*
X78641265Y-43894635D02*
X78641265Y-41721135D01*
X78641265Y-41721135D02*
X78698465Y-41663935D01*
X37892865Y-32557135D02*
X37892865Y-43220435D01*
X81567865Y-87132135D02*
X81567865Y-87908835D01*
X78842865Y-95307135D02*
X78842865Y-90633835D01*
X78842865Y-90633835D02*
X81567865Y-87908835D01*
X78842865Y-80536735D02*
X81570965Y-83264835D01*
X78842865Y-78307135D02*
X78842865Y-80536735D01*
X81570965Y-84041535D02*
X81570965Y-83264835D01*
X78842865Y-61307135D02*
X78842865Y-57359835D01*
X78842865Y-57359835D02*
X79542965Y-56659735D01*
X79542965Y-50055535D02*
X79519565Y-50032135D01*
X79542965Y-56659735D02*
X79542965Y-50055535D01*
X78617865Y-50032135D02*
X79519565Y-50032135D01*
X78076765Y-41187835D02*
X78076765Y-37341035D01*
X72892865Y-32557135D02*
X71892865Y-32557135D01*
X78076765Y-37341035D02*
X76067865Y-35332135D01*
X77726565Y-46190835D02*
X77726565Y-41538035D01*
X76067865Y-35332135D02*
X75667865Y-35332135D01*
X77726565Y-41538035D02*
X78076765Y-41187835D01*
X78617865Y-47082135D02*
X77726565Y-46190835D01*
X75667865Y-35332135D02*
X72892865Y-32557135D01*
X26217865Y-83432110D02*
X27087165Y-82562810D01*
X26217865Y-83432135D02*
X26217865Y-83432110D01*
X27087165Y-82562810D02*
X27087165Y-73323435D01*
X19133965Y-65370235D02*
X19133965Y-42516035D01*
X27087165Y-73323435D02*
X19133965Y-65370235D01*
X19133965Y-42516035D02*
X20892865Y-40757135D01*
X61842865Y-92207135D02*
X63067865Y-90982135D01*
X63067865Y-90982135D02*
X63067865Y-87482135D01*
X61842865Y-75207135D02*
X61842865Y-75857135D01*
X61842865Y-75857135D02*
X63417865Y-77432135D01*
X63417865Y-77432135D02*
X63417865Y-79882135D01*
X61492865Y-58207135D02*
X61842865Y-58207135D01*
X35167865Y-81432135D02*
X35167865Y-79885535D01*
X35167865Y-79885535D02*
X35985165Y-79068235D01*
X55465465Y-79068235D02*
X55465465Y-64234535D01*
X55465465Y-64234535D02*
X61492865Y-58207135D01*
X35367865Y-86432135D02*
X35170965Y-86432135D01*
X37892865Y-83907135D02*
X35367865Y-86432135D01*
X35170965Y-86432135D02*
X35170965Y-86632135D01*
X37892865Y-83557135D02*
X37892865Y-83907135D01*
X35167865Y-84737935D02*
X36117865Y-83787935D01*
X36117865Y-79786435D02*
X37892865Y-78011435D01*
X35167865Y-84932135D02*
X35167865Y-84737935D01*
X36117865Y-83787935D02*
X36117865Y-79786435D01*
X37892865Y-78011435D02*
X37892865Y-66557135D01*
X35167865Y-83232135D02*
X35167865Y-82940835D01*
X34219765Y-79970935D02*
X36165165Y-78025535D01*
X36165165Y-78025535D02*
X36165165Y-52961535D01*
X34219765Y-81992735D02*
X34219765Y-79970935D01*
X36165165Y-52961535D02*
X37892865Y-51233835D01*
X37892865Y-51233835D02*
X37892865Y-49557135D01*
X35167865Y-82940835D02*
X34219765Y-81992735D01*
X21229565Y-91757135D02*
X23016965Y-89969735D01*
X26217865Y-88482135D02*
X24504565Y-88482135D01*
X24504565Y-88482135D02*
X23016965Y-89969735D01*
X20892865Y-91757135D02*
X21229565Y-91757135D01*
X26217865Y-86791535D02*
X26217865Y-86597335D01*
X20892865Y-81272335D02*
X20892865Y-74757135D01*
X26217865Y-86597335D02*
X20892865Y-81272335D01*
X27538865Y-83686235D02*
X27538865Y-70654135D01*
X27538865Y-70654135D02*
X20892865Y-64008135D01*
X26217865Y-85082135D02*
X26217865Y-85007235D01*
X20892865Y-64008135D02*
X20892865Y-57757135D01*
X26217865Y-85007235D02*
X27538865Y-83686235D01*
M02*
