M48
; DRILL file {KiCad 9.0.0} date 2025-04-21T18:54:01+0900
; FORMAT={-:-/ absolute / metric / decimal}
; #@! TF.CreationDate,2025-04-21T18:54:01+09:00
; #@! TF.GenerationSoftware,Kicad,Pcbnew,9.0.0
; #@! TF.FileFunction,NonPlated,1,2,NPTH
FMAT,2
METRIC
; #@! TA.AperFunction,NonPlated,NPTH,ComponentDrill
T1C2.200
; #@! TA.AperFunction,NonPlated,NPTH,ComponentDrill
T2C3.000
; #@! TA.AperFunction,NonPlated,NPTH,ComponentDrill
T3C4.800
%
G90
G05
T1
X31.6Y-49.45
X31.7Y-83.45
X83.3Y-61.15
X83.43Y-77.56
T2
X23.6Y-35.05
X23.6Y-52.05
X23.6Y-69.05
X23.6Y-86.05
X28.6Y-37.25
X28.6Y-54.25
X28.6Y-71.25
X28.6Y-88.25
X40.6Y-26.85
X40.6Y-43.85
X40.6Y-60.85
X40.6Y-77.85
X45.6Y-29.05
X45.6Y-46.05
X45.6Y-63.05
X45.6Y-80.05
X52.6Y-33.35
X52.6Y-50.35
X52.6Y-67.35
X52.6Y-84.35
X57.6Y-35.55
X57.6Y-52.55
X57.6Y-69.55
X57.6Y-86.55
X69.6Y-53.45
X69.6Y-70.45
X69.6Y-87.45
X74.6Y-26.85
X74.6Y-55.65
X74.6Y-72.65
X74.6Y-89.65
X79.6Y-29.05
X85.7Y-86.15
X86.587Y-38.825
X86.6Y-55.85
X86.6Y-72.85
X87.9Y-81.15
X91.587Y-41.025
X91.6Y-58.05
X91.6Y-75.05
X102.7Y-91.95
X103.6Y-44.65
X103.6Y-61.65
X103.6Y-78.65
X104.9Y-86.95
X108.6Y-46.85
X108.6Y-63.85
X108.6Y-80.85
T3
X23.6Y-40.95
X23.6Y-57.95
X23.6Y-74.95
X23.6Y-91.95
X40.6Y-32.75
X40.6Y-49.75
X40.6Y-66.75
X40.6Y-83.75
X57.6Y-29.65
X57.6Y-46.65
X57.6Y-63.65
X57.6Y-80.65
X74.6Y-32.75
X74.6Y-49.75
X74.6Y-66.75
X74.6Y-83.75
X91.587Y-35.125
X91.6Y-52.15
X91.6Y-69.15
X91.6Y-86.15
X108.6Y-40.95
X108.6Y-57.95
X108.6Y-74.95
X108.6Y-91.95
M30
