M48
; DRILL file {KiCad 9.0.0} date 2025-04-21T18:54:01+0900
; FORMAT={-:-/ absolute / metric / decimal}
; #@! TF.CreationDate,2025-04-21T18:54:01+09:00
; #@! TF.GenerationSoftware,Kicad,Pcbnew,9.0.0
; #@! TF.FileFunction,Plated,1,2,PTH
FMAT,2
METRIC
; #@! TA.AperFunction,Plated,PTH,ViaDrill
T1C0.300
; #@! TA.AperFunction,Plated,PTH,ComponentDrill
T2C1.000
%
G90
G05
T1
X20.125Y-81.416
X26.21Y-56.103
X26.88Y-73.325
X27.777Y-41.236
X28.6Y-75.367
X32.001Y-39.558
X32.025Y-56.703
X32.05Y-81.416
X33.68Y-58.968
X33.68Y-65.429
X34.974Y-68.075
X35.888Y-70.224
X35.894Y-55.162
X37.125Y-38.301
X38.392Y-74.711
X39.5Y-72.617
X45.685Y-65.056
X47.407Y-58.086
X47.439Y-38.937
X48.95Y-64.999
X49.92Y-58.968
X50.89Y-37.538
X54.633Y-43.462
X54.633Y-56.565
X59.075Y-59.002
X59.93Y-58.086
X61.075Y-37.936
X61.075Y-55.162
X61.075Y-84.297
X62.143Y-43.462
X63.081Y-59.047
X64.3Y-55.85
X64.5Y-61.467
X64.85Y-75.367
X65.638Y-62.558
X66.981Y-29.433
X67.271Y-39.558
X67.464Y-59.047
X67.75Y-75.367
X67.892Y-36.967
X67.892Y-42.848
X68.568Y-75.367
X68.884Y-84.297
X68.95Y-61.467
X70.51Y-42.152
X71.117Y-37.152
X71.125Y-36.066
X71.2Y-75.371
X72.35Y-63.531
X72.403Y-53.274
X72.481Y-79.002
X72.646Y-74.711
X73.081Y-52.551
X75.104Y-29.433
X75.15Y-45.7
X77.35Y-74.65
X78.075Y-51.659
X78.55Y-36.066
X78.55Y-44.187
X79.617Y-39.558
X79.728Y-37.152
X80.429Y-61.467
X81.226Y-38.889
X82.2Y-45.718
X82.95Y-31.615
X83.344Y-46.423
X83.495Y-36.971
X83.845Y-88.066
X83.975Y-48.964
X83.975Y-52.551
X84.412Y-36.973
X84.587Y-51.659
X85.8Y-53.274
X87.858Y-49.571
X89.759Y-76.46
X90.805Y-82.822
X93.291Y-49.567
X95.05Y-44.15
X95.075Y-79.002
X97.173Y-62.558
X97.173Y-84.925
X97.788Y-31.615
X97.788Y-52.347
X97.788Y-54.09
X97.94Y-88.96
X99.382Y-42.791
X112.029Y-82.822
X112.075Y-50.216
X112.075Y-67.155
T2
X32.115Y-60.455
X32.115Y-62.995
X32.115Y-65.535
X32.115Y-68.075
X66.1Y-25.81
X66.1Y-28.35
X66.1Y-30.89
X66.1Y-33.43
X66.1Y-40.955
X66.1Y-43.495
X66.1Y-46.035
X66.1Y-48.575
X100.0Y-85.45
X100.0Y-87.95
X100.0Y-90.45
X100.1Y-49.01
X100.1Y-51.55
X100.1Y-54.09
X100.1Y-56.63
X100.115Y-33.955
X100.115Y-36.495
X100.115Y-39.035
X100.115Y-41.575
M30
