%TF.GenerationSoftware,KiCad,Pcbnew,9.0.0*%
%TF.CreationDate,2025-04-19T15:23:17+09:00*%
%TF.ProjectId,nofy_V2_L,6e6f6679-5f56-4325-9f4c-2e6b69636164,rev?*%
%TF.SameCoordinates,Original*%
%TF.FileFunction,Drillmap*%
%TF.FilePolarity,Positive*%
%FSLAX45Y45*%
G04 Gerber Fmt 4.5, Leading zero omitted, Abs format (unit mm)*
G04 Created by KiCad (PCBNEW 9.0.0) date 2025-04-19 15:23:17*
%MOMM*%
%LPD*%
G01*
G04 APERTURE LIST*
%ADD10C,0.050000*%
%ADD11C,0.200000*%
%ADD12C,0.220000*%
%ADD13C,0.300000*%
%ADD14C,0.480000*%
G04 APERTURE END LIST*
D10*
X3266786Y-9873214D02*
G75*
G02*
X3366786Y-9773207I100004J4D01*
G01*
X10006787Y-10013214D02*
G75*
G02*
X10106787Y-10113214I4J-99997D01*
G01*
X8466787Y-3253213D02*
X9966787Y-3253213D01*
X8466787Y-3253213D02*
G75*
G02*
X8366786Y-3153213I4J100004D01*
G01*
X8306786Y-9773214D02*
G75*
G02*
X8406787Y-9873214I4J-99997D01*
G01*
X6666786Y-2803213D02*
X6666786Y-2913213D01*
X8506787Y-10013214D02*
G75*
G02*
X8406787Y-9913214I4J100004D01*
G01*
X1826786Y-10593214D02*
G75*
G02*
X1726786Y-10493214I4J100004D01*
G01*
X5006787Y-2803213D02*
G75*
G02*
X5106787Y-2703207I100004J4D01*
G01*
X11596786Y-3833213D02*
X10166787Y-3833213D01*
X6766786Y-3013213D02*
G75*
G02*
X6666786Y-2913213I4J100004D01*
G01*
X5106787Y-2703214D02*
X6566786Y-2703214D01*
X1826786Y-3833213D02*
X3206786Y-3833213D01*
X8266786Y-3013213D02*
G75*
G02*
X8366786Y-3113213I4J-99997D01*
G01*
X6766786Y-3013213D02*
X8266786Y-3013213D01*
X1726786Y-3933213D02*
G75*
G02*
X1826786Y-3833213I100000J1D01*
G01*
X6566786Y-2703214D02*
G75*
G02*
X6666786Y-2803213I4J-99996D01*
G01*
X3266786Y-9873214D02*
X3266786Y-10493214D01*
X10066787Y-3353213D02*
X10066787Y-3732838D01*
X5006787Y-2913213D02*
X5006787Y-2803213D01*
X10166787Y-3833213D02*
G75*
G02*
X10066787Y-3733213I4J100004D01*
G01*
X9966787Y-3253213D02*
G75*
G02*
X10066787Y-3353213I4J-99997D01*
G01*
X8306786Y-9773214D02*
X6806786Y-9773214D01*
X3306786Y-3733213D02*
G75*
G02*
X3206786Y-3833206I-99997J3D01*
G01*
X1726786Y-10493214D02*
X1726786Y-3933213D01*
X4966787Y-9673214D02*
G75*
G02*
X4866787Y-9773207I-99997J4D01*
G01*
X4866787Y-9773214D02*
X3366786Y-9773214D01*
X6706786Y-9673214D02*
X6706786Y-9563214D01*
X3306786Y-3733213D02*
X3306786Y-3113213D01*
X6606786Y-9463214D02*
G75*
G02*
X6706786Y-9563214I4J-99997D01*
G01*
X11596786Y-3833213D02*
G75*
G02*
X11696786Y-3933213I4J-99997D01*
G01*
X11596786Y-10593214D02*
X10206787Y-10593214D01*
X3266786Y-10493214D02*
G75*
G02*
X3166786Y-10593207I-99997J4D01*
G01*
X10206787Y-10593214D02*
G75*
G02*
X10106787Y-10493214I4J100004D01*
G01*
X4966787Y-9563214D02*
G75*
G02*
X5066787Y-9463207I100004J4D01*
G01*
X4966787Y-9563214D02*
X4966787Y-9673214D01*
X10006787Y-10013214D02*
X8506787Y-10013214D01*
X10106787Y-10493214D02*
X10106787Y-10113214D01*
X11696786Y-10493214D02*
G75*
G02*
X11596786Y-10593207I-99997J4D01*
G01*
X5006787Y-2913213D02*
G75*
G02*
X4906787Y-3013206I-99997J4D01*
G01*
X3406786Y-3013213D02*
X4906787Y-3013213D01*
X3306786Y-3113213D02*
G75*
G02*
X3406786Y-3013206I100004J4D01*
G01*
X8406787Y-9913214D02*
X8406787Y-9873214D01*
X3166786Y-10593214D02*
X1826786Y-10593214D01*
X11696786Y-10493214D02*
X11696786Y-3933213D01*
X8366786Y-3113213D02*
X8366786Y-3153213D01*
X6606786Y-9463214D02*
X5066787Y-9463214D01*
X6806786Y-9773214D02*
G75*
G02*
X6706786Y-9673214I4J100004D01*
G01*
D11*
D12*
X3126786Y-5403214D02*
X3346786Y-5623213D01*
X3346786Y-5403214D02*
X3126786Y-5623213D01*
X3136786Y-8803214D02*
X3356786Y-9023214D01*
X3356786Y-8803214D02*
X3136786Y-9023214D01*
X8296786Y-6573213D02*
X8516787Y-6793213D01*
X8516787Y-6573213D02*
X8296786Y-6793213D01*
X8309786Y-8214213D02*
X8529787Y-8434214D01*
X8529787Y-8214213D02*
X8309786Y-8434214D01*
D13*
X2586787Y-4073213D02*
G75*
G02*
X2286787Y-4073213I-150000J0D01*
G01*
X2286787Y-4073213D02*
G75*
G02*
X2586787Y-4073213I150000J0D01*
G01*
X2586787Y-5773213D02*
G75*
G02*
X2286787Y-5773213I-150000J0D01*
G01*
X2286787Y-5773213D02*
G75*
G02*
X2586787Y-5773213I150000J0D01*
G01*
X2586787Y-7473213D02*
G75*
G02*
X2286787Y-7473213I-150000J0D01*
G01*
X2286787Y-7473213D02*
G75*
G02*
X2586787Y-7473213I150000J0D01*
G01*
X2586787Y-9173214D02*
G75*
G02*
X2286787Y-9173214I-150000J0D01*
G01*
X2286787Y-9173214D02*
G75*
G02*
X2586787Y-9173214I150000J0D01*
G01*
X3086786Y-4293214D02*
G75*
G02*
X2786787Y-4293214I-150000J0D01*
G01*
X2786787Y-4293214D02*
G75*
G02*
X3086786Y-4293214I150000J0D01*
G01*
X3086786Y-5993213D02*
G75*
G02*
X2786787Y-5993213I-150000J0D01*
G01*
X2786787Y-5993213D02*
G75*
G02*
X3086786Y-5993213I150000J0D01*
G01*
X3086786Y-7693213D02*
G75*
G02*
X2786787Y-7693213I-150000J0D01*
G01*
X2786787Y-7693213D02*
G75*
G02*
X3086786Y-7693213I150000J0D01*
G01*
X3086786Y-9393214D02*
G75*
G02*
X2786787Y-9393214I-150000J0D01*
G01*
X2786787Y-9393214D02*
G75*
G02*
X3086786Y-9393214I150000J0D01*
G01*
X4286787Y-3253213D02*
G75*
G02*
X3986786Y-3253213I-150000J0D01*
G01*
X3986786Y-3253213D02*
G75*
G02*
X4286787Y-3253213I150000J0D01*
G01*
X4286787Y-4953214D02*
G75*
G02*
X3986786Y-4953214I-150000J0D01*
G01*
X3986786Y-4953214D02*
G75*
G02*
X4286787Y-4953214I150000J0D01*
G01*
X4286787Y-6653213D02*
G75*
G02*
X3986786Y-6653213I-150000J0D01*
G01*
X3986786Y-6653213D02*
G75*
G02*
X4286787Y-6653213I150000J0D01*
G01*
X4286787Y-8353213D02*
G75*
G02*
X3986786Y-8353213I-150000J0D01*
G01*
X3986786Y-8353213D02*
G75*
G02*
X4286787Y-8353213I150000J0D01*
G01*
X4786787Y-3473213D02*
G75*
G02*
X4486787Y-3473213I-150000J0D01*
G01*
X4486787Y-3473213D02*
G75*
G02*
X4786787Y-3473213I150000J0D01*
G01*
X4786787Y-5173214D02*
G75*
G02*
X4486787Y-5173214I-150000J0D01*
G01*
X4486787Y-5173214D02*
G75*
G02*
X4786787Y-5173214I150000J0D01*
G01*
X4786787Y-6873213D02*
G75*
G02*
X4486787Y-6873213I-150000J0D01*
G01*
X4486787Y-6873213D02*
G75*
G02*
X4786787Y-6873213I150000J0D01*
G01*
X4786787Y-8573214D02*
G75*
G02*
X4486787Y-8573214I-150000J0D01*
G01*
X4486787Y-8573214D02*
G75*
G02*
X4786787Y-8573214I150000J0D01*
G01*
X5486787Y-3903213D02*
G75*
G02*
X5186787Y-3903213I-150000J0D01*
G01*
X5186787Y-3903213D02*
G75*
G02*
X5486787Y-3903213I150000J0D01*
G01*
X5486787Y-5603213D02*
G75*
G02*
X5186787Y-5603213I-150000J0D01*
G01*
X5186787Y-5603213D02*
G75*
G02*
X5486787Y-5603213I150000J0D01*
G01*
X5486787Y-7303213D02*
G75*
G02*
X5186787Y-7303213I-150000J0D01*
G01*
X5186787Y-7303213D02*
G75*
G02*
X5486787Y-7303213I150000J0D01*
G01*
X5486787Y-9003214D02*
G75*
G02*
X5186787Y-9003214I-150000J0D01*
G01*
X5186787Y-9003214D02*
G75*
G02*
X5486787Y-9003214I150000J0D01*
G01*
X5986786Y-4123213D02*
G75*
G02*
X5686786Y-4123213I-150000J0D01*
G01*
X5686786Y-4123213D02*
G75*
G02*
X5986786Y-4123213I150000J0D01*
G01*
X5986786Y-5823213D02*
G75*
G02*
X5686786Y-5823213I-150000J0D01*
G01*
X5686786Y-5823213D02*
G75*
G02*
X5986786Y-5823213I150000J0D01*
G01*
X5986786Y-7523213D02*
G75*
G02*
X5686786Y-7523213I-150000J0D01*
G01*
X5686786Y-7523213D02*
G75*
G02*
X5986786Y-7523213I150000J0D01*
G01*
X5986786Y-9223214D02*
G75*
G02*
X5686786Y-9223214I-150000J0D01*
G01*
X5686786Y-9223214D02*
G75*
G02*
X5986786Y-9223214I150000J0D01*
G01*
X7186786Y-5913213D02*
G75*
G02*
X6886786Y-5913213I-150000J0D01*
G01*
X6886786Y-5913213D02*
G75*
G02*
X7186786Y-5913213I150000J0D01*
G01*
X7186786Y-7613213D02*
G75*
G02*
X6886786Y-7613213I-150000J0D01*
G01*
X6886786Y-7613213D02*
G75*
G02*
X7186786Y-7613213I150000J0D01*
G01*
X7186786Y-9313214D02*
G75*
G02*
X6886786Y-9313214I-150000J0D01*
G01*
X6886786Y-9313214D02*
G75*
G02*
X7186786Y-9313214I150000J0D01*
G01*
X7686786Y-3253213D02*
G75*
G02*
X7386786Y-3253213I-150000J0D01*
G01*
X7386786Y-3253213D02*
G75*
G02*
X7686786Y-3253213I150000J0D01*
G01*
X7686786Y-6133213D02*
G75*
G02*
X7386786Y-6133213I-150000J0D01*
G01*
X7386786Y-6133213D02*
G75*
G02*
X7686786Y-6133213I150000J0D01*
G01*
X7686786Y-7833213D02*
G75*
G02*
X7386786Y-7833213I-150000J0D01*
G01*
X7386786Y-7833213D02*
G75*
G02*
X7686786Y-7833213I150000J0D01*
G01*
X7686786Y-9533214D02*
G75*
G02*
X7386786Y-9533214I-150000J0D01*
G01*
X7386786Y-9533214D02*
G75*
G02*
X7686786Y-9533214I150000J0D01*
G01*
X8186786Y-3473213D02*
G75*
G02*
X7886786Y-3473213I-150000J0D01*
G01*
X7886786Y-3473213D02*
G75*
G02*
X8186786Y-3473213I150000J0D01*
G01*
X8796787Y-9183214D02*
G75*
G02*
X8496787Y-9183214I-150000J0D01*
G01*
X8496787Y-9183214D02*
G75*
G02*
X8796787Y-9183214I150000J0D01*
G01*
X8885537Y-4450714D02*
G75*
G02*
X8585537Y-4450714I-150000J0D01*
G01*
X8585537Y-4450714D02*
G75*
G02*
X8885537Y-4450714I150000J0D01*
G01*
X8886787Y-6153213D02*
G75*
G02*
X8586787Y-6153213I-150000J0D01*
G01*
X8586787Y-6153213D02*
G75*
G02*
X8886787Y-6153213I150000J0D01*
G01*
X8886787Y-7853213D02*
G75*
G02*
X8586787Y-7853213I-150000J0D01*
G01*
X8586787Y-7853213D02*
G75*
G02*
X8886787Y-7853213I150000J0D01*
G01*
X9016787Y-8683214D02*
G75*
G02*
X8716787Y-8683214I-150000J0D01*
G01*
X8716787Y-8683214D02*
G75*
G02*
X9016787Y-8683214I150000J0D01*
G01*
X9385537Y-4670714D02*
G75*
G02*
X9085537Y-4670714I-150000J0D01*
G01*
X9085537Y-4670714D02*
G75*
G02*
X9385537Y-4670714I150000J0D01*
G01*
X9386787Y-6373213D02*
G75*
G02*
X9086787Y-6373213I-150000J0D01*
G01*
X9086787Y-6373213D02*
G75*
G02*
X9386787Y-6373213I150000J0D01*
G01*
X9386787Y-8073213D02*
G75*
G02*
X9086787Y-8073213I-150000J0D01*
G01*
X9086787Y-8073213D02*
G75*
G02*
X9386787Y-8073213I150000J0D01*
G01*
X10496787Y-9763214D02*
G75*
G02*
X10196787Y-9763214I-150000J0D01*
G01*
X10196787Y-9763214D02*
G75*
G02*
X10496787Y-9763214I150000J0D01*
G01*
X10586787Y-5033214D02*
G75*
G02*
X10286787Y-5033214I-150000J0D01*
G01*
X10286787Y-5033214D02*
G75*
G02*
X10586787Y-5033214I150000J0D01*
G01*
X10586787Y-6733213D02*
G75*
G02*
X10286787Y-6733213I-150000J0D01*
G01*
X10286787Y-6733213D02*
G75*
G02*
X10586787Y-6733213I150000J0D01*
G01*
X10586787Y-8433214D02*
G75*
G02*
X10286787Y-8433214I-150000J0D01*
G01*
X10286787Y-8433214D02*
G75*
G02*
X10586787Y-8433214I150000J0D01*
G01*
X10716787Y-9263214D02*
G75*
G02*
X10416787Y-9263214I-150000J0D01*
G01*
X10416787Y-9263214D02*
G75*
G02*
X10716787Y-9263214I150000J0D01*
G01*
X11086787Y-5253214D02*
G75*
G02*
X10786787Y-5253214I-150000J0D01*
G01*
X10786787Y-5253214D02*
G75*
G02*
X11086787Y-5253214I150000J0D01*
G01*
X11086787Y-6953213D02*
G75*
G02*
X10786787Y-6953213I-150000J0D01*
G01*
X10786787Y-6953213D02*
G75*
G02*
X11086787Y-6953213I150000J0D01*
G01*
X11086787Y-8653214D02*
G75*
G02*
X10786787Y-8653214I-150000J0D01*
G01*
X10786787Y-8653214D02*
G75*
G02*
X11086787Y-8653214I150000J0D01*
G01*
D14*
X2436787Y-4423214D02*
X2436787Y-4903214D01*
X2196787Y-4663214D02*
X2676787Y-4663214D01*
X2436787Y-6123213D02*
X2436787Y-6603213D01*
X2196787Y-6363213D02*
X2676787Y-6363213D01*
X2436787Y-7823213D02*
X2436787Y-8303213D01*
X2196787Y-8063213D02*
X2676787Y-8063213D01*
X2436787Y-9523214D02*
X2436787Y-10003214D01*
X2196787Y-9763214D02*
X2676787Y-9763214D01*
X4136786Y-3603213D02*
X4136786Y-4083213D01*
X3896786Y-3843213D02*
X4376787Y-3843213D01*
X4136786Y-5303214D02*
X4136786Y-5783213D01*
X3896786Y-5543214D02*
X4376787Y-5543214D01*
X4136786Y-7003213D02*
X4136786Y-7483213D01*
X3896786Y-7243213D02*
X4376787Y-7243213D01*
X4136786Y-8703214D02*
X4136786Y-9183214D01*
X3896786Y-8943214D02*
X4376787Y-8943214D01*
X5836786Y-3293213D02*
X5836786Y-3773213D01*
X5596786Y-3533213D02*
X6076786Y-3533213D01*
X5836786Y-4993214D02*
X5836786Y-5473214D01*
X5596786Y-5233214D02*
X6076786Y-5233214D01*
X5836786Y-6693213D02*
X5836786Y-7173213D01*
X5596786Y-6933213D02*
X6076786Y-6933213D01*
X5836786Y-8393214D02*
X5836786Y-8873214D01*
X5596786Y-8633214D02*
X6076786Y-8633214D01*
X7536786Y-3603213D02*
X7536786Y-4083213D01*
X7296786Y-3843213D02*
X7776786Y-3843213D01*
X7536786Y-5303214D02*
X7536786Y-5783213D01*
X7296786Y-5543214D02*
X7776786Y-5543214D01*
X7536786Y-7003213D02*
X7536786Y-7483213D01*
X7296786Y-7243213D02*
X7776786Y-7243213D01*
X7536786Y-8703214D02*
X7536786Y-9183214D01*
X7296786Y-8943214D02*
X7776786Y-8943214D01*
X9235537Y-3840713D02*
X9235537Y-4320714D01*
X8995537Y-4080713D02*
X9475537Y-4080713D01*
X9236787Y-5543214D02*
X9236787Y-6023213D01*
X8996787Y-5783213D02*
X9476787Y-5783213D01*
X9236787Y-7243213D02*
X9236787Y-7723213D01*
X8996787Y-7483213D02*
X9476787Y-7483213D01*
X9236787Y-8943214D02*
X9236787Y-9423214D01*
X8996787Y-9183214D02*
X9476787Y-9183214D01*
X10936787Y-4423214D02*
X10936787Y-4903214D01*
X10696787Y-4663214D02*
X11176787Y-4663214D01*
X10936787Y-6123213D02*
X10936787Y-6603213D01*
X10696787Y-6363213D02*
X11176787Y-6363213D01*
X10936787Y-7823213D02*
X10936787Y-8303213D01*
X10696787Y-8063213D02*
X11176787Y-8063213D01*
X10936787Y-9523214D02*
X10936787Y-10003214D01*
X10696787Y-9763214D02*
X11176787Y-9763214D01*
D11*
X1985063Y-10907197D02*
X1985063Y-10707197D01*
X1985063Y-10707197D02*
X2032682Y-10707197D01*
X2032682Y-10707197D02*
X2061254Y-10716721D01*
X2061254Y-10716721D02*
X2080301Y-10735769D01*
X2080301Y-10735769D02*
X2089825Y-10754816D01*
X2089825Y-10754816D02*
X2099349Y-10792912D01*
X2099349Y-10792912D02*
X2099349Y-10821483D01*
X2099349Y-10821483D02*
X2089825Y-10859578D01*
X2089825Y-10859578D02*
X2080301Y-10878626D01*
X2080301Y-10878626D02*
X2061254Y-10897674D01*
X2061254Y-10897674D02*
X2032682Y-10907197D01*
X2032682Y-10907197D02*
X1985063Y-10907197D01*
X2185063Y-10907197D02*
X2185063Y-10773864D01*
X2185063Y-10811959D02*
X2194587Y-10792912D01*
X2194587Y-10792912D02*
X2204111Y-10783388D01*
X2204111Y-10783388D02*
X2223159Y-10773864D01*
X2223159Y-10773864D02*
X2242206Y-10773864D01*
X2308873Y-10907197D02*
X2308873Y-10773864D01*
X2308873Y-10707197D02*
X2299349Y-10716721D01*
X2299349Y-10716721D02*
X2308873Y-10726245D01*
X2308873Y-10726245D02*
X2318397Y-10716721D01*
X2318397Y-10716721D02*
X2308873Y-10707197D01*
X2308873Y-10707197D02*
X2308873Y-10726245D01*
X2432682Y-10907197D02*
X2413635Y-10897674D01*
X2413635Y-10897674D02*
X2404111Y-10878626D01*
X2404111Y-10878626D02*
X2404111Y-10707197D01*
X2537444Y-10907197D02*
X2518397Y-10897674D01*
X2518397Y-10897674D02*
X2508873Y-10878626D01*
X2508873Y-10878626D02*
X2508873Y-10707197D01*
X2766016Y-10907197D02*
X2766016Y-10707197D01*
X2766016Y-10707197D02*
X2832682Y-10850054D01*
X2832682Y-10850054D02*
X2899349Y-10707197D01*
X2899349Y-10707197D02*
X2899349Y-10907197D01*
X3080301Y-10907197D02*
X3080301Y-10802435D01*
X3080301Y-10802435D02*
X3070778Y-10783388D01*
X3070778Y-10783388D02*
X3051730Y-10773864D01*
X3051730Y-10773864D02*
X3013635Y-10773864D01*
X3013635Y-10773864D02*
X2994587Y-10783388D01*
X3080301Y-10897674D02*
X3061254Y-10907197D01*
X3061254Y-10907197D02*
X3013635Y-10907197D01*
X3013635Y-10907197D02*
X2994587Y-10897674D01*
X2994587Y-10897674D02*
X2985063Y-10878626D01*
X2985063Y-10878626D02*
X2985063Y-10859578D01*
X2985063Y-10859578D02*
X2994587Y-10840531D01*
X2994587Y-10840531D02*
X3013635Y-10831007D01*
X3013635Y-10831007D02*
X3061254Y-10831007D01*
X3061254Y-10831007D02*
X3080301Y-10821483D01*
X3175539Y-10773864D02*
X3175539Y-10973864D01*
X3175539Y-10783388D02*
X3194587Y-10773864D01*
X3194587Y-10773864D02*
X3232682Y-10773864D01*
X3232682Y-10773864D02*
X3251730Y-10783388D01*
X3251730Y-10783388D02*
X3261254Y-10792912D01*
X3261254Y-10792912D02*
X3270778Y-10811959D01*
X3270778Y-10811959D02*
X3270778Y-10869102D01*
X3270778Y-10869102D02*
X3261254Y-10888150D01*
X3261254Y-10888150D02*
X3251730Y-10897674D01*
X3251730Y-10897674D02*
X3232682Y-10907197D01*
X3232682Y-10907197D02*
X3194587Y-10907197D01*
X3194587Y-10907197D02*
X3175539Y-10897674D01*
X3356492Y-10888150D02*
X3366016Y-10897674D01*
X3366016Y-10897674D02*
X3356492Y-10907197D01*
X3356492Y-10907197D02*
X3346968Y-10897674D01*
X3346968Y-10897674D02*
X3356492Y-10888150D01*
X3356492Y-10888150D02*
X3356492Y-10907197D01*
X3356492Y-10783388D02*
X3366016Y-10792912D01*
X3366016Y-10792912D02*
X3356492Y-10802435D01*
X3356492Y-10802435D02*
X3346968Y-10792912D01*
X3346968Y-10792912D02*
X3356492Y-10783388D01*
X3356492Y-10783388D02*
X3356492Y-10802435D01*
X1524286Y-11135714D02*
X1724286Y-11335713D01*
X1724286Y-11135714D02*
X1524286Y-11335713D01*
X1975539Y-11146245D02*
X1985063Y-11136721D01*
X1985063Y-11136721D02*
X2004111Y-11127197D01*
X2004111Y-11127197D02*
X2051730Y-11127197D01*
X2051730Y-11127197D02*
X2070778Y-11136721D01*
X2070778Y-11136721D02*
X2080301Y-11146245D01*
X2080301Y-11146245D02*
X2089825Y-11165293D01*
X2089825Y-11165293D02*
X2089825Y-11184340D01*
X2089825Y-11184340D02*
X2080301Y-11212911D01*
X2080301Y-11212911D02*
X1966016Y-11327197D01*
X1966016Y-11327197D02*
X2089825Y-11327197D01*
X2175540Y-11308150D02*
X2185063Y-11317673D01*
X2185063Y-11317673D02*
X2175540Y-11327197D01*
X2175540Y-11327197D02*
X2166016Y-11317673D01*
X2166016Y-11317673D02*
X2175540Y-11308150D01*
X2175540Y-11308150D02*
X2175540Y-11327197D01*
X2261254Y-11146245D02*
X2270778Y-11136721D01*
X2270778Y-11136721D02*
X2289825Y-11127197D01*
X2289825Y-11127197D02*
X2337444Y-11127197D01*
X2337444Y-11127197D02*
X2356492Y-11136721D01*
X2356492Y-11136721D02*
X2366016Y-11146245D01*
X2366016Y-11146245D02*
X2375540Y-11165293D01*
X2375540Y-11165293D02*
X2375540Y-11184340D01*
X2375540Y-11184340D02*
X2366016Y-11212911D01*
X2366016Y-11212911D02*
X2251730Y-11327197D01*
X2251730Y-11327197D02*
X2375540Y-11327197D01*
X2499349Y-11127197D02*
X2518397Y-11127197D01*
X2518397Y-11127197D02*
X2537444Y-11136721D01*
X2537444Y-11136721D02*
X2546968Y-11146245D01*
X2546968Y-11146245D02*
X2556492Y-11165293D01*
X2556492Y-11165293D02*
X2566016Y-11203388D01*
X2566016Y-11203388D02*
X2566016Y-11251007D01*
X2566016Y-11251007D02*
X2556492Y-11289102D01*
X2556492Y-11289102D02*
X2546968Y-11308150D01*
X2546968Y-11308150D02*
X2537444Y-11317673D01*
X2537444Y-11317673D02*
X2518397Y-11327197D01*
X2518397Y-11327197D02*
X2499349Y-11327197D01*
X2499349Y-11327197D02*
X2480301Y-11317673D01*
X2480301Y-11317673D02*
X2470778Y-11308150D01*
X2470778Y-11308150D02*
X2461254Y-11289102D01*
X2461254Y-11289102D02*
X2451730Y-11251007D01*
X2451730Y-11251007D02*
X2451730Y-11203388D01*
X2451730Y-11203388D02*
X2461254Y-11165293D01*
X2461254Y-11165293D02*
X2470778Y-11146245D01*
X2470778Y-11146245D02*
X2480301Y-11136721D01*
X2480301Y-11136721D02*
X2499349Y-11127197D01*
X2689825Y-11127197D02*
X2708873Y-11127197D01*
X2708873Y-11127197D02*
X2727921Y-11136721D01*
X2727921Y-11136721D02*
X2737444Y-11146245D01*
X2737444Y-11146245D02*
X2746968Y-11165293D01*
X2746968Y-11165293D02*
X2756492Y-11203388D01*
X2756492Y-11203388D02*
X2756492Y-11251007D01*
X2756492Y-11251007D02*
X2746968Y-11289102D01*
X2746968Y-11289102D02*
X2737444Y-11308150D01*
X2737444Y-11308150D02*
X2727921Y-11317673D01*
X2727921Y-11317673D02*
X2708873Y-11327197D01*
X2708873Y-11327197D02*
X2689825Y-11327197D01*
X2689825Y-11327197D02*
X2670778Y-11317673D01*
X2670778Y-11317673D02*
X2661254Y-11308150D01*
X2661254Y-11308150D02*
X2651730Y-11289102D01*
X2651730Y-11289102D02*
X2642206Y-11251007D01*
X2642206Y-11251007D02*
X2642206Y-11203388D01*
X2642206Y-11203388D02*
X2651730Y-11165293D01*
X2651730Y-11165293D02*
X2661254Y-11146245D01*
X2661254Y-11146245D02*
X2670778Y-11136721D01*
X2670778Y-11136721D02*
X2689825Y-11127197D01*
X2842206Y-11327197D02*
X2842206Y-11193864D01*
X2842206Y-11212911D02*
X2851730Y-11203388D01*
X2851730Y-11203388D02*
X2870778Y-11193864D01*
X2870778Y-11193864D02*
X2899349Y-11193864D01*
X2899349Y-11193864D02*
X2918397Y-11203388D01*
X2918397Y-11203388D02*
X2927920Y-11222435D01*
X2927920Y-11222435D02*
X2927920Y-11327197D01*
X2927920Y-11222435D02*
X2937444Y-11203388D01*
X2937444Y-11203388D02*
X2956492Y-11193864D01*
X2956492Y-11193864D02*
X2985063Y-11193864D01*
X2985063Y-11193864D02*
X3004111Y-11203388D01*
X3004111Y-11203388D02*
X3013635Y-11222435D01*
X3013635Y-11222435D02*
X3013635Y-11327197D01*
X3108873Y-11327197D02*
X3108873Y-11193864D01*
X3108873Y-11212911D02*
X3118397Y-11203388D01*
X3118397Y-11203388D02*
X3137444Y-11193864D01*
X3137444Y-11193864D02*
X3166016Y-11193864D01*
X3166016Y-11193864D02*
X3185063Y-11203388D01*
X3185063Y-11203388D02*
X3194587Y-11222435D01*
X3194587Y-11222435D02*
X3194587Y-11327197D01*
X3194587Y-11222435D02*
X3204111Y-11203388D01*
X3204111Y-11203388D02*
X3223159Y-11193864D01*
X3223159Y-11193864D02*
X3251730Y-11193864D01*
X3251730Y-11193864D02*
X3270778Y-11203388D01*
X3270778Y-11203388D02*
X3280301Y-11222435D01*
X3280301Y-11222435D02*
X3280301Y-11327197D01*
X3670778Y-11117674D02*
X3499349Y-11374816D01*
X3927921Y-11127197D02*
X3946968Y-11127197D01*
X3946968Y-11127197D02*
X3966016Y-11136721D01*
X3966016Y-11136721D02*
X3975540Y-11146245D01*
X3975540Y-11146245D02*
X3985063Y-11165293D01*
X3985063Y-11165293D02*
X3994587Y-11203388D01*
X3994587Y-11203388D02*
X3994587Y-11251007D01*
X3994587Y-11251007D02*
X3985063Y-11289102D01*
X3985063Y-11289102D02*
X3975540Y-11308150D01*
X3975540Y-11308150D02*
X3966016Y-11317673D01*
X3966016Y-11317673D02*
X3946968Y-11327197D01*
X3946968Y-11327197D02*
X3927921Y-11327197D01*
X3927921Y-11327197D02*
X3908873Y-11317673D01*
X3908873Y-11317673D02*
X3899349Y-11308150D01*
X3899349Y-11308150D02*
X3889825Y-11289102D01*
X3889825Y-11289102D02*
X3880302Y-11251007D01*
X3880302Y-11251007D02*
X3880302Y-11203388D01*
X3880302Y-11203388D02*
X3889825Y-11165293D01*
X3889825Y-11165293D02*
X3899349Y-11146245D01*
X3899349Y-11146245D02*
X3908873Y-11136721D01*
X3908873Y-11136721D02*
X3927921Y-11127197D01*
X4080302Y-11308150D02*
X4089825Y-11317673D01*
X4089825Y-11317673D02*
X4080302Y-11327197D01*
X4080302Y-11327197D02*
X4070778Y-11317673D01*
X4070778Y-11317673D02*
X4080302Y-11308150D01*
X4080302Y-11308150D02*
X4080302Y-11327197D01*
X4213635Y-11127197D02*
X4232683Y-11127197D01*
X4232683Y-11127197D02*
X4251730Y-11136721D01*
X4251730Y-11136721D02*
X4261254Y-11146245D01*
X4261254Y-11146245D02*
X4270778Y-11165293D01*
X4270778Y-11165293D02*
X4280302Y-11203388D01*
X4280302Y-11203388D02*
X4280302Y-11251007D01*
X4280302Y-11251007D02*
X4270778Y-11289102D01*
X4270778Y-11289102D02*
X4261254Y-11308150D01*
X4261254Y-11308150D02*
X4251730Y-11317673D01*
X4251730Y-11317673D02*
X4232683Y-11327197D01*
X4232683Y-11327197D02*
X4213635Y-11327197D01*
X4213635Y-11327197D02*
X4194587Y-11317673D01*
X4194587Y-11317673D02*
X4185063Y-11308150D01*
X4185063Y-11308150D02*
X4175540Y-11289102D01*
X4175540Y-11289102D02*
X4166016Y-11251007D01*
X4166016Y-11251007D02*
X4166016Y-11203388D01*
X4166016Y-11203388D02*
X4175540Y-11165293D01*
X4175540Y-11165293D02*
X4185063Y-11146245D01*
X4185063Y-11146245D02*
X4194587Y-11136721D01*
X4194587Y-11136721D02*
X4213635Y-11127197D01*
X4394587Y-11212911D02*
X4375540Y-11203388D01*
X4375540Y-11203388D02*
X4366016Y-11193864D01*
X4366016Y-11193864D02*
X4356492Y-11174816D01*
X4356492Y-11174816D02*
X4356492Y-11165293D01*
X4356492Y-11165293D02*
X4366016Y-11146245D01*
X4366016Y-11146245D02*
X4375540Y-11136721D01*
X4375540Y-11136721D02*
X4394587Y-11127197D01*
X4394587Y-11127197D02*
X4432683Y-11127197D01*
X4432683Y-11127197D02*
X4451730Y-11136721D01*
X4451730Y-11136721D02*
X4461254Y-11146245D01*
X4461254Y-11146245D02*
X4470778Y-11165293D01*
X4470778Y-11165293D02*
X4470778Y-11174816D01*
X4470778Y-11174816D02*
X4461254Y-11193864D01*
X4461254Y-11193864D02*
X4451730Y-11203388D01*
X4451730Y-11203388D02*
X4432683Y-11212911D01*
X4432683Y-11212911D02*
X4394587Y-11212911D01*
X4394587Y-11212911D02*
X4375540Y-11222435D01*
X4375540Y-11222435D02*
X4366016Y-11231959D01*
X4366016Y-11231959D02*
X4356492Y-11251007D01*
X4356492Y-11251007D02*
X4356492Y-11289102D01*
X4356492Y-11289102D02*
X4366016Y-11308150D01*
X4366016Y-11308150D02*
X4375540Y-11317673D01*
X4375540Y-11317673D02*
X4394587Y-11327197D01*
X4394587Y-11327197D02*
X4432683Y-11327197D01*
X4432683Y-11327197D02*
X4451730Y-11317673D01*
X4451730Y-11317673D02*
X4461254Y-11308150D01*
X4461254Y-11308150D02*
X4470778Y-11289102D01*
X4470778Y-11289102D02*
X4470778Y-11251007D01*
X4470778Y-11251007D02*
X4461254Y-11231959D01*
X4461254Y-11231959D02*
X4451730Y-11222435D01*
X4451730Y-11222435D02*
X4432683Y-11212911D01*
X4642206Y-11127197D02*
X4604111Y-11127197D01*
X4604111Y-11127197D02*
X4585064Y-11136721D01*
X4585064Y-11136721D02*
X4575540Y-11146245D01*
X4575540Y-11146245D02*
X4556492Y-11174816D01*
X4556492Y-11174816D02*
X4546968Y-11212911D01*
X4546968Y-11212911D02*
X4546968Y-11289102D01*
X4546968Y-11289102D02*
X4556492Y-11308150D01*
X4556492Y-11308150D02*
X4566016Y-11317673D01*
X4566016Y-11317673D02*
X4585064Y-11327197D01*
X4585064Y-11327197D02*
X4623159Y-11327197D01*
X4623159Y-11327197D02*
X4642206Y-11317673D01*
X4642206Y-11317673D02*
X4651730Y-11308150D01*
X4651730Y-11308150D02*
X4661254Y-11289102D01*
X4661254Y-11289102D02*
X4661254Y-11241483D01*
X4661254Y-11241483D02*
X4651730Y-11222435D01*
X4651730Y-11222435D02*
X4642206Y-11212911D01*
X4642206Y-11212911D02*
X4623159Y-11203388D01*
X4623159Y-11203388D02*
X4585064Y-11203388D01*
X4585064Y-11203388D02*
X4566016Y-11212911D01*
X4566016Y-11212911D02*
X4556492Y-11222435D01*
X4556492Y-11222435D02*
X4546968Y-11241483D01*
X4832683Y-11127197D02*
X4794587Y-11127197D01*
X4794587Y-11127197D02*
X4775540Y-11136721D01*
X4775540Y-11136721D02*
X4766016Y-11146245D01*
X4766016Y-11146245D02*
X4746968Y-11174816D01*
X4746968Y-11174816D02*
X4737445Y-11212911D01*
X4737445Y-11212911D02*
X4737445Y-11289102D01*
X4737445Y-11289102D02*
X4746968Y-11308150D01*
X4746968Y-11308150D02*
X4756492Y-11317673D01*
X4756492Y-11317673D02*
X4775540Y-11327197D01*
X4775540Y-11327197D02*
X4813635Y-11327197D01*
X4813635Y-11327197D02*
X4832683Y-11317673D01*
X4832683Y-11317673D02*
X4842206Y-11308150D01*
X4842206Y-11308150D02*
X4851730Y-11289102D01*
X4851730Y-11289102D02*
X4851730Y-11241483D01*
X4851730Y-11241483D02*
X4842206Y-11222435D01*
X4842206Y-11222435D02*
X4832683Y-11212911D01*
X4832683Y-11212911D02*
X4813635Y-11203388D01*
X4813635Y-11203388D02*
X4775540Y-11203388D01*
X4775540Y-11203388D02*
X4756492Y-11212911D01*
X4756492Y-11212911D02*
X4746968Y-11222435D01*
X4746968Y-11222435D02*
X4737445Y-11241483D01*
X4927921Y-11127197D02*
X4927921Y-11165293D01*
X5004111Y-11127197D02*
X5004111Y-11165293D01*
X5299349Y-11403388D02*
X5289826Y-11393864D01*
X5289826Y-11393864D02*
X5270778Y-11365292D01*
X5270778Y-11365292D02*
X5261254Y-11346245D01*
X5261254Y-11346245D02*
X5251730Y-11317673D01*
X5251730Y-11317673D02*
X5242207Y-11270054D01*
X5242207Y-11270054D02*
X5242207Y-11231959D01*
X5242207Y-11231959D02*
X5251730Y-11184340D01*
X5251730Y-11184340D02*
X5261254Y-11155769D01*
X5261254Y-11155769D02*
X5270778Y-11136721D01*
X5270778Y-11136721D02*
X5289826Y-11108150D01*
X5289826Y-11108150D02*
X5299349Y-11098626D01*
X5461254Y-11193864D02*
X5461254Y-11327197D01*
X5413635Y-11117674D02*
X5366016Y-11260531D01*
X5366016Y-11260531D02*
X5489826Y-11260531D01*
X5718397Y-11327197D02*
X5718397Y-11127197D01*
X5804111Y-11327197D02*
X5804111Y-11222435D01*
X5804111Y-11222435D02*
X5794587Y-11203388D01*
X5794587Y-11203388D02*
X5775540Y-11193864D01*
X5775540Y-11193864D02*
X5746968Y-11193864D01*
X5746968Y-11193864D02*
X5727921Y-11203388D01*
X5727921Y-11203388D02*
X5718397Y-11212911D01*
X5927921Y-11327197D02*
X5908873Y-11317673D01*
X5908873Y-11317673D02*
X5899349Y-11308150D01*
X5899349Y-11308150D02*
X5889826Y-11289102D01*
X5889826Y-11289102D02*
X5889826Y-11231959D01*
X5889826Y-11231959D02*
X5899349Y-11212911D01*
X5899349Y-11212911D02*
X5908873Y-11203388D01*
X5908873Y-11203388D02*
X5927921Y-11193864D01*
X5927921Y-11193864D02*
X5956492Y-11193864D01*
X5956492Y-11193864D02*
X5975540Y-11203388D01*
X5975540Y-11203388D02*
X5985064Y-11212911D01*
X5985064Y-11212911D02*
X5994587Y-11231959D01*
X5994587Y-11231959D02*
X5994587Y-11289102D01*
X5994587Y-11289102D02*
X5985064Y-11308150D01*
X5985064Y-11308150D02*
X5975540Y-11317673D01*
X5975540Y-11317673D02*
X5956492Y-11327197D01*
X5956492Y-11327197D02*
X5927921Y-11327197D01*
X6108873Y-11327197D02*
X6089826Y-11317673D01*
X6089826Y-11317673D02*
X6080302Y-11298626D01*
X6080302Y-11298626D02*
X6080302Y-11127197D01*
X6261254Y-11317673D02*
X6242207Y-11327197D01*
X6242207Y-11327197D02*
X6204111Y-11327197D01*
X6204111Y-11327197D02*
X6185064Y-11317673D01*
X6185064Y-11317673D02*
X6175540Y-11298626D01*
X6175540Y-11298626D02*
X6175540Y-11222435D01*
X6175540Y-11222435D02*
X6185064Y-11203388D01*
X6185064Y-11203388D02*
X6204111Y-11193864D01*
X6204111Y-11193864D02*
X6242207Y-11193864D01*
X6242207Y-11193864D02*
X6261254Y-11203388D01*
X6261254Y-11203388D02*
X6270778Y-11222435D01*
X6270778Y-11222435D02*
X6270778Y-11241483D01*
X6270778Y-11241483D02*
X6175540Y-11260531D01*
X6346968Y-11317673D02*
X6366016Y-11327197D01*
X6366016Y-11327197D02*
X6404111Y-11327197D01*
X6404111Y-11327197D02*
X6423159Y-11317673D01*
X6423159Y-11317673D02*
X6432683Y-11298626D01*
X6432683Y-11298626D02*
X6432683Y-11289102D01*
X6432683Y-11289102D02*
X6423159Y-11270054D01*
X6423159Y-11270054D02*
X6404111Y-11260531D01*
X6404111Y-11260531D02*
X6375540Y-11260531D01*
X6375540Y-11260531D02*
X6356492Y-11251007D01*
X6356492Y-11251007D02*
X6346968Y-11231959D01*
X6346968Y-11231959D02*
X6346968Y-11222435D01*
X6346968Y-11222435D02*
X6356492Y-11203388D01*
X6356492Y-11203388D02*
X6375540Y-11193864D01*
X6375540Y-11193864D02*
X6404111Y-11193864D01*
X6404111Y-11193864D02*
X6423159Y-11203388D01*
X6499349Y-11403388D02*
X6508873Y-11393864D01*
X6508873Y-11393864D02*
X6527921Y-11365292D01*
X6527921Y-11365292D02*
X6537445Y-11346245D01*
X6537445Y-11346245D02*
X6546968Y-11317673D01*
X6546968Y-11317673D02*
X6556492Y-11270054D01*
X6556492Y-11270054D02*
X6556492Y-11231959D01*
X6556492Y-11231959D02*
X6546968Y-11184340D01*
X6546968Y-11184340D02*
X6537445Y-11155769D01*
X6537445Y-11155769D02*
X6527921Y-11136721D01*
X6527921Y-11136721D02*
X6508873Y-11108150D01*
X6508873Y-11108150D02*
X6499349Y-11098626D01*
X6861254Y-11403388D02*
X6851730Y-11393864D01*
X6851730Y-11393864D02*
X6832683Y-11365292D01*
X6832683Y-11365292D02*
X6823159Y-11346245D01*
X6823159Y-11346245D02*
X6813635Y-11317673D01*
X6813635Y-11317673D02*
X6804111Y-11270054D01*
X6804111Y-11270054D02*
X6804111Y-11231959D01*
X6804111Y-11231959D02*
X6813635Y-11184340D01*
X6813635Y-11184340D02*
X6823159Y-11155769D01*
X6823159Y-11155769D02*
X6832683Y-11136721D01*
X6832683Y-11136721D02*
X6851730Y-11108150D01*
X6851730Y-11108150D02*
X6861254Y-11098626D01*
X6937445Y-11193864D02*
X6937445Y-11327197D01*
X6937445Y-11212911D02*
X6946968Y-11203388D01*
X6946968Y-11203388D02*
X6966016Y-11193864D01*
X6966016Y-11193864D02*
X6994588Y-11193864D01*
X6994588Y-11193864D02*
X7013635Y-11203388D01*
X7013635Y-11203388D02*
X7023159Y-11222435D01*
X7023159Y-11222435D02*
X7023159Y-11327197D01*
X7146968Y-11327197D02*
X7127921Y-11317673D01*
X7127921Y-11317673D02*
X7118397Y-11308150D01*
X7118397Y-11308150D02*
X7108873Y-11289102D01*
X7108873Y-11289102D02*
X7108873Y-11231959D01*
X7108873Y-11231959D02*
X7118397Y-11212911D01*
X7118397Y-11212911D02*
X7127921Y-11203388D01*
X7127921Y-11203388D02*
X7146968Y-11193864D01*
X7146968Y-11193864D02*
X7175540Y-11193864D01*
X7175540Y-11193864D02*
X7194588Y-11203388D01*
X7194588Y-11203388D02*
X7204111Y-11212911D01*
X7204111Y-11212911D02*
X7213635Y-11231959D01*
X7213635Y-11231959D02*
X7213635Y-11289102D01*
X7213635Y-11289102D02*
X7204111Y-11308150D01*
X7204111Y-11308150D02*
X7194588Y-11317673D01*
X7194588Y-11317673D02*
X7175540Y-11327197D01*
X7175540Y-11327197D02*
X7146968Y-11327197D01*
X7270778Y-11193864D02*
X7346968Y-11193864D01*
X7299349Y-11127197D02*
X7299349Y-11298626D01*
X7299349Y-11298626D02*
X7308873Y-11317673D01*
X7308873Y-11317673D02*
X7327921Y-11327197D01*
X7327921Y-11327197D02*
X7346968Y-11327197D01*
X7566016Y-11193864D02*
X7566016Y-11393864D01*
X7566016Y-11203388D02*
X7585064Y-11193864D01*
X7585064Y-11193864D02*
X7623159Y-11193864D01*
X7623159Y-11193864D02*
X7642207Y-11203388D01*
X7642207Y-11203388D02*
X7651730Y-11212911D01*
X7651730Y-11212911D02*
X7661254Y-11231959D01*
X7661254Y-11231959D02*
X7661254Y-11289102D01*
X7661254Y-11289102D02*
X7651730Y-11308150D01*
X7651730Y-11308150D02*
X7642207Y-11317673D01*
X7642207Y-11317673D02*
X7623159Y-11327197D01*
X7623159Y-11327197D02*
X7585064Y-11327197D01*
X7585064Y-11327197D02*
X7566016Y-11317673D01*
X7775540Y-11327197D02*
X7756492Y-11317673D01*
X7756492Y-11317673D02*
X7746969Y-11298626D01*
X7746969Y-11298626D02*
X7746969Y-11127197D01*
X7937445Y-11327197D02*
X7937445Y-11222435D01*
X7937445Y-11222435D02*
X7927921Y-11203388D01*
X7927921Y-11203388D02*
X7908873Y-11193864D01*
X7908873Y-11193864D02*
X7870778Y-11193864D01*
X7870778Y-11193864D02*
X7851730Y-11203388D01*
X7937445Y-11317673D02*
X7918397Y-11327197D01*
X7918397Y-11327197D02*
X7870778Y-11327197D01*
X7870778Y-11327197D02*
X7851730Y-11317673D01*
X7851730Y-11317673D02*
X7842207Y-11298626D01*
X7842207Y-11298626D02*
X7842207Y-11279578D01*
X7842207Y-11279578D02*
X7851730Y-11260531D01*
X7851730Y-11260531D02*
X7870778Y-11251007D01*
X7870778Y-11251007D02*
X7918397Y-11251007D01*
X7918397Y-11251007D02*
X7937445Y-11241483D01*
X8004111Y-11193864D02*
X8080302Y-11193864D01*
X8032683Y-11127197D02*
X8032683Y-11298626D01*
X8032683Y-11298626D02*
X8042207Y-11317673D01*
X8042207Y-11317673D02*
X8061254Y-11327197D01*
X8061254Y-11327197D02*
X8080302Y-11327197D01*
X8223159Y-11317673D02*
X8204111Y-11327197D01*
X8204111Y-11327197D02*
X8166016Y-11327197D01*
X8166016Y-11327197D02*
X8146969Y-11317673D01*
X8146969Y-11317673D02*
X8137445Y-11298626D01*
X8137445Y-11298626D02*
X8137445Y-11222435D01*
X8137445Y-11222435D02*
X8146969Y-11203388D01*
X8146969Y-11203388D02*
X8166016Y-11193864D01*
X8166016Y-11193864D02*
X8204111Y-11193864D01*
X8204111Y-11193864D02*
X8223159Y-11203388D01*
X8223159Y-11203388D02*
X8232683Y-11222435D01*
X8232683Y-11222435D02*
X8232683Y-11241483D01*
X8232683Y-11241483D02*
X8137445Y-11260531D01*
X8404112Y-11327197D02*
X8404112Y-11127197D01*
X8404112Y-11317673D02*
X8385064Y-11327197D01*
X8385064Y-11327197D02*
X8346969Y-11327197D01*
X8346969Y-11327197D02*
X8327921Y-11317673D01*
X8327921Y-11317673D02*
X8318397Y-11308150D01*
X8318397Y-11308150D02*
X8308873Y-11289102D01*
X8308873Y-11289102D02*
X8308873Y-11231959D01*
X8308873Y-11231959D02*
X8318397Y-11212911D01*
X8318397Y-11212911D02*
X8327921Y-11203388D01*
X8327921Y-11203388D02*
X8346969Y-11193864D01*
X8346969Y-11193864D02*
X8385064Y-11193864D01*
X8385064Y-11193864D02*
X8404112Y-11203388D01*
X8480302Y-11403388D02*
X8489826Y-11393864D01*
X8489826Y-11393864D02*
X8508873Y-11365292D01*
X8508873Y-11365292D02*
X8518397Y-11346245D01*
X8518397Y-11346245D02*
X8527921Y-11317673D01*
X8527921Y-11317673D02*
X8537445Y-11270054D01*
X8537445Y-11270054D02*
X8537445Y-11231959D01*
X8537445Y-11231959D02*
X8527921Y-11184340D01*
X8527921Y-11184340D02*
X8518397Y-11155769D01*
X8518397Y-11155769D02*
X8508873Y-11136721D01*
X8508873Y-11136721D02*
X8489826Y-11108150D01*
X8489826Y-11108150D02*
X8480302Y-11098626D01*
X1724286Y-11555713D02*
G75*
G02*
X1524286Y-11555713I-100000J0D01*
G01*
X1524286Y-11555713D02*
G75*
G02*
X1724286Y-11555713I100000J0D01*
G01*
X1966016Y-11447197D02*
X2089825Y-11447197D01*
X2089825Y-11447197D02*
X2023158Y-11523388D01*
X2023158Y-11523388D02*
X2051730Y-11523388D01*
X2051730Y-11523388D02*
X2070778Y-11532911D01*
X2070778Y-11532911D02*
X2080301Y-11542435D01*
X2080301Y-11542435D02*
X2089825Y-11561483D01*
X2089825Y-11561483D02*
X2089825Y-11609102D01*
X2089825Y-11609102D02*
X2080301Y-11628150D01*
X2080301Y-11628150D02*
X2070778Y-11637673D01*
X2070778Y-11637673D02*
X2051730Y-11647197D01*
X2051730Y-11647197D02*
X1994587Y-11647197D01*
X1994587Y-11647197D02*
X1975539Y-11637673D01*
X1975539Y-11637673D02*
X1966016Y-11628150D01*
X2175540Y-11628150D02*
X2185063Y-11637673D01*
X2185063Y-11637673D02*
X2175540Y-11647197D01*
X2175540Y-11647197D02*
X2166016Y-11637673D01*
X2166016Y-11637673D02*
X2175540Y-11628150D01*
X2175540Y-11628150D02*
X2175540Y-11647197D01*
X2308873Y-11447197D02*
X2327921Y-11447197D01*
X2327921Y-11447197D02*
X2346968Y-11456721D01*
X2346968Y-11456721D02*
X2356492Y-11466245D01*
X2356492Y-11466245D02*
X2366016Y-11485292D01*
X2366016Y-11485292D02*
X2375540Y-11523388D01*
X2375540Y-11523388D02*
X2375540Y-11571007D01*
X2375540Y-11571007D02*
X2366016Y-11609102D01*
X2366016Y-11609102D02*
X2356492Y-11628150D01*
X2356492Y-11628150D02*
X2346968Y-11637673D01*
X2346968Y-11637673D02*
X2327921Y-11647197D01*
X2327921Y-11647197D02*
X2308873Y-11647197D01*
X2308873Y-11647197D02*
X2289825Y-11637673D01*
X2289825Y-11637673D02*
X2280301Y-11628150D01*
X2280301Y-11628150D02*
X2270778Y-11609102D01*
X2270778Y-11609102D02*
X2261254Y-11571007D01*
X2261254Y-11571007D02*
X2261254Y-11523388D01*
X2261254Y-11523388D02*
X2270778Y-11485292D01*
X2270778Y-11485292D02*
X2280301Y-11466245D01*
X2280301Y-11466245D02*
X2289825Y-11456721D01*
X2289825Y-11456721D02*
X2308873Y-11447197D01*
X2499349Y-11447197D02*
X2518397Y-11447197D01*
X2518397Y-11447197D02*
X2537444Y-11456721D01*
X2537444Y-11456721D02*
X2546968Y-11466245D01*
X2546968Y-11466245D02*
X2556492Y-11485292D01*
X2556492Y-11485292D02*
X2566016Y-11523388D01*
X2566016Y-11523388D02*
X2566016Y-11571007D01*
X2566016Y-11571007D02*
X2556492Y-11609102D01*
X2556492Y-11609102D02*
X2546968Y-11628150D01*
X2546968Y-11628150D02*
X2537444Y-11637673D01*
X2537444Y-11637673D02*
X2518397Y-11647197D01*
X2518397Y-11647197D02*
X2499349Y-11647197D01*
X2499349Y-11647197D02*
X2480301Y-11637673D01*
X2480301Y-11637673D02*
X2470778Y-11628150D01*
X2470778Y-11628150D02*
X2461254Y-11609102D01*
X2461254Y-11609102D02*
X2451730Y-11571007D01*
X2451730Y-11571007D02*
X2451730Y-11523388D01*
X2451730Y-11523388D02*
X2461254Y-11485292D01*
X2461254Y-11485292D02*
X2470778Y-11466245D01*
X2470778Y-11466245D02*
X2480301Y-11456721D01*
X2480301Y-11456721D02*
X2499349Y-11447197D01*
X2689825Y-11447197D02*
X2708873Y-11447197D01*
X2708873Y-11447197D02*
X2727921Y-11456721D01*
X2727921Y-11456721D02*
X2737444Y-11466245D01*
X2737444Y-11466245D02*
X2746968Y-11485292D01*
X2746968Y-11485292D02*
X2756492Y-11523388D01*
X2756492Y-11523388D02*
X2756492Y-11571007D01*
X2756492Y-11571007D02*
X2746968Y-11609102D01*
X2746968Y-11609102D02*
X2737444Y-11628150D01*
X2737444Y-11628150D02*
X2727921Y-11637673D01*
X2727921Y-11637673D02*
X2708873Y-11647197D01*
X2708873Y-11647197D02*
X2689825Y-11647197D01*
X2689825Y-11647197D02*
X2670778Y-11637673D01*
X2670778Y-11637673D02*
X2661254Y-11628150D01*
X2661254Y-11628150D02*
X2651730Y-11609102D01*
X2651730Y-11609102D02*
X2642206Y-11571007D01*
X2642206Y-11571007D02*
X2642206Y-11523388D01*
X2642206Y-11523388D02*
X2651730Y-11485292D01*
X2651730Y-11485292D02*
X2661254Y-11466245D01*
X2661254Y-11466245D02*
X2670778Y-11456721D01*
X2670778Y-11456721D02*
X2689825Y-11447197D01*
X2842206Y-11647197D02*
X2842206Y-11513864D01*
X2842206Y-11532911D02*
X2851730Y-11523388D01*
X2851730Y-11523388D02*
X2870778Y-11513864D01*
X2870778Y-11513864D02*
X2899349Y-11513864D01*
X2899349Y-11513864D02*
X2918397Y-11523388D01*
X2918397Y-11523388D02*
X2927920Y-11542435D01*
X2927920Y-11542435D02*
X2927920Y-11647197D01*
X2927920Y-11542435D02*
X2937444Y-11523388D01*
X2937444Y-11523388D02*
X2956492Y-11513864D01*
X2956492Y-11513864D02*
X2985063Y-11513864D01*
X2985063Y-11513864D02*
X3004111Y-11523388D01*
X3004111Y-11523388D02*
X3013635Y-11542435D01*
X3013635Y-11542435D02*
X3013635Y-11647197D01*
X3108873Y-11647197D02*
X3108873Y-11513864D01*
X3108873Y-11532911D02*
X3118397Y-11523388D01*
X3118397Y-11523388D02*
X3137444Y-11513864D01*
X3137444Y-11513864D02*
X3166016Y-11513864D01*
X3166016Y-11513864D02*
X3185063Y-11523388D01*
X3185063Y-11523388D02*
X3194587Y-11542435D01*
X3194587Y-11542435D02*
X3194587Y-11647197D01*
X3194587Y-11542435D02*
X3204111Y-11523388D01*
X3204111Y-11523388D02*
X3223159Y-11513864D01*
X3223159Y-11513864D02*
X3251730Y-11513864D01*
X3251730Y-11513864D02*
X3270778Y-11523388D01*
X3270778Y-11523388D02*
X3280301Y-11542435D01*
X3280301Y-11542435D02*
X3280301Y-11647197D01*
X3670778Y-11437673D02*
X3499349Y-11694816D01*
X3927921Y-11447197D02*
X3946968Y-11447197D01*
X3946968Y-11447197D02*
X3966016Y-11456721D01*
X3966016Y-11456721D02*
X3975540Y-11466245D01*
X3975540Y-11466245D02*
X3985063Y-11485292D01*
X3985063Y-11485292D02*
X3994587Y-11523388D01*
X3994587Y-11523388D02*
X3994587Y-11571007D01*
X3994587Y-11571007D02*
X3985063Y-11609102D01*
X3985063Y-11609102D02*
X3975540Y-11628150D01*
X3975540Y-11628150D02*
X3966016Y-11637673D01*
X3966016Y-11637673D02*
X3946968Y-11647197D01*
X3946968Y-11647197D02*
X3927921Y-11647197D01*
X3927921Y-11647197D02*
X3908873Y-11637673D01*
X3908873Y-11637673D02*
X3899349Y-11628150D01*
X3899349Y-11628150D02*
X3889825Y-11609102D01*
X3889825Y-11609102D02*
X3880302Y-11571007D01*
X3880302Y-11571007D02*
X3880302Y-11523388D01*
X3880302Y-11523388D02*
X3889825Y-11485292D01*
X3889825Y-11485292D02*
X3899349Y-11466245D01*
X3899349Y-11466245D02*
X3908873Y-11456721D01*
X3908873Y-11456721D02*
X3927921Y-11447197D01*
X4080302Y-11628150D02*
X4089825Y-11637673D01*
X4089825Y-11637673D02*
X4080302Y-11647197D01*
X4080302Y-11647197D02*
X4070778Y-11637673D01*
X4070778Y-11637673D02*
X4080302Y-11628150D01*
X4080302Y-11628150D02*
X4080302Y-11647197D01*
X4280302Y-11647197D02*
X4166016Y-11647197D01*
X4223159Y-11647197D02*
X4223159Y-11447197D01*
X4223159Y-11447197D02*
X4204111Y-11475769D01*
X4204111Y-11475769D02*
X4185063Y-11494816D01*
X4185063Y-11494816D02*
X4166016Y-11504340D01*
X4470778Y-11647197D02*
X4356492Y-11647197D01*
X4413635Y-11647197D02*
X4413635Y-11447197D01*
X4413635Y-11447197D02*
X4394587Y-11475769D01*
X4394587Y-11475769D02*
X4375540Y-11494816D01*
X4375540Y-11494816D02*
X4356492Y-11504340D01*
X4585064Y-11532911D02*
X4566016Y-11523388D01*
X4566016Y-11523388D02*
X4556492Y-11513864D01*
X4556492Y-11513864D02*
X4546968Y-11494816D01*
X4546968Y-11494816D02*
X4546968Y-11485292D01*
X4546968Y-11485292D02*
X4556492Y-11466245D01*
X4556492Y-11466245D02*
X4566016Y-11456721D01*
X4566016Y-11456721D02*
X4585064Y-11447197D01*
X4585064Y-11447197D02*
X4623159Y-11447197D01*
X4623159Y-11447197D02*
X4642206Y-11456721D01*
X4642206Y-11456721D02*
X4651730Y-11466245D01*
X4651730Y-11466245D02*
X4661254Y-11485292D01*
X4661254Y-11485292D02*
X4661254Y-11494816D01*
X4661254Y-11494816D02*
X4651730Y-11513864D01*
X4651730Y-11513864D02*
X4642206Y-11523388D01*
X4642206Y-11523388D02*
X4623159Y-11532911D01*
X4623159Y-11532911D02*
X4585064Y-11532911D01*
X4585064Y-11532911D02*
X4566016Y-11542435D01*
X4566016Y-11542435D02*
X4556492Y-11551959D01*
X4556492Y-11551959D02*
X4546968Y-11571007D01*
X4546968Y-11571007D02*
X4546968Y-11609102D01*
X4546968Y-11609102D02*
X4556492Y-11628150D01*
X4556492Y-11628150D02*
X4566016Y-11637673D01*
X4566016Y-11637673D02*
X4585064Y-11647197D01*
X4585064Y-11647197D02*
X4623159Y-11647197D01*
X4623159Y-11647197D02*
X4642206Y-11637673D01*
X4642206Y-11637673D02*
X4651730Y-11628150D01*
X4651730Y-11628150D02*
X4661254Y-11609102D01*
X4661254Y-11609102D02*
X4661254Y-11571007D01*
X4661254Y-11571007D02*
X4651730Y-11551959D01*
X4651730Y-11551959D02*
X4642206Y-11542435D01*
X4642206Y-11542435D02*
X4623159Y-11532911D01*
X4851730Y-11647197D02*
X4737445Y-11647197D01*
X4794587Y-11647197D02*
X4794587Y-11447197D01*
X4794587Y-11447197D02*
X4775540Y-11475769D01*
X4775540Y-11475769D02*
X4756492Y-11494816D01*
X4756492Y-11494816D02*
X4737445Y-11504340D01*
X4927921Y-11447197D02*
X4927921Y-11485292D01*
X5004111Y-11447197D02*
X5004111Y-11485292D01*
X5299349Y-11723388D02*
X5289826Y-11713864D01*
X5289826Y-11713864D02*
X5270778Y-11685292D01*
X5270778Y-11685292D02*
X5261254Y-11666245D01*
X5261254Y-11666245D02*
X5251730Y-11637673D01*
X5251730Y-11637673D02*
X5242207Y-11590054D01*
X5242207Y-11590054D02*
X5242207Y-11551959D01*
X5242207Y-11551959D02*
X5251730Y-11504340D01*
X5251730Y-11504340D02*
X5261254Y-11475769D01*
X5261254Y-11475769D02*
X5270778Y-11456721D01*
X5270778Y-11456721D02*
X5289826Y-11428150D01*
X5289826Y-11428150D02*
X5299349Y-11418626D01*
X5461254Y-11513864D02*
X5461254Y-11647197D01*
X5413635Y-11437673D02*
X5366016Y-11580531D01*
X5366016Y-11580531D02*
X5489826Y-11580531D01*
X5594587Y-11532911D02*
X5575540Y-11523388D01*
X5575540Y-11523388D02*
X5566016Y-11513864D01*
X5566016Y-11513864D02*
X5556492Y-11494816D01*
X5556492Y-11494816D02*
X5556492Y-11485292D01*
X5556492Y-11485292D02*
X5566016Y-11466245D01*
X5566016Y-11466245D02*
X5575540Y-11456721D01*
X5575540Y-11456721D02*
X5594587Y-11447197D01*
X5594587Y-11447197D02*
X5632683Y-11447197D01*
X5632683Y-11447197D02*
X5651730Y-11456721D01*
X5651730Y-11456721D02*
X5661254Y-11466245D01*
X5661254Y-11466245D02*
X5670778Y-11485292D01*
X5670778Y-11485292D02*
X5670778Y-11494816D01*
X5670778Y-11494816D02*
X5661254Y-11513864D01*
X5661254Y-11513864D02*
X5651730Y-11523388D01*
X5651730Y-11523388D02*
X5632683Y-11532911D01*
X5632683Y-11532911D02*
X5594587Y-11532911D01*
X5594587Y-11532911D02*
X5575540Y-11542435D01*
X5575540Y-11542435D02*
X5566016Y-11551959D01*
X5566016Y-11551959D02*
X5556492Y-11571007D01*
X5556492Y-11571007D02*
X5556492Y-11609102D01*
X5556492Y-11609102D02*
X5566016Y-11628150D01*
X5566016Y-11628150D02*
X5575540Y-11637673D01*
X5575540Y-11637673D02*
X5594587Y-11647197D01*
X5594587Y-11647197D02*
X5632683Y-11647197D01*
X5632683Y-11647197D02*
X5651730Y-11637673D01*
X5651730Y-11637673D02*
X5661254Y-11628150D01*
X5661254Y-11628150D02*
X5670778Y-11609102D01*
X5670778Y-11609102D02*
X5670778Y-11571007D01*
X5670778Y-11571007D02*
X5661254Y-11551959D01*
X5661254Y-11551959D02*
X5651730Y-11542435D01*
X5651730Y-11542435D02*
X5632683Y-11532911D01*
X5908873Y-11647197D02*
X5908873Y-11447197D01*
X5994587Y-11647197D02*
X5994587Y-11542435D01*
X5994587Y-11542435D02*
X5985064Y-11523388D01*
X5985064Y-11523388D02*
X5966016Y-11513864D01*
X5966016Y-11513864D02*
X5937445Y-11513864D01*
X5937445Y-11513864D02*
X5918397Y-11523388D01*
X5918397Y-11523388D02*
X5908873Y-11532911D01*
X6118397Y-11647197D02*
X6099349Y-11637673D01*
X6099349Y-11637673D02*
X6089826Y-11628150D01*
X6089826Y-11628150D02*
X6080302Y-11609102D01*
X6080302Y-11609102D02*
X6080302Y-11551959D01*
X6080302Y-11551959D02*
X6089826Y-11532911D01*
X6089826Y-11532911D02*
X6099349Y-11523388D01*
X6099349Y-11523388D02*
X6118397Y-11513864D01*
X6118397Y-11513864D02*
X6146968Y-11513864D01*
X6146968Y-11513864D02*
X6166016Y-11523388D01*
X6166016Y-11523388D02*
X6175540Y-11532911D01*
X6175540Y-11532911D02*
X6185064Y-11551959D01*
X6185064Y-11551959D02*
X6185064Y-11609102D01*
X6185064Y-11609102D02*
X6175540Y-11628150D01*
X6175540Y-11628150D02*
X6166016Y-11637673D01*
X6166016Y-11637673D02*
X6146968Y-11647197D01*
X6146968Y-11647197D02*
X6118397Y-11647197D01*
X6299349Y-11647197D02*
X6280302Y-11637673D01*
X6280302Y-11637673D02*
X6270778Y-11618626D01*
X6270778Y-11618626D02*
X6270778Y-11447197D01*
X6451730Y-11637673D02*
X6432683Y-11647197D01*
X6432683Y-11647197D02*
X6394587Y-11647197D01*
X6394587Y-11647197D02*
X6375540Y-11637673D01*
X6375540Y-11637673D02*
X6366016Y-11618626D01*
X6366016Y-11618626D02*
X6366016Y-11542435D01*
X6366016Y-11542435D02*
X6375540Y-11523388D01*
X6375540Y-11523388D02*
X6394587Y-11513864D01*
X6394587Y-11513864D02*
X6432683Y-11513864D01*
X6432683Y-11513864D02*
X6451730Y-11523388D01*
X6451730Y-11523388D02*
X6461254Y-11542435D01*
X6461254Y-11542435D02*
X6461254Y-11561483D01*
X6461254Y-11561483D02*
X6366016Y-11580531D01*
X6537445Y-11637673D02*
X6556492Y-11647197D01*
X6556492Y-11647197D02*
X6594587Y-11647197D01*
X6594587Y-11647197D02*
X6613635Y-11637673D01*
X6613635Y-11637673D02*
X6623159Y-11618626D01*
X6623159Y-11618626D02*
X6623159Y-11609102D01*
X6623159Y-11609102D02*
X6613635Y-11590054D01*
X6613635Y-11590054D02*
X6594587Y-11580531D01*
X6594587Y-11580531D02*
X6566016Y-11580531D01*
X6566016Y-11580531D02*
X6546968Y-11571007D01*
X6546968Y-11571007D02*
X6537445Y-11551959D01*
X6537445Y-11551959D02*
X6537445Y-11542435D01*
X6537445Y-11542435D02*
X6546968Y-11523388D01*
X6546968Y-11523388D02*
X6566016Y-11513864D01*
X6566016Y-11513864D02*
X6594587Y-11513864D01*
X6594587Y-11513864D02*
X6613635Y-11523388D01*
X6689826Y-11723388D02*
X6699349Y-11713864D01*
X6699349Y-11713864D02*
X6718397Y-11685292D01*
X6718397Y-11685292D02*
X6727921Y-11666245D01*
X6727921Y-11666245D02*
X6737445Y-11637673D01*
X6737445Y-11637673D02*
X6746968Y-11590054D01*
X6746968Y-11590054D02*
X6746968Y-11551959D01*
X6746968Y-11551959D02*
X6737445Y-11504340D01*
X6737445Y-11504340D02*
X6727921Y-11475769D01*
X6727921Y-11475769D02*
X6718397Y-11456721D01*
X6718397Y-11456721D02*
X6699349Y-11428150D01*
X6699349Y-11428150D02*
X6689826Y-11418626D01*
X7051730Y-11723388D02*
X7042207Y-11713864D01*
X7042207Y-11713864D02*
X7023159Y-11685292D01*
X7023159Y-11685292D02*
X7013635Y-11666245D01*
X7013635Y-11666245D02*
X7004111Y-11637673D01*
X7004111Y-11637673D02*
X6994588Y-11590054D01*
X6994588Y-11590054D02*
X6994588Y-11551959D01*
X6994588Y-11551959D02*
X7004111Y-11504340D01*
X7004111Y-11504340D02*
X7013635Y-11475769D01*
X7013635Y-11475769D02*
X7023159Y-11456721D01*
X7023159Y-11456721D02*
X7042207Y-11428150D01*
X7042207Y-11428150D02*
X7051730Y-11418626D01*
X7127921Y-11513864D02*
X7127921Y-11647197D01*
X7127921Y-11532911D02*
X7137445Y-11523388D01*
X7137445Y-11523388D02*
X7156492Y-11513864D01*
X7156492Y-11513864D02*
X7185064Y-11513864D01*
X7185064Y-11513864D02*
X7204111Y-11523388D01*
X7204111Y-11523388D02*
X7213635Y-11542435D01*
X7213635Y-11542435D02*
X7213635Y-11647197D01*
X7337445Y-11647197D02*
X7318397Y-11637673D01*
X7318397Y-11637673D02*
X7308873Y-11628150D01*
X7308873Y-11628150D02*
X7299349Y-11609102D01*
X7299349Y-11609102D02*
X7299349Y-11551959D01*
X7299349Y-11551959D02*
X7308873Y-11532911D01*
X7308873Y-11532911D02*
X7318397Y-11523388D01*
X7318397Y-11523388D02*
X7337445Y-11513864D01*
X7337445Y-11513864D02*
X7366016Y-11513864D01*
X7366016Y-11513864D02*
X7385064Y-11523388D01*
X7385064Y-11523388D02*
X7394588Y-11532911D01*
X7394588Y-11532911D02*
X7404111Y-11551959D01*
X7404111Y-11551959D02*
X7404111Y-11609102D01*
X7404111Y-11609102D02*
X7394588Y-11628150D01*
X7394588Y-11628150D02*
X7385064Y-11637673D01*
X7385064Y-11637673D02*
X7366016Y-11647197D01*
X7366016Y-11647197D02*
X7337445Y-11647197D01*
X7461254Y-11513864D02*
X7537445Y-11513864D01*
X7489826Y-11447197D02*
X7489826Y-11618626D01*
X7489826Y-11618626D02*
X7499349Y-11637673D01*
X7499349Y-11637673D02*
X7518397Y-11647197D01*
X7518397Y-11647197D02*
X7537445Y-11647197D01*
X7756492Y-11513864D02*
X7756492Y-11713864D01*
X7756492Y-11523388D02*
X7775540Y-11513864D01*
X7775540Y-11513864D02*
X7813635Y-11513864D01*
X7813635Y-11513864D02*
X7832683Y-11523388D01*
X7832683Y-11523388D02*
X7842207Y-11532911D01*
X7842207Y-11532911D02*
X7851730Y-11551959D01*
X7851730Y-11551959D02*
X7851730Y-11609102D01*
X7851730Y-11609102D02*
X7842207Y-11628150D01*
X7842207Y-11628150D02*
X7832683Y-11637673D01*
X7832683Y-11637673D02*
X7813635Y-11647197D01*
X7813635Y-11647197D02*
X7775540Y-11647197D01*
X7775540Y-11647197D02*
X7756492Y-11637673D01*
X7966016Y-11647197D02*
X7946969Y-11637673D01*
X7946969Y-11637673D02*
X7937445Y-11618626D01*
X7937445Y-11618626D02*
X7937445Y-11447197D01*
X8127921Y-11647197D02*
X8127921Y-11542435D01*
X8127921Y-11542435D02*
X8118397Y-11523388D01*
X8118397Y-11523388D02*
X8099350Y-11513864D01*
X8099350Y-11513864D02*
X8061254Y-11513864D01*
X8061254Y-11513864D02*
X8042207Y-11523388D01*
X8127921Y-11637673D02*
X8108873Y-11647197D01*
X8108873Y-11647197D02*
X8061254Y-11647197D01*
X8061254Y-11647197D02*
X8042207Y-11637673D01*
X8042207Y-11637673D02*
X8032683Y-11618626D01*
X8032683Y-11618626D02*
X8032683Y-11599578D01*
X8032683Y-11599578D02*
X8042207Y-11580531D01*
X8042207Y-11580531D02*
X8061254Y-11571007D01*
X8061254Y-11571007D02*
X8108873Y-11571007D01*
X8108873Y-11571007D02*
X8127921Y-11561483D01*
X8194588Y-11513864D02*
X8270778Y-11513864D01*
X8223159Y-11447197D02*
X8223159Y-11618626D01*
X8223159Y-11618626D02*
X8232683Y-11637673D01*
X8232683Y-11637673D02*
X8251730Y-11647197D01*
X8251730Y-11647197D02*
X8270778Y-11647197D01*
X8413635Y-11637673D02*
X8394588Y-11647197D01*
X8394588Y-11647197D02*
X8356492Y-11647197D01*
X8356492Y-11647197D02*
X8337445Y-11637673D01*
X8337445Y-11637673D02*
X8327921Y-11618626D01*
X8327921Y-11618626D02*
X8327921Y-11542435D01*
X8327921Y-11542435D02*
X8337445Y-11523388D01*
X8337445Y-11523388D02*
X8356492Y-11513864D01*
X8356492Y-11513864D02*
X8394588Y-11513864D01*
X8394588Y-11513864D02*
X8413635Y-11523388D01*
X8413635Y-11523388D02*
X8423159Y-11542435D01*
X8423159Y-11542435D02*
X8423159Y-11561483D01*
X8423159Y-11561483D02*
X8327921Y-11580531D01*
X8594588Y-11647197D02*
X8594588Y-11447197D01*
X8594588Y-11637673D02*
X8575540Y-11647197D01*
X8575540Y-11647197D02*
X8537445Y-11647197D01*
X8537445Y-11647197D02*
X8518397Y-11637673D01*
X8518397Y-11637673D02*
X8508873Y-11628150D01*
X8508873Y-11628150D02*
X8499350Y-11609102D01*
X8499350Y-11609102D02*
X8499350Y-11551959D01*
X8499350Y-11551959D02*
X8508873Y-11532911D01*
X8508873Y-11532911D02*
X8518397Y-11523388D01*
X8518397Y-11523388D02*
X8537445Y-11513864D01*
X8537445Y-11513864D02*
X8575540Y-11513864D01*
X8575540Y-11513864D02*
X8594588Y-11523388D01*
X8670778Y-11723388D02*
X8680302Y-11713864D01*
X8680302Y-11713864D02*
X8699350Y-11685292D01*
X8699350Y-11685292D02*
X8708873Y-11666245D01*
X8708873Y-11666245D02*
X8718397Y-11637673D01*
X8718397Y-11637673D02*
X8727921Y-11590054D01*
X8727921Y-11590054D02*
X8727921Y-11551959D01*
X8727921Y-11551959D02*
X8718397Y-11504340D01*
X8718397Y-11504340D02*
X8708873Y-11475769D01*
X8708873Y-11475769D02*
X8699350Y-11456721D01*
X8699350Y-11456721D02*
X8680302Y-11428150D01*
X8680302Y-11428150D02*
X8670778Y-11418626D01*
X1624286Y-11775713D02*
X1624286Y-11975713D01*
X1524286Y-11875713D02*
X1724286Y-11875713D01*
X2070778Y-11833864D02*
X2070778Y-11967197D01*
X2023158Y-11757673D02*
X1975539Y-11900531D01*
X1975539Y-11900531D02*
X2099349Y-11900531D01*
X2175540Y-11948150D02*
X2185063Y-11957673D01*
X2185063Y-11957673D02*
X2175540Y-11967197D01*
X2175540Y-11967197D02*
X2166016Y-11957673D01*
X2166016Y-11957673D02*
X2175540Y-11948150D01*
X2175540Y-11948150D02*
X2175540Y-11967197D01*
X2299349Y-11852911D02*
X2280301Y-11843388D01*
X2280301Y-11843388D02*
X2270778Y-11833864D01*
X2270778Y-11833864D02*
X2261254Y-11814816D01*
X2261254Y-11814816D02*
X2261254Y-11805292D01*
X2261254Y-11805292D02*
X2270778Y-11786245D01*
X2270778Y-11786245D02*
X2280301Y-11776721D01*
X2280301Y-11776721D02*
X2299349Y-11767197D01*
X2299349Y-11767197D02*
X2337444Y-11767197D01*
X2337444Y-11767197D02*
X2356492Y-11776721D01*
X2356492Y-11776721D02*
X2366016Y-11786245D01*
X2366016Y-11786245D02*
X2375540Y-11805292D01*
X2375540Y-11805292D02*
X2375540Y-11814816D01*
X2375540Y-11814816D02*
X2366016Y-11833864D01*
X2366016Y-11833864D02*
X2356492Y-11843388D01*
X2356492Y-11843388D02*
X2337444Y-11852911D01*
X2337444Y-11852911D02*
X2299349Y-11852911D01*
X2299349Y-11852911D02*
X2280301Y-11862435D01*
X2280301Y-11862435D02*
X2270778Y-11871959D01*
X2270778Y-11871959D02*
X2261254Y-11891007D01*
X2261254Y-11891007D02*
X2261254Y-11929102D01*
X2261254Y-11929102D02*
X2270778Y-11948150D01*
X2270778Y-11948150D02*
X2280301Y-11957673D01*
X2280301Y-11957673D02*
X2299349Y-11967197D01*
X2299349Y-11967197D02*
X2337444Y-11967197D01*
X2337444Y-11967197D02*
X2356492Y-11957673D01*
X2356492Y-11957673D02*
X2366016Y-11948150D01*
X2366016Y-11948150D02*
X2375540Y-11929102D01*
X2375540Y-11929102D02*
X2375540Y-11891007D01*
X2375540Y-11891007D02*
X2366016Y-11871959D01*
X2366016Y-11871959D02*
X2356492Y-11862435D01*
X2356492Y-11862435D02*
X2337444Y-11852911D01*
X2499349Y-11767197D02*
X2518397Y-11767197D01*
X2518397Y-11767197D02*
X2537444Y-11776721D01*
X2537444Y-11776721D02*
X2546968Y-11786245D01*
X2546968Y-11786245D02*
X2556492Y-11805292D01*
X2556492Y-11805292D02*
X2566016Y-11843388D01*
X2566016Y-11843388D02*
X2566016Y-11891007D01*
X2566016Y-11891007D02*
X2556492Y-11929102D01*
X2556492Y-11929102D02*
X2546968Y-11948150D01*
X2546968Y-11948150D02*
X2537444Y-11957673D01*
X2537444Y-11957673D02*
X2518397Y-11967197D01*
X2518397Y-11967197D02*
X2499349Y-11967197D01*
X2499349Y-11967197D02*
X2480301Y-11957673D01*
X2480301Y-11957673D02*
X2470778Y-11948150D01*
X2470778Y-11948150D02*
X2461254Y-11929102D01*
X2461254Y-11929102D02*
X2451730Y-11891007D01*
X2451730Y-11891007D02*
X2451730Y-11843388D01*
X2451730Y-11843388D02*
X2461254Y-11805292D01*
X2461254Y-11805292D02*
X2470778Y-11786245D01*
X2470778Y-11786245D02*
X2480301Y-11776721D01*
X2480301Y-11776721D02*
X2499349Y-11767197D01*
X2689825Y-11767197D02*
X2708873Y-11767197D01*
X2708873Y-11767197D02*
X2727921Y-11776721D01*
X2727921Y-11776721D02*
X2737444Y-11786245D01*
X2737444Y-11786245D02*
X2746968Y-11805292D01*
X2746968Y-11805292D02*
X2756492Y-11843388D01*
X2756492Y-11843388D02*
X2756492Y-11891007D01*
X2756492Y-11891007D02*
X2746968Y-11929102D01*
X2746968Y-11929102D02*
X2737444Y-11948150D01*
X2737444Y-11948150D02*
X2727921Y-11957673D01*
X2727921Y-11957673D02*
X2708873Y-11967197D01*
X2708873Y-11967197D02*
X2689825Y-11967197D01*
X2689825Y-11967197D02*
X2670778Y-11957673D01*
X2670778Y-11957673D02*
X2661254Y-11948150D01*
X2661254Y-11948150D02*
X2651730Y-11929102D01*
X2651730Y-11929102D02*
X2642206Y-11891007D01*
X2642206Y-11891007D02*
X2642206Y-11843388D01*
X2642206Y-11843388D02*
X2651730Y-11805292D01*
X2651730Y-11805292D02*
X2661254Y-11786245D01*
X2661254Y-11786245D02*
X2670778Y-11776721D01*
X2670778Y-11776721D02*
X2689825Y-11767197D01*
X2842206Y-11967197D02*
X2842206Y-11833864D01*
X2842206Y-11852911D02*
X2851730Y-11843388D01*
X2851730Y-11843388D02*
X2870778Y-11833864D01*
X2870778Y-11833864D02*
X2899349Y-11833864D01*
X2899349Y-11833864D02*
X2918397Y-11843388D01*
X2918397Y-11843388D02*
X2927920Y-11862435D01*
X2927920Y-11862435D02*
X2927920Y-11967197D01*
X2927920Y-11862435D02*
X2937444Y-11843388D01*
X2937444Y-11843388D02*
X2956492Y-11833864D01*
X2956492Y-11833864D02*
X2985063Y-11833864D01*
X2985063Y-11833864D02*
X3004111Y-11843388D01*
X3004111Y-11843388D02*
X3013635Y-11862435D01*
X3013635Y-11862435D02*
X3013635Y-11967197D01*
X3108873Y-11967197D02*
X3108873Y-11833864D01*
X3108873Y-11852911D02*
X3118397Y-11843388D01*
X3118397Y-11843388D02*
X3137444Y-11833864D01*
X3137444Y-11833864D02*
X3166016Y-11833864D01*
X3166016Y-11833864D02*
X3185063Y-11843388D01*
X3185063Y-11843388D02*
X3194587Y-11862435D01*
X3194587Y-11862435D02*
X3194587Y-11967197D01*
X3194587Y-11862435D02*
X3204111Y-11843388D01*
X3204111Y-11843388D02*
X3223159Y-11833864D01*
X3223159Y-11833864D02*
X3251730Y-11833864D01*
X3251730Y-11833864D02*
X3270778Y-11843388D01*
X3270778Y-11843388D02*
X3280301Y-11862435D01*
X3280301Y-11862435D02*
X3280301Y-11967197D01*
X3670778Y-11757673D02*
X3499349Y-12014816D01*
X3927921Y-11767197D02*
X3946968Y-11767197D01*
X3946968Y-11767197D02*
X3966016Y-11776721D01*
X3966016Y-11776721D02*
X3975540Y-11786245D01*
X3975540Y-11786245D02*
X3985063Y-11805292D01*
X3985063Y-11805292D02*
X3994587Y-11843388D01*
X3994587Y-11843388D02*
X3994587Y-11891007D01*
X3994587Y-11891007D02*
X3985063Y-11929102D01*
X3985063Y-11929102D02*
X3975540Y-11948150D01*
X3975540Y-11948150D02*
X3966016Y-11957673D01*
X3966016Y-11957673D02*
X3946968Y-11967197D01*
X3946968Y-11967197D02*
X3927921Y-11967197D01*
X3927921Y-11967197D02*
X3908873Y-11957673D01*
X3908873Y-11957673D02*
X3899349Y-11948150D01*
X3899349Y-11948150D02*
X3889825Y-11929102D01*
X3889825Y-11929102D02*
X3880302Y-11891007D01*
X3880302Y-11891007D02*
X3880302Y-11843388D01*
X3880302Y-11843388D02*
X3889825Y-11805292D01*
X3889825Y-11805292D02*
X3899349Y-11786245D01*
X3899349Y-11786245D02*
X3908873Y-11776721D01*
X3908873Y-11776721D02*
X3927921Y-11767197D01*
X4080302Y-11948150D02*
X4089825Y-11957673D01*
X4089825Y-11957673D02*
X4080302Y-11967197D01*
X4080302Y-11967197D02*
X4070778Y-11957673D01*
X4070778Y-11957673D02*
X4080302Y-11948150D01*
X4080302Y-11948150D02*
X4080302Y-11967197D01*
X4280302Y-11967197D02*
X4166016Y-11967197D01*
X4223159Y-11967197D02*
X4223159Y-11767197D01*
X4223159Y-11767197D02*
X4204111Y-11795769D01*
X4204111Y-11795769D02*
X4185063Y-11814816D01*
X4185063Y-11814816D02*
X4166016Y-11824340D01*
X4394587Y-11852911D02*
X4375540Y-11843388D01*
X4375540Y-11843388D02*
X4366016Y-11833864D01*
X4366016Y-11833864D02*
X4356492Y-11814816D01*
X4356492Y-11814816D02*
X4356492Y-11805292D01*
X4356492Y-11805292D02*
X4366016Y-11786245D01*
X4366016Y-11786245D02*
X4375540Y-11776721D01*
X4375540Y-11776721D02*
X4394587Y-11767197D01*
X4394587Y-11767197D02*
X4432683Y-11767197D01*
X4432683Y-11767197D02*
X4451730Y-11776721D01*
X4451730Y-11776721D02*
X4461254Y-11786245D01*
X4461254Y-11786245D02*
X4470778Y-11805292D01*
X4470778Y-11805292D02*
X4470778Y-11814816D01*
X4470778Y-11814816D02*
X4461254Y-11833864D01*
X4461254Y-11833864D02*
X4451730Y-11843388D01*
X4451730Y-11843388D02*
X4432683Y-11852911D01*
X4432683Y-11852911D02*
X4394587Y-11852911D01*
X4394587Y-11852911D02*
X4375540Y-11862435D01*
X4375540Y-11862435D02*
X4366016Y-11871959D01*
X4366016Y-11871959D02*
X4356492Y-11891007D01*
X4356492Y-11891007D02*
X4356492Y-11929102D01*
X4356492Y-11929102D02*
X4366016Y-11948150D01*
X4366016Y-11948150D02*
X4375540Y-11957673D01*
X4375540Y-11957673D02*
X4394587Y-11967197D01*
X4394587Y-11967197D02*
X4432683Y-11967197D01*
X4432683Y-11967197D02*
X4451730Y-11957673D01*
X4451730Y-11957673D02*
X4461254Y-11948150D01*
X4461254Y-11948150D02*
X4470778Y-11929102D01*
X4470778Y-11929102D02*
X4470778Y-11891007D01*
X4470778Y-11891007D02*
X4461254Y-11871959D01*
X4461254Y-11871959D02*
X4451730Y-11862435D01*
X4451730Y-11862435D02*
X4432683Y-11852911D01*
X4566016Y-11967197D02*
X4604111Y-11967197D01*
X4604111Y-11967197D02*
X4623159Y-11957673D01*
X4623159Y-11957673D02*
X4632683Y-11948150D01*
X4632683Y-11948150D02*
X4651730Y-11919578D01*
X4651730Y-11919578D02*
X4661254Y-11881483D01*
X4661254Y-11881483D02*
X4661254Y-11805292D01*
X4661254Y-11805292D02*
X4651730Y-11786245D01*
X4651730Y-11786245D02*
X4642206Y-11776721D01*
X4642206Y-11776721D02*
X4623159Y-11767197D01*
X4623159Y-11767197D02*
X4585064Y-11767197D01*
X4585064Y-11767197D02*
X4566016Y-11776721D01*
X4566016Y-11776721D02*
X4556492Y-11786245D01*
X4556492Y-11786245D02*
X4546968Y-11805292D01*
X4546968Y-11805292D02*
X4546968Y-11852911D01*
X4546968Y-11852911D02*
X4556492Y-11871959D01*
X4556492Y-11871959D02*
X4566016Y-11881483D01*
X4566016Y-11881483D02*
X4585064Y-11891007D01*
X4585064Y-11891007D02*
X4623159Y-11891007D01*
X4623159Y-11891007D02*
X4642206Y-11881483D01*
X4642206Y-11881483D02*
X4651730Y-11871959D01*
X4651730Y-11871959D02*
X4661254Y-11852911D01*
X4785064Y-11767197D02*
X4804111Y-11767197D01*
X4804111Y-11767197D02*
X4823159Y-11776721D01*
X4823159Y-11776721D02*
X4832683Y-11786245D01*
X4832683Y-11786245D02*
X4842206Y-11805292D01*
X4842206Y-11805292D02*
X4851730Y-11843388D01*
X4851730Y-11843388D02*
X4851730Y-11891007D01*
X4851730Y-11891007D02*
X4842206Y-11929102D01*
X4842206Y-11929102D02*
X4832683Y-11948150D01*
X4832683Y-11948150D02*
X4823159Y-11957673D01*
X4823159Y-11957673D02*
X4804111Y-11967197D01*
X4804111Y-11967197D02*
X4785064Y-11967197D01*
X4785064Y-11967197D02*
X4766016Y-11957673D01*
X4766016Y-11957673D02*
X4756492Y-11948150D01*
X4756492Y-11948150D02*
X4746968Y-11929102D01*
X4746968Y-11929102D02*
X4737445Y-11891007D01*
X4737445Y-11891007D02*
X4737445Y-11843388D01*
X4737445Y-11843388D02*
X4746968Y-11805292D01*
X4746968Y-11805292D02*
X4756492Y-11786245D01*
X4756492Y-11786245D02*
X4766016Y-11776721D01*
X4766016Y-11776721D02*
X4785064Y-11767197D01*
X4927921Y-11767197D02*
X4927921Y-11805292D01*
X5004111Y-11767197D02*
X5004111Y-11805292D01*
X5299349Y-12043388D02*
X5289826Y-12033864D01*
X5289826Y-12033864D02*
X5270778Y-12005292D01*
X5270778Y-12005292D02*
X5261254Y-11986245D01*
X5261254Y-11986245D02*
X5251730Y-11957673D01*
X5251730Y-11957673D02*
X5242207Y-11910054D01*
X5242207Y-11910054D02*
X5242207Y-11871959D01*
X5242207Y-11871959D02*
X5251730Y-11824340D01*
X5251730Y-11824340D02*
X5261254Y-11795769D01*
X5261254Y-11795769D02*
X5270778Y-11776721D01*
X5270778Y-11776721D02*
X5289826Y-11748150D01*
X5289826Y-11748150D02*
X5299349Y-11738626D01*
X5366016Y-11786245D02*
X5375540Y-11776721D01*
X5375540Y-11776721D02*
X5394587Y-11767197D01*
X5394587Y-11767197D02*
X5442207Y-11767197D01*
X5442207Y-11767197D02*
X5461254Y-11776721D01*
X5461254Y-11776721D02*
X5470778Y-11786245D01*
X5470778Y-11786245D02*
X5480302Y-11805292D01*
X5480302Y-11805292D02*
X5480302Y-11824340D01*
X5480302Y-11824340D02*
X5470778Y-11852911D01*
X5470778Y-11852911D02*
X5356492Y-11967197D01*
X5356492Y-11967197D02*
X5480302Y-11967197D01*
X5651730Y-11833864D02*
X5651730Y-11967197D01*
X5604111Y-11757673D02*
X5556492Y-11900531D01*
X5556492Y-11900531D02*
X5680302Y-11900531D01*
X5908873Y-11967197D02*
X5908873Y-11767197D01*
X5994587Y-11967197D02*
X5994587Y-11862435D01*
X5994587Y-11862435D02*
X5985064Y-11843388D01*
X5985064Y-11843388D02*
X5966016Y-11833864D01*
X5966016Y-11833864D02*
X5937445Y-11833864D01*
X5937445Y-11833864D02*
X5918397Y-11843388D01*
X5918397Y-11843388D02*
X5908873Y-11852911D01*
X6118397Y-11967197D02*
X6099349Y-11957673D01*
X6099349Y-11957673D02*
X6089826Y-11948150D01*
X6089826Y-11948150D02*
X6080302Y-11929102D01*
X6080302Y-11929102D02*
X6080302Y-11871959D01*
X6080302Y-11871959D02*
X6089826Y-11852911D01*
X6089826Y-11852911D02*
X6099349Y-11843388D01*
X6099349Y-11843388D02*
X6118397Y-11833864D01*
X6118397Y-11833864D02*
X6146968Y-11833864D01*
X6146968Y-11833864D02*
X6166016Y-11843388D01*
X6166016Y-11843388D02*
X6175540Y-11852911D01*
X6175540Y-11852911D02*
X6185064Y-11871959D01*
X6185064Y-11871959D02*
X6185064Y-11929102D01*
X6185064Y-11929102D02*
X6175540Y-11948150D01*
X6175540Y-11948150D02*
X6166016Y-11957673D01*
X6166016Y-11957673D02*
X6146968Y-11967197D01*
X6146968Y-11967197D02*
X6118397Y-11967197D01*
X6299349Y-11967197D02*
X6280302Y-11957673D01*
X6280302Y-11957673D02*
X6270778Y-11938626D01*
X6270778Y-11938626D02*
X6270778Y-11767197D01*
X6451730Y-11957673D02*
X6432683Y-11967197D01*
X6432683Y-11967197D02*
X6394587Y-11967197D01*
X6394587Y-11967197D02*
X6375540Y-11957673D01*
X6375540Y-11957673D02*
X6366016Y-11938626D01*
X6366016Y-11938626D02*
X6366016Y-11862435D01*
X6366016Y-11862435D02*
X6375540Y-11843388D01*
X6375540Y-11843388D02*
X6394587Y-11833864D01*
X6394587Y-11833864D02*
X6432683Y-11833864D01*
X6432683Y-11833864D02*
X6451730Y-11843388D01*
X6451730Y-11843388D02*
X6461254Y-11862435D01*
X6461254Y-11862435D02*
X6461254Y-11881483D01*
X6461254Y-11881483D02*
X6366016Y-11900531D01*
X6537445Y-11957673D02*
X6556492Y-11967197D01*
X6556492Y-11967197D02*
X6594587Y-11967197D01*
X6594587Y-11967197D02*
X6613635Y-11957673D01*
X6613635Y-11957673D02*
X6623159Y-11938626D01*
X6623159Y-11938626D02*
X6623159Y-11929102D01*
X6623159Y-11929102D02*
X6613635Y-11910054D01*
X6613635Y-11910054D02*
X6594587Y-11900531D01*
X6594587Y-11900531D02*
X6566016Y-11900531D01*
X6566016Y-11900531D02*
X6546968Y-11891007D01*
X6546968Y-11891007D02*
X6537445Y-11871959D01*
X6537445Y-11871959D02*
X6537445Y-11862435D01*
X6537445Y-11862435D02*
X6546968Y-11843388D01*
X6546968Y-11843388D02*
X6566016Y-11833864D01*
X6566016Y-11833864D02*
X6594587Y-11833864D01*
X6594587Y-11833864D02*
X6613635Y-11843388D01*
X6689826Y-12043388D02*
X6699349Y-12033864D01*
X6699349Y-12033864D02*
X6718397Y-12005292D01*
X6718397Y-12005292D02*
X6727921Y-11986245D01*
X6727921Y-11986245D02*
X6737445Y-11957673D01*
X6737445Y-11957673D02*
X6746968Y-11910054D01*
X6746968Y-11910054D02*
X6746968Y-11871959D01*
X6746968Y-11871959D02*
X6737445Y-11824340D01*
X6737445Y-11824340D02*
X6727921Y-11795769D01*
X6727921Y-11795769D02*
X6718397Y-11776721D01*
X6718397Y-11776721D02*
X6699349Y-11748150D01*
X6699349Y-11748150D02*
X6689826Y-11738626D01*
X7051730Y-12043388D02*
X7042207Y-12033864D01*
X7042207Y-12033864D02*
X7023159Y-12005292D01*
X7023159Y-12005292D02*
X7013635Y-11986245D01*
X7013635Y-11986245D02*
X7004111Y-11957673D01*
X7004111Y-11957673D02*
X6994588Y-11910054D01*
X6994588Y-11910054D02*
X6994588Y-11871959D01*
X6994588Y-11871959D02*
X7004111Y-11824340D01*
X7004111Y-11824340D02*
X7013635Y-11795769D01*
X7013635Y-11795769D02*
X7023159Y-11776721D01*
X7023159Y-11776721D02*
X7042207Y-11748150D01*
X7042207Y-11748150D02*
X7051730Y-11738626D01*
X7127921Y-11833864D02*
X7127921Y-11967197D01*
X7127921Y-11852911D02*
X7137445Y-11843388D01*
X7137445Y-11843388D02*
X7156492Y-11833864D01*
X7156492Y-11833864D02*
X7185064Y-11833864D01*
X7185064Y-11833864D02*
X7204111Y-11843388D01*
X7204111Y-11843388D02*
X7213635Y-11862435D01*
X7213635Y-11862435D02*
X7213635Y-11967197D01*
X7337445Y-11967197D02*
X7318397Y-11957673D01*
X7318397Y-11957673D02*
X7308873Y-11948150D01*
X7308873Y-11948150D02*
X7299349Y-11929102D01*
X7299349Y-11929102D02*
X7299349Y-11871959D01*
X7299349Y-11871959D02*
X7308873Y-11852911D01*
X7308873Y-11852911D02*
X7318397Y-11843388D01*
X7318397Y-11843388D02*
X7337445Y-11833864D01*
X7337445Y-11833864D02*
X7366016Y-11833864D01*
X7366016Y-11833864D02*
X7385064Y-11843388D01*
X7385064Y-11843388D02*
X7394588Y-11852911D01*
X7394588Y-11852911D02*
X7404111Y-11871959D01*
X7404111Y-11871959D02*
X7404111Y-11929102D01*
X7404111Y-11929102D02*
X7394588Y-11948150D01*
X7394588Y-11948150D02*
X7385064Y-11957673D01*
X7385064Y-11957673D02*
X7366016Y-11967197D01*
X7366016Y-11967197D02*
X7337445Y-11967197D01*
X7461254Y-11833864D02*
X7537445Y-11833864D01*
X7489826Y-11767197D02*
X7489826Y-11938626D01*
X7489826Y-11938626D02*
X7499349Y-11957673D01*
X7499349Y-11957673D02*
X7518397Y-11967197D01*
X7518397Y-11967197D02*
X7537445Y-11967197D01*
X7756492Y-11833864D02*
X7756492Y-12033864D01*
X7756492Y-11843388D02*
X7775540Y-11833864D01*
X7775540Y-11833864D02*
X7813635Y-11833864D01*
X7813635Y-11833864D02*
X7832683Y-11843388D01*
X7832683Y-11843388D02*
X7842207Y-11852911D01*
X7842207Y-11852911D02*
X7851730Y-11871959D01*
X7851730Y-11871959D02*
X7851730Y-11929102D01*
X7851730Y-11929102D02*
X7842207Y-11948150D01*
X7842207Y-11948150D02*
X7832683Y-11957673D01*
X7832683Y-11957673D02*
X7813635Y-11967197D01*
X7813635Y-11967197D02*
X7775540Y-11967197D01*
X7775540Y-11967197D02*
X7756492Y-11957673D01*
X7966016Y-11967197D02*
X7946969Y-11957673D01*
X7946969Y-11957673D02*
X7937445Y-11938626D01*
X7937445Y-11938626D02*
X7937445Y-11767197D01*
X8127921Y-11967197D02*
X8127921Y-11862435D01*
X8127921Y-11862435D02*
X8118397Y-11843388D01*
X8118397Y-11843388D02*
X8099350Y-11833864D01*
X8099350Y-11833864D02*
X8061254Y-11833864D01*
X8061254Y-11833864D02*
X8042207Y-11843388D01*
X8127921Y-11957673D02*
X8108873Y-11967197D01*
X8108873Y-11967197D02*
X8061254Y-11967197D01*
X8061254Y-11967197D02*
X8042207Y-11957673D01*
X8042207Y-11957673D02*
X8032683Y-11938626D01*
X8032683Y-11938626D02*
X8032683Y-11919578D01*
X8032683Y-11919578D02*
X8042207Y-11900531D01*
X8042207Y-11900531D02*
X8061254Y-11891007D01*
X8061254Y-11891007D02*
X8108873Y-11891007D01*
X8108873Y-11891007D02*
X8127921Y-11881483D01*
X8194588Y-11833864D02*
X8270778Y-11833864D01*
X8223159Y-11767197D02*
X8223159Y-11938626D01*
X8223159Y-11938626D02*
X8232683Y-11957673D01*
X8232683Y-11957673D02*
X8251730Y-11967197D01*
X8251730Y-11967197D02*
X8270778Y-11967197D01*
X8413635Y-11957673D02*
X8394588Y-11967197D01*
X8394588Y-11967197D02*
X8356492Y-11967197D01*
X8356492Y-11967197D02*
X8337445Y-11957673D01*
X8337445Y-11957673D02*
X8327921Y-11938626D01*
X8327921Y-11938626D02*
X8327921Y-11862435D01*
X8327921Y-11862435D02*
X8337445Y-11843388D01*
X8337445Y-11843388D02*
X8356492Y-11833864D01*
X8356492Y-11833864D02*
X8394588Y-11833864D01*
X8394588Y-11833864D02*
X8413635Y-11843388D01*
X8413635Y-11843388D02*
X8423159Y-11862435D01*
X8423159Y-11862435D02*
X8423159Y-11881483D01*
X8423159Y-11881483D02*
X8327921Y-11900531D01*
X8594588Y-11967197D02*
X8594588Y-11767197D01*
X8594588Y-11957673D02*
X8575540Y-11967197D01*
X8575540Y-11967197D02*
X8537445Y-11967197D01*
X8537445Y-11967197D02*
X8518397Y-11957673D01*
X8518397Y-11957673D02*
X8508873Y-11948150D01*
X8508873Y-11948150D02*
X8499350Y-11929102D01*
X8499350Y-11929102D02*
X8499350Y-11871959D01*
X8499350Y-11871959D02*
X8508873Y-11852911D01*
X8508873Y-11852911D02*
X8518397Y-11843388D01*
X8518397Y-11843388D02*
X8537445Y-11833864D01*
X8537445Y-11833864D02*
X8575540Y-11833864D01*
X8575540Y-11833864D02*
X8594588Y-11843388D01*
X8670778Y-12043388D02*
X8680302Y-12033864D01*
X8680302Y-12033864D02*
X8699350Y-12005292D01*
X8699350Y-12005292D02*
X8708873Y-11986245D01*
X8708873Y-11986245D02*
X8718397Y-11957673D01*
X8718397Y-11957673D02*
X8727921Y-11910054D01*
X8727921Y-11910054D02*
X8727921Y-11871959D01*
X8727921Y-11871959D02*
X8718397Y-11824340D01*
X8718397Y-11824340D02*
X8708873Y-11795769D01*
X8708873Y-11795769D02*
X8699350Y-11776721D01*
X8699350Y-11776721D02*
X8680302Y-11748150D01*
X8680302Y-11748150D02*
X8670778Y-11738626D01*
M02*
