G04 #@! TF.GenerationSoftware,KiCad,Pcbnew,9.0.0*
G04 #@! TF.CreationDate,2025-04-21T18:53:58+09:00*
G04 #@! TF.ProjectId,nofy_V2_L,6e6f6679-5f56-4325-9f4c-2e6b69636164,rev?*
G04 #@! TF.SameCoordinates,Original*
G04 #@! TF.FileFunction,Legend,Bot*
G04 #@! TF.FilePolarity,Positive*
%FSLAX46Y46*%
G04 Gerber Fmt 4.6, Leading zero omitted, Abs format (unit mm)*
G04 Created by KiCad (PCBNEW 9.0.0) date 2025-04-21 18:53:58*
%MOMM*%
%LPD*%
G01*
G04 APERTURE LIST*
%ADD10C,0.150000*%
%ADD11C,0.200000*%
%ADD12C,0.500000*%
G04 APERTURE END LIST*
D10*
X114713220Y-98603152D02*
X114713220Y-99269819D01*
X114713220Y-98698390D02*
X114665601Y-98650771D01*
X114665601Y-98650771D02*
X114570363Y-98603152D01*
X114570363Y-98603152D02*
X114427506Y-98603152D01*
X114427506Y-98603152D02*
X114332268Y-98650771D01*
X114332268Y-98650771D02*
X114284649Y-98746009D01*
X114284649Y-98746009D02*
X114284649Y-99269819D01*
X113665601Y-99269819D02*
X113760839Y-99222200D01*
X113760839Y-99222200D02*
X113808458Y-99174580D01*
X113808458Y-99174580D02*
X113856077Y-99079342D01*
X113856077Y-99079342D02*
X113856077Y-98793628D01*
X113856077Y-98793628D02*
X113808458Y-98698390D01*
X113808458Y-98698390D02*
X113760839Y-98650771D01*
X113760839Y-98650771D02*
X113665601Y-98603152D01*
X113665601Y-98603152D02*
X113522744Y-98603152D01*
X113522744Y-98603152D02*
X113427506Y-98650771D01*
X113427506Y-98650771D02*
X113379887Y-98698390D01*
X113379887Y-98698390D02*
X113332268Y-98793628D01*
X113332268Y-98793628D02*
X113332268Y-99079342D01*
X113332268Y-99079342D02*
X113379887Y-99174580D01*
X113379887Y-99174580D02*
X113427506Y-99222200D01*
X113427506Y-99222200D02*
X113522744Y-99269819D01*
X113522744Y-99269819D02*
X113665601Y-99269819D01*
X113046553Y-98603152D02*
X112665601Y-98603152D01*
X112903696Y-99269819D02*
X112903696Y-98412676D01*
X112903696Y-98412676D02*
X112856077Y-98317438D01*
X112856077Y-98317438D02*
X112760839Y-98269819D01*
X112760839Y-98269819D02*
X112665601Y-98269819D01*
X112427505Y-98603152D02*
X112189410Y-99269819D01*
X111951315Y-98603152D02*
X112189410Y-99269819D01*
X112189410Y-99269819D02*
X112284648Y-99507914D01*
X112284648Y-99507914D02*
X112332267Y-99555533D01*
X112332267Y-99555533D02*
X112427505Y-99603152D01*
X110951314Y-98269819D02*
X110617981Y-99269819D01*
X110617981Y-99269819D02*
X110284648Y-98269819D01*
X109998933Y-98365057D02*
X109951314Y-98317438D01*
X109951314Y-98317438D02*
X109856076Y-98269819D01*
X109856076Y-98269819D02*
X109617981Y-98269819D01*
X109617981Y-98269819D02*
X109522743Y-98317438D01*
X109522743Y-98317438D02*
X109475124Y-98365057D01*
X109475124Y-98365057D02*
X109427505Y-98460295D01*
X109427505Y-98460295D02*
X109427505Y-98555533D01*
X109427505Y-98555533D02*
X109475124Y-98698390D01*
X109475124Y-98698390D02*
X110046552Y-99269819D01*
X110046552Y-99269819D02*
X109427505Y-99269819D01*
D11*
X83082843Y-50800000D02*
X83281281Y-50800000D01*
X83281281Y-50204686D02*
X83281281Y-51395314D01*
X83281281Y-51395314D02*
X84868785Y-51395314D01*
X83678157Y-51395314D02*
X83678157Y-50204686D01*
X84868785Y-50204686D02*
X83281281Y-50204686D01*
X84868785Y-50800000D02*
X85067223Y-50800000D01*
X84868785Y-51395314D02*
X84868785Y-50204686D01*
D10*
X21300000Y-67725000D02*
X22300000Y-66725000D01*
X21300000Y-70375000D02*
X21300000Y-67725000D01*
X21300000Y-70375000D02*
X22300000Y-71375000D01*
X21450000Y-67580000D02*
X21450000Y-70510000D01*
X21550000Y-67500000D02*
X21550000Y-70620000D01*
X21650000Y-67390000D02*
X21650000Y-70720000D01*
X21750000Y-67290000D02*
X21750000Y-70820000D01*
X21900000Y-67130000D02*
X21900000Y-70960000D01*
X22050000Y-67000000D02*
X22050000Y-71120000D01*
X22200000Y-66860000D02*
X22200000Y-71250000D01*
X22300000Y-66725000D02*
X24625000Y-66725000D01*
X22300000Y-71375000D02*
X24875000Y-71375000D01*
X22350000Y-66750000D02*
X22350000Y-71350000D01*
X22500000Y-66750000D02*
X22500000Y-71350000D01*
X22650000Y-66750000D02*
X22650000Y-71350000D01*
X22800000Y-66750000D02*
X22800000Y-71350000D01*
X22950000Y-66750000D02*
X22950000Y-71350000D01*
X23100000Y-66750000D02*
X23100000Y-71350000D01*
X23250000Y-66750000D02*
X23250000Y-71350000D01*
X23400000Y-66750000D02*
X23400000Y-71350000D01*
X23550000Y-66750000D02*
X23550000Y-71350000D01*
X23700000Y-66750000D02*
X23700000Y-71350000D01*
X23850000Y-66750000D02*
X23850000Y-71350000D01*
X24000000Y-66750000D02*
X24000000Y-71350000D01*
X24150000Y-66750000D02*
X24150000Y-71350000D01*
X24300000Y-66750000D02*
X24300000Y-71350000D01*
X24450000Y-66750000D02*
X24450000Y-71350000D01*
X24600000Y-66750000D02*
X24600000Y-71350000D01*
X24750000Y-66840000D02*
X24750000Y-71300000D01*
X24900000Y-66960000D02*
X24900000Y-71350000D01*
X25050000Y-67070000D02*
X25050000Y-71350000D01*
X25200000Y-67190000D02*
X25200000Y-71350000D01*
X25350000Y-67330000D02*
X25350000Y-71450000D01*
X25490000Y-67430000D02*
X25500000Y-71500000D01*
X25600000Y-67520000D02*
X25600000Y-71550000D01*
X25700000Y-67600000D02*
X25700000Y-71600000D01*
X25800000Y-67680000D02*
X25800000Y-71700000D01*
X25900000Y-67750000D02*
X24625000Y-66725000D01*
X25900000Y-67750000D02*
X25900000Y-71900000D01*
X26000000Y-67930000D02*
X26000000Y-72050000D01*
X26050000Y-72550000D02*
X26050000Y-72873113D01*
X26100000Y-68100000D02*
X26100000Y-73000000D01*
X26250000Y-68250000D02*
X26250000Y-73200000D01*
X26400000Y-68400000D02*
X26400000Y-73390000D01*
X26550000Y-68500000D02*
X26550000Y-73470000D01*
X26700000Y-68600000D02*
X26700000Y-73520000D01*
X26850000Y-68700000D02*
X26850000Y-73550000D01*
X26911204Y-73575000D02*
X29875000Y-73575000D01*
X27000000Y-68750000D02*
X27000000Y-73570000D01*
X27150000Y-68850000D02*
X27150000Y-73560000D01*
X27300000Y-68900000D02*
X27300000Y-73500000D01*
X27450000Y-68900000D02*
X27450000Y-73550000D01*
X27600000Y-68910000D02*
X27600000Y-73550000D01*
X27750000Y-68950000D02*
X27750000Y-73500000D01*
X27900000Y-68925000D02*
X29875000Y-68925000D01*
X27900000Y-68950000D02*
X27900000Y-73550000D01*
X28050000Y-68950000D02*
X28050000Y-73550000D01*
X28200000Y-68950000D02*
X28200000Y-73550000D01*
X28350000Y-68950000D02*
X28350000Y-73550000D01*
X28500000Y-68950000D02*
X28500000Y-73550000D01*
X28650000Y-68950000D02*
X28650000Y-73550000D01*
X28800000Y-68950000D02*
X28800000Y-73550000D01*
X28950000Y-68950000D02*
X28950000Y-73550000D01*
X29100000Y-68950000D02*
X29100000Y-73550000D01*
X29250000Y-68950000D02*
X29250000Y-73550000D01*
X29400000Y-68950000D02*
X29400000Y-73550000D01*
D12*
X29400000Y-73395000D02*
X31950000Y-73395000D01*
D10*
X29550000Y-68950000D02*
X29550000Y-73550000D01*
X29700000Y-68950000D02*
X29700000Y-73550000D01*
X29850000Y-68950000D02*
X29850000Y-73550000D01*
X30000000Y-68940000D02*
X30000000Y-73450000D01*
X30150000Y-68980000D02*
X30150000Y-73300000D01*
X30300000Y-69030000D02*
X30300000Y-73150000D01*
X30450000Y-69110000D02*
X30450000Y-73250000D01*
X30600000Y-69250000D02*
X30600000Y-73220000D01*
X30750000Y-69420000D02*
X30750000Y-73100000D01*
X30905000Y-72575000D02*
X30905000Y-69925000D01*
X24875000Y-71375000D02*
G75*
G02*
X26050000Y-72550000I-2J-1175002D01*
G01*
X26911204Y-73575000D02*
G75*
G02*
X26050000Y-72873113I38796J926887D01*
G01*
X27900000Y-68932542D02*
G75*
G02*
X25900000Y-67750000I2J2282546D01*
G01*
X29905000Y-68925000D02*
G75*
G02*
X30905000Y-69925000I1J-999999D01*
G01*
X30905000Y-72575000D02*
G75*
G02*
X29905000Y-73575000I-999999J-1D01*
G01*
D11*
X68482843Y-76400000D02*
X68681281Y-76400000D01*
X68681281Y-75804686D02*
X68681281Y-76995314D01*
X68681281Y-76995314D02*
X70268785Y-76995314D01*
X69078157Y-76995314D02*
X69078157Y-75804686D01*
X70268785Y-75804686D02*
X68681281Y-75804686D01*
X70268785Y-76400000D02*
X70467223Y-76400000D01*
X70268785Y-76995314D02*
X70268785Y-75804686D01*
X62132843Y-76400000D02*
X62331281Y-76400000D01*
X62331281Y-75804686D02*
X62331281Y-76995314D01*
X62331281Y-76995314D02*
X63918785Y-76995314D01*
X62728157Y-76995314D02*
X62728157Y-75804686D01*
X63918785Y-75804686D02*
X62331281Y-75804686D01*
X63918785Y-76400000D02*
X64117223Y-76400000D01*
X63918785Y-76995314D02*
X63918785Y-75804686D01*
X75832843Y-41150000D02*
X76031281Y-41150000D01*
X76031281Y-40554686D02*
X76031281Y-41745314D01*
X76031281Y-41745314D02*
X77618785Y-41745314D01*
X76428157Y-41745314D02*
X76428157Y-40554686D01*
X77618785Y-40554686D02*
X76031281Y-40554686D01*
X77618785Y-41150000D02*
X77817223Y-41150000D01*
X77618785Y-41745314D02*
X77618785Y-40554686D01*
D10*
X83375000Y-87450000D02*
X83375000Y-85125000D01*
X83400000Y-85150000D02*
X88000000Y-85150000D01*
X83400000Y-85300000D02*
X88000000Y-85300000D01*
X83400000Y-85450000D02*
X88000000Y-85450000D01*
X83400000Y-85600000D02*
X88000000Y-85600000D01*
X83400000Y-85750000D02*
X88000000Y-85750000D01*
X83400000Y-85900000D02*
X88000000Y-85900000D01*
X83400000Y-86050000D02*
X88000000Y-86050000D01*
X83400000Y-86200000D02*
X88000000Y-86200000D01*
X83400000Y-86350000D02*
X88000000Y-86350000D01*
X83400000Y-86500000D02*
X88000000Y-86500000D01*
X83400000Y-86650000D02*
X88000000Y-86650000D01*
X83400000Y-86800000D02*
X88000000Y-86800000D01*
X83400000Y-86950000D02*
X88000000Y-86950000D01*
X83400000Y-87100000D02*
X88000000Y-87100000D01*
X83400000Y-87250000D02*
X88000000Y-87250000D01*
X83400000Y-87400000D02*
X88000000Y-87400000D01*
X83490000Y-85000000D02*
X87950000Y-85000000D01*
X83510000Y-87550000D02*
X87900000Y-87550000D01*
X83610000Y-84850000D02*
X88000000Y-84850000D01*
X83650000Y-87700000D02*
X87770000Y-87700000D01*
X83720000Y-84700000D02*
X88000000Y-84700000D01*
X83780000Y-87850000D02*
X87610000Y-87850000D01*
X83840000Y-84550000D02*
X88000000Y-84550000D01*
X83940000Y-88000000D02*
X87470000Y-88000000D01*
X83980000Y-84400000D02*
X88100000Y-84400000D01*
X84040000Y-88100000D02*
X87370000Y-88100000D01*
X84080000Y-84260000D02*
X88150000Y-84250000D01*
X84150000Y-88200000D02*
X87270000Y-88200000D01*
X84170000Y-84150000D02*
X88200000Y-84150000D01*
X84230000Y-88300000D02*
X87160000Y-88300000D01*
X84250000Y-84050000D02*
X88250000Y-84050000D01*
X84330000Y-83950000D02*
X88350000Y-83950000D01*
X84375000Y-88450000D02*
X83375000Y-87450000D01*
X84400000Y-83850000D02*
X83375000Y-85125000D01*
X84400000Y-83850000D02*
X88550000Y-83850000D01*
X84580000Y-83750000D02*
X88700000Y-83750000D01*
X84750000Y-83650000D02*
X89650000Y-83650000D01*
X84900000Y-83500000D02*
X89850000Y-83500000D01*
X85050000Y-83350000D02*
X90040000Y-83350000D01*
X85150000Y-83200000D02*
X90120000Y-83200000D01*
X85250000Y-83050000D02*
X90170000Y-83050000D01*
X85350000Y-82900000D02*
X90200000Y-82900000D01*
X85400000Y-82750000D02*
X90220000Y-82750000D01*
X85500000Y-82600000D02*
X90210000Y-82600000D01*
X85550000Y-82300000D02*
X90200000Y-82300000D01*
X85550000Y-82450000D02*
X90150000Y-82450000D01*
X85560000Y-82150000D02*
X90200000Y-82150000D01*
X85575000Y-81850000D02*
X85575000Y-79875000D01*
X85590000Y-79750000D02*
X90100000Y-79750000D01*
X85600000Y-79900000D02*
X90200000Y-79900000D01*
X85600000Y-80050000D02*
X90200000Y-80050000D01*
X85600000Y-80200000D02*
X90200000Y-80200000D01*
X85600000Y-80350000D02*
X90200000Y-80350000D01*
X85600000Y-80500000D02*
X90200000Y-80500000D01*
X85600000Y-80650000D02*
X90200000Y-80650000D01*
X85600000Y-80800000D02*
X90200000Y-80800000D01*
X85600000Y-80950000D02*
X90200000Y-80950000D01*
X85600000Y-81100000D02*
X90200000Y-81100000D01*
X85600000Y-81250000D02*
X90200000Y-81250000D01*
X85600000Y-81400000D02*
X90200000Y-81400000D01*
X85600000Y-81550000D02*
X90200000Y-81550000D01*
X85600000Y-81700000D02*
X90200000Y-81700000D01*
X85600000Y-81850000D02*
X90200000Y-81850000D01*
X85600000Y-82000000D02*
X90150000Y-82000000D01*
X85630000Y-79600000D02*
X89950000Y-79600000D01*
X85680000Y-79450000D02*
X89800000Y-79450000D01*
X85760000Y-79300000D02*
X89900000Y-79300000D01*
X85900000Y-79150000D02*
X89870000Y-79150000D01*
X86070000Y-79000000D02*
X89750000Y-79000000D01*
X87025000Y-88450000D02*
X84375000Y-88450000D01*
X87025000Y-88450000D02*
X88025000Y-87450000D01*
X88025000Y-87450000D02*
X88025000Y-84875000D01*
X89200000Y-83700000D02*
X89523113Y-83700000D01*
X89225000Y-78845000D02*
X86575000Y-78845000D01*
D12*
X90045000Y-80350000D02*
X90045000Y-77800000D01*
D10*
X90225000Y-82838796D02*
X90225000Y-79875000D01*
X85575000Y-79845000D02*
G75*
G02*
X86575000Y-78845000I999999J1D01*
G01*
X85582542Y-81850000D02*
G75*
G02*
X84400000Y-83850000I-2282546J2D01*
G01*
X88025000Y-84875000D02*
G75*
G02*
X89200000Y-83700000I1175002J-2D01*
G01*
X89225000Y-78845000D02*
G75*
G02*
X90225000Y-79845000I1J-999999D01*
G01*
X90225000Y-82838796D02*
G75*
G02*
X89523113Y-83700000I-926887J38796D01*
G01*
X38300000Y-59525000D02*
X39300000Y-58525000D01*
X38300000Y-62175000D02*
X38300000Y-59525000D01*
X38300000Y-62175000D02*
X39300000Y-63175000D01*
X38450000Y-59380000D02*
X38450000Y-62310000D01*
X38550000Y-59300000D02*
X38550000Y-62420000D01*
X38650000Y-59190000D02*
X38650000Y-62520000D01*
X38750000Y-59090000D02*
X38750000Y-62620000D01*
X38900000Y-58930000D02*
X38900000Y-62760000D01*
X39050000Y-58800000D02*
X39050000Y-62920000D01*
X39200000Y-58660000D02*
X39200000Y-63050000D01*
X39300000Y-58525000D02*
X41625000Y-58525000D01*
X39300000Y-63175000D02*
X41875000Y-63175000D01*
X39350000Y-58550000D02*
X39350000Y-63150000D01*
X39500000Y-58550000D02*
X39500000Y-63150000D01*
X39650000Y-58550000D02*
X39650000Y-63150000D01*
X39800000Y-58550000D02*
X39800000Y-63150000D01*
X39950000Y-58550000D02*
X39950000Y-63150000D01*
X40100000Y-58550000D02*
X40100000Y-63150000D01*
X40250000Y-58550000D02*
X40250000Y-63150000D01*
X40400000Y-58550000D02*
X40400000Y-63150000D01*
X40550000Y-58550000D02*
X40550000Y-63150000D01*
X40700000Y-58550000D02*
X40700000Y-63150000D01*
X40850000Y-58550000D02*
X40850000Y-63150000D01*
X41000000Y-58550000D02*
X41000000Y-63150000D01*
X41150000Y-58550000D02*
X41150000Y-63150000D01*
X41300000Y-58550000D02*
X41300000Y-63150000D01*
X41450000Y-58550000D02*
X41450000Y-63150000D01*
X41600000Y-58550000D02*
X41600000Y-63150000D01*
X41750000Y-58640000D02*
X41750000Y-63100000D01*
X41900000Y-58760000D02*
X41900000Y-63150000D01*
X42050000Y-58870000D02*
X42050000Y-63150000D01*
X42200000Y-58990000D02*
X42200000Y-63150000D01*
X42350000Y-59130000D02*
X42350000Y-63250000D01*
X42490000Y-59230000D02*
X42500000Y-63300000D01*
X42600000Y-59320000D02*
X42600000Y-63350000D01*
X42700000Y-59400000D02*
X42700000Y-63400000D01*
X42800000Y-59480000D02*
X42800000Y-63500000D01*
X42900000Y-59550000D02*
X41625000Y-58525000D01*
X42900000Y-59550000D02*
X42900000Y-63700000D01*
X43000000Y-59730000D02*
X43000000Y-63850000D01*
X43050000Y-64350000D02*
X43050000Y-64673113D01*
X43100000Y-59900000D02*
X43100000Y-64800000D01*
X43250000Y-60050000D02*
X43250000Y-65000000D01*
X43400000Y-60200000D02*
X43400000Y-65190000D01*
X43550000Y-60300000D02*
X43550000Y-65270000D01*
X43700000Y-60400000D02*
X43700000Y-65320000D01*
X43850000Y-60500000D02*
X43850000Y-65350000D01*
X43911204Y-65375000D02*
X46875000Y-65375000D01*
X44000000Y-60550000D02*
X44000000Y-65370000D01*
X44150000Y-60650000D02*
X44150000Y-65360000D01*
X44300000Y-60700000D02*
X44300000Y-65300000D01*
X44450000Y-60700000D02*
X44450000Y-65350000D01*
X44600000Y-60710000D02*
X44600000Y-65350000D01*
X44750000Y-60750000D02*
X44750000Y-65300000D01*
X44900000Y-60725000D02*
X46875000Y-60725000D01*
X44900000Y-60750000D02*
X44900000Y-65350000D01*
X45050000Y-60750000D02*
X45050000Y-65350000D01*
X45200000Y-60750000D02*
X45200000Y-65350000D01*
X45350000Y-60750000D02*
X45350000Y-65350000D01*
X45500000Y-60750000D02*
X45500000Y-65350000D01*
X45650000Y-60750000D02*
X45650000Y-65350000D01*
X45800000Y-60750000D02*
X45800000Y-65350000D01*
X45950000Y-60750000D02*
X45950000Y-65350000D01*
X46100000Y-60750000D02*
X46100000Y-65350000D01*
X46250000Y-60750000D02*
X46250000Y-65350000D01*
X46400000Y-60750000D02*
X46400000Y-65350000D01*
D12*
X46400000Y-65195000D02*
X48950000Y-65195000D01*
D10*
X46550000Y-60750000D02*
X46550000Y-65350000D01*
X46700000Y-60750000D02*
X46700000Y-65350000D01*
X46850000Y-60750000D02*
X46850000Y-65350000D01*
X47000000Y-60740000D02*
X47000000Y-65250000D01*
X47150000Y-60780000D02*
X47150000Y-65100000D01*
X47300000Y-60830000D02*
X47300000Y-64950000D01*
X47450000Y-60910000D02*
X47450000Y-65050000D01*
X47600000Y-61050000D02*
X47600000Y-65020000D01*
X47750000Y-61220000D02*
X47750000Y-64900000D01*
X47905000Y-64375000D02*
X47905000Y-61725000D01*
X41875000Y-63175000D02*
G75*
G02*
X43050000Y-64350000I-2J-1175002D01*
G01*
X43911204Y-65375000D02*
G75*
G02*
X43050000Y-64673113I38796J926887D01*
G01*
X44900000Y-60732542D02*
G75*
G02*
X42900000Y-59550000I2J2282546D01*
G01*
X46905000Y-60725000D02*
G75*
G02*
X47905000Y-61725000I1J-999999D01*
G01*
X47905000Y-64375000D02*
G75*
G02*
X46905000Y-65375000I-999999J-1D01*
G01*
D11*
X82932843Y-46700000D02*
X83131281Y-46700000D01*
X83131281Y-46104686D02*
X83131281Y-47295314D01*
X83131281Y-47295314D02*
X84718785Y-47295314D01*
X83528157Y-47295314D02*
X83528157Y-46104686D01*
X84718785Y-46104686D02*
X83131281Y-46104686D01*
X84718785Y-46700000D02*
X84917223Y-46700000D01*
X84718785Y-47295314D02*
X84718785Y-46104686D01*
X28332843Y-46250000D02*
X28531281Y-46250000D01*
X28531281Y-45654686D02*
X28531281Y-46845314D01*
X28531281Y-46845314D02*
X30118785Y-46845314D01*
X28928157Y-46845314D02*
X28928157Y-45654686D01*
X30118785Y-45654686D02*
X28531281Y-45654686D01*
X30118785Y-46250000D02*
X30317223Y-46250000D01*
X30118785Y-46845314D02*
X30118785Y-45654686D01*
X61785943Y-58600000D02*
X61984381Y-58600000D01*
X61984381Y-58004686D02*
X61984381Y-59195314D01*
X61984381Y-59195314D02*
X63571885Y-59195314D01*
X62381257Y-59195314D02*
X62381257Y-58004686D01*
X63571885Y-58004686D02*
X61984381Y-58004686D01*
X63571885Y-58600000D02*
X63770323Y-58600000D01*
X63571885Y-59195314D02*
X63571885Y-58004686D01*
D10*
X84295000Y-71525000D02*
X84295000Y-74175000D01*
X84450000Y-74680000D02*
X84450000Y-71000000D01*
X84600000Y-74850000D02*
X84600000Y-70880000D01*
X84750000Y-74990000D02*
X84750000Y-70850000D01*
X84900000Y-75070000D02*
X84900000Y-70950000D01*
X85050000Y-75120000D02*
X85050000Y-70800000D01*
X85200000Y-75160000D02*
X85200000Y-70650000D01*
X85350000Y-75150000D02*
X85350000Y-70550000D01*
X85500000Y-75150000D02*
X85500000Y-70550000D01*
X85650000Y-75150000D02*
X85650000Y-70550000D01*
D12*
X85800000Y-70705000D02*
X83250000Y-70705000D01*
D10*
X85800000Y-75150000D02*
X85800000Y-70550000D01*
X85950000Y-75150000D02*
X85950000Y-70550000D01*
X86100000Y-75150000D02*
X86100000Y-70550000D01*
X86250000Y-75150000D02*
X86250000Y-70550000D01*
X86400000Y-75150000D02*
X86400000Y-70550000D01*
X86550000Y-75150000D02*
X86550000Y-70550000D01*
X86700000Y-75150000D02*
X86700000Y-70550000D01*
X86850000Y-75150000D02*
X86850000Y-70550000D01*
X87000000Y-75150000D02*
X87000000Y-70550000D01*
X87150000Y-75150000D02*
X87150000Y-70550000D01*
X87300000Y-75150000D02*
X87300000Y-70550000D01*
X87300000Y-75175000D02*
X85325000Y-75175000D01*
X87450000Y-75150000D02*
X87450000Y-70600000D01*
X87600000Y-75190000D02*
X87600000Y-70550000D01*
X87750000Y-75200000D02*
X87750000Y-70550000D01*
X87900000Y-75200000D02*
X87900000Y-70600000D01*
X88050000Y-75250000D02*
X88050000Y-70540000D01*
X88200000Y-75350000D02*
X88200000Y-70530000D01*
X88288796Y-70525000D02*
X85325000Y-70525000D01*
X88350000Y-75400000D02*
X88350000Y-70550000D01*
X88500000Y-75500000D02*
X88500000Y-70580000D01*
X88650000Y-75600000D02*
X88650000Y-70630000D01*
X88800000Y-75700000D02*
X88800000Y-70710000D01*
X88950000Y-75850000D02*
X88950000Y-70900000D01*
X89100000Y-76000000D02*
X89100000Y-71100000D01*
X89150000Y-71550000D02*
X89150000Y-71226887D01*
X89200000Y-76170000D02*
X89200000Y-72050000D01*
X89300000Y-76350000D02*
X89300000Y-72200000D01*
X89300000Y-76350000D02*
X90575000Y-77375000D01*
X89400000Y-76420000D02*
X89400000Y-72400000D01*
X89500000Y-76500000D02*
X89500000Y-72500000D01*
X89600000Y-76580000D02*
X89600000Y-72550000D01*
X89710000Y-76670000D02*
X89700000Y-72600000D01*
X89850000Y-76770000D02*
X89850000Y-72650000D01*
X90000000Y-76910000D02*
X90000000Y-72750000D01*
X90150000Y-77030000D02*
X90150000Y-72750000D01*
X90300000Y-77140000D02*
X90300000Y-72750000D01*
X90450000Y-77260000D02*
X90450000Y-72800000D01*
X90600000Y-77350000D02*
X90600000Y-72750000D01*
X90750000Y-77350000D02*
X90750000Y-72750000D01*
X90900000Y-77350000D02*
X90900000Y-72750000D01*
X91050000Y-77350000D02*
X91050000Y-72750000D01*
X91200000Y-77350000D02*
X91200000Y-72750000D01*
X91350000Y-77350000D02*
X91350000Y-72750000D01*
X91500000Y-77350000D02*
X91500000Y-72750000D01*
X91650000Y-77350000D02*
X91650000Y-72750000D01*
X91800000Y-77350000D02*
X91800000Y-72750000D01*
X91950000Y-77350000D02*
X91950000Y-72750000D01*
X92100000Y-77350000D02*
X92100000Y-72750000D01*
X92250000Y-77350000D02*
X92250000Y-72750000D01*
X92400000Y-77350000D02*
X92400000Y-72750000D01*
X92550000Y-77350000D02*
X92550000Y-72750000D01*
X92700000Y-77350000D02*
X92700000Y-72750000D01*
X92850000Y-77350000D02*
X92850000Y-72750000D01*
X92900000Y-72725000D02*
X90325000Y-72725000D01*
X92900000Y-77375000D02*
X90575000Y-77375000D01*
X93000000Y-77240000D02*
X93000000Y-72850000D01*
X93150000Y-77100000D02*
X93150000Y-72980000D01*
X93300000Y-76970000D02*
X93300000Y-73140000D01*
X93450000Y-76810000D02*
X93450000Y-73280000D01*
X93550000Y-76710000D02*
X93550000Y-73380000D01*
X93650000Y-76600000D02*
X93650000Y-73480000D01*
X93750000Y-76520000D02*
X93750000Y-73590000D01*
X93900000Y-73725000D02*
X92900000Y-72725000D01*
X93900000Y-73725000D02*
X93900000Y-76375000D01*
X93900000Y-76375000D02*
X92900000Y-77375000D01*
X84295000Y-71525000D02*
G75*
G02*
X85295000Y-70525000I999999J1D01*
G01*
X85295000Y-75175000D02*
G75*
G02*
X84295000Y-74175000I-1J999999D01*
G01*
X87300000Y-75167458D02*
G75*
G02*
X89300000Y-76350000I-2J-2282546D01*
G01*
X88288796Y-70525000D02*
G75*
G02*
X89150000Y-71226887I-38796J-926887D01*
G01*
X90325000Y-72725000D02*
G75*
G02*
X89150000Y-71550000I2J1175002D01*
G01*
D11*
X82182843Y-32400000D02*
X82381281Y-32400000D01*
X82381281Y-31804686D02*
X82381281Y-32995314D01*
X82381281Y-32995314D02*
X83968785Y-32995314D01*
X82778157Y-32995314D02*
X82778157Y-31804686D01*
X83968785Y-31804686D02*
X82381281Y-31804686D01*
X83968785Y-32400000D02*
X84167223Y-32400000D01*
X83968785Y-32995314D02*
X83968785Y-31804686D01*
X29332843Y-79000000D02*
X29531281Y-79000000D01*
X29531281Y-78404686D02*
X29531281Y-79595314D01*
X29531281Y-79595314D02*
X31118785Y-79595314D01*
X29928157Y-79595314D02*
X29928157Y-78404686D01*
X31118785Y-78404686D02*
X29531281Y-78404686D01*
X31118785Y-79000000D02*
X31317223Y-79000000D01*
X31118785Y-79595314D02*
X31118785Y-78404686D01*
D10*
X84295000Y-54525000D02*
X84295000Y-57175000D01*
X84450000Y-57680000D02*
X84450000Y-54000000D01*
X84600000Y-57850000D02*
X84600000Y-53880000D01*
X84750000Y-57990000D02*
X84750000Y-53850000D01*
X84900000Y-58070000D02*
X84900000Y-53950000D01*
X85050000Y-58120000D02*
X85050000Y-53800000D01*
X85200000Y-58160000D02*
X85200000Y-53650000D01*
X85350000Y-58150000D02*
X85350000Y-53550000D01*
X85500000Y-58150000D02*
X85500000Y-53550000D01*
X85650000Y-58150000D02*
X85650000Y-53550000D01*
D12*
X85800000Y-53705000D02*
X83250000Y-53705000D01*
D10*
X85800000Y-58150000D02*
X85800000Y-53550000D01*
X85950000Y-58150000D02*
X85950000Y-53550000D01*
X86100000Y-58150000D02*
X86100000Y-53550000D01*
X86250000Y-58150000D02*
X86250000Y-53550000D01*
X86400000Y-58150000D02*
X86400000Y-53550000D01*
X86550000Y-58150000D02*
X86550000Y-53550000D01*
X86700000Y-58150000D02*
X86700000Y-53550000D01*
X86850000Y-58150000D02*
X86850000Y-53550000D01*
X87000000Y-58150000D02*
X87000000Y-53550000D01*
X87150000Y-58150000D02*
X87150000Y-53550000D01*
X87300000Y-58150000D02*
X87300000Y-53550000D01*
X87300000Y-58175000D02*
X85325000Y-58175000D01*
X87450000Y-58150000D02*
X87450000Y-53600000D01*
X87600000Y-58190000D02*
X87600000Y-53550000D01*
X87750000Y-58200000D02*
X87750000Y-53550000D01*
X87900000Y-58200000D02*
X87900000Y-53600000D01*
X88050000Y-58250000D02*
X88050000Y-53540000D01*
X88200000Y-58350000D02*
X88200000Y-53530000D01*
X88288796Y-53525000D02*
X85325000Y-53525000D01*
X88350000Y-58400000D02*
X88350000Y-53550000D01*
X88500000Y-58500000D02*
X88500000Y-53580000D01*
X88650000Y-58600000D02*
X88650000Y-53630000D01*
X88800000Y-58700000D02*
X88800000Y-53710000D01*
X88950000Y-58850000D02*
X88950000Y-53900000D01*
X89100000Y-59000000D02*
X89100000Y-54100000D01*
X89150000Y-54550000D02*
X89150000Y-54226887D01*
X89200000Y-59170000D02*
X89200000Y-55050000D01*
X89300000Y-59350000D02*
X89300000Y-55200000D01*
X89300000Y-59350000D02*
X90575000Y-60375000D01*
X89400000Y-59420000D02*
X89400000Y-55400000D01*
X89500000Y-59500000D02*
X89500000Y-55500000D01*
X89600000Y-59580000D02*
X89600000Y-55550000D01*
X89710000Y-59670000D02*
X89700000Y-55600000D01*
X89850000Y-59770000D02*
X89850000Y-55650000D01*
X90000000Y-59910000D02*
X90000000Y-55750000D01*
X90150000Y-60030000D02*
X90150000Y-55750000D01*
X90300000Y-60140000D02*
X90300000Y-55750000D01*
X90450000Y-60260000D02*
X90450000Y-55800000D01*
X90600000Y-60350000D02*
X90600000Y-55750000D01*
X90750000Y-60350000D02*
X90750000Y-55750000D01*
X90900000Y-60350000D02*
X90900000Y-55750000D01*
X91050000Y-60350000D02*
X91050000Y-55750000D01*
X91200000Y-60350000D02*
X91200000Y-55750000D01*
X91350000Y-60350000D02*
X91350000Y-55750000D01*
X91500000Y-60350000D02*
X91500000Y-55750000D01*
X91650000Y-60350000D02*
X91650000Y-55750000D01*
X91800000Y-60350000D02*
X91800000Y-55750000D01*
X91950000Y-60350000D02*
X91950000Y-55750000D01*
X92100000Y-60350000D02*
X92100000Y-55750000D01*
X92250000Y-60350000D02*
X92250000Y-55750000D01*
X92400000Y-60350000D02*
X92400000Y-55750000D01*
X92550000Y-60350000D02*
X92550000Y-55750000D01*
X92700000Y-60350000D02*
X92700000Y-55750000D01*
X92850000Y-60350000D02*
X92850000Y-55750000D01*
X92900000Y-55725000D02*
X90325000Y-55725000D01*
X92900000Y-60375000D02*
X90575000Y-60375000D01*
X93000000Y-60240000D02*
X93000000Y-55850000D01*
X93150000Y-60100000D02*
X93150000Y-55980000D01*
X93300000Y-59970000D02*
X93300000Y-56140000D01*
X93450000Y-59810000D02*
X93450000Y-56280000D01*
X93550000Y-59710000D02*
X93550000Y-56380000D01*
X93650000Y-59600000D02*
X93650000Y-56480000D01*
X93750000Y-59520000D02*
X93750000Y-56590000D01*
X93900000Y-56725000D02*
X92900000Y-55725000D01*
X93900000Y-56725000D02*
X93900000Y-59375000D01*
X93900000Y-59375000D02*
X92900000Y-60375000D01*
X84295000Y-54525000D02*
G75*
G02*
X85295000Y-53525000I999999J1D01*
G01*
X85295000Y-58175000D02*
G75*
G02*
X84295000Y-57175000I-1J999999D01*
G01*
X87300000Y-58167458D02*
G75*
G02*
X89300000Y-59350000I-2J-2282546D01*
G01*
X88288796Y-53525000D02*
G75*
G02*
X89150000Y-54226887I-38796J-926887D01*
G01*
X90325000Y-55725000D02*
G75*
G02*
X89150000Y-54550000I2J1175002D01*
G01*
X67295000Y-52125000D02*
X67295000Y-54775000D01*
X67450000Y-55280000D02*
X67450000Y-51600000D01*
X67600000Y-55450000D02*
X67600000Y-51480000D01*
X67750000Y-55590000D02*
X67750000Y-51450000D01*
X67900000Y-55670000D02*
X67900000Y-51550000D01*
X68050000Y-55720000D02*
X68050000Y-51400000D01*
X68200000Y-55760000D02*
X68200000Y-51250000D01*
X68350000Y-55750000D02*
X68350000Y-51150000D01*
X68500000Y-55750000D02*
X68500000Y-51150000D01*
X68650000Y-55750000D02*
X68650000Y-51150000D01*
D12*
X68800000Y-51305000D02*
X66250000Y-51305000D01*
D10*
X68800000Y-55750000D02*
X68800000Y-51150000D01*
X68950000Y-55750000D02*
X68950000Y-51150000D01*
X69100000Y-55750000D02*
X69100000Y-51150000D01*
X69250000Y-55750000D02*
X69250000Y-51150000D01*
X69400000Y-55750000D02*
X69400000Y-51150000D01*
X69550000Y-55750000D02*
X69550000Y-51150000D01*
X69700000Y-55750000D02*
X69700000Y-51150000D01*
X69850000Y-55750000D02*
X69850000Y-51150000D01*
X70000000Y-55750000D02*
X70000000Y-51150000D01*
X70150000Y-55750000D02*
X70150000Y-51150000D01*
X70300000Y-55750000D02*
X70300000Y-51150000D01*
X70300000Y-55775000D02*
X68325000Y-55775000D01*
X70450000Y-55750000D02*
X70450000Y-51200000D01*
X70600000Y-55790000D02*
X70600000Y-51150000D01*
X70750000Y-55800000D02*
X70750000Y-51150000D01*
X70900000Y-55800000D02*
X70900000Y-51200000D01*
X71050000Y-55850000D02*
X71050000Y-51140000D01*
X71200000Y-55950000D02*
X71200000Y-51130000D01*
X71288796Y-51125000D02*
X68325000Y-51125000D01*
X71350000Y-56000000D02*
X71350000Y-51150000D01*
X71500000Y-56100000D02*
X71500000Y-51180000D01*
X71650000Y-56200000D02*
X71650000Y-51230000D01*
X71800000Y-56300000D02*
X71800000Y-51310000D01*
X71950000Y-56450000D02*
X71950000Y-51500000D01*
X72100000Y-56600000D02*
X72100000Y-51700000D01*
X72150000Y-52150000D02*
X72150000Y-51826887D01*
X72200000Y-56770000D02*
X72200000Y-52650000D01*
X72300000Y-56950000D02*
X72300000Y-52800000D01*
X72300000Y-56950000D02*
X73575000Y-57975000D01*
X72400000Y-57020000D02*
X72400000Y-53000000D01*
X72500000Y-57100000D02*
X72500000Y-53100000D01*
X72600000Y-57180000D02*
X72600000Y-53150000D01*
X72710000Y-57270000D02*
X72700000Y-53200000D01*
X72850000Y-57370000D02*
X72850000Y-53250000D01*
X73000000Y-57510000D02*
X73000000Y-53350000D01*
X73150000Y-57630000D02*
X73150000Y-53350000D01*
X73300000Y-57740000D02*
X73300000Y-53350000D01*
X73450000Y-57860000D02*
X73450000Y-53400000D01*
X73600000Y-57950000D02*
X73600000Y-53350000D01*
X73750000Y-57950000D02*
X73750000Y-53350000D01*
X73900000Y-57950000D02*
X73900000Y-53350000D01*
X74050000Y-57950000D02*
X74050000Y-53350000D01*
X74200000Y-57950000D02*
X74200000Y-53350000D01*
X74350000Y-57950000D02*
X74350000Y-53350000D01*
X74500000Y-57950000D02*
X74500000Y-53350000D01*
X74650000Y-57950000D02*
X74650000Y-53350000D01*
X74800000Y-57950000D02*
X74800000Y-53350000D01*
X74950000Y-57950000D02*
X74950000Y-53350000D01*
X75100000Y-57950000D02*
X75100000Y-53350000D01*
X75250000Y-57950000D02*
X75250000Y-53350000D01*
X75400000Y-57950000D02*
X75400000Y-53350000D01*
X75550000Y-57950000D02*
X75550000Y-53350000D01*
X75700000Y-57950000D02*
X75700000Y-53350000D01*
X75850000Y-57950000D02*
X75850000Y-53350000D01*
X75900000Y-53325000D02*
X73325000Y-53325000D01*
X75900000Y-57975000D02*
X73575000Y-57975000D01*
X76000000Y-57840000D02*
X76000000Y-53450000D01*
X76150000Y-57700000D02*
X76150000Y-53580000D01*
X76300000Y-57570000D02*
X76300000Y-53740000D01*
X76450000Y-57410000D02*
X76450000Y-53880000D01*
X76550000Y-57310000D02*
X76550000Y-53980000D01*
X76650000Y-57200000D02*
X76650000Y-54080000D01*
X76750000Y-57120000D02*
X76750000Y-54190000D01*
X76900000Y-54325000D02*
X75900000Y-53325000D01*
X76900000Y-54325000D02*
X76900000Y-56975000D01*
X76900000Y-56975000D02*
X75900000Y-57975000D01*
X67295000Y-52125000D02*
G75*
G02*
X68295000Y-51125000I999999J1D01*
G01*
X68295000Y-55775000D02*
G75*
G02*
X67295000Y-54775000I-1J999999D01*
G01*
X70300000Y-55767458D02*
G75*
G02*
X72300000Y-56950000I-2J-2282546D01*
G01*
X71288796Y-51125000D02*
G75*
G02*
X72150000Y-51826887I-38796J-926887D01*
G01*
X73325000Y-53325000D02*
G75*
G02*
X72150000Y-52150000I2J1175002D01*
G01*
D11*
X36782843Y-73600000D02*
X36981281Y-73600000D01*
X36981281Y-73004686D02*
X36981281Y-74195314D01*
X36981281Y-74195314D02*
X38568785Y-74195314D01*
X37378157Y-74195314D02*
X37378157Y-73004686D01*
X38568785Y-73004686D02*
X36981281Y-73004686D01*
X38568785Y-73600000D02*
X38767223Y-73600000D01*
X38568785Y-74195314D02*
X38568785Y-73004686D01*
X69632843Y-58550000D02*
X69831281Y-58550000D01*
X69831281Y-57954686D02*
X69831281Y-59145314D01*
X69831281Y-59145314D02*
X71418785Y-59145314D01*
X70228157Y-59145314D02*
X70228157Y-57954686D01*
X71418785Y-57954686D02*
X69831281Y-57954686D01*
X71418785Y-58550000D02*
X71617223Y-58550000D01*
X71418785Y-59145314D02*
X71418785Y-57954686D01*
D10*
X38300000Y-25525000D02*
X39300000Y-24525000D01*
X38300000Y-28175000D02*
X38300000Y-25525000D01*
X38300000Y-28175000D02*
X39300000Y-29175000D01*
X38450000Y-25380000D02*
X38450000Y-28310000D01*
X38550000Y-25300000D02*
X38550000Y-28420000D01*
X38650000Y-25190000D02*
X38650000Y-28520000D01*
X38750000Y-25090000D02*
X38750000Y-28620000D01*
X38900000Y-24930000D02*
X38900000Y-28760000D01*
X39050000Y-24800000D02*
X39050000Y-28920000D01*
X39200000Y-24660000D02*
X39200000Y-29050000D01*
X39300000Y-24525000D02*
X41625000Y-24525000D01*
X39300000Y-29175000D02*
X41875000Y-29175000D01*
X39350000Y-24550000D02*
X39350000Y-29150000D01*
X39500000Y-24550000D02*
X39500000Y-29150000D01*
X39650000Y-24550000D02*
X39650000Y-29150000D01*
X39800000Y-24550000D02*
X39800000Y-29150000D01*
X39950000Y-24550000D02*
X39950000Y-29150000D01*
X40100000Y-24550000D02*
X40100000Y-29150000D01*
X40250000Y-24550000D02*
X40250000Y-29150000D01*
X40400000Y-24550000D02*
X40400000Y-29150000D01*
X40550000Y-24550000D02*
X40550000Y-29150000D01*
X40700000Y-24550000D02*
X40700000Y-29150000D01*
X40850000Y-24550000D02*
X40850000Y-29150000D01*
X41000000Y-24550000D02*
X41000000Y-29150000D01*
X41150000Y-24550000D02*
X41150000Y-29150000D01*
X41300000Y-24550000D02*
X41300000Y-29150000D01*
X41450000Y-24550000D02*
X41450000Y-29150000D01*
X41600000Y-24550000D02*
X41600000Y-29150000D01*
X41750000Y-24640000D02*
X41750000Y-29100000D01*
X41900000Y-24760000D02*
X41900000Y-29150000D01*
X42050000Y-24870000D02*
X42050000Y-29150000D01*
X42200000Y-24990000D02*
X42200000Y-29150000D01*
X42350000Y-25130000D02*
X42350000Y-29250000D01*
X42490000Y-25230000D02*
X42500000Y-29300000D01*
X42600000Y-25320000D02*
X42600000Y-29350000D01*
X42700000Y-25400000D02*
X42700000Y-29400000D01*
X42800000Y-25480000D02*
X42800000Y-29500000D01*
X42900000Y-25550000D02*
X41625000Y-24525000D01*
X42900000Y-25550000D02*
X42900000Y-29700000D01*
X43000000Y-25730000D02*
X43000000Y-29850000D01*
X43050000Y-30350000D02*
X43050000Y-30673113D01*
X43100000Y-25900000D02*
X43100000Y-30800000D01*
X43250000Y-26050000D02*
X43250000Y-31000000D01*
X43400000Y-26200000D02*
X43400000Y-31190000D01*
X43550000Y-26300000D02*
X43550000Y-31270000D01*
X43700000Y-26400000D02*
X43700000Y-31320000D01*
X43850000Y-26500000D02*
X43850000Y-31350000D01*
X43911204Y-31375000D02*
X46875000Y-31375000D01*
X44000000Y-26550000D02*
X44000000Y-31370000D01*
X44150000Y-26650000D02*
X44150000Y-31360000D01*
X44300000Y-26700000D02*
X44300000Y-31300000D01*
X44450000Y-26700000D02*
X44450000Y-31350000D01*
X44600000Y-26710000D02*
X44600000Y-31350000D01*
X44750000Y-26750000D02*
X44750000Y-31300000D01*
X44900000Y-26725000D02*
X46875000Y-26725000D01*
X44900000Y-26750000D02*
X44900000Y-31350000D01*
X45050000Y-26750000D02*
X45050000Y-31350000D01*
X45200000Y-26750000D02*
X45200000Y-31350000D01*
X45350000Y-26750000D02*
X45350000Y-31350000D01*
X45500000Y-26750000D02*
X45500000Y-31350000D01*
X45650000Y-26750000D02*
X45650000Y-31350000D01*
X45800000Y-26750000D02*
X45800000Y-31350000D01*
X45950000Y-26750000D02*
X45950000Y-31350000D01*
X46100000Y-26750000D02*
X46100000Y-31350000D01*
X46250000Y-26750000D02*
X46250000Y-31350000D01*
X46400000Y-26750000D02*
X46400000Y-31350000D01*
D12*
X46400000Y-31195000D02*
X48950000Y-31195000D01*
D10*
X46550000Y-26750000D02*
X46550000Y-31350000D01*
X46700000Y-26750000D02*
X46700000Y-31350000D01*
X46850000Y-26750000D02*
X46850000Y-31350000D01*
X47000000Y-26740000D02*
X47000000Y-31250000D01*
X47150000Y-26780000D02*
X47150000Y-31100000D01*
X47300000Y-26830000D02*
X47300000Y-30950000D01*
X47450000Y-26910000D02*
X47450000Y-31050000D01*
X47600000Y-27050000D02*
X47600000Y-31020000D01*
X47750000Y-27220000D02*
X47750000Y-30900000D01*
X47905000Y-30375000D02*
X47905000Y-27725000D01*
X41875000Y-29175000D02*
G75*
G02*
X43050000Y-30350000I-2J-1175002D01*
G01*
X43911204Y-31375000D02*
G75*
G02*
X43050000Y-30673113I38796J926887D01*
G01*
X44900000Y-26732542D02*
G75*
G02*
X42900000Y-25550000I2J2282546D01*
G01*
X46905000Y-26725000D02*
G75*
G02*
X47905000Y-27725000I1J-999999D01*
G01*
X47905000Y-30375000D02*
G75*
G02*
X46905000Y-31375000I-999999J-1D01*
G01*
X72300000Y-25525000D02*
X73300000Y-24525000D01*
X72300000Y-28175000D02*
X72300000Y-25525000D01*
X72300000Y-28175000D02*
X73300000Y-29175000D01*
X72450000Y-25380000D02*
X72450000Y-28310000D01*
X72550000Y-25300000D02*
X72550000Y-28420000D01*
X72650000Y-25190000D02*
X72650000Y-28520000D01*
X72750000Y-25090000D02*
X72750000Y-28620000D01*
X72900000Y-24930000D02*
X72900000Y-28760000D01*
X73050000Y-24800000D02*
X73050000Y-28920000D01*
X73200000Y-24660000D02*
X73200000Y-29050000D01*
X73300000Y-24525000D02*
X75625000Y-24525000D01*
X73300000Y-29175000D02*
X75875000Y-29175000D01*
X73350000Y-24550000D02*
X73350000Y-29150000D01*
X73500000Y-24550000D02*
X73500000Y-29150000D01*
X73650000Y-24550000D02*
X73650000Y-29150000D01*
X73800000Y-24550000D02*
X73800000Y-29150000D01*
X73950000Y-24550000D02*
X73950000Y-29150000D01*
X74100000Y-24550000D02*
X74100000Y-29150000D01*
X74250000Y-24550000D02*
X74250000Y-29150000D01*
X74400000Y-24550000D02*
X74400000Y-29150000D01*
X74550000Y-24550000D02*
X74550000Y-29150000D01*
X74700000Y-24550000D02*
X74700000Y-29150000D01*
X74850000Y-24550000D02*
X74850000Y-29150000D01*
X75000000Y-24550000D02*
X75000000Y-29150000D01*
X75150000Y-24550000D02*
X75150000Y-29150000D01*
X75300000Y-24550000D02*
X75300000Y-29150000D01*
X75450000Y-24550000D02*
X75450000Y-29150000D01*
X75600000Y-24550000D02*
X75600000Y-29150000D01*
X75750000Y-24640000D02*
X75750000Y-29100000D01*
X75900000Y-24760000D02*
X75900000Y-29150000D01*
X76050000Y-24870000D02*
X76050000Y-29150000D01*
X76200000Y-24990000D02*
X76200000Y-29150000D01*
X76350000Y-25130000D02*
X76350000Y-29250000D01*
X76490000Y-25230000D02*
X76500000Y-29300000D01*
X76600000Y-25320000D02*
X76600000Y-29350000D01*
X76700000Y-25400000D02*
X76700000Y-29400000D01*
X76800000Y-25480000D02*
X76800000Y-29500000D01*
X76900000Y-25550000D02*
X75625000Y-24525000D01*
X76900000Y-25550000D02*
X76900000Y-29700000D01*
X77000000Y-25730000D02*
X77000000Y-29850000D01*
X77050000Y-30350000D02*
X77050000Y-30673113D01*
X77100000Y-25900000D02*
X77100000Y-30800000D01*
X77250000Y-26050000D02*
X77250000Y-31000000D01*
X77400000Y-26200000D02*
X77400000Y-31190000D01*
X77550000Y-26300000D02*
X77550000Y-31270000D01*
X77700000Y-26400000D02*
X77700000Y-31320000D01*
X77850000Y-26500000D02*
X77850000Y-31350000D01*
X77911204Y-31375000D02*
X80875000Y-31375000D01*
X78000000Y-26550000D02*
X78000000Y-31370000D01*
X78150000Y-26650000D02*
X78150000Y-31360000D01*
X78300000Y-26700000D02*
X78300000Y-31300000D01*
X78450000Y-26700000D02*
X78450000Y-31350000D01*
X78600000Y-26710000D02*
X78600000Y-31350000D01*
X78750000Y-26750000D02*
X78750000Y-31300000D01*
X78900000Y-26725000D02*
X80875000Y-26725000D01*
X78900000Y-26750000D02*
X78900000Y-31350000D01*
X79050000Y-26750000D02*
X79050000Y-31350000D01*
X79200000Y-26750000D02*
X79200000Y-31350000D01*
X79350000Y-26750000D02*
X79350000Y-31350000D01*
X79500000Y-26750000D02*
X79500000Y-31350000D01*
X79650000Y-26750000D02*
X79650000Y-31350000D01*
X79800000Y-26750000D02*
X79800000Y-31350000D01*
X79950000Y-26750000D02*
X79950000Y-31350000D01*
X80100000Y-26750000D02*
X80100000Y-31350000D01*
X80250000Y-26750000D02*
X80250000Y-31350000D01*
X80400000Y-26750000D02*
X80400000Y-31350000D01*
D12*
X80400000Y-31195000D02*
X82950000Y-31195000D01*
D10*
X80550000Y-26750000D02*
X80550000Y-31350000D01*
X80700000Y-26750000D02*
X80700000Y-31350000D01*
X80850000Y-26750000D02*
X80850000Y-31350000D01*
X81000000Y-26740000D02*
X81000000Y-31250000D01*
X81150000Y-26780000D02*
X81150000Y-31100000D01*
X81300000Y-26830000D02*
X81300000Y-30950000D01*
X81450000Y-26910000D02*
X81450000Y-31050000D01*
X81600000Y-27050000D02*
X81600000Y-31020000D01*
X81750000Y-27220000D02*
X81750000Y-30900000D01*
X81905000Y-30375000D02*
X81905000Y-27725000D01*
X75875000Y-29175000D02*
G75*
G02*
X77050000Y-30350000I-2J-1175002D01*
G01*
X77911204Y-31375000D02*
G75*
G02*
X77050000Y-30673113I38796J926887D01*
G01*
X78900000Y-26732542D02*
G75*
G02*
X76900000Y-25550000I2J2282546D01*
G01*
X80905000Y-26725000D02*
G75*
G02*
X81905000Y-27725000I1J-999999D01*
G01*
X81905000Y-30375000D02*
G75*
G02*
X80905000Y-31375000I-999999J-1D01*
G01*
X101295000Y-60325000D02*
X101295000Y-62975000D01*
X101450000Y-63480000D02*
X101450000Y-59800000D01*
X101600000Y-63650000D02*
X101600000Y-59680000D01*
X101750000Y-63790000D02*
X101750000Y-59650000D01*
X101900000Y-63870000D02*
X101900000Y-59750000D01*
X102050000Y-63920000D02*
X102050000Y-59600000D01*
X102200000Y-63960000D02*
X102200000Y-59450000D01*
X102350000Y-63950000D02*
X102350000Y-59350000D01*
X102500000Y-63950000D02*
X102500000Y-59350000D01*
X102650000Y-63950000D02*
X102650000Y-59350000D01*
D12*
X102800000Y-59505000D02*
X100250000Y-59505000D01*
D10*
X102800000Y-63950000D02*
X102800000Y-59350000D01*
X102950000Y-63950000D02*
X102950000Y-59350000D01*
X103100000Y-63950000D02*
X103100000Y-59350000D01*
X103250000Y-63950000D02*
X103250000Y-59350000D01*
X103400000Y-63950000D02*
X103400000Y-59350000D01*
X103550000Y-63950000D02*
X103550000Y-59350000D01*
X103700000Y-63950000D02*
X103700000Y-59350000D01*
X103850000Y-63950000D02*
X103850000Y-59350000D01*
X104000000Y-63950000D02*
X104000000Y-59350000D01*
X104150000Y-63950000D02*
X104150000Y-59350000D01*
X104300000Y-63950000D02*
X104300000Y-59350000D01*
X104300000Y-63975000D02*
X102325000Y-63975000D01*
X104450000Y-63950000D02*
X104450000Y-59400000D01*
X104600000Y-63990000D02*
X104600000Y-59350000D01*
X104750000Y-64000000D02*
X104750000Y-59350000D01*
X104900000Y-64000000D02*
X104900000Y-59400000D01*
X105050000Y-64050000D02*
X105050000Y-59340000D01*
X105200000Y-64150000D02*
X105200000Y-59330000D01*
X105288796Y-59325000D02*
X102325000Y-59325000D01*
X105350000Y-64200000D02*
X105350000Y-59350000D01*
X105500000Y-64300000D02*
X105500000Y-59380000D01*
X105650000Y-64400000D02*
X105650000Y-59430000D01*
X105800000Y-64500000D02*
X105800000Y-59510000D01*
X105950000Y-64650000D02*
X105950000Y-59700000D01*
X106100000Y-64800000D02*
X106100000Y-59900000D01*
X106150000Y-60350000D02*
X106150000Y-60026887D01*
X106200000Y-64970000D02*
X106200000Y-60850000D01*
X106300000Y-65150000D02*
X106300000Y-61000000D01*
X106300000Y-65150000D02*
X107575000Y-66175000D01*
X106400000Y-65220000D02*
X106400000Y-61200000D01*
X106500000Y-65300000D02*
X106500000Y-61300000D01*
X106600000Y-65380000D02*
X106600000Y-61350000D01*
X106710000Y-65470000D02*
X106700000Y-61400000D01*
X106850000Y-65570000D02*
X106850000Y-61450000D01*
X107000000Y-65710000D02*
X107000000Y-61550000D01*
X107150000Y-65830000D02*
X107150000Y-61550000D01*
X107300000Y-65940000D02*
X107300000Y-61550000D01*
X107450000Y-66060000D02*
X107450000Y-61600000D01*
X107600000Y-66150000D02*
X107600000Y-61550000D01*
X107750000Y-66150000D02*
X107750000Y-61550000D01*
X107900000Y-66150000D02*
X107900000Y-61550000D01*
X108050000Y-66150000D02*
X108050000Y-61550000D01*
X108200000Y-66150000D02*
X108200000Y-61550000D01*
X108350000Y-66150000D02*
X108350000Y-61550000D01*
X108500000Y-66150000D02*
X108500000Y-61550000D01*
X108650000Y-66150000D02*
X108650000Y-61550000D01*
X108800000Y-66150000D02*
X108800000Y-61550000D01*
X108950000Y-66150000D02*
X108950000Y-61550000D01*
X109100000Y-66150000D02*
X109100000Y-61550000D01*
X109250000Y-66150000D02*
X109250000Y-61550000D01*
X109400000Y-66150000D02*
X109400000Y-61550000D01*
X109550000Y-66150000D02*
X109550000Y-61550000D01*
X109700000Y-66150000D02*
X109700000Y-61550000D01*
X109850000Y-66150000D02*
X109850000Y-61550000D01*
X109900000Y-61525000D02*
X107325000Y-61525000D01*
X109900000Y-66175000D02*
X107575000Y-66175000D01*
X110000000Y-66040000D02*
X110000000Y-61650000D01*
X110150000Y-65900000D02*
X110150000Y-61780000D01*
X110300000Y-65770000D02*
X110300000Y-61940000D01*
X110450000Y-65610000D02*
X110450000Y-62080000D01*
X110550000Y-65510000D02*
X110550000Y-62180000D01*
X110650000Y-65400000D02*
X110650000Y-62280000D01*
X110750000Y-65320000D02*
X110750000Y-62390000D01*
X110900000Y-62525000D02*
X109900000Y-61525000D01*
X110900000Y-62525000D02*
X110900000Y-65175000D01*
X110900000Y-65175000D02*
X109900000Y-66175000D01*
X101295000Y-60325000D02*
G75*
G02*
X102295000Y-59325000I999999J1D01*
G01*
X102295000Y-63975000D02*
G75*
G02*
X101295000Y-62975000I-1J999999D01*
G01*
X104300000Y-63967458D02*
G75*
G02*
X106300000Y-65150000I-2J-2282546D01*
G01*
X105288796Y-59325000D02*
G75*
G02*
X106150000Y-60026887I-38796J-926887D01*
G01*
X107325000Y-61525000D02*
G75*
G02*
X106150000Y-60350000I2J1175002D01*
G01*
X21300000Y-33725000D02*
X22300000Y-32725000D01*
X21300000Y-36375000D02*
X21300000Y-33725000D01*
X21300000Y-36375000D02*
X22300000Y-37375000D01*
X21450000Y-33580000D02*
X21450000Y-36510000D01*
X21550000Y-33500000D02*
X21550000Y-36620000D01*
X21650000Y-33390000D02*
X21650000Y-36720000D01*
X21750000Y-33290000D02*
X21750000Y-36820000D01*
X21900000Y-33130000D02*
X21900000Y-36960000D01*
X22050000Y-33000000D02*
X22050000Y-37120000D01*
X22200000Y-32860000D02*
X22200000Y-37250000D01*
X22300000Y-32725000D02*
X24625000Y-32725000D01*
X22300000Y-37375000D02*
X24875000Y-37375000D01*
X22350000Y-32750000D02*
X22350000Y-37350000D01*
X22500000Y-32750000D02*
X22500000Y-37350000D01*
X22650000Y-32750000D02*
X22650000Y-37350000D01*
X22800000Y-32750000D02*
X22800000Y-37350000D01*
X22950000Y-32750000D02*
X22950000Y-37350000D01*
X23100000Y-32750000D02*
X23100000Y-37350000D01*
X23250000Y-32750000D02*
X23250000Y-37350000D01*
X23400000Y-32750000D02*
X23400000Y-37350000D01*
X23550000Y-32750000D02*
X23550000Y-37350000D01*
X23700000Y-32750000D02*
X23700000Y-37350000D01*
X23850000Y-32750000D02*
X23850000Y-37350000D01*
X24000000Y-32750000D02*
X24000000Y-37350000D01*
X24150000Y-32750000D02*
X24150000Y-37350000D01*
X24300000Y-32750000D02*
X24300000Y-37350000D01*
X24450000Y-32750000D02*
X24450000Y-37350000D01*
X24600000Y-32750000D02*
X24600000Y-37350000D01*
X24750000Y-32840000D02*
X24750000Y-37300000D01*
X24900000Y-32960000D02*
X24900000Y-37350000D01*
X25050000Y-33070000D02*
X25050000Y-37350000D01*
X25200000Y-33190000D02*
X25200000Y-37350000D01*
X25350000Y-33330000D02*
X25350000Y-37450000D01*
X25490000Y-33430000D02*
X25500000Y-37500000D01*
X25600000Y-33520000D02*
X25600000Y-37550000D01*
X25700000Y-33600000D02*
X25700000Y-37600000D01*
X25800000Y-33680000D02*
X25800000Y-37700000D01*
X25900000Y-33750000D02*
X24625000Y-32725000D01*
X25900000Y-33750000D02*
X25900000Y-37900000D01*
X26000000Y-33930000D02*
X26000000Y-38050000D01*
X26050000Y-38550000D02*
X26050000Y-38873113D01*
X26100000Y-34100000D02*
X26100000Y-39000000D01*
X26250000Y-34250000D02*
X26250000Y-39200000D01*
X26400000Y-34400000D02*
X26400000Y-39390000D01*
X26550000Y-34500000D02*
X26550000Y-39470000D01*
X26700000Y-34600000D02*
X26700000Y-39520000D01*
X26850000Y-34700000D02*
X26850000Y-39550000D01*
X26911204Y-39575000D02*
X29875000Y-39575000D01*
X27000000Y-34750000D02*
X27000000Y-39570000D01*
X27150000Y-34850000D02*
X27150000Y-39560000D01*
X27300000Y-34900000D02*
X27300000Y-39500000D01*
X27450000Y-34900000D02*
X27450000Y-39550000D01*
X27600000Y-34910000D02*
X27600000Y-39550000D01*
X27750000Y-34950000D02*
X27750000Y-39500000D01*
X27900000Y-34925000D02*
X29875000Y-34925000D01*
X27900000Y-34950000D02*
X27900000Y-39550000D01*
X28050000Y-34950000D02*
X28050000Y-39550000D01*
X28200000Y-34950000D02*
X28200000Y-39550000D01*
X28350000Y-34950000D02*
X28350000Y-39550000D01*
X28500000Y-34950000D02*
X28500000Y-39550000D01*
X28650000Y-34950000D02*
X28650000Y-39550000D01*
X28800000Y-34950000D02*
X28800000Y-39550000D01*
X28950000Y-34950000D02*
X28950000Y-39550000D01*
X29100000Y-34950000D02*
X29100000Y-39550000D01*
X29250000Y-34950000D02*
X29250000Y-39550000D01*
X29400000Y-34950000D02*
X29400000Y-39550000D01*
D12*
X29400000Y-39395000D02*
X31950000Y-39395000D01*
D10*
X29550000Y-34950000D02*
X29550000Y-39550000D01*
X29700000Y-34950000D02*
X29700000Y-39550000D01*
X29850000Y-34950000D02*
X29850000Y-39550000D01*
X30000000Y-34940000D02*
X30000000Y-39450000D01*
X30150000Y-34980000D02*
X30150000Y-39300000D01*
X30300000Y-35030000D02*
X30300000Y-39150000D01*
X30450000Y-35110000D02*
X30450000Y-39250000D01*
X30600000Y-35250000D02*
X30600000Y-39220000D01*
X30750000Y-35420000D02*
X30750000Y-39100000D01*
X30905000Y-38575000D02*
X30905000Y-35925000D01*
X24875000Y-37375000D02*
G75*
G02*
X26050000Y-38550000I-2J-1175002D01*
G01*
X26911204Y-39575000D02*
G75*
G02*
X26050000Y-38873113I38796J926887D01*
G01*
X27900000Y-34932542D02*
G75*
G02*
X25900000Y-33750000I2J2282546D01*
G01*
X29905000Y-34925000D02*
G75*
G02*
X30905000Y-35925000I1J-999999D01*
G01*
X30905000Y-38575000D02*
G75*
G02*
X29905000Y-39575000I-999999J-1D01*
G01*
D11*
X79082843Y-86150000D02*
X79281281Y-86150000D01*
X79281281Y-85554686D02*
X79281281Y-86745314D01*
X79281281Y-86745314D02*
X80868785Y-86745314D01*
X79678157Y-86745314D02*
X79678157Y-85554686D01*
X80868785Y-85554686D02*
X79281281Y-85554686D01*
X80868785Y-86150000D02*
X81067223Y-86150000D01*
X80868785Y-86745314D02*
X80868785Y-85554686D01*
D10*
X38300000Y-42525000D02*
X39300000Y-41525000D01*
X38300000Y-45175000D02*
X38300000Y-42525000D01*
X38300000Y-45175000D02*
X39300000Y-46175000D01*
X38450000Y-42380000D02*
X38450000Y-45310000D01*
X38550000Y-42300000D02*
X38550000Y-45420000D01*
X38650000Y-42190000D02*
X38650000Y-45520000D01*
X38750000Y-42090000D02*
X38750000Y-45620000D01*
X38900000Y-41930000D02*
X38900000Y-45760000D01*
X39050000Y-41800000D02*
X39050000Y-45920000D01*
X39200000Y-41660000D02*
X39200000Y-46050000D01*
X39300000Y-41525000D02*
X41625000Y-41525000D01*
X39300000Y-46175000D02*
X41875000Y-46175000D01*
X39350000Y-41550000D02*
X39350000Y-46150000D01*
X39500000Y-41550000D02*
X39500000Y-46150000D01*
X39650000Y-41550000D02*
X39650000Y-46150000D01*
X39800000Y-41550000D02*
X39800000Y-46150000D01*
X39950000Y-41550000D02*
X39950000Y-46150000D01*
X40100000Y-41550000D02*
X40100000Y-46150000D01*
X40250000Y-41550000D02*
X40250000Y-46150000D01*
X40400000Y-41550000D02*
X40400000Y-46150000D01*
X40550000Y-41550000D02*
X40550000Y-46150000D01*
X40700000Y-41550000D02*
X40700000Y-46150000D01*
X40850000Y-41550000D02*
X40850000Y-46150000D01*
X41000000Y-41550000D02*
X41000000Y-46150000D01*
X41150000Y-41550000D02*
X41150000Y-46150000D01*
X41300000Y-41550000D02*
X41300000Y-46150000D01*
X41450000Y-41550000D02*
X41450000Y-46150000D01*
X41600000Y-41550000D02*
X41600000Y-46150000D01*
X41750000Y-41640000D02*
X41750000Y-46100000D01*
X41900000Y-41760000D02*
X41900000Y-46150000D01*
X42050000Y-41870000D02*
X42050000Y-46150000D01*
X42200000Y-41990000D02*
X42200000Y-46150000D01*
X42350000Y-42130000D02*
X42350000Y-46250000D01*
X42490000Y-42230000D02*
X42500000Y-46300000D01*
X42600000Y-42320000D02*
X42600000Y-46350000D01*
X42700000Y-42400000D02*
X42700000Y-46400000D01*
X42800000Y-42480000D02*
X42800000Y-46500000D01*
X42900000Y-42550000D02*
X41625000Y-41525000D01*
X42900000Y-42550000D02*
X42900000Y-46700000D01*
X43000000Y-42730000D02*
X43000000Y-46850000D01*
X43050000Y-47350000D02*
X43050000Y-47673113D01*
X43100000Y-42900000D02*
X43100000Y-47800000D01*
X43250000Y-43050000D02*
X43250000Y-48000000D01*
X43400000Y-43200000D02*
X43400000Y-48190000D01*
X43550000Y-43300000D02*
X43550000Y-48270000D01*
X43700000Y-43400000D02*
X43700000Y-48320000D01*
X43850000Y-43500000D02*
X43850000Y-48350000D01*
X43911204Y-48375000D02*
X46875000Y-48375000D01*
X44000000Y-43550000D02*
X44000000Y-48370000D01*
X44150000Y-43650000D02*
X44150000Y-48360000D01*
X44300000Y-43700000D02*
X44300000Y-48300000D01*
X44450000Y-43700000D02*
X44450000Y-48350000D01*
X44600000Y-43710000D02*
X44600000Y-48350000D01*
X44750000Y-43750000D02*
X44750000Y-48300000D01*
X44900000Y-43725000D02*
X46875000Y-43725000D01*
X44900000Y-43750000D02*
X44900000Y-48350000D01*
X45050000Y-43750000D02*
X45050000Y-48350000D01*
X45200000Y-43750000D02*
X45200000Y-48350000D01*
X45350000Y-43750000D02*
X45350000Y-48350000D01*
X45500000Y-43750000D02*
X45500000Y-48350000D01*
X45650000Y-43750000D02*
X45650000Y-48350000D01*
X45800000Y-43750000D02*
X45800000Y-48350000D01*
X45950000Y-43750000D02*
X45950000Y-48350000D01*
X46100000Y-43750000D02*
X46100000Y-48350000D01*
X46250000Y-43750000D02*
X46250000Y-48350000D01*
X46400000Y-43750000D02*
X46400000Y-48350000D01*
D12*
X46400000Y-48195000D02*
X48950000Y-48195000D01*
D10*
X46550000Y-43750000D02*
X46550000Y-48350000D01*
X46700000Y-43750000D02*
X46700000Y-48350000D01*
X46850000Y-43750000D02*
X46850000Y-48350000D01*
X47000000Y-43740000D02*
X47000000Y-48250000D01*
X47150000Y-43780000D02*
X47150000Y-48100000D01*
X47300000Y-43830000D02*
X47300000Y-47950000D01*
X47450000Y-43910000D02*
X47450000Y-48050000D01*
X47600000Y-44050000D02*
X47600000Y-48020000D01*
X47750000Y-44220000D02*
X47750000Y-47900000D01*
X47905000Y-47375000D02*
X47905000Y-44725000D01*
X41875000Y-46175000D02*
G75*
G02*
X43050000Y-47350000I-2J-1175002D01*
G01*
X43911204Y-48375000D02*
G75*
G02*
X43050000Y-47673113I38796J926887D01*
G01*
X44900000Y-43732542D02*
G75*
G02*
X42900000Y-42550000I2J2282546D01*
G01*
X46905000Y-43725000D02*
G75*
G02*
X47905000Y-44725000I1J-999999D01*
G01*
X47905000Y-47375000D02*
G75*
G02*
X46905000Y-48375000I-999999J-1D01*
G01*
D11*
X36782843Y-71300000D02*
X36981281Y-71300000D01*
X36981281Y-70704686D02*
X36981281Y-71895314D01*
X36981281Y-71895314D02*
X38568785Y-71895314D01*
X37378157Y-71895314D02*
X37378157Y-70704686D01*
X38568785Y-70704686D02*
X36981281Y-70704686D01*
X38568785Y-71300000D02*
X38767223Y-71300000D01*
X38568785Y-71895314D02*
X38568785Y-70704686D01*
D10*
X101150000Y-93900000D02*
X101150000Y-90050000D01*
X101230000Y-94100000D02*
X104160000Y-94100000D01*
X101250000Y-89850000D02*
X105250000Y-89850000D01*
X101250000Y-90060000D02*
X105150000Y-90050000D01*
X101250000Y-90200000D02*
X105100000Y-90200000D01*
X101250000Y-90350000D02*
X105000000Y-90350000D01*
X101250000Y-90500000D02*
X105000000Y-90500000D01*
X101250000Y-90650000D02*
X105000000Y-90650000D01*
X101250000Y-90800000D02*
X105710000Y-90800000D01*
X101250000Y-90950000D02*
X105000000Y-90950000D01*
X101250000Y-91100000D02*
X105000000Y-91100000D01*
X101250000Y-91250000D02*
X105000000Y-91250000D01*
X101250000Y-91400000D02*
X105000000Y-91400000D01*
X101250000Y-91550000D02*
X105000000Y-91550000D01*
X101250000Y-91700000D02*
X105000000Y-91700000D01*
X101250000Y-91850000D02*
X105000000Y-91850000D01*
X101250000Y-92000000D02*
X105050000Y-92000000D01*
X101250000Y-92150000D02*
X105000000Y-92150000D01*
X101250000Y-92300000D02*
X105000000Y-92300000D01*
X101250000Y-92450000D02*
X105000000Y-92450000D01*
X101250000Y-92600000D02*
X105000000Y-92600000D01*
X101250000Y-92750000D02*
X105000000Y-92750000D01*
X101250000Y-92900000D02*
X105000000Y-92900000D01*
X101250000Y-93050000D02*
X105000000Y-93050000D01*
X101250000Y-93200000D02*
X105050000Y-93200000D01*
X101250000Y-93350000D02*
X104900000Y-93350000D01*
X101250000Y-93500000D02*
X104770000Y-93500000D01*
X101250000Y-93650000D02*
X104610000Y-93650000D01*
X101250000Y-93800000D02*
X104470000Y-93800000D01*
X101250000Y-93900000D02*
X104370000Y-93900000D01*
X101250000Y-94000000D02*
X104270000Y-94000000D01*
X101300000Y-89950000D02*
X105330000Y-89950000D01*
X101330000Y-89750000D02*
X105350000Y-89750000D01*
X101375000Y-94250000D02*
X101150000Y-93900000D01*
X101400000Y-89650000D02*
X101150000Y-90000000D01*
X101400000Y-89650000D02*
X105550000Y-89650000D01*
X101580000Y-89550000D02*
X105700000Y-89550000D01*
X101750000Y-89450000D02*
X106650000Y-89450000D01*
X101900000Y-89300000D02*
X106850000Y-89300000D01*
X102050000Y-89150000D02*
X107040000Y-89150000D01*
X102150000Y-89000000D02*
X107120000Y-89000000D01*
X102250000Y-88850000D02*
X107170000Y-88850000D01*
X102350000Y-88700000D02*
X107200000Y-88700000D01*
X102400000Y-88550000D02*
X107220000Y-88550000D01*
X102500000Y-88400000D02*
X107210000Y-88400000D01*
X102550000Y-88100000D02*
X107200000Y-88100000D01*
X102550000Y-88250000D02*
X107150000Y-88250000D01*
X102560000Y-87950000D02*
X107200000Y-87950000D01*
X102575000Y-87650000D02*
X102575000Y-85675000D01*
X102590000Y-85550000D02*
X107100000Y-85550000D01*
X102600000Y-85700000D02*
X107200000Y-85700000D01*
X102600000Y-85850000D02*
X107200000Y-85850000D01*
X102600000Y-86000000D02*
X107200000Y-86000000D01*
X102600000Y-86150000D02*
X107200000Y-86150000D01*
X102600000Y-86300000D02*
X107200000Y-86300000D01*
X102600000Y-86450000D02*
X107200000Y-86450000D01*
X102600000Y-86600000D02*
X107200000Y-86600000D01*
X102600000Y-86750000D02*
X107200000Y-86750000D01*
X102600000Y-86900000D02*
X107200000Y-86900000D01*
X102600000Y-87050000D02*
X107200000Y-87050000D01*
X102600000Y-87200000D02*
X107200000Y-87200000D01*
X102600000Y-87350000D02*
X107200000Y-87350000D01*
X102600000Y-87500000D02*
X107200000Y-87500000D01*
X102600000Y-87650000D02*
X107200000Y-87650000D01*
X102600000Y-87800000D02*
X107150000Y-87800000D01*
X102630000Y-85400000D02*
X106950000Y-85400000D01*
X102680000Y-85250000D02*
X106800000Y-85250000D01*
X102760000Y-85100000D02*
X106900000Y-85100000D01*
X102900000Y-84950000D02*
X106870000Y-84950000D01*
X103070000Y-84800000D02*
X106750000Y-84800000D01*
X104025000Y-94250000D02*
X101375000Y-94250000D01*
X104025000Y-94250000D02*
X105025000Y-93250000D01*
X105025000Y-93250000D02*
X105025000Y-90675000D01*
X106200000Y-89500000D02*
X106523113Y-89500000D01*
X106225000Y-84645000D02*
X103575000Y-84645000D01*
D12*
X107045000Y-86150000D02*
X107045000Y-83600000D01*
D10*
X107225000Y-88638796D02*
X107225000Y-85675000D01*
X102575000Y-85645000D02*
G75*
G02*
X103575000Y-84645000I999999J1D01*
G01*
X102582542Y-87650000D02*
G75*
G02*
X101400000Y-89650000I-2282546J2D01*
G01*
X105025000Y-90675000D02*
G75*
G02*
X106200000Y-89500000I1175002J-2D01*
G01*
X106225000Y-84645000D02*
G75*
G02*
X107225000Y-85645000I1J-999999D01*
G01*
X107225000Y-88638796D02*
G75*
G02*
X106523113Y-89500000I-926887J38796D01*
G01*
D11*
X75832843Y-43200000D02*
X76031281Y-43200000D01*
X76031281Y-42604686D02*
X76031281Y-43795314D01*
X76031281Y-43795314D02*
X77618785Y-43795314D01*
X76428157Y-43795314D02*
X76428157Y-42604686D01*
X77618785Y-42604686D02*
X76031281Y-42604686D01*
X77618785Y-43200000D02*
X77817223Y-43200000D01*
X77618785Y-43795314D02*
X77618785Y-42604686D01*
X69732843Y-46950000D02*
X69931281Y-46950000D01*
X69931281Y-46354686D02*
X69931281Y-47545314D01*
X69931281Y-47545314D02*
X71518785Y-47545314D01*
X70328157Y-47545314D02*
X70328157Y-46354686D01*
X71518785Y-46354686D02*
X69931281Y-46354686D01*
X71518785Y-46950000D02*
X71717223Y-46950000D01*
X71518785Y-47545314D02*
X71518785Y-46354686D01*
X69732843Y-45050000D02*
X69931281Y-45050000D01*
X69931281Y-44454686D02*
X69931281Y-45645314D01*
X69931281Y-45645314D02*
X71518785Y-45645314D01*
X70328157Y-45645314D02*
X70328157Y-44454686D01*
X71518785Y-44454686D02*
X69931281Y-44454686D01*
X71518785Y-45050000D02*
X71717223Y-45050000D01*
X71518785Y-45645314D02*
X71518785Y-44454686D01*
X28332843Y-44250000D02*
X28531281Y-44250000D01*
X28531281Y-43654686D02*
X28531281Y-44845314D01*
X28531281Y-44845314D02*
X30118785Y-44845314D01*
X28928157Y-44845314D02*
X28928157Y-43654686D01*
X30118785Y-43654686D02*
X28531281Y-43654686D01*
X30118785Y-44250000D02*
X30317223Y-44250000D01*
X30118785Y-44845314D02*
X30118785Y-43654686D01*
D10*
X50295000Y-66025000D02*
X50295000Y-68675000D01*
X50450000Y-69180000D02*
X50450000Y-65500000D01*
X50600000Y-69350000D02*
X50600000Y-65380000D01*
X50750000Y-69490000D02*
X50750000Y-65350000D01*
X50900000Y-69570000D02*
X50900000Y-65450000D01*
X51050000Y-69620000D02*
X51050000Y-65300000D01*
X51200000Y-69660000D02*
X51200000Y-65150000D01*
X51350000Y-69650000D02*
X51350000Y-65050000D01*
X51500000Y-69650000D02*
X51500000Y-65050000D01*
X51650000Y-69650000D02*
X51650000Y-65050000D01*
D12*
X51800000Y-65205000D02*
X49250000Y-65205000D01*
D10*
X51800000Y-69650000D02*
X51800000Y-65050000D01*
X51950000Y-69650000D02*
X51950000Y-65050000D01*
X52100000Y-69650000D02*
X52100000Y-65050000D01*
X52250000Y-69650000D02*
X52250000Y-65050000D01*
X52400000Y-69650000D02*
X52400000Y-65050000D01*
X52550000Y-69650000D02*
X52550000Y-65050000D01*
X52700000Y-69650000D02*
X52700000Y-65050000D01*
X52850000Y-69650000D02*
X52850000Y-65050000D01*
X53000000Y-69650000D02*
X53000000Y-65050000D01*
X53150000Y-69650000D02*
X53150000Y-65050000D01*
X53300000Y-69650000D02*
X53300000Y-65050000D01*
X53300000Y-69675000D02*
X51325000Y-69675000D01*
X53450000Y-69650000D02*
X53450000Y-65100000D01*
X53600000Y-69690000D02*
X53600000Y-65050000D01*
X53750000Y-69700000D02*
X53750000Y-65050000D01*
X53900000Y-69700000D02*
X53900000Y-65100000D01*
X54050000Y-69750000D02*
X54050000Y-65040000D01*
X54200000Y-69850000D02*
X54200000Y-65030000D01*
X54288796Y-65025000D02*
X51325000Y-65025000D01*
X54350000Y-69900000D02*
X54350000Y-65050000D01*
X54500000Y-70000000D02*
X54500000Y-65080000D01*
X54650000Y-70100000D02*
X54650000Y-65130000D01*
X54800000Y-70200000D02*
X54800000Y-65210000D01*
X54950000Y-70350000D02*
X54950000Y-65400000D01*
X55100000Y-70500000D02*
X55100000Y-65600000D01*
X55150000Y-66050000D02*
X55150000Y-65726887D01*
X55200000Y-70670000D02*
X55200000Y-66550000D01*
X55300000Y-70850000D02*
X55300000Y-66700000D01*
X55300000Y-70850000D02*
X56575000Y-71875000D01*
X55400000Y-70920000D02*
X55400000Y-66900000D01*
X55500000Y-71000000D02*
X55500000Y-67000000D01*
X55600000Y-71080000D02*
X55600000Y-67050000D01*
X55710000Y-71170000D02*
X55700000Y-67100000D01*
X55850000Y-71270000D02*
X55850000Y-67150000D01*
X56000000Y-71410000D02*
X56000000Y-67250000D01*
X56150000Y-71530000D02*
X56150000Y-67250000D01*
X56300000Y-71640000D02*
X56300000Y-67250000D01*
X56450000Y-71760000D02*
X56450000Y-67300000D01*
X56600000Y-71850000D02*
X56600000Y-67250000D01*
X56750000Y-71850000D02*
X56750000Y-67250000D01*
X56900000Y-71850000D02*
X56900000Y-67250000D01*
X57050000Y-71850000D02*
X57050000Y-67250000D01*
X57200000Y-71850000D02*
X57200000Y-67250000D01*
X57350000Y-71850000D02*
X57350000Y-67250000D01*
X57500000Y-71850000D02*
X57500000Y-67250000D01*
X57650000Y-71850000D02*
X57650000Y-67250000D01*
X57800000Y-71850000D02*
X57800000Y-67250000D01*
X57950000Y-71850000D02*
X57950000Y-67250000D01*
X58100000Y-71850000D02*
X58100000Y-67250000D01*
X58250000Y-71850000D02*
X58250000Y-67250000D01*
X58400000Y-71850000D02*
X58400000Y-67250000D01*
X58550000Y-71850000D02*
X58550000Y-67250000D01*
X58700000Y-71850000D02*
X58700000Y-67250000D01*
X58850000Y-71850000D02*
X58850000Y-67250000D01*
X58900000Y-67225000D02*
X56325000Y-67225000D01*
X58900000Y-71875000D02*
X56575000Y-71875000D01*
X59000000Y-71740000D02*
X59000000Y-67350000D01*
X59150000Y-71600000D02*
X59150000Y-67480000D01*
X59300000Y-71470000D02*
X59300000Y-67640000D01*
X59450000Y-71310000D02*
X59450000Y-67780000D01*
X59550000Y-71210000D02*
X59550000Y-67880000D01*
X59650000Y-71100000D02*
X59650000Y-67980000D01*
X59750000Y-71020000D02*
X59750000Y-68090000D01*
X59900000Y-68225000D02*
X58900000Y-67225000D01*
X59900000Y-68225000D02*
X59900000Y-70875000D01*
X59900000Y-70875000D02*
X58900000Y-71875000D01*
X50295000Y-66025000D02*
G75*
G02*
X51295000Y-65025000I999999J1D01*
G01*
X51295000Y-69675000D02*
G75*
G02*
X50295000Y-68675000I-1J999999D01*
G01*
X53300000Y-69667458D02*
G75*
G02*
X55300000Y-70850000I-2J-2282546D01*
G01*
X54288796Y-65025000D02*
G75*
G02*
X55150000Y-65726887I-38796J-926887D01*
G01*
X56325000Y-67225000D02*
G75*
G02*
X55150000Y-66050000I2J1175002D01*
G01*
D11*
X79082843Y-84000000D02*
X79281281Y-84000000D01*
X79281281Y-83404686D02*
X79281281Y-84595314D01*
X79281281Y-84595314D02*
X80868785Y-84595314D01*
X79678157Y-84595314D02*
X79678157Y-83404686D01*
X80868785Y-83404686D02*
X79281281Y-83404686D01*
X80868785Y-84000000D02*
X81067223Y-84000000D01*
X80868785Y-84595314D02*
X80868785Y-83404686D01*
D10*
X101295000Y-77325000D02*
X101295000Y-79975000D01*
X101450000Y-80480000D02*
X101450000Y-76800000D01*
X101600000Y-80650000D02*
X101600000Y-76680000D01*
X101750000Y-80790000D02*
X101750000Y-76650000D01*
X101900000Y-80870000D02*
X101900000Y-76750000D01*
X102050000Y-80920000D02*
X102050000Y-76600000D01*
X102200000Y-80960000D02*
X102200000Y-76450000D01*
X102350000Y-80950000D02*
X102350000Y-76350000D01*
X102500000Y-80950000D02*
X102500000Y-76350000D01*
X102650000Y-80950000D02*
X102650000Y-76350000D01*
D12*
X102800000Y-76505000D02*
X100250000Y-76505000D01*
D10*
X102800000Y-80950000D02*
X102800000Y-76350000D01*
X102950000Y-80950000D02*
X102950000Y-76350000D01*
X103100000Y-80950000D02*
X103100000Y-76350000D01*
X103250000Y-80950000D02*
X103250000Y-76350000D01*
X103400000Y-80950000D02*
X103400000Y-76350000D01*
X103550000Y-80950000D02*
X103550000Y-76350000D01*
X103700000Y-80950000D02*
X103700000Y-76350000D01*
X103850000Y-80950000D02*
X103850000Y-76350000D01*
X104000000Y-80950000D02*
X104000000Y-76350000D01*
X104150000Y-80950000D02*
X104150000Y-76350000D01*
X104300000Y-80950000D02*
X104300000Y-76350000D01*
X104300000Y-80975000D02*
X102325000Y-80975000D01*
X104450000Y-80950000D02*
X104450000Y-76400000D01*
X104600000Y-80990000D02*
X104600000Y-76350000D01*
X104750000Y-81000000D02*
X104750000Y-76350000D01*
X104900000Y-81000000D02*
X104900000Y-76400000D01*
X105050000Y-81050000D02*
X105050000Y-76340000D01*
X105200000Y-81150000D02*
X105200000Y-76330000D01*
X105288796Y-76325000D02*
X102325000Y-76325000D01*
X105350000Y-81200000D02*
X105350000Y-76350000D01*
X105500000Y-81300000D02*
X105500000Y-76380000D01*
X105650000Y-81400000D02*
X105650000Y-76430000D01*
X105800000Y-81500000D02*
X105800000Y-76510000D01*
X105950000Y-81650000D02*
X105950000Y-76700000D01*
X106100000Y-81800000D02*
X106100000Y-76900000D01*
X106150000Y-77350000D02*
X106150000Y-77026887D01*
X106200000Y-81970000D02*
X106200000Y-77850000D01*
X106300000Y-82150000D02*
X106300000Y-78000000D01*
X106300000Y-82150000D02*
X107575000Y-83175000D01*
X106400000Y-82220000D02*
X106400000Y-78200000D01*
X106500000Y-82300000D02*
X106500000Y-78300000D01*
X106600000Y-82380000D02*
X106600000Y-78350000D01*
X106710000Y-82470000D02*
X106700000Y-78400000D01*
X106850000Y-82570000D02*
X106850000Y-78450000D01*
X107000000Y-82710000D02*
X107000000Y-78550000D01*
X107150000Y-82830000D02*
X107150000Y-78550000D01*
X107300000Y-82940000D02*
X107300000Y-78550000D01*
X107450000Y-83060000D02*
X107450000Y-78600000D01*
X107600000Y-83150000D02*
X107600000Y-78550000D01*
X107750000Y-83150000D02*
X107750000Y-78550000D01*
X107900000Y-83150000D02*
X107900000Y-78550000D01*
X108050000Y-83150000D02*
X108050000Y-78550000D01*
X108200000Y-83150000D02*
X108200000Y-78550000D01*
X108350000Y-83150000D02*
X108350000Y-78550000D01*
X108500000Y-83150000D02*
X108500000Y-78550000D01*
X108650000Y-83150000D02*
X108650000Y-78550000D01*
X108800000Y-83150000D02*
X108800000Y-78550000D01*
X108950000Y-83150000D02*
X108950000Y-78550000D01*
X109100000Y-83150000D02*
X109100000Y-78550000D01*
X109250000Y-83150000D02*
X109250000Y-78550000D01*
X109400000Y-83150000D02*
X109400000Y-78550000D01*
X109550000Y-83150000D02*
X109550000Y-78550000D01*
X109700000Y-83150000D02*
X109700000Y-78550000D01*
X109850000Y-83150000D02*
X109850000Y-78550000D01*
X109900000Y-78525000D02*
X107325000Y-78525000D01*
X109900000Y-83175000D02*
X107575000Y-83175000D01*
X110000000Y-83040000D02*
X110000000Y-78650000D01*
X110150000Y-82900000D02*
X110150000Y-78780000D01*
X110300000Y-82770000D02*
X110300000Y-78940000D01*
X110450000Y-82610000D02*
X110450000Y-79080000D01*
X110550000Y-82510000D02*
X110550000Y-79180000D01*
X110650000Y-82400000D02*
X110650000Y-79280000D01*
X110750000Y-82320000D02*
X110750000Y-79390000D01*
X110900000Y-79525000D02*
X109900000Y-78525000D01*
X110900000Y-79525000D02*
X110900000Y-82175000D01*
X110900000Y-82175000D02*
X109900000Y-83175000D01*
X101295000Y-77325000D02*
G75*
G02*
X102295000Y-76325000I999999J1D01*
G01*
X102295000Y-80975000D02*
G75*
G02*
X101295000Y-79975000I-1J999999D01*
G01*
X104300000Y-80967458D02*
G75*
G02*
X106300000Y-82150000I-2J-2282546D01*
G01*
X105288796Y-76325000D02*
G75*
G02*
X106150000Y-77026887I-38796J-926887D01*
G01*
X107325000Y-78525000D02*
G75*
G02*
X106150000Y-77350000I2J1175002D01*
G01*
D11*
X78782843Y-33950000D02*
X78981281Y-33950000D01*
X78981281Y-33354686D02*
X78981281Y-34545314D01*
X78981281Y-34545314D02*
X80568785Y-34545314D01*
X79378157Y-34545314D02*
X79378157Y-33354686D01*
X80568785Y-33354686D02*
X78981281Y-33354686D01*
X80568785Y-33950000D02*
X80767223Y-33950000D01*
X80568785Y-34545314D02*
X80568785Y-33354686D01*
X68482843Y-81300000D02*
X68681281Y-81300000D01*
X68681281Y-80704686D02*
X68681281Y-81895314D01*
X68681281Y-81895314D02*
X70268785Y-81895314D01*
X69078157Y-81895314D02*
X69078157Y-80704686D01*
X70268785Y-80704686D02*
X68681281Y-80704686D01*
X70268785Y-81300000D02*
X70467223Y-81300000D01*
X70268785Y-81895314D02*
X70268785Y-80704686D01*
D10*
X50295000Y-49025000D02*
X50295000Y-51675000D01*
X50450000Y-52180000D02*
X50450000Y-48500000D01*
X50600000Y-52350000D02*
X50600000Y-48380000D01*
X50750000Y-52490000D02*
X50750000Y-48350000D01*
X50900000Y-52570000D02*
X50900000Y-48450000D01*
X51050000Y-52620000D02*
X51050000Y-48300000D01*
X51200000Y-52660000D02*
X51200000Y-48150000D01*
X51350000Y-52650000D02*
X51350000Y-48050000D01*
X51500000Y-52650000D02*
X51500000Y-48050000D01*
X51650000Y-52650000D02*
X51650000Y-48050000D01*
D12*
X51800000Y-48205000D02*
X49250000Y-48205000D01*
D10*
X51800000Y-52650000D02*
X51800000Y-48050000D01*
X51950000Y-52650000D02*
X51950000Y-48050000D01*
X52100000Y-52650000D02*
X52100000Y-48050000D01*
X52250000Y-52650000D02*
X52250000Y-48050000D01*
X52400000Y-52650000D02*
X52400000Y-48050000D01*
X52550000Y-52650000D02*
X52550000Y-48050000D01*
X52700000Y-52650000D02*
X52700000Y-48050000D01*
X52850000Y-52650000D02*
X52850000Y-48050000D01*
X53000000Y-52650000D02*
X53000000Y-48050000D01*
X53150000Y-52650000D02*
X53150000Y-48050000D01*
X53300000Y-52650000D02*
X53300000Y-48050000D01*
X53300000Y-52675000D02*
X51325000Y-52675000D01*
X53450000Y-52650000D02*
X53450000Y-48100000D01*
X53600000Y-52690000D02*
X53600000Y-48050000D01*
X53750000Y-52700000D02*
X53750000Y-48050000D01*
X53900000Y-52700000D02*
X53900000Y-48100000D01*
X54050000Y-52750000D02*
X54050000Y-48040000D01*
X54200000Y-52850000D02*
X54200000Y-48030000D01*
X54288796Y-48025000D02*
X51325000Y-48025000D01*
X54350000Y-52900000D02*
X54350000Y-48050000D01*
X54500000Y-53000000D02*
X54500000Y-48080000D01*
X54650000Y-53100000D02*
X54650000Y-48130000D01*
X54800000Y-53200000D02*
X54800000Y-48210000D01*
X54950000Y-53350000D02*
X54950000Y-48400000D01*
X55100000Y-53500000D02*
X55100000Y-48600000D01*
X55150000Y-49050000D02*
X55150000Y-48726887D01*
X55200000Y-53670000D02*
X55200000Y-49550000D01*
X55300000Y-53850000D02*
X55300000Y-49700000D01*
X55300000Y-53850000D02*
X56575000Y-54875000D01*
X55400000Y-53920000D02*
X55400000Y-49900000D01*
X55500000Y-54000000D02*
X55500000Y-50000000D01*
X55600000Y-54080000D02*
X55600000Y-50050000D01*
X55710000Y-54170000D02*
X55700000Y-50100000D01*
X55850000Y-54270000D02*
X55850000Y-50150000D01*
X56000000Y-54410000D02*
X56000000Y-50250000D01*
X56150000Y-54530000D02*
X56150000Y-50250000D01*
X56300000Y-54640000D02*
X56300000Y-50250000D01*
X56450000Y-54760000D02*
X56450000Y-50300000D01*
X56600000Y-54850000D02*
X56600000Y-50250000D01*
X56750000Y-54850000D02*
X56750000Y-50250000D01*
X56900000Y-54850000D02*
X56900000Y-50250000D01*
X57050000Y-54850000D02*
X57050000Y-50250000D01*
X57200000Y-54850000D02*
X57200000Y-50250000D01*
X57350000Y-54850000D02*
X57350000Y-50250000D01*
X57500000Y-54850000D02*
X57500000Y-50250000D01*
X57650000Y-54850000D02*
X57650000Y-50250000D01*
X57800000Y-54850000D02*
X57800000Y-50250000D01*
X57950000Y-54850000D02*
X57950000Y-50250000D01*
X58100000Y-54850000D02*
X58100000Y-50250000D01*
X58250000Y-54850000D02*
X58250000Y-50250000D01*
X58400000Y-54850000D02*
X58400000Y-50250000D01*
X58550000Y-54850000D02*
X58550000Y-50250000D01*
X58700000Y-54850000D02*
X58700000Y-50250000D01*
X58850000Y-54850000D02*
X58850000Y-50250000D01*
X58900000Y-50225000D02*
X56325000Y-50225000D01*
X58900000Y-54875000D02*
X56575000Y-54875000D01*
X59000000Y-54740000D02*
X59000000Y-50350000D01*
X59150000Y-54600000D02*
X59150000Y-50480000D01*
X59300000Y-54470000D02*
X59300000Y-50640000D01*
X59450000Y-54310000D02*
X59450000Y-50780000D01*
X59550000Y-54210000D02*
X59550000Y-50880000D01*
X59650000Y-54100000D02*
X59650000Y-50980000D01*
X59750000Y-54020000D02*
X59750000Y-51090000D01*
X59900000Y-51225000D02*
X58900000Y-50225000D01*
X59900000Y-51225000D02*
X59900000Y-53875000D01*
X59900000Y-53875000D02*
X58900000Y-54875000D01*
X50295000Y-49025000D02*
G75*
G02*
X51295000Y-48025000I999999J1D01*
G01*
X51295000Y-52675000D02*
G75*
G02*
X50295000Y-51675000I-1J999999D01*
G01*
X53300000Y-52667458D02*
G75*
G02*
X55300000Y-53850000I-2J-2282546D01*
G01*
X54288796Y-48025000D02*
G75*
G02*
X55150000Y-48726887I-38796J-926887D01*
G01*
X56325000Y-50225000D02*
G75*
G02*
X55150000Y-49050000I2J1175002D01*
G01*
D11*
X28332843Y-42250000D02*
X28531281Y-42250000D01*
X28531281Y-41654686D02*
X28531281Y-42845314D01*
X28531281Y-42845314D02*
X30118785Y-42845314D01*
X28928157Y-42845314D02*
X28928157Y-41654686D01*
X30118785Y-41654686D02*
X28531281Y-41654686D01*
X30118785Y-42250000D02*
X30317223Y-42250000D01*
X30118785Y-42845314D02*
X30118785Y-41654686D01*
X69732843Y-41150000D02*
X69931281Y-41150000D01*
X69931281Y-40554686D02*
X69931281Y-41745314D01*
X69931281Y-41745314D02*
X71518785Y-41745314D01*
X70328157Y-41745314D02*
X70328157Y-40554686D01*
X71518785Y-40554686D02*
X69931281Y-40554686D01*
X71518785Y-41150000D02*
X71717223Y-41150000D01*
X71518785Y-41745314D02*
X71518785Y-40554686D01*
X61782843Y-60200000D02*
X61981281Y-60200000D01*
X61981281Y-59604686D02*
X61981281Y-60795314D01*
X61981281Y-60795314D02*
X63568785Y-60795314D01*
X62378157Y-60795314D02*
X62378157Y-59604686D01*
X63568785Y-59604686D02*
X61981281Y-59604686D01*
X63568785Y-60200000D02*
X63767223Y-60200000D01*
X63568785Y-60795314D02*
X63568785Y-59604686D01*
X29332843Y-76650000D02*
X29531281Y-76650000D01*
X29531281Y-76054686D02*
X29531281Y-77245314D01*
X29531281Y-77245314D02*
X31118785Y-77245314D01*
X29928157Y-77245314D02*
X29928157Y-76054686D01*
X31118785Y-76054686D02*
X29531281Y-76054686D01*
X31118785Y-76650000D02*
X31317223Y-76650000D01*
X31118785Y-77245314D02*
X31118785Y-76054686D01*
D10*
X50295000Y-83025000D02*
X50295000Y-85675000D01*
X50450000Y-86180000D02*
X50450000Y-82500000D01*
X50600000Y-86350000D02*
X50600000Y-82380000D01*
X50750000Y-86490000D02*
X50750000Y-82350000D01*
X50900000Y-86570000D02*
X50900000Y-82450000D01*
X51050000Y-86620000D02*
X51050000Y-82300000D01*
X51200000Y-86660000D02*
X51200000Y-82150000D01*
X51350000Y-86650000D02*
X51350000Y-82050000D01*
X51500000Y-86650000D02*
X51500000Y-82050000D01*
X51650000Y-86650000D02*
X51650000Y-82050000D01*
D12*
X51800000Y-82205000D02*
X49250000Y-82205000D01*
D10*
X51800000Y-86650000D02*
X51800000Y-82050000D01*
X51950000Y-86650000D02*
X51950000Y-82050000D01*
X52100000Y-86650000D02*
X52100000Y-82050000D01*
X52250000Y-86650000D02*
X52250000Y-82050000D01*
X52400000Y-86650000D02*
X52400000Y-82050000D01*
X52550000Y-86650000D02*
X52550000Y-82050000D01*
X52700000Y-86650000D02*
X52700000Y-82050000D01*
X52850000Y-86650000D02*
X52850000Y-82050000D01*
X53000000Y-86650000D02*
X53000000Y-82050000D01*
X53150000Y-86650000D02*
X53150000Y-82050000D01*
X53300000Y-86650000D02*
X53300000Y-82050000D01*
X53300000Y-86675000D02*
X51325000Y-86675000D01*
X53450000Y-86650000D02*
X53450000Y-82100000D01*
X53600000Y-86690000D02*
X53600000Y-82050000D01*
X53750000Y-86700000D02*
X53750000Y-82050000D01*
X53900000Y-86700000D02*
X53900000Y-82100000D01*
X54050000Y-86750000D02*
X54050000Y-82040000D01*
X54200000Y-86850000D02*
X54200000Y-82030000D01*
X54288796Y-82025000D02*
X51325000Y-82025000D01*
X54350000Y-86900000D02*
X54350000Y-82050000D01*
X54500000Y-87000000D02*
X54500000Y-82080000D01*
X54650000Y-87100000D02*
X54650000Y-82130000D01*
X54800000Y-87200000D02*
X54800000Y-82210000D01*
X54950000Y-87350000D02*
X54950000Y-82400000D01*
X55100000Y-87500000D02*
X55100000Y-82600000D01*
X55150000Y-83050000D02*
X55150000Y-82726887D01*
X55200000Y-87670000D02*
X55200000Y-83550000D01*
X55300000Y-87850000D02*
X55300000Y-83700000D01*
X55300000Y-87850000D02*
X56575000Y-88875000D01*
X55400000Y-87920000D02*
X55400000Y-83900000D01*
X55500000Y-88000000D02*
X55500000Y-84000000D01*
X55600000Y-88080000D02*
X55600000Y-84050000D01*
X55710000Y-88170000D02*
X55700000Y-84100000D01*
X55850000Y-88270000D02*
X55850000Y-84150000D01*
X56000000Y-88410000D02*
X56000000Y-84250000D01*
X56150000Y-88530000D02*
X56150000Y-84250000D01*
X56300000Y-88640000D02*
X56300000Y-84250000D01*
X56450000Y-88760000D02*
X56450000Y-84300000D01*
X56600000Y-88850000D02*
X56600000Y-84250000D01*
X56750000Y-88850000D02*
X56750000Y-84250000D01*
X56900000Y-88850000D02*
X56900000Y-84250000D01*
X57050000Y-88850000D02*
X57050000Y-84250000D01*
X57200000Y-88850000D02*
X57200000Y-84250000D01*
X57350000Y-88850000D02*
X57350000Y-84250000D01*
X57500000Y-88850000D02*
X57500000Y-84250000D01*
X57650000Y-88850000D02*
X57650000Y-84250000D01*
X57800000Y-88850000D02*
X57800000Y-84250000D01*
X57950000Y-88850000D02*
X57950000Y-84250000D01*
X58100000Y-88850000D02*
X58100000Y-84250000D01*
X58250000Y-88850000D02*
X58250000Y-84250000D01*
X58400000Y-88850000D02*
X58400000Y-84250000D01*
X58550000Y-88850000D02*
X58550000Y-84250000D01*
X58700000Y-88850000D02*
X58700000Y-84250000D01*
X58850000Y-88850000D02*
X58850000Y-84250000D01*
X58900000Y-84225000D02*
X56325000Y-84225000D01*
X58900000Y-88875000D02*
X56575000Y-88875000D01*
X59000000Y-88740000D02*
X59000000Y-84350000D01*
X59150000Y-88600000D02*
X59150000Y-84480000D01*
X59300000Y-88470000D02*
X59300000Y-84640000D01*
X59450000Y-88310000D02*
X59450000Y-84780000D01*
X59550000Y-88210000D02*
X59550000Y-84880000D01*
X59650000Y-88100000D02*
X59650000Y-84980000D01*
X59750000Y-88020000D02*
X59750000Y-85090000D01*
X59900000Y-85225000D02*
X58900000Y-84225000D01*
X59900000Y-85225000D02*
X59900000Y-87875000D01*
X59900000Y-87875000D02*
X58900000Y-88875000D01*
X50295000Y-83025000D02*
G75*
G02*
X51295000Y-82025000I999999J1D01*
G01*
X51295000Y-86675000D02*
G75*
G02*
X50295000Y-85675000I-1J999999D01*
G01*
X53300000Y-86667458D02*
G75*
G02*
X55300000Y-87850000I-2J-2282546D01*
G01*
X54288796Y-82025000D02*
G75*
G02*
X55150000Y-82726887I-38796J-926887D01*
G01*
X56325000Y-84225000D02*
G75*
G02*
X55150000Y-83050000I2J1175002D01*
G01*
X50295000Y-32025000D02*
X50295000Y-34675000D01*
X50450000Y-35180000D02*
X50450000Y-31500000D01*
X50600000Y-35350000D02*
X50600000Y-31380000D01*
X50750000Y-35490000D02*
X50750000Y-31350000D01*
X50900000Y-35570000D02*
X50900000Y-31450000D01*
X51050000Y-35620000D02*
X51050000Y-31300000D01*
X51200000Y-35660000D02*
X51200000Y-31150000D01*
X51350000Y-35650000D02*
X51350000Y-31050000D01*
X51500000Y-35650000D02*
X51500000Y-31050000D01*
X51650000Y-35650000D02*
X51650000Y-31050000D01*
D12*
X51800000Y-31205000D02*
X49250000Y-31205000D01*
D10*
X51800000Y-35650000D02*
X51800000Y-31050000D01*
X51950000Y-35650000D02*
X51950000Y-31050000D01*
X52100000Y-35650000D02*
X52100000Y-31050000D01*
X52250000Y-35650000D02*
X52250000Y-31050000D01*
X52400000Y-35650000D02*
X52400000Y-31050000D01*
X52550000Y-35650000D02*
X52550000Y-31050000D01*
X52700000Y-35650000D02*
X52700000Y-31050000D01*
X52850000Y-35650000D02*
X52850000Y-31050000D01*
X53000000Y-35650000D02*
X53000000Y-31050000D01*
X53150000Y-35650000D02*
X53150000Y-31050000D01*
X53300000Y-35650000D02*
X53300000Y-31050000D01*
X53300000Y-35675000D02*
X51325000Y-35675000D01*
X53450000Y-35650000D02*
X53450000Y-31100000D01*
X53600000Y-35690000D02*
X53600000Y-31050000D01*
X53750000Y-35700000D02*
X53750000Y-31050000D01*
X53900000Y-35700000D02*
X53900000Y-31100000D01*
X54050000Y-35750000D02*
X54050000Y-31040000D01*
X54200000Y-35850000D02*
X54200000Y-31030000D01*
X54288796Y-31025000D02*
X51325000Y-31025000D01*
X54350000Y-35900000D02*
X54350000Y-31050000D01*
X54500000Y-36000000D02*
X54500000Y-31080000D01*
X54650000Y-36100000D02*
X54650000Y-31130000D01*
X54800000Y-36200000D02*
X54800000Y-31210000D01*
X54950000Y-36350000D02*
X54950000Y-31400000D01*
X55100000Y-36500000D02*
X55100000Y-31600000D01*
X55150000Y-32050000D02*
X55150000Y-31726887D01*
X55200000Y-36670000D02*
X55200000Y-32550000D01*
X55300000Y-36850000D02*
X55300000Y-32700000D01*
X55300000Y-36850000D02*
X56575000Y-37875000D01*
X55400000Y-36920000D02*
X55400000Y-32900000D01*
X55500000Y-37000000D02*
X55500000Y-33000000D01*
X55600000Y-37080000D02*
X55600000Y-33050000D01*
X55710000Y-37170000D02*
X55700000Y-33100000D01*
X55850000Y-37270000D02*
X55850000Y-33150000D01*
X56000000Y-37410000D02*
X56000000Y-33250000D01*
X56150000Y-37530000D02*
X56150000Y-33250000D01*
X56300000Y-37640000D02*
X56300000Y-33250000D01*
X56450000Y-37760000D02*
X56450000Y-33300000D01*
X56600000Y-37850000D02*
X56600000Y-33250000D01*
X56750000Y-37850000D02*
X56750000Y-33250000D01*
X56900000Y-37850000D02*
X56900000Y-33250000D01*
X57050000Y-37850000D02*
X57050000Y-33250000D01*
X57200000Y-37850000D02*
X57200000Y-33250000D01*
X57350000Y-37850000D02*
X57350000Y-33250000D01*
X57500000Y-37850000D02*
X57500000Y-33250000D01*
X57650000Y-37850000D02*
X57650000Y-33250000D01*
X57800000Y-37850000D02*
X57800000Y-33250000D01*
X57950000Y-37850000D02*
X57950000Y-33250000D01*
X58100000Y-37850000D02*
X58100000Y-33250000D01*
X58250000Y-37850000D02*
X58250000Y-33250000D01*
X58400000Y-37850000D02*
X58400000Y-33250000D01*
X58550000Y-37850000D02*
X58550000Y-33250000D01*
X58700000Y-37850000D02*
X58700000Y-33250000D01*
X58850000Y-37850000D02*
X58850000Y-33250000D01*
X58900000Y-33225000D02*
X56325000Y-33225000D01*
X58900000Y-37875000D02*
X56575000Y-37875000D01*
X59000000Y-37740000D02*
X59000000Y-33350000D01*
X59150000Y-37600000D02*
X59150000Y-33480000D01*
X59300000Y-37470000D02*
X59300000Y-33640000D01*
X59450000Y-37310000D02*
X59450000Y-33780000D01*
X59550000Y-37210000D02*
X59550000Y-33880000D01*
X59650000Y-37100000D02*
X59650000Y-33980000D01*
X59750000Y-37020000D02*
X59750000Y-34090000D01*
X59900000Y-34225000D02*
X58900000Y-33225000D01*
X59900000Y-34225000D02*
X59900000Y-36875000D01*
X59900000Y-36875000D02*
X58900000Y-37875000D01*
X50295000Y-32025000D02*
G75*
G02*
X51295000Y-31025000I999999J1D01*
G01*
X51295000Y-35675000D02*
G75*
G02*
X50295000Y-34675000I-1J999999D01*
G01*
X53300000Y-35667458D02*
G75*
G02*
X55300000Y-36850000I-2J-2282546D01*
G01*
X54288796Y-31025000D02*
G75*
G02*
X55150000Y-31726887I-38796J-926887D01*
G01*
X56325000Y-33225000D02*
G75*
G02*
X55150000Y-32050000I2J1175002D01*
G01*
D11*
X69732843Y-43150000D02*
X69931281Y-43150000D01*
X69931281Y-42554686D02*
X69931281Y-43745314D01*
X69931281Y-43745314D02*
X71518785Y-43745314D01*
X70328157Y-43745314D02*
X70328157Y-42554686D01*
X71518785Y-42554686D02*
X69931281Y-42554686D01*
X71518785Y-43150000D02*
X71717223Y-43150000D01*
X71518785Y-43745314D02*
X71518785Y-42554686D01*
X82982843Y-48650000D02*
X83181281Y-48650000D01*
X83181281Y-48054686D02*
X83181281Y-49245314D01*
X83181281Y-49245314D02*
X84768785Y-49245314D01*
X83578157Y-49245314D02*
X83578157Y-48054686D01*
X84768785Y-48054686D02*
X83181281Y-48054686D01*
X84768785Y-48650000D02*
X84967223Y-48650000D01*
X84768785Y-49245314D02*
X84768785Y-48054686D01*
X69682843Y-35600000D02*
X69881281Y-35600000D01*
X69881281Y-35004686D02*
X69881281Y-36195314D01*
X69881281Y-36195314D02*
X71468785Y-36195314D01*
X70278157Y-36195314D02*
X70278157Y-35004686D01*
X71468785Y-35004686D02*
X69881281Y-35004686D01*
X71468785Y-35600000D02*
X71667223Y-35600000D01*
X71468785Y-36195314D02*
X71468785Y-35004686D01*
D10*
X67295000Y-69125000D02*
X67295000Y-71775000D01*
X67450000Y-72280000D02*
X67450000Y-68600000D01*
X67600000Y-72450000D02*
X67600000Y-68480000D01*
X67750000Y-72590000D02*
X67750000Y-68450000D01*
X67900000Y-72670000D02*
X67900000Y-68550000D01*
X68050000Y-72720000D02*
X68050000Y-68400000D01*
X68200000Y-72760000D02*
X68200000Y-68250000D01*
X68350000Y-72750000D02*
X68350000Y-68150000D01*
X68500000Y-72750000D02*
X68500000Y-68150000D01*
X68650000Y-72750000D02*
X68650000Y-68150000D01*
D12*
X68800000Y-68305000D02*
X66250000Y-68305000D01*
D10*
X68800000Y-72750000D02*
X68800000Y-68150000D01*
X68950000Y-72750000D02*
X68950000Y-68150000D01*
X69100000Y-72750000D02*
X69100000Y-68150000D01*
X69250000Y-72750000D02*
X69250000Y-68150000D01*
X69400000Y-72750000D02*
X69400000Y-68150000D01*
X69550000Y-72750000D02*
X69550000Y-68150000D01*
X69700000Y-72750000D02*
X69700000Y-68150000D01*
X69850000Y-72750000D02*
X69850000Y-68150000D01*
X70000000Y-72750000D02*
X70000000Y-68150000D01*
X70150000Y-72750000D02*
X70150000Y-68150000D01*
X70300000Y-72750000D02*
X70300000Y-68150000D01*
X70300000Y-72775000D02*
X68325000Y-72775000D01*
X70450000Y-72750000D02*
X70450000Y-68200000D01*
X70600000Y-72790000D02*
X70600000Y-68150000D01*
X70750000Y-72800000D02*
X70750000Y-68150000D01*
X70900000Y-72800000D02*
X70900000Y-68200000D01*
X71050000Y-72850000D02*
X71050000Y-68140000D01*
X71200000Y-72950000D02*
X71200000Y-68130000D01*
X71288796Y-68125000D02*
X68325000Y-68125000D01*
X71350000Y-73000000D02*
X71350000Y-68150000D01*
X71500000Y-73100000D02*
X71500000Y-68180000D01*
X71650000Y-73200000D02*
X71650000Y-68230000D01*
X71800000Y-73300000D02*
X71800000Y-68310000D01*
X71950000Y-73450000D02*
X71950000Y-68500000D01*
X72100000Y-73600000D02*
X72100000Y-68700000D01*
X72150000Y-69150000D02*
X72150000Y-68826887D01*
X72200000Y-73770000D02*
X72200000Y-69650000D01*
X72300000Y-73950000D02*
X72300000Y-69800000D01*
X72300000Y-73950000D02*
X73575000Y-74975000D01*
X72400000Y-74020000D02*
X72400000Y-70000000D01*
X72500000Y-74100000D02*
X72500000Y-70100000D01*
X72600000Y-74180000D02*
X72600000Y-70150000D01*
X72710000Y-74270000D02*
X72700000Y-70200000D01*
X72850000Y-74370000D02*
X72850000Y-70250000D01*
X73000000Y-74510000D02*
X73000000Y-70350000D01*
X73150000Y-74630000D02*
X73150000Y-70350000D01*
X73300000Y-74740000D02*
X73300000Y-70350000D01*
X73450000Y-74860000D02*
X73450000Y-70400000D01*
X73600000Y-74950000D02*
X73600000Y-70350000D01*
X73750000Y-74950000D02*
X73750000Y-70350000D01*
X73900000Y-74950000D02*
X73900000Y-70350000D01*
X74050000Y-74950000D02*
X74050000Y-70350000D01*
X74200000Y-74950000D02*
X74200000Y-70350000D01*
X74350000Y-74950000D02*
X74350000Y-70350000D01*
X74500000Y-74950000D02*
X74500000Y-70350000D01*
X74650000Y-74950000D02*
X74650000Y-70350000D01*
X74800000Y-74950000D02*
X74800000Y-70350000D01*
X74950000Y-74950000D02*
X74950000Y-70350000D01*
X75100000Y-74950000D02*
X75100000Y-70350000D01*
X75250000Y-74950000D02*
X75250000Y-70350000D01*
X75400000Y-74950000D02*
X75400000Y-70350000D01*
X75550000Y-74950000D02*
X75550000Y-70350000D01*
X75700000Y-74950000D02*
X75700000Y-70350000D01*
X75850000Y-74950000D02*
X75850000Y-70350000D01*
X75900000Y-70325000D02*
X73325000Y-70325000D01*
X75900000Y-74975000D02*
X73575000Y-74975000D01*
X76000000Y-74840000D02*
X76000000Y-70450000D01*
X76150000Y-74700000D02*
X76150000Y-70580000D01*
X76300000Y-74570000D02*
X76300000Y-70740000D01*
X76450000Y-74410000D02*
X76450000Y-70880000D01*
X76550000Y-74310000D02*
X76550000Y-70980000D01*
X76650000Y-74200000D02*
X76650000Y-71080000D01*
X76750000Y-74120000D02*
X76750000Y-71190000D01*
X76900000Y-71325000D02*
X75900000Y-70325000D01*
X76900000Y-71325000D02*
X76900000Y-73975000D01*
X76900000Y-73975000D02*
X75900000Y-74975000D01*
X67295000Y-69125000D02*
G75*
G02*
X68295000Y-68125000I999999J1D01*
G01*
X68295000Y-72775000D02*
G75*
G02*
X67295000Y-71775000I-1J999999D01*
G01*
X70300000Y-72767458D02*
G75*
G02*
X72300000Y-73950000I-2J-2282546D01*
G01*
X71288796Y-68125000D02*
G75*
G02*
X72150000Y-68826887I-38796J-926887D01*
G01*
X73325000Y-70325000D02*
G75*
G02*
X72150000Y-69150000I2J1175002D01*
G01*
D11*
X82232843Y-35450000D02*
X82431281Y-35450000D01*
X82431281Y-34854686D02*
X82431281Y-36045314D01*
X82431281Y-36045314D02*
X84018785Y-36045314D01*
X82828157Y-36045314D02*
X82828157Y-34854686D01*
X84018785Y-34854686D02*
X82431281Y-34854686D01*
X84018785Y-35450000D02*
X84217223Y-35450000D01*
X84018785Y-36045314D02*
X84018785Y-34854686D01*
X69632843Y-60200000D02*
X69831281Y-60200000D01*
X69831281Y-59604686D02*
X69831281Y-60795314D01*
X69831281Y-60795314D02*
X71418785Y-60795314D01*
X70228157Y-60795314D02*
X70228157Y-59604686D01*
X71418785Y-59604686D02*
X69831281Y-59604686D01*
X71418785Y-60200000D02*
X71617223Y-60200000D01*
X71418785Y-60795314D02*
X71418785Y-59604686D01*
D10*
X101295000Y-43325000D02*
X101295000Y-45975000D01*
X101450000Y-46480000D02*
X101450000Y-42800000D01*
X101600000Y-46650000D02*
X101600000Y-42680000D01*
X101750000Y-46790000D02*
X101750000Y-42650000D01*
X101900000Y-46870000D02*
X101900000Y-42750000D01*
X102050000Y-46920000D02*
X102050000Y-42600000D01*
X102200000Y-46960000D02*
X102200000Y-42450000D01*
X102350000Y-46950000D02*
X102350000Y-42350000D01*
X102500000Y-46950000D02*
X102500000Y-42350000D01*
X102650000Y-46950000D02*
X102650000Y-42350000D01*
X102800000Y-46950000D02*
X102800000Y-42350000D01*
X102950000Y-46950000D02*
X102950000Y-42350000D01*
X103100000Y-46950000D02*
X103100000Y-42350000D01*
X103250000Y-46950000D02*
X103250000Y-42350000D01*
X103400000Y-46950000D02*
X103400000Y-42350000D01*
X103550000Y-46950000D02*
X103550000Y-42350000D01*
X103700000Y-46950000D02*
X103700000Y-42350000D01*
X103850000Y-46950000D02*
X103850000Y-42350000D01*
X104000000Y-46950000D02*
X104000000Y-42350000D01*
X104150000Y-46950000D02*
X104150000Y-42350000D01*
X104300000Y-46950000D02*
X104300000Y-42350000D01*
X104300000Y-46975000D02*
X102325000Y-46975000D01*
X104450000Y-46950000D02*
X104450000Y-42400000D01*
X104600000Y-46990000D02*
X104600000Y-42350000D01*
X104750000Y-47000000D02*
X104750000Y-42350000D01*
X104900000Y-47000000D02*
X104900000Y-42400000D01*
X105050000Y-47050000D02*
X105050000Y-42340000D01*
X105200000Y-47150000D02*
X105200000Y-42330000D01*
X105288796Y-42325000D02*
X102325000Y-42325000D01*
X105350000Y-47200000D02*
X105350000Y-42350000D01*
X105500000Y-47300000D02*
X105500000Y-42380000D01*
X105650000Y-47400000D02*
X105650000Y-42430000D01*
X105800000Y-47500000D02*
X105800000Y-42510000D01*
X105950000Y-47650000D02*
X105950000Y-42700000D01*
X106100000Y-47800000D02*
X106100000Y-42900000D01*
X106150000Y-43350000D02*
X106150000Y-43026887D01*
X106200000Y-47970000D02*
X106200000Y-43850000D01*
X106300000Y-48150000D02*
X106300000Y-44000000D01*
X106300000Y-48150000D02*
X107575000Y-49175000D01*
X106400000Y-48220000D02*
X106400000Y-44200000D01*
X106500000Y-48300000D02*
X106500000Y-44300000D01*
X106600000Y-48380000D02*
X106600000Y-44350000D01*
X106710000Y-48470000D02*
X106700000Y-44400000D01*
X106850000Y-48570000D02*
X106850000Y-44450000D01*
X107000000Y-48710000D02*
X107000000Y-44550000D01*
X107150000Y-48830000D02*
X107150000Y-44550000D01*
X107300000Y-48940000D02*
X107300000Y-44550000D01*
X107450000Y-49060000D02*
X107450000Y-44600000D01*
X107600000Y-49150000D02*
X107600000Y-44550000D01*
X107750000Y-49150000D02*
X107750000Y-44550000D01*
X107900000Y-49150000D02*
X107900000Y-44550000D01*
X108050000Y-49150000D02*
X108050000Y-44550000D01*
X108200000Y-49150000D02*
X108200000Y-44550000D01*
X108350000Y-49150000D02*
X108350000Y-44550000D01*
X108500000Y-49150000D02*
X108500000Y-44550000D01*
X108650000Y-49150000D02*
X108650000Y-44550000D01*
X108800000Y-49150000D02*
X108800000Y-44550000D01*
X108950000Y-49150000D02*
X108950000Y-44550000D01*
X109100000Y-49150000D02*
X109100000Y-44550000D01*
X109250000Y-49150000D02*
X109250000Y-44550000D01*
X109400000Y-49150000D02*
X109400000Y-44550000D01*
X109550000Y-49150000D02*
X109550000Y-44550000D01*
X109700000Y-49150000D02*
X109700000Y-44550000D01*
X109850000Y-49150000D02*
X109850000Y-44550000D01*
X109900000Y-44525000D02*
X107325000Y-44525000D01*
X109900000Y-49175000D02*
X107575000Y-49175000D01*
X110000000Y-49040000D02*
X110000000Y-44650000D01*
X110150000Y-48900000D02*
X110150000Y-44780000D01*
X110300000Y-48770000D02*
X110300000Y-44940000D01*
X110450000Y-48610000D02*
X110450000Y-45080000D01*
X110550000Y-48510000D02*
X110550000Y-45180000D01*
X110650000Y-48400000D02*
X110650000Y-45280000D01*
X110750000Y-48320000D02*
X110750000Y-45390000D01*
X110900000Y-45525000D02*
X109900000Y-44525000D01*
X110900000Y-45525000D02*
X110900000Y-48175000D01*
X110900000Y-48175000D02*
X109900000Y-49175000D01*
X101295000Y-43325000D02*
G75*
G02*
X102295000Y-42325000I999999J1D01*
G01*
X102295000Y-46975000D02*
G75*
G02*
X101295000Y-45975000I-1J999999D01*
G01*
X104300000Y-46967458D02*
G75*
G02*
X106300000Y-48150000I-2J-2282546D01*
G01*
X105288796Y-42325000D02*
G75*
G02*
X106150000Y-43026887I-38796J-926887D01*
G01*
X107325000Y-44525000D02*
G75*
G02*
X106150000Y-43350000I2J1175002D01*
G01*
X21300000Y-84725000D02*
X22300000Y-83725000D01*
X21300000Y-87375000D02*
X21300000Y-84725000D01*
X21300000Y-87375000D02*
X22300000Y-88375000D01*
X21450000Y-84580000D02*
X21450000Y-87510000D01*
X21550000Y-84500000D02*
X21550000Y-87620000D01*
X21650000Y-84390000D02*
X21650000Y-87720000D01*
X21750000Y-84290000D02*
X21750000Y-87820000D01*
X21900000Y-84130000D02*
X21900000Y-87960000D01*
X22050000Y-84000000D02*
X22050000Y-88120000D01*
X22200000Y-83860000D02*
X22200000Y-88250000D01*
X22300000Y-83725000D02*
X24625000Y-83725000D01*
X22300000Y-88375000D02*
X24875000Y-88375000D01*
X22350000Y-83750000D02*
X22350000Y-88350000D01*
X22500000Y-83750000D02*
X22500000Y-88350000D01*
X22650000Y-83750000D02*
X22650000Y-88350000D01*
X22800000Y-83750000D02*
X22800000Y-88350000D01*
X22950000Y-83750000D02*
X22950000Y-88350000D01*
X23100000Y-83750000D02*
X23100000Y-88350000D01*
X23250000Y-83750000D02*
X23250000Y-88350000D01*
X23400000Y-83750000D02*
X23400000Y-88350000D01*
X23550000Y-83750000D02*
X23550000Y-88350000D01*
X23700000Y-83750000D02*
X23700000Y-88350000D01*
X23850000Y-83750000D02*
X23850000Y-88350000D01*
X24000000Y-83750000D02*
X24000000Y-88350000D01*
X24150000Y-83750000D02*
X24150000Y-88350000D01*
X24300000Y-83750000D02*
X24300000Y-88350000D01*
X24450000Y-83750000D02*
X24450000Y-88350000D01*
X24600000Y-83750000D02*
X24600000Y-88350000D01*
X24750000Y-83840000D02*
X24750000Y-88300000D01*
X24900000Y-83960000D02*
X24900000Y-88350000D01*
X25050000Y-84070000D02*
X25050000Y-88350000D01*
X25200000Y-84190000D02*
X25200000Y-88350000D01*
X25350000Y-84330000D02*
X25350000Y-88450000D01*
X25490000Y-84430000D02*
X25500000Y-88500000D01*
X25600000Y-84520000D02*
X25600000Y-88550000D01*
X25700000Y-84600000D02*
X25700000Y-88600000D01*
X25800000Y-84680000D02*
X25800000Y-88700000D01*
X25900000Y-84750000D02*
X24625000Y-83725000D01*
X25900000Y-84750000D02*
X25900000Y-88900000D01*
X26000000Y-84930000D02*
X26000000Y-89050000D01*
X26050000Y-89550000D02*
X26050000Y-89873113D01*
X26100000Y-85100000D02*
X26100000Y-90000000D01*
X26250000Y-85250000D02*
X26250000Y-90200000D01*
X26400000Y-85400000D02*
X26400000Y-90390000D01*
X26550000Y-85500000D02*
X26550000Y-90470000D01*
X26700000Y-85600000D02*
X26700000Y-90520000D01*
X26850000Y-85700000D02*
X26850000Y-90550000D01*
X26911204Y-90575000D02*
X29875000Y-90575000D01*
X27000000Y-85750000D02*
X27000000Y-90570000D01*
X27150000Y-85850000D02*
X27150000Y-90560000D01*
X27300000Y-85900000D02*
X27300000Y-90500000D01*
X27450000Y-85900000D02*
X27450000Y-90550000D01*
X27600000Y-85910000D02*
X27600000Y-90550000D01*
X27750000Y-85950000D02*
X27750000Y-90500000D01*
X27900000Y-85925000D02*
X29875000Y-85925000D01*
X27900000Y-85950000D02*
X27900000Y-90550000D01*
X28050000Y-85950000D02*
X28050000Y-90550000D01*
X28200000Y-85950000D02*
X28200000Y-90550000D01*
X28350000Y-85950000D02*
X28350000Y-90550000D01*
X28500000Y-85950000D02*
X28500000Y-90550000D01*
X28650000Y-85950000D02*
X28650000Y-90550000D01*
X28800000Y-85950000D02*
X28800000Y-90550000D01*
X28950000Y-85950000D02*
X28950000Y-90550000D01*
X29100000Y-85950000D02*
X29100000Y-90550000D01*
X29250000Y-85950000D02*
X29250000Y-90550000D01*
X29400000Y-85950000D02*
X29400000Y-90550000D01*
D12*
X29400000Y-90395000D02*
X31950000Y-90395000D01*
D10*
X29550000Y-85950000D02*
X29550000Y-90550000D01*
X29700000Y-85950000D02*
X29700000Y-90550000D01*
X29850000Y-85950000D02*
X29850000Y-90550000D01*
X30000000Y-85940000D02*
X30000000Y-90450000D01*
X30150000Y-85980000D02*
X30150000Y-90300000D01*
X30300000Y-86030000D02*
X30300000Y-90150000D01*
X30450000Y-86110000D02*
X30450000Y-90250000D01*
X30600000Y-86250000D02*
X30600000Y-90220000D01*
X30750000Y-86420000D02*
X30750000Y-90100000D01*
X30905000Y-89575000D02*
X30905000Y-86925000D01*
X24875000Y-88375000D02*
G75*
G02*
X26050000Y-89550000I-2J-1175002D01*
G01*
X26911204Y-90575000D02*
G75*
G02*
X26050000Y-89873113I38796J926887D01*
G01*
X27900000Y-85932542D02*
G75*
G02*
X25900000Y-84750000I2J2282546D01*
G01*
X29905000Y-85925000D02*
G75*
G02*
X30905000Y-86925000I1J-999999D01*
G01*
X30905000Y-89575000D02*
G75*
G02*
X29905000Y-90575000I-999999J-1D01*
G01*
D11*
X61732843Y-56900000D02*
X61931281Y-56900000D01*
X61931281Y-56304686D02*
X61931281Y-57495314D01*
X61931281Y-57495314D02*
X63518785Y-57495314D01*
X62328157Y-57495314D02*
X62328157Y-56304686D01*
X63518785Y-56304686D02*
X61931281Y-56304686D01*
X63518785Y-56900000D02*
X63717223Y-56900000D01*
X63518785Y-57495314D02*
X63518785Y-56304686D01*
X68482843Y-78900000D02*
X68681281Y-78900000D01*
X68681281Y-78304686D02*
X68681281Y-79495314D01*
X68681281Y-79495314D02*
X70268785Y-79495314D01*
X69078157Y-79495314D02*
X69078157Y-78304686D01*
X70268785Y-78304686D02*
X68681281Y-78304686D01*
X70268785Y-78900000D02*
X70467223Y-78900000D01*
X70268785Y-79495314D02*
X70268785Y-78304686D01*
X69732843Y-37200000D02*
X69931281Y-37200000D01*
X69931281Y-36604686D02*
X69931281Y-37795314D01*
X69931281Y-37795314D02*
X71518785Y-37795314D01*
X70328157Y-37795314D02*
X70328157Y-36604686D01*
X71518785Y-36604686D02*
X69931281Y-36604686D01*
X71518785Y-37200000D02*
X71717223Y-37200000D01*
X71518785Y-37795314D02*
X71518785Y-36604686D01*
D10*
X84282500Y-37500000D02*
X84282500Y-40150000D01*
X84437500Y-40655000D02*
X84437500Y-36975000D01*
X84587500Y-40825000D02*
X84587500Y-36855000D01*
X84737500Y-40965000D02*
X84737500Y-36825000D01*
X84887500Y-41045000D02*
X84887500Y-36925000D01*
X85037500Y-41095000D02*
X85037500Y-36775000D01*
X85187500Y-41135000D02*
X85187500Y-36625000D01*
X85337500Y-41125000D02*
X85337500Y-36525000D01*
X85487500Y-41125000D02*
X85487500Y-36525000D01*
X85637500Y-41125000D02*
X85637500Y-36525000D01*
D12*
X85787500Y-36680000D02*
X83237500Y-36680000D01*
D10*
X85787500Y-41125000D02*
X85787500Y-36525000D01*
X85937500Y-41125000D02*
X85937500Y-36525000D01*
X86087500Y-41125000D02*
X86087500Y-36525000D01*
X86237500Y-41125000D02*
X86237500Y-36525000D01*
X86387500Y-41125000D02*
X86387500Y-36525000D01*
X86537500Y-41125000D02*
X86537500Y-36525000D01*
X86687500Y-41125000D02*
X86687500Y-36525000D01*
X86837500Y-41125000D02*
X86837500Y-36525000D01*
X86987500Y-41125000D02*
X86987500Y-36525000D01*
X87137500Y-41125000D02*
X87137500Y-36525000D01*
X87287500Y-41125000D02*
X87287500Y-36525000D01*
X87287500Y-41150000D02*
X85312500Y-41150000D01*
X87437500Y-41125000D02*
X87437500Y-36575000D01*
X87587500Y-41165000D02*
X87587500Y-36525000D01*
X87737500Y-41175000D02*
X87737500Y-36525000D01*
X87887500Y-41175000D02*
X87887500Y-36575000D01*
X88037500Y-41225000D02*
X88037500Y-36515000D01*
X88187500Y-41325000D02*
X88187500Y-36505000D01*
X88276296Y-36500000D02*
X85312500Y-36500000D01*
X88337500Y-41375000D02*
X88337500Y-36525000D01*
X88487500Y-41475000D02*
X88487500Y-36555000D01*
X88637500Y-41575000D02*
X88637500Y-36605000D01*
X88787500Y-41675000D02*
X88787500Y-36685000D01*
X88937500Y-41825000D02*
X88937500Y-36875000D01*
X89087500Y-41975000D02*
X89087500Y-37075000D01*
X89137500Y-37525000D02*
X89137500Y-37201887D01*
X89187500Y-42145000D02*
X89187500Y-38025000D01*
X89287500Y-42325000D02*
X89287500Y-38175000D01*
X89287500Y-42325000D02*
X90562500Y-43350000D01*
X89387500Y-42395000D02*
X89387500Y-38375000D01*
X89487500Y-42475000D02*
X89487500Y-38475000D01*
X89587500Y-42555000D02*
X89587500Y-38525000D01*
X89697500Y-42645000D02*
X89687500Y-38575000D01*
X89837500Y-42745000D02*
X89837500Y-38625000D01*
X89987500Y-42885000D02*
X89987500Y-38725000D01*
X90137500Y-43005000D02*
X90137500Y-38725000D01*
X90287500Y-43115000D02*
X90287500Y-38725000D01*
X90437500Y-43235000D02*
X90437500Y-38775000D01*
X90587500Y-43325000D02*
X90587500Y-38725000D01*
X90737500Y-43325000D02*
X90737500Y-38725000D01*
X90887500Y-43325000D02*
X90887500Y-38725000D01*
X91037500Y-43325000D02*
X91037500Y-38725000D01*
X91187500Y-43325000D02*
X91187500Y-38725000D01*
X91337500Y-43325000D02*
X91337500Y-38725000D01*
X91487500Y-43325000D02*
X91487500Y-38725000D01*
X91637500Y-43325000D02*
X91637500Y-38725000D01*
X91787500Y-43325000D02*
X91787500Y-38725000D01*
X91937500Y-43325000D02*
X91937500Y-38725000D01*
X92087500Y-43325000D02*
X92087500Y-38725000D01*
X92237500Y-43325000D02*
X92237500Y-38725000D01*
X92387500Y-43325000D02*
X92387500Y-38725000D01*
X92537500Y-43325000D02*
X92537500Y-38725000D01*
X92687500Y-43325000D02*
X92687500Y-38725000D01*
X92837500Y-43325000D02*
X92837500Y-38725000D01*
X92887500Y-38700000D02*
X90312500Y-38700000D01*
X92887500Y-43350000D02*
X90562500Y-43350000D01*
X92987500Y-43215000D02*
X92987500Y-38825000D01*
X93137500Y-43075000D02*
X93137500Y-38955000D01*
X93287500Y-42945000D02*
X93287500Y-39115000D01*
X93437500Y-42785000D02*
X93437500Y-39255000D01*
X93537500Y-42685000D02*
X93537500Y-39355000D01*
X93637500Y-42575000D02*
X93637500Y-39455000D01*
X93737500Y-42495000D02*
X93737500Y-39565000D01*
X93887500Y-39700000D02*
X92887500Y-38700000D01*
X93887500Y-39700000D02*
X93887500Y-42350000D01*
X93887500Y-42350000D02*
X92887500Y-43350000D01*
X84282500Y-37500000D02*
G75*
G02*
X85282500Y-36500000I999999J1D01*
G01*
X85282500Y-41150000D02*
G75*
G02*
X84282500Y-40150000I-1J999999D01*
G01*
X87287500Y-41142458D02*
G75*
G02*
X89287500Y-42325000I-2J-2282546D01*
G01*
X88276296Y-36500000D02*
G75*
G02*
X89137500Y-37201887I-38796J-926887D01*
G01*
X90312500Y-38700000D02*
G75*
G02*
X89137500Y-37525000I2J1175002D01*
G01*
X67295000Y-86125000D02*
X67295000Y-88775000D01*
X67450000Y-89280000D02*
X67450000Y-85600000D01*
X67600000Y-89450000D02*
X67600000Y-85480000D01*
X67750000Y-89590000D02*
X67750000Y-85450000D01*
X67900000Y-89670000D02*
X67900000Y-85550000D01*
X68050000Y-89720000D02*
X68050000Y-85400000D01*
X68200000Y-89760000D02*
X68200000Y-85250000D01*
X68350000Y-89750000D02*
X68350000Y-85150000D01*
X68500000Y-89750000D02*
X68500000Y-85150000D01*
X68650000Y-89750000D02*
X68650000Y-85150000D01*
D12*
X68800000Y-85305000D02*
X66250000Y-85305000D01*
D10*
X68800000Y-89750000D02*
X68800000Y-85150000D01*
X68950000Y-89750000D02*
X68950000Y-85150000D01*
X69100000Y-89750000D02*
X69100000Y-85150000D01*
X69250000Y-89750000D02*
X69250000Y-85150000D01*
X69400000Y-89750000D02*
X69400000Y-85150000D01*
X69550000Y-89750000D02*
X69550000Y-85150000D01*
X69700000Y-89750000D02*
X69700000Y-85150000D01*
X69850000Y-89750000D02*
X69850000Y-85150000D01*
X70000000Y-89750000D02*
X70000000Y-85150000D01*
X70150000Y-89750000D02*
X70150000Y-85150000D01*
X70300000Y-89750000D02*
X70300000Y-85150000D01*
X70300000Y-89775000D02*
X68325000Y-89775000D01*
X70450000Y-89750000D02*
X70450000Y-85200000D01*
X70600000Y-89790000D02*
X70600000Y-85150000D01*
X70750000Y-89800000D02*
X70750000Y-85150000D01*
X70900000Y-89800000D02*
X70900000Y-85200000D01*
X71050000Y-89850000D02*
X71050000Y-85140000D01*
X71200000Y-89950000D02*
X71200000Y-85130000D01*
X71288796Y-85125000D02*
X68325000Y-85125000D01*
X71350000Y-90000000D02*
X71350000Y-85150000D01*
X71500000Y-90100000D02*
X71500000Y-85180000D01*
X71650000Y-90200000D02*
X71650000Y-85230000D01*
X71800000Y-90300000D02*
X71800000Y-85310000D01*
X71950000Y-90450000D02*
X71950000Y-85500000D01*
X72100000Y-90600000D02*
X72100000Y-85700000D01*
X72150000Y-86150000D02*
X72150000Y-85826887D01*
X72200000Y-90770000D02*
X72200000Y-86650000D01*
X72300000Y-90950000D02*
X72300000Y-86800000D01*
X72300000Y-90950000D02*
X73575000Y-91975000D01*
X72400000Y-91020000D02*
X72400000Y-87000000D01*
X72500000Y-91100000D02*
X72500000Y-87100000D01*
X72600000Y-91180000D02*
X72600000Y-87150000D01*
X72710000Y-91270000D02*
X72700000Y-87200000D01*
X72850000Y-91370000D02*
X72850000Y-87250000D01*
X73000000Y-91510000D02*
X73000000Y-87350000D01*
X73150000Y-91630000D02*
X73150000Y-87350000D01*
X73300000Y-91740000D02*
X73300000Y-87350000D01*
X73450000Y-91860000D02*
X73450000Y-87400000D01*
X73600000Y-91950000D02*
X73600000Y-87350000D01*
X73750000Y-91950000D02*
X73750000Y-87350000D01*
X73900000Y-91950000D02*
X73900000Y-87350000D01*
X74050000Y-91950000D02*
X74050000Y-87350000D01*
X74200000Y-91950000D02*
X74200000Y-87350000D01*
X74350000Y-91950000D02*
X74350000Y-87350000D01*
X74500000Y-91950000D02*
X74500000Y-87350000D01*
X74650000Y-91950000D02*
X74650000Y-87350000D01*
X74800000Y-91950000D02*
X74800000Y-87350000D01*
X74950000Y-91950000D02*
X74950000Y-87350000D01*
X75100000Y-91950000D02*
X75100000Y-87350000D01*
X75250000Y-91950000D02*
X75250000Y-87350000D01*
X75400000Y-91950000D02*
X75400000Y-87350000D01*
X75550000Y-91950000D02*
X75550000Y-87350000D01*
X75700000Y-91950000D02*
X75700000Y-87350000D01*
X75850000Y-91950000D02*
X75850000Y-87350000D01*
X75900000Y-87325000D02*
X73325000Y-87325000D01*
X75900000Y-91975000D02*
X73575000Y-91975000D01*
X76000000Y-91840000D02*
X76000000Y-87450000D01*
X76150000Y-91700000D02*
X76150000Y-87580000D01*
X76300000Y-91570000D02*
X76300000Y-87740000D01*
X76450000Y-91410000D02*
X76450000Y-87880000D01*
X76550000Y-91310000D02*
X76550000Y-87980000D01*
X76650000Y-91200000D02*
X76650000Y-88080000D01*
X76750000Y-91120000D02*
X76750000Y-88190000D01*
X76900000Y-88325000D02*
X75900000Y-87325000D01*
X76900000Y-88325000D02*
X76900000Y-90975000D01*
X76900000Y-90975000D02*
X75900000Y-91975000D01*
X67295000Y-86125000D02*
G75*
G02*
X68295000Y-85125000I999999J1D01*
G01*
X68295000Y-89775000D02*
G75*
G02*
X67295000Y-88775000I-1J999999D01*
G01*
X70300000Y-89767458D02*
G75*
G02*
X72300000Y-90950000I-2J-2282546D01*
G01*
X71288796Y-85125000D02*
G75*
G02*
X72150000Y-85826887I-38796J-926887D01*
G01*
X73325000Y-87325000D02*
G75*
G02*
X72150000Y-86150000I2J1175002D01*
G01*
X21300000Y-50725000D02*
X22300000Y-49725000D01*
X21300000Y-53375000D02*
X21300000Y-50725000D01*
X21300000Y-53375000D02*
X22300000Y-54375000D01*
X21450000Y-50580000D02*
X21450000Y-53510000D01*
X21550000Y-50500000D02*
X21550000Y-53620000D01*
X21650000Y-50390000D02*
X21650000Y-53720000D01*
X21750000Y-50290000D02*
X21750000Y-53820000D01*
X21900000Y-50130000D02*
X21900000Y-53960000D01*
X22050000Y-50000000D02*
X22050000Y-54120000D01*
X22200000Y-49860000D02*
X22200000Y-54250000D01*
X22300000Y-49725000D02*
X24625000Y-49725000D01*
X22300000Y-54375000D02*
X24875000Y-54375000D01*
X22350000Y-49750000D02*
X22350000Y-54350000D01*
X22500000Y-49750000D02*
X22500000Y-54350000D01*
X22650000Y-49750000D02*
X22650000Y-54350000D01*
X22800000Y-49750000D02*
X22800000Y-54350000D01*
X22950000Y-49750000D02*
X22950000Y-54350000D01*
X23100000Y-49750000D02*
X23100000Y-54350000D01*
X23250000Y-49750000D02*
X23250000Y-54350000D01*
X23400000Y-49750000D02*
X23400000Y-54350000D01*
X23550000Y-49750000D02*
X23550000Y-54350000D01*
X23700000Y-49750000D02*
X23700000Y-54350000D01*
X23850000Y-49750000D02*
X23850000Y-54350000D01*
X24000000Y-49750000D02*
X24000000Y-54350000D01*
X24150000Y-49750000D02*
X24150000Y-54350000D01*
X24300000Y-49750000D02*
X24300000Y-54350000D01*
X24450000Y-49750000D02*
X24450000Y-54350000D01*
X24600000Y-49750000D02*
X24600000Y-54350000D01*
X24750000Y-49840000D02*
X24750000Y-54300000D01*
X24900000Y-49960000D02*
X24900000Y-54350000D01*
X25050000Y-50070000D02*
X25050000Y-54350000D01*
X25200000Y-50190000D02*
X25200000Y-54350000D01*
X25350000Y-50330000D02*
X25350000Y-54450000D01*
X25490000Y-50430000D02*
X25500000Y-54500000D01*
X25600000Y-50520000D02*
X25600000Y-54550000D01*
X25700000Y-50600000D02*
X25700000Y-54600000D01*
X25800000Y-50680000D02*
X25800000Y-54700000D01*
X25900000Y-50750000D02*
X24625000Y-49725000D01*
X25900000Y-50750000D02*
X25900000Y-54900000D01*
X26000000Y-50930000D02*
X26000000Y-55050000D01*
X26050000Y-55550000D02*
X26050000Y-55873113D01*
X26100000Y-51100000D02*
X26100000Y-56000000D01*
X26250000Y-51250000D02*
X26250000Y-56200000D01*
X26400000Y-51400000D02*
X26400000Y-56390000D01*
X26550000Y-51500000D02*
X26550000Y-56470000D01*
X26700000Y-51600000D02*
X26700000Y-56520000D01*
X26850000Y-51700000D02*
X26850000Y-56550000D01*
X26911204Y-56575000D02*
X29875000Y-56575000D01*
X27000000Y-51750000D02*
X27000000Y-56570000D01*
X27150000Y-51850000D02*
X27150000Y-56560000D01*
X27300000Y-51900000D02*
X27300000Y-56500000D01*
X27450000Y-51900000D02*
X27450000Y-56550000D01*
X27600000Y-51910000D02*
X27600000Y-56550000D01*
X27750000Y-51950000D02*
X27750000Y-56500000D01*
X27900000Y-51925000D02*
X29875000Y-51925000D01*
X27900000Y-51950000D02*
X27900000Y-56550000D01*
X28050000Y-51950000D02*
X28050000Y-56550000D01*
X28200000Y-51950000D02*
X28200000Y-56550000D01*
X28350000Y-51950000D02*
X28350000Y-56550000D01*
X28500000Y-51950000D02*
X28500000Y-56550000D01*
X28650000Y-51950000D02*
X28650000Y-56550000D01*
X28800000Y-51950000D02*
X28800000Y-56550000D01*
X28950000Y-51950000D02*
X28950000Y-56550000D01*
X29100000Y-51950000D02*
X29100000Y-56550000D01*
X29250000Y-51950000D02*
X29250000Y-56550000D01*
X29400000Y-51950000D02*
X29400000Y-56550000D01*
D12*
X29400000Y-56395000D02*
X31950000Y-56395000D01*
D10*
X29550000Y-51950000D02*
X29550000Y-56550000D01*
X29700000Y-51950000D02*
X29700000Y-56550000D01*
X29850000Y-51950000D02*
X29850000Y-56550000D01*
X30000000Y-51940000D02*
X30000000Y-56450000D01*
X30150000Y-51980000D02*
X30150000Y-56300000D01*
X30300000Y-52030000D02*
X30300000Y-56150000D01*
X30450000Y-52110000D02*
X30450000Y-56250000D01*
X30600000Y-52250000D02*
X30600000Y-56220000D01*
X30750000Y-52420000D02*
X30750000Y-56100000D01*
X30905000Y-55575000D02*
X30905000Y-52925000D01*
X24875000Y-54375000D02*
G75*
G02*
X26050000Y-55550000I-2J-1175002D01*
G01*
X26911204Y-56575000D02*
G75*
G02*
X26050000Y-55873113I38796J926887D01*
G01*
X27900000Y-51932542D02*
G75*
G02*
X25900000Y-50750000I2J2282546D01*
G01*
X29905000Y-51925000D02*
G75*
G02*
X30905000Y-52925000I1J-999999D01*
G01*
X30905000Y-55575000D02*
G75*
G02*
X29905000Y-56575000I-999999J-1D01*
G01*
D11*
X78085943Y-78359400D02*
X78284381Y-78359400D01*
X78284381Y-77764086D02*
X78284381Y-78954714D01*
X78284381Y-78954714D02*
X79871885Y-78954714D01*
X78681257Y-78954714D02*
X78681257Y-77764086D01*
X79871885Y-77764086D02*
X78284381Y-77764086D01*
X79871885Y-78359400D02*
X80070323Y-78359400D01*
X79871885Y-78954714D02*
X79871885Y-77764086D01*
X62182843Y-66800000D02*
X62381281Y-66800000D01*
X62381281Y-66204686D02*
X62381281Y-67395314D01*
X62381281Y-67395314D02*
X63968785Y-67395314D01*
X62778157Y-67395314D02*
X62778157Y-66204686D01*
X63968785Y-66204686D02*
X62381281Y-66204686D01*
X63968785Y-66800000D02*
X64167223Y-66800000D01*
X63968785Y-67395314D02*
X63968785Y-66204686D01*
X78082843Y-80400000D02*
X78281281Y-80400000D01*
X78281281Y-79804686D02*
X78281281Y-80995314D01*
X78281281Y-80995314D02*
X79868785Y-80995314D01*
X78678157Y-80995314D02*
X78678157Y-79804686D01*
X79868785Y-79804686D02*
X78281281Y-79804686D01*
X79868785Y-80400000D02*
X80067223Y-80400000D01*
X79868785Y-80995314D02*
X79868785Y-79804686D01*
D10*
X38300000Y-76525000D02*
X39300000Y-75525000D01*
X38300000Y-79175000D02*
X38300000Y-76525000D01*
X38300000Y-79175000D02*
X39300000Y-80175000D01*
X38450000Y-76380000D02*
X38450000Y-79310000D01*
X38550000Y-76300000D02*
X38550000Y-79420000D01*
X38650000Y-76190000D02*
X38650000Y-79520000D01*
X38750000Y-76090000D02*
X38750000Y-79620000D01*
X38900000Y-75930000D02*
X38900000Y-79760000D01*
X39050000Y-75800000D02*
X39050000Y-79920000D01*
X39200000Y-75660000D02*
X39200000Y-80050000D01*
X39300000Y-75525000D02*
X41625000Y-75525000D01*
X39300000Y-80175000D02*
X41875000Y-80175000D01*
X39350000Y-75550000D02*
X39350000Y-80150000D01*
X39500000Y-75550000D02*
X39500000Y-80150000D01*
X39650000Y-75550000D02*
X39650000Y-80150000D01*
X39800000Y-75550000D02*
X39800000Y-80150000D01*
X39950000Y-75550000D02*
X39950000Y-80150000D01*
X40100000Y-75550000D02*
X40100000Y-80150000D01*
X40250000Y-75550000D02*
X40250000Y-80150000D01*
X40400000Y-75550000D02*
X40400000Y-80150000D01*
X40550000Y-75550000D02*
X40550000Y-80150000D01*
X40700000Y-75550000D02*
X40700000Y-80150000D01*
X40850000Y-75550000D02*
X40850000Y-80150000D01*
X41000000Y-75550000D02*
X41000000Y-80150000D01*
X41150000Y-75550000D02*
X41150000Y-80150000D01*
X41300000Y-75550000D02*
X41300000Y-80150000D01*
X41450000Y-75550000D02*
X41450000Y-80150000D01*
X41600000Y-75550000D02*
X41600000Y-80150000D01*
X41750000Y-75640000D02*
X41750000Y-80100000D01*
X41900000Y-75760000D02*
X41900000Y-80150000D01*
X42050000Y-75870000D02*
X42050000Y-80150000D01*
X42200000Y-75990000D02*
X42200000Y-80150000D01*
X42350000Y-76130000D02*
X42350000Y-80250000D01*
X42490000Y-76230000D02*
X42500000Y-80300000D01*
X42600000Y-76320000D02*
X42600000Y-80350000D01*
X42700000Y-76400000D02*
X42700000Y-80400000D01*
X42800000Y-76480000D02*
X42800000Y-80500000D01*
X42900000Y-76550000D02*
X41625000Y-75525000D01*
X42900000Y-76550000D02*
X42900000Y-80700000D01*
X43000000Y-76730000D02*
X43000000Y-80850000D01*
X43050000Y-81350000D02*
X43050000Y-81673113D01*
X43100000Y-76900000D02*
X43100000Y-81800000D01*
X43250000Y-77050000D02*
X43250000Y-82000000D01*
X43400000Y-77200000D02*
X43400000Y-82190000D01*
X43550000Y-77300000D02*
X43550000Y-82270000D01*
X43700000Y-77400000D02*
X43700000Y-82320000D01*
X43850000Y-77500000D02*
X43850000Y-82350000D01*
X43911204Y-82375000D02*
X46875000Y-82375000D01*
X44000000Y-77550000D02*
X44000000Y-82370000D01*
X44150000Y-77650000D02*
X44150000Y-82360000D01*
X44300000Y-77700000D02*
X44300000Y-82300000D01*
X44450000Y-77700000D02*
X44450000Y-82350000D01*
X44600000Y-77710000D02*
X44600000Y-82350000D01*
X44750000Y-77750000D02*
X44750000Y-82300000D01*
X44900000Y-77725000D02*
X46875000Y-77725000D01*
X44900000Y-77750000D02*
X44900000Y-82350000D01*
X45050000Y-77750000D02*
X45050000Y-82350000D01*
X45200000Y-77750000D02*
X45200000Y-82350000D01*
X45350000Y-77750000D02*
X45350000Y-82350000D01*
X45500000Y-77750000D02*
X45500000Y-82350000D01*
X45650000Y-77750000D02*
X45650000Y-82350000D01*
X45800000Y-77750000D02*
X45800000Y-82350000D01*
X45950000Y-77750000D02*
X45950000Y-82350000D01*
X46100000Y-77750000D02*
X46100000Y-82350000D01*
X46250000Y-77750000D02*
X46250000Y-82350000D01*
X46400000Y-77750000D02*
X46400000Y-82350000D01*
D12*
X46400000Y-82195000D02*
X48950000Y-82195000D01*
D10*
X46550000Y-77750000D02*
X46550000Y-82350000D01*
X46700000Y-77750000D02*
X46700000Y-82350000D01*
X46850000Y-77750000D02*
X46850000Y-82350000D01*
X47000000Y-77740000D02*
X47000000Y-82250000D01*
X47150000Y-77780000D02*
X47150000Y-82100000D01*
X47300000Y-77830000D02*
X47300000Y-81950000D01*
X47450000Y-77910000D02*
X47450000Y-82050000D01*
X47600000Y-78050000D02*
X47600000Y-82020000D01*
X47750000Y-78220000D02*
X47750000Y-81900000D01*
X47905000Y-81375000D02*
X47905000Y-78725000D01*
X41875000Y-80175000D02*
G75*
G02*
X43050000Y-81350000I-2J-1175002D01*
G01*
X43911204Y-82375000D02*
G75*
G02*
X43050000Y-81673113I38796J926887D01*
G01*
X44900000Y-77732542D02*
G75*
G02*
X42900000Y-76550000I2J2282546D01*
G01*
X46905000Y-77725000D02*
G75*
G02*
X47905000Y-78725000I1J-999999D01*
G01*
X47905000Y-81375000D02*
G75*
G02*
X46905000Y-82375000I-999999J-1D01*
G01*
D11*
X69732843Y-39150000D02*
X69931281Y-39150000D01*
X69931281Y-38554686D02*
X69931281Y-39745314D01*
X69931281Y-39745314D02*
X71518785Y-39745314D01*
X70328157Y-39745314D02*
X70328157Y-38554686D01*
X71518785Y-38554686D02*
X69931281Y-38554686D01*
X71518785Y-39150000D02*
X71717223Y-39150000D01*
X71518785Y-39745314D02*
X71518785Y-38554686D01*
D10*
X86943750Y-82393750D02*
X87737500Y-82393750D01*
X86943750Y-83187500D02*
X86943750Y-82393750D01*
X86943750Y-92712500D02*
X86943750Y-93506250D01*
X86943750Y-93506250D02*
X87737500Y-93506250D01*
X97262500Y-93506250D02*
X98056250Y-93506250D01*
X98056250Y-82393750D02*
X97262500Y-82393750D01*
X98056250Y-83187500D02*
X98056250Y-82393750D01*
X98056250Y-93506250D02*
X98056250Y-92712500D01*
M02*
