M48
; DRILL file {KiCad 9.0.0} date 2025-04-19T15:23:17+0900
; FORMAT={-:-/ absolute / metric / decimal}
; #@! TF.CreationDate,2025-04-19T15:23:17+09:00
; #@! TF.GenerationSoftware,Kicad,Pcbnew,9.0.0
; #@! TF.FileFunction,NonPlated,1,2,NPTH
FMAT,2
METRIC
; #@! TA.AperFunction,NonPlated,NPTH,ComponentDrill
T1C2.200
; #@! TA.AperFunction,NonPlated,NPTH,ComponentDrill
T2C3.000
; #@! TA.AperFunction,NonPlated,NPTH,ComponentDrill
T3C4.800
%
G90
G05
T1
X32.368Y-55.132
X32.468Y-89.132
X84.068Y-66.832
X84.198Y-83.242
T2
X24.368Y-40.732
X24.368Y-57.732
X24.368Y-74.732
X24.368Y-91.732
X29.368Y-42.932
X29.368Y-59.932
X29.368Y-76.932
X29.368Y-93.932
X41.368Y-32.532
X41.368Y-49.532
X41.368Y-66.532
X41.368Y-83.532
X46.368Y-34.732
X46.368Y-51.732
X46.368Y-68.732
X46.368Y-85.732
X53.368Y-39.032
X53.368Y-56.032
X53.368Y-73.032
X53.368Y-90.032
X58.368Y-41.232
X58.368Y-58.232
X58.368Y-75.232
X58.368Y-92.232
X70.368Y-59.132
X70.368Y-76.132
X70.368Y-93.132
X75.368Y-32.532
X75.368Y-61.332
X75.368Y-78.332
X75.368Y-95.332
X80.368Y-34.732
X86.468Y-91.832
X87.355Y-44.507
X87.368Y-61.532
X87.368Y-78.532
X88.668Y-86.832
X92.355Y-46.707
X92.368Y-63.732
X92.368Y-80.732
X103.468Y-97.632
X104.368Y-50.332
X104.368Y-67.332
X104.368Y-84.332
X105.668Y-92.632
X109.368Y-52.532
X109.368Y-69.532
X109.368Y-86.532
T3
X24.368Y-46.632
X24.368Y-63.632
X24.368Y-80.632
X24.368Y-97.632
X41.368Y-38.432
X41.368Y-55.432
X41.368Y-72.432
X41.368Y-89.432
X58.368Y-35.332
X58.368Y-52.332
X58.368Y-69.332
X58.368Y-86.332
X75.368Y-38.432
X75.368Y-55.432
X75.368Y-72.432
X75.368Y-89.432
X92.355Y-40.807
X92.368Y-57.832
X92.368Y-74.832
X92.368Y-91.832
X109.368Y-46.632
X109.368Y-63.632
X109.368Y-80.632
X109.368Y-97.632
M30
