M48
; DRILL file {KiCad 9.0.0} date 2025-04-19T15:23:17+0900
; FORMAT={-:-/ absolute / metric / decimal}
; #@! TF.CreationDate,2025-04-19T15:23:17+09:00
; #@! TF.GenerationSoftware,Kicad,Pcbnew,9.0.0
; #@! TF.FileFunction,Plated,1,2,PTH
FMAT,2
METRIC
; #@! TA.AperFunction,Plated,PTH,ViaDrill
T1C0.300
; #@! TA.AperFunction,Plated,PTH,ComponentDrill
T2C1.000
%
G90
G05
T1
X30.73Y-85.846
X30.798Y-80.029
X31.086Y-78.802
X32.718Y-46.182
X32.907Y-82.5
X34.09Y-46.973
X34.217Y-63.934
X34.537Y-78.802
X34.617Y-69.214
X35.501Y-44.042
X35.985Y-79.068
X37.893Y-43.22
X43.431Y-65.952
X43.431Y-69.214
X44.086Y-66.604
X44.086Y-86.73
X49.718Y-63.934
X50.018Y-70.71
X51.95Y-65.351
X53.318Y-34.732
X54.657Y-65.351
X54.657Y-69.876
X55.465Y-79.068
X60.45Y-63.934
X61.843Y-44.779
X62.928Y-65.351
X63.706Y-67.989
X64.368Y-78.282
X65.112Y-80.299
X65.818Y-78.332
X66.868Y-43.105
X67.016Y-67.989
X67.339Y-66.604
X67.373Y-44.042
X67.478Y-42.338
X68.68Y-44.332
X68.765Y-36.572
X71.373Y-63.598
X71.575Y-52.106
X71.608Y-52.931
X71.861Y-66.354
X71.927Y-41.053
X72.176Y-45.157
X73.219Y-57.932
X74.55Y-68.05
X74.61Y-68.959
X74.691Y-59.321
X75.191Y-42.266
X76.295Y-51.498
X77.456Y-52.714
X77.485Y-70.137
X78.225Y-57.367
X78.698Y-41.664
X79.078Y-82.274
X79.443Y-57.982
X79.917Y-46.825
X80.682Y-40.313
X81.138Y-81.967
X81.315Y-45.759
X81.528Y-53.184
X81.689Y-50.197
X81.878Y-63.598
X81.915Y-43.105
X81.983Y-45.082
X82.691Y-51.57
X86.983Y-49.177
X87.658Y-57.367
X88.551Y-41.9
X89.022Y-70.797
X93.718Y-49.341
X94.468Y-85.432
X95.83Y-48.649
X95.843Y-53.184
X95.843Y-70.797
X97.218Y-94.982
X97.628Y-50.197
X98.168Y-92.432
X99.603Y-69.563
X99.933Y-52.286
X105.654Y-69.134
X111.817Y-60.924
X112.843Y-72.732
T2
X32.883Y-66.137
X32.883Y-68.677
X32.883Y-71.217
X32.883Y-73.757
X66.868Y-31.492
X66.868Y-34.032
X66.868Y-36.572
X66.868Y-39.112
X66.868Y-46.637
X66.868Y-49.177
X66.868Y-51.717
X66.868Y-54.257
X100.768Y-91.132
X100.768Y-93.632
X100.768Y-96.132
X100.868Y-54.692
X100.868Y-57.232
X100.868Y-59.772
X100.868Y-62.312
X100.883Y-39.637
X100.883Y-42.177
X100.883Y-44.717
X100.883Y-47.257
M30
