G04 #@! TF.GenerationSoftware,KiCad,Pcbnew,9.0.0*
G04 #@! TF.CreationDate,2025-04-21T18:53:58+09:00*
G04 #@! TF.ProjectId,nofy_V2_L,6e6f6679-5f56-4325-9f4c-2e6b69636164,rev?*
G04 #@! TF.SameCoordinates,Original*
G04 #@! TF.FileFunction,Profile,NP*
%FSLAX46Y46*%
G04 Gerber Fmt 4.6, Leading zero omitted, Abs format (unit mm)*
G04 Created by KiCad (PCBNEW 9.0.0) date 2025-04-21 18:53:58*
%MOMM*%
%LPD*%
G01*
G04 APERTURE LIST*
G04 #@! TA.AperFunction,Profile*
%ADD10C,0.050000*%
G04 #@! TD*
G04 APERTURE END LIST*
D10*
X67300000Y-92050000D02*
G75*
G02*
X66300000Y-91050000I0J1000000D01*
G01*
X65300000Y-88950000D02*
X49900000Y-88950000D01*
X82900000Y-25450000D02*
X82900000Y-25850000D01*
X116200000Y-99250000D02*
X116200000Y-33650000D01*
X30900000Y-100250000D02*
X17500000Y-100250000D01*
X83300000Y-93450000D02*
X83300000Y-93050000D01*
X32300000Y-25450000D02*
G75*
G02*
X33300000Y-24450000I1000000J0D01*
G01*
X33300000Y-24450000D02*
X48300000Y-24450000D01*
X49300000Y-23450000D02*
G75*
G02*
X48300000Y-24450000I-1000000J0D01*
G01*
X116200000Y-99250000D02*
G75*
G02*
X115200000Y-100250000I-1000000J0D01*
G01*
X100300000Y-99250000D02*
X100300000Y-95450000D01*
X99300000Y-94450000D02*
X84300000Y-94450000D01*
X48900000Y-89950000D02*
X48900000Y-91050000D01*
X48900000Y-89950000D02*
G75*
G02*
X49900000Y-88950000I1000000J0D01*
G01*
X101300000Y-100250000D02*
G75*
G02*
X100300000Y-99250000I0J1000000D01*
G01*
X31900000Y-99250000D02*
G75*
G02*
X30900000Y-100250000I-1000000J0D01*
G01*
X115200000Y-100250000D02*
X101300000Y-100250000D01*
X115200000Y-32650000D02*
G75*
G02*
X116200000Y-33650000I0J-1000000D01*
G01*
X65300000Y-88950000D02*
G75*
G02*
X66300000Y-89950000I0J-1000000D01*
G01*
X32300000Y-31649993D02*
X32300000Y-25450000D01*
X66300000Y-91050000D02*
X66300000Y-89950000D01*
X47900000Y-92050000D02*
X32900000Y-92050000D01*
X48900000Y-91050000D02*
G75*
G02*
X47900000Y-92050000I-1000000J0D01*
G01*
X16500000Y-99250000D02*
X16500000Y-33650000D01*
X32300000Y-31649993D02*
G75*
G02*
X31300000Y-32650000I-1000000J-7D01*
G01*
X82300000Y-92050000D02*
X67300000Y-92050000D01*
X98900000Y-26850000D02*
G75*
G02*
X99900000Y-27850000I0J-1000000D01*
G01*
X100900000Y-32650000D02*
G75*
G02*
X99900000Y-31650000I0J1000000D01*
G01*
X49300000Y-23450000D02*
X49300000Y-22350000D01*
X99900000Y-27850000D02*
X99900000Y-31646246D01*
X31900000Y-93050000D02*
X31900000Y-99250000D01*
X64900000Y-21350000D02*
G75*
G02*
X65900000Y-22350000I0J-1000000D01*
G01*
X16500000Y-33650000D02*
G75*
G02*
X17500000Y-32650000I999999J1D01*
G01*
X66900000Y-24450000D02*
X81900000Y-24450000D01*
X81900000Y-24450000D02*
G75*
G02*
X82900000Y-25450000I0J-1000000D01*
G01*
X17500000Y-32650000D02*
X31300000Y-32649993D01*
X50300000Y-21350000D02*
X64900000Y-21350000D01*
X66900000Y-24450000D02*
G75*
G02*
X65900000Y-23450000I0J1000000D01*
G01*
X115200000Y-32650000D02*
X100900000Y-32650000D01*
X49300000Y-22350000D02*
G75*
G02*
X50300000Y-21350000I1000000J0D01*
G01*
X17500000Y-100250000D02*
G75*
G02*
X16500000Y-99250000I-1J999999D01*
G01*
X84300000Y-94450000D02*
G75*
G02*
X83300000Y-93450000I0J1000000D01*
G01*
X65900000Y-22350000D02*
X65900000Y-23450000D01*
X82300000Y-92050000D02*
G75*
G02*
X83300000Y-93050000I0J-1000000D01*
G01*
X83900000Y-26850000D02*
G75*
G02*
X82900000Y-25850000I0J1000000D01*
G01*
X83900000Y-26850000D02*
X98900000Y-26850000D01*
X99300000Y-94450000D02*
G75*
G02*
X100300000Y-95450000I0J-1000000D01*
G01*
X31900000Y-93050000D02*
G75*
G02*
X32900000Y-92050000I1000000J0D01*
G01*
M02*
