G04 #@! TF.GenerationSoftware,KiCad,Pcbnew,9.0.0*
G04 #@! TF.CreationDate,2025-04-21T18:53:58+09:00*
G04 #@! TF.ProjectId,nofy_V2_L,6e6f6679-5f56-4325-9f4c-2e6b69636164,rev?*
G04 #@! TF.SameCoordinates,Original*
G04 #@! TF.FileFunction,Soldermask,Top*
G04 #@! TF.FilePolarity,Negative*
%FSLAX46Y46*%
G04 Gerber Fmt 4.6, Leading zero omitted, Abs format (unit mm)*
G04 Created by KiCad (PCBNEW 9.0.0) date 2025-04-21 18:53:58*
%MOMM*%
%LPD*%
G01*
G04 APERTURE LIST*
%ADD10C,3.000000*%
%ADD11C,4.800000*%
%ADD12C,1.700000*%
%ADD13O,1.700000X1.700000*%
%ADD14C,2.200000*%
%ADD15C,2.000000*%
%ADD16C,0.600000*%
G04 APERTURE END LIST*
D10*
X28600000Y-71250000D03*
D11*
X23600000Y-74950000D03*
D10*
X23600000Y-69050000D03*
D12*
X66100000Y-40955000D03*
D13*
X66100000Y-43495000D03*
X66100000Y-46035000D03*
X66100000Y-48575000D03*
D10*
X87900000Y-81150000D03*
D11*
X91600000Y-86150000D03*
D10*
X85700000Y-86150000D03*
X45600000Y-63050000D03*
D11*
X40600000Y-66750000D03*
D10*
X40600000Y-60850000D03*
D14*
X83430000Y-77560000D03*
D10*
X86600000Y-72850000D03*
D11*
X91600000Y-69150000D03*
D10*
X91600000Y-75050000D03*
D12*
X66100000Y-25810000D03*
D13*
X66100000Y-28350000D03*
X66100000Y-30890000D03*
X66100000Y-33430000D03*
D14*
X31700000Y-83450000D03*
D10*
X86600000Y-55850000D03*
D11*
X91600000Y-52150000D03*
D10*
X91600000Y-58050000D03*
D12*
X100115000Y-33955000D03*
D13*
X100115000Y-36495000D03*
X100115000Y-39035000D03*
X100115000Y-41575000D03*
D10*
X69600000Y-53450000D03*
D11*
X74600000Y-49750000D03*
D10*
X74600000Y-55650000D03*
X45600000Y-29050000D03*
D11*
X40600000Y-32750000D03*
D10*
X40600000Y-26850000D03*
X79600000Y-29050000D03*
D11*
X74600000Y-32750000D03*
D10*
X74600000Y-26850000D03*
X103600000Y-61650000D03*
D11*
X108600000Y-57950000D03*
D10*
X108600000Y-63850000D03*
X28600000Y-37250000D03*
D11*
X23600000Y-40950000D03*
D10*
X23600000Y-35050000D03*
X45600000Y-46050000D03*
D11*
X40600000Y-49750000D03*
D10*
X40600000Y-43850000D03*
X104900000Y-86950000D03*
D11*
X108600000Y-91950000D03*
D10*
X102700000Y-91950000D03*
X52600000Y-67350000D03*
D11*
X57600000Y-63650000D03*
D10*
X57600000Y-69550000D03*
D14*
X31600000Y-49450000D03*
D12*
X100100000Y-49010000D03*
D13*
X100100000Y-51550000D03*
X100100000Y-54090000D03*
X100100000Y-56630000D03*
D10*
X103600000Y-78650000D03*
D11*
X108600000Y-74950000D03*
D10*
X108600000Y-80850000D03*
X52600000Y-50350000D03*
D11*
X57600000Y-46650000D03*
D10*
X57600000Y-52550000D03*
D14*
X83300000Y-61150000D03*
D10*
X52600000Y-84350000D03*
D11*
X57600000Y-80650000D03*
D10*
X57600000Y-86550000D03*
X52600000Y-33350000D03*
D11*
X57600000Y-29650000D03*
D10*
X57600000Y-35550000D03*
D12*
X32115000Y-60455000D03*
D13*
X32115000Y-62995000D03*
X32115000Y-65535000D03*
X32115000Y-68075000D03*
D10*
X69600000Y-70450000D03*
D11*
X74600000Y-66750000D03*
D10*
X74600000Y-72650000D03*
X103600000Y-44650000D03*
D11*
X108600000Y-40950000D03*
D10*
X108600000Y-46850000D03*
X28600000Y-88250000D03*
D11*
X23600000Y-91950000D03*
D10*
X23600000Y-86050000D03*
X86587500Y-38825000D03*
D11*
X91587500Y-35125000D03*
D10*
X91587500Y-41025000D03*
X69600000Y-87450000D03*
D11*
X74600000Y-83750000D03*
D10*
X74600000Y-89650000D03*
X28600000Y-54250000D03*
D11*
X23600000Y-57950000D03*
D10*
X23600000Y-52050000D03*
X45600000Y-80050000D03*
D11*
X40600000Y-83750000D03*
D10*
X40600000Y-77850000D03*
D15*
X100000000Y-85450000D03*
X100000000Y-90450000D03*
X100000000Y-87950000D03*
D16*
X26209600Y-56103500D03*
X64300000Y-55850000D03*
X39500000Y-72617500D03*
X26879500Y-73325300D03*
X20125000Y-81416500D03*
X32050000Y-81416500D03*
X35894200Y-55162500D03*
X61075000Y-55162500D03*
X61075000Y-84297300D03*
X68884300Y-84297300D03*
X71125000Y-36066200D03*
X78550000Y-36066200D03*
X84587500Y-51658600D03*
X78075000Y-51658600D03*
X37125000Y-38301500D03*
X84412200Y-36973000D03*
X78550000Y-44186900D03*
X95050000Y-44150000D03*
X93290700Y-49566600D03*
X87858300Y-49571100D03*
X95075000Y-79002100D03*
X72481200Y-79002100D03*
X97788500Y-54090000D03*
X97173300Y-62558200D03*
X97173300Y-84925500D03*
X65638000Y-62558200D03*
X83494800Y-36970500D03*
X61075000Y-37936200D03*
X90805000Y-82822300D03*
X71200000Y-75371400D03*
X89758600Y-76460200D03*
X112028800Y-82822300D03*
X97940200Y-88960000D03*
X83844700Y-88066500D03*
X112075000Y-50216500D03*
X73081100Y-52551300D03*
X83975000Y-48964000D03*
X83975000Y-52551300D03*
X72350000Y-63531400D03*
X112075000Y-67155300D03*
X63080900Y-59046600D03*
X67464000Y-59046600D03*
X59074800Y-59002400D03*
X35887600Y-70223900D03*
X64500000Y-61466600D03*
X68950000Y-61466600D03*
X82200000Y-45717900D03*
X80428600Y-61466600D03*
X75150000Y-45700000D03*
X28600000Y-75367300D03*
X64850000Y-75367300D03*
X68568200Y-75367300D03*
X67750000Y-75367300D03*
X71116900Y-37152100D03*
X27776600Y-41236000D03*
X79728500Y-37152100D03*
X70510000Y-42151600D03*
X72646300Y-74710700D03*
X85800000Y-53273600D03*
X77350000Y-74650000D03*
X38391800Y-74710700D03*
X34974500Y-68075000D03*
X72403400Y-53273600D03*
X54633100Y-43461700D03*
X54633100Y-56564800D03*
X62143200Y-43461700D03*
X66980600Y-29433300D03*
X32025100Y-56703500D03*
X75104200Y-29433300D03*
X59930400Y-58085600D03*
X47407000Y-58085600D03*
X45684900Y-65055600D03*
X48950000Y-64999100D03*
X33679800Y-58968300D03*
X49920100Y-58968300D03*
X33679800Y-65428700D03*
X79617500Y-39558100D03*
X32001100Y-39558100D03*
X82950000Y-31614900D03*
X67271100Y-39558100D03*
X97788500Y-31614900D03*
X97788500Y-52346800D03*
X81226100Y-38889000D03*
X47438800Y-38937300D03*
X83344300Y-46423400D03*
X67892400Y-36967300D03*
X99382000Y-42791000D03*
X67892400Y-42848000D03*
X50889700Y-37538300D03*
M02*
