G04 #@! TF.GenerationSoftware,KiCad,Pcbnew,9.0.0*
G04 #@! TF.CreationDate,2025-03-20T15:23:17+09:00*
G04 #@! TF.ProjectId,nofy,6e6f6679-2e6b-4696-9361-645f70636258,rev?*
G04 #@! TF.SameCoordinates,Original*
G04 #@! TF.FileFunction,Copper,L2,Bot*
G04 #@! TF.FilePolarity,Positive*
%FSLAX46Y46*%
G04 Gerber Fmt 4.6, Leading zero omitted, Abs format (unit mm)*
G04 Created by KiCad (PCBNEW 9.0.0) date 2025-03-20 15:23:17*
%MOMM*%
%LPD*%
G01*
G04 APERTURE LIST*
G04 #@! TA.AperFunction,ComponentPad*
%ADD10C,1.700000*%
G04 #@! TD*
G04 #@! TA.AperFunction,ComponentPad*
%ADD11O,1.700000X1.700000*%
G04 #@! TD*
G04 #@! TA.AperFunction,SMDPad,CuDef*
%ADD12R,3.500000X2.750000*%
G04 #@! TD*
G04 #@! TA.AperFunction,SMDPad,CuDef*
%ADD13R,3.500000X3.000000*%
G04 #@! TD*
G04 #@! TA.AperFunction,ComponentPad*
%ADD14O,2.750000X1.800000*%
G04 #@! TD*
G04 #@! TA.AperFunction,ComponentPad*
%ADD15C,1.500000*%
G04 #@! TD*
G04 #@! TA.AperFunction,ComponentPad*
%ADD16O,1.300000X1.000000*%
G04 #@! TD*
G04 #@! TA.AperFunction,SMDPad,CuDef*
%ADD17R,3.500000X2.650000*%
G04 #@! TD*
G04 #@! TA.AperFunction,SMDPad,CuDef*
%ADD18R,0.950000X1.200000*%
G04 #@! TD*
G04 #@! TA.AperFunction,SMDPad,CuDef*
%ADD19R,3.450000X2.750000*%
G04 #@! TD*
G04 #@! TA.AperFunction,ViaPad*
%ADD20C,0.600000*%
G04 #@! TD*
G04 #@! TA.AperFunction,Conductor*
%ADD21C,0.350000*%
G04 #@! TD*
G04 #@! TA.AperFunction,Conductor*
%ADD22C,0.200000*%
G04 #@! TD*
G04 APERTURE END LIST*
D10*
X22685000Y-81485000D03*
D11*
X22685000Y-78945000D03*
X22685000Y-76405000D03*
X22685000Y-73865000D03*
D12*
X63950000Y-66328600D03*
D13*
X61750000Y-78103600D03*
D12*
X80950000Y-66328600D03*
D13*
X78750000Y-78103600D03*
D14*
X54005000Y-103065000D03*
X54005000Y-100525000D03*
X54005000Y-97985000D03*
X54005000Y-95445000D03*
X54005000Y-92905000D03*
X54005000Y-90365000D03*
X54005000Y-87825000D03*
X37765000Y-87825000D03*
X37765000Y-90365000D03*
X37765000Y-92905000D03*
X37765000Y-95445000D03*
X37765000Y-97985000D03*
X37765000Y-100525000D03*
X37765000Y-103065000D03*
D15*
X42049600Y-86133000D03*
X40170000Y-86133000D03*
X50330000Y-95762000D03*
X50330000Y-97667000D03*
D16*
X33585000Y-105595000D03*
X31085000Y-105595000D03*
X28585000Y-105595000D03*
D17*
X97950000Y-66378600D03*
D13*
X95750000Y-78103600D03*
D10*
X22703600Y-41076100D03*
D11*
X22703600Y-43616100D03*
X22703600Y-46156100D03*
X22703600Y-48696100D03*
D10*
X56685000Y-73745000D03*
D11*
X56685000Y-71205000D03*
X56685000Y-68665000D03*
X56685000Y-66125000D03*
D18*
X107950000Y-71753575D03*
X107950000Y-68303575D03*
D12*
X109900000Y-56528600D03*
D13*
X112100000Y-44753600D03*
D18*
X73750000Y-71853575D03*
X73750000Y-68403575D03*
D10*
X22685000Y-98545000D03*
D11*
X22685000Y-96005000D03*
X22685000Y-93465000D03*
X22685000Y-90925000D03*
D10*
X79860000Y-56603600D03*
D11*
X82400000Y-56603600D03*
X84940000Y-56603600D03*
X87480000Y-56603600D03*
D10*
X56703600Y-34071100D03*
D11*
X56703600Y-36611100D03*
X56703600Y-39151100D03*
X56703600Y-41691100D03*
D10*
X86150000Y-66253600D03*
D11*
X88690000Y-66253600D03*
X91230000Y-66253600D03*
X93770000Y-66253600D03*
D10*
X22703600Y-25931100D03*
D11*
X22703600Y-28471100D03*
X22703600Y-31011100D03*
X22703600Y-33551100D03*
D18*
X100000000Y-50953525D03*
X100000000Y-54403525D03*
D14*
X37783600Y-29631100D03*
X37783600Y-32171100D03*
X37783600Y-34711100D03*
X37783600Y-37251100D03*
X37783600Y-39791100D03*
X37783600Y-42331100D03*
X37783600Y-44871100D03*
X54023600Y-44871100D03*
X54023600Y-42331100D03*
X54023600Y-39791100D03*
X54023600Y-37251100D03*
X54023600Y-34711100D03*
X54023600Y-32171100D03*
X54023600Y-29631100D03*
D15*
X49739000Y-46563100D03*
X51618600Y-46563100D03*
X41458600Y-36934100D03*
X41458600Y-35029100D03*
D18*
X83100000Y-50953525D03*
X83100000Y-54403525D03*
D16*
X28403600Y-27121100D03*
X30903600Y-27121100D03*
X33403600Y-27121100D03*
D10*
X56703600Y-49131100D03*
D11*
X56703600Y-51671100D03*
X56703600Y-54211100D03*
X56703600Y-56751100D03*
D19*
X75925000Y-56528600D03*
D13*
X78100000Y-44753600D03*
D12*
X92900000Y-56528600D03*
D13*
X95100000Y-44753600D03*
D10*
X56685000Y-90445000D03*
D11*
X56685000Y-87905000D03*
X56685000Y-85365000D03*
X56685000Y-82825000D03*
D18*
X90750000Y-71953575D03*
X90750000Y-68503575D03*
X66100000Y-50953525D03*
X66100000Y-54403525D03*
D20*
X50380700Y-91958400D03*
X31119798Y-82965202D03*
X29200000Y-39400000D03*
X72660200Y-68261600D03*
X70363100Y-68261600D03*
X84536000Y-80597300D03*
X78750000Y-80597300D03*
X92827000Y-44814900D03*
X83876700Y-44814900D03*
X35952900Y-43775700D03*
X35952900Y-47526900D03*
X40116500Y-47526900D03*
X34223200Y-103710400D03*
X28585000Y-103710400D03*
X28585000Y-96005000D03*
X40116500Y-27495100D03*
X72761400Y-71247600D03*
X87420000Y-71414700D03*
X106971600Y-66253600D03*
X78891600Y-51014000D03*
X67131100Y-51014000D03*
X78891600Y-55451900D03*
X84950000Y-53166100D03*
X83250000Y-49800000D03*
X97700000Y-51161800D03*
X87480000Y-51161800D03*
X78690200Y-65820800D03*
X96202700Y-68208100D03*
X77467400Y-68864000D03*
X86150000Y-68208100D03*
X66800000Y-67000000D03*
X90848300Y-55300000D03*
X107100000Y-56413200D03*
X79860000Y-54424200D03*
X52346900Y-33418800D03*
X51098900Y-38521100D03*
X51098900Y-35822000D03*
X51741800Y-37251100D03*
X51741800Y-41061100D03*
X49700000Y-56750000D03*
X56703600Y-43622900D03*
X51119100Y-39791100D03*
X51119100Y-43622900D03*
X53523600Y-53451100D03*
X55927500Y-42877200D03*
X55143700Y-51996600D03*
X22703600Y-37251100D03*
X51618600Y-48550000D03*
X34151100Y-42331100D03*
X34151100Y-44452400D03*
X22703600Y-38640600D03*
X30401700Y-97070500D03*
X30401700Y-93465000D03*
X24226550Y-77444387D03*
X24233700Y-86034200D03*
X27647200Y-83750000D03*
X27650000Y-90357100D03*
X24855800Y-75400000D03*
X24855800Y-77938400D03*
X42049600Y-77938400D03*
X51855000Y-97985000D03*
X55295800Y-85739100D03*
X49705700Y-92400000D03*
X49704000Y-85739100D03*
X51855000Y-94300000D03*
X48903997Y-92600000D03*
X48950000Y-82850000D03*
X40170000Y-77147900D03*
X46081900Y-77147900D03*
X46081900Y-65790300D03*
X52328300Y-68650000D03*
X51630000Y-71223700D03*
X51630000Y-89000000D03*
X50850000Y-74185800D03*
X52126800Y-92905000D03*
D21*
X50330000Y-95762000D02*
X50380700Y-95711300D01*
X50380700Y-95711300D02*
X50380700Y-91958400D01*
D22*
X31085000Y-83000000D02*
X31085000Y-105595000D01*
X31119798Y-82965202D02*
X31085000Y-83000000D01*
X29200000Y-39400000D02*
X29200000Y-39120000D01*
X29200000Y-39120000D02*
X30903600Y-37416400D01*
X30903600Y-37416400D02*
X30903600Y-27121100D01*
X73750000Y-68403600D02*
X72802200Y-68403600D01*
X70363100Y-76350000D02*
X70350000Y-76350000D01*
X70350000Y-76350000D02*
X68600000Y-78100000D01*
X72802200Y-68403600D02*
X72660200Y-68261600D01*
X70363100Y-68261600D02*
X70363100Y-76350000D01*
X68600000Y-78100000D02*
X61753600Y-78100000D01*
X61753600Y-78100000D02*
X61750000Y-78103600D01*
X89200000Y-75933300D02*
X84536000Y-80597300D01*
X89200000Y-70053600D02*
X89200000Y-75933300D01*
X90750000Y-68503600D02*
X89200000Y-70053600D01*
X78750000Y-78103600D02*
X78750000Y-80597300D01*
X108726000Y-74674000D02*
X105300000Y-78100000D01*
X107953600Y-68303600D02*
X108726000Y-69076000D01*
X105300000Y-78100000D02*
X95753600Y-78100000D01*
X107950000Y-68303600D02*
X107953600Y-68303600D01*
X95753600Y-78100000D02*
X95750000Y-78103600D01*
X108726000Y-69076000D02*
X108726000Y-74674000D01*
X72101700Y-54403500D02*
X75878300Y-50626900D01*
X75878300Y-50626900D02*
X75878300Y-46975300D01*
X75878300Y-46975300D02*
X78100000Y-44753600D01*
X66100000Y-54403500D02*
X72101700Y-54403500D01*
X92888300Y-44753600D02*
X92827000Y-44814900D01*
X83100000Y-54403500D02*
X83876700Y-54403500D01*
X95100000Y-44753600D02*
X92888300Y-44753600D01*
X83876700Y-54403500D02*
X83876700Y-44814900D01*
X109550000Y-47303600D02*
X112100000Y-44753600D01*
X100146500Y-54403500D02*
X100000000Y-54403500D01*
X99704563Y-54901900D02*
X99898100Y-54901900D01*
X103896475Y-54403525D02*
X109550000Y-48750000D01*
X109550000Y-48750000D02*
X109550000Y-47303600D01*
X100000000Y-54403525D02*
X103896475Y-54403525D01*
D21*
X41458600Y-36934100D02*
X40116500Y-38276200D01*
X35952900Y-47526900D02*
X35952900Y-43775700D01*
X40116500Y-38276200D02*
X40116500Y-47526900D01*
X28585000Y-105595000D02*
X28585000Y-103710400D01*
X28585000Y-103710400D02*
X28585000Y-96005000D01*
X37408600Y-100525000D02*
X34223200Y-103710400D01*
X38265000Y-100525000D02*
X37408600Y-100525000D01*
X40116500Y-33687000D02*
X41458600Y-35029100D01*
X40116500Y-27495100D02*
X40116500Y-33687000D01*
D22*
X72761400Y-71247600D02*
X72973300Y-71459500D01*
X72973300Y-71459500D02*
X72973300Y-71853600D01*
X73750000Y-71853600D02*
X72973300Y-71853600D01*
X88690000Y-66253600D02*
X87420000Y-67523600D01*
X87420000Y-67523600D02*
X87420000Y-71414700D01*
X91230000Y-67405300D02*
X91526700Y-67702000D01*
X91230000Y-66253600D02*
X91230000Y-67405300D01*
X90750000Y-71953600D02*
X91526700Y-71953600D01*
X91526700Y-67702000D02*
X91526700Y-71953600D01*
X107950000Y-71753575D02*
X106971600Y-70775175D01*
X107950000Y-71753600D02*
X107950000Y-71753575D01*
X106971600Y-70775175D02*
X106971600Y-66253600D01*
X67070600Y-50953500D02*
X67131100Y-51014000D01*
X66100000Y-50953500D02*
X67070600Y-50953500D01*
X78891600Y-55451900D02*
X78891600Y-51014000D01*
X84950000Y-53166100D02*
X84950000Y-53378600D01*
X84940000Y-53388600D02*
X84940000Y-56603600D01*
X83100000Y-50953500D02*
X83100000Y-49950000D01*
X84950000Y-53378600D02*
X84940000Y-53388600D01*
X83100000Y-49950000D02*
X83250000Y-49800000D01*
X100000000Y-50953525D02*
X100000000Y-50953500D01*
X97908275Y-50953525D02*
X100000000Y-50953525D01*
X97700000Y-51161800D02*
X97908275Y-50953525D01*
X87480000Y-56603600D02*
X87480000Y-51161800D01*
X78690200Y-65820800D02*
X78898300Y-66028900D01*
X80950000Y-66328600D02*
X79924200Y-66328600D01*
X64621400Y-67000000D02*
X66800000Y-67000000D01*
X79924200Y-66328600D02*
X78898300Y-66328600D01*
X97950000Y-66378600D02*
X96202700Y-68125900D01*
X78898300Y-66028900D02*
X78898300Y-66328600D01*
X86150000Y-66253600D02*
X86150000Y-68208100D01*
X77467400Y-68785400D02*
X77467400Y-68864000D01*
X63950000Y-66328600D02*
X64621400Y-67000000D01*
X96202700Y-68125900D02*
X96202700Y-68208100D01*
X79924200Y-66328600D02*
X77467400Y-68785400D01*
X75925000Y-56528600D02*
X75953600Y-56500000D01*
X107215400Y-56528600D02*
X109900000Y-56528600D01*
X107100000Y-56413200D02*
X107215400Y-56528600D01*
X79860000Y-56603600D02*
X79860000Y-54424200D01*
X92076900Y-56528600D02*
X92900000Y-56528600D01*
X90848300Y-55300000D02*
X92076900Y-56528600D01*
X75953600Y-56500000D02*
X79756400Y-56500000D01*
X79756400Y-56500000D02*
X79860000Y-56603600D01*
X52346900Y-30807800D02*
X52346900Y-33418800D01*
X53523600Y-29631100D02*
X52346900Y-30807800D01*
X51098900Y-38521100D02*
X51098900Y-35822000D01*
X51741800Y-41061100D02*
X51741800Y-37251100D01*
X49700000Y-56750000D02*
X49750000Y-56700000D01*
X49750000Y-56700000D02*
X49750000Y-46574100D01*
X49750000Y-46574100D02*
X49739000Y-46563100D01*
X51119100Y-43622900D02*
X51119100Y-39791100D01*
X56703600Y-49131100D02*
X56703600Y-43622900D01*
X53523600Y-46545600D02*
X53523600Y-53451100D01*
X53523600Y-44871100D02*
X53523600Y-46545600D01*
X55927500Y-42877200D02*
X55927500Y-46348100D01*
X55927500Y-46348100D02*
X55143700Y-47131900D01*
X55143700Y-47131900D02*
X55143700Y-51996600D01*
X22703600Y-33551100D02*
X22703600Y-37251100D01*
X51618600Y-46563100D02*
X51618600Y-48550000D01*
X34151100Y-44452400D02*
X34151100Y-42331100D01*
X22703600Y-41076100D02*
X22703600Y-38640600D01*
X30401700Y-93465000D02*
X30401700Y-97070500D01*
X24233700Y-77451537D02*
X24233700Y-86034200D01*
X38265000Y-87825000D02*
X38330000Y-87825000D01*
X24226550Y-77444387D02*
X24233700Y-77451537D01*
X27650000Y-88460600D02*
X27650000Y-90357100D01*
X27647200Y-83750000D02*
X27647200Y-88457800D01*
X27647200Y-88457800D02*
X27650000Y-88460600D01*
X42049600Y-86133000D02*
X42049600Y-77938400D01*
X24855800Y-75400000D02*
X24855800Y-77938400D01*
X51855000Y-94300000D02*
X51855000Y-97985000D01*
X49704000Y-92398300D02*
X49704000Y-85739100D01*
X55295800Y-85739100D02*
X55533300Y-85501600D01*
X56685000Y-85365000D02*
X55533300Y-85365000D01*
X49705700Y-92400000D02*
X49704000Y-92398300D01*
X55533300Y-85501600D02*
X55533300Y-85365000D01*
X55850000Y-99400000D02*
X54725000Y-100525000D01*
X52871600Y-91621600D02*
X55021600Y-91621600D01*
X55850000Y-92450000D02*
X55850000Y-99400000D01*
X52100000Y-90093900D02*
X52100000Y-90850000D01*
X52100000Y-90850000D02*
X52871600Y-91621600D01*
X56685000Y-87905000D02*
X55426700Y-89163300D01*
X53030600Y-89163300D02*
X52100000Y-90093900D01*
X55021600Y-91621600D02*
X55850000Y-92450000D01*
X55426700Y-89163300D02*
X53030600Y-89163300D01*
X54725000Y-100525000D02*
X53505000Y-100525000D01*
X48950000Y-82850000D02*
X48953000Y-82853000D01*
X48953000Y-92550997D02*
X48903997Y-92600000D01*
X48953000Y-82853000D02*
X48953000Y-92550997D01*
X54335000Y-103065000D02*
X53505000Y-103065000D01*
X56685000Y-90445000D02*
X56685000Y-100715000D01*
X56685000Y-100715000D02*
X54335000Y-103065000D01*
X40170000Y-86133000D02*
X40170000Y-77147900D01*
X46081900Y-77147900D02*
X46081900Y-65790300D01*
X52328300Y-87825000D02*
X53505000Y-87825000D01*
X52328300Y-68650000D02*
X52328300Y-87825000D01*
X51630000Y-71223700D02*
X51630000Y-89000000D01*
X52126800Y-92769400D02*
X52126800Y-92905000D01*
X50850000Y-74185800D02*
X50850000Y-91492600D01*
X50850000Y-91492600D02*
X52126800Y-92769400D01*
M02*
