G04 #@! TF.GenerationSoftware,KiCad,Pcbnew,9.0.0*
G04 #@! TF.CreationDate,2025-03-20T15:23:17+09:00*
G04 #@! TF.ProjectId,nofy,6e6f6679-2e6b-4696-9361-645f70636258,rev?*
G04 #@! TF.SameCoordinates,Original*
G04 #@! TF.FileFunction,Soldermask,Top*
G04 #@! TF.FilePolarity,Negative*
%FSLAX46Y46*%
G04 Gerber Fmt 4.6, Leading zero omitted, Abs format (unit mm)*
G04 Created by KiCad (PCBNEW 9.0.0) date 2025-03-20 15:23:17*
%MOMM*%
%LPD*%
G01*
G04 APERTURE LIST*
G04 Aperture macros list*
%AMRoundRect*
0 Rectangle with rounded corners*
0 $1 Rounding radius*
0 $2 $3 $4 $5 $6 $7 $8 $9 X,Y pos of 4 corners*
0 Add a 4 corners polygon primitive as box body*
4,1,4,$2,$3,$4,$5,$6,$7,$8,$9,$2,$3,0*
0 Add four circle primitives for the rounded corners*
1,1,$1+$1,$2,$3*
1,1,$1+$1,$4,$5*
1,1,$1+$1,$6,$7*
1,1,$1+$1,$8,$9*
0 Add four rect primitives between the rounded corners*
20,1,$1+$1,$2,$3,$4,$5,0*
20,1,$1+$1,$4,$5,$6,$7,0*
20,1,$1+$1,$6,$7,$8,$9,0*
20,1,$1+$1,$8,$9,$2,$3,0*%
G04 Aperture macros list end*
%ADD10C,1.700000*%
%ADD11O,1.700000X1.700000*%
%ADD12C,3.000000*%
%ADD13C,4.800000*%
%ADD14C,1.000000*%
%ADD15C,3.200000*%
%ADD16O,2.750000X1.800000*%
%ADD17C,1.500000*%
%ADD18O,1.300000X1.000000*%
%ADD19C,0.600000*%
%ADD20RoundRect,0.102000X0.500000X1.750000X-0.500000X1.750000X-0.500000X-1.750000X0.500000X-1.750000X0*%
%ADD21RoundRect,0.102000X0.750000X1.700000X-0.750000X1.700000X-0.750000X-1.700000X0.750000X-1.700000X0*%
%ADD22RoundRect,0.102000X-0.500000X-1.750000X0.500000X-1.750000X0.500000X1.750000X-0.500000X1.750000X0*%
%ADD23RoundRect,0.102000X-0.750000X-1.700000X0.750000X-1.700000X0.750000X1.700000X-0.750000X1.700000X0*%
G04 APERTURE END LIST*
D10*
X22685000Y-81485000D03*
D11*
X22685000Y-78945000D03*
X22685000Y-76405000D03*
X22685000Y-73865000D03*
D12*
X63950000Y-69553600D03*
D13*
X67650000Y-74553600D03*
D12*
X61750000Y-74553600D03*
D14*
X73200000Y-79553600D03*
D12*
X80950000Y-69553600D03*
D13*
X84650000Y-74553600D03*
D12*
X78750000Y-74553600D03*
D14*
X90200000Y-79553600D03*
D15*
X97700000Y-56203600D03*
D16*
X54005000Y-103065000D03*
X54005000Y-100525000D03*
X54005000Y-97985000D03*
X54005000Y-95445000D03*
X54005000Y-92905000D03*
X54005000Y-90365000D03*
X54005000Y-87825000D03*
X37765000Y-87825000D03*
X37765000Y-90365000D03*
X37765000Y-92905000D03*
X37765000Y-95445000D03*
X37765000Y-97985000D03*
X37765000Y-100525000D03*
X37765000Y-103065000D03*
D17*
X42049600Y-86133000D03*
X40170000Y-86133000D03*
X50330000Y-95762000D03*
X50330000Y-97667000D03*
D18*
X33585000Y-105595000D03*
X31085000Y-105595000D03*
X28585000Y-105595000D03*
D19*
X67500000Y-64300000D03*
X69000000Y-64300000D03*
X70500000Y-64300000D03*
X72000000Y-64300000D03*
X67500000Y-63000000D03*
X69000000Y-63000000D03*
X70500000Y-63000000D03*
X72000000Y-63000000D03*
D12*
X97950000Y-69553600D03*
D13*
X101650000Y-74553600D03*
D12*
X95750000Y-74553600D03*
D14*
X107200000Y-79553600D03*
D10*
X22703600Y-41076100D03*
D11*
X22703600Y-43616100D03*
X22703600Y-46156100D03*
X22703600Y-48696100D03*
D10*
X56685000Y-73745000D03*
D11*
X56685000Y-71205000D03*
X56685000Y-68665000D03*
X56685000Y-66125000D03*
D19*
X42050000Y-59850000D03*
X43550000Y-59850000D03*
X45050000Y-59850000D03*
X46550000Y-59850000D03*
X42050000Y-58550000D03*
X43550000Y-58550000D03*
X45050000Y-58550000D03*
X46550000Y-58550000D03*
D12*
X109900000Y-53303600D03*
D13*
X106200000Y-48303600D03*
D12*
X112100000Y-48303600D03*
D14*
X100650000Y-43303600D03*
D20*
X31196400Y-41832100D03*
X29196400Y-41832100D03*
D21*
X26846400Y-47582100D03*
X33546400Y-47582100D03*
D10*
X22685000Y-98545000D03*
D11*
X22685000Y-96005000D03*
X22685000Y-93465000D03*
X22685000Y-90925000D03*
D10*
X79860000Y-56603600D03*
D11*
X82400000Y-56603600D03*
X84940000Y-56603600D03*
X87480000Y-56603600D03*
D10*
X56703600Y-34071100D03*
D11*
X56703600Y-36611100D03*
X56703600Y-39151100D03*
X56703600Y-41691100D03*
D10*
X86150000Y-66253600D03*
D11*
X88690000Y-66253600D03*
X91230000Y-66253600D03*
X93770000Y-66253600D03*
D15*
X76150000Y-66653600D03*
D22*
X29100000Y-80625000D03*
X31100000Y-80625000D03*
D23*
X33450000Y-74875000D03*
X26750000Y-74875000D03*
D10*
X22703600Y-25931100D03*
D11*
X22703600Y-28471100D03*
X22703600Y-31011100D03*
X22703600Y-33551100D03*
D16*
X37783600Y-29631100D03*
X37783600Y-32171100D03*
X37783600Y-34711100D03*
X37783600Y-37251100D03*
X37783600Y-39791100D03*
X37783600Y-42331100D03*
X37783600Y-44871100D03*
X54023600Y-44871100D03*
X54023600Y-42331100D03*
X54023600Y-39791100D03*
X54023600Y-37251100D03*
X54023600Y-34711100D03*
X54023600Y-32171100D03*
X54023600Y-29631100D03*
D17*
X49739000Y-46563100D03*
X51618600Y-46563100D03*
X41458600Y-36934100D03*
X41458600Y-35029100D03*
D18*
X28403600Y-27121100D03*
X30903600Y-27121100D03*
X33403600Y-27121100D03*
D10*
X56703600Y-49131100D03*
D11*
X56703600Y-51671100D03*
X56703600Y-54211100D03*
X56703600Y-56751100D03*
D19*
X67500000Y-59850000D03*
X69000000Y-59850000D03*
X70500000Y-59850000D03*
X72000000Y-59850000D03*
X67500000Y-58550000D03*
X69000000Y-58550000D03*
X70500000Y-58550000D03*
X72000000Y-58550000D03*
D12*
X75900000Y-53303600D03*
D13*
X72200000Y-48303600D03*
D12*
X78100000Y-48303600D03*
D14*
X66650000Y-43303600D03*
D12*
X92900000Y-53303600D03*
D13*
X89200000Y-48303600D03*
D12*
X95100000Y-48303600D03*
D14*
X83650000Y-43303600D03*
D19*
X42050000Y-64300000D03*
X43550000Y-64300000D03*
X45050000Y-64300000D03*
X46550000Y-64300000D03*
X42050000Y-63000000D03*
X43550000Y-63000000D03*
X45050000Y-63000000D03*
X46550000Y-63000000D03*
D10*
X56685000Y-90445000D03*
D11*
X56685000Y-87905000D03*
X56685000Y-85365000D03*
X56685000Y-82825000D03*
D15*
X40100000Y-72050000D03*
D19*
X50380700Y-91958400D03*
X31119798Y-82965202D03*
X29200000Y-39400000D03*
X72660200Y-68261600D03*
X70363100Y-68261600D03*
X84536000Y-80597300D03*
X78750000Y-80597300D03*
X92827000Y-44814900D03*
X83876700Y-44814900D03*
X35952900Y-43775700D03*
X35952900Y-47526900D03*
X40116500Y-47526900D03*
X34223200Y-103710400D03*
X28585000Y-103710400D03*
X28585000Y-96005000D03*
X40116500Y-27495100D03*
X72761400Y-71247600D03*
X87420000Y-71414700D03*
X106971600Y-66253600D03*
X78891600Y-51014000D03*
X67131100Y-51014000D03*
X78891600Y-55451900D03*
X84950000Y-53166100D03*
X83250000Y-49800000D03*
X97700000Y-51161800D03*
X87480000Y-51161800D03*
X78690200Y-65820800D03*
X96202700Y-68208100D03*
X77467400Y-68864000D03*
X86150000Y-68208100D03*
X66800000Y-67000000D03*
X90848300Y-55300000D03*
X107100000Y-56413200D03*
X79860000Y-54424200D03*
X52346900Y-33418800D03*
X51098900Y-38521100D03*
X51098900Y-35822000D03*
X51741800Y-37251100D03*
X51741800Y-41061100D03*
X49700000Y-56750000D03*
X56703600Y-43622900D03*
X51119100Y-39791100D03*
X51119100Y-43622900D03*
X53523600Y-53451100D03*
X55927500Y-42877200D03*
X55143700Y-51996600D03*
X22703600Y-37251100D03*
X51618600Y-48550000D03*
X34151100Y-42331100D03*
X34151100Y-44452400D03*
X22703600Y-38640600D03*
X30401700Y-97070500D03*
X30401700Y-93465000D03*
X24226550Y-77444387D03*
X24233700Y-86034200D03*
X27647200Y-83750000D03*
X27650000Y-90357100D03*
X24855800Y-75400000D03*
X24855800Y-77938400D03*
X42049600Y-77938400D03*
X51855000Y-97985000D03*
X55295800Y-85739100D03*
X49705700Y-92400000D03*
X49704000Y-85739100D03*
X51855000Y-94300000D03*
X48903997Y-92600000D03*
X48950000Y-82850000D03*
X40170000Y-77147900D03*
X46081900Y-77147900D03*
X46081900Y-65790300D03*
X52328300Y-68650000D03*
X51630000Y-71223700D03*
X51630000Y-89000000D03*
X50850000Y-74185800D03*
X52126800Y-92905000D03*
M02*
