G04 #@! TF.GenerationSoftware,KiCad,Pcbnew,9.0.0*
G04 #@! TF.CreationDate,2025-03-20T15:23:17+09:00*
G04 #@! TF.ProjectId,nofy,6e6f6679-2e6b-4696-9361-645f70636258,rev?*
G04 #@! TF.SameCoordinates,Original*
G04 #@! TF.FileFunction,Profile,NP*
%FSLAX46Y46*%
G04 Gerber Fmt 4.6, Leading zero omitted, Abs format (unit mm)*
G04 Created by KiCad (PCBNEW 9.0.0) date 2025-03-20 15:23:17*
%MOMM*%
%LPD*%
G01*
G04 APERTURE LIST*
G04 #@! TA.AperFunction,Profile*
%ADD10C,0.050000*%
G04 #@! TD*
G04 #@! TA.AperFunction,Profile*
%ADD11C,0.120000*%
G04 #@! TD*
G04 #@! TA.AperFunction,Profile*
%ADD12C,0.100000*%
G04 #@! TD*
G04 APERTURE END LIST*
D10*
X73600000Y-58000000D02*
X113500000Y-58007108D01*
X35600000Y-106950000D02*
G75*
G02*
X36600000Y-105950000I1000000J0D01*
G01*
X21410660Y-25514214D02*
G75*
G02*
X22410660Y-24514160I1000040J14D01*
G01*
X64900000Y-58000000D02*
X65900000Y-58000000D01*
X57996446Y-57000000D02*
G75*
G02*
X56996446Y-58000046I-1000046J0D01*
G01*
X21400000Y-65850000D02*
G75*
G02*
X22400000Y-64850000I1000000J0D01*
G01*
X25600000Y-99850000D02*
X22400000Y-99850000D01*
X109950000Y-81853562D02*
G75*
G02*
X108950000Y-82853600I-1000000J-38D01*
G01*
X73600000Y-60400000D02*
X73600000Y-62450000D01*
X108950000Y-64857108D02*
X73600000Y-64850000D01*
X34396446Y-24514214D02*
G75*
G02*
X35396386Y-25514214I-46J-999986D01*
G01*
X35396453Y-25707107D02*
X35396445Y-25514214D01*
X60350000Y-82853554D02*
G75*
G02*
X59350046Y-81853554I0J999954D01*
G01*
X114500000Y-57007108D02*
G75*
G02*
X113500000Y-58007100I-1000000J8D01*
G01*
X109950000Y-81853562D02*
X109950000Y-65857108D01*
X113500000Y-40003554D02*
G75*
G02*
X114500046Y-41003554I0J-1000046D01*
G01*
X56603553Y-32807107D02*
X57003553Y-32807107D01*
X22400000Y-99850000D02*
G75*
G02*
X21400000Y-98850000I0J1000000D01*
G01*
X22410653Y-24514214D02*
X34396446Y-24514214D01*
X59350000Y-81853554D02*
X59350000Y-65850000D01*
X64900000Y-58000000D02*
G75*
G02*
X63900000Y-57000000I0J1000000D01*
G01*
X108950000Y-64857108D02*
G75*
G02*
X109949992Y-65857108I0J-999992D01*
G01*
X36396453Y-26707107D02*
X54603553Y-26707107D01*
X27600000Y-108150000D02*
G75*
G02*
X26600000Y-107150000I0J1000000D01*
G01*
X54603553Y-26714214D02*
G75*
G02*
X55603586Y-27714214I47J-999986D01*
G01*
X36396445Y-26707107D02*
G75*
G02*
X35396393Y-25707107I-45J1000007D01*
G01*
X48150000Y-62450000D02*
X65900000Y-62450000D01*
X48150000Y-60400000D02*
X65900000Y-60400000D01*
X63900000Y-41003546D02*
X63900000Y-57000000D01*
X22403553Y-58000000D02*
X40450000Y-58000000D01*
X21400000Y-98850000D02*
X21400000Y-65850000D01*
X60350000Y-64850000D02*
X65900000Y-64850000D01*
X56900000Y-64850000D02*
G75*
G02*
X57900000Y-65850000I0J-1000000D01*
G01*
X35600000Y-107150000D02*
G75*
G02*
X34600000Y-108150000I-1000000J0D01*
G01*
X108950000Y-82853562D02*
X60350000Y-82853554D01*
X48150000Y-64850000D02*
X56900000Y-64850000D01*
X36600000Y-105950000D02*
X56900000Y-105950000D01*
X55603553Y-27714214D02*
X55603553Y-31807107D01*
X25600000Y-99850000D02*
G75*
G02*
X26600000Y-100850000I0J-1000000D01*
G01*
X64900000Y-40003546D02*
X113500000Y-40003554D01*
X57003553Y-32807107D02*
G75*
G02*
X58003593Y-33807107I47J-999993D01*
G01*
X56603553Y-32807107D02*
G75*
G02*
X55603593Y-31807107I47J1000007D01*
G01*
X34600000Y-108150000D02*
X27600000Y-108150000D01*
X57900000Y-104950000D02*
G75*
G02*
X56900000Y-105950000I-1000000J0D01*
G01*
X59350000Y-65850000D02*
G75*
G02*
X60350000Y-64850000I1000000J0D01*
G01*
X22400000Y-64850000D02*
X40450000Y-64850000D01*
X57900000Y-65850000D02*
X57900000Y-104950000D01*
X22403553Y-58000000D02*
G75*
G02*
X21403600Y-57000000I47J1000000D01*
G01*
X63900000Y-41003546D02*
G75*
G02*
X64900000Y-40003500I1000000J46D01*
G01*
X21403553Y-57000000D02*
X21410660Y-25514207D01*
X56996446Y-57999999D02*
X48150000Y-58000000D01*
X40450000Y-60400000D02*
X40450000Y-62450000D01*
X58003553Y-33807107D02*
X57996445Y-57000000D01*
X26600000Y-107150000D02*
X26600000Y-100850000D01*
X35600000Y-107150000D02*
X35600000Y-106950000D01*
X114500000Y-41003554D02*
X114500000Y-57007108D01*
D11*
X39899753Y-88153247D02*
X39899753Y-86553047D01*
X40585553Y-85867247D02*
X41626953Y-85867247D01*
X41931753Y-88534247D02*
X40280753Y-88534247D01*
X42312753Y-86553047D02*
X42312753Y-88153247D01*
X47925753Y-97541753D02*
X47925753Y-95890753D01*
X48306753Y-95509753D02*
X49906953Y-95509753D01*
X49906953Y-97922753D02*
X48306753Y-97922753D01*
X50592753Y-96195553D02*
X50592753Y-97236953D01*
X40280753Y-88534247D02*
G75*
G02*
X39899753Y-88153247I-3J380997D01*
G01*
X40585553Y-85867247D02*
G75*
G02*
X39899749Y-86553054I-438053J-247753D01*
G01*
X42312753Y-86553047D02*
G75*
G02*
X41626953Y-85867247I-247753J438047D01*
G01*
X42312753Y-88153247D02*
G75*
G02*
X41931753Y-88534243I-380993J-3D01*
G01*
X47925753Y-95890753D02*
G75*
G02*
X48306753Y-95509753I380996J4D01*
G01*
X48306753Y-97922753D02*
G75*
G02*
X47925753Y-97541753I-8J380992D01*
G01*
X49906953Y-97922753D02*
G75*
G02*
X50592753Y-97236953I438047J247753D01*
G01*
X50592753Y-96195553D02*
G75*
G02*
X49906953Y-95509753I-247753J438047D01*
G01*
D12*
X65900000Y-62450000D02*
G75*
G02*
X65900000Y-64850000I0J-1200000D01*
G01*
X73600000Y-64850000D02*
G75*
G02*
X73600000Y-62450000I0J1200000D01*
G01*
X40450000Y-58000000D02*
G75*
G02*
X40450000Y-60400000I0J-1200000D01*
G01*
X48150000Y-60400000D02*
G75*
G02*
X48150000Y-58000000I0J1200000D01*
G01*
D11*
X41195847Y-36500547D02*
X41195847Y-35459147D01*
X41881647Y-34773347D02*
X43481847Y-34773347D01*
X43481847Y-37186347D02*
X41881647Y-37186347D01*
X43862847Y-35154347D02*
X43862847Y-36805347D01*
X49475847Y-46143053D02*
X49475847Y-44542853D01*
X49856847Y-44161853D02*
X51507847Y-44161853D01*
X51203047Y-46828853D02*
X50161647Y-46828853D01*
X51888847Y-44542853D02*
X51888847Y-46143053D01*
X41195847Y-36500547D02*
G75*
G02*
X41881647Y-37186347I247753J-438047D01*
G01*
X41881647Y-34773347D02*
G75*
G02*
X41195847Y-35459147I-438047J-247753D01*
G01*
X43481847Y-34773347D02*
G75*
G02*
X43862847Y-35154347I8J-380992D01*
G01*
X43862847Y-36805347D02*
G75*
G02*
X43481847Y-37186347I-380996J-4D01*
G01*
X49475847Y-44542853D02*
G75*
G02*
X49856847Y-44161857I380993J3D01*
G01*
X49475847Y-46143053D02*
G75*
G02*
X50161647Y-46828853I247753J-438047D01*
G01*
X51203047Y-46828853D02*
G75*
G02*
X51888851Y-46143046I438053J247753D01*
G01*
X51507847Y-44161853D02*
G75*
G02*
X51888847Y-44542853I3J-380997D01*
G01*
D12*
X65900000Y-58000000D02*
G75*
G02*
X65900000Y-60400000I0J-1200000D01*
G01*
X73600000Y-60400000D02*
G75*
G02*
X73600000Y-58000000I0J1200000D01*
G01*
X40450000Y-62450000D02*
G75*
G02*
X40450000Y-64850000I0J-1200000D01*
G01*
X48150000Y-64850000D02*
G75*
G02*
X48150000Y-62450000I0J1200000D01*
G01*
M02*
