G04 #@! TF.GenerationSoftware,KiCad,Pcbnew,9.0.0*
G04 #@! TF.CreationDate,2025-03-20T15:23:17+09:00*
G04 #@! TF.ProjectId,nofy,6e6f6679-2e6b-4696-9361-645f70636258,rev?*
G04 #@! TF.SameCoordinates,Original*
G04 #@! TF.FileFunction,Legend,Bot*
G04 #@! TF.FilePolarity,Positive*
%FSLAX46Y46*%
G04 Gerber Fmt 4.6, Leading zero omitted, Abs format (unit mm)*
G04 Created by KiCad (PCBNEW 9.0.0) date 2025-03-20 15:23:17*
%MOMM*%
%LPD*%
G01*
G04 APERTURE LIST*
%ADD10C,0.125000*%
%ADD11C,0.150000*%
%ADD12C,0.200000*%
G04 APERTURE END LIST*
D10*
X46273884Y-56435559D02*
X46273884Y-57102226D01*
X46273884Y-56530797D02*
X46321503Y-56483178D01*
X46321503Y-56483178D02*
X46416741Y-56435559D01*
X46416741Y-56435559D02*
X46559598Y-56435559D01*
X46559598Y-56435559D02*
X46654836Y-56483178D01*
X46654836Y-56483178D02*
X46702455Y-56578416D01*
X46702455Y-56578416D02*
X46702455Y-57102226D01*
X47321503Y-57102226D02*
X47226265Y-57054607D01*
X47226265Y-57054607D02*
X47178646Y-57006987D01*
X47178646Y-57006987D02*
X47131027Y-56911749D01*
X47131027Y-56911749D02*
X47131027Y-56626035D01*
X47131027Y-56626035D02*
X47178646Y-56530797D01*
X47178646Y-56530797D02*
X47226265Y-56483178D01*
X47226265Y-56483178D02*
X47321503Y-56435559D01*
X47321503Y-56435559D02*
X47464360Y-56435559D01*
X47464360Y-56435559D02*
X47559598Y-56483178D01*
X47559598Y-56483178D02*
X47607217Y-56530797D01*
X47607217Y-56530797D02*
X47654836Y-56626035D01*
X47654836Y-56626035D02*
X47654836Y-56911749D01*
X47654836Y-56911749D02*
X47607217Y-57006987D01*
X47607217Y-57006987D02*
X47559598Y-57054607D01*
X47559598Y-57054607D02*
X47464360Y-57102226D01*
X47464360Y-57102226D02*
X47321503Y-57102226D01*
X47940551Y-56435559D02*
X48321503Y-56435559D01*
X48083408Y-57102226D02*
X48083408Y-56245083D01*
X48083408Y-56245083D02*
X48131027Y-56149845D01*
X48131027Y-56149845D02*
X48226265Y-56102226D01*
X48226265Y-56102226D02*
X48321503Y-56102226D01*
X48559599Y-56435559D02*
X48797694Y-57102226D01*
X49035789Y-56435559D02*
X48797694Y-57102226D01*
X48797694Y-57102226D02*
X48702456Y-57340321D01*
X48702456Y-57340321D02*
X48654837Y-57387940D01*
X48654837Y-57387940D02*
X48559599Y-57435559D01*
X50178647Y-56578416D02*
X50511980Y-56578416D01*
X50654837Y-57102226D02*
X50178647Y-57102226D01*
X50178647Y-57102226D02*
X50178647Y-56102226D01*
X50178647Y-56102226D02*
X50654837Y-56102226D01*
X51083409Y-56435559D02*
X51083409Y-57102226D01*
X51083409Y-56530797D02*
X51131028Y-56483178D01*
X51131028Y-56483178D02*
X51226266Y-56435559D01*
X51226266Y-56435559D02*
X51369123Y-56435559D01*
X51369123Y-56435559D02*
X51464361Y-56483178D01*
X51464361Y-56483178D02*
X51511980Y-56578416D01*
X51511980Y-56578416D02*
X51511980Y-57102226D01*
X52416742Y-56435559D02*
X52416742Y-57245083D01*
X52416742Y-57245083D02*
X52369123Y-57340321D01*
X52369123Y-57340321D02*
X52321504Y-57387940D01*
X52321504Y-57387940D02*
X52226266Y-57435559D01*
X52226266Y-57435559D02*
X52083409Y-57435559D01*
X52083409Y-57435559D02*
X51988171Y-57387940D01*
X52416742Y-57054607D02*
X52321504Y-57102226D01*
X52321504Y-57102226D02*
X52131028Y-57102226D01*
X52131028Y-57102226D02*
X52035790Y-57054607D01*
X52035790Y-57054607D02*
X51988171Y-57006987D01*
X51988171Y-57006987D02*
X51940552Y-56911749D01*
X51940552Y-56911749D02*
X51940552Y-56626035D01*
X51940552Y-56626035D02*
X51988171Y-56530797D01*
X51988171Y-56530797D02*
X52035790Y-56483178D01*
X52035790Y-56483178D02*
X52131028Y-56435559D01*
X52131028Y-56435559D02*
X52321504Y-56435559D01*
X52321504Y-56435559D02*
X52416742Y-56483178D01*
X52892933Y-57102226D02*
X52892933Y-56435559D01*
X52892933Y-56102226D02*
X52845314Y-56149845D01*
X52845314Y-56149845D02*
X52892933Y-56197464D01*
X52892933Y-56197464D02*
X52940552Y-56149845D01*
X52940552Y-56149845D02*
X52892933Y-56102226D01*
X52892933Y-56102226D02*
X52892933Y-56197464D01*
X53369123Y-56435559D02*
X53369123Y-57102226D01*
X53369123Y-56530797D02*
X53416742Y-56483178D01*
X53416742Y-56483178D02*
X53511980Y-56435559D01*
X53511980Y-56435559D02*
X53654837Y-56435559D01*
X53654837Y-56435559D02*
X53750075Y-56483178D01*
X53750075Y-56483178D02*
X53797694Y-56578416D01*
X53797694Y-56578416D02*
X53797694Y-57102226D01*
X54654837Y-57054607D02*
X54559599Y-57102226D01*
X54559599Y-57102226D02*
X54369123Y-57102226D01*
X54369123Y-57102226D02*
X54273885Y-57054607D01*
X54273885Y-57054607D02*
X54226266Y-56959368D01*
X54226266Y-56959368D02*
X54226266Y-56578416D01*
X54226266Y-56578416D02*
X54273885Y-56483178D01*
X54273885Y-56483178D02*
X54369123Y-56435559D01*
X54369123Y-56435559D02*
X54559599Y-56435559D01*
X54559599Y-56435559D02*
X54654837Y-56483178D01*
X54654837Y-56483178D02*
X54702456Y-56578416D01*
X54702456Y-56578416D02*
X54702456Y-56673654D01*
X54702456Y-56673654D02*
X54226266Y-56768892D01*
X54679668Y-66145547D02*
X54679668Y-65478880D01*
X54679668Y-66050309D02*
X54632049Y-66097928D01*
X54632049Y-66097928D02*
X54536811Y-66145547D01*
X54536811Y-66145547D02*
X54393954Y-66145547D01*
X54393954Y-66145547D02*
X54298716Y-66097928D01*
X54298716Y-66097928D02*
X54251097Y-66002690D01*
X54251097Y-66002690D02*
X54251097Y-65478880D01*
X53632049Y-65478880D02*
X53727287Y-65526500D01*
X53727287Y-65526500D02*
X53774906Y-65574119D01*
X53774906Y-65574119D02*
X53822525Y-65669357D01*
X53822525Y-65669357D02*
X53822525Y-65955071D01*
X53822525Y-65955071D02*
X53774906Y-66050309D01*
X53774906Y-66050309D02*
X53727287Y-66097928D01*
X53727287Y-66097928D02*
X53632049Y-66145547D01*
X53632049Y-66145547D02*
X53489192Y-66145547D01*
X53489192Y-66145547D02*
X53393954Y-66097928D01*
X53393954Y-66097928D02*
X53346335Y-66050309D01*
X53346335Y-66050309D02*
X53298716Y-65955071D01*
X53298716Y-65955071D02*
X53298716Y-65669357D01*
X53298716Y-65669357D02*
X53346335Y-65574119D01*
X53346335Y-65574119D02*
X53393954Y-65526500D01*
X53393954Y-65526500D02*
X53489192Y-65478880D01*
X53489192Y-65478880D02*
X53632049Y-65478880D01*
X53013001Y-66145547D02*
X52632049Y-66145547D01*
X52870144Y-65478880D02*
X52870144Y-66336023D01*
X52870144Y-66336023D02*
X52822525Y-66431261D01*
X52822525Y-66431261D02*
X52727287Y-66478880D01*
X52727287Y-66478880D02*
X52632049Y-66478880D01*
X52393953Y-66145547D02*
X52155858Y-65478880D01*
X51917763Y-66145547D02*
X52155858Y-65478880D01*
X52155858Y-65478880D02*
X52251096Y-65240785D01*
X52251096Y-65240785D02*
X52298715Y-65193166D01*
X52298715Y-65193166D02*
X52393953Y-65145547D01*
X50774905Y-66002690D02*
X50441572Y-66002690D01*
X50298715Y-65478880D02*
X50774905Y-65478880D01*
X50774905Y-65478880D02*
X50774905Y-66478880D01*
X50774905Y-66478880D02*
X50298715Y-66478880D01*
X49870143Y-66145547D02*
X49870143Y-65478880D01*
X49870143Y-66050309D02*
X49822524Y-66097928D01*
X49822524Y-66097928D02*
X49727286Y-66145547D01*
X49727286Y-66145547D02*
X49584429Y-66145547D01*
X49584429Y-66145547D02*
X49489191Y-66097928D01*
X49489191Y-66097928D02*
X49441572Y-66002690D01*
X49441572Y-66002690D02*
X49441572Y-65478880D01*
X48536810Y-66145547D02*
X48536810Y-65336023D01*
X48536810Y-65336023D02*
X48584429Y-65240785D01*
X48584429Y-65240785D02*
X48632048Y-65193166D01*
X48632048Y-65193166D02*
X48727286Y-65145547D01*
X48727286Y-65145547D02*
X48870143Y-65145547D01*
X48870143Y-65145547D02*
X48965381Y-65193166D01*
X48536810Y-65526500D02*
X48632048Y-65478880D01*
X48632048Y-65478880D02*
X48822524Y-65478880D01*
X48822524Y-65478880D02*
X48917762Y-65526500D01*
X48917762Y-65526500D02*
X48965381Y-65574119D01*
X48965381Y-65574119D02*
X49013000Y-65669357D01*
X49013000Y-65669357D02*
X49013000Y-65955071D01*
X49013000Y-65955071D02*
X48965381Y-66050309D01*
X48965381Y-66050309D02*
X48917762Y-66097928D01*
X48917762Y-66097928D02*
X48822524Y-66145547D01*
X48822524Y-66145547D02*
X48632048Y-66145547D01*
X48632048Y-66145547D02*
X48536810Y-66097928D01*
X48060619Y-65478880D02*
X48060619Y-66145547D01*
X48060619Y-66478880D02*
X48108238Y-66431261D01*
X48108238Y-66431261D02*
X48060619Y-66383642D01*
X48060619Y-66383642D02*
X48013000Y-66431261D01*
X48013000Y-66431261D02*
X48060619Y-66478880D01*
X48060619Y-66478880D02*
X48060619Y-66383642D01*
X47584429Y-66145547D02*
X47584429Y-65478880D01*
X47584429Y-66050309D02*
X47536810Y-66097928D01*
X47536810Y-66097928D02*
X47441572Y-66145547D01*
X47441572Y-66145547D02*
X47298715Y-66145547D01*
X47298715Y-66145547D02*
X47203477Y-66097928D01*
X47203477Y-66097928D02*
X47155858Y-66002690D01*
X47155858Y-66002690D02*
X47155858Y-65478880D01*
X46298715Y-65526500D02*
X46393953Y-65478880D01*
X46393953Y-65478880D02*
X46584429Y-65478880D01*
X46584429Y-65478880D02*
X46679667Y-65526500D01*
X46679667Y-65526500D02*
X46727286Y-65621738D01*
X46727286Y-65621738D02*
X46727286Y-66002690D01*
X46727286Y-66002690D02*
X46679667Y-66097928D01*
X46679667Y-66097928D02*
X46584429Y-66145547D01*
X46584429Y-66145547D02*
X46393953Y-66145547D01*
X46393953Y-66145547D02*
X46298715Y-66097928D01*
X46298715Y-66097928D02*
X46251096Y-66002690D01*
X46251096Y-66002690D02*
X46251096Y-65907452D01*
X46251096Y-65907452D02*
X46727286Y-65812214D01*
D11*
X59425000Y-75853600D02*
X59425000Y-73528600D01*
X59450000Y-73553600D02*
X64050000Y-73553600D01*
X59450000Y-73703600D02*
X64050000Y-73703600D01*
X59450000Y-73853600D02*
X64050000Y-73853600D01*
X59450000Y-74003600D02*
X64050000Y-74003600D01*
X59450000Y-74153600D02*
X64050000Y-74153600D01*
X59450000Y-74303600D02*
X64050000Y-74303600D01*
X59450000Y-74453600D02*
X64050000Y-74453600D01*
X59450000Y-74603600D02*
X64050000Y-74603600D01*
X59450000Y-74753600D02*
X64050000Y-74753600D01*
X59450000Y-74903600D02*
X64050000Y-74903600D01*
X59450000Y-75053600D02*
X64050000Y-75053600D01*
X59450000Y-75203600D02*
X64050000Y-75203600D01*
X59450000Y-75353600D02*
X64050000Y-75353600D01*
X59450000Y-75503600D02*
X64050000Y-75503600D01*
X59450000Y-75653600D02*
X64050000Y-75653600D01*
X59450000Y-75803600D02*
X64050000Y-75803600D01*
X59540000Y-73403600D02*
X64000000Y-73403600D01*
X59560000Y-75953600D02*
X63950000Y-75953600D01*
X59660000Y-73253600D02*
X64050000Y-73253600D01*
X59700000Y-76103600D02*
X63820000Y-76103600D01*
X59770000Y-73103600D02*
X64050000Y-73103600D01*
X59830000Y-76253600D02*
X63660000Y-76253600D01*
X59890000Y-72953600D02*
X64050000Y-72953600D01*
X59990000Y-76403600D02*
X63520000Y-76403600D01*
X60030000Y-72803600D02*
X64150000Y-72803600D01*
X60090000Y-76503600D02*
X63420000Y-76503600D01*
X60130000Y-72663600D02*
X64200000Y-72653600D01*
X60200000Y-76603600D02*
X63320000Y-76603600D01*
X60220000Y-72553600D02*
X64250000Y-72553600D01*
X60280000Y-76703600D02*
X63210000Y-76703600D01*
X60300000Y-72453600D02*
X64300000Y-72453600D01*
X60380000Y-72353600D02*
X64400000Y-72353600D01*
X60425000Y-76853600D02*
X59425000Y-75853600D01*
X60450000Y-72253600D02*
X59425000Y-73528600D01*
X60450000Y-72253600D02*
X64600000Y-72253600D01*
X60630000Y-72153600D02*
X64750000Y-72153600D01*
X60800000Y-72053600D02*
X65700000Y-72053600D01*
X60950000Y-71903600D02*
X65900000Y-71903600D01*
X61100000Y-71753600D02*
X66090000Y-71753600D01*
X61200000Y-71603600D02*
X66170000Y-71603600D01*
X61300000Y-71453600D02*
X66220000Y-71453600D01*
X61400000Y-71303600D02*
X66250000Y-71303600D01*
X61450000Y-71153600D02*
X66270000Y-71153600D01*
X61550000Y-71003600D02*
X66260000Y-71003600D01*
X61600000Y-70703600D02*
X66250000Y-70703600D01*
X61600000Y-70853600D02*
X66200000Y-70853600D01*
X61610000Y-70553600D02*
X66250000Y-70553600D01*
X61625000Y-70253600D02*
X61625000Y-68278600D01*
X61640000Y-68153600D02*
X66150000Y-68153600D01*
X61650000Y-68303600D02*
X66250000Y-68303600D01*
X61650000Y-68453600D02*
X66250000Y-68453600D01*
X61650000Y-68603600D02*
X66250000Y-68603600D01*
X61650000Y-68753600D02*
X66250000Y-68753600D01*
X61650000Y-68903600D02*
X66250000Y-68903600D01*
X61650000Y-69053600D02*
X66250000Y-69053600D01*
X61650000Y-69203600D02*
X66250000Y-69203600D01*
X61650000Y-69353600D02*
X66250000Y-69353600D01*
X61650000Y-69503600D02*
X66250000Y-69503600D01*
X61650000Y-69653600D02*
X66250000Y-69653600D01*
X61650000Y-69803600D02*
X66250000Y-69803600D01*
X61650000Y-69953600D02*
X66250000Y-69953600D01*
X61650000Y-70103600D02*
X66250000Y-70103600D01*
X61650000Y-70253600D02*
X66250000Y-70253600D01*
X61650000Y-70403600D02*
X66200000Y-70403600D01*
X61680000Y-68003600D02*
X66000000Y-68003600D01*
X61730000Y-67853600D02*
X65850000Y-67853600D01*
X61810000Y-67703600D02*
X65950000Y-67703600D01*
X61950000Y-67553600D02*
X65920000Y-67553600D01*
X62120000Y-67403600D02*
X65800000Y-67403600D01*
X63075000Y-76853600D02*
X60425000Y-76853600D01*
X63075000Y-76853600D02*
X64075000Y-75853600D01*
X64075000Y-75853600D02*
X64075000Y-73278600D01*
X65250000Y-72103600D02*
X65573113Y-72103600D01*
X65275000Y-67248600D02*
X62625000Y-67248600D01*
X66275000Y-71242396D02*
X66275000Y-68278600D01*
X61625000Y-68248600D02*
G75*
G02*
X62625000Y-67248600I999999J1D01*
G01*
X61632542Y-70253600D02*
G75*
G02*
X60450000Y-72253600I-2282546J2D01*
G01*
X64075000Y-73278600D02*
G75*
G02*
X65250000Y-72103600I1175002J-2D01*
G01*
X65275000Y-67248600D02*
G75*
G02*
X66275000Y-68248600I1J-999999D01*
G01*
X66275000Y-71242396D02*
G75*
G02*
X65573113Y-72103600I-926887J38796D01*
G01*
X76425000Y-75853600D02*
X76425000Y-73528600D01*
X76450000Y-73553600D02*
X81050000Y-73553600D01*
X76450000Y-73703600D02*
X81050000Y-73703600D01*
X76450000Y-73853600D02*
X81050000Y-73853600D01*
X76450000Y-74003600D02*
X81050000Y-74003600D01*
X76450000Y-74153600D02*
X81050000Y-74153600D01*
X76450000Y-74303600D02*
X81050000Y-74303600D01*
X76450000Y-74453600D02*
X81050000Y-74453600D01*
X76450000Y-74603600D02*
X81050000Y-74603600D01*
X76450000Y-74753600D02*
X81050000Y-74753600D01*
X76450000Y-74903600D02*
X81050000Y-74903600D01*
X76450000Y-75053600D02*
X81050000Y-75053600D01*
X76450000Y-75203600D02*
X81050000Y-75203600D01*
X76450000Y-75353600D02*
X81050000Y-75353600D01*
X76450000Y-75503600D02*
X81050000Y-75503600D01*
X76450000Y-75653600D02*
X81050000Y-75653600D01*
X76450000Y-75803600D02*
X81050000Y-75803600D01*
X76540000Y-73403600D02*
X81000000Y-73403600D01*
X76560000Y-75953600D02*
X80950000Y-75953600D01*
X76660000Y-73253600D02*
X81050000Y-73253600D01*
X76700000Y-76103600D02*
X80820000Y-76103600D01*
X76770000Y-73103600D02*
X81050000Y-73103600D01*
X76830000Y-76253600D02*
X80660000Y-76253600D01*
X76890000Y-72953600D02*
X81050000Y-72953600D01*
X76990000Y-76403600D02*
X80520000Y-76403600D01*
X77030000Y-72803600D02*
X81150000Y-72803600D01*
X77090000Y-76503600D02*
X80420000Y-76503600D01*
X77130000Y-72663600D02*
X81200000Y-72653600D01*
X77200000Y-76603600D02*
X80320000Y-76603600D01*
X77220000Y-72553600D02*
X81250000Y-72553600D01*
X77280000Y-76703600D02*
X80210000Y-76703600D01*
X77300000Y-72453600D02*
X81300000Y-72453600D01*
X77380000Y-72353600D02*
X81400000Y-72353600D01*
X77425000Y-76853600D02*
X76425000Y-75853600D01*
X77450000Y-72253600D02*
X76425000Y-73528600D01*
X77450000Y-72253600D02*
X81600000Y-72253600D01*
X77630000Y-72153600D02*
X81750000Y-72153600D01*
X77800000Y-72053600D02*
X82700000Y-72053600D01*
X77950000Y-71903600D02*
X82900000Y-71903600D01*
X78100000Y-71753600D02*
X83090000Y-71753600D01*
X78200000Y-71603600D02*
X83170000Y-71603600D01*
X78300000Y-71453600D02*
X83220000Y-71453600D01*
X78400000Y-71303600D02*
X83250000Y-71303600D01*
X78450000Y-71153600D02*
X83270000Y-71153600D01*
X78550000Y-71003600D02*
X83260000Y-71003600D01*
X78600000Y-70703600D02*
X83250000Y-70703600D01*
X78600000Y-70853600D02*
X83200000Y-70853600D01*
X78610000Y-70553600D02*
X83250000Y-70553600D01*
X78625000Y-70253600D02*
X78625000Y-68278600D01*
X78640000Y-68153600D02*
X83150000Y-68153600D01*
X78650000Y-68303600D02*
X83250000Y-68303600D01*
X78650000Y-68453600D02*
X83250000Y-68453600D01*
X78650000Y-68603600D02*
X83250000Y-68603600D01*
X78650000Y-68753600D02*
X83250000Y-68753600D01*
X78650000Y-68903600D02*
X83250000Y-68903600D01*
X78650000Y-69053600D02*
X83250000Y-69053600D01*
X78650000Y-69203600D02*
X83250000Y-69203600D01*
X78650000Y-69353600D02*
X83250000Y-69353600D01*
X78650000Y-69503600D02*
X83250000Y-69503600D01*
X78650000Y-69653600D02*
X83250000Y-69653600D01*
X78650000Y-69803600D02*
X83250000Y-69803600D01*
X78650000Y-69953600D02*
X83250000Y-69953600D01*
X78650000Y-70103600D02*
X83250000Y-70103600D01*
X78650000Y-70253600D02*
X83250000Y-70253600D01*
X78650000Y-70403600D02*
X83200000Y-70403600D01*
X78680000Y-68003600D02*
X83000000Y-68003600D01*
X78730000Y-67853600D02*
X82850000Y-67853600D01*
X78810000Y-67703600D02*
X82950000Y-67703600D01*
X78950000Y-67553600D02*
X82920000Y-67553600D01*
X79120000Y-67403600D02*
X82800000Y-67403600D01*
X80075000Y-76853600D02*
X77425000Y-76853600D01*
X80075000Y-76853600D02*
X81075000Y-75853600D01*
X81075000Y-75853600D02*
X81075000Y-73278600D01*
X82250000Y-72103600D02*
X82573113Y-72103600D01*
X82275000Y-67248600D02*
X79625000Y-67248600D01*
X83275000Y-71242396D02*
X83275000Y-68278600D01*
X78625000Y-68248600D02*
G75*
G02*
X79625000Y-67248600I999999J1D01*
G01*
X78632542Y-70253600D02*
G75*
G02*
X77450000Y-72253600I-2282546J2D01*
G01*
X81075000Y-73278600D02*
G75*
G02*
X82250000Y-72103600I1175002J-2D01*
G01*
X82275000Y-67248600D02*
G75*
G02*
X83275000Y-68248600I1J-999999D01*
G01*
X83275000Y-71242396D02*
G75*
G02*
X82573113Y-72103600I-926887J38796D01*
G01*
X93425000Y-75853600D02*
X93425000Y-73528600D01*
X93450000Y-73553600D02*
X98050000Y-73553600D01*
X93450000Y-73703600D02*
X98050000Y-73703600D01*
X93450000Y-73853600D02*
X98050000Y-73853600D01*
X93450000Y-74003600D02*
X98050000Y-74003600D01*
X93450000Y-74153600D02*
X98050000Y-74153600D01*
X93450000Y-74303600D02*
X98050000Y-74303600D01*
X93450000Y-74453600D02*
X98050000Y-74453600D01*
X93450000Y-74603600D02*
X98050000Y-74603600D01*
X93450000Y-74753600D02*
X98050000Y-74753600D01*
X93450000Y-74903600D02*
X98050000Y-74903600D01*
X93450000Y-75053600D02*
X98050000Y-75053600D01*
X93450000Y-75203600D02*
X98050000Y-75203600D01*
X93450000Y-75353600D02*
X98050000Y-75353600D01*
X93450000Y-75503600D02*
X98050000Y-75503600D01*
X93450000Y-75653600D02*
X98050000Y-75653600D01*
X93450000Y-75803600D02*
X98050000Y-75803600D01*
X93540000Y-73403600D02*
X98000000Y-73403600D01*
X93560000Y-75953600D02*
X97950000Y-75953600D01*
X93660000Y-73253600D02*
X98050000Y-73253600D01*
X93700000Y-76103600D02*
X97820000Y-76103600D01*
X93770000Y-73103600D02*
X98050000Y-73103600D01*
X93830000Y-76253600D02*
X97660000Y-76253600D01*
X93890000Y-72953600D02*
X98050000Y-72953600D01*
X93990000Y-76403600D02*
X97520000Y-76403600D01*
X94030000Y-72803600D02*
X98150000Y-72803600D01*
X94090000Y-76503600D02*
X97420000Y-76503600D01*
X94130000Y-72663600D02*
X98200000Y-72653600D01*
X94200000Y-76603600D02*
X97320000Y-76603600D01*
X94220000Y-72553600D02*
X98250000Y-72553600D01*
X94280000Y-76703600D02*
X97210000Y-76703600D01*
X94300000Y-72453600D02*
X98300000Y-72453600D01*
X94380000Y-72353600D02*
X98400000Y-72353600D01*
X94425000Y-76853600D02*
X93425000Y-75853600D01*
X94450000Y-72253600D02*
X93425000Y-73528600D01*
X94450000Y-72253600D02*
X98600000Y-72253600D01*
X94630000Y-72153600D02*
X98750000Y-72153600D01*
X94800000Y-72053600D02*
X99700000Y-72053600D01*
X94950000Y-71903600D02*
X99900000Y-71903600D01*
X95100000Y-71753600D02*
X100090000Y-71753600D01*
X95200000Y-71603600D02*
X100170000Y-71603600D01*
X95300000Y-71453600D02*
X100220000Y-71453600D01*
X95400000Y-71303600D02*
X100250000Y-71303600D01*
X95450000Y-71153600D02*
X100270000Y-71153600D01*
X95550000Y-71003600D02*
X100260000Y-71003600D01*
X95600000Y-70703600D02*
X100250000Y-70703600D01*
X95600000Y-70853600D02*
X100200000Y-70853600D01*
X95610000Y-70553600D02*
X100250000Y-70553600D01*
X95625000Y-70253600D02*
X95625000Y-68278600D01*
X95640000Y-68153600D02*
X100150000Y-68153600D01*
X95650000Y-68303600D02*
X100250000Y-68303600D01*
X95650000Y-68453600D02*
X100250000Y-68453600D01*
X95650000Y-68603600D02*
X100250000Y-68603600D01*
X95650000Y-68753600D02*
X100250000Y-68753600D01*
X95650000Y-68903600D02*
X100250000Y-68903600D01*
X95650000Y-69053600D02*
X100250000Y-69053600D01*
X95650000Y-69203600D02*
X100250000Y-69203600D01*
X95650000Y-69353600D02*
X100250000Y-69353600D01*
X95650000Y-69503600D02*
X100250000Y-69503600D01*
X95650000Y-69653600D02*
X100250000Y-69653600D01*
X95650000Y-69803600D02*
X100250000Y-69803600D01*
X95650000Y-69953600D02*
X100250000Y-69953600D01*
X95650000Y-70103600D02*
X100250000Y-70103600D01*
X95650000Y-70253600D02*
X100250000Y-70253600D01*
X95650000Y-70403600D02*
X100200000Y-70403600D01*
X95680000Y-68003600D02*
X100000000Y-68003600D01*
X95730000Y-67853600D02*
X99850000Y-67853600D01*
X95810000Y-67703600D02*
X99950000Y-67703600D01*
X95950000Y-67553600D02*
X99920000Y-67553600D01*
X96120000Y-67403600D02*
X99800000Y-67403600D01*
X97075000Y-76853600D02*
X94425000Y-76853600D01*
X97075000Y-76853600D02*
X98075000Y-75853600D01*
X98075000Y-75853600D02*
X98075000Y-73278600D01*
X99250000Y-72103600D02*
X99573113Y-72103600D01*
X99275000Y-67248600D02*
X96625000Y-67248600D01*
X100275000Y-71242396D02*
X100275000Y-68278600D01*
X95625000Y-68248600D02*
G75*
G02*
X96625000Y-67248600I999999J1D01*
G01*
X95632542Y-70253600D02*
G75*
G02*
X94450000Y-72253600I-2282546J2D01*
G01*
X98075000Y-73278600D02*
G75*
G02*
X99250000Y-72103600I1175002J-2D01*
G01*
X99275000Y-67248600D02*
G75*
G02*
X100275000Y-68248600I1J-999999D01*
G01*
X100275000Y-71242396D02*
G75*
G02*
X99573113Y-72103600I-926887J38796D01*
G01*
D12*
X107354686Y-69234815D02*
X107354686Y-70822319D01*
X107354686Y-70822319D02*
X108545314Y-70822319D01*
X107950000Y-69234815D02*
X107950000Y-69036377D01*
X107950000Y-71020757D02*
X107950000Y-70822319D01*
X108545314Y-69234815D02*
X107354686Y-69234815D01*
X108545314Y-70425443D02*
X107354686Y-70425443D01*
X108545314Y-70822319D02*
X108545314Y-69234815D01*
D11*
X107575000Y-51614804D02*
X107575000Y-54578600D01*
X108575000Y-55608600D02*
X111225000Y-55608600D01*
X108600000Y-50753600D02*
X108276887Y-50753600D01*
X109775000Y-47003600D02*
X109775000Y-49578600D01*
X110775000Y-46003600D02*
X109775000Y-47003600D01*
X110775000Y-46003600D02*
X113425000Y-46003600D01*
X111730000Y-55453600D02*
X108050000Y-55453600D01*
X111900000Y-55303600D02*
X107930000Y-55303600D01*
X112040000Y-55153600D02*
X107900000Y-55153600D01*
X112120000Y-55003600D02*
X108000000Y-55003600D01*
X112170000Y-54853600D02*
X107850000Y-54853600D01*
X112200000Y-52453600D02*
X107650000Y-52453600D01*
X112200000Y-52603600D02*
X107600000Y-52603600D01*
X112200000Y-52753600D02*
X107600000Y-52753600D01*
X112200000Y-52903600D02*
X107600000Y-52903600D01*
X112200000Y-53053600D02*
X107600000Y-53053600D01*
X112200000Y-53203600D02*
X107600000Y-53203600D01*
X112200000Y-53353600D02*
X107600000Y-53353600D01*
X112200000Y-53503600D02*
X107600000Y-53503600D01*
X112200000Y-53653600D02*
X107600000Y-53653600D01*
X112200000Y-53803600D02*
X107600000Y-53803600D01*
X112200000Y-53953600D02*
X107600000Y-53953600D01*
X112200000Y-54103600D02*
X107600000Y-54103600D01*
X112200000Y-54253600D02*
X107600000Y-54253600D01*
X112200000Y-54403600D02*
X107600000Y-54403600D01*
X112200000Y-54553600D02*
X107600000Y-54553600D01*
X112210000Y-54703600D02*
X107700000Y-54703600D01*
X112225000Y-52603600D02*
X112225000Y-54578600D01*
X112240000Y-52303600D02*
X107600000Y-52303600D01*
X112250000Y-52003600D02*
X107650000Y-52003600D01*
X112250000Y-52153600D02*
X107600000Y-52153600D01*
X112300000Y-51853600D02*
X107590000Y-51853600D01*
X112400000Y-51703600D02*
X107580000Y-51703600D01*
X112450000Y-51553600D02*
X107600000Y-51553600D01*
X112550000Y-51403600D02*
X107630000Y-51403600D01*
X112650000Y-51253600D02*
X107680000Y-51253600D01*
X112750000Y-51103600D02*
X107760000Y-51103600D01*
X112900000Y-50953600D02*
X107950000Y-50953600D01*
X113050000Y-50803600D02*
X108150000Y-50803600D01*
X113220000Y-50703600D02*
X109100000Y-50703600D01*
X113400000Y-50603600D02*
X109250000Y-50603600D01*
X113400000Y-50603600D02*
X114425000Y-49328600D01*
X113425000Y-46003600D02*
X114425000Y-47003600D01*
X113470000Y-50503600D02*
X109450000Y-50503600D01*
X113550000Y-50403600D02*
X109550000Y-50403600D01*
X113570000Y-46153600D02*
X110640000Y-46153600D01*
X113630000Y-50303600D02*
X109600000Y-50303600D01*
X113650000Y-46253600D02*
X110530000Y-46253600D01*
X113720000Y-50193600D02*
X109650000Y-50203600D01*
X113760000Y-46353600D02*
X110430000Y-46353600D01*
X113820000Y-50053600D02*
X109700000Y-50053600D01*
X113860000Y-46453600D02*
X110330000Y-46453600D01*
X113960000Y-49903600D02*
X109800000Y-49903600D01*
X114020000Y-46603600D02*
X110190000Y-46603600D01*
X114080000Y-49753600D02*
X109800000Y-49753600D01*
X114150000Y-46753600D02*
X110030000Y-46753600D01*
X114190000Y-49603600D02*
X109800000Y-49603600D01*
X114290000Y-46903600D02*
X109900000Y-46903600D01*
X114310000Y-49453600D02*
X109850000Y-49453600D01*
X114400000Y-47053600D02*
X109800000Y-47053600D01*
X114400000Y-47203600D02*
X109800000Y-47203600D01*
X114400000Y-47353600D02*
X109800000Y-47353600D01*
X114400000Y-47503600D02*
X109800000Y-47503600D01*
X114400000Y-47653600D02*
X109800000Y-47653600D01*
X114400000Y-47803600D02*
X109800000Y-47803600D01*
X114400000Y-47953600D02*
X109800000Y-47953600D01*
X114400000Y-48103600D02*
X109800000Y-48103600D01*
X114400000Y-48253600D02*
X109800000Y-48253600D01*
X114400000Y-48403600D02*
X109800000Y-48403600D01*
X114400000Y-48553600D02*
X109800000Y-48553600D01*
X114400000Y-48703600D02*
X109800000Y-48703600D01*
X114400000Y-48853600D02*
X109800000Y-48853600D01*
X114400000Y-49003600D02*
X109800000Y-49003600D01*
X114400000Y-49153600D02*
X109800000Y-49153600D01*
X114400000Y-49303600D02*
X109800000Y-49303600D01*
X114425000Y-47003600D02*
X114425000Y-49328600D01*
X107575000Y-51614804D02*
G75*
G02*
X108276887Y-50753600I926887J-38796D01*
G01*
X108575000Y-55608600D02*
G75*
G02*
X107575000Y-54608600I-1J999999D01*
G01*
X109775000Y-49578600D02*
G75*
G02*
X108600000Y-50753600I-1175002J2D01*
G01*
X112217458Y-52603600D02*
G75*
G02*
X113400000Y-50603600I2282546J-2D01*
G01*
X112225000Y-54608600D02*
G75*
G02*
X111225000Y-55608600I-999999J-1D01*
G01*
D12*
X73154686Y-69334815D02*
X73154686Y-70922319D01*
X73154686Y-70922319D02*
X74345314Y-70922319D01*
X73750000Y-69334815D02*
X73750000Y-69136377D01*
X73750000Y-71120757D02*
X73750000Y-70922319D01*
X74345314Y-69334815D02*
X73154686Y-69334815D01*
X74345314Y-70525443D02*
X73154686Y-70525443D01*
X74345314Y-70922319D02*
X74345314Y-69334815D01*
X99404686Y-51884781D02*
X99404686Y-53472285D01*
X99404686Y-52281657D02*
X100595314Y-52281657D01*
X99404686Y-53472285D02*
X100595314Y-53472285D01*
X100000000Y-51686343D02*
X100000000Y-51884781D01*
X100000000Y-53472285D02*
X100000000Y-53670723D01*
X100595314Y-51884781D02*
X99404686Y-51884781D01*
X100595314Y-53472285D02*
X100595314Y-51884781D01*
X82504686Y-51884781D02*
X82504686Y-53472285D01*
X82504686Y-52281657D02*
X83695314Y-52281657D01*
X82504686Y-53472285D02*
X83695314Y-53472285D01*
X83100000Y-51686343D02*
X83100000Y-51884781D01*
X83100000Y-53472285D02*
X83100000Y-53670723D01*
X83695314Y-51884781D02*
X82504686Y-51884781D01*
X83695314Y-53472285D02*
X83695314Y-51884781D01*
D11*
X73575000Y-51614804D02*
X73575000Y-54578600D01*
X74575000Y-55608600D02*
X77225000Y-55608600D01*
X74600000Y-50753600D02*
X74276887Y-50753600D01*
X75775000Y-47003600D02*
X75775000Y-49578600D01*
X76775000Y-46003600D02*
X75775000Y-47003600D01*
X76775000Y-46003600D02*
X79425000Y-46003600D01*
X77730000Y-55453600D02*
X74050000Y-55453600D01*
X77900000Y-55303600D02*
X73930000Y-55303600D01*
X78040000Y-55153600D02*
X73900000Y-55153600D01*
X78120000Y-55003600D02*
X74000000Y-55003600D01*
X78170000Y-54853600D02*
X73850000Y-54853600D01*
X78200000Y-52453600D02*
X73650000Y-52453600D01*
X78200000Y-52603600D02*
X73600000Y-52603600D01*
X78200000Y-52753600D02*
X73600000Y-52753600D01*
X78200000Y-52903600D02*
X73600000Y-52903600D01*
X78200000Y-53053600D02*
X73600000Y-53053600D01*
X78200000Y-53203600D02*
X73600000Y-53203600D01*
X78200000Y-53353600D02*
X73600000Y-53353600D01*
X78200000Y-53503600D02*
X73600000Y-53503600D01*
X78200000Y-53653600D02*
X73600000Y-53653600D01*
X78200000Y-53803600D02*
X73600000Y-53803600D01*
X78200000Y-53953600D02*
X73600000Y-53953600D01*
X78200000Y-54103600D02*
X73600000Y-54103600D01*
X78200000Y-54253600D02*
X73600000Y-54253600D01*
X78200000Y-54403600D02*
X73600000Y-54403600D01*
X78200000Y-54553600D02*
X73600000Y-54553600D01*
X78210000Y-54703600D02*
X73700000Y-54703600D01*
X78225000Y-52603600D02*
X78225000Y-54578600D01*
X78240000Y-52303600D02*
X73600000Y-52303600D01*
X78250000Y-52003600D02*
X73650000Y-52003600D01*
X78250000Y-52153600D02*
X73600000Y-52153600D01*
X78300000Y-51853600D02*
X73590000Y-51853600D01*
X78400000Y-51703600D02*
X73580000Y-51703600D01*
X78450000Y-51553600D02*
X73600000Y-51553600D01*
X78550000Y-51403600D02*
X73630000Y-51403600D01*
X78650000Y-51253600D02*
X73680000Y-51253600D01*
X78750000Y-51103600D02*
X73760000Y-51103600D01*
X78900000Y-50953600D02*
X73950000Y-50953600D01*
X79050000Y-50803600D02*
X74150000Y-50803600D01*
X79220000Y-50703600D02*
X75100000Y-50703600D01*
X79400000Y-50603600D02*
X75250000Y-50603600D01*
X79400000Y-50603600D02*
X80425000Y-49328600D01*
X79425000Y-46003600D02*
X80425000Y-47003600D01*
X79470000Y-50503600D02*
X75450000Y-50503600D01*
X79550000Y-50403600D02*
X75550000Y-50403600D01*
X79570000Y-46153600D02*
X76640000Y-46153600D01*
X79630000Y-50303600D02*
X75600000Y-50303600D01*
X79650000Y-46253600D02*
X76530000Y-46253600D01*
X79720000Y-50193600D02*
X75650000Y-50203600D01*
X79760000Y-46353600D02*
X76430000Y-46353600D01*
X79820000Y-50053600D02*
X75700000Y-50053600D01*
X79860000Y-46453600D02*
X76330000Y-46453600D01*
X79960000Y-49903600D02*
X75800000Y-49903600D01*
X80020000Y-46603600D02*
X76190000Y-46603600D01*
X80080000Y-49753600D02*
X75800000Y-49753600D01*
X80150000Y-46753600D02*
X76030000Y-46753600D01*
X80190000Y-49603600D02*
X75800000Y-49603600D01*
X80290000Y-46903600D02*
X75900000Y-46903600D01*
X80310000Y-49453600D02*
X75850000Y-49453600D01*
X80400000Y-47053600D02*
X75800000Y-47053600D01*
X80400000Y-47203600D02*
X75800000Y-47203600D01*
X80400000Y-47353600D02*
X75800000Y-47353600D01*
X80400000Y-47503600D02*
X75800000Y-47503600D01*
X80400000Y-47653600D02*
X75800000Y-47653600D01*
X80400000Y-47803600D02*
X75800000Y-47803600D01*
X80400000Y-47953600D02*
X75800000Y-47953600D01*
X80400000Y-48103600D02*
X75800000Y-48103600D01*
X80400000Y-48253600D02*
X75800000Y-48253600D01*
X80400000Y-48403600D02*
X75800000Y-48403600D01*
X80400000Y-48553600D02*
X75800000Y-48553600D01*
X80400000Y-48703600D02*
X75800000Y-48703600D01*
X80400000Y-48853600D02*
X75800000Y-48853600D01*
X80400000Y-49003600D02*
X75800000Y-49003600D01*
X80400000Y-49153600D02*
X75800000Y-49153600D01*
X80400000Y-49303600D02*
X75800000Y-49303600D01*
X80425000Y-47003600D02*
X80425000Y-49328600D01*
X73575000Y-51614804D02*
G75*
G02*
X74276887Y-50753600I926887J-38796D01*
G01*
X74575000Y-55608600D02*
G75*
G02*
X73575000Y-54608600I-1J999999D01*
G01*
X75775000Y-49578600D02*
G75*
G02*
X74600000Y-50753600I-1175002J2D01*
G01*
X78217458Y-52603600D02*
G75*
G02*
X79400000Y-50603600I2282546J-2D01*
G01*
X78225000Y-54608600D02*
G75*
G02*
X77225000Y-55608600I-999999J-1D01*
G01*
X90575000Y-51614804D02*
X90575000Y-54578600D01*
X91575000Y-55608600D02*
X94225000Y-55608600D01*
X91600000Y-50753600D02*
X91276887Y-50753600D01*
X92775000Y-47003600D02*
X92775000Y-49578600D01*
X93775000Y-46003600D02*
X92775000Y-47003600D01*
X93775000Y-46003600D02*
X96425000Y-46003600D01*
X94730000Y-55453600D02*
X91050000Y-55453600D01*
X94900000Y-55303600D02*
X90930000Y-55303600D01*
X95040000Y-55153600D02*
X90900000Y-55153600D01*
X95120000Y-55003600D02*
X91000000Y-55003600D01*
X95170000Y-54853600D02*
X90850000Y-54853600D01*
X95200000Y-52453600D02*
X90650000Y-52453600D01*
X95200000Y-52603600D02*
X90600000Y-52603600D01*
X95200000Y-52753600D02*
X90600000Y-52753600D01*
X95200000Y-52903600D02*
X90600000Y-52903600D01*
X95200000Y-53053600D02*
X90600000Y-53053600D01*
X95200000Y-53203600D02*
X90600000Y-53203600D01*
X95200000Y-53353600D02*
X90600000Y-53353600D01*
X95200000Y-53503600D02*
X90600000Y-53503600D01*
X95200000Y-53653600D02*
X90600000Y-53653600D01*
X95200000Y-53803600D02*
X90600000Y-53803600D01*
X95200000Y-53953600D02*
X90600000Y-53953600D01*
X95200000Y-54103600D02*
X90600000Y-54103600D01*
X95200000Y-54253600D02*
X90600000Y-54253600D01*
X95200000Y-54403600D02*
X90600000Y-54403600D01*
X95200000Y-54553600D02*
X90600000Y-54553600D01*
X95210000Y-54703600D02*
X90700000Y-54703600D01*
X95225000Y-52603600D02*
X95225000Y-54578600D01*
X95240000Y-52303600D02*
X90600000Y-52303600D01*
X95250000Y-52003600D02*
X90650000Y-52003600D01*
X95250000Y-52153600D02*
X90600000Y-52153600D01*
X95300000Y-51853600D02*
X90590000Y-51853600D01*
X95400000Y-51703600D02*
X90580000Y-51703600D01*
X95450000Y-51553600D02*
X90600000Y-51553600D01*
X95550000Y-51403600D02*
X90630000Y-51403600D01*
X95650000Y-51253600D02*
X90680000Y-51253600D01*
X95750000Y-51103600D02*
X90760000Y-51103600D01*
X95900000Y-50953600D02*
X90950000Y-50953600D01*
X96050000Y-50803600D02*
X91150000Y-50803600D01*
X96220000Y-50703600D02*
X92100000Y-50703600D01*
X96400000Y-50603600D02*
X92250000Y-50603600D01*
X96400000Y-50603600D02*
X97425000Y-49328600D01*
X96425000Y-46003600D02*
X97425000Y-47003600D01*
X96470000Y-50503600D02*
X92450000Y-50503600D01*
X96550000Y-50403600D02*
X92550000Y-50403600D01*
X96570000Y-46153600D02*
X93640000Y-46153600D01*
X96630000Y-50303600D02*
X92600000Y-50303600D01*
X96650000Y-46253600D02*
X93530000Y-46253600D01*
X96720000Y-50193600D02*
X92650000Y-50203600D01*
X96760000Y-46353600D02*
X93430000Y-46353600D01*
X96820000Y-50053600D02*
X92700000Y-50053600D01*
X96860000Y-46453600D02*
X93330000Y-46453600D01*
X96960000Y-49903600D02*
X92800000Y-49903600D01*
X97020000Y-46603600D02*
X93190000Y-46603600D01*
X97080000Y-49753600D02*
X92800000Y-49753600D01*
X97150000Y-46753600D02*
X93030000Y-46753600D01*
X97190000Y-49603600D02*
X92800000Y-49603600D01*
X97290000Y-46903600D02*
X92900000Y-46903600D01*
X97310000Y-49453600D02*
X92850000Y-49453600D01*
X97400000Y-47053600D02*
X92800000Y-47053600D01*
X97400000Y-47203600D02*
X92800000Y-47203600D01*
X97400000Y-47353600D02*
X92800000Y-47353600D01*
X97400000Y-47503600D02*
X92800000Y-47503600D01*
X97400000Y-47653600D02*
X92800000Y-47653600D01*
X97400000Y-47803600D02*
X92800000Y-47803600D01*
X97400000Y-47953600D02*
X92800000Y-47953600D01*
X97400000Y-48103600D02*
X92800000Y-48103600D01*
X97400000Y-48253600D02*
X92800000Y-48253600D01*
X97400000Y-48403600D02*
X92800000Y-48403600D01*
X97400000Y-48553600D02*
X92800000Y-48553600D01*
X97400000Y-48703600D02*
X92800000Y-48703600D01*
X97400000Y-48853600D02*
X92800000Y-48853600D01*
X97400000Y-49003600D02*
X92800000Y-49003600D01*
X97400000Y-49153600D02*
X92800000Y-49153600D01*
X97400000Y-49303600D02*
X92800000Y-49303600D01*
X97425000Y-47003600D02*
X97425000Y-49328600D01*
X90575000Y-51614804D02*
G75*
G02*
X91276887Y-50753600I926887J-38796D01*
G01*
X91575000Y-55608600D02*
G75*
G02*
X90575000Y-54608600I-1J999999D01*
G01*
X92775000Y-49578600D02*
G75*
G02*
X91600000Y-50753600I-1175002J2D01*
G01*
X95217458Y-52603600D02*
G75*
G02*
X96400000Y-50603600I2282546J-2D01*
G01*
X95225000Y-54608600D02*
G75*
G02*
X94225000Y-55608600I-999999J-1D01*
G01*
D12*
X90154686Y-69434815D02*
X90154686Y-71022319D01*
X90154686Y-71022319D02*
X91345314Y-71022319D01*
X90750000Y-69434815D02*
X90750000Y-69236377D01*
X90750000Y-71220757D02*
X90750000Y-71022319D01*
X91345314Y-69434815D02*
X90154686Y-69434815D01*
X91345314Y-70625443D02*
X90154686Y-70625443D01*
X91345314Y-71022319D02*
X91345314Y-69434815D01*
X65504686Y-51884781D02*
X65504686Y-53472285D01*
X65504686Y-52281657D02*
X66695314Y-52281657D01*
X65504686Y-53472285D02*
X66695314Y-53472285D01*
X66100000Y-51686343D02*
X66100000Y-51884781D01*
X66100000Y-53472285D02*
X66100000Y-53670723D01*
X66695314Y-51884781D02*
X65504686Y-51884781D01*
X66695314Y-53472285D02*
X66695314Y-51884781D01*
M02*
