%TF.GenerationSoftware,KiCad,Pcbnew,9.0.0*%
%TF.CreationDate,2025-03-20T15:24:29+09:00*%
%TF.ProjectId,nofy,6e6f6679-2e6b-4696-9361-645f70636258,rev?*%
%TF.SameCoordinates,Original*%
%TF.FileFunction,Drillmap*%
%TF.FilePolarity,Positive*%
%FSLAX45Y45*%
G04 Gerber Fmt 4.5, Leading zero omitted, Abs format (unit mm)*
G04 Created by KiCad (PCBNEW 9.0.0) date 2025-03-20 15:24:29*
%MOMM*%
%LPD*%
G01*
G04 APERTURE LIST*
%ADD10C,0.050000*%
%ADD11C,0.120000*%
%ADD12C,0.100000*%
%ADD13C,0.200000*%
%ADD14C,0.300000*%
%ADD15C,0.320000*%
%ADD16C,0.480000*%
G04 APERTURE END LIST*
D10*
X7360000Y-5800000D02*
X11350000Y-5800711D01*
X3560000Y-10695000D02*
G75*
G02*
X3660000Y-10595000I100000J0D01*
G01*
X2141066Y-2551421D02*
G75*
G02*
X2241066Y-2451416I100004J1D01*
G01*
X6490000Y-5800000D02*
X6590000Y-5800000D01*
X5799645Y-5700000D02*
G75*
G02*
X5699645Y-5800005I-100005J0D01*
G01*
X2140000Y-6585000D02*
G75*
G02*
X2240000Y-6485000I100000J0D01*
G01*
X2560000Y-9985000D02*
X2240000Y-9985000D01*
X10995000Y-8185356D02*
G75*
G02*
X10895000Y-8285360I-100000J-4D01*
G01*
X7360000Y-6040000D02*
X7360000Y-6245000D01*
X10895000Y-6485711D02*
X7360000Y-6485000D01*
X3439645Y-2451421D02*
G75*
G02*
X3539639Y-2551421I-5J-99999D01*
G01*
X3539645Y-2570711D02*
X3539644Y-2551421D01*
X6035000Y-8285355D02*
G75*
G02*
X5935005Y-8185355I0J99995D01*
G01*
X11450000Y-5700711D02*
G75*
G02*
X11350000Y-5800710I-100000J1D01*
G01*
X10995000Y-8185356D02*
X10995000Y-6585711D01*
X11350000Y-4000355D02*
G75*
G02*
X11450005Y-4100355I0J-100005D01*
G01*
X5660355Y-3280711D02*
X5700355Y-3280711D01*
X2240000Y-9985000D02*
G75*
G02*
X2140000Y-9885000I0J100000D01*
G01*
X2241065Y-2451421D02*
X3439645Y-2451421D01*
X5935000Y-8185355D02*
X5935000Y-6585000D01*
X6490000Y-5800000D02*
G75*
G02*
X6390000Y-5700000I0J100000D01*
G01*
X10895000Y-6485711D02*
G75*
G02*
X10994999Y-6585711I0J-99999D01*
G01*
X3639645Y-2670711D02*
X5460355Y-2670711D01*
X2760000Y-10815000D02*
G75*
G02*
X2660000Y-10715000I0J100000D01*
G01*
X5460355Y-2671421D02*
G75*
G02*
X5560359Y-2771421I5J-99999D01*
G01*
X3639644Y-2670711D02*
G75*
G02*
X3539639Y-2570711I-5J100001D01*
G01*
X4815000Y-6245000D02*
X6590000Y-6245000D01*
X4815000Y-6040000D02*
X6590000Y-6040000D01*
X6390000Y-4100355D02*
X6390000Y-5700000D01*
X2240355Y-5800000D02*
X4045000Y-5800000D01*
X2140000Y-9885000D02*
X2140000Y-6585000D01*
X6035000Y-6485000D02*
X6590000Y-6485000D01*
X5690000Y-6485000D02*
G75*
G02*
X5790000Y-6585000I0J-100000D01*
G01*
X3560000Y-10715000D02*
G75*
G02*
X3460000Y-10815000I-100000J0D01*
G01*
X10895000Y-8285356D02*
X6035000Y-8285355D01*
X4815000Y-6485000D02*
X5690000Y-6485000D01*
X3660000Y-10595000D02*
X5690000Y-10595000D01*
X5560355Y-2771421D02*
X5560355Y-3180711D01*
X2560000Y-9985000D02*
G75*
G02*
X2660000Y-10085000I0J-100000D01*
G01*
X6490000Y-4000355D02*
X11350000Y-4000355D01*
X5700355Y-3280711D02*
G75*
G02*
X5800359Y-3380711I5J-99999D01*
G01*
X5660355Y-3280711D02*
G75*
G02*
X5560359Y-3180711I5J100001D01*
G01*
X3460000Y-10815000D02*
X2760000Y-10815000D01*
X5790000Y-10495000D02*
G75*
G02*
X5690000Y-10595000I-100000J0D01*
G01*
X5935000Y-6585000D02*
G75*
G02*
X6035000Y-6485000I100000J0D01*
G01*
X2240000Y-6485000D02*
X4045000Y-6485000D01*
X5790000Y-6585000D02*
X5790000Y-10495000D01*
X2240355Y-5800000D02*
G75*
G02*
X2140360Y-5700000I5J100000D01*
G01*
X6390000Y-4100355D02*
G75*
G02*
X6490000Y-4000350I100000J5D01*
G01*
X2140355Y-5700000D02*
X2141066Y-2551421D01*
X5699645Y-5800000D02*
X4815000Y-5800000D01*
X4045000Y-6040000D02*
X4045000Y-6245000D01*
X5800355Y-3380711D02*
X5799644Y-5700000D01*
X2660000Y-10715000D02*
X2660000Y-10085000D01*
X3560000Y-10715000D02*
X3560000Y-10695000D01*
X11450000Y-4100355D02*
X11450000Y-5700711D01*
D11*
X3989975Y-8815325D02*
X3989975Y-8655305D01*
X4058555Y-8586725D02*
X4162695Y-8586725D01*
X4193175Y-8853425D02*
X4028075Y-8853425D01*
X4231275Y-8655305D02*
X4231275Y-8815325D01*
X4792575Y-9754175D02*
X4792575Y-9589075D01*
X4830675Y-9550975D02*
X4990695Y-9550975D01*
X4990695Y-9792275D02*
X4830675Y-9792275D01*
X5059275Y-9619555D02*
X5059275Y-9723695D01*
X4028075Y-8853425D02*
G75*
G02*
X3989975Y-8815325I0J38100D01*
G01*
X4058555Y-8586725D02*
G75*
G02*
X3989975Y-8655305I-43805J-24775D01*
G01*
X4231275Y-8655305D02*
G75*
G02*
X4162695Y-8586725I-24775J43805D01*
G01*
X4231275Y-8815325D02*
G75*
G02*
X4193175Y-8853424I-38099J0D01*
G01*
X4792575Y-9589075D02*
G75*
G02*
X4830675Y-9550975I38100J0D01*
G01*
X4830675Y-9792275D02*
G75*
G02*
X4792575Y-9754175I-1J38099D01*
G01*
X4990695Y-9792275D02*
G75*
G02*
X5059275Y-9723695I43805J24775D01*
G01*
X5059275Y-9619555D02*
G75*
G02*
X4990695Y-9550975I-24775J43805D01*
G01*
D12*
X6590000Y-6245000D02*
G75*
G02*
X6590000Y-6485000I0J-120000D01*
G01*
X7360000Y-6485000D02*
G75*
G02*
X7360000Y-6245000I0J120000D01*
G01*
X4045000Y-5800000D02*
G75*
G02*
X4045000Y-6040000I0J-120000D01*
G01*
X4815000Y-6040000D02*
G75*
G02*
X4815000Y-5800000I0J120000D01*
G01*
D11*
X4119585Y-3650055D02*
X4119585Y-3545915D01*
X4188165Y-3477335D02*
X4348185Y-3477335D01*
X4348185Y-3718635D02*
X4188165Y-3718635D01*
X4386285Y-3515435D02*
X4386285Y-3680535D01*
X4947585Y-4614305D02*
X4947585Y-4454285D01*
X4985685Y-4416185D02*
X5150785Y-4416185D01*
X5120305Y-4682885D02*
X5016165Y-4682885D01*
X5188885Y-4454285D02*
X5188885Y-4614305D01*
X4119585Y-3650055D02*
G75*
G02*
X4188165Y-3718635I24775J-43805D01*
G01*
X4188165Y-3477335D02*
G75*
G02*
X4119585Y-3545915I-43805J-24775D01*
G01*
X4348185Y-3477335D02*
G75*
G02*
X4386285Y-3515435I1J-38099D01*
G01*
X4386285Y-3680535D02*
G75*
G02*
X4348185Y-3718635I-38100J0D01*
G01*
X4947585Y-4454285D02*
G75*
G02*
X4985685Y-4416186I38099J0D01*
G01*
X4947585Y-4614305D02*
G75*
G02*
X5016165Y-4682885I24775J-43805D01*
G01*
X5120305Y-4682885D02*
G75*
G02*
X5188885Y-4614305I43805J24775D01*
G01*
X5150785Y-4416185D02*
G75*
G02*
X5188885Y-4454285I0J-38100D01*
G01*
D12*
X6590000Y-5800000D02*
G75*
G02*
X6590000Y-6040000I0J-120000D01*
G01*
X7360000Y-6040000D02*
G75*
G02*
X7360000Y-5800000I0J120000D01*
G01*
X4045000Y-6245000D02*
G75*
G02*
X4045000Y-6485000I0J-120000D01*
G01*
X4815000Y-6485000D02*
G75*
G02*
X4815000Y-6245000I0J120000D01*
G01*
D13*
D12*
X4155000Y-5805000D02*
X4255000Y-5905000D01*
X4255000Y-5805000D02*
X4155000Y-5905000D01*
X4155000Y-5935000D02*
X4255000Y-6035000D01*
X4255000Y-5935000D02*
X4155000Y-6035000D01*
X4155000Y-6250000D02*
X4255000Y-6350000D01*
X4255000Y-6250000D02*
X4155000Y-6350000D01*
X4155000Y-6380000D02*
X4255000Y-6480000D01*
X4255000Y-6380000D02*
X4155000Y-6480000D01*
X4305000Y-5805000D02*
X4405000Y-5905000D01*
X4405000Y-5805000D02*
X4305000Y-5905000D01*
X4305000Y-5935000D02*
X4405000Y-6035000D01*
X4405000Y-5935000D02*
X4305000Y-6035000D01*
X4305000Y-6250000D02*
X4405000Y-6350000D01*
X4405000Y-6250000D02*
X4305000Y-6350000D01*
X4305000Y-6380000D02*
X4405000Y-6480000D01*
X4405000Y-6380000D02*
X4305000Y-6480000D01*
X4455000Y-5805000D02*
X4555000Y-5905000D01*
X4555000Y-5805000D02*
X4455000Y-5905000D01*
X4455000Y-5935000D02*
X4555000Y-6035000D01*
X4555000Y-5935000D02*
X4455000Y-6035000D01*
X4455000Y-6250000D02*
X4555000Y-6350000D01*
X4555000Y-6250000D02*
X4455000Y-6350000D01*
X4455000Y-6380000D02*
X4555000Y-6480000D01*
X4555000Y-6380000D02*
X4455000Y-6480000D01*
X4605000Y-5805000D02*
X4705000Y-5905000D01*
X4705000Y-5805000D02*
X4605000Y-5905000D01*
X4605000Y-5935000D02*
X4705000Y-6035000D01*
X4705000Y-5935000D02*
X4605000Y-6035000D01*
X4605000Y-6250000D02*
X4705000Y-6350000D01*
X4705000Y-6250000D02*
X4605000Y-6350000D01*
X4605000Y-6380000D02*
X4705000Y-6480000D01*
X4705000Y-6380000D02*
X4605000Y-6480000D01*
X6615000Y-4280360D02*
X6715000Y-4380360D01*
X6715000Y-4280360D02*
X6615000Y-4380360D01*
X6700000Y-5805000D02*
X6800000Y-5905000D01*
X6800000Y-5805000D02*
X6700000Y-5905000D01*
X6700000Y-5935000D02*
X6800000Y-6035000D01*
X6800000Y-5935000D02*
X6700000Y-6035000D01*
X6700000Y-6250000D02*
X6800000Y-6350000D01*
X6800000Y-6250000D02*
X6700000Y-6350000D01*
X6700000Y-6380000D02*
X6800000Y-6480000D01*
X6800000Y-6380000D02*
X6700000Y-6480000D01*
X6850000Y-5805000D02*
X6950000Y-5905000D01*
X6950000Y-5805000D02*
X6850000Y-5905000D01*
X6850000Y-5935000D02*
X6950000Y-6035000D01*
X6950000Y-5935000D02*
X6850000Y-6035000D01*
X6850000Y-6250000D02*
X6950000Y-6350000D01*
X6950000Y-6250000D02*
X6850000Y-6350000D01*
X6850000Y-6380000D02*
X6950000Y-6480000D01*
X6950000Y-6380000D02*
X6850000Y-6480000D01*
X7000000Y-5805000D02*
X7100000Y-5905000D01*
X7100000Y-5805000D02*
X7000000Y-5905000D01*
X7000000Y-5935000D02*
X7100000Y-6035000D01*
X7100000Y-5935000D02*
X7000000Y-6035000D01*
X7000000Y-6250000D02*
X7100000Y-6350000D01*
X7100000Y-6250000D02*
X7000000Y-6350000D01*
X7000000Y-6380000D02*
X7100000Y-6480000D01*
X7100000Y-6380000D02*
X7000000Y-6480000D01*
X7150000Y-5805000D02*
X7250000Y-5905000D01*
X7250000Y-5805000D02*
X7150000Y-5905000D01*
X7150000Y-5935000D02*
X7250000Y-6035000D01*
X7250000Y-5935000D02*
X7150000Y-6035000D01*
X7150000Y-6250000D02*
X7250000Y-6350000D01*
X7250000Y-6250000D02*
X7150000Y-6350000D01*
X7150000Y-6380000D02*
X7250000Y-6480000D01*
X7250000Y-6380000D02*
X7150000Y-6480000D01*
X7270000Y-7905360D02*
X7370000Y-8005360D01*
X7370000Y-7905360D02*
X7270000Y-8005360D01*
X8315000Y-4280360D02*
X8415000Y-4380360D01*
X8415000Y-4280360D02*
X8315000Y-4380360D01*
X8970000Y-7905360D02*
X9070000Y-8005360D01*
X9070000Y-7905360D02*
X8970000Y-8005360D01*
X10015000Y-4280360D02*
X10115000Y-4380360D01*
X10115000Y-4280360D02*
X10015000Y-4380360D01*
X10670000Y-7905360D02*
X10770000Y-8005360D01*
X10770000Y-7905360D02*
X10670000Y-8005360D01*
D14*
X6325000Y-7455360D02*
G75*
G02*
X6025000Y-7455360I-150000J0D01*
G01*
X6025000Y-7455360D02*
G75*
G02*
X6325000Y-7455360I150000J0D01*
G01*
X6545000Y-6955360D02*
G75*
G02*
X6245000Y-6955360I-150000J0D01*
G01*
X6245000Y-6955360D02*
G75*
G02*
X6545000Y-6955360I150000J0D01*
G01*
X7740000Y-5330360D02*
G75*
G02*
X7440000Y-5330360I-150000J0D01*
G01*
X7440000Y-5330360D02*
G75*
G02*
X7740000Y-5330360I150000J0D01*
G01*
X7960000Y-4830360D02*
G75*
G02*
X7660000Y-4830360I-150000J0D01*
G01*
X7660000Y-4830360D02*
G75*
G02*
X7960000Y-4830360I150000J0D01*
G01*
X8025000Y-7455360D02*
G75*
G02*
X7725000Y-7455360I-150000J0D01*
G01*
X7725000Y-7455360D02*
G75*
G02*
X8025000Y-7455360I150000J0D01*
G01*
X8245000Y-6955360D02*
G75*
G02*
X7945000Y-6955360I-150000J0D01*
G01*
X7945000Y-6955360D02*
G75*
G02*
X8245000Y-6955360I150000J0D01*
G01*
X9440000Y-5330360D02*
G75*
G02*
X9140000Y-5330360I-150000J0D01*
G01*
X9140000Y-5330360D02*
G75*
G02*
X9440000Y-5330360I150000J0D01*
G01*
X9660000Y-4830360D02*
G75*
G02*
X9360000Y-4830360I-150000J0D01*
G01*
X9360000Y-4830360D02*
G75*
G02*
X9660000Y-4830360I150000J0D01*
G01*
X9725000Y-7455360D02*
G75*
G02*
X9425000Y-7455360I-150000J0D01*
G01*
X9425000Y-7455360D02*
G75*
G02*
X9725000Y-7455360I150000J0D01*
G01*
X9945000Y-6955360D02*
G75*
G02*
X9645000Y-6955360I-150000J0D01*
G01*
X9645000Y-6955360D02*
G75*
G02*
X9945000Y-6955360I150000J0D01*
G01*
X11140000Y-5330360D02*
G75*
G02*
X10840000Y-5330360I-150000J0D01*
G01*
X10840000Y-5330360D02*
G75*
G02*
X11140000Y-5330360I150000J0D01*
G01*
X11360000Y-4830360D02*
G75*
G02*
X11060000Y-4830360I-150000J0D01*
G01*
X11060000Y-4830360D02*
G75*
G02*
X11360000Y-4830360I150000J0D01*
G01*
D15*
X4010000Y-7045000D02*
X4010000Y-7365000D01*
X3850000Y-7205000D02*
X4170000Y-7205000D01*
X7615000Y-6505360D02*
X7615000Y-6825360D01*
X7455000Y-6665360D02*
X7775000Y-6665360D01*
X9770000Y-5460360D02*
X9770000Y-5780360D01*
X9610000Y-5620360D02*
X9930000Y-5620360D01*
D16*
X6934707Y-7625067D02*
X6934707Y-7285653D01*
X6595293Y-7285653D01*
X6595293Y-7625067D01*
X6934707Y-7625067D01*
X7389707Y-5000067D02*
X7389707Y-4660653D01*
X7050293Y-4660653D01*
X7050293Y-5000067D01*
X7389707Y-5000067D01*
X8634707Y-7625067D02*
X8634707Y-7285653D01*
X8295293Y-7285653D01*
X8295293Y-7625067D01*
X8634707Y-7625067D01*
X9089707Y-5000067D02*
X9089707Y-4660653D01*
X8750293Y-4660653D01*
X8750293Y-5000067D01*
X9089707Y-5000067D01*
X10334707Y-7625067D02*
X10334707Y-7285653D01*
X9995293Y-7285653D01*
X9995293Y-7625067D01*
X10334707Y-7625067D01*
X10789707Y-5000067D02*
X10789707Y-4660653D01*
X10450293Y-4660653D01*
X10450293Y-5000067D01*
X10789707Y-5000067D01*
D13*
X2398277Y-11128984D02*
X2398277Y-10928984D01*
X2398277Y-10928984D02*
X2445896Y-10928984D01*
X2445896Y-10928984D02*
X2474467Y-10938508D01*
X2474467Y-10938508D02*
X2493515Y-10957555D01*
X2493515Y-10957555D02*
X2503039Y-10976603D01*
X2503039Y-10976603D02*
X2512563Y-11014698D01*
X2512563Y-11014698D02*
X2512563Y-11043270D01*
X2512563Y-11043270D02*
X2503039Y-11081365D01*
X2503039Y-11081365D02*
X2493515Y-11100412D01*
X2493515Y-11100412D02*
X2474467Y-11119460D01*
X2474467Y-11119460D02*
X2445896Y-11128984D01*
X2445896Y-11128984D02*
X2398277Y-11128984D01*
X2598277Y-11128984D02*
X2598277Y-10995650D01*
X2598277Y-11033746D02*
X2607801Y-11014698D01*
X2607801Y-11014698D02*
X2617324Y-11005174D01*
X2617324Y-11005174D02*
X2636372Y-10995650D01*
X2636372Y-10995650D02*
X2655420Y-10995650D01*
X2722086Y-11128984D02*
X2722086Y-10995650D01*
X2722086Y-10928984D02*
X2712563Y-10938508D01*
X2712563Y-10938508D02*
X2722086Y-10948031D01*
X2722086Y-10948031D02*
X2731610Y-10938508D01*
X2731610Y-10938508D02*
X2722086Y-10928984D01*
X2722086Y-10928984D02*
X2722086Y-10948031D01*
X2845896Y-11128984D02*
X2826848Y-11119460D01*
X2826848Y-11119460D02*
X2817324Y-11100412D01*
X2817324Y-11100412D02*
X2817324Y-10928984D01*
X2950658Y-11128984D02*
X2931610Y-11119460D01*
X2931610Y-11119460D02*
X2922086Y-11100412D01*
X2922086Y-11100412D02*
X2922086Y-10928984D01*
X3179229Y-11128984D02*
X3179229Y-10928984D01*
X3179229Y-10928984D02*
X3245896Y-11071841D01*
X3245896Y-11071841D02*
X3312562Y-10928984D01*
X3312562Y-10928984D02*
X3312562Y-11128984D01*
X3493515Y-11128984D02*
X3493515Y-11024222D01*
X3493515Y-11024222D02*
X3483991Y-11005174D01*
X3483991Y-11005174D02*
X3464943Y-10995650D01*
X3464943Y-10995650D02*
X3426848Y-10995650D01*
X3426848Y-10995650D02*
X3407801Y-11005174D01*
X3493515Y-11119460D02*
X3474467Y-11128984D01*
X3474467Y-11128984D02*
X3426848Y-11128984D01*
X3426848Y-11128984D02*
X3407801Y-11119460D01*
X3407801Y-11119460D02*
X3398277Y-11100412D01*
X3398277Y-11100412D02*
X3398277Y-11081365D01*
X3398277Y-11081365D02*
X3407801Y-11062317D01*
X3407801Y-11062317D02*
X3426848Y-11052793D01*
X3426848Y-11052793D02*
X3474467Y-11052793D01*
X3474467Y-11052793D02*
X3493515Y-11043270D01*
X3588753Y-10995650D02*
X3588753Y-11195650D01*
X3588753Y-11005174D02*
X3607801Y-10995650D01*
X3607801Y-10995650D02*
X3645896Y-10995650D01*
X3645896Y-10995650D02*
X3664943Y-11005174D01*
X3664943Y-11005174D02*
X3674467Y-11014698D01*
X3674467Y-11014698D02*
X3683991Y-11033746D01*
X3683991Y-11033746D02*
X3683991Y-11090889D01*
X3683991Y-11090889D02*
X3674467Y-11109936D01*
X3674467Y-11109936D02*
X3664943Y-11119460D01*
X3664943Y-11119460D02*
X3645896Y-11128984D01*
X3645896Y-11128984D02*
X3607801Y-11128984D01*
X3607801Y-11128984D02*
X3588753Y-11119460D01*
X3769705Y-11109936D02*
X3779229Y-11119460D01*
X3779229Y-11119460D02*
X3769705Y-11128984D01*
X3769705Y-11128984D02*
X3760182Y-11119460D01*
X3760182Y-11119460D02*
X3769705Y-11109936D01*
X3769705Y-11109936D02*
X3769705Y-11128984D01*
X3769705Y-11005174D02*
X3779229Y-11014698D01*
X3779229Y-11014698D02*
X3769705Y-11024222D01*
X3769705Y-11024222D02*
X3760182Y-11014698D01*
X3760182Y-11014698D02*
X3769705Y-11005174D01*
X3769705Y-11005174D02*
X3769705Y-11024222D01*
D12*
X2037500Y-11407500D02*
X2137500Y-11507500D01*
X2137500Y-11407500D02*
X2037500Y-11507500D01*
D13*
X2503039Y-11548984D02*
X2388753Y-11548984D01*
X2445896Y-11548984D02*
X2445896Y-11348984D01*
X2445896Y-11348984D02*
X2426848Y-11377555D01*
X2426848Y-11377555D02*
X2407801Y-11396603D01*
X2407801Y-11396603D02*
X2388753Y-11406127D01*
X2588753Y-11529936D02*
X2598277Y-11539460D01*
X2598277Y-11539460D02*
X2588753Y-11548984D01*
X2588753Y-11548984D02*
X2579229Y-11539460D01*
X2579229Y-11539460D02*
X2588753Y-11529936D01*
X2588753Y-11529936D02*
X2588753Y-11548984D01*
X2722086Y-11348984D02*
X2741134Y-11348984D01*
X2741134Y-11348984D02*
X2760182Y-11358508D01*
X2760182Y-11358508D02*
X2769705Y-11368031D01*
X2769705Y-11368031D02*
X2779229Y-11387079D01*
X2779229Y-11387079D02*
X2788753Y-11425174D01*
X2788753Y-11425174D02*
X2788753Y-11472793D01*
X2788753Y-11472793D02*
X2779229Y-11510888D01*
X2779229Y-11510888D02*
X2769705Y-11529936D01*
X2769705Y-11529936D02*
X2760182Y-11539460D01*
X2760182Y-11539460D02*
X2741134Y-11548984D01*
X2741134Y-11548984D02*
X2722086Y-11548984D01*
X2722086Y-11548984D02*
X2703039Y-11539460D01*
X2703039Y-11539460D02*
X2693515Y-11529936D01*
X2693515Y-11529936D02*
X2683991Y-11510888D01*
X2683991Y-11510888D02*
X2674467Y-11472793D01*
X2674467Y-11472793D02*
X2674467Y-11425174D01*
X2674467Y-11425174D02*
X2683991Y-11387079D01*
X2683991Y-11387079D02*
X2693515Y-11368031D01*
X2693515Y-11368031D02*
X2703039Y-11358508D01*
X2703039Y-11358508D02*
X2722086Y-11348984D01*
X2912562Y-11348984D02*
X2931610Y-11348984D01*
X2931610Y-11348984D02*
X2950658Y-11358508D01*
X2950658Y-11358508D02*
X2960182Y-11368031D01*
X2960182Y-11368031D02*
X2969705Y-11387079D01*
X2969705Y-11387079D02*
X2979229Y-11425174D01*
X2979229Y-11425174D02*
X2979229Y-11472793D01*
X2979229Y-11472793D02*
X2969705Y-11510888D01*
X2969705Y-11510888D02*
X2960182Y-11529936D01*
X2960182Y-11529936D02*
X2950658Y-11539460D01*
X2950658Y-11539460D02*
X2931610Y-11548984D01*
X2931610Y-11548984D02*
X2912562Y-11548984D01*
X2912562Y-11548984D02*
X2893515Y-11539460D01*
X2893515Y-11539460D02*
X2883991Y-11529936D01*
X2883991Y-11529936D02*
X2874467Y-11510888D01*
X2874467Y-11510888D02*
X2864943Y-11472793D01*
X2864943Y-11472793D02*
X2864943Y-11425174D01*
X2864943Y-11425174D02*
X2874467Y-11387079D01*
X2874467Y-11387079D02*
X2883991Y-11368031D01*
X2883991Y-11368031D02*
X2893515Y-11358508D01*
X2893515Y-11358508D02*
X2912562Y-11348984D01*
X3103039Y-11348984D02*
X3122086Y-11348984D01*
X3122086Y-11348984D02*
X3141134Y-11358508D01*
X3141134Y-11358508D02*
X3150658Y-11368031D01*
X3150658Y-11368031D02*
X3160182Y-11387079D01*
X3160182Y-11387079D02*
X3169705Y-11425174D01*
X3169705Y-11425174D02*
X3169705Y-11472793D01*
X3169705Y-11472793D02*
X3160182Y-11510888D01*
X3160182Y-11510888D02*
X3150658Y-11529936D01*
X3150658Y-11529936D02*
X3141134Y-11539460D01*
X3141134Y-11539460D02*
X3122086Y-11548984D01*
X3122086Y-11548984D02*
X3103039Y-11548984D01*
X3103039Y-11548984D02*
X3083991Y-11539460D01*
X3083991Y-11539460D02*
X3074467Y-11529936D01*
X3074467Y-11529936D02*
X3064943Y-11510888D01*
X3064943Y-11510888D02*
X3055420Y-11472793D01*
X3055420Y-11472793D02*
X3055420Y-11425174D01*
X3055420Y-11425174D02*
X3064943Y-11387079D01*
X3064943Y-11387079D02*
X3074467Y-11368031D01*
X3074467Y-11368031D02*
X3083991Y-11358508D01*
X3083991Y-11358508D02*
X3103039Y-11348984D01*
X3255420Y-11548984D02*
X3255420Y-11415650D01*
X3255420Y-11434698D02*
X3264943Y-11425174D01*
X3264943Y-11425174D02*
X3283991Y-11415650D01*
X3283991Y-11415650D02*
X3312563Y-11415650D01*
X3312563Y-11415650D02*
X3331610Y-11425174D01*
X3331610Y-11425174D02*
X3341134Y-11444222D01*
X3341134Y-11444222D02*
X3341134Y-11548984D01*
X3341134Y-11444222D02*
X3350658Y-11425174D01*
X3350658Y-11425174D02*
X3369705Y-11415650D01*
X3369705Y-11415650D02*
X3398277Y-11415650D01*
X3398277Y-11415650D02*
X3417324Y-11425174D01*
X3417324Y-11425174D02*
X3426848Y-11444222D01*
X3426848Y-11444222D02*
X3426848Y-11548984D01*
X3522086Y-11548984D02*
X3522086Y-11415650D01*
X3522086Y-11434698D02*
X3531610Y-11425174D01*
X3531610Y-11425174D02*
X3550658Y-11415650D01*
X3550658Y-11415650D02*
X3579229Y-11415650D01*
X3579229Y-11415650D02*
X3598277Y-11425174D01*
X3598277Y-11425174D02*
X3607801Y-11444222D01*
X3607801Y-11444222D02*
X3607801Y-11548984D01*
X3607801Y-11444222D02*
X3617324Y-11425174D01*
X3617324Y-11425174D02*
X3636372Y-11415650D01*
X3636372Y-11415650D02*
X3664943Y-11415650D01*
X3664943Y-11415650D02*
X3683991Y-11425174D01*
X3683991Y-11425174D02*
X3693515Y-11444222D01*
X3693515Y-11444222D02*
X3693515Y-11548984D01*
X4083991Y-11339460D02*
X3912563Y-11596603D01*
X4341134Y-11348984D02*
X4360182Y-11348984D01*
X4360182Y-11348984D02*
X4379229Y-11358508D01*
X4379229Y-11358508D02*
X4388753Y-11368031D01*
X4388753Y-11368031D02*
X4398277Y-11387079D01*
X4398277Y-11387079D02*
X4407801Y-11425174D01*
X4407801Y-11425174D02*
X4407801Y-11472793D01*
X4407801Y-11472793D02*
X4398277Y-11510888D01*
X4398277Y-11510888D02*
X4388753Y-11529936D01*
X4388753Y-11529936D02*
X4379229Y-11539460D01*
X4379229Y-11539460D02*
X4360182Y-11548984D01*
X4360182Y-11548984D02*
X4341134Y-11548984D01*
X4341134Y-11548984D02*
X4322087Y-11539460D01*
X4322087Y-11539460D02*
X4312563Y-11529936D01*
X4312563Y-11529936D02*
X4303039Y-11510888D01*
X4303039Y-11510888D02*
X4293515Y-11472793D01*
X4293515Y-11472793D02*
X4293515Y-11425174D01*
X4293515Y-11425174D02*
X4303039Y-11387079D01*
X4303039Y-11387079D02*
X4312563Y-11368031D01*
X4312563Y-11368031D02*
X4322087Y-11358508D01*
X4322087Y-11358508D02*
X4341134Y-11348984D01*
X4493515Y-11529936D02*
X4503039Y-11539460D01*
X4503039Y-11539460D02*
X4493515Y-11548984D01*
X4493515Y-11548984D02*
X4483991Y-11539460D01*
X4483991Y-11539460D02*
X4493515Y-11529936D01*
X4493515Y-11529936D02*
X4493515Y-11548984D01*
X4626848Y-11348984D02*
X4645896Y-11348984D01*
X4645896Y-11348984D02*
X4664944Y-11358508D01*
X4664944Y-11358508D02*
X4674468Y-11368031D01*
X4674468Y-11368031D02*
X4683991Y-11387079D01*
X4683991Y-11387079D02*
X4693515Y-11425174D01*
X4693515Y-11425174D02*
X4693515Y-11472793D01*
X4693515Y-11472793D02*
X4683991Y-11510888D01*
X4683991Y-11510888D02*
X4674468Y-11529936D01*
X4674468Y-11529936D02*
X4664944Y-11539460D01*
X4664944Y-11539460D02*
X4645896Y-11548984D01*
X4645896Y-11548984D02*
X4626848Y-11548984D01*
X4626848Y-11548984D02*
X4607801Y-11539460D01*
X4607801Y-11539460D02*
X4598277Y-11529936D01*
X4598277Y-11529936D02*
X4588753Y-11510888D01*
X4588753Y-11510888D02*
X4579229Y-11472793D01*
X4579229Y-11472793D02*
X4579229Y-11425174D01*
X4579229Y-11425174D02*
X4588753Y-11387079D01*
X4588753Y-11387079D02*
X4598277Y-11368031D01*
X4598277Y-11368031D02*
X4607801Y-11358508D01*
X4607801Y-11358508D02*
X4626848Y-11348984D01*
X4760182Y-11348984D02*
X4883991Y-11348984D01*
X4883991Y-11348984D02*
X4817325Y-11425174D01*
X4817325Y-11425174D02*
X4845896Y-11425174D01*
X4845896Y-11425174D02*
X4864944Y-11434698D01*
X4864944Y-11434698D02*
X4874468Y-11444222D01*
X4874468Y-11444222D02*
X4883991Y-11463269D01*
X4883991Y-11463269D02*
X4883991Y-11510888D01*
X4883991Y-11510888D02*
X4874468Y-11529936D01*
X4874468Y-11529936D02*
X4864944Y-11539460D01*
X4864944Y-11539460D02*
X4845896Y-11548984D01*
X4845896Y-11548984D02*
X4788753Y-11548984D01*
X4788753Y-11548984D02*
X4769706Y-11539460D01*
X4769706Y-11539460D02*
X4760182Y-11529936D01*
X4979229Y-11548984D02*
X5017325Y-11548984D01*
X5017325Y-11548984D02*
X5036372Y-11539460D01*
X5036372Y-11539460D02*
X5045896Y-11529936D01*
X5045896Y-11529936D02*
X5064944Y-11501365D01*
X5064944Y-11501365D02*
X5074468Y-11463269D01*
X5074468Y-11463269D02*
X5074468Y-11387079D01*
X5074468Y-11387079D02*
X5064944Y-11368031D01*
X5064944Y-11368031D02*
X5055420Y-11358508D01*
X5055420Y-11358508D02*
X5036372Y-11348984D01*
X5036372Y-11348984D02*
X4998277Y-11348984D01*
X4998277Y-11348984D02*
X4979229Y-11358508D01*
X4979229Y-11358508D02*
X4969706Y-11368031D01*
X4969706Y-11368031D02*
X4960182Y-11387079D01*
X4960182Y-11387079D02*
X4960182Y-11434698D01*
X4960182Y-11434698D02*
X4969706Y-11453746D01*
X4969706Y-11453746D02*
X4979229Y-11463269D01*
X4979229Y-11463269D02*
X4998277Y-11472793D01*
X4998277Y-11472793D02*
X5036372Y-11472793D01*
X5036372Y-11472793D02*
X5055420Y-11463269D01*
X5055420Y-11463269D02*
X5064944Y-11453746D01*
X5064944Y-11453746D02*
X5074468Y-11434698D01*
X5245896Y-11415650D02*
X5245896Y-11548984D01*
X5198277Y-11339460D02*
X5150658Y-11482317D01*
X5150658Y-11482317D02*
X5274468Y-11482317D01*
X5341134Y-11348984D02*
X5341134Y-11387079D01*
X5417325Y-11348984D02*
X5417325Y-11387079D01*
X5712563Y-11625174D02*
X5703039Y-11615650D01*
X5703039Y-11615650D02*
X5683991Y-11587079D01*
X5683991Y-11587079D02*
X5674468Y-11568031D01*
X5674468Y-11568031D02*
X5664944Y-11539460D01*
X5664944Y-11539460D02*
X5655420Y-11491841D01*
X5655420Y-11491841D02*
X5655420Y-11453746D01*
X5655420Y-11453746D02*
X5664944Y-11406127D01*
X5664944Y-11406127D02*
X5674468Y-11377555D01*
X5674468Y-11377555D02*
X5683991Y-11358508D01*
X5683991Y-11358508D02*
X5703039Y-11329936D01*
X5703039Y-11329936D02*
X5712563Y-11320412D01*
X5769706Y-11348984D02*
X5893515Y-11348984D01*
X5893515Y-11348984D02*
X5826848Y-11425174D01*
X5826848Y-11425174D02*
X5855420Y-11425174D01*
X5855420Y-11425174D02*
X5874468Y-11434698D01*
X5874468Y-11434698D02*
X5883991Y-11444222D01*
X5883991Y-11444222D02*
X5893515Y-11463269D01*
X5893515Y-11463269D02*
X5893515Y-11510888D01*
X5893515Y-11510888D02*
X5883991Y-11529936D01*
X5883991Y-11529936D02*
X5874468Y-11539460D01*
X5874468Y-11539460D02*
X5855420Y-11548984D01*
X5855420Y-11548984D02*
X5798277Y-11548984D01*
X5798277Y-11548984D02*
X5779229Y-11539460D01*
X5779229Y-11539460D02*
X5769706Y-11529936D01*
X6007801Y-11434698D02*
X5988753Y-11425174D01*
X5988753Y-11425174D02*
X5979229Y-11415650D01*
X5979229Y-11415650D02*
X5969706Y-11396603D01*
X5969706Y-11396603D02*
X5969706Y-11387079D01*
X5969706Y-11387079D02*
X5979229Y-11368031D01*
X5979229Y-11368031D02*
X5988753Y-11358508D01*
X5988753Y-11358508D02*
X6007801Y-11348984D01*
X6007801Y-11348984D02*
X6045896Y-11348984D01*
X6045896Y-11348984D02*
X6064944Y-11358508D01*
X6064944Y-11358508D02*
X6074468Y-11368031D01*
X6074468Y-11368031D02*
X6083991Y-11387079D01*
X6083991Y-11387079D02*
X6083991Y-11396603D01*
X6083991Y-11396603D02*
X6074468Y-11415650D01*
X6074468Y-11415650D02*
X6064944Y-11425174D01*
X6064944Y-11425174D02*
X6045896Y-11434698D01*
X6045896Y-11434698D02*
X6007801Y-11434698D01*
X6007801Y-11434698D02*
X5988753Y-11444222D01*
X5988753Y-11444222D02*
X5979229Y-11453746D01*
X5979229Y-11453746D02*
X5969706Y-11472793D01*
X5969706Y-11472793D02*
X5969706Y-11510888D01*
X5969706Y-11510888D02*
X5979229Y-11529936D01*
X5979229Y-11529936D02*
X5988753Y-11539460D01*
X5988753Y-11539460D02*
X6007801Y-11548984D01*
X6007801Y-11548984D02*
X6045896Y-11548984D01*
X6045896Y-11548984D02*
X6064944Y-11539460D01*
X6064944Y-11539460D02*
X6074468Y-11529936D01*
X6074468Y-11529936D02*
X6083991Y-11510888D01*
X6083991Y-11510888D02*
X6083991Y-11472793D01*
X6083991Y-11472793D02*
X6074468Y-11453746D01*
X6074468Y-11453746D02*
X6064944Y-11444222D01*
X6064944Y-11444222D02*
X6045896Y-11434698D01*
X6322087Y-11548984D02*
X6322087Y-11348984D01*
X6407801Y-11548984D02*
X6407801Y-11444222D01*
X6407801Y-11444222D02*
X6398277Y-11425174D01*
X6398277Y-11425174D02*
X6379230Y-11415650D01*
X6379230Y-11415650D02*
X6350658Y-11415650D01*
X6350658Y-11415650D02*
X6331610Y-11425174D01*
X6331610Y-11425174D02*
X6322087Y-11434698D01*
X6531610Y-11548984D02*
X6512563Y-11539460D01*
X6512563Y-11539460D02*
X6503039Y-11529936D01*
X6503039Y-11529936D02*
X6493515Y-11510888D01*
X6493515Y-11510888D02*
X6493515Y-11453746D01*
X6493515Y-11453746D02*
X6503039Y-11434698D01*
X6503039Y-11434698D02*
X6512563Y-11425174D01*
X6512563Y-11425174D02*
X6531610Y-11415650D01*
X6531610Y-11415650D02*
X6560182Y-11415650D01*
X6560182Y-11415650D02*
X6579230Y-11425174D01*
X6579230Y-11425174D02*
X6588753Y-11434698D01*
X6588753Y-11434698D02*
X6598277Y-11453746D01*
X6598277Y-11453746D02*
X6598277Y-11510888D01*
X6598277Y-11510888D02*
X6588753Y-11529936D01*
X6588753Y-11529936D02*
X6579230Y-11539460D01*
X6579230Y-11539460D02*
X6560182Y-11548984D01*
X6560182Y-11548984D02*
X6531610Y-11548984D01*
X6712563Y-11548984D02*
X6693515Y-11539460D01*
X6693515Y-11539460D02*
X6683991Y-11520412D01*
X6683991Y-11520412D02*
X6683991Y-11348984D01*
X6864944Y-11539460D02*
X6845896Y-11548984D01*
X6845896Y-11548984D02*
X6807801Y-11548984D01*
X6807801Y-11548984D02*
X6788753Y-11539460D01*
X6788753Y-11539460D02*
X6779230Y-11520412D01*
X6779230Y-11520412D02*
X6779230Y-11444222D01*
X6779230Y-11444222D02*
X6788753Y-11425174D01*
X6788753Y-11425174D02*
X6807801Y-11415650D01*
X6807801Y-11415650D02*
X6845896Y-11415650D01*
X6845896Y-11415650D02*
X6864944Y-11425174D01*
X6864944Y-11425174D02*
X6874468Y-11444222D01*
X6874468Y-11444222D02*
X6874468Y-11463269D01*
X6874468Y-11463269D02*
X6779230Y-11482317D01*
X6950658Y-11539460D02*
X6969706Y-11548984D01*
X6969706Y-11548984D02*
X7007801Y-11548984D01*
X7007801Y-11548984D02*
X7026849Y-11539460D01*
X7026849Y-11539460D02*
X7036372Y-11520412D01*
X7036372Y-11520412D02*
X7036372Y-11510888D01*
X7036372Y-11510888D02*
X7026849Y-11491841D01*
X7026849Y-11491841D02*
X7007801Y-11482317D01*
X7007801Y-11482317D02*
X6979230Y-11482317D01*
X6979230Y-11482317D02*
X6960182Y-11472793D01*
X6960182Y-11472793D02*
X6950658Y-11453746D01*
X6950658Y-11453746D02*
X6950658Y-11444222D01*
X6950658Y-11444222D02*
X6960182Y-11425174D01*
X6960182Y-11425174D02*
X6979230Y-11415650D01*
X6979230Y-11415650D02*
X7007801Y-11415650D01*
X7007801Y-11415650D02*
X7026849Y-11425174D01*
X7103039Y-11625174D02*
X7112563Y-11615650D01*
X7112563Y-11615650D02*
X7131611Y-11587079D01*
X7131611Y-11587079D02*
X7141134Y-11568031D01*
X7141134Y-11568031D02*
X7150658Y-11539460D01*
X7150658Y-11539460D02*
X7160182Y-11491841D01*
X7160182Y-11491841D02*
X7160182Y-11453746D01*
X7160182Y-11453746D02*
X7150658Y-11406127D01*
X7150658Y-11406127D02*
X7141134Y-11377555D01*
X7141134Y-11377555D02*
X7131611Y-11358508D01*
X7131611Y-11358508D02*
X7112563Y-11329936D01*
X7112563Y-11329936D02*
X7103039Y-11320412D01*
X7464944Y-11625174D02*
X7455420Y-11615650D01*
X7455420Y-11615650D02*
X7436372Y-11587079D01*
X7436372Y-11587079D02*
X7426849Y-11568031D01*
X7426849Y-11568031D02*
X7417325Y-11539460D01*
X7417325Y-11539460D02*
X7407801Y-11491841D01*
X7407801Y-11491841D02*
X7407801Y-11453746D01*
X7407801Y-11453746D02*
X7417325Y-11406127D01*
X7417325Y-11406127D02*
X7426849Y-11377555D01*
X7426849Y-11377555D02*
X7436372Y-11358508D01*
X7436372Y-11358508D02*
X7455420Y-11329936D01*
X7455420Y-11329936D02*
X7464944Y-11320412D01*
X7541134Y-11415650D02*
X7541134Y-11548984D01*
X7541134Y-11434698D02*
X7550658Y-11425174D01*
X7550658Y-11425174D02*
X7569706Y-11415650D01*
X7569706Y-11415650D02*
X7598277Y-11415650D01*
X7598277Y-11415650D02*
X7617325Y-11425174D01*
X7617325Y-11425174D02*
X7626849Y-11444222D01*
X7626849Y-11444222D02*
X7626849Y-11548984D01*
X7750658Y-11548984D02*
X7731611Y-11539460D01*
X7731611Y-11539460D02*
X7722087Y-11529936D01*
X7722087Y-11529936D02*
X7712563Y-11510888D01*
X7712563Y-11510888D02*
X7712563Y-11453746D01*
X7712563Y-11453746D02*
X7722087Y-11434698D01*
X7722087Y-11434698D02*
X7731611Y-11425174D01*
X7731611Y-11425174D02*
X7750658Y-11415650D01*
X7750658Y-11415650D02*
X7779230Y-11415650D01*
X7779230Y-11415650D02*
X7798277Y-11425174D01*
X7798277Y-11425174D02*
X7807801Y-11434698D01*
X7807801Y-11434698D02*
X7817325Y-11453746D01*
X7817325Y-11453746D02*
X7817325Y-11510888D01*
X7817325Y-11510888D02*
X7807801Y-11529936D01*
X7807801Y-11529936D02*
X7798277Y-11539460D01*
X7798277Y-11539460D02*
X7779230Y-11548984D01*
X7779230Y-11548984D02*
X7750658Y-11548984D01*
X7874468Y-11415650D02*
X7950658Y-11415650D01*
X7903039Y-11348984D02*
X7903039Y-11520412D01*
X7903039Y-11520412D02*
X7912563Y-11539460D01*
X7912563Y-11539460D02*
X7931611Y-11548984D01*
X7931611Y-11548984D02*
X7950658Y-11548984D01*
X8169706Y-11415650D02*
X8169706Y-11615650D01*
X8169706Y-11425174D02*
X8188753Y-11415650D01*
X8188753Y-11415650D02*
X8226849Y-11415650D01*
X8226849Y-11415650D02*
X8245896Y-11425174D01*
X8245896Y-11425174D02*
X8255420Y-11434698D01*
X8255420Y-11434698D02*
X8264944Y-11453746D01*
X8264944Y-11453746D02*
X8264944Y-11510888D01*
X8264944Y-11510888D02*
X8255420Y-11529936D01*
X8255420Y-11529936D02*
X8245896Y-11539460D01*
X8245896Y-11539460D02*
X8226849Y-11548984D01*
X8226849Y-11548984D02*
X8188753Y-11548984D01*
X8188753Y-11548984D02*
X8169706Y-11539460D01*
X8379230Y-11548984D02*
X8360182Y-11539460D01*
X8360182Y-11539460D02*
X8350658Y-11520412D01*
X8350658Y-11520412D02*
X8350658Y-11348984D01*
X8541135Y-11548984D02*
X8541135Y-11444222D01*
X8541135Y-11444222D02*
X8531611Y-11425174D01*
X8531611Y-11425174D02*
X8512563Y-11415650D01*
X8512563Y-11415650D02*
X8474468Y-11415650D01*
X8474468Y-11415650D02*
X8455420Y-11425174D01*
X8541135Y-11539460D02*
X8522087Y-11548984D01*
X8522087Y-11548984D02*
X8474468Y-11548984D01*
X8474468Y-11548984D02*
X8455420Y-11539460D01*
X8455420Y-11539460D02*
X8445896Y-11520412D01*
X8445896Y-11520412D02*
X8445896Y-11501365D01*
X8445896Y-11501365D02*
X8455420Y-11482317D01*
X8455420Y-11482317D02*
X8474468Y-11472793D01*
X8474468Y-11472793D02*
X8522087Y-11472793D01*
X8522087Y-11472793D02*
X8541135Y-11463269D01*
X8607801Y-11415650D02*
X8683992Y-11415650D01*
X8636373Y-11348984D02*
X8636373Y-11520412D01*
X8636373Y-11520412D02*
X8645896Y-11539460D01*
X8645896Y-11539460D02*
X8664944Y-11548984D01*
X8664944Y-11548984D02*
X8683992Y-11548984D01*
X8826849Y-11539460D02*
X8807801Y-11548984D01*
X8807801Y-11548984D02*
X8769706Y-11548984D01*
X8769706Y-11548984D02*
X8750658Y-11539460D01*
X8750658Y-11539460D02*
X8741135Y-11520412D01*
X8741135Y-11520412D02*
X8741135Y-11444222D01*
X8741135Y-11444222D02*
X8750658Y-11425174D01*
X8750658Y-11425174D02*
X8769706Y-11415650D01*
X8769706Y-11415650D02*
X8807801Y-11415650D01*
X8807801Y-11415650D02*
X8826849Y-11425174D01*
X8826849Y-11425174D02*
X8836373Y-11444222D01*
X8836373Y-11444222D02*
X8836373Y-11463269D01*
X8836373Y-11463269D02*
X8741135Y-11482317D01*
X9007801Y-11548984D02*
X9007801Y-11348984D01*
X9007801Y-11539460D02*
X8988754Y-11548984D01*
X8988754Y-11548984D02*
X8950658Y-11548984D01*
X8950658Y-11548984D02*
X8931611Y-11539460D01*
X8931611Y-11539460D02*
X8922087Y-11529936D01*
X8922087Y-11529936D02*
X8912563Y-11510888D01*
X8912563Y-11510888D02*
X8912563Y-11453746D01*
X8912563Y-11453746D02*
X8922087Y-11434698D01*
X8922087Y-11434698D02*
X8931611Y-11425174D01*
X8931611Y-11425174D02*
X8950658Y-11415650D01*
X8950658Y-11415650D02*
X8988754Y-11415650D01*
X8988754Y-11415650D02*
X9007801Y-11425174D01*
X9083992Y-11625174D02*
X9093516Y-11615650D01*
X9093516Y-11615650D02*
X9112563Y-11587079D01*
X9112563Y-11587079D02*
X9122087Y-11568031D01*
X9122087Y-11568031D02*
X9131611Y-11539460D01*
X9131611Y-11539460D02*
X9141135Y-11491841D01*
X9141135Y-11491841D02*
X9141135Y-11453746D01*
X9141135Y-11453746D02*
X9131611Y-11406127D01*
X9131611Y-11406127D02*
X9122087Y-11377555D01*
X9122087Y-11377555D02*
X9112563Y-11358508D01*
X9112563Y-11358508D02*
X9093516Y-11329936D01*
X9093516Y-11329936D02*
X9083992Y-11320412D01*
X2137500Y-11721500D02*
G75*
G02*
X1937500Y-11721500I-100000J0D01*
G01*
X1937500Y-11721500D02*
G75*
G02*
X2137500Y-11721500I100000J0D01*
G01*
X2379229Y-11612984D02*
X2503039Y-11612984D01*
X2503039Y-11612984D02*
X2436372Y-11689174D01*
X2436372Y-11689174D02*
X2464944Y-11689174D01*
X2464944Y-11689174D02*
X2483991Y-11698698D01*
X2483991Y-11698698D02*
X2493515Y-11708222D01*
X2493515Y-11708222D02*
X2503039Y-11727269D01*
X2503039Y-11727269D02*
X2503039Y-11774888D01*
X2503039Y-11774888D02*
X2493515Y-11793936D01*
X2493515Y-11793936D02*
X2483991Y-11803460D01*
X2483991Y-11803460D02*
X2464944Y-11812984D01*
X2464944Y-11812984D02*
X2407801Y-11812984D01*
X2407801Y-11812984D02*
X2388753Y-11803460D01*
X2388753Y-11803460D02*
X2379229Y-11793936D01*
X2588753Y-11793936D02*
X2598277Y-11803460D01*
X2598277Y-11803460D02*
X2588753Y-11812984D01*
X2588753Y-11812984D02*
X2579229Y-11803460D01*
X2579229Y-11803460D02*
X2588753Y-11793936D01*
X2588753Y-11793936D02*
X2588753Y-11812984D01*
X2722086Y-11612984D02*
X2741134Y-11612984D01*
X2741134Y-11612984D02*
X2760182Y-11622508D01*
X2760182Y-11622508D02*
X2769705Y-11632031D01*
X2769705Y-11632031D02*
X2779229Y-11651079D01*
X2779229Y-11651079D02*
X2788753Y-11689174D01*
X2788753Y-11689174D02*
X2788753Y-11736793D01*
X2788753Y-11736793D02*
X2779229Y-11774888D01*
X2779229Y-11774888D02*
X2769705Y-11793936D01*
X2769705Y-11793936D02*
X2760182Y-11803460D01*
X2760182Y-11803460D02*
X2741134Y-11812984D01*
X2741134Y-11812984D02*
X2722086Y-11812984D01*
X2722086Y-11812984D02*
X2703039Y-11803460D01*
X2703039Y-11803460D02*
X2693515Y-11793936D01*
X2693515Y-11793936D02*
X2683991Y-11774888D01*
X2683991Y-11774888D02*
X2674467Y-11736793D01*
X2674467Y-11736793D02*
X2674467Y-11689174D01*
X2674467Y-11689174D02*
X2683991Y-11651079D01*
X2683991Y-11651079D02*
X2693515Y-11632031D01*
X2693515Y-11632031D02*
X2703039Y-11622508D01*
X2703039Y-11622508D02*
X2722086Y-11612984D01*
X2912562Y-11612984D02*
X2931610Y-11612984D01*
X2931610Y-11612984D02*
X2950658Y-11622508D01*
X2950658Y-11622508D02*
X2960182Y-11632031D01*
X2960182Y-11632031D02*
X2969705Y-11651079D01*
X2969705Y-11651079D02*
X2979229Y-11689174D01*
X2979229Y-11689174D02*
X2979229Y-11736793D01*
X2979229Y-11736793D02*
X2969705Y-11774888D01*
X2969705Y-11774888D02*
X2960182Y-11793936D01*
X2960182Y-11793936D02*
X2950658Y-11803460D01*
X2950658Y-11803460D02*
X2931610Y-11812984D01*
X2931610Y-11812984D02*
X2912562Y-11812984D01*
X2912562Y-11812984D02*
X2893515Y-11803460D01*
X2893515Y-11803460D02*
X2883991Y-11793936D01*
X2883991Y-11793936D02*
X2874467Y-11774888D01*
X2874467Y-11774888D02*
X2864943Y-11736793D01*
X2864943Y-11736793D02*
X2864943Y-11689174D01*
X2864943Y-11689174D02*
X2874467Y-11651079D01*
X2874467Y-11651079D02*
X2883991Y-11632031D01*
X2883991Y-11632031D02*
X2893515Y-11622508D01*
X2893515Y-11622508D02*
X2912562Y-11612984D01*
X3103039Y-11612984D02*
X3122086Y-11612984D01*
X3122086Y-11612984D02*
X3141134Y-11622508D01*
X3141134Y-11622508D02*
X3150658Y-11632031D01*
X3150658Y-11632031D02*
X3160182Y-11651079D01*
X3160182Y-11651079D02*
X3169705Y-11689174D01*
X3169705Y-11689174D02*
X3169705Y-11736793D01*
X3169705Y-11736793D02*
X3160182Y-11774888D01*
X3160182Y-11774888D02*
X3150658Y-11793936D01*
X3150658Y-11793936D02*
X3141134Y-11803460D01*
X3141134Y-11803460D02*
X3122086Y-11812984D01*
X3122086Y-11812984D02*
X3103039Y-11812984D01*
X3103039Y-11812984D02*
X3083991Y-11803460D01*
X3083991Y-11803460D02*
X3074467Y-11793936D01*
X3074467Y-11793936D02*
X3064943Y-11774888D01*
X3064943Y-11774888D02*
X3055420Y-11736793D01*
X3055420Y-11736793D02*
X3055420Y-11689174D01*
X3055420Y-11689174D02*
X3064943Y-11651079D01*
X3064943Y-11651079D02*
X3074467Y-11632031D01*
X3074467Y-11632031D02*
X3083991Y-11622508D01*
X3083991Y-11622508D02*
X3103039Y-11612984D01*
X3255420Y-11812984D02*
X3255420Y-11679650D01*
X3255420Y-11698698D02*
X3264943Y-11689174D01*
X3264943Y-11689174D02*
X3283991Y-11679650D01*
X3283991Y-11679650D02*
X3312563Y-11679650D01*
X3312563Y-11679650D02*
X3331610Y-11689174D01*
X3331610Y-11689174D02*
X3341134Y-11708222D01*
X3341134Y-11708222D02*
X3341134Y-11812984D01*
X3341134Y-11708222D02*
X3350658Y-11689174D01*
X3350658Y-11689174D02*
X3369705Y-11679650D01*
X3369705Y-11679650D02*
X3398277Y-11679650D01*
X3398277Y-11679650D02*
X3417324Y-11689174D01*
X3417324Y-11689174D02*
X3426848Y-11708222D01*
X3426848Y-11708222D02*
X3426848Y-11812984D01*
X3522086Y-11812984D02*
X3522086Y-11679650D01*
X3522086Y-11698698D02*
X3531610Y-11689174D01*
X3531610Y-11689174D02*
X3550658Y-11679650D01*
X3550658Y-11679650D02*
X3579229Y-11679650D01*
X3579229Y-11679650D02*
X3598277Y-11689174D01*
X3598277Y-11689174D02*
X3607801Y-11708222D01*
X3607801Y-11708222D02*
X3607801Y-11812984D01*
X3607801Y-11708222D02*
X3617324Y-11689174D01*
X3617324Y-11689174D02*
X3636372Y-11679650D01*
X3636372Y-11679650D02*
X3664943Y-11679650D01*
X3664943Y-11679650D02*
X3683991Y-11689174D01*
X3683991Y-11689174D02*
X3693515Y-11708222D01*
X3693515Y-11708222D02*
X3693515Y-11812984D01*
X4083991Y-11603460D02*
X3912563Y-11860603D01*
X4341134Y-11612984D02*
X4360182Y-11612984D01*
X4360182Y-11612984D02*
X4379229Y-11622508D01*
X4379229Y-11622508D02*
X4388753Y-11632031D01*
X4388753Y-11632031D02*
X4398277Y-11651079D01*
X4398277Y-11651079D02*
X4407801Y-11689174D01*
X4407801Y-11689174D02*
X4407801Y-11736793D01*
X4407801Y-11736793D02*
X4398277Y-11774888D01*
X4398277Y-11774888D02*
X4388753Y-11793936D01*
X4388753Y-11793936D02*
X4379229Y-11803460D01*
X4379229Y-11803460D02*
X4360182Y-11812984D01*
X4360182Y-11812984D02*
X4341134Y-11812984D01*
X4341134Y-11812984D02*
X4322087Y-11803460D01*
X4322087Y-11803460D02*
X4312563Y-11793936D01*
X4312563Y-11793936D02*
X4303039Y-11774888D01*
X4303039Y-11774888D02*
X4293515Y-11736793D01*
X4293515Y-11736793D02*
X4293515Y-11689174D01*
X4293515Y-11689174D02*
X4303039Y-11651079D01*
X4303039Y-11651079D02*
X4312563Y-11632031D01*
X4312563Y-11632031D02*
X4322087Y-11622508D01*
X4322087Y-11622508D02*
X4341134Y-11612984D01*
X4493515Y-11793936D02*
X4503039Y-11803460D01*
X4503039Y-11803460D02*
X4493515Y-11812984D01*
X4493515Y-11812984D02*
X4483991Y-11803460D01*
X4483991Y-11803460D02*
X4493515Y-11793936D01*
X4493515Y-11793936D02*
X4493515Y-11812984D01*
X4693515Y-11812984D02*
X4579229Y-11812984D01*
X4636372Y-11812984D02*
X4636372Y-11612984D01*
X4636372Y-11612984D02*
X4617325Y-11641555D01*
X4617325Y-11641555D02*
X4598277Y-11660603D01*
X4598277Y-11660603D02*
X4579229Y-11670127D01*
X4883991Y-11812984D02*
X4769706Y-11812984D01*
X4826848Y-11812984D02*
X4826848Y-11612984D01*
X4826848Y-11612984D02*
X4807801Y-11641555D01*
X4807801Y-11641555D02*
X4788753Y-11660603D01*
X4788753Y-11660603D02*
X4769706Y-11670127D01*
X4998277Y-11698698D02*
X4979229Y-11689174D01*
X4979229Y-11689174D02*
X4969706Y-11679650D01*
X4969706Y-11679650D02*
X4960182Y-11660603D01*
X4960182Y-11660603D02*
X4960182Y-11651079D01*
X4960182Y-11651079D02*
X4969706Y-11632031D01*
X4969706Y-11632031D02*
X4979229Y-11622508D01*
X4979229Y-11622508D02*
X4998277Y-11612984D01*
X4998277Y-11612984D02*
X5036372Y-11612984D01*
X5036372Y-11612984D02*
X5055420Y-11622508D01*
X5055420Y-11622508D02*
X5064944Y-11632031D01*
X5064944Y-11632031D02*
X5074468Y-11651079D01*
X5074468Y-11651079D02*
X5074468Y-11660603D01*
X5074468Y-11660603D02*
X5064944Y-11679650D01*
X5064944Y-11679650D02*
X5055420Y-11689174D01*
X5055420Y-11689174D02*
X5036372Y-11698698D01*
X5036372Y-11698698D02*
X4998277Y-11698698D01*
X4998277Y-11698698D02*
X4979229Y-11708222D01*
X4979229Y-11708222D02*
X4969706Y-11717746D01*
X4969706Y-11717746D02*
X4960182Y-11736793D01*
X4960182Y-11736793D02*
X4960182Y-11774888D01*
X4960182Y-11774888D02*
X4969706Y-11793936D01*
X4969706Y-11793936D02*
X4979229Y-11803460D01*
X4979229Y-11803460D02*
X4998277Y-11812984D01*
X4998277Y-11812984D02*
X5036372Y-11812984D01*
X5036372Y-11812984D02*
X5055420Y-11803460D01*
X5055420Y-11803460D02*
X5064944Y-11793936D01*
X5064944Y-11793936D02*
X5074468Y-11774888D01*
X5074468Y-11774888D02*
X5074468Y-11736793D01*
X5074468Y-11736793D02*
X5064944Y-11717746D01*
X5064944Y-11717746D02*
X5055420Y-11708222D01*
X5055420Y-11708222D02*
X5036372Y-11698698D01*
X5264944Y-11812984D02*
X5150658Y-11812984D01*
X5207801Y-11812984D02*
X5207801Y-11612984D01*
X5207801Y-11612984D02*
X5188753Y-11641555D01*
X5188753Y-11641555D02*
X5169706Y-11660603D01*
X5169706Y-11660603D02*
X5150658Y-11670127D01*
X5341134Y-11612984D02*
X5341134Y-11651079D01*
X5417325Y-11612984D02*
X5417325Y-11651079D01*
X5712563Y-11889174D02*
X5703039Y-11879650D01*
X5703039Y-11879650D02*
X5683991Y-11851079D01*
X5683991Y-11851079D02*
X5674468Y-11832031D01*
X5674468Y-11832031D02*
X5664944Y-11803460D01*
X5664944Y-11803460D02*
X5655420Y-11755841D01*
X5655420Y-11755841D02*
X5655420Y-11717746D01*
X5655420Y-11717746D02*
X5664944Y-11670127D01*
X5664944Y-11670127D02*
X5674468Y-11641555D01*
X5674468Y-11641555D02*
X5683991Y-11622508D01*
X5683991Y-11622508D02*
X5703039Y-11593936D01*
X5703039Y-11593936D02*
X5712563Y-11584412D01*
X5893515Y-11812984D02*
X5779229Y-11812984D01*
X5836372Y-11812984D02*
X5836372Y-11612984D01*
X5836372Y-11612984D02*
X5817325Y-11641555D01*
X5817325Y-11641555D02*
X5798277Y-11660603D01*
X5798277Y-11660603D02*
X5779229Y-11670127D01*
X5969706Y-11632031D02*
X5979229Y-11622508D01*
X5979229Y-11622508D02*
X5998277Y-11612984D01*
X5998277Y-11612984D02*
X6045896Y-11612984D01*
X6045896Y-11612984D02*
X6064944Y-11622508D01*
X6064944Y-11622508D02*
X6074468Y-11632031D01*
X6074468Y-11632031D02*
X6083991Y-11651079D01*
X6083991Y-11651079D02*
X6083991Y-11670127D01*
X6083991Y-11670127D02*
X6074468Y-11698698D01*
X6074468Y-11698698D02*
X5960182Y-11812984D01*
X5960182Y-11812984D02*
X6083991Y-11812984D01*
X6322087Y-11812984D02*
X6322087Y-11612984D01*
X6407801Y-11812984D02*
X6407801Y-11708222D01*
X6407801Y-11708222D02*
X6398277Y-11689174D01*
X6398277Y-11689174D02*
X6379230Y-11679650D01*
X6379230Y-11679650D02*
X6350658Y-11679650D01*
X6350658Y-11679650D02*
X6331610Y-11689174D01*
X6331610Y-11689174D02*
X6322087Y-11698698D01*
X6531610Y-11812984D02*
X6512563Y-11803460D01*
X6512563Y-11803460D02*
X6503039Y-11793936D01*
X6503039Y-11793936D02*
X6493515Y-11774888D01*
X6493515Y-11774888D02*
X6493515Y-11717746D01*
X6493515Y-11717746D02*
X6503039Y-11698698D01*
X6503039Y-11698698D02*
X6512563Y-11689174D01*
X6512563Y-11689174D02*
X6531610Y-11679650D01*
X6531610Y-11679650D02*
X6560182Y-11679650D01*
X6560182Y-11679650D02*
X6579230Y-11689174D01*
X6579230Y-11689174D02*
X6588753Y-11698698D01*
X6588753Y-11698698D02*
X6598277Y-11717746D01*
X6598277Y-11717746D02*
X6598277Y-11774888D01*
X6598277Y-11774888D02*
X6588753Y-11793936D01*
X6588753Y-11793936D02*
X6579230Y-11803460D01*
X6579230Y-11803460D02*
X6560182Y-11812984D01*
X6560182Y-11812984D02*
X6531610Y-11812984D01*
X6712563Y-11812984D02*
X6693515Y-11803460D01*
X6693515Y-11803460D02*
X6683991Y-11784412D01*
X6683991Y-11784412D02*
X6683991Y-11612984D01*
X6864944Y-11803460D02*
X6845896Y-11812984D01*
X6845896Y-11812984D02*
X6807801Y-11812984D01*
X6807801Y-11812984D02*
X6788753Y-11803460D01*
X6788753Y-11803460D02*
X6779230Y-11784412D01*
X6779230Y-11784412D02*
X6779230Y-11708222D01*
X6779230Y-11708222D02*
X6788753Y-11689174D01*
X6788753Y-11689174D02*
X6807801Y-11679650D01*
X6807801Y-11679650D02*
X6845896Y-11679650D01*
X6845896Y-11679650D02*
X6864944Y-11689174D01*
X6864944Y-11689174D02*
X6874468Y-11708222D01*
X6874468Y-11708222D02*
X6874468Y-11727269D01*
X6874468Y-11727269D02*
X6779230Y-11746317D01*
X6950658Y-11803460D02*
X6969706Y-11812984D01*
X6969706Y-11812984D02*
X7007801Y-11812984D01*
X7007801Y-11812984D02*
X7026849Y-11803460D01*
X7026849Y-11803460D02*
X7036372Y-11784412D01*
X7036372Y-11784412D02*
X7036372Y-11774888D01*
X7036372Y-11774888D02*
X7026849Y-11755841D01*
X7026849Y-11755841D02*
X7007801Y-11746317D01*
X7007801Y-11746317D02*
X6979230Y-11746317D01*
X6979230Y-11746317D02*
X6960182Y-11736793D01*
X6960182Y-11736793D02*
X6950658Y-11717746D01*
X6950658Y-11717746D02*
X6950658Y-11708222D01*
X6950658Y-11708222D02*
X6960182Y-11689174D01*
X6960182Y-11689174D02*
X6979230Y-11679650D01*
X6979230Y-11679650D02*
X7007801Y-11679650D01*
X7007801Y-11679650D02*
X7026849Y-11689174D01*
X7103039Y-11889174D02*
X7112563Y-11879650D01*
X7112563Y-11879650D02*
X7131611Y-11851079D01*
X7131611Y-11851079D02*
X7141134Y-11832031D01*
X7141134Y-11832031D02*
X7150658Y-11803460D01*
X7150658Y-11803460D02*
X7160182Y-11755841D01*
X7160182Y-11755841D02*
X7160182Y-11717746D01*
X7160182Y-11717746D02*
X7150658Y-11670127D01*
X7150658Y-11670127D02*
X7141134Y-11641555D01*
X7141134Y-11641555D02*
X7131611Y-11622508D01*
X7131611Y-11622508D02*
X7112563Y-11593936D01*
X7112563Y-11593936D02*
X7103039Y-11584412D01*
X7464944Y-11889174D02*
X7455420Y-11879650D01*
X7455420Y-11879650D02*
X7436372Y-11851079D01*
X7436372Y-11851079D02*
X7426849Y-11832031D01*
X7426849Y-11832031D02*
X7417325Y-11803460D01*
X7417325Y-11803460D02*
X7407801Y-11755841D01*
X7407801Y-11755841D02*
X7407801Y-11717746D01*
X7407801Y-11717746D02*
X7417325Y-11670127D01*
X7417325Y-11670127D02*
X7426849Y-11641555D01*
X7426849Y-11641555D02*
X7436372Y-11622508D01*
X7436372Y-11622508D02*
X7455420Y-11593936D01*
X7455420Y-11593936D02*
X7464944Y-11584412D01*
X7541134Y-11679650D02*
X7541134Y-11812984D01*
X7541134Y-11698698D02*
X7550658Y-11689174D01*
X7550658Y-11689174D02*
X7569706Y-11679650D01*
X7569706Y-11679650D02*
X7598277Y-11679650D01*
X7598277Y-11679650D02*
X7617325Y-11689174D01*
X7617325Y-11689174D02*
X7626849Y-11708222D01*
X7626849Y-11708222D02*
X7626849Y-11812984D01*
X7750658Y-11812984D02*
X7731611Y-11803460D01*
X7731611Y-11803460D02*
X7722087Y-11793936D01*
X7722087Y-11793936D02*
X7712563Y-11774888D01*
X7712563Y-11774888D02*
X7712563Y-11717746D01*
X7712563Y-11717746D02*
X7722087Y-11698698D01*
X7722087Y-11698698D02*
X7731611Y-11689174D01*
X7731611Y-11689174D02*
X7750658Y-11679650D01*
X7750658Y-11679650D02*
X7779230Y-11679650D01*
X7779230Y-11679650D02*
X7798277Y-11689174D01*
X7798277Y-11689174D02*
X7807801Y-11698698D01*
X7807801Y-11698698D02*
X7817325Y-11717746D01*
X7817325Y-11717746D02*
X7817325Y-11774888D01*
X7817325Y-11774888D02*
X7807801Y-11793936D01*
X7807801Y-11793936D02*
X7798277Y-11803460D01*
X7798277Y-11803460D02*
X7779230Y-11812984D01*
X7779230Y-11812984D02*
X7750658Y-11812984D01*
X7874468Y-11679650D02*
X7950658Y-11679650D01*
X7903039Y-11612984D02*
X7903039Y-11784412D01*
X7903039Y-11784412D02*
X7912563Y-11803460D01*
X7912563Y-11803460D02*
X7931611Y-11812984D01*
X7931611Y-11812984D02*
X7950658Y-11812984D01*
X8169706Y-11679650D02*
X8169706Y-11879650D01*
X8169706Y-11689174D02*
X8188753Y-11679650D01*
X8188753Y-11679650D02*
X8226849Y-11679650D01*
X8226849Y-11679650D02*
X8245896Y-11689174D01*
X8245896Y-11689174D02*
X8255420Y-11698698D01*
X8255420Y-11698698D02*
X8264944Y-11717746D01*
X8264944Y-11717746D02*
X8264944Y-11774888D01*
X8264944Y-11774888D02*
X8255420Y-11793936D01*
X8255420Y-11793936D02*
X8245896Y-11803460D01*
X8245896Y-11803460D02*
X8226849Y-11812984D01*
X8226849Y-11812984D02*
X8188753Y-11812984D01*
X8188753Y-11812984D02*
X8169706Y-11803460D01*
X8379230Y-11812984D02*
X8360182Y-11803460D01*
X8360182Y-11803460D02*
X8350658Y-11784412D01*
X8350658Y-11784412D02*
X8350658Y-11612984D01*
X8541135Y-11812984D02*
X8541135Y-11708222D01*
X8541135Y-11708222D02*
X8531611Y-11689174D01*
X8531611Y-11689174D02*
X8512563Y-11679650D01*
X8512563Y-11679650D02*
X8474468Y-11679650D01*
X8474468Y-11679650D02*
X8455420Y-11689174D01*
X8541135Y-11803460D02*
X8522087Y-11812984D01*
X8522087Y-11812984D02*
X8474468Y-11812984D01*
X8474468Y-11812984D02*
X8455420Y-11803460D01*
X8455420Y-11803460D02*
X8445896Y-11784412D01*
X8445896Y-11784412D02*
X8445896Y-11765365D01*
X8445896Y-11765365D02*
X8455420Y-11746317D01*
X8455420Y-11746317D02*
X8474468Y-11736793D01*
X8474468Y-11736793D02*
X8522087Y-11736793D01*
X8522087Y-11736793D02*
X8541135Y-11727269D01*
X8607801Y-11679650D02*
X8683992Y-11679650D01*
X8636373Y-11612984D02*
X8636373Y-11784412D01*
X8636373Y-11784412D02*
X8645896Y-11803460D01*
X8645896Y-11803460D02*
X8664944Y-11812984D01*
X8664944Y-11812984D02*
X8683992Y-11812984D01*
X8826849Y-11803460D02*
X8807801Y-11812984D01*
X8807801Y-11812984D02*
X8769706Y-11812984D01*
X8769706Y-11812984D02*
X8750658Y-11803460D01*
X8750658Y-11803460D02*
X8741135Y-11784412D01*
X8741135Y-11784412D02*
X8741135Y-11708222D01*
X8741135Y-11708222D02*
X8750658Y-11689174D01*
X8750658Y-11689174D02*
X8769706Y-11679650D01*
X8769706Y-11679650D02*
X8807801Y-11679650D01*
X8807801Y-11679650D02*
X8826849Y-11689174D01*
X8826849Y-11689174D02*
X8836373Y-11708222D01*
X8836373Y-11708222D02*
X8836373Y-11727269D01*
X8836373Y-11727269D02*
X8741135Y-11746317D01*
X9007801Y-11812984D02*
X9007801Y-11612984D01*
X9007801Y-11803460D02*
X8988754Y-11812984D01*
X8988754Y-11812984D02*
X8950658Y-11812984D01*
X8950658Y-11812984D02*
X8931611Y-11803460D01*
X8931611Y-11803460D02*
X8922087Y-11793936D01*
X8922087Y-11793936D02*
X8912563Y-11774888D01*
X8912563Y-11774888D02*
X8912563Y-11717746D01*
X8912563Y-11717746D02*
X8922087Y-11698698D01*
X8922087Y-11698698D02*
X8931611Y-11689174D01*
X8931611Y-11689174D02*
X8950658Y-11679650D01*
X8950658Y-11679650D02*
X8988754Y-11679650D01*
X8988754Y-11679650D02*
X9007801Y-11689174D01*
X9083992Y-11889174D02*
X9093516Y-11879650D01*
X9093516Y-11879650D02*
X9112563Y-11851079D01*
X9112563Y-11851079D02*
X9122087Y-11832031D01*
X9122087Y-11832031D02*
X9131611Y-11803460D01*
X9131611Y-11803460D02*
X9141135Y-11755841D01*
X9141135Y-11755841D02*
X9141135Y-11717746D01*
X9141135Y-11717746D02*
X9131611Y-11670127D01*
X9131611Y-11670127D02*
X9122087Y-11641555D01*
X9122087Y-11641555D02*
X9112563Y-11622508D01*
X9112563Y-11622508D02*
X9093516Y-11593936D01*
X9093516Y-11593936D02*
X9083992Y-11584412D01*
X2037500Y-11941500D02*
X2037500Y-12141500D01*
X1937500Y-12041500D02*
X2137500Y-12041500D01*
X2379229Y-11932984D02*
X2503039Y-11932984D01*
X2503039Y-11932984D02*
X2436372Y-12009174D01*
X2436372Y-12009174D02*
X2464944Y-12009174D01*
X2464944Y-12009174D02*
X2483991Y-12018698D01*
X2483991Y-12018698D02*
X2493515Y-12028222D01*
X2493515Y-12028222D02*
X2503039Y-12047269D01*
X2503039Y-12047269D02*
X2503039Y-12094888D01*
X2503039Y-12094888D02*
X2493515Y-12113936D01*
X2493515Y-12113936D02*
X2483991Y-12123460D01*
X2483991Y-12123460D02*
X2464944Y-12132984D01*
X2464944Y-12132984D02*
X2407801Y-12132984D01*
X2407801Y-12132984D02*
X2388753Y-12123460D01*
X2388753Y-12123460D02*
X2379229Y-12113936D01*
X2588753Y-12113936D02*
X2598277Y-12123460D01*
X2598277Y-12123460D02*
X2588753Y-12132984D01*
X2588753Y-12132984D02*
X2579229Y-12123460D01*
X2579229Y-12123460D02*
X2588753Y-12113936D01*
X2588753Y-12113936D02*
X2588753Y-12132984D01*
X2674467Y-11952031D02*
X2683991Y-11942508D01*
X2683991Y-11942508D02*
X2703039Y-11932984D01*
X2703039Y-11932984D02*
X2750658Y-11932984D01*
X2750658Y-11932984D02*
X2769705Y-11942508D01*
X2769705Y-11942508D02*
X2779229Y-11952031D01*
X2779229Y-11952031D02*
X2788753Y-11971079D01*
X2788753Y-11971079D02*
X2788753Y-11990127D01*
X2788753Y-11990127D02*
X2779229Y-12018698D01*
X2779229Y-12018698D02*
X2664944Y-12132984D01*
X2664944Y-12132984D02*
X2788753Y-12132984D01*
X2912562Y-11932984D02*
X2931610Y-11932984D01*
X2931610Y-11932984D02*
X2950658Y-11942508D01*
X2950658Y-11942508D02*
X2960182Y-11952031D01*
X2960182Y-11952031D02*
X2969705Y-11971079D01*
X2969705Y-11971079D02*
X2979229Y-12009174D01*
X2979229Y-12009174D02*
X2979229Y-12056793D01*
X2979229Y-12056793D02*
X2969705Y-12094888D01*
X2969705Y-12094888D02*
X2960182Y-12113936D01*
X2960182Y-12113936D02*
X2950658Y-12123460D01*
X2950658Y-12123460D02*
X2931610Y-12132984D01*
X2931610Y-12132984D02*
X2912562Y-12132984D01*
X2912562Y-12132984D02*
X2893515Y-12123460D01*
X2893515Y-12123460D02*
X2883991Y-12113936D01*
X2883991Y-12113936D02*
X2874467Y-12094888D01*
X2874467Y-12094888D02*
X2864943Y-12056793D01*
X2864943Y-12056793D02*
X2864943Y-12009174D01*
X2864943Y-12009174D02*
X2874467Y-11971079D01*
X2874467Y-11971079D02*
X2883991Y-11952031D01*
X2883991Y-11952031D02*
X2893515Y-11942508D01*
X2893515Y-11942508D02*
X2912562Y-11932984D01*
X3103039Y-11932984D02*
X3122086Y-11932984D01*
X3122086Y-11932984D02*
X3141134Y-11942508D01*
X3141134Y-11942508D02*
X3150658Y-11952031D01*
X3150658Y-11952031D02*
X3160182Y-11971079D01*
X3160182Y-11971079D02*
X3169705Y-12009174D01*
X3169705Y-12009174D02*
X3169705Y-12056793D01*
X3169705Y-12056793D02*
X3160182Y-12094888D01*
X3160182Y-12094888D02*
X3150658Y-12113936D01*
X3150658Y-12113936D02*
X3141134Y-12123460D01*
X3141134Y-12123460D02*
X3122086Y-12132984D01*
X3122086Y-12132984D02*
X3103039Y-12132984D01*
X3103039Y-12132984D02*
X3083991Y-12123460D01*
X3083991Y-12123460D02*
X3074467Y-12113936D01*
X3074467Y-12113936D02*
X3064943Y-12094888D01*
X3064943Y-12094888D02*
X3055420Y-12056793D01*
X3055420Y-12056793D02*
X3055420Y-12009174D01*
X3055420Y-12009174D02*
X3064943Y-11971079D01*
X3064943Y-11971079D02*
X3074467Y-11952031D01*
X3074467Y-11952031D02*
X3083991Y-11942508D01*
X3083991Y-11942508D02*
X3103039Y-11932984D01*
X3255420Y-12132984D02*
X3255420Y-11999650D01*
X3255420Y-12018698D02*
X3264943Y-12009174D01*
X3264943Y-12009174D02*
X3283991Y-11999650D01*
X3283991Y-11999650D02*
X3312563Y-11999650D01*
X3312563Y-11999650D02*
X3331610Y-12009174D01*
X3331610Y-12009174D02*
X3341134Y-12028222D01*
X3341134Y-12028222D02*
X3341134Y-12132984D01*
X3341134Y-12028222D02*
X3350658Y-12009174D01*
X3350658Y-12009174D02*
X3369705Y-11999650D01*
X3369705Y-11999650D02*
X3398277Y-11999650D01*
X3398277Y-11999650D02*
X3417324Y-12009174D01*
X3417324Y-12009174D02*
X3426848Y-12028222D01*
X3426848Y-12028222D02*
X3426848Y-12132984D01*
X3522086Y-12132984D02*
X3522086Y-11999650D01*
X3522086Y-12018698D02*
X3531610Y-12009174D01*
X3531610Y-12009174D02*
X3550658Y-11999650D01*
X3550658Y-11999650D02*
X3579229Y-11999650D01*
X3579229Y-11999650D02*
X3598277Y-12009174D01*
X3598277Y-12009174D02*
X3607801Y-12028222D01*
X3607801Y-12028222D02*
X3607801Y-12132984D01*
X3607801Y-12028222D02*
X3617324Y-12009174D01*
X3617324Y-12009174D02*
X3636372Y-11999650D01*
X3636372Y-11999650D02*
X3664943Y-11999650D01*
X3664943Y-11999650D02*
X3683991Y-12009174D01*
X3683991Y-12009174D02*
X3693515Y-12028222D01*
X3693515Y-12028222D02*
X3693515Y-12132984D01*
X4083991Y-11923460D02*
X3912563Y-12180603D01*
X4341134Y-11932984D02*
X4360182Y-11932984D01*
X4360182Y-11932984D02*
X4379229Y-11942508D01*
X4379229Y-11942508D02*
X4388753Y-11952031D01*
X4388753Y-11952031D02*
X4398277Y-11971079D01*
X4398277Y-11971079D02*
X4407801Y-12009174D01*
X4407801Y-12009174D02*
X4407801Y-12056793D01*
X4407801Y-12056793D02*
X4398277Y-12094888D01*
X4398277Y-12094888D02*
X4388753Y-12113936D01*
X4388753Y-12113936D02*
X4379229Y-12123460D01*
X4379229Y-12123460D02*
X4360182Y-12132984D01*
X4360182Y-12132984D02*
X4341134Y-12132984D01*
X4341134Y-12132984D02*
X4322087Y-12123460D01*
X4322087Y-12123460D02*
X4312563Y-12113936D01*
X4312563Y-12113936D02*
X4303039Y-12094888D01*
X4303039Y-12094888D02*
X4293515Y-12056793D01*
X4293515Y-12056793D02*
X4293515Y-12009174D01*
X4293515Y-12009174D02*
X4303039Y-11971079D01*
X4303039Y-11971079D02*
X4312563Y-11952031D01*
X4312563Y-11952031D02*
X4322087Y-11942508D01*
X4322087Y-11942508D02*
X4341134Y-11932984D01*
X4493515Y-12113936D02*
X4503039Y-12123460D01*
X4503039Y-12123460D02*
X4493515Y-12132984D01*
X4493515Y-12132984D02*
X4483991Y-12123460D01*
X4483991Y-12123460D02*
X4493515Y-12113936D01*
X4493515Y-12113936D02*
X4493515Y-12132984D01*
X4693515Y-12132984D02*
X4579229Y-12132984D01*
X4636372Y-12132984D02*
X4636372Y-11932984D01*
X4636372Y-11932984D02*
X4617325Y-11961555D01*
X4617325Y-11961555D02*
X4598277Y-11980603D01*
X4598277Y-11980603D02*
X4579229Y-11990127D01*
X4769706Y-11952031D02*
X4779229Y-11942508D01*
X4779229Y-11942508D02*
X4798277Y-11932984D01*
X4798277Y-11932984D02*
X4845896Y-11932984D01*
X4845896Y-11932984D02*
X4864944Y-11942508D01*
X4864944Y-11942508D02*
X4874468Y-11952031D01*
X4874468Y-11952031D02*
X4883991Y-11971079D01*
X4883991Y-11971079D02*
X4883991Y-11990127D01*
X4883991Y-11990127D02*
X4874468Y-12018698D01*
X4874468Y-12018698D02*
X4760182Y-12132984D01*
X4760182Y-12132984D02*
X4883991Y-12132984D01*
X5055420Y-11932984D02*
X5017325Y-11932984D01*
X5017325Y-11932984D02*
X4998277Y-11942508D01*
X4998277Y-11942508D02*
X4988753Y-11952031D01*
X4988753Y-11952031D02*
X4969706Y-11980603D01*
X4969706Y-11980603D02*
X4960182Y-12018698D01*
X4960182Y-12018698D02*
X4960182Y-12094888D01*
X4960182Y-12094888D02*
X4969706Y-12113936D01*
X4969706Y-12113936D02*
X4979229Y-12123460D01*
X4979229Y-12123460D02*
X4998277Y-12132984D01*
X4998277Y-12132984D02*
X5036372Y-12132984D01*
X5036372Y-12132984D02*
X5055420Y-12123460D01*
X5055420Y-12123460D02*
X5064944Y-12113936D01*
X5064944Y-12113936D02*
X5074468Y-12094888D01*
X5074468Y-12094888D02*
X5074468Y-12047269D01*
X5074468Y-12047269D02*
X5064944Y-12028222D01*
X5064944Y-12028222D02*
X5055420Y-12018698D01*
X5055420Y-12018698D02*
X5036372Y-12009174D01*
X5036372Y-12009174D02*
X4998277Y-12009174D01*
X4998277Y-12009174D02*
X4979229Y-12018698D01*
X4979229Y-12018698D02*
X4969706Y-12028222D01*
X4969706Y-12028222D02*
X4960182Y-12047269D01*
X5198277Y-11932984D02*
X5217325Y-11932984D01*
X5217325Y-11932984D02*
X5236372Y-11942508D01*
X5236372Y-11942508D02*
X5245896Y-11952031D01*
X5245896Y-11952031D02*
X5255420Y-11971079D01*
X5255420Y-11971079D02*
X5264944Y-12009174D01*
X5264944Y-12009174D02*
X5264944Y-12056793D01*
X5264944Y-12056793D02*
X5255420Y-12094888D01*
X5255420Y-12094888D02*
X5245896Y-12113936D01*
X5245896Y-12113936D02*
X5236372Y-12123460D01*
X5236372Y-12123460D02*
X5217325Y-12132984D01*
X5217325Y-12132984D02*
X5198277Y-12132984D01*
X5198277Y-12132984D02*
X5179229Y-12123460D01*
X5179229Y-12123460D02*
X5169706Y-12113936D01*
X5169706Y-12113936D02*
X5160182Y-12094888D01*
X5160182Y-12094888D02*
X5150658Y-12056793D01*
X5150658Y-12056793D02*
X5150658Y-12009174D01*
X5150658Y-12009174D02*
X5160182Y-11971079D01*
X5160182Y-11971079D02*
X5169706Y-11952031D01*
X5169706Y-11952031D02*
X5179229Y-11942508D01*
X5179229Y-11942508D02*
X5198277Y-11932984D01*
X5341134Y-11932984D02*
X5341134Y-11971079D01*
X5417325Y-11932984D02*
X5417325Y-11971079D01*
X5712563Y-12209174D02*
X5703039Y-12199650D01*
X5703039Y-12199650D02*
X5683991Y-12171079D01*
X5683991Y-12171079D02*
X5674468Y-12152031D01*
X5674468Y-12152031D02*
X5664944Y-12123460D01*
X5664944Y-12123460D02*
X5655420Y-12075841D01*
X5655420Y-12075841D02*
X5655420Y-12037746D01*
X5655420Y-12037746D02*
X5664944Y-11990127D01*
X5664944Y-11990127D02*
X5674468Y-11961555D01*
X5674468Y-11961555D02*
X5683991Y-11942508D01*
X5683991Y-11942508D02*
X5703039Y-11913936D01*
X5703039Y-11913936D02*
X5712563Y-11904412D01*
X5769706Y-11932984D02*
X5893515Y-11932984D01*
X5893515Y-11932984D02*
X5826848Y-12009174D01*
X5826848Y-12009174D02*
X5855420Y-12009174D01*
X5855420Y-12009174D02*
X5874468Y-12018698D01*
X5874468Y-12018698D02*
X5883991Y-12028222D01*
X5883991Y-12028222D02*
X5893515Y-12047269D01*
X5893515Y-12047269D02*
X5893515Y-12094888D01*
X5893515Y-12094888D02*
X5883991Y-12113936D01*
X5883991Y-12113936D02*
X5874468Y-12123460D01*
X5874468Y-12123460D02*
X5855420Y-12132984D01*
X5855420Y-12132984D02*
X5798277Y-12132984D01*
X5798277Y-12132984D02*
X5779229Y-12123460D01*
X5779229Y-12123460D02*
X5769706Y-12113936D01*
X6131610Y-12132984D02*
X6131610Y-11932984D01*
X6217325Y-12132984D02*
X6217325Y-12028222D01*
X6217325Y-12028222D02*
X6207801Y-12009174D01*
X6207801Y-12009174D02*
X6188753Y-11999650D01*
X6188753Y-11999650D02*
X6160182Y-11999650D01*
X6160182Y-11999650D02*
X6141134Y-12009174D01*
X6141134Y-12009174D02*
X6131610Y-12018698D01*
X6341134Y-12132984D02*
X6322087Y-12123460D01*
X6322087Y-12123460D02*
X6312563Y-12113936D01*
X6312563Y-12113936D02*
X6303039Y-12094888D01*
X6303039Y-12094888D02*
X6303039Y-12037746D01*
X6303039Y-12037746D02*
X6312563Y-12018698D01*
X6312563Y-12018698D02*
X6322087Y-12009174D01*
X6322087Y-12009174D02*
X6341134Y-11999650D01*
X6341134Y-11999650D02*
X6369706Y-11999650D01*
X6369706Y-11999650D02*
X6388753Y-12009174D01*
X6388753Y-12009174D02*
X6398277Y-12018698D01*
X6398277Y-12018698D02*
X6407801Y-12037746D01*
X6407801Y-12037746D02*
X6407801Y-12094888D01*
X6407801Y-12094888D02*
X6398277Y-12113936D01*
X6398277Y-12113936D02*
X6388753Y-12123460D01*
X6388753Y-12123460D02*
X6369706Y-12132984D01*
X6369706Y-12132984D02*
X6341134Y-12132984D01*
X6522087Y-12132984D02*
X6503039Y-12123460D01*
X6503039Y-12123460D02*
X6493515Y-12104412D01*
X6493515Y-12104412D02*
X6493515Y-11932984D01*
X6674468Y-12123460D02*
X6655420Y-12132984D01*
X6655420Y-12132984D02*
X6617325Y-12132984D01*
X6617325Y-12132984D02*
X6598277Y-12123460D01*
X6598277Y-12123460D02*
X6588753Y-12104412D01*
X6588753Y-12104412D02*
X6588753Y-12028222D01*
X6588753Y-12028222D02*
X6598277Y-12009174D01*
X6598277Y-12009174D02*
X6617325Y-11999650D01*
X6617325Y-11999650D02*
X6655420Y-11999650D01*
X6655420Y-11999650D02*
X6674468Y-12009174D01*
X6674468Y-12009174D02*
X6683991Y-12028222D01*
X6683991Y-12028222D02*
X6683991Y-12047269D01*
X6683991Y-12047269D02*
X6588753Y-12066317D01*
X6760182Y-12123460D02*
X6779230Y-12132984D01*
X6779230Y-12132984D02*
X6817325Y-12132984D01*
X6817325Y-12132984D02*
X6836372Y-12123460D01*
X6836372Y-12123460D02*
X6845896Y-12104412D01*
X6845896Y-12104412D02*
X6845896Y-12094888D01*
X6845896Y-12094888D02*
X6836372Y-12075841D01*
X6836372Y-12075841D02*
X6817325Y-12066317D01*
X6817325Y-12066317D02*
X6788753Y-12066317D01*
X6788753Y-12066317D02*
X6769706Y-12056793D01*
X6769706Y-12056793D02*
X6760182Y-12037746D01*
X6760182Y-12037746D02*
X6760182Y-12028222D01*
X6760182Y-12028222D02*
X6769706Y-12009174D01*
X6769706Y-12009174D02*
X6788753Y-11999650D01*
X6788753Y-11999650D02*
X6817325Y-11999650D01*
X6817325Y-11999650D02*
X6836372Y-12009174D01*
X6912563Y-12209174D02*
X6922087Y-12199650D01*
X6922087Y-12199650D02*
X6941134Y-12171079D01*
X6941134Y-12171079D02*
X6950658Y-12152031D01*
X6950658Y-12152031D02*
X6960182Y-12123460D01*
X6960182Y-12123460D02*
X6969706Y-12075841D01*
X6969706Y-12075841D02*
X6969706Y-12037746D01*
X6969706Y-12037746D02*
X6960182Y-11990127D01*
X6960182Y-11990127D02*
X6950658Y-11961555D01*
X6950658Y-11961555D02*
X6941134Y-11942508D01*
X6941134Y-11942508D02*
X6922087Y-11913936D01*
X6922087Y-11913936D02*
X6912563Y-11904412D01*
X7274468Y-12209174D02*
X7264944Y-12199650D01*
X7264944Y-12199650D02*
X7245896Y-12171079D01*
X7245896Y-12171079D02*
X7236372Y-12152031D01*
X7236372Y-12152031D02*
X7226849Y-12123460D01*
X7226849Y-12123460D02*
X7217325Y-12075841D01*
X7217325Y-12075841D02*
X7217325Y-12037746D01*
X7217325Y-12037746D02*
X7226849Y-11990127D01*
X7226849Y-11990127D02*
X7236372Y-11961555D01*
X7236372Y-11961555D02*
X7245896Y-11942508D01*
X7245896Y-11942508D02*
X7264944Y-11913936D01*
X7264944Y-11913936D02*
X7274468Y-11904412D01*
X7350658Y-11999650D02*
X7350658Y-12132984D01*
X7350658Y-12018698D02*
X7360182Y-12009174D01*
X7360182Y-12009174D02*
X7379230Y-11999650D01*
X7379230Y-11999650D02*
X7407801Y-11999650D01*
X7407801Y-11999650D02*
X7426849Y-12009174D01*
X7426849Y-12009174D02*
X7436372Y-12028222D01*
X7436372Y-12028222D02*
X7436372Y-12132984D01*
X7560182Y-12132984D02*
X7541134Y-12123460D01*
X7541134Y-12123460D02*
X7531611Y-12113936D01*
X7531611Y-12113936D02*
X7522087Y-12094888D01*
X7522087Y-12094888D02*
X7522087Y-12037746D01*
X7522087Y-12037746D02*
X7531611Y-12018698D01*
X7531611Y-12018698D02*
X7541134Y-12009174D01*
X7541134Y-12009174D02*
X7560182Y-11999650D01*
X7560182Y-11999650D02*
X7588753Y-11999650D01*
X7588753Y-11999650D02*
X7607801Y-12009174D01*
X7607801Y-12009174D02*
X7617325Y-12018698D01*
X7617325Y-12018698D02*
X7626849Y-12037746D01*
X7626849Y-12037746D02*
X7626849Y-12094888D01*
X7626849Y-12094888D02*
X7617325Y-12113936D01*
X7617325Y-12113936D02*
X7607801Y-12123460D01*
X7607801Y-12123460D02*
X7588753Y-12132984D01*
X7588753Y-12132984D02*
X7560182Y-12132984D01*
X7683992Y-11999650D02*
X7760182Y-11999650D01*
X7712563Y-11932984D02*
X7712563Y-12104412D01*
X7712563Y-12104412D02*
X7722087Y-12123460D01*
X7722087Y-12123460D02*
X7741134Y-12132984D01*
X7741134Y-12132984D02*
X7760182Y-12132984D01*
X7979230Y-11999650D02*
X7979230Y-12199650D01*
X7979230Y-12009174D02*
X7998277Y-11999650D01*
X7998277Y-11999650D02*
X8036373Y-11999650D01*
X8036373Y-11999650D02*
X8055420Y-12009174D01*
X8055420Y-12009174D02*
X8064944Y-12018698D01*
X8064944Y-12018698D02*
X8074468Y-12037746D01*
X8074468Y-12037746D02*
X8074468Y-12094888D01*
X8074468Y-12094888D02*
X8064944Y-12113936D01*
X8064944Y-12113936D02*
X8055420Y-12123460D01*
X8055420Y-12123460D02*
X8036373Y-12132984D01*
X8036373Y-12132984D02*
X7998277Y-12132984D01*
X7998277Y-12132984D02*
X7979230Y-12123460D01*
X8188753Y-12132984D02*
X8169706Y-12123460D01*
X8169706Y-12123460D02*
X8160182Y-12104412D01*
X8160182Y-12104412D02*
X8160182Y-11932984D01*
X8350658Y-12132984D02*
X8350658Y-12028222D01*
X8350658Y-12028222D02*
X8341134Y-12009174D01*
X8341134Y-12009174D02*
X8322087Y-11999650D01*
X8322087Y-11999650D02*
X8283992Y-11999650D01*
X8283992Y-11999650D02*
X8264944Y-12009174D01*
X8350658Y-12123460D02*
X8331611Y-12132984D01*
X8331611Y-12132984D02*
X8283992Y-12132984D01*
X8283992Y-12132984D02*
X8264944Y-12123460D01*
X8264944Y-12123460D02*
X8255420Y-12104412D01*
X8255420Y-12104412D02*
X8255420Y-12085365D01*
X8255420Y-12085365D02*
X8264944Y-12066317D01*
X8264944Y-12066317D02*
X8283992Y-12056793D01*
X8283992Y-12056793D02*
X8331611Y-12056793D01*
X8331611Y-12056793D02*
X8350658Y-12047269D01*
X8417325Y-11999650D02*
X8493515Y-11999650D01*
X8445896Y-11932984D02*
X8445896Y-12104412D01*
X8445896Y-12104412D02*
X8455420Y-12123460D01*
X8455420Y-12123460D02*
X8474468Y-12132984D01*
X8474468Y-12132984D02*
X8493515Y-12132984D01*
X8636373Y-12123460D02*
X8617325Y-12132984D01*
X8617325Y-12132984D02*
X8579230Y-12132984D01*
X8579230Y-12132984D02*
X8560182Y-12123460D01*
X8560182Y-12123460D02*
X8550658Y-12104412D01*
X8550658Y-12104412D02*
X8550658Y-12028222D01*
X8550658Y-12028222D02*
X8560182Y-12009174D01*
X8560182Y-12009174D02*
X8579230Y-11999650D01*
X8579230Y-11999650D02*
X8617325Y-11999650D01*
X8617325Y-11999650D02*
X8636373Y-12009174D01*
X8636373Y-12009174D02*
X8645896Y-12028222D01*
X8645896Y-12028222D02*
X8645896Y-12047269D01*
X8645896Y-12047269D02*
X8550658Y-12066317D01*
X8817325Y-12132984D02*
X8817325Y-11932984D01*
X8817325Y-12123460D02*
X8798277Y-12132984D01*
X8798277Y-12132984D02*
X8760182Y-12132984D01*
X8760182Y-12132984D02*
X8741135Y-12123460D01*
X8741135Y-12123460D02*
X8731611Y-12113936D01*
X8731611Y-12113936D02*
X8722087Y-12094888D01*
X8722087Y-12094888D02*
X8722087Y-12037746D01*
X8722087Y-12037746D02*
X8731611Y-12018698D01*
X8731611Y-12018698D02*
X8741135Y-12009174D01*
X8741135Y-12009174D02*
X8760182Y-11999650D01*
X8760182Y-11999650D02*
X8798277Y-11999650D01*
X8798277Y-11999650D02*
X8817325Y-12009174D01*
X8893516Y-12209174D02*
X8903039Y-12199650D01*
X8903039Y-12199650D02*
X8922087Y-12171079D01*
X8922087Y-12171079D02*
X8931611Y-12152031D01*
X8931611Y-12152031D02*
X8941135Y-12123460D01*
X8941135Y-12123460D02*
X8950658Y-12075841D01*
X8950658Y-12075841D02*
X8950658Y-12037746D01*
X8950658Y-12037746D02*
X8941135Y-11990127D01*
X8941135Y-11990127D02*
X8931611Y-11961555D01*
X8931611Y-11961555D02*
X8922087Y-11942508D01*
X8922087Y-11942508D02*
X8903039Y-11913936D01*
X8903039Y-11913936D02*
X8893516Y-11904412D01*
X2108211Y-12432211D02*
X2108211Y-12290789D01*
X1966789Y-12290789D01*
X1966789Y-12432211D01*
X2108211Y-12432211D01*
X2483991Y-12319650D02*
X2483991Y-12452984D01*
X2436372Y-12243460D02*
X2388753Y-12386317D01*
X2388753Y-12386317D02*
X2512563Y-12386317D01*
X2588753Y-12433936D02*
X2598277Y-12443460D01*
X2598277Y-12443460D02*
X2588753Y-12452984D01*
X2588753Y-12452984D02*
X2579229Y-12443460D01*
X2579229Y-12443460D02*
X2588753Y-12433936D01*
X2588753Y-12433936D02*
X2588753Y-12452984D01*
X2712563Y-12338698D02*
X2693515Y-12329174D01*
X2693515Y-12329174D02*
X2683991Y-12319650D01*
X2683991Y-12319650D02*
X2674467Y-12300603D01*
X2674467Y-12300603D02*
X2674467Y-12291079D01*
X2674467Y-12291079D02*
X2683991Y-12272031D01*
X2683991Y-12272031D02*
X2693515Y-12262508D01*
X2693515Y-12262508D02*
X2712563Y-12252984D01*
X2712563Y-12252984D02*
X2750658Y-12252984D01*
X2750658Y-12252984D02*
X2769705Y-12262508D01*
X2769705Y-12262508D02*
X2779229Y-12272031D01*
X2779229Y-12272031D02*
X2788753Y-12291079D01*
X2788753Y-12291079D02*
X2788753Y-12300603D01*
X2788753Y-12300603D02*
X2779229Y-12319650D01*
X2779229Y-12319650D02*
X2769705Y-12329174D01*
X2769705Y-12329174D02*
X2750658Y-12338698D01*
X2750658Y-12338698D02*
X2712563Y-12338698D01*
X2712563Y-12338698D02*
X2693515Y-12348222D01*
X2693515Y-12348222D02*
X2683991Y-12357746D01*
X2683991Y-12357746D02*
X2674467Y-12376793D01*
X2674467Y-12376793D02*
X2674467Y-12414888D01*
X2674467Y-12414888D02*
X2683991Y-12433936D01*
X2683991Y-12433936D02*
X2693515Y-12443460D01*
X2693515Y-12443460D02*
X2712563Y-12452984D01*
X2712563Y-12452984D02*
X2750658Y-12452984D01*
X2750658Y-12452984D02*
X2769705Y-12443460D01*
X2769705Y-12443460D02*
X2779229Y-12433936D01*
X2779229Y-12433936D02*
X2788753Y-12414888D01*
X2788753Y-12414888D02*
X2788753Y-12376793D01*
X2788753Y-12376793D02*
X2779229Y-12357746D01*
X2779229Y-12357746D02*
X2769705Y-12348222D01*
X2769705Y-12348222D02*
X2750658Y-12338698D01*
X2912562Y-12252984D02*
X2931610Y-12252984D01*
X2931610Y-12252984D02*
X2950658Y-12262508D01*
X2950658Y-12262508D02*
X2960182Y-12272031D01*
X2960182Y-12272031D02*
X2969705Y-12291079D01*
X2969705Y-12291079D02*
X2979229Y-12329174D01*
X2979229Y-12329174D02*
X2979229Y-12376793D01*
X2979229Y-12376793D02*
X2969705Y-12414888D01*
X2969705Y-12414888D02*
X2960182Y-12433936D01*
X2960182Y-12433936D02*
X2950658Y-12443460D01*
X2950658Y-12443460D02*
X2931610Y-12452984D01*
X2931610Y-12452984D02*
X2912562Y-12452984D01*
X2912562Y-12452984D02*
X2893515Y-12443460D01*
X2893515Y-12443460D02*
X2883991Y-12433936D01*
X2883991Y-12433936D02*
X2874467Y-12414888D01*
X2874467Y-12414888D02*
X2864943Y-12376793D01*
X2864943Y-12376793D02*
X2864943Y-12329174D01*
X2864943Y-12329174D02*
X2874467Y-12291079D01*
X2874467Y-12291079D02*
X2883991Y-12272031D01*
X2883991Y-12272031D02*
X2893515Y-12262508D01*
X2893515Y-12262508D02*
X2912562Y-12252984D01*
X3103039Y-12252984D02*
X3122086Y-12252984D01*
X3122086Y-12252984D02*
X3141134Y-12262508D01*
X3141134Y-12262508D02*
X3150658Y-12272031D01*
X3150658Y-12272031D02*
X3160182Y-12291079D01*
X3160182Y-12291079D02*
X3169705Y-12329174D01*
X3169705Y-12329174D02*
X3169705Y-12376793D01*
X3169705Y-12376793D02*
X3160182Y-12414888D01*
X3160182Y-12414888D02*
X3150658Y-12433936D01*
X3150658Y-12433936D02*
X3141134Y-12443460D01*
X3141134Y-12443460D02*
X3122086Y-12452984D01*
X3122086Y-12452984D02*
X3103039Y-12452984D01*
X3103039Y-12452984D02*
X3083991Y-12443460D01*
X3083991Y-12443460D02*
X3074467Y-12433936D01*
X3074467Y-12433936D02*
X3064943Y-12414888D01*
X3064943Y-12414888D02*
X3055420Y-12376793D01*
X3055420Y-12376793D02*
X3055420Y-12329174D01*
X3055420Y-12329174D02*
X3064943Y-12291079D01*
X3064943Y-12291079D02*
X3074467Y-12272031D01*
X3074467Y-12272031D02*
X3083991Y-12262508D01*
X3083991Y-12262508D02*
X3103039Y-12252984D01*
X3255420Y-12452984D02*
X3255420Y-12319650D01*
X3255420Y-12338698D02*
X3264943Y-12329174D01*
X3264943Y-12329174D02*
X3283991Y-12319650D01*
X3283991Y-12319650D02*
X3312563Y-12319650D01*
X3312563Y-12319650D02*
X3331610Y-12329174D01*
X3331610Y-12329174D02*
X3341134Y-12348222D01*
X3341134Y-12348222D02*
X3341134Y-12452984D01*
X3341134Y-12348222D02*
X3350658Y-12329174D01*
X3350658Y-12329174D02*
X3369705Y-12319650D01*
X3369705Y-12319650D02*
X3398277Y-12319650D01*
X3398277Y-12319650D02*
X3417324Y-12329174D01*
X3417324Y-12329174D02*
X3426848Y-12348222D01*
X3426848Y-12348222D02*
X3426848Y-12452984D01*
X3522086Y-12452984D02*
X3522086Y-12319650D01*
X3522086Y-12338698D02*
X3531610Y-12329174D01*
X3531610Y-12329174D02*
X3550658Y-12319650D01*
X3550658Y-12319650D02*
X3579229Y-12319650D01*
X3579229Y-12319650D02*
X3598277Y-12329174D01*
X3598277Y-12329174D02*
X3607801Y-12348222D01*
X3607801Y-12348222D02*
X3607801Y-12452984D01*
X3607801Y-12348222D02*
X3617324Y-12329174D01*
X3617324Y-12329174D02*
X3636372Y-12319650D01*
X3636372Y-12319650D02*
X3664943Y-12319650D01*
X3664943Y-12319650D02*
X3683991Y-12329174D01*
X3683991Y-12329174D02*
X3693515Y-12348222D01*
X3693515Y-12348222D02*
X3693515Y-12452984D01*
X4083991Y-12243460D02*
X3912563Y-12500603D01*
X4341134Y-12252984D02*
X4360182Y-12252984D01*
X4360182Y-12252984D02*
X4379229Y-12262508D01*
X4379229Y-12262508D02*
X4388753Y-12272031D01*
X4388753Y-12272031D02*
X4398277Y-12291079D01*
X4398277Y-12291079D02*
X4407801Y-12329174D01*
X4407801Y-12329174D02*
X4407801Y-12376793D01*
X4407801Y-12376793D02*
X4398277Y-12414888D01*
X4398277Y-12414888D02*
X4388753Y-12433936D01*
X4388753Y-12433936D02*
X4379229Y-12443460D01*
X4379229Y-12443460D02*
X4360182Y-12452984D01*
X4360182Y-12452984D02*
X4341134Y-12452984D01*
X4341134Y-12452984D02*
X4322087Y-12443460D01*
X4322087Y-12443460D02*
X4312563Y-12433936D01*
X4312563Y-12433936D02*
X4303039Y-12414888D01*
X4303039Y-12414888D02*
X4293515Y-12376793D01*
X4293515Y-12376793D02*
X4293515Y-12329174D01*
X4293515Y-12329174D02*
X4303039Y-12291079D01*
X4303039Y-12291079D02*
X4312563Y-12272031D01*
X4312563Y-12272031D02*
X4322087Y-12262508D01*
X4322087Y-12262508D02*
X4341134Y-12252984D01*
X4493515Y-12433936D02*
X4503039Y-12443460D01*
X4503039Y-12443460D02*
X4493515Y-12452984D01*
X4493515Y-12452984D02*
X4483991Y-12443460D01*
X4483991Y-12443460D02*
X4493515Y-12433936D01*
X4493515Y-12433936D02*
X4493515Y-12452984D01*
X4693515Y-12452984D02*
X4579229Y-12452984D01*
X4636372Y-12452984D02*
X4636372Y-12252984D01*
X4636372Y-12252984D02*
X4617325Y-12281555D01*
X4617325Y-12281555D02*
X4598277Y-12300603D01*
X4598277Y-12300603D02*
X4579229Y-12310127D01*
X4807801Y-12338698D02*
X4788753Y-12329174D01*
X4788753Y-12329174D02*
X4779229Y-12319650D01*
X4779229Y-12319650D02*
X4769706Y-12300603D01*
X4769706Y-12300603D02*
X4769706Y-12291079D01*
X4769706Y-12291079D02*
X4779229Y-12272031D01*
X4779229Y-12272031D02*
X4788753Y-12262508D01*
X4788753Y-12262508D02*
X4807801Y-12252984D01*
X4807801Y-12252984D02*
X4845896Y-12252984D01*
X4845896Y-12252984D02*
X4864944Y-12262508D01*
X4864944Y-12262508D02*
X4874468Y-12272031D01*
X4874468Y-12272031D02*
X4883991Y-12291079D01*
X4883991Y-12291079D02*
X4883991Y-12300603D01*
X4883991Y-12300603D02*
X4874468Y-12319650D01*
X4874468Y-12319650D02*
X4864944Y-12329174D01*
X4864944Y-12329174D02*
X4845896Y-12338698D01*
X4845896Y-12338698D02*
X4807801Y-12338698D01*
X4807801Y-12338698D02*
X4788753Y-12348222D01*
X4788753Y-12348222D02*
X4779229Y-12357746D01*
X4779229Y-12357746D02*
X4769706Y-12376793D01*
X4769706Y-12376793D02*
X4769706Y-12414888D01*
X4769706Y-12414888D02*
X4779229Y-12433936D01*
X4779229Y-12433936D02*
X4788753Y-12443460D01*
X4788753Y-12443460D02*
X4807801Y-12452984D01*
X4807801Y-12452984D02*
X4845896Y-12452984D01*
X4845896Y-12452984D02*
X4864944Y-12443460D01*
X4864944Y-12443460D02*
X4874468Y-12433936D01*
X4874468Y-12433936D02*
X4883991Y-12414888D01*
X4883991Y-12414888D02*
X4883991Y-12376793D01*
X4883991Y-12376793D02*
X4874468Y-12357746D01*
X4874468Y-12357746D02*
X4864944Y-12348222D01*
X4864944Y-12348222D02*
X4845896Y-12338698D01*
X4979229Y-12452984D02*
X5017325Y-12452984D01*
X5017325Y-12452984D02*
X5036372Y-12443460D01*
X5036372Y-12443460D02*
X5045896Y-12433936D01*
X5045896Y-12433936D02*
X5064944Y-12405365D01*
X5064944Y-12405365D02*
X5074468Y-12367269D01*
X5074468Y-12367269D02*
X5074468Y-12291079D01*
X5074468Y-12291079D02*
X5064944Y-12272031D01*
X5064944Y-12272031D02*
X5055420Y-12262508D01*
X5055420Y-12262508D02*
X5036372Y-12252984D01*
X5036372Y-12252984D02*
X4998277Y-12252984D01*
X4998277Y-12252984D02*
X4979229Y-12262508D01*
X4979229Y-12262508D02*
X4969706Y-12272031D01*
X4969706Y-12272031D02*
X4960182Y-12291079D01*
X4960182Y-12291079D02*
X4960182Y-12338698D01*
X4960182Y-12338698D02*
X4969706Y-12357746D01*
X4969706Y-12357746D02*
X4979229Y-12367269D01*
X4979229Y-12367269D02*
X4998277Y-12376793D01*
X4998277Y-12376793D02*
X5036372Y-12376793D01*
X5036372Y-12376793D02*
X5055420Y-12367269D01*
X5055420Y-12367269D02*
X5064944Y-12357746D01*
X5064944Y-12357746D02*
X5074468Y-12338698D01*
X5198277Y-12252984D02*
X5217325Y-12252984D01*
X5217325Y-12252984D02*
X5236372Y-12262508D01*
X5236372Y-12262508D02*
X5245896Y-12272031D01*
X5245896Y-12272031D02*
X5255420Y-12291079D01*
X5255420Y-12291079D02*
X5264944Y-12329174D01*
X5264944Y-12329174D02*
X5264944Y-12376793D01*
X5264944Y-12376793D02*
X5255420Y-12414888D01*
X5255420Y-12414888D02*
X5245896Y-12433936D01*
X5245896Y-12433936D02*
X5236372Y-12443460D01*
X5236372Y-12443460D02*
X5217325Y-12452984D01*
X5217325Y-12452984D02*
X5198277Y-12452984D01*
X5198277Y-12452984D02*
X5179229Y-12443460D01*
X5179229Y-12443460D02*
X5169706Y-12433936D01*
X5169706Y-12433936D02*
X5160182Y-12414888D01*
X5160182Y-12414888D02*
X5150658Y-12376793D01*
X5150658Y-12376793D02*
X5150658Y-12329174D01*
X5150658Y-12329174D02*
X5160182Y-12291079D01*
X5160182Y-12291079D02*
X5169706Y-12272031D01*
X5169706Y-12272031D02*
X5179229Y-12262508D01*
X5179229Y-12262508D02*
X5198277Y-12252984D01*
X5341134Y-12252984D02*
X5341134Y-12291079D01*
X5417325Y-12252984D02*
X5417325Y-12291079D01*
X5712563Y-12529174D02*
X5703039Y-12519650D01*
X5703039Y-12519650D02*
X5683991Y-12491079D01*
X5683991Y-12491079D02*
X5674468Y-12472031D01*
X5674468Y-12472031D02*
X5664944Y-12443460D01*
X5664944Y-12443460D02*
X5655420Y-12395841D01*
X5655420Y-12395841D02*
X5655420Y-12357746D01*
X5655420Y-12357746D02*
X5664944Y-12310127D01*
X5664944Y-12310127D02*
X5674468Y-12281555D01*
X5674468Y-12281555D02*
X5683991Y-12262508D01*
X5683991Y-12262508D02*
X5703039Y-12233936D01*
X5703039Y-12233936D02*
X5712563Y-12224412D01*
X5874468Y-12252984D02*
X5836372Y-12252984D01*
X5836372Y-12252984D02*
X5817325Y-12262508D01*
X5817325Y-12262508D02*
X5807801Y-12272031D01*
X5807801Y-12272031D02*
X5788753Y-12300603D01*
X5788753Y-12300603D02*
X5779229Y-12338698D01*
X5779229Y-12338698D02*
X5779229Y-12414888D01*
X5779229Y-12414888D02*
X5788753Y-12433936D01*
X5788753Y-12433936D02*
X5798277Y-12443460D01*
X5798277Y-12443460D02*
X5817325Y-12452984D01*
X5817325Y-12452984D02*
X5855420Y-12452984D01*
X5855420Y-12452984D02*
X5874468Y-12443460D01*
X5874468Y-12443460D02*
X5883991Y-12433936D01*
X5883991Y-12433936D02*
X5893515Y-12414888D01*
X5893515Y-12414888D02*
X5893515Y-12367269D01*
X5893515Y-12367269D02*
X5883991Y-12348222D01*
X5883991Y-12348222D02*
X5874468Y-12338698D01*
X5874468Y-12338698D02*
X5855420Y-12329174D01*
X5855420Y-12329174D02*
X5817325Y-12329174D01*
X5817325Y-12329174D02*
X5798277Y-12338698D01*
X5798277Y-12338698D02*
X5788753Y-12348222D01*
X5788753Y-12348222D02*
X5779229Y-12367269D01*
X6131610Y-12452984D02*
X6131610Y-12252984D01*
X6217325Y-12452984D02*
X6217325Y-12348222D01*
X6217325Y-12348222D02*
X6207801Y-12329174D01*
X6207801Y-12329174D02*
X6188753Y-12319650D01*
X6188753Y-12319650D02*
X6160182Y-12319650D01*
X6160182Y-12319650D02*
X6141134Y-12329174D01*
X6141134Y-12329174D02*
X6131610Y-12338698D01*
X6341134Y-12452984D02*
X6322087Y-12443460D01*
X6322087Y-12443460D02*
X6312563Y-12433936D01*
X6312563Y-12433936D02*
X6303039Y-12414888D01*
X6303039Y-12414888D02*
X6303039Y-12357746D01*
X6303039Y-12357746D02*
X6312563Y-12338698D01*
X6312563Y-12338698D02*
X6322087Y-12329174D01*
X6322087Y-12329174D02*
X6341134Y-12319650D01*
X6341134Y-12319650D02*
X6369706Y-12319650D01*
X6369706Y-12319650D02*
X6388753Y-12329174D01*
X6388753Y-12329174D02*
X6398277Y-12338698D01*
X6398277Y-12338698D02*
X6407801Y-12357746D01*
X6407801Y-12357746D02*
X6407801Y-12414888D01*
X6407801Y-12414888D02*
X6398277Y-12433936D01*
X6398277Y-12433936D02*
X6388753Y-12443460D01*
X6388753Y-12443460D02*
X6369706Y-12452984D01*
X6369706Y-12452984D02*
X6341134Y-12452984D01*
X6522087Y-12452984D02*
X6503039Y-12443460D01*
X6503039Y-12443460D02*
X6493515Y-12424412D01*
X6493515Y-12424412D02*
X6493515Y-12252984D01*
X6674468Y-12443460D02*
X6655420Y-12452984D01*
X6655420Y-12452984D02*
X6617325Y-12452984D01*
X6617325Y-12452984D02*
X6598277Y-12443460D01*
X6598277Y-12443460D02*
X6588753Y-12424412D01*
X6588753Y-12424412D02*
X6588753Y-12348222D01*
X6588753Y-12348222D02*
X6598277Y-12329174D01*
X6598277Y-12329174D02*
X6617325Y-12319650D01*
X6617325Y-12319650D02*
X6655420Y-12319650D01*
X6655420Y-12319650D02*
X6674468Y-12329174D01*
X6674468Y-12329174D02*
X6683991Y-12348222D01*
X6683991Y-12348222D02*
X6683991Y-12367269D01*
X6683991Y-12367269D02*
X6588753Y-12386317D01*
X6760182Y-12443460D02*
X6779230Y-12452984D01*
X6779230Y-12452984D02*
X6817325Y-12452984D01*
X6817325Y-12452984D02*
X6836372Y-12443460D01*
X6836372Y-12443460D02*
X6845896Y-12424412D01*
X6845896Y-12424412D02*
X6845896Y-12414888D01*
X6845896Y-12414888D02*
X6836372Y-12395841D01*
X6836372Y-12395841D02*
X6817325Y-12386317D01*
X6817325Y-12386317D02*
X6788753Y-12386317D01*
X6788753Y-12386317D02*
X6769706Y-12376793D01*
X6769706Y-12376793D02*
X6760182Y-12357746D01*
X6760182Y-12357746D02*
X6760182Y-12348222D01*
X6760182Y-12348222D02*
X6769706Y-12329174D01*
X6769706Y-12329174D02*
X6788753Y-12319650D01*
X6788753Y-12319650D02*
X6817325Y-12319650D01*
X6817325Y-12319650D02*
X6836372Y-12329174D01*
X6912563Y-12529174D02*
X6922087Y-12519650D01*
X6922087Y-12519650D02*
X6941134Y-12491079D01*
X6941134Y-12491079D02*
X6950658Y-12472031D01*
X6950658Y-12472031D02*
X6960182Y-12443460D01*
X6960182Y-12443460D02*
X6969706Y-12395841D01*
X6969706Y-12395841D02*
X6969706Y-12357746D01*
X6969706Y-12357746D02*
X6960182Y-12310127D01*
X6960182Y-12310127D02*
X6950658Y-12281555D01*
X6950658Y-12281555D02*
X6941134Y-12262508D01*
X6941134Y-12262508D02*
X6922087Y-12233936D01*
X6922087Y-12233936D02*
X6912563Y-12224412D01*
X7274468Y-12529174D02*
X7264944Y-12519650D01*
X7264944Y-12519650D02*
X7245896Y-12491079D01*
X7245896Y-12491079D02*
X7236372Y-12472031D01*
X7236372Y-12472031D02*
X7226849Y-12443460D01*
X7226849Y-12443460D02*
X7217325Y-12395841D01*
X7217325Y-12395841D02*
X7217325Y-12357746D01*
X7217325Y-12357746D02*
X7226849Y-12310127D01*
X7226849Y-12310127D02*
X7236372Y-12281555D01*
X7236372Y-12281555D02*
X7245896Y-12262508D01*
X7245896Y-12262508D02*
X7264944Y-12233936D01*
X7264944Y-12233936D02*
X7274468Y-12224412D01*
X7350658Y-12319650D02*
X7350658Y-12452984D01*
X7350658Y-12338698D02*
X7360182Y-12329174D01*
X7360182Y-12329174D02*
X7379230Y-12319650D01*
X7379230Y-12319650D02*
X7407801Y-12319650D01*
X7407801Y-12319650D02*
X7426849Y-12329174D01*
X7426849Y-12329174D02*
X7436372Y-12348222D01*
X7436372Y-12348222D02*
X7436372Y-12452984D01*
X7560182Y-12452984D02*
X7541134Y-12443460D01*
X7541134Y-12443460D02*
X7531611Y-12433936D01*
X7531611Y-12433936D02*
X7522087Y-12414888D01*
X7522087Y-12414888D02*
X7522087Y-12357746D01*
X7522087Y-12357746D02*
X7531611Y-12338698D01*
X7531611Y-12338698D02*
X7541134Y-12329174D01*
X7541134Y-12329174D02*
X7560182Y-12319650D01*
X7560182Y-12319650D02*
X7588753Y-12319650D01*
X7588753Y-12319650D02*
X7607801Y-12329174D01*
X7607801Y-12329174D02*
X7617325Y-12338698D01*
X7617325Y-12338698D02*
X7626849Y-12357746D01*
X7626849Y-12357746D02*
X7626849Y-12414888D01*
X7626849Y-12414888D02*
X7617325Y-12433936D01*
X7617325Y-12433936D02*
X7607801Y-12443460D01*
X7607801Y-12443460D02*
X7588753Y-12452984D01*
X7588753Y-12452984D02*
X7560182Y-12452984D01*
X7683992Y-12319650D02*
X7760182Y-12319650D01*
X7712563Y-12252984D02*
X7712563Y-12424412D01*
X7712563Y-12424412D02*
X7722087Y-12443460D01*
X7722087Y-12443460D02*
X7741134Y-12452984D01*
X7741134Y-12452984D02*
X7760182Y-12452984D01*
X7979230Y-12319650D02*
X7979230Y-12519650D01*
X7979230Y-12329174D02*
X7998277Y-12319650D01*
X7998277Y-12319650D02*
X8036373Y-12319650D01*
X8036373Y-12319650D02*
X8055420Y-12329174D01*
X8055420Y-12329174D02*
X8064944Y-12338698D01*
X8064944Y-12338698D02*
X8074468Y-12357746D01*
X8074468Y-12357746D02*
X8074468Y-12414888D01*
X8074468Y-12414888D02*
X8064944Y-12433936D01*
X8064944Y-12433936D02*
X8055420Y-12443460D01*
X8055420Y-12443460D02*
X8036373Y-12452984D01*
X8036373Y-12452984D02*
X7998277Y-12452984D01*
X7998277Y-12452984D02*
X7979230Y-12443460D01*
X8188753Y-12452984D02*
X8169706Y-12443460D01*
X8169706Y-12443460D02*
X8160182Y-12424412D01*
X8160182Y-12424412D02*
X8160182Y-12252984D01*
X8350658Y-12452984D02*
X8350658Y-12348222D01*
X8350658Y-12348222D02*
X8341134Y-12329174D01*
X8341134Y-12329174D02*
X8322087Y-12319650D01*
X8322087Y-12319650D02*
X8283992Y-12319650D01*
X8283992Y-12319650D02*
X8264944Y-12329174D01*
X8350658Y-12443460D02*
X8331611Y-12452984D01*
X8331611Y-12452984D02*
X8283992Y-12452984D01*
X8283992Y-12452984D02*
X8264944Y-12443460D01*
X8264944Y-12443460D02*
X8255420Y-12424412D01*
X8255420Y-12424412D02*
X8255420Y-12405365D01*
X8255420Y-12405365D02*
X8264944Y-12386317D01*
X8264944Y-12386317D02*
X8283992Y-12376793D01*
X8283992Y-12376793D02*
X8331611Y-12376793D01*
X8331611Y-12376793D02*
X8350658Y-12367269D01*
X8417325Y-12319650D02*
X8493515Y-12319650D01*
X8445896Y-12252984D02*
X8445896Y-12424412D01*
X8445896Y-12424412D02*
X8455420Y-12443460D01*
X8455420Y-12443460D02*
X8474468Y-12452984D01*
X8474468Y-12452984D02*
X8493515Y-12452984D01*
X8636373Y-12443460D02*
X8617325Y-12452984D01*
X8617325Y-12452984D02*
X8579230Y-12452984D01*
X8579230Y-12452984D02*
X8560182Y-12443460D01*
X8560182Y-12443460D02*
X8550658Y-12424412D01*
X8550658Y-12424412D02*
X8550658Y-12348222D01*
X8550658Y-12348222D02*
X8560182Y-12329174D01*
X8560182Y-12329174D02*
X8579230Y-12319650D01*
X8579230Y-12319650D02*
X8617325Y-12319650D01*
X8617325Y-12319650D02*
X8636373Y-12329174D01*
X8636373Y-12329174D02*
X8645896Y-12348222D01*
X8645896Y-12348222D02*
X8645896Y-12367269D01*
X8645896Y-12367269D02*
X8550658Y-12386317D01*
X8817325Y-12452984D02*
X8817325Y-12252984D01*
X8817325Y-12443460D02*
X8798277Y-12452984D01*
X8798277Y-12452984D02*
X8760182Y-12452984D01*
X8760182Y-12452984D02*
X8741135Y-12443460D01*
X8741135Y-12443460D02*
X8731611Y-12433936D01*
X8731611Y-12433936D02*
X8722087Y-12414888D01*
X8722087Y-12414888D02*
X8722087Y-12357746D01*
X8722087Y-12357746D02*
X8731611Y-12338698D01*
X8731611Y-12338698D02*
X8741135Y-12329174D01*
X8741135Y-12329174D02*
X8760182Y-12319650D01*
X8760182Y-12319650D02*
X8798277Y-12319650D01*
X8798277Y-12319650D02*
X8817325Y-12329174D01*
X8893516Y-12529174D02*
X8903039Y-12519650D01*
X8903039Y-12519650D02*
X8922087Y-12491079D01*
X8922087Y-12491079D02*
X8931611Y-12472031D01*
X8931611Y-12472031D02*
X8941135Y-12443460D01*
X8941135Y-12443460D02*
X8950658Y-12395841D01*
X8950658Y-12395841D02*
X8950658Y-12357746D01*
X8950658Y-12357746D02*
X8941135Y-12310127D01*
X8941135Y-12310127D02*
X8931611Y-12281555D01*
X8931611Y-12281555D02*
X8922087Y-12262508D01*
X8922087Y-12262508D02*
X8903039Y-12233936D01*
X8903039Y-12233936D02*
X8893516Y-12224412D01*
M02*
