M48
; DRILL file {KiCad 9.0.0} date 2025-03-30T22:48:25+0900
; FORMAT={-:-/ absolute / metric / decimal}
; #@! TF.CreationDate,2025-03-30T22:48:25+09:00
; #@! TF.GenerationSoftware,Kicad,Pcbnew,9.0.0
; #@! TF.FileFunction,Plated,1,2,PTH
FMAT,2
METRIC
; #@! TA.AperFunction,Plated,PTH,ViaDrill
T1C0.300
; #@! TA.AperFunction,Plated,PTH,ComponentDrill
T2C0.500
; #@! TA.AperFunction,Plated,PTH,ComponentDrill
T3C0.813
; #@! TA.AperFunction,Plated,PTH,ComponentDrill
T4C1.000
%
G90
G05
T1
X23.604Y-45.951
X23.604Y-47.341
X25.127Y-79.744
X25.134Y-88.334
X25.756Y-77.7
X25.756Y-80.238
X28.547Y-86.05
X28.75Y-90.9
X28.8Y-98.305
X29.485Y-106.01
X30.1Y-48.1
X32.02Y-85.265
X35.051Y-51.031
X35.051Y-53.152
X35.123Y-106.01
X36.853Y-52.476
X36.853Y-56.227
X41.017Y-56.227
X41.07Y-79.448
X42.95Y-80.238
X46.982Y-68.09
X46.982Y-79.448
X49.804Y-94.9
X49.85Y-85.15
X50.6Y-65.45
X50.604Y-88.039
X50.606Y-94.7
X51.281Y-94.258
X51.75Y-76.486
X51.999Y-44.522
X51.999Y-47.221
X52.019Y-48.491
X52.019Y-52.323
X52.519Y-57.25
X52.53Y-73.524
X52.53Y-91.3
X52.642Y-45.951
X52.642Y-49.761
X52.755Y-96.6
X52.755Y-100.285
X53.027Y-95.205
X53.228Y-70.95
X53.247Y-42.119
X54.424Y-62.151
X56.044Y-60.697
X56.196Y-88.039
X56.828Y-51.577
X57.604Y-52.323
X66.6Y-60.5
X67.131Y-51.014
X70.163Y-61.762
X72.46Y-61.762
X72.561Y-64.748
X77.267Y-62.364
X78.49Y-59.321
X78.55Y-74.097
X78.892Y-51.014
X78.892Y-55.452
X79.86Y-54.424
X83.25Y-49.8
X83.877Y-44.815
X84.336Y-74.097
X84.95Y-53.166
X85.95Y-61.708
X87.22Y-64.915
X87.48Y-51.162
X90.848Y-55.3
X92.827Y-44.815
X96.003Y-61.708
X97.7Y-51.162
X106.772Y-59.754
X107.1Y-56.413
T3
X39.165Y-90.125
X39.165Y-92.665
X39.165Y-95.205
X39.165Y-97.745
X39.165Y-100.285
X39.165Y-102.825
X39.165Y-105.365
X39.184Y-38.331
X39.184Y-40.871
X39.184Y-43.411
X39.184Y-45.951
X39.184Y-48.491
X39.184Y-51.031
X39.184Y-53.571
X54.405Y-90.125
X54.405Y-92.665
X54.405Y-95.205
X54.405Y-97.745
X54.405Y-100.285
X54.405Y-102.825
X54.405Y-105.365
X54.424Y-38.331
X54.424Y-40.871
X54.424Y-43.411
X54.424Y-45.951
X54.424Y-48.491
X54.424Y-51.031
X54.424Y-53.571
T4
X23.585Y-76.165
X23.585Y-78.705
X23.585Y-81.245
X23.585Y-83.785
X23.585Y-93.225
X23.585Y-95.765
X23.585Y-98.305
X23.585Y-100.845
X23.604Y-34.631
X23.604Y-37.171
X23.604Y-39.711
X23.604Y-42.251
X23.604Y-49.776
X23.604Y-52.316
X23.604Y-54.856
X23.604Y-57.396
X41.07Y-88.433
X42.359Y-43.729
X42.359Y-45.634
X42.95Y-88.433
X50.639Y-55.263
X51.23Y-98.062
X51.23Y-99.967
X52.519Y-55.263
X57.585Y-68.425
X57.585Y-70.965
X57.585Y-73.505
X57.585Y-76.045
X57.585Y-85.125
X57.585Y-87.665
X57.585Y-90.205
X57.585Y-92.745
X57.604Y-42.771
X57.604Y-45.311
X57.604Y-47.851
X57.604Y-50.391
X57.604Y-57.831
X57.604Y-60.371
X57.604Y-62.911
X57.604Y-65.451
X79.86Y-56.604
X82.4Y-56.604
X84.94Y-56.604
X85.95Y-59.754
X87.48Y-56.604
X88.49Y-59.754
X91.03Y-59.754
X93.57Y-59.754
T2
G00X29.154Y-35.821
M15
G01X29.454Y-35.821
M16
G05
G00X29.635Y-107.895
M15
G01X29.335Y-107.895
M16
G05
G00X31.654Y-35.821
M15
G01X31.954Y-35.821
M16
G05
G00X32.135Y-107.895
M15
G01X31.835Y-107.895
M16
G05
G00X34.154Y-35.821
M15
G01X34.454Y-35.821
M16
G05
G00X34.635Y-107.895
M15
G01X34.335Y-107.895
M16
G05
M30
