%TF.GenerationSoftware,KiCad,Pcbnew,9.0.0*%
%TF.CreationDate,2025-03-30T22:48:25+09:00*%
%TF.ProjectId,nofy,6e6f6679-2e6b-4696-9361-645f70636258,rev?*%
%TF.SameCoordinates,Original*%
%TF.FileFunction,Drillmap*%
%TF.FilePolarity,Positive*%
%FSLAX45Y45*%
G04 Gerber Fmt 4.5, Leading zero omitted, Abs format (unit mm)*
G04 Created by KiCad (PCBNEW 9.0.0) date 2025-03-30 22:48:25*
%MOMM*%
%LPD*%
G01*
G04 APERTURE LIST*
%ADD10C,0.050000*%
%ADD11C,0.120000*%
%ADD12C,0.200000*%
%ADD13C,0.100000*%
G04 APERTURE END LIST*
D10*
X5880000Y-7410000D02*
X5880000Y-10725000D01*
X5920000Y-6970000D02*
G75*
G02*
X5880000Y-6970000I-20000J0D01*
G01*
X5880000Y-7410000D02*
G75*
G02*
X5920000Y-7410000I20000J0D01*
G01*
X3790000Y-6710000D02*
G75*
G02*
X3790000Y-6670000I0J20000D01*
G01*
X2490000Y-6670000D02*
G75*
G02*
X2490000Y-6710000I0J-20000D01*
G01*
X9300000Y-5800000D02*
G75*
G02*
X9300000Y-5840000I0J-20000D01*
G01*
X10870000Y-5840000D02*
G75*
G02*
X10870000Y-5800000I0J20000D01*
G01*
X10870000Y-5800000D02*
X11350000Y-5800000D01*
X10870000Y-7510000D02*
X6020000Y-7510000D01*
X3650000Y-10925000D02*
G75*
G02*
X3750000Y-10825000I100000J0D01*
G01*
X2231066Y-3421421D02*
G75*
G02*
X2331066Y-3321416I100004J1D01*
G01*
X6490000Y-5800000D02*
X9300000Y-5800000D01*
X5889645Y-6570000D02*
G75*
G02*
X5789645Y-6670005I-100005J0D01*
G01*
X2230000Y-6810000D02*
G75*
G02*
X2330000Y-6710000I100000J0D01*
G01*
X2650000Y-10215000D02*
X2330000Y-10215000D01*
X10970000Y-7410000D02*
G75*
G02*
X10870000Y-7510000I-100000J0D01*
G01*
X3529645Y-3321421D02*
G75*
G02*
X3629639Y-3421421I-5J-99999D01*
G01*
X3629645Y-3440711D02*
X3629644Y-3421421D01*
X6020000Y-7510000D02*
G75*
G02*
X5920005Y-7410000I0J99995D01*
G01*
X11450000Y-5700000D02*
G75*
G02*
X11350000Y-5799999I-100000J1D01*
G01*
X10970000Y-7410000D02*
X10970000Y-5940000D01*
X11350000Y-4120000D02*
G75*
G02*
X11450005Y-4220000I0J-100005D01*
G01*
X5750355Y-4150711D02*
X5790355Y-4150711D01*
X2330000Y-10215000D02*
G75*
G02*
X2230000Y-10115000I0J100000D01*
G01*
X2331065Y-3321421D02*
X3529645Y-3321421D01*
X5920000Y-6970000D02*
X5920000Y-5940000D01*
X6490000Y-5800000D02*
G75*
G02*
X6390000Y-5700000I0J100000D01*
G01*
X10870000Y-5840000D02*
G75*
G02*
X10970000Y-5940000I0J-100000D01*
G01*
X2330358Y-6670000D02*
X2490000Y-6670000D01*
X3729645Y-3540711D02*
X5550355Y-3540711D01*
X2850000Y-11045000D02*
G75*
G02*
X2750000Y-10945000I0J100000D01*
G01*
X5550355Y-3541421D02*
G75*
G02*
X5650359Y-3641421I5J-99999D01*
G01*
X3729644Y-3540711D02*
G75*
G02*
X3629639Y-3440711I-5J100001D01*
G01*
X6390000Y-4220000D02*
X6390000Y-5700000D01*
X2230000Y-10115000D02*
X2230000Y-6810000D01*
X6020000Y-5840000D02*
X9300000Y-5840000D01*
X5780000Y-6710000D02*
G75*
G02*
X5880000Y-6810000I0J-100000D01*
G01*
X3650000Y-10945000D02*
G75*
G02*
X3550000Y-11045000I-100000J0D01*
G01*
X3790000Y-6710000D02*
X5780000Y-6710000D01*
X3750000Y-10825000D02*
X5780000Y-10825000D01*
X5650355Y-3641421D02*
X5650355Y-4050711D01*
X2650000Y-10215000D02*
G75*
G02*
X2750000Y-10315000I0J-100000D01*
G01*
X6490000Y-4119999D02*
X11350000Y-4120000D01*
X5790355Y-4150711D02*
G75*
G02*
X5890359Y-4250711I5J-99999D01*
G01*
X2330000Y-6710000D02*
X2490000Y-6710000D01*
X5750355Y-4150711D02*
G75*
G02*
X5650359Y-4050711I5J100001D01*
G01*
X3550000Y-11045000D02*
X2850000Y-11045000D01*
X5880000Y-10725000D02*
G75*
G02*
X5780000Y-10825000I-100000J0D01*
G01*
X5920000Y-5940000D02*
G75*
G02*
X6020000Y-5840000I100000J0D01*
G01*
X5880000Y-6810000D02*
X5880000Y-6970000D01*
X2330355Y-6670000D02*
G75*
G02*
X2230360Y-6570000I5J100000D01*
G01*
X6390000Y-4219999D02*
G75*
G02*
X6490000Y-4119995I100000J5D01*
G01*
X2230355Y-6570000D02*
X2231066Y-3421421D01*
X5789645Y-6670000D02*
X3790000Y-6670000D01*
X5890355Y-4250711D02*
X5889644Y-6570000D01*
X2750000Y-10945000D02*
X2750000Y-10315000D01*
X3650000Y-10945000D02*
X3650000Y-10925000D01*
X11450000Y-4220000D02*
X11450000Y-5700711D01*
D11*
X4079975Y-9045325D02*
X4079975Y-8885305D01*
X4148555Y-8816725D02*
X4252695Y-8816725D01*
X4283175Y-9083425D02*
X4118075Y-9083425D01*
X4321275Y-8885305D02*
X4321275Y-9045325D01*
X4882575Y-9984175D02*
X4882575Y-9819075D01*
X4920675Y-9780975D02*
X5080695Y-9780975D01*
X5080695Y-10022275D02*
X4920675Y-10022275D01*
X5149275Y-9849555D02*
X5149275Y-9953695D01*
X4118075Y-9083425D02*
G75*
G02*
X4079975Y-9045325I0J38100D01*
G01*
X4148555Y-8816725D02*
G75*
G02*
X4079975Y-8885305I-43805J-24775D01*
G01*
X4321275Y-8885305D02*
G75*
G02*
X4252695Y-8816725I-24775J43805D01*
G01*
X4321275Y-9045325D02*
G75*
G02*
X4283175Y-9083424I-38099J0D01*
G01*
X4882575Y-9819075D02*
G75*
G02*
X4920675Y-9780975I38100J0D01*
G01*
X4920675Y-10022275D02*
G75*
G02*
X4882575Y-9984175I-1J38099D01*
G01*
X5080695Y-10022275D02*
G75*
G02*
X5149275Y-9953695I43805J24775D01*
G01*
X5149275Y-9849555D02*
G75*
G02*
X5080695Y-9780975I-24775J43805D01*
G01*
X4209585Y-4520055D02*
X4209585Y-4415915D01*
X4278165Y-4347335D02*
X4438185Y-4347335D01*
X4438185Y-4588635D02*
X4278165Y-4588635D01*
X4476285Y-4385435D02*
X4476285Y-4550535D01*
X5037585Y-5484305D02*
X5037585Y-5324285D01*
X5075685Y-5286185D02*
X5240785Y-5286185D01*
X5210305Y-5552885D02*
X5106165Y-5552885D01*
X5278885Y-5324285D02*
X5278885Y-5484305D01*
X4209585Y-4520055D02*
G75*
G02*
X4278165Y-4588635I24775J-43805D01*
G01*
X4278165Y-4347335D02*
G75*
G02*
X4209585Y-4415915I-43805J-24775D01*
G01*
X4438185Y-4347335D02*
G75*
G02*
X4476285Y-4385435I1J-38099D01*
G01*
X4476285Y-4550535D02*
G75*
G02*
X4438185Y-4588635I-38100J0D01*
G01*
X5037585Y-5324285D02*
G75*
G02*
X5075685Y-5286186I38099J0D01*
G01*
X5037585Y-5484305D02*
G75*
G02*
X5106165Y-5552885I24775J-43805D01*
G01*
X5210305Y-5552885D02*
G75*
G02*
X5278885Y-5484305I43805J24775D01*
G01*
X5240785Y-5286185D02*
G75*
G02*
X5278885Y-5324285I0J-38100D01*
G01*
D12*
D13*
X2345360Y-4580110D02*
X2375360Y-4610110D01*
X2375360Y-4580110D02*
X2345360Y-4610110D01*
X2345360Y-4719060D02*
X2375360Y-4749060D01*
X2375360Y-4719060D02*
X2345360Y-4749060D01*
X2497655Y-7959439D02*
X2527655Y-7989439D01*
X2527655Y-7959439D02*
X2497655Y-7989439D01*
X2498370Y-8818420D02*
X2528370Y-8848420D01*
X2528370Y-8818420D02*
X2498370Y-8848420D01*
X2560580Y-7755000D02*
X2590580Y-7785000D01*
X2590580Y-7755000D02*
X2560580Y-7785000D01*
X2560580Y-8008840D02*
X2590580Y-8038840D01*
X2590580Y-8008840D02*
X2560580Y-8038840D01*
X2839720Y-8590000D02*
X2869720Y-8620000D01*
X2869720Y-8590000D02*
X2839720Y-8620000D01*
X2860000Y-9075000D02*
X2890000Y-9105000D01*
X2890000Y-9075000D02*
X2860000Y-9105000D01*
X2865000Y-9815500D02*
X2895000Y-9845500D01*
X2895000Y-9815500D02*
X2865000Y-9845500D01*
X2933500Y-10586040D02*
X2963500Y-10616040D01*
X2963500Y-10586040D02*
X2933500Y-10616040D01*
X2995000Y-4795000D02*
X3025000Y-4825000D01*
X3025000Y-4795000D02*
X2995000Y-4825000D01*
X3186980Y-8511520D02*
X3216980Y-8541520D01*
X3216980Y-8511520D02*
X3186980Y-8541520D01*
X3490110Y-5088110D02*
X3520110Y-5118110D01*
X3520110Y-5088110D02*
X3490110Y-5118110D01*
X3490110Y-5300240D02*
X3520110Y-5330240D01*
X3520110Y-5300240D02*
X3490110Y-5330240D01*
X3497320Y-10586040D02*
X3527320Y-10616040D01*
X3527320Y-10586040D02*
X3497320Y-10616040D01*
X3670290Y-5232570D02*
X3700290Y-5262570D01*
X3700290Y-5232570D02*
X3670290Y-5262570D01*
X3670290Y-5607690D02*
X3700290Y-5637690D01*
X3700290Y-5607690D02*
X3670290Y-5637690D01*
X4086650Y-5607690D02*
X4116650Y-5637690D01*
X4116650Y-5607690D02*
X4086650Y-5637690D01*
X4092000Y-7929790D02*
X4122000Y-7959790D01*
X4122000Y-7929790D02*
X4092000Y-7959790D01*
X4279960Y-8008840D02*
X4309960Y-8038840D01*
X4309960Y-8008840D02*
X4279960Y-8038840D01*
X4683190Y-6794030D02*
X4713190Y-6824030D01*
X4713190Y-6794030D02*
X4683190Y-6824030D01*
X4683190Y-7929790D02*
X4713190Y-7959790D01*
X4713190Y-7929790D02*
X4683190Y-7959790D01*
X4965400Y-9475000D02*
X4995400Y-9505000D01*
X4995400Y-9475000D02*
X4965400Y-9505000D01*
X4970000Y-8500000D02*
X5000000Y-8530000D01*
X5000000Y-8500000D02*
X4970000Y-8530000D01*
X5045000Y-6530000D02*
X5075000Y-6560000D01*
X5075000Y-6530000D02*
X5045000Y-6560000D01*
X5045400Y-8788910D02*
X5075400Y-8818910D01*
X5075400Y-8788910D02*
X5045400Y-8818910D01*
X5045570Y-9455000D02*
X5075570Y-9485000D01*
X5075570Y-9455000D02*
X5045570Y-9485000D01*
X5113070Y-9410840D02*
X5143070Y-9440840D01*
X5143070Y-9410840D02*
X5113070Y-9440840D01*
X5160000Y-7633580D02*
X5190000Y-7663580D01*
X5190000Y-7633580D02*
X5160000Y-7663580D01*
X5184890Y-4437200D02*
X5214890Y-4467200D01*
X5214890Y-4437200D02*
X5184890Y-4467200D01*
X5184890Y-4707110D02*
X5214890Y-4737110D01*
X5214890Y-4707110D02*
X5184890Y-4737110D01*
X5186910Y-4834110D02*
X5216910Y-4864110D01*
X5216910Y-4834110D02*
X5186910Y-4864110D01*
X5186910Y-5217290D02*
X5216910Y-5247290D01*
X5216910Y-5217290D02*
X5186910Y-5247290D01*
X5236860Y-5710000D02*
X5266860Y-5740000D01*
X5266860Y-5710000D02*
X5236860Y-5740000D01*
X5238000Y-7337370D02*
X5268000Y-7367370D01*
X5268000Y-7337370D02*
X5238000Y-7367370D01*
X5238000Y-9115000D02*
X5268000Y-9145000D01*
X5268000Y-9115000D02*
X5238000Y-9145000D01*
X5249180Y-4580110D02*
X5279180Y-4610110D01*
X5279180Y-4580110D02*
X5249180Y-4610110D01*
X5249180Y-4961110D02*
X5279180Y-4991110D01*
X5279180Y-4961110D02*
X5249180Y-4991110D01*
X5260500Y-9645000D02*
X5290500Y-9675000D01*
X5290500Y-9645000D02*
X5260500Y-9675000D01*
X5260500Y-10013500D02*
X5290500Y-10043500D01*
X5290500Y-10013500D02*
X5260500Y-10043500D01*
X5287680Y-9505500D02*
X5317680Y-9535500D01*
X5317680Y-9505500D02*
X5287680Y-9535500D01*
X5307830Y-7080000D02*
X5337830Y-7110000D01*
X5337830Y-7080000D02*
X5307830Y-7110000D01*
X5309690Y-4196880D02*
X5339690Y-4226880D01*
X5339690Y-4196880D02*
X5309690Y-4226880D01*
X5427360Y-6200110D02*
X5457360Y-6230110D01*
X5457360Y-6200110D02*
X5427360Y-6230110D01*
X5589370Y-6054660D02*
X5619370Y-6084660D01*
X5619370Y-6054660D02*
X5589370Y-6084660D01*
X5604580Y-8788910D02*
X5634580Y-8818910D01*
X5634580Y-8788910D02*
X5604580Y-8818910D01*
X5667750Y-5142720D02*
X5697750Y-5172720D01*
X5697750Y-5142720D02*
X5667750Y-5172720D01*
X5745360Y-5217290D02*
X5775360Y-5247290D01*
X5775360Y-5217290D02*
X5745360Y-5247290D01*
X6645000Y-6035000D02*
X6675000Y-6065000D01*
X6675000Y-6035000D02*
X6645000Y-6065000D01*
X6698110Y-5086400D02*
X6728110Y-5116400D01*
X6728110Y-5086400D02*
X6698110Y-5116400D01*
X7001310Y-6161160D02*
X7031310Y-6191160D01*
X7031310Y-6161160D02*
X7001310Y-6191160D01*
X7231020Y-6161160D02*
X7261020Y-6191160D01*
X7261020Y-6161160D02*
X7231020Y-6191160D01*
X7241140Y-6459760D02*
X7271140Y-6489760D01*
X7271140Y-6459760D02*
X7241140Y-6489760D01*
X7711740Y-6221400D02*
X7741740Y-6251400D01*
X7741740Y-6221400D02*
X7711740Y-6251400D01*
X7834020Y-5917080D02*
X7864020Y-5947080D01*
X7864020Y-5917080D02*
X7834020Y-5947080D01*
X7840000Y-7394730D02*
X7870000Y-7424730D01*
X7870000Y-7394730D02*
X7840000Y-7424730D01*
X7874160Y-5086400D02*
X7904160Y-5116400D01*
X7904160Y-5086400D02*
X7874160Y-5116400D01*
X7874160Y-5530190D02*
X7904160Y-5560190D01*
X7904160Y-5530190D02*
X7874160Y-5560190D01*
X7971000Y-5427420D02*
X8001000Y-5457420D01*
X8001000Y-5427420D02*
X7971000Y-5457420D01*
X8310000Y-4965000D02*
X8340000Y-4995000D01*
X8340000Y-4965000D02*
X8310000Y-4995000D01*
X8372670Y-4466490D02*
X8402670Y-4496490D01*
X8402670Y-4466490D02*
X8372670Y-4496490D01*
X8418600Y-7394730D02*
X8448600Y-7424730D01*
X8448600Y-7394730D02*
X8418600Y-7424730D01*
X8480000Y-5301610D02*
X8510000Y-5331610D01*
X8510000Y-5301610D02*
X8480000Y-5331610D01*
X8580000Y-6155810D02*
X8610000Y-6185810D01*
X8610000Y-6155810D02*
X8580000Y-6185810D01*
X8707000Y-6476470D02*
X8737000Y-6506470D01*
X8737000Y-6476470D02*
X8707000Y-6506470D01*
X8733000Y-5101180D02*
X8763000Y-5131180D01*
X8763000Y-5101180D02*
X8733000Y-5131180D01*
X9069830Y-5515000D02*
X9099830Y-5545000D01*
X9099830Y-5515000D02*
X9069830Y-5545000D01*
X9267700Y-4466490D02*
X9297700Y-4496490D01*
X9297700Y-4466490D02*
X9267700Y-4496490D01*
X9585270Y-6155810D02*
X9615270Y-6185810D01*
X9615270Y-6155810D02*
X9585270Y-6185810D01*
X9755000Y-5101180D02*
X9785000Y-5131180D01*
X9785000Y-5101180D02*
X9755000Y-5131180D01*
X10662160Y-5960360D02*
X10692160Y-5990360D01*
X10692160Y-5960360D02*
X10662160Y-5990360D01*
X10695000Y-5626320D02*
X10725000Y-5656320D01*
X10725000Y-5626320D02*
X10695000Y-5656320D01*
X2955360Y-3582110D02*
G75*
G02*
X2905360Y-3582110I-25000J0D01*
G01*
X2905360Y-3582110D02*
G75*
G02*
X2955360Y-3582110I25000J0D01*
G01*
X2915360Y-3607110D02*
X2945360Y-3607110D01*
X2945360Y-3557110D02*
G75*
G02*
X2945360Y-3607110I0J-25000D01*
G01*
X2945360Y-3557110D02*
X2915360Y-3557110D01*
X2915360Y-3557110D02*
G75*
G03*
X2915360Y-3607110I0J-25000D01*
G01*
X2973500Y-10789500D02*
G75*
G02*
X2923500Y-10789500I-25000J0D01*
G01*
X2923500Y-10789500D02*
G75*
G02*
X2973500Y-10789500I25000J0D01*
G01*
X2963500Y-10764500D02*
X2933500Y-10764500D01*
X2933500Y-10814500D02*
G75*
G02*
X2933500Y-10764500I0J25000D01*
G01*
X2933500Y-10814500D02*
X2963500Y-10814500D01*
X2963500Y-10814500D02*
G75*
G03*
X2963500Y-10764500I0J25000D01*
G01*
X3205360Y-3582110D02*
G75*
G02*
X3155360Y-3582110I-25000J0D01*
G01*
X3155360Y-3582110D02*
G75*
G02*
X3205360Y-3582110I25000J0D01*
G01*
X3165360Y-3607110D02*
X3195360Y-3607110D01*
X3195360Y-3557110D02*
G75*
G02*
X3195360Y-3607110I0J-25000D01*
G01*
X3195360Y-3557110D02*
X3165360Y-3557110D01*
X3165360Y-3557110D02*
G75*
G03*
X3165360Y-3607110I0J-25000D01*
G01*
X3223500Y-10789500D02*
G75*
G02*
X3173500Y-10789500I-25000J0D01*
G01*
X3173500Y-10789500D02*
G75*
G02*
X3223500Y-10789500I25000J0D01*
G01*
X3213500Y-10764500D02*
X3183500Y-10764500D01*
X3183500Y-10814500D02*
G75*
G02*
X3183500Y-10764500I0J25000D01*
G01*
X3183500Y-10814500D02*
X3213500Y-10814500D01*
X3213500Y-10814500D02*
G75*
G03*
X3213500Y-10764500I0J25000D01*
G01*
X3455360Y-3582110D02*
G75*
G02*
X3405360Y-3582110I-25000J0D01*
G01*
X3405360Y-3582110D02*
G75*
G02*
X3455360Y-3582110I25000J0D01*
G01*
X3415360Y-3607110D02*
X3445360Y-3607110D01*
X3445360Y-3557110D02*
G75*
G02*
X3445360Y-3607110I0J-25000D01*
G01*
X3445360Y-3557110D02*
X3415360Y-3557110D01*
X3415360Y-3557110D02*
G75*
G03*
X3415360Y-3607110I0J-25000D01*
G01*
X3473500Y-10789500D02*
G75*
G02*
X3423500Y-10789500I-25000J0D01*
G01*
X3423500Y-10789500D02*
G75*
G02*
X3473500Y-10789500I25000J0D01*
G01*
X3463500Y-10764500D02*
X3433500Y-10764500D01*
X3433500Y-10814500D02*
G75*
G02*
X3433500Y-10764500I0J25000D01*
G01*
X3433500Y-10814500D02*
X3463500Y-10814500D01*
X3463500Y-10814500D02*
G75*
G03*
X3463500Y-10764500I0J25000D01*
G01*
X3916500Y-8971860D02*
X3916500Y-9053140D01*
X3875860Y-9012500D02*
X3957140Y-9012500D01*
X3916500Y-9225860D02*
X3916500Y-9307140D01*
X3875860Y-9266500D02*
X3957140Y-9266500D01*
X3916500Y-9479860D02*
X3916500Y-9561140D01*
X3875860Y-9520500D02*
X3957140Y-9520500D01*
X3916500Y-9733860D02*
X3916500Y-9815140D01*
X3875860Y-9774500D02*
X3957140Y-9774500D01*
X3916500Y-9987860D02*
X3916500Y-10069140D01*
X3875860Y-10028500D02*
X3957140Y-10028500D01*
X3916500Y-10241860D02*
X3916500Y-10323140D01*
X3875860Y-10282500D02*
X3957140Y-10282500D01*
X3916500Y-10495860D02*
X3916500Y-10577140D01*
X3875860Y-10536500D02*
X3957140Y-10536500D01*
X3918360Y-3792470D02*
X3918360Y-3873750D01*
X3877720Y-3833110D02*
X3959000Y-3833110D01*
X3918360Y-4046470D02*
X3918360Y-4127750D01*
X3877720Y-4087110D02*
X3959000Y-4087110D01*
X3918360Y-4300470D02*
X3918360Y-4381750D01*
X3877720Y-4341110D02*
X3959000Y-4341110D01*
X3918360Y-4554470D02*
X3918360Y-4635750D01*
X3877720Y-4595110D02*
X3959000Y-4595110D01*
X3918360Y-4808470D02*
X3918360Y-4889750D01*
X3877720Y-4849110D02*
X3959000Y-4849110D01*
X3918360Y-5062470D02*
X3918360Y-5143750D01*
X3877720Y-5103110D02*
X3959000Y-5103110D01*
X3918360Y-5316470D02*
X3918360Y-5397750D01*
X3877720Y-5357110D02*
X3959000Y-5357110D01*
X5440500Y-8971860D02*
X5440500Y-9053140D01*
X5399860Y-9012500D02*
X5481140Y-9012500D01*
X5440500Y-9225860D02*
X5440500Y-9307140D01*
X5399860Y-9266500D02*
X5481140Y-9266500D01*
X5440500Y-9479860D02*
X5440500Y-9561140D01*
X5399860Y-9520500D02*
X5481140Y-9520500D01*
X5440500Y-9733860D02*
X5440500Y-9815140D01*
X5399860Y-9774500D02*
X5481140Y-9774500D01*
X5440500Y-9987860D02*
X5440500Y-10069140D01*
X5399860Y-10028500D02*
X5481140Y-10028500D01*
X5440500Y-10241860D02*
X5440500Y-10323140D01*
X5399860Y-10282500D02*
X5481140Y-10282500D01*
X5440500Y-10495860D02*
X5440500Y-10577140D01*
X5399860Y-10536500D02*
X5481140Y-10536500D01*
X5442360Y-3792470D02*
X5442360Y-3873750D01*
X5401720Y-3833110D02*
X5483000Y-3833110D01*
X5442360Y-4046470D02*
X5442360Y-4127750D01*
X5401720Y-4087110D02*
X5483000Y-4087110D01*
X5442360Y-4300470D02*
X5442360Y-4381750D01*
X5401720Y-4341110D02*
X5483000Y-4341110D01*
X5442360Y-4554470D02*
X5442360Y-4635750D01*
X5401720Y-4595110D02*
X5483000Y-4595110D01*
X5442360Y-4808470D02*
X5442360Y-4889750D01*
X5401720Y-4849110D02*
X5483000Y-4849110D01*
X5442360Y-5062470D02*
X5442360Y-5143750D01*
X5401720Y-5103110D02*
X5483000Y-5103110D01*
X5442360Y-5316470D02*
X5442360Y-5397750D01*
X5401720Y-5357110D02*
X5483000Y-5357110D01*
X2393856Y-7651856D02*
X2393856Y-7581144D01*
X2323144Y-7581144D01*
X2323144Y-7651856D01*
X2393856Y-7651856D01*
X2393856Y-7905856D02*
X2393856Y-7835144D01*
X2323144Y-7835144D01*
X2323144Y-7905856D01*
X2393856Y-7905856D01*
X2393856Y-8159856D02*
X2393856Y-8089144D01*
X2323144Y-8089144D01*
X2323144Y-8159856D01*
X2393856Y-8159856D01*
X2393856Y-8413856D02*
X2393856Y-8343144D01*
X2323144Y-8343144D01*
X2323144Y-8413856D01*
X2393856Y-8413856D01*
X2393856Y-9357856D02*
X2393856Y-9287144D01*
X2323144Y-9287144D01*
X2323144Y-9357856D01*
X2393856Y-9357856D01*
X2393856Y-9611856D02*
X2393856Y-9541144D01*
X2323144Y-9541144D01*
X2323144Y-9611856D01*
X2393856Y-9611856D01*
X2393856Y-9865856D02*
X2393856Y-9795144D01*
X2323144Y-9795144D01*
X2323144Y-9865856D01*
X2393856Y-9865856D01*
X2393856Y-10119856D02*
X2393856Y-10049144D01*
X2323144Y-10049144D01*
X2323144Y-10119856D01*
X2393856Y-10119856D01*
X2395716Y-3498466D02*
X2395716Y-3427754D01*
X2325004Y-3427754D01*
X2325004Y-3498466D01*
X2395716Y-3498466D01*
X2395716Y-3752466D02*
X2395716Y-3681754D01*
X2325004Y-3681754D01*
X2325004Y-3752466D01*
X2395716Y-3752466D01*
X2395716Y-4006466D02*
X2395716Y-3935754D01*
X2325004Y-3935754D01*
X2325004Y-4006466D01*
X2395716Y-4006466D01*
X2395716Y-4260466D02*
X2395716Y-4189754D01*
X2325004Y-4189754D01*
X2325004Y-4260466D01*
X2395716Y-4260466D01*
X2395716Y-5012966D02*
X2395716Y-4942254D01*
X2325004Y-4942254D01*
X2325004Y-5012966D01*
X2395716Y-5012966D01*
X2395716Y-5266966D02*
X2395716Y-5196254D01*
X2325004Y-5196254D01*
X2325004Y-5266966D01*
X2395716Y-5266966D01*
X2395716Y-5520966D02*
X2395716Y-5450254D01*
X2325004Y-5450254D01*
X2325004Y-5520966D01*
X2395716Y-5520966D01*
X2395716Y-5774966D02*
X2395716Y-5704254D01*
X2325004Y-5704254D01*
X2325004Y-5774966D01*
X2395716Y-5774966D01*
X4142356Y-8878656D02*
X4142356Y-8807944D01*
X4071644Y-8807944D01*
X4071644Y-8878656D01*
X4142356Y-8878656D01*
X4271216Y-4408266D02*
X4271216Y-4337554D01*
X4200504Y-4337554D01*
X4200504Y-4408266D01*
X4271216Y-4408266D01*
X4271216Y-4598766D02*
X4271216Y-4528054D01*
X4200504Y-4528054D01*
X4200504Y-4598766D01*
X4271216Y-4598766D01*
X4330316Y-8878656D02*
X4330316Y-8807944D01*
X4259604Y-8807944D01*
X4259604Y-8878656D01*
X4330316Y-8878656D01*
X5099256Y-5561666D02*
X5099256Y-5490954D01*
X5028544Y-5490954D01*
X5028544Y-5561666D01*
X5099256Y-5561666D01*
X5158356Y-9841556D02*
X5158356Y-9770844D01*
X5087644Y-9770844D01*
X5087644Y-9841556D01*
X5158356Y-9841556D01*
X5158356Y-10032056D02*
X5158356Y-9961344D01*
X5087644Y-9961344D01*
X5087644Y-10032056D01*
X5158356Y-10032056D01*
X5287216Y-5561666D02*
X5287216Y-5490954D01*
X5216504Y-5490954D01*
X5216504Y-5561666D01*
X5287216Y-5561666D01*
X5793856Y-6877856D02*
X5793856Y-6807144D01*
X5723144Y-6807144D01*
X5723144Y-6877856D01*
X5793856Y-6877856D01*
X5793856Y-7131856D02*
X5793856Y-7061144D01*
X5723144Y-7061144D01*
X5723144Y-7131856D01*
X5793856Y-7131856D01*
X5793856Y-7385856D02*
X5793856Y-7315144D01*
X5723144Y-7315144D01*
X5723144Y-7385856D01*
X5793856Y-7385856D01*
X5793856Y-7639856D02*
X5793856Y-7569144D01*
X5723144Y-7569144D01*
X5723144Y-7639856D01*
X5793856Y-7639856D01*
X5793856Y-8547856D02*
X5793856Y-8477144D01*
X5723144Y-8477144D01*
X5723144Y-8547856D01*
X5793856Y-8547856D01*
X5793856Y-8801856D02*
X5793856Y-8731144D01*
X5723144Y-8731144D01*
X5723144Y-8801856D01*
X5793856Y-8801856D01*
X5793856Y-9055856D02*
X5793856Y-8985144D01*
X5723144Y-8985144D01*
X5723144Y-9055856D01*
X5793856Y-9055856D01*
X5793856Y-9309856D02*
X5793856Y-9239144D01*
X5723144Y-9239144D01*
X5723144Y-9309856D01*
X5793856Y-9309856D01*
X5795716Y-4312466D02*
X5795716Y-4241754D01*
X5725004Y-4241754D01*
X5725004Y-4312466D01*
X5795716Y-4312466D01*
X5795716Y-4566466D02*
X5795716Y-4495754D01*
X5725004Y-4495754D01*
X5725004Y-4566466D01*
X5795716Y-4566466D01*
X5795716Y-4820466D02*
X5795716Y-4749754D01*
X5725004Y-4749754D01*
X5725004Y-4820466D01*
X5795716Y-4820466D01*
X5795716Y-5074466D02*
X5795716Y-5003754D01*
X5725004Y-5003754D01*
X5725004Y-5074466D01*
X5795716Y-5074466D01*
X5795716Y-5818466D02*
X5795716Y-5747754D01*
X5725004Y-5747754D01*
X5725004Y-5818466D01*
X5795716Y-5818466D01*
X5795716Y-6072466D02*
X5795716Y-6001754D01*
X5725004Y-6001754D01*
X5725004Y-6072466D01*
X5795716Y-6072466D01*
X5795716Y-6326466D02*
X5795716Y-6255754D01*
X5725004Y-6255754D01*
X5725004Y-6326466D01*
X5795716Y-6326466D01*
X5795716Y-6580466D02*
X5795716Y-6509754D01*
X5725004Y-6509754D01*
X5725004Y-6580466D01*
X5795716Y-6580466D01*
X8021356Y-5695716D02*
X8021356Y-5625004D01*
X7950644Y-5625004D01*
X7950644Y-5695716D01*
X8021356Y-5695716D01*
X8275356Y-5695716D02*
X8275356Y-5625004D01*
X8204644Y-5625004D01*
X8204644Y-5695716D01*
X8275356Y-5695716D01*
X8529356Y-5695716D02*
X8529356Y-5625004D01*
X8458644Y-5625004D01*
X8458644Y-5695716D01*
X8529356Y-5695716D01*
X8630356Y-6010716D02*
X8630356Y-5940004D01*
X8559644Y-5940004D01*
X8559644Y-6010716D01*
X8630356Y-6010716D01*
X8783356Y-5695716D02*
X8783356Y-5625004D01*
X8712644Y-5625004D01*
X8712644Y-5695716D01*
X8783356Y-5695716D01*
X8884356Y-6010716D02*
X8884356Y-5940004D01*
X8813644Y-5940004D01*
X8813644Y-6010716D01*
X8884356Y-6010716D01*
X9138356Y-6010716D02*
X9138356Y-5940004D01*
X9067644Y-5940004D01*
X9067644Y-6010716D01*
X9138356Y-6010716D01*
X9392356Y-6010716D02*
X9392356Y-5940004D01*
X9321644Y-5940004D01*
X9321644Y-6010716D01*
X9392356Y-6010716D01*
D12*
X2488277Y-11358984D02*
X2488277Y-11158984D01*
X2488277Y-11158984D02*
X2535896Y-11158984D01*
X2535896Y-11158984D02*
X2564467Y-11168508D01*
X2564467Y-11168508D02*
X2583515Y-11187555D01*
X2583515Y-11187555D02*
X2593039Y-11206603D01*
X2593039Y-11206603D02*
X2602563Y-11244698D01*
X2602563Y-11244698D02*
X2602563Y-11273269D01*
X2602563Y-11273269D02*
X2593039Y-11311365D01*
X2593039Y-11311365D02*
X2583515Y-11330412D01*
X2583515Y-11330412D02*
X2564467Y-11349460D01*
X2564467Y-11349460D02*
X2535896Y-11358984D01*
X2535896Y-11358984D02*
X2488277Y-11358984D01*
X2688277Y-11358984D02*
X2688277Y-11225650D01*
X2688277Y-11263746D02*
X2697801Y-11244698D01*
X2697801Y-11244698D02*
X2707324Y-11235174D01*
X2707324Y-11235174D02*
X2726372Y-11225650D01*
X2726372Y-11225650D02*
X2745420Y-11225650D01*
X2812086Y-11358984D02*
X2812086Y-11225650D01*
X2812086Y-11158984D02*
X2802562Y-11168508D01*
X2802562Y-11168508D02*
X2812086Y-11178031D01*
X2812086Y-11178031D02*
X2821610Y-11168508D01*
X2821610Y-11168508D02*
X2812086Y-11158984D01*
X2812086Y-11158984D02*
X2812086Y-11178031D01*
X2935896Y-11358984D02*
X2916848Y-11349460D01*
X2916848Y-11349460D02*
X2907324Y-11330412D01*
X2907324Y-11330412D02*
X2907324Y-11158984D01*
X3040658Y-11358984D02*
X3021610Y-11349460D01*
X3021610Y-11349460D02*
X3012086Y-11330412D01*
X3012086Y-11330412D02*
X3012086Y-11158984D01*
X3269229Y-11358984D02*
X3269229Y-11158984D01*
X3269229Y-11158984D02*
X3335896Y-11301841D01*
X3335896Y-11301841D02*
X3402562Y-11158984D01*
X3402562Y-11158984D02*
X3402562Y-11358984D01*
X3583515Y-11358984D02*
X3583515Y-11254222D01*
X3583515Y-11254222D02*
X3573991Y-11235174D01*
X3573991Y-11235174D02*
X3554943Y-11225650D01*
X3554943Y-11225650D02*
X3516848Y-11225650D01*
X3516848Y-11225650D02*
X3497801Y-11235174D01*
X3583515Y-11349460D02*
X3564467Y-11358984D01*
X3564467Y-11358984D02*
X3516848Y-11358984D01*
X3516848Y-11358984D02*
X3497801Y-11349460D01*
X3497801Y-11349460D02*
X3488277Y-11330412D01*
X3488277Y-11330412D02*
X3488277Y-11311365D01*
X3488277Y-11311365D02*
X3497801Y-11292317D01*
X3497801Y-11292317D02*
X3516848Y-11282793D01*
X3516848Y-11282793D02*
X3564467Y-11282793D01*
X3564467Y-11282793D02*
X3583515Y-11273269D01*
X3678753Y-11225650D02*
X3678753Y-11425650D01*
X3678753Y-11235174D02*
X3697801Y-11225650D01*
X3697801Y-11225650D02*
X3735896Y-11225650D01*
X3735896Y-11225650D02*
X3754943Y-11235174D01*
X3754943Y-11235174D02*
X3764467Y-11244698D01*
X3764467Y-11244698D02*
X3773991Y-11263746D01*
X3773991Y-11263746D02*
X3773991Y-11320888D01*
X3773991Y-11320888D02*
X3764467Y-11339936D01*
X3764467Y-11339936D02*
X3754943Y-11349460D01*
X3754943Y-11349460D02*
X3735896Y-11358984D01*
X3735896Y-11358984D02*
X3697801Y-11358984D01*
X3697801Y-11358984D02*
X3678753Y-11349460D01*
X3859705Y-11339936D02*
X3869229Y-11349460D01*
X3869229Y-11349460D02*
X3859705Y-11358984D01*
X3859705Y-11358984D02*
X3850182Y-11349460D01*
X3850182Y-11349460D02*
X3859705Y-11339936D01*
X3859705Y-11339936D02*
X3859705Y-11358984D01*
X3859705Y-11235174D02*
X3869229Y-11244698D01*
X3869229Y-11244698D02*
X3859705Y-11254222D01*
X3859705Y-11254222D02*
X3850182Y-11244698D01*
X3850182Y-11244698D02*
X3859705Y-11235174D01*
X3859705Y-11235174D02*
X3859705Y-11254222D01*
D13*
X2197500Y-11672500D02*
X2227500Y-11702500D01*
X2227500Y-11672500D02*
X2197500Y-11702500D01*
D12*
X2526372Y-11578984D02*
X2545420Y-11578984D01*
X2545420Y-11578984D02*
X2564467Y-11588508D01*
X2564467Y-11588508D02*
X2573991Y-11598031D01*
X2573991Y-11598031D02*
X2583515Y-11617079D01*
X2583515Y-11617079D02*
X2593039Y-11655174D01*
X2593039Y-11655174D02*
X2593039Y-11702793D01*
X2593039Y-11702793D02*
X2583515Y-11740888D01*
X2583515Y-11740888D02*
X2573991Y-11759936D01*
X2573991Y-11759936D02*
X2564467Y-11769460D01*
X2564467Y-11769460D02*
X2545420Y-11778984D01*
X2545420Y-11778984D02*
X2526372Y-11778984D01*
X2526372Y-11778984D02*
X2507324Y-11769460D01*
X2507324Y-11769460D02*
X2497801Y-11759936D01*
X2497801Y-11759936D02*
X2488277Y-11740888D01*
X2488277Y-11740888D02*
X2478753Y-11702793D01*
X2478753Y-11702793D02*
X2478753Y-11655174D01*
X2478753Y-11655174D02*
X2488277Y-11617079D01*
X2488277Y-11617079D02*
X2497801Y-11598031D01*
X2497801Y-11598031D02*
X2507324Y-11588508D01*
X2507324Y-11588508D02*
X2526372Y-11578984D01*
X2678753Y-11759936D02*
X2688277Y-11769460D01*
X2688277Y-11769460D02*
X2678753Y-11778984D01*
X2678753Y-11778984D02*
X2669229Y-11769460D01*
X2669229Y-11769460D02*
X2678753Y-11759936D01*
X2678753Y-11759936D02*
X2678753Y-11778984D01*
X2754944Y-11578984D02*
X2878753Y-11578984D01*
X2878753Y-11578984D02*
X2812086Y-11655174D01*
X2812086Y-11655174D02*
X2840658Y-11655174D01*
X2840658Y-11655174D02*
X2859705Y-11664698D01*
X2859705Y-11664698D02*
X2869229Y-11674222D01*
X2869229Y-11674222D02*
X2878753Y-11693269D01*
X2878753Y-11693269D02*
X2878753Y-11740888D01*
X2878753Y-11740888D02*
X2869229Y-11759936D01*
X2869229Y-11759936D02*
X2859705Y-11769460D01*
X2859705Y-11769460D02*
X2840658Y-11778984D01*
X2840658Y-11778984D02*
X2783515Y-11778984D01*
X2783515Y-11778984D02*
X2764467Y-11769460D01*
X2764467Y-11769460D02*
X2754944Y-11759936D01*
X3002562Y-11578984D02*
X3021610Y-11578984D01*
X3021610Y-11578984D02*
X3040658Y-11588508D01*
X3040658Y-11588508D02*
X3050182Y-11598031D01*
X3050182Y-11598031D02*
X3059705Y-11617079D01*
X3059705Y-11617079D02*
X3069229Y-11655174D01*
X3069229Y-11655174D02*
X3069229Y-11702793D01*
X3069229Y-11702793D02*
X3059705Y-11740888D01*
X3059705Y-11740888D02*
X3050182Y-11759936D01*
X3050182Y-11759936D02*
X3040658Y-11769460D01*
X3040658Y-11769460D02*
X3021610Y-11778984D01*
X3021610Y-11778984D02*
X3002562Y-11778984D01*
X3002562Y-11778984D02*
X2983515Y-11769460D01*
X2983515Y-11769460D02*
X2973991Y-11759936D01*
X2973991Y-11759936D02*
X2964467Y-11740888D01*
X2964467Y-11740888D02*
X2954943Y-11702793D01*
X2954943Y-11702793D02*
X2954943Y-11655174D01*
X2954943Y-11655174D02*
X2964467Y-11617079D01*
X2964467Y-11617079D02*
X2973991Y-11598031D01*
X2973991Y-11598031D02*
X2983515Y-11588508D01*
X2983515Y-11588508D02*
X3002562Y-11578984D01*
X3193039Y-11578984D02*
X3212086Y-11578984D01*
X3212086Y-11578984D02*
X3231134Y-11588508D01*
X3231134Y-11588508D02*
X3240658Y-11598031D01*
X3240658Y-11598031D02*
X3250182Y-11617079D01*
X3250182Y-11617079D02*
X3259705Y-11655174D01*
X3259705Y-11655174D02*
X3259705Y-11702793D01*
X3259705Y-11702793D02*
X3250182Y-11740888D01*
X3250182Y-11740888D02*
X3240658Y-11759936D01*
X3240658Y-11759936D02*
X3231134Y-11769460D01*
X3231134Y-11769460D02*
X3212086Y-11778984D01*
X3212086Y-11778984D02*
X3193039Y-11778984D01*
X3193039Y-11778984D02*
X3173991Y-11769460D01*
X3173991Y-11769460D02*
X3164467Y-11759936D01*
X3164467Y-11759936D02*
X3154943Y-11740888D01*
X3154943Y-11740888D02*
X3145420Y-11702793D01*
X3145420Y-11702793D02*
X3145420Y-11655174D01*
X3145420Y-11655174D02*
X3154943Y-11617079D01*
X3154943Y-11617079D02*
X3164467Y-11598031D01*
X3164467Y-11598031D02*
X3173991Y-11588508D01*
X3173991Y-11588508D02*
X3193039Y-11578984D01*
X3345420Y-11778984D02*
X3345420Y-11645650D01*
X3345420Y-11664698D02*
X3354943Y-11655174D01*
X3354943Y-11655174D02*
X3373991Y-11645650D01*
X3373991Y-11645650D02*
X3402563Y-11645650D01*
X3402563Y-11645650D02*
X3421610Y-11655174D01*
X3421610Y-11655174D02*
X3431134Y-11674222D01*
X3431134Y-11674222D02*
X3431134Y-11778984D01*
X3431134Y-11674222D02*
X3440658Y-11655174D01*
X3440658Y-11655174D02*
X3459705Y-11645650D01*
X3459705Y-11645650D02*
X3488277Y-11645650D01*
X3488277Y-11645650D02*
X3507324Y-11655174D01*
X3507324Y-11655174D02*
X3516848Y-11674222D01*
X3516848Y-11674222D02*
X3516848Y-11778984D01*
X3612086Y-11778984D02*
X3612086Y-11645650D01*
X3612086Y-11664698D02*
X3621610Y-11655174D01*
X3621610Y-11655174D02*
X3640658Y-11645650D01*
X3640658Y-11645650D02*
X3669229Y-11645650D01*
X3669229Y-11645650D02*
X3688277Y-11655174D01*
X3688277Y-11655174D02*
X3697801Y-11674222D01*
X3697801Y-11674222D02*
X3697801Y-11778984D01*
X3697801Y-11674222D02*
X3707324Y-11655174D01*
X3707324Y-11655174D02*
X3726372Y-11645650D01*
X3726372Y-11645650D02*
X3754943Y-11645650D01*
X3754943Y-11645650D02*
X3773991Y-11655174D01*
X3773991Y-11655174D02*
X3783515Y-11674222D01*
X3783515Y-11674222D02*
X3783515Y-11778984D01*
X4173991Y-11569460D02*
X4002563Y-11826603D01*
X4431134Y-11578984D02*
X4450182Y-11578984D01*
X4450182Y-11578984D02*
X4469229Y-11588508D01*
X4469229Y-11588508D02*
X4478753Y-11598031D01*
X4478753Y-11598031D02*
X4488277Y-11617079D01*
X4488277Y-11617079D02*
X4497801Y-11655174D01*
X4497801Y-11655174D02*
X4497801Y-11702793D01*
X4497801Y-11702793D02*
X4488277Y-11740888D01*
X4488277Y-11740888D02*
X4478753Y-11759936D01*
X4478753Y-11759936D02*
X4469229Y-11769460D01*
X4469229Y-11769460D02*
X4450182Y-11778984D01*
X4450182Y-11778984D02*
X4431134Y-11778984D01*
X4431134Y-11778984D02*
X4412087Y-11769460D01*
X4412087Y-11769460D02*
X4402563Y-11759936D01*
X4402563Y-11759936D02*
X4393039Y-11740888D01*
X4393039Y-11740888D02*
X4383515Y-11702793D01*
X4383515Y-11702793D02*
X4383515Y-11655174D01*
X4383515Y-11655174D02*
X4393039Y-11617079D01*
X4393039Y-11617079D02*
X4402563Y-11598031D01*
X4402563Y-11598031D02*
X4412087Y-11588508D01*
X4412087Y-11588508D02*
X4431134Y-11578984D01*
X4583515Y-11759936D02*
X4593039Y-11769460D01*
X4593039Y-11769460D02*
X4583515Y-11778984D01*
X4583515Y-11778984D02*
X4573991Y-11769460D01*
X4573991Y-11769460D02*
X4583515Y-11759936D01*
X4583515Y-11759936D02*
X4583515Y-11778984D01*
X4716848Y-11578984D02*
X4735896Y-11578984D01*
X4735896Y-11578984D02*
X4754944Y-11588508D01*
X4754944Y-11588508D02*
X4764468Y-11598031D01*
X4764468Y-11598031D02*
X4773991Y-11617079D01*
X4773991Y-11617079D02*
X4783515Y-11655174D01*
X4783515Y-11655174D02*
X4783515Y-11702793D01*
X4783515Y-11702793D02*
X4773991Y-11740888D01*
X4773991Y-11740888D02*
X4764468Y-11759936D01*
X4764468Y-11759936D02*
X4754944Y-11769460D01*
X4754944Y-11769460D02*
X4735896Y-11778984D01*
X4735896Y-11778984D02*
X4716848Y-11778984D01*
X4716848Y-11778984D02*
X4697801Y-11769460D01*
X4697801Y-11769460D02*
X4688277Y-11759936D01*
X4688277Y-11759936D02*
X4678753Y-11740888D01*
X4678753Y-11740888D02*
X4669229Y-11702793D01*
X4669229Y-11702793D02*
X4669229Y-11655174D01*
X4669229Y-11655174D02*
X4678753Y-11617079D01*
X4678753Y-11617079D02*
X4688277Y-11598031D01*
X4688277Y-11598031D02*
X4697801Y-11588508D01*
X4697801Y-11588508D02*
X4716848Y-11578984D01*
X4973991Y-11778984D02*
X4859706Y-11778984D01*
X4916848Y-11778984D02*
X4916848Y-11578984D01*
X4916848Y-11578984D02*
X4897801Y-11607555D01*
X4897801Y-11607555D02*
X4878753Y-11626603D01*
X4878753Y-11626603D02*
X4859706Y-11636127D01*
X5164468Y-11778984D02*
X5050182Y-11778984D01*
X5107325Y-11778984D02*
X5107325Y-11578984D01*
X5107325Y-11578984D02*
X5088277Y-11607555D01*
X5088277Y-11607555D02*
X5069229Y-11626603D01*
X5069229Y-11626603D02*
X5050182Y-11636127D01*
X5278753Y-11664698D02*
X5259706Y-11655174D01*
X5259706Y-11655174D02*
X5250182Y-11645650D01*
X5250182Y-11645650D02*
X5240658Y-11626603D01*
X5240658Y-11626603D02*
X5240658Y-11617079D01*
X5240658Y-11617079D02*
X5250182Y-11598031D01*
X5250182Y-11598031D02*
X5259706Y-11588508D01*
X5259706Y-11588508D02*
X5278753Y-11578984D01*
X5278753Y-11578984D02*
X5316849Y-11578984D01*
X5316849Y-11578984D02*
X5335896Y-11588508D01*
X5335896Y-11588508D02*
X5345420Y-11598031D01*
X5345420Y-11598031D02*
X5354944Y-11617079D01*
X5354944Y-11617079D02*
X5354944Y-11626603D01*
X5354944Y-11626603D02*
X5345420Y-11645650D01*
X5345420Y-11645650D02*
X5335896Y-11655174D01*
X5335896Y-11655174D02*
X5316849Y-11664698D01*
X5316849Y-11664698D02*
X5278753Y-11664698D01*
X5278753Y-11664698D02*
X5259706Y-11674222D01*
X5259706Y-11674222D02*
X5250182Y-11683746D01*
X5250182Y-11683746D02*
X5240658Y-11702793D01*
X5240658Y-11702793D02*
X5240658Y-11740888D01*
X5240658Y-11740888D02*
X5250182Y-11759936D01*
X5250182Y-11759936D02*
X5259706Y-11769460D01*
X5259706Y-11769460D02*
X5278753Y-11778984D01*
X5278753Y-11778984D02*
X5316849Y-11778984D01*
X5316849Y-11778984D02*
X5335896Y-11769460D01*
X5335896Y-11769460D02*
X5345420Y-11759936D01*
X5345420Y-11759936D02*
X5354944Y-11740888D01*
X5354944Y-11740888D02*
X5354944Y-11702793D01*
X5354944Y-11702793D02*
X5345420Y-11683746D01*
X5345420Y-11683746D02*
X5335896Y-11674222D01*
X5335896Y-11674222D02*
X5316849Y-11664698D01*
X5431134Y-11578984D02*
X5431134Y-11617079D01*
X5507325Y-11578984D02*
X5507325Y-11617079D01*
X5802563Y-11855174D02*
X5793039Y-11845650D01*
X5793039Y-11845650D02*
X5773991Y-11817079D01*
X5773991Y-11817079D02*
X5764468Y-11798031D01*
X5764468Y-11798031D02*
X5754944Y-11769460D01*
X5754944Y-11769460D02*
X5745420Y-11721841D01*
X5745420Y-11721841D02*
X5745420Y-11683746D01*
X5745420Y-11683746D02*
X5754944Y-11636127D01*
X5754944Y-11636127D02*
X5764468Y-11607555D01*
X5764468Y-11607555D02*
X5773991Y-11588508D01*
X5773991Y-11588508D02*
X5793039Y-11559936D01*
X5793039Y-11559936D02*
X5802563Y-11550412D01*
X5859706Y-11578984D02*
X5993039Y-11578984D01*
X5993039Y-11578984D02*
X5907325Y-11778984D01*
X6059706Y-11598031D02*
X6069229Y-11588508D01*
X6069229Y-11588508D02*
X6088277Y-11578984D01*
X6088277Y-11578984D02*
X6135896Y-11578984D01*
X6135896Y-11578984D02*
X6154944Y-11588508D01*
X6154944Y-11588508D02*
X6164468Y-11598031D01*
X6164468Y-11598031D02*
X6173991Y-11617079D01*
X6173991Y-11617079D02*
X6173991Y-11636127D01*
X6173991Y-11636127D02*
X6164468Y-11664698D01*
X6164468Y-11664698D02*
X6050182Y-11778984D01*
X6050182Y-11778984D02*
X6173991Y-11778984D01*
X6412087Y-11778984D02*
X6412087Y-11578984D01*
X6497801Y-11778984D02*
X6497801Y-11674222D01*
X6497801Y-11674222D02*
X6488277Y-11655174D01*
X6488277Y-11655174D02*
X6469230Y-11645650D01*
X6469230Y-11645650D02*
X6440658Y-11645650D01*
X6440658Y-11645650D02*
X6421610Y-11655174D01*
X6421610Y-11655174D02*
X6412087Y-11664698D01*
X6621610Y-11778984D02*
X6602563Y-11769460D01*
X6602563Y-11769460D02*
X6593039Y-11759936D01*
X6593039Y-11759936D02*
X6583515Y-11740888D01*
X6583515Y-11740888D02*
X6583515Y-11683746D01*
X6583515Y-11683746D02*
X6593039Y-11664698D01*
X6593039Y-11664698D02*
X6602563Y-11655174D01*
X6602563Y-11655174D02*
X6621610Y-11645650D01*
X6621610Y-11645650D02*
X6650182Y-11645650D01*
X6650182Y-11645650D02*
X6669230Y-11655174D01*
X6669230Y-11655174D02*
X6678753Y-11664698D01*
X6678753Y-11664698D02*
X6688277Y-11683746D01*
X6688277Y-11683746D02*
X6688277Y-11740888D01*
X6688277Y-11740888D02*
X6678753Y-11759936D01*
X6678753Y-11759936D02*
X6669230Y-11769460D01*
X6669230Y-11769460D02*
X6650182Y-11778984D01*
X6650182Y-11778984D02*
X6621610Y-11778984D01*
X6802563Y-11778984D02*
X6783515Y-11769460D01*
X6783515Y-11769460D02*
X6773991Y-11750412D01*
X6773991Y-11750412D02*
X6773991Y-11578984D01*
X6954944Y-11769460D02*
X6935896Y-11778984D01*
X6935896Y-11778984D02*
X6897801Y-11778984D01*
X6897801Y-11778984D02*
X6878753Y-11769460D01*
X6878753Y-11769460D02*
X6869230Y-11750412D01*
X6869230Y-11750412D02*
X6869230Y-11674222D01*
X6869230Y-11674222D02*
X6878753Y-11655174D01*
X6878753Y-11655174D02*
X6897801Y-11645650D01*
X6897801Y-11645650D02*
X6935896Y-11645650D01*
X6935896Y-11645650D02*
X6954944Y-11655174D01*
X6954944Y-11655174D02*
X6964468Y-11674222D01*
X6964468Y-11674222D02*
X6964468Y-11693269D01*
X6964468Y-11693269D02*
X6869230Y-11712317D01*
X7040658Y-11769460D02*
X7059706Y-11778984D01*
X7059706Y-11778984D02*
X7097801Y-11778984D01*
X7097801Y-11778984D02*
X7116849Y-11769460D01*
X7116849Y-11769460D02*
X7126372Y-11750412D01*
X7126372Y-11750412D02*
X7126372Y-11740888D01*
X7126372Y-11740888D02*
X7116849Y-11721841D01*
X7116849Y-11721841D02*
X7097801Y-11712317D01*
X7097801Y-11712317D02*
X7069230Y-11712317D01*
X7069230Y-11712317D02*
X7050182Y-11702793D01*
X7050182Y-11702793D02*
X7040658Y-11683746D01*
X7040658Y-11683746D02*
X7040658Y-11674222D01*
X7040658Y-11674222D02*
X7050182Y-11655174D01*
X7050182Y-11655174D02*
X7069230Y-11645650D01*
X7069230Y-11645650D02*
X7097801Y-11645650D01*
X7097801Y-11645650D02*
X7116849Y-11655174D01*
X7193039Y-11855174D02*
X7202563Y-11845650D01*
X7202563Y-11845650D02*
X7221611Y-11817079D01*
X7221611Y-11817079D02*
X7231134Y-11798031D01*
X7231134Y-11798031D02*
X7240658Y-11769460D01*
X7240658Y-11769460D02*
X7250182Y-11721841D01*
X7250182Y-11721841D02*
X7250182Y-11683746D01*
X7250182Y-11683746D02*
X7240658Y-11636127D01*
X7240658Y-11636127D02*
X7231134Y-11607555D01*
X7231134Y-11607555D02*
X7221611Y-11588508D01*
X7221611Y-11588508D02*
X7202563Y-11559936D01*
X7202563Y-11559936D02*
X7193039Y-11550412D01*
D13*
X2227500Y-11951500D02*
G75*
G02*
X2177500Y-11951500I-25000J0D01*
G01*
X2177500Y-11951500D02*
G75*
G02*
X2227500Y-11951500I25000J0D01*
G01*
D12*
X2526372Y-11842984D02*
X2545420Y-11842984D01*
X2545420Y-11842984D02*
X2564467Y-11852508D01*
X2564467Y-11852508D02*
X2573991Y-11862031D01*
X2573991Y-11862031D02*
X2583515Y-11881079D01*
X2583515Y-11881079D02*
X2593039Y-11919174D01*
X2593039Y-11919174D02*
X2593039Y-11966793D01*
X2593039Y-11966793D02*
X2583515Y-12004888D01*
X2583515Y-12004888D02*
X2573991Y-12023936D01*
X2573991Y-12023936D02*
X2564467Y-12033460D01*
X2564467Y-12033460D02*
X2545420Y-12042984D01*
X2545420Y-12042984D02*
X2526372Y-12042984D01*
X2526372Y-12042984D02*
X2507324Y-12033460D01*
X2507324Y-12033460D02*
X2497801Y-12023936D01*
X2497801Y-12023936D02*
X2488277Y-12004888D01*
X2488277Y-12004888D02*
X2478753Y-11966793D01*
X2478753Y-11966793D02*
X2478753Y-11919174D01*
X2478753Y-11919174D02*
X2488277Y-11881079D01*
X2488277Y-11881079D02*
X2497801Y-11862031D01*
X2497801Y-11862031D02*
X2507324Y-11852508D01*
X2507324Y-11852508D02*
X2526372Y-11842984D01*
X2678753Y-12023936D02*
X2688277Y-12033460D01*
X2688277Y-12033460D02*
X2678753Y-12042984D01*
X2678753Y-12042984D02*
X2669229Y-12033460D01*
X2669229Y-12033460D02*
X2678753Y-12023936D01*
X2678753Y-12023936D02*
X2678753Y-12042984D01*
X2869229Y-11842984D02*
X2773991Y-11842984D01*
X2773991Y-11842984D02*
X2764467Y-11938222D01*
X2764467Y-11938222D02*
X2773991Y-11928698D01*
X2773991Y-11928698D02*
X2793039Y-11919174D01*
X2793039Y-11919174D02*
X2840658Y-11919174D01*
X2840658Y-11919174D02*
X2859705Y-11928698D01*
X2859705Y-11928698D02*
X2869229Y-11938222D01*
X2869229Y-11938222D02*
X2878753Y-11957269D01*
X2878753Y-11957269D02*
X2878753Y-12004888D01*
X2878753Y-12004888D02*
X2869229Y-12023936D01*
X2869229Y-12023936D02*
X2859705Y-12033460D01*
X2859705Y-12033460D02*
X2840658Y-12042984D01*
X2840658Y-12042984D02*
X2793039Y-12042984D01*
X2793039Y-12042984D02*
X2773991Y-12033460D01*
X2773991Y-12033460D02*
X2764467Y-12023936D01*
X3002562Y-11842984D02*
X3021610Y-11842984D01*
X3021610Y-11842984D02*
X3040658Y-11852508D01*
X3040658Y-11852508D02*
X3050182Y-11862031D01*
X3050182Y-11862031D02*
X3059705Y-11881079D01*
X3059705Y-11881079D02*
X3069229Y-11919174D01*
X3069229Y-11919174D02*
X3069229Y-11966793D01*
X3069229Y-11966793D02*
X3059705Y-12004888D01*
X3059705Y-12004888D02*
X3050182Y-12023936D01*
X3050182Y-12023936D02*
X3040658Y-12033460D01*
X3040658Y-12033460D02*
X3021610Y-12042984D01*
X3021610Y-12042984D02*
X3002562Y-12042984D01*
X3002562Y-12042984D02*
X2983515Y-12033460D01*
X2983515Y-12033460D02*
X2973991Y-12023936D01*
X2973991Y-12023936D02*
X2964467Y-12004888D01*
X2964467Y-12004888D02*
X2954943Y-11966793D01*
X2954943Y-11966793D02*
X2954943Y-11919174D01*
X2954943Y-11919174D02*
X2964467Y-11881079D01*
X2964467Y-11881079D02*
X2973991Y-11862031D01*
X2973991Y-11862031D02*
X2983515Y-11852508D01*
X2983515Y-11852508D02*
X3002562Y-11842984D01*
X3193039Y-11842984D02*
X3212086Y-11842984D01*
X3212086Y-11842984D02*
X3231134Y-11852508D01*
X3231134Y-11852508D02*
X3240658Y-11862031D01*
X3240658Y-11862031D02*
X3250182Y-11881079D01*
X3250182Y-11881079D02*
X3259705Y-11919174D01*
X3259705Y-11919174D02*
X3259705Y-11966793D01*
X3259705Y-11966793D02*
X3250182Y-12004888D01*
X3250182Y-12004888D02*
X3240658Y-12023936D01*
X3240658Y-12023936D02*
X3231134Y-12033460D01*
X3231134Y-12033460D02*
X3212086Y-12042984D01*
X3212086Y-12042984D02*
X3193039Y-12042984D01*
X3193039Y-12042984D02*
X3173991Y-12033460D01*
X3173991Y-12033460D02*
X3164467Y-12023936D01*
X3164467Y-12023936D02*
X3154943Y-12004888D01*
X3154943Y-12004888D02*
X3145420Y-11966793D01*
X3145420Y-11966793D02*
X3145420Y-11919174D01*
X3145420Y-11919174D02*
X3154943Y-11881079D01*
X3154943Y-11881079D02*
X3164467Y-11862031D01*
X3164467Y-11862031D02*
X3173991Y-11852508D01*
X3173991Y-11852508D02*
X3193039Y-11842984D01*
X3345420Y-12042984D02*
X3345420Y-11909650D01*
X3345420Y-11928698D02*
X3354943Y-11919174D01*
X3354943Y-11919174D02*
X3373991Y-11909650D01*
X3373991Y-11909650D02*
X3402563Y-11909650D01*
X3402563Y-11909650D02*
X3421610Y-11919174D01*
X3421610Y-11919174D02*
X3431134Y-11938222D01*
X3431134Y-11938222D02*
X3431134Y-12042984D01*
X3431134Y-11938222D02*
X3440658Y-11919174D01*
X3440658Y-11919174D02*
X3459705Y-11909650D01*
X3459705Y-11909650D02*
X3488277Y-11909650D01*
X3488277Y-11909650D02*
X3507324Y-11919174D01*
X3507324Y-11919174D02*
X3516848Y-11938222D01*
X3516848Y-11938222D02*
X3516848Y-12042984D01*
X3612086Y-12042984D02*
X3612086Y-11909650D01*
X3612086Y-11928698D02*
X3621610Y-11919174D01*
X3621610Y-11919174D02*
X3640658Y-11909650D01*
X3640658Y-11909650D02*
X3669229Y-11909650D01*
X3669229Y-11909650D02*
X3688277Y-11919174D01*
X3688277Y-11919174D02*
X3697801Y-11938222D01*
X3697801Y-11938222D02*
X3697801Y-12042984D01*
X3697801Y-11938222D02*
X3707324Y-11919174D01*
X3707324Y-11919174D02*
X3726372Y-11909650D01*
X3726372Y-11909650D02*
X3754943Y-11909650D01*
X3754943Y-11909650D02*
X3773991Y-11919174D01*
X3773991Y-11919174D02*
X3783515Y-11938222D01*
X3783515Y-11938222D02*
X3783515Y-12042984D01*
X4173991Y-11833460D02*
X4002563Y-12090603D01*
X4431134Y-11842984D02*
X4450182Y-11842984D01*
X4450182Y-11842984D02*
X4469229Y-11852508D01*
X4469229Y-11852508D02*
X4478753Y-11862031D01*
X4478753Y-11862031D02*
X4488277Y-11881079D01*
X4488277Y-11881079D02*
X4497801Y-11919174D01*
X4497801Y-11919174D02*
X4497801Y-11966793D01*
X4497801Y-11966793D02*
X4488277Y-12004888D01*
X4488277Y-12004888D02*
X4478753Y-12023936D01*
X4478753Y-12023936D02*
X4469229Y-12033460D01*
X4469229Y-12033460D02*
X4450182Y-12042984D01*
X4450182Y-12042984D02*
X4431134Y-12042984D01*
X4431134Y-12042984D02*
X4412087Y-12033460D01*
X4412087Y-12033460D02*
X4402563Y-12023936D01*
X4402563Y-12023936D02*
X4393039Y-12004888D01*
X4393039Y-12004888D02*
X4383515Y-11966793D01*
X4383515Y-11966793D02*
X4383515Y-11919174D01*
X4383515Y-11919174D02*
X4393039Y-11881079D01*
X4393039Y-11881079D02*
X4402563Y-11862031D01*
X4402563Y-11862031D02*
X4412087Y-11852508D01*
X4412087Y-11852508D02*
X4431134Y-11842984D01*
X4583515Y-12023936D02*
X4593039Y-12033460D01*
X4593039Y-12033460D02*
X4583515Y-12042984D01*
X4583515Y-12042984D02*
X4573991Y-12033460D01*
X4573991Y-12033460D02*
X4583515Y-12023936D01*
X4583515Y-12023936D02*
X4583515Y-12042984D01*
X4716848Y-11842984D02*
X4735896Y-11842984D01*
X4735896Y-11842984D02*
X4754944Y-11852508D01*
X4754944Y-11852508D02*
X4764468Y-11862031D01*
X4764468Y-11862031D02*
X4773991Y-11881079D01*
X4773991Y-11881079D02*
X4783515Y-11919174D01*
X4783515Y-11919174D02*
X4783515Y-11966793D01*
X4783515Y-11966793D02*
X4773991Y-12004888D01*
X4773991Y-12004888D02*
X4764468Y-12023936D01*
X4764468Y-12023936D02*
X4754944Y-12033460D01*
X4754944Y-12033460D02*
X4735896Y-12042984D01*
X4735896Y-12042984D02*
X4716848Y-12042984D01*
X4716848Y-12042984D02*
X4697801Y-12033460D01*
X4697801Y-12033460D02*
X4688277Y-12023936D01*
X4688277Y-12023936D02*
X4678753Y-12004888D01*
X4678753Y-12004888D02*
X4669229Y-11966793D01*
X4669229Y-11966793D02*
X4669229Y-11919174D01*
X4669229Y-11919174D02*
X4678753Y-11881079D01*
X4678753Y-11881079D02*
X4688277Y-11862031D01*
X4688277Y-11862031D02*
X4697801Y-11852508D01*
X4697801Y-11852508D02*
X4716848Y-11842984D01*
X4973991Y-12042984D02*
X4859706Y-12042984D01*
X4916848Y-12042984D02*
X4916848Y-11842984D01*
X4916848Y-11842984D02*
X4897801Y-11871555D01*
X4897801Y-11871555D02*
X4878753Y-11890603D01*
X4878753Y-11890603D02*
X4859706Y-11900127D01*
X5069229Y-12042984D02*
X5107325Y-12042984D01*
X5107325Y-12042984D02*
X5126372Y-12033460D01*
X5126372Y-12033460D02*
X5135896Y-12023936D01*
X5135896Y-12023936D02*
X5154944Y-11995365D01*
X5154944Y-11995365D02*
X5164468Y-11957269D01*
X5164468Y-11957269D02*
X5164468Y-11881079D01*
X5164468Y-11881079D02*
X5154944Y-11862031D01*
X5154944Y-11862031D02*
X5145420Y-11852508D01*
X5145420Y-11852508D02*
X5126372Y-11842984D01*
X5126372Y-11842984D02*
X5088277Y-11842984D01*
X5088277Y-11842984D02*
X5069229Y-11852508D01*
X5069229Y-11852508D02*
X5059706Y-11862031D01*
X5059706Y-11862031D02*
X5050182Y-11881079D01*
X5050182Y-11881079D02*
X5050182Y-11928698D01*
X5050182Y-11928698D02*
X5059706Y-11947746D01*
X5059706Y-11947746D02*
X5069229Y-11957269D01*
X5069229Y-11957269D02*
X5088277Y-11966793D01*
X5088277Y-11966793D02*
X5126372Y-11966793D01*
X5126372Y-11966793D02*
X5145420Y-11957269D01*
X5145420Y-11957269D02*
X5154944Y-11947746D01*
X5154944Y-11947746D02*
X5164468Y-11928698D01*
X5231134Y-11842984D02*
X5364468Y-11842984D01*
X5364468Y-11842984D02*
X5278753Y-12042984D01*
X5431134Y-11842984D02*
X5431134Y-11881079D01*
X5507325Y-11842984D02*
X5507325Y-11881079D01*
X5802563Y-12119174D02*
X5793039Y-12109650D01*
X5793039Y-12109650D02*
X5773991Y-12081079D01*
X5773991Y-12081079D02*
X5764468Y-12062031D01*
X5764468Y-12062031D02*
X5754944Y-12033460D01*
X5754944Y-12033460D02*
X5745420Y-11985841D01*
X5745420Y-11985841D02*
X5745420Y-11947746D01*
X5745420Y-11947746D02*
X5754944Y-11900127D01*
X5754944Y-11900127D02*
X5764468Y-11871555D01*
X5764468Y-11871555D02*
X5773991Y-11852508D01*
X5773991Y-11852508D02*
X5793039Y-11823936D01*
X5793039Y-11823936D02*
X5802563Y-11814412D01*
X5916848Y-11842984D02*
X5935896Y-11842984D01*
X5935896Y-11842984D02*
X5954944Y-11852508D01*
X5954944Y-11852508D02*
X5964468Y-11862031D01*
X5964468Y-11862031D02*
X5973991Y-11881079D01*
X5973991Y-11881079D02*
X5983515Y-11919174D01*
X5983515Y-11919174D02*
X5983515Y-11966793D01*
X5983515Y-11966793D02*
X5973991Y-12004888D01*
X5973991Y-12004888D02*
X5964468Y-12023936D01*
X5964468Y-12023936D02*
X5954944Y-12033460D01*
X5954944Y-12033460D02*
X5935896Y-12042984D01*
X5935896Y-12042984D02*
X5916848Y-12042984D01*
X5916848Y-12042984D02*
X5897801Y-12033460D01*
X5897801Y-12033460D02*
X5888277Y-12023936D01*
X5888277Y-12023936D02*
X5878753Y-12004888D01*
X5878753Y-12004888D02*
X5869229Y-11966793D01*
X5869229Y-11966793D02*
X5869229Y-11919174D01*
X5869229Y-11919174D02*
X5878753Y-11881079D01*
X5878753Y-11881079D02*
X5888277Y-11862031D01*
X5888277Y-11862031D02*
X5897801Y-11852508D01*
X5897801Y-11852508D02*
X5916848Y-11842984D01*
X6221610Y-12042984D02*
X6221610Y-11842984D01*
X6307325Y-12042984D02*
X6307325Y-11938222D01*
X6307325Y-11938222D02*
X6297801Y-11919174D01*
X6297801Y-11919174D02*
X6278753Y-11909650D01*
X6278753Y-11909650D02*
X6250182Y-11909650D01*
X6250182Y-11909650D02*
X6231134Y-11919174D01*
X6231134Y-11919174D02*
X6221610Y-11928698D01*
X6431134Y-12042984D02*
X6412087Y-12033460D01*
X6412087Y-12033460D02*
X6402563Y-12023936D01*
X6402563Y-12023936D02*
X6393039Y-12004888D01*
X6393039Y-12004888D02*
X6393039Y-11947746D01*
X6393039Y-11947746D02*
X6402563Y-11928698D01*
X6402563Y-11928698D02*
X6412087Y-11919174D01*
X6412087Y-11919174D02*
X6431134Y-11909650D01*
X6431134Y-11909650D02*
X6459706Y-11909650D01*
X6459706Y-11909650D02*
X6478753Y-11919174D01*
X6478753Y-11919174D02*
X6488277Y-11928698D01*
X6488277Y-11928698D02*
X6497801Y-11947746D01*
X6497801Y-11947746D02*
X6497801Y-12004888D01*
X6497801Y-12004888D02*
X6488277Y-12023936D01*
X6488277Y-12023936D02*
X6478753Y-12033460D01*
X6478753Y-12033460D02*
X6459706Y-12042984D01*
X6459706Y-12042984D02*
X6431134Y-12042984D01*
X6612087Y-12042984D02*
X6593039Y-12033460D01*
X6593039Y-12033460D02*
X6583515Y-12014412D01*
X6583515Y-12014412D02*
X6583515Y-11842984D01*
X6764468Y-12033460D02*
X6745420Y-12042984D01*
X6745420Y-12042984D02*
X6707325Y-12042984D01*
X6707325Y-12042984D02*
X6688277Y-12033460D01*
X6688277Y-12033460D02*
X6678753Y-12014412D01*
X6678753Y-12014412D02*
X6678753Y-11938222D01*
X6678753Y-11938222D02*
X6688277Y-11919174D01*
X6688277Y-11919174D02*
X6707325Y-11909650D01*
X6707325Y-11909650D02*
X6745420Y-11909650D01*
X6745420Y-11909650D02*
X6764468Y-11919174D01*
X6764468Y-11919174D02*
X6773991Y-11938222D01*
X6773991Y-11938222D02*
X6773991Y-11957269D01*
X6773991Y-11957269D02*
X6678753Y-11976317D01*
X6850182Y-12033460D02*
X6869230Y-12042984D01*
X6869230Y-12042984D02*
X6907325Y-12042984D01*
X6907325Y-12042984D02*
X6926372Y-12033460D01*
X6926372Y-12033460D02*
X6935896Y-12014412D01*
X6935896Y-12014412D02*
X6935896Y-12004888D01*
X6935896Y-12004888D02*
X6926372Y-11985841D01*
X6926372Y-11985841D02*
X6907325Y-11976317D01*
X6907325Y-11976317D02*
X6878753Y-11976317D01*
X6878753Y-11976317D02*
X6859706Y-11966793D01*
X6859706Y-11966793D02*
X6850182Y-11947746D01*
X6850182Y-11947746D02*
X6850182Y-11938222D01*
X6850182Y-11938222D02*
X6859706Y-11919174D01*
X6859706Y-11919174D02*
X6878753Y-11909650D01*
X6878753Y-11909650D02*
X6907325Y-11909650D01*
X6907325Y-11909650D02*
X6926372Y-11919174D01*
X7173992Y-11966793D02*
X7326373Y-11966793D01*
X7250182Y-12042984D02*
X7250182Y-11890603D01*
X7659706Y-11842984D02*
X7621611Y-11842984D01*
X7621611Y-11842984D02*
X7602563Y-11852508D01*
X7602563Y-11852508D02*
X7593039Y-11862031D01*
X7593039Y-11862031D02*
X7573992Y-11890603D01*
X7573992Y-11890603D02*
X7564468Y-11928698D01*
X7564468Y-11928698D02*
X7564468Y-12004888D01*
X7564468Y-12004888D02*
X7573992Y-12023936D01*
X7573992Y-12023936D02*
X7583515Y-12033460D01*
X7583515Y-12033460D02*
X7602563Y-12042984D01*
X7602563Y-12042984D02*
X7640658Y-12042984D01*
X7640658Y-12042984D02*
X7659706Y-12033460D01*
X7659706Y-12033460D02*
X7669230Y-12023936D01*
X7669230Y-12023936D02*
X7678753Y-12004888D01*
X7678753Y-12004888D02*
X7678753Y-11957269D01*
X7678753Y-11957269D02*
X7669230Y-11938222D01*
X7669230Y-11938222D02*
X7659706Y-11928698D01*
X7659706Y-11928698D02*
X7640658Y-11919174D01*
X7640658Y-11919174D02*
X7602563Y-11919174D01*
X7602563Y-11919174D02*
X7583515Y-11928698D01*
X7583515Y-11928698D02*
X7573992Y-11938222D01*
X7573992Y-11938222D02*
X7564468Y-11957269D01*
X7907325Y-12033460D02*
X7926373Y-12042984D01*
X7926373Y-12042984D02*
X7964468Y-12042984D01*
X7964468Y-12042984D02*
X7983515Y-12033460D01*
X7983515Y-12033460D02*
X7993039Y-12014412D01*
X7993039Y-12014412D02*
X7993039Y-12004888D01*
X7993039Y-12004888D02*
X7983515Y-11985841D01*
X7983515Y-11985841D02*
X7964468Y-11976317D01*
X7964468Y-11976317D02*
X7935896Y-11976317D01*
X7935896Y-11976317D02*
X7916849Y-11966793D01*
X7916849Y-11966793D02*
X7907325Y-11947746D01*
X7907325Y-11947746D02*
X7907325Y-11938222D01*
X7907325Y-11938222D02*
X7916849Y-11919174D01*
X7916849Y-11919174D02*
X7935896Y-11909650D01*
X7935896Y-11909650D02*
X7964468Y-11909650D01*
X7964468Y-11909650D02*
X7983515Y-11919174D01*
X8107325Y-12042984D02*
X8088277Y-12033460D01*
X8088277Y-12033460D02*
X8078754Y-12014412D01*
X8078754Y-12014412D02*
X8078754Y-11842984D01*
X8212087Y-12042984D02*
X8193039Y-12033460D01*
X8193039Y-12033460D02*
X8183515Y-12023936D01*
X8183515Y-12023936D02*
X8173992Y-12004888D01*
X8173992Y-12004888D02*
X8173992Y-11947746D01*
X8173992Y-11947746D02*
X8183515Y-11928698D01*
X8183515Y-11928698D02*
X8193039Y-11919174D01*
X8193039Y-11919174D02*
X8212087Y-11909650D01*
X8212087Y-11909650D02*
X8240658Y-11909650D01*
X8240658Y-11909650D02*
X8259706Y-11919174D01*
X8259706Y-11919174D02*
X8269230Y-11928698D01*
X8269230Y-11928698D02*
X8278754Y-11947746D01*
X8278754Y-11947746D02*
X8278754Y-12004888D01*
X8278754Y-12004888D02*
X8269230Y-12023936D01*
X8269230Y-12023936D02*
X8259706Y-12033460D01*
X8259706Y-12033460D02*
X8240658Y-12042984D01*
X8240658Y-12042984D02*
X8212087Y-12042984D01*
X8335896Y-11909650D02*
X8412087Y-11909650D01*
X8364468Y-11842984D02*
X8364468Y-12014412D01*
X8364468Y-12014412D02*
X8373992Y-12033460D01*
X8373992Y-12033460D02*
X8393039Y-12042984D01*
X8393039Y-12042984D02*
X8412087Y-12042984D01*
X8469230Y-12033460D02*
X8488277Y-12042984D01*
X8488277Y-12042984D02*
X8526373Y-12042984D01*
X8526373Y-12042984D02*
X8545420Y-12033460D01*
X8545420Y-12033460D02*
X8554944Y-12014412D01*
X8554944Y-12014412D02*
X8554944Y-12004888D01*
X8554944Y-12004888D02*
X8545420Y-11985841D01*
X8545420Y-11985841D02*
X8526373Y-11976317D01*
X8526373Y-11976317D02*
X8497801Y-11976317D01*
X8497801Y-11976317D02*
X8478754Y-11966793D01*
X8478754Y-11966793D02*
X8469230Y-11947746D01*
X8469230Y-11947746D02*
X8469230Y-11938222D01*
X8469230Y-11938222D02*
X8478754Y-11919174D01*
X8478754Y-11919174D02*
X8497801Y-11909650D01*
X8497801Y-11909650D02*
X8526373Y-11909650D01*
X8526373Y-11909650D02*
X8545420Y-11919174D01*
X8621611Y-12119174D02*
X8631135Y-12109650D01*
X8631135Y-12109650D02*
X8650182Y-12081079D01*
X8650182Y-12081079D02*
X8659706Y-12062031D01*
X8659706Y-12062031D02*
X8669230Y-12033460D01*
X8669230Y-12033460D02*
X8678754Y-11985841D01*
X8678754Y-11985841D02*
X8678754Y-11947746D01*
X8678754Y-11947746D02*
X8669230Y-11900127D01*
X8669230Y-11900127D02*
X8659706Y-11871555D01*
X8659706Y-11871555D02*
X8650182Y-11852508D01*
X8650182Y-11852508D02*
X8631135Y-11823936D01*
X8631135Y-11823936D02*
X8621611Y-11814412D01*
D13*
X2186860Y-12174860D02*
X2186860Y-12256140D01*
X2146220Y-12215500D02*
X2227500Y-12215500D01*
D12*
X2526372Y-12106984D02*
X2545420Y-12106984D01*
X2545420Y-12106984D02*
X2564467Y-12116508D01*
X2564467Y-12116508D02*
X2573991Y-12126031D01*
X2573991Y-12126031D02*
X2583515Y-12145079D01*
X2583515Y-12145079D02*
X2593039Y-12183174D01*
X2593039Y-12183174D02*
X2593039Y-12230793D01*
X2593039Y-12230793D02*
X2583515Y-12268888D01*
X2583515Y-12268888D02*
X2573991Y-12287936D01*
X2573991Y-12287936D02*
X2564467Y-12297460D01*
X2564467Y-12297460D02*
X2545420Y-12306984D01*
X2545420Y-12306984D02*
X2526372Y-12306984D01*
X2526372Y-12306984D02*
X2507324Y-12297460D01*
X2507324Y-12297460D02*
X2497801Y-12287936D01*
X2497801Y-12287936D02*
X2488277Y-12268888D01*
X2488277Y-12268888D02*
X2478753Y-12230793D01*
X2478753Y-12230793D02*
X2478753Y-12183174D01*
X2478753Y-12183174D02*
X2488277Y-12145079D01*
X2488277Y-12145079D02*
X2497801Y-12126031D01*
X2497801Y-12126031D02*
X2507324Y-12116508D01*
X2507324Y-12116508D02*
X2526372Y-12106984D01*
X2678753Y-12287936D02*
X2688277Y-12297460D01*
X2688277Y-12297460D02*
X2678753Y-12306984D01*
X2678753Y-12306984D02*
X2669229Y-12297460D01*
X2669229Y-12297460D02*
X2678753Y-12287936D01*
X2678753Y-12287936D02*
X2678753Y-12306984D01*
X2802562Y-12192698D02*
X2783515Y-12183174D01*
X2783515Y-12183174D02*
X2773991Y-12173650D01*
X2773991Y-12173650D02*
X2764467Y-12154603D01*
X2764467Y-12154603D02*
X2764467Y-12145079D01*
X2764467Y-12145079D02*
X2773991Y-12126031D01*
X2773991Y-12126031D02*
X2783515Y-12116508D01*
X2783515Y-12116508D02*
X2802562Y-12106984D01*
X2802562Y-12106984D02*
X2840658Y-12106984D01*
X2840658Y-12106984D02*
X2859705Y-12116508D01*
X2859705Y-12116508D02*
X2869229Y-12126031D01*
X2869229Y-12126031D02*
X2878753Y-12145079D01*
X2878753Y-12145079D02*
X2878753Y-12154603D01*
X2878753Y-12154603D02*
X2869229Y-12173650D01*
X2869229Y-12173650D02*
X2859705Y-12183174D01*
X2859705Y-12183174D02*
X2840658Y-12192698D01*
X2840658Y-12192698D02*
X2802562Y-12192698D01*
X2802562Y-12192698D02*
X2783515Y-12202222D01*
X2783515Y-12202222D02*
X2773991Y-12211746D01*
X2773991Y-12211746D02*
X2764467Y-12230793D01*
X2764467Y-12230793D02*
X2764467Y-12268888D01*
X2764467Y-12268888D02*
X2773991Y-12287936D01*
X2773991Y-12287936D02*
X2783515Y-12297460D01*
X2783515Y-12297460D02*
X2802562Y-12306984D01*
X2802562Y-12306984D02*
X2840658Y-12306984D01*
X2840658Y-12306984D02*
X2859705Y-12297460D01*
X2859705Y-12297460D02*
X2869229Y-12287936D01*
X2869229Y-12287936D02*
X2878753Y-12268888D01*
X2878753Y-12268888D02*
X2878753Y-12230793D01*
X2878753Y-12230793D02*
X2869229Y-12211746D01*
X2869229Y-12211746D02*
X2859705Y-12202222D01*
X2859705Y-12202222D02*
X2840658Y-12192698D01*
X3069229Y-12306984D02*
X2954943Y-12306984D01*
X3012086Y-12306984D02*
X3012086Y-12106984D01*
X3012086Y-12106984D02*
X2993039Y-12135555D01*
X2993039Y-12135555D02*
X2973991Y-12154603D01*
X2973991Y-12154603D02*
X2954943Y-12164127D01*
X3135896Y-12106984D02*
X3259705Y-12106984D01*
X3259705Y-12106984D02*
X3193039Y-12183174D01*
X3193039Y-12183174D02*
X3221610Y-12183174D01*
X3221610Y-12183174D02*
X3240658Y-12192698D01*
X3240658Y-12192698D02*
X3250182Y-12202222D01*
X3250182Y-12202222D02*
X3259705Y-12221269D01*
X3259705Y-12221269D02*
X3259705Y-12268888D01*
X3259705Y-12268888D02*
X3250182Y-12287936D01*
X3250182Y-12287936D02*
X3240658Y-12297460D01*
X3240658Y-12297460D02*
X3221610Y-12306984D01*
X3221610Y-12306984D02*
X3164467Y-12306984D01*
X3164467Y-12306984D02*
X3145420Y-12297460D01*
X3145420Y-12297460D02*
X3135896Y-12287936D01*
X3345420Y-12306984D02*
X3345420Y-12173650D01*
X3345420Y-12192698D02*
X3354943Y-12183174D01*
X3354943Y-12183174D02*
X3373991Y-12173650D01*
X3373991Y-12173650D02*
X3402563Y-12173650D01*
X3402563Y-12173650D02*
X3421610Y-12183174D01*
X3421610Y-12183174D02*
X3431134Y-12202222D01*
X3431134Y-12202222D02*
X3431134Y-12306984D01*
X3431134Y-12202222D02*
X3440658Y-12183174D01*
X3440658Y-12183174D02*
X3459705Y-12173650D01*
X3459705Y-12173650D02*
X3488277Y-12173650D01*
X3488277Y-12173650D02*
X3507324Y-12183174D01*
X3507324Y-12183174D02*
X3516848Y-12202222D01*
X3516848Y-12202222D02*
X3516848Y-12306984D01*
X3612086Y-12306984D02*
X3612086Y-12173650D01*
X3612086Y-12192698D02*
X3621610Y-12183174D01*
X3621610Y-12183174D02*
X3640658Y-12173650D01*
X3640658Y-12173650D02*
X3669229Y-12173650D01*
X3669229Y-12173650D02*
X3688277Y-12183174D01*
X3688277Y-12183174D02*
X3697801Y-12202222D01*
X3697801Y-12202222D02*
X3697801Y-12306984D01*
X3697801Y-12202222D02*
X3707324Y-12183174D01*
X3707324Y-12183174D02*
X3726372Y-12173650D01*
X3726372Y-12173650D02*
X3754943Y-12173650D01*
X3754943Y-12173650D02*
X3773991Y-12183174D01*
X3773991Y-12183174D02*
X3783515Y-12202222D01*
X3783515Y-12202222D02*
X3783515Y-12306984D01*
X4173991Y-12097460D02*
X4002563Y-12354603D01*
X4431134Y-12106984D02*
X4450182Y-12106984D01*
X4450182Y-12106984D02*
X4469229Y-12116508D01*
X4469229Y-12116508D02*
X4478753Y-12126031D01*
X4478753Y-12126031D02*
X4488277Y-12145079D01*
X4488277Y-12145079D02*
X4497801Y-12183174D01*
X4497801Y-12183174D02*
X4497801Y-12230793D01*
X4497801Y-12230793D02*
X4488277Y-12268888D01*
X4488277Y-12268888D02*
X4478753Y-12287936D01*
X4478753Y-12287936D02*
X4469229Y-12297460D01*
X4469229Y-12297460D02*
X4450182Y-12306984D01*
X4450182Y-12306984D02*
X4431134Y-12306984D01*
X4431134Y-12306984D02*
X4412087Y-12297460D01*
X4412087Y-12297460D02*
X4402563Y-12287936D01*
X4402563Y-12287936D02*
X4393039Y-12268888D01*
X4393039Y-12268888D02*
X4383515Y-12230793D01*
X4383515Y-12230793D02*
X4383515Y-12183174D01*
X4383515Y-12183174D02*
X4393039Y-12145079D01*
X4393039Y-12145079D02*
X4402563Y-12126031D01*
X4402563Y-12126031D02*
X4412087Y-12116508D01*
X4412087Y-12116508D02*
X4431134Y-12106984D01*
X4583515Y-12287936D02*
X4593039Y-12297460D01*
X4593039Y-12297460D02*
X4583515Y-12306984D01*
X4583515Y-12306984D02*
X4573991Y-12297460D01*
X4573991Y-12297460D02*
X4583515Y-12287936D01*
X4583515Y-12287936D02*
X4583515Y-12306984D01*
X4716848Y-12106984D02*
X4735896Y-12106984D01*
X4735896Y-12106984D02*
X4754944Y-12116508D01*
X4754944Y-12116508D02*
X4764468Y-12126031D01*
X4764468Y-12126031D02*
X4773991Y-12145079D01*
X4773991Y-12145079D02*
X4783515Y-12183174D01*
X4783515Y-12183174D02*
X4783515Y-12230793D01*
X4783515Y-12230793D02*
X4773991Y-12268888D01*
X4773991Y-12268888D02*
X4764468Y-12287936D01*
X4764468Y-12287936D02*
X4754944Y-12297460D01*
X4754944Y-12297460D02*
X4735896Y-12306984D01*
X4735896Y-12306984D02*
X4716848Y-12306984D01*
X4716848Y-12306984D02*
X4697801Y-12297460D01*
X4697801Y-12297460D02*
X4688277Y-12287936D01*
X4688277Y-12287936D02*
X4678753Y-12268888D01*
X4678753Y-12268888D02*
X4669229Y-12230793D01*
X4669229Y-12230793D02*
X4669229Y-12183174D01*
X4669229Y-12183174D02*
X4678753Y-12145079D01*
X4678753Y-12145079D02*
X4688277Y-12126031D01*
X4688277Y-12126031D02*
X4697801Y-12116508D01*
X4697801Y-12116508D02*
X4716848Y-12106984D01*
X4850182Y-12106984D02*
X4973991Y-12106984D01*
X4973991Y-12106984D02*
X4907325Y-12183174D01*
X4907325Y-12183174D02*
X4935896Y-12183174D01*
X4935896Y-12183174D02*
X4954944Y-12192698D01*
X4954944Y-12192698D02*
X4964468Y-12202222D01*
X4964468Y-12202222D02*
X4973991Y-12221269D01*
X4973991Y-12221269D02*
X4973991Y-12268888D01*
X4973991Y-12268888D02*
X4964468Y-12287936D01*
X4964468Y-12287936D02*
X4954944Y-12297460D01*
X4954944Y-12297460D02*
X4935896Y-12306984D01*
X4935896Y-12306984D02*
X4878753Y-12306984D01*
X4878753Y-12306984D02*
X4859706Y-12297460D01*
X4859706Y-12297460D02*
X4850182Y-12287936D01*
X5050182Y-12126031D02*
X5059706Y-12116508D01*
X5059706Y-12116508D02*
X5078753Y-12106984D01*
X5078753Y-12106984D02*
X5126372Y-12106984D01*
X5126372Y-12106984D02*
X5145420Y-12116508D01*
X5145420Y-12116508D02*
X5154944Y-12126031D01*
X5154944Y-12126031D02*
X5164468Y-12145079D01*
X5164468Y-12145079D02*
X5164468Y-12164127D01*
X5164468Y-12164127D02*
X5154944Y-12192698D01*
X5154944Y-12192698D02*
X5040658Y-12306984D01*
X5040658Y-12306984D02*
X5164468Y-12306984D01*
X5288277Y-12106984D02*
X5307325Y-12106984D01*
X5307325Y-12106984D02*
X5326372Y-12116508D01*
X5326372Y-12116508D02*
X5335896Y-12126031D01*
X5335896Y-12126031D02*
X5345420Y-12145079D01*
X5345420Y-12145079D02*
X5354944Y-12183174D01*
X5354944Y-12183174D02*
X5354944Y-12230793D01*
X5354944Y-12230793D02*
X5345420Y-12268888D01*
X5345420Y-12268888D02*
X5335896Y-12287936D01*
X5335896Y-12287936D02*
X5326372Y-12297460D01*
X5326372Y-12297460D02*
X5307325Y-12306984D01*
X5307325Y-12306984D02*
X5288277Y-12306984D01*
X5288277Y-12306984D02*
X5269229Y-12297460D01*
X5269229Y-12297460D02*
X5259706Y-12287936D01*
X5259706Y-12287936D02*
X5250182Y-12268888D01*
X5250182Y-12268888D02*
X5240658Y-12230793D01*
X5240658Y-12230793D02*
X5240658Y-12183174D01*
X5240658Y-12183174D02*
X5250182Y-12145079D01*
X5250182Y-12145079D02*
X5259706Y-12126031D01*
X5259706Y-12126031D02*
X5269229Y-12116508D01*
X5269229Y-12116508D02*
X5288277Y-12106984D01*
X5431134Y-12106984D02*
X5431134Y-12145079D01*
X5507325Y-12106984D02*
X5507325Y-12145079D01*
X5802563Y-12383174D02*
X5793039Y-12373650D01*
X5793039Y-12373650D02*
X5773991Y-12345079D01*
X5773991Y-12345079D02*
X5764468Y-12326031D01*
X5764468Y-12326031D02*
X5754944Y-12297460D01*
X5754944Y-12297460D02*
X5745420Y-12249841D01*
X5745420Y-12249841D02*
X5745420Y-12211746D01*
X5745420Y-12211746D02*
X5754944Y-12164127D01*
X5754944Y-12164127D02*
X5764468Y-12135555D01*
X5764468Y-12135555D02*
X5773991Y-12116508D01*
X5773991Y-12116508D02*
X5793039Y-12087936D01*
X5793039Y-12087936D02*
X5802563Y-12078412D01*
X5869229Y-12126031D02*
X5878753Y-12116508D01*
X5878753Y-12116508D02*
X5897801Y-12106984D01*
X5897801Y-12106984D02*
X5945420Y-12106984D01*
X5945420Y-12106984D02*
X5964468Y-12116508D01*
X5964468Y-12116508D02*
X5973991Y-12126031D01*
X5973991Y-12126031D02*
X5983515Y-12145079D01*
X5983515Y-12145079D02*
X5983515Y-12164127D01*
X5983515Y-12164127D02*
X5973991Y-12192698D01*
X5973991Y-12192698D02*
X5859706Y-12306984D01*
X5859706Y-12306984D02*
X5983515Y-12306984D01*
X6097801Y-12192698D02*
X6078753Y-12183174D01*
X6078753Y-12183174D02*
X6069229Y-12173650D01*
X6069229Y-12173650D02*
X6059706Y-12154603D01*
X6059706Y-12154603D02*
X6059706Y-12145079D01*
X6059706Y-12145079D02*
X6069229Y-12126031D01*
X6069229Y-12126031D02*
X6078753Y-12116508D01*
X6078753Y-12116508D02*
X6097801Y-12106984D01*
X6097801Y-12106984D02*
X6135896Y-12106984D01*
X6135896Y-12106984D02*
X6154944Y-12116508D01*
X6154944Y-12116508D02*
X6164468Y-12126031D01*
X6164468Y-12126031D02*
X6173991Y-12145079D01*
X6173991Y-12145079D02*
X6173991Y-12154603D01*
X6173991Y-12154603D02*
X6164468Y-12173650D01*
X6164468Y-12173650D02*
X6154944Y-12183174D01*
X6154944Y-12183174D02*
X6135896Y-12192698D01*
X6135896Y-12192698D02*
X6097801Y-12192698D01*
X6097801Y-12192698D02*
X6078753Y-12202222D01*
X6078753Y-12202222D02*
X6069229Y-12211746D01*
X6069229Y-12211746D02*
X6059706Y-12230793D01*
X6059706Y-12230793D02*
X6059706Y-12268888D01*
X6059706Y-12268888D02*
X6069229Y-12287936D01*
X6069229Y-12287936D02*
X6078753Y-12297460D01*
X6078753Y-12297460D02*
X6097801Y-12306984D01*
X6097801Y-12306984D02*
X6135896Y-12306984D01*
X6135896Y-12306984D02*
X6154944Y-12297460D01*
X6154944Y-12297460D02*
X6164468Y-12287936D01*
X6164468Y-12287936D02*
X6173991Y-12268888D01*
X6173991Y-12268888D02*
X6173991Y-12230793D01*
X6173991Y-12230793D02*
X6164468Y-12211746D01*
X6164468Y-12211746D02*
X6154944Y-12202222D01*
X6154944Y-12202222D02*
X6135896Y-12192698D01*
X6412087Y-12306984D02*
X6412087Y-12106984D01*
X6497801Y-12306984D02*
X6497801Y-12202222D01*
X6497801Y-12202222D02*
X6488277Y-12183174D01*
X6488277Y-12183174D02*
X6469230Y-12173650D01*
X6469230Y-12173650D02*
X6440658Y-12173650D01*
X6440658Y-12173650D02*
X6421610Y-12183174D01*
X6421610Y-12183174D02*
X6412087Y-12192698D01*
X6621610Y-12306984D02*
X6602563Y-12297460D01*
X6602563Y-12297460D02*
X6593039Y-12287936D01*
X6593039Y-12287936D02*
X6583515Y-12268888D01*
X6583515Y-12268888D02*
X6583515Y-12211746D01*
X6583515Y-12211746D02*
X6593039Y-12192698D01*
X6593039Y-12192698D02*
X6602563Y-12183174D01*
X6602563Y-12183174D02*
X6621610Y-12173650D01*
X6621610Y-12173650D02*
X6650182Y-12173650D01*
X6650182Y-12173650D02*
X6669230Y-12183174D01*
X6669230Y-12183174D02*
X6678753Y-12192698D01*
X6678753Y-12192698D02*
X6688277Y-12211746D01*
X6688277Y-12211746D02*
X6688277Y-12268888D01*
X6688277Y-12268888D02*
X6678753Y-12287936D01*
X6678753Y-12287936D02*
X6669230Y-12297460D01*
X6669230Y-12297460D02*
X6650182Y-12306984D01*
X6650182Y-12306984D02*
X6621610Y-12306984D01*
X6802563Y-12306984D02*
X6783515Y-12297460D01*
X6783515Y-12297460D02*
X6773991Y-12278412D01*
X6773991Y-12278412D02*
X6773991Y-12106984D01*
X6954944Y-12297460D02*
X6935896Y-12306984D01*
X6935896Y-12306984D02*
X6897801Y-12306984D01*
X6897801Y-12306984D02*
X6878753Y-12297460D01*
X6878753Y-12297460D02*
X6869230Y-12278412D01*
X6869230Y-12278412D02*
X6869230Y-12202222D01*
X6869230Y-12202222D02*
X6878753Y-12183174D01*
X6878753Y-12183174D02*
X6897801Y-12173650D01*
X6897801Y-12173650D02*
X6935896Y-12173650D01*
X6935896Y-12173650D02*
X6954944Y-12183174D01*
X6954944Y-12183174D02*
X6964468Y-12202222D01*
X6964468Y-12202222D02*
X6964468Y-12221269D01*
X6964468Y-12221269D02*
X6869230Y-12240317D01*
X7040658Y-12297460D02*
X7059706Y-12306984D01*
X7059706Y-12306984D02*
X7097801Y-12306984D01*
X7097801Y-12306984D02*
X7116849Y-12297460D01*
X7116849Y-12297460D02*
X7126372Y-12278412D01*
X7126372Y-12278412D02*
X7126372Y-12268888D01*
X7126372Y-12268888D02*
X7116849Y-12249841D01*
X7116849Y-12249841D02*
X7097801Y-12240317D01*
X7097801Y-12240317D02*
X7069230Y-12240317D01*
X7069230Y-12240317D02*
X7050182Y-12230793D01*
X7050182Y-12230793D02*
X7040658Y-12211746D01*
X7040658Y-12211746D02*
X7040658Y-12202222D01*
X7040658Y-12202222D02*
X7050182Y-12183174D01*
X7050182Y-12183174D02*
X7069230Y-12173650D01*
X7069230Y-12173650D02*
X7097801Y-12173650D01*
X7097801Y-12173650D02*
X7116849Y-12183174D01*
X7193039Y-12383174D02*
X7202563Y-12373650D01*
X7202563Y-12373650D02*
X7221611Y-12345079D01*
X7221611Y-12345079D02*
X7231134Y-12326031D01*
X7231134Y-12326031D02*
X7240658Y-12297460D01*
X7240658Y-12297460D02*
X7250182Y-12249841D01*
X7250182Y-12249841D02*
X7250182Y-12211746D01*
X7250182Y-12211746D02*
X7240658Y-12164127D01*
X7240658Y-12164127D02*
X7231134Y-12135555D01*
X7231134Y-12135555D02*
X7221611Y-12116508D01*
X7221611Y-12116508D02*
X7202563Y-12087936D01*
X7202563Y-12087936D02*
X7193039Y-12078412D01*
D13*
X2212856Y-12514856D02*
X2212856Y-12444144D01*
X2142144Y-12444144D01*
X2142144Y-12514856D01*
X2212856Y-12514856D01*
D12*
X2593039Y-12570984D02*
X2478753Y-12570984D01*
X2535896Y-12570984D02*
X2535896Y-12370984D01*
X2535896Y-12370984D02*
X2516848Y-12399555D01*
X2516848Y-12399555D02*
X2497801Y-12418603D01*
X2497801Y-12418603D02*
X2478753Y-12428127D01*
X2678753Y-12551936D02*
X2688277Y-12561460D01*
X2688277Y-12561460D02*
X2678753Y-12570984D01*
X2678753Y-12570984D02*
X2669229Y-12561460D01*
X2669229Y-12561460D02*
X2678753Y-12551936D01*
X2678753Y-12551936D02*
X2678753Y-12570984D01*
X2812086Y-12370984D02*
X2831134Y-12370984D01*
X2831134Y-12370984D02*
X2850182Y-12380508D01*
X2850182Y-12380508D02*
X2859705Y-12390031D01*
X2859705Y-12390031D02*
X2869229Y-12409079D01*
X2869229Y-12409079D02*
X2878753Y-12447174D01*
X2878753Y-12447174D02*
X2878753Y-12494793D01*
X2878753Y-12494793D02*
X2869229Y-12532888D01*
X2869229Y-12532888D02*
X2859705Y-12551936D01*
X2859705Y-12551936D02*
X2850182Y-12561460D01*
X2850182Y-12561460D02*
X2831134Y-12570984D01*
X2831134Y-12570984D02*
X2812086Y-12570984D01*
X2812086Y-12570984D02*
X2793039Y-12561460D01*
X2793039Y-12561460D02*
X2783515Y-12551936D01*
X2783515Y-12551936D02*
X2773991Y-12532888D01*
X2773991Y-12532888D02*
X2764467Y-12494793D01*
X2764467Y-12494793D02*
X2764467Y-12447174D01*
X2764467Y-12447174D02*
X2773991Y-12409079D01*
X2773991Y-12409079D02*
X2783515Y-12390031D01*
X2783515Y-12390031D02*
X2793039Y-12380508D01*
X2793039Y-12380508D02*
X2812086Y-12370984D01*
X3002562Y-12370984D02*
X3021610Y-12370984D01*
X3021610Y-12370984D02*
X3040658Y-12380508D01*
X3040658Y-12380508D02*
X3050182Y-12390031D01*
X3050182Y-12390031D02*
X3059705Y-12409079D01*
X3059705Y-12409079D02*
X3069229Y-12447174D01*
X3069229Y-12447174D02*
X3069229Y-12494793D01*
X3069229Y-12494793D02*
X3059705Y-12532888D01*
X3059705Y-12532888D02*
X3050182Y-12551936D01*
X3050182Y-12551936D02*
X3040658Y-12561460D01*
X3040658Y-12561460D02*
X3021610Y-12570984D01*
X3021610Y-12570984D02*
X3002562Y-12570984D01*
X3002562Y-12570984D02*
X2983515Y-12561460D01*
X2983515Y-12561460D02*
X2973991Y-12551936D01*
X2973991Y-12551936D02*
X2964467Y-12532888D01*
X2964467Y-12532888D02*
X2954943Y-12494793D01*
X2954943Y-12494793D02*
X2954943Y-12447174D01*
X2954943Y-12447174D02*
X2964467Y-12409079D01*
X2964467Y-12409079D02*
X2973991Y-12390031D01*
X2973991Y-12390031D02*
X2983515Y-12380508D01*
X2983515Y-12380508D02*
X3002562Y-12370984D01*
X3193039Y-12370984D02*
X3212086Y-12370984D01*
X3212086Y-12370984D02*
X3231134Y-12380508D01*
X3231134Y-12380508D02*
X3240658Y-12390031D01*
X3240658Y-12390031D02*
X3250182Y-12409079D01*
X3250182Y-12409079D02*
X3259705Y-12447174D01*
X3259705Y-12447174D02*
X3259705Y-12494793D01*
X3259705Y-12494793D02*
X3250182Y-12532888D01*
X3250182Y-12532888D02*
X3240658Y-12551936D01*
X3240658Y-12551936D02*
X3231134Y-12561460D01*
X3231134Y-12561460D02*
X3212086Y-12570984D01*
X3212086Y-12570984D02*
X3193039Y-12570984D01*
X3193039Y-12570984D02*
X3173991Y-12561460D01*
X3173991Y-12561460D02*
X3164467Y-12551936D01*
X3164467Y-12551936D02*
X3154943Y-12532888D01*
X3154943Y-12532888D02*
X3145420Y-12494793D01*
X3145420Y-12494793D02*
X3145420Y-12447174D01*
X3145420Y-12447174D02*
X3154943Y-12409079D01*
X3154943Y-12409079D02*
X3164467Y-12390031D01*
X3164467Y-12390031D02*
X3173991Y-12380508D01*
X3173991Y-12380508D02*
X3193039Y-12370984D01*
X3345420Y-12570984D02*
X3345420Y-12437650D01*
X3345420Y-12456698D02*
X3354943Y-12447174D01*
X3354943Y-12447174D02*
X3373991Y-12437650D01*
X3373991Y-12437650D02*
X3402563Y-12437650D01*
X3402563Y-12437650D02*
X3421610Y-12447174D01*
X3421610Y-12447174D02*
X3431134Y-12466222D01*
X3431134Y-12466222D02*
X3431134Y-12570984D01*
X3431134Y-12466222D02*
X3440658Y-12447174D01*
X3440658Y-12447174D02*
X3459705Y-12437650D01*
X3459705Y-12437650D02*
X3488277Y-12437650D01*
X3488277Y-12437650D02*
X3507324Y-12447174D01*
X3507324Y-12447174D02*
X3516848Y-12466222D01*
X3516848Y-12466222D02*
X3516848Y-12570984D01*
X3612086Y-12570984D02*
X3612086Y-12437650D01*
X3612086Y-12456698D02*
X3621610Y-12447174D01*
X3621610Y-12447174D02*
X3640658Y-12437650D01*
X3640658Y-12437650D02*
X3669229Y-12437650D01*
X3669229Y-12437650D02*
X3688277Y-12447174D01*
X3688277Y-12447174D02*
X3697801Y-12466222D01*
X3697801Y-12466222D02*
X3697801Y-12570984D01*
X3697801Y-12466222D02*
X3707324Y-12447174D01*
X3707324Y-12447174D02*
X3726372Y-12437650D01*
X3726372Y-12437650D02*
X3754943Y-12437650D01*
X3754943Y-12437650D02*
X3773991Y-12447174D01*
X3773991Y-12447174D02*
X3783515Y-12466222D01*
X3783515Y-12466222D02*
X3783515Y-12570984D01*
X4173991Y-12361460D02*
X4002563Y-12618603D01*
X4431134Y-12370984D02*
X4450182Y-12370984D01*
X4450182Y-12370984D02*
X4469229Y-12380508D01*
X4469229Y-12380508D02*
X4478753Y-12390031D01*
X4478753Y-12390031D02*
X4488277Y-12409079D01*
X4488277Y-12409079D02*
X4497801Y-12447174D01*
X4497801Y-12447174D02*
X4497801Y-12494793D01*
X4497801Y-12494793D02*
X4488277Y-12532888D01*
X4488277Y-12532888D02*
X4478753Y-12551936D01*
X4478753Y-12551936D02*
X4469229Y-12561460D01*
X4469229Y-12561460D02*
X4450182Y-12570984D01*
X4450182Y-12570984D02*
X4431134Y-12570984D01*
X4431134Y-12570984D02*
X4412087Y-12561460D01*
X4412087Y-12561460D02*
X4402563Y-12551936D01*
X4402563Y-12551936D02*
X4393039Y-12532888D01*
X4393039Y-12532888D02*
X4383515Y-12494793D01*
X4383515Y-12494793D02*
X4383515Y-12447174D01*
X4383515Y-12447174D02*
X4393039Y-12409079D01*
X4393039Y-12409079D02*
X4402563Y-12390031D01*
X4402563Y-12390031D02*
X4412087Y-12380508D01*
X4412087Y-12380508D02*
X4431134Y-12370984D01*
X4583515Y-12551936D02*
X4593039Y-12561460D01*
X4593039Y-12561460D02*
X4583515Y-12570984D01*
X4583515Y-12570984D02*
X4573991Y-12561460D01*
X4573991Y-12561460D02*
X4583515Y-12551936D01*
X4583515Y-12551936D02*
X4583515Y-12570984D01*
X4716848Y-12370984D02*
X4735896Y-12370984D01*
X4735896Y-12370984D02*
X4754944Y-12380508D01*
X4754944Y-12380508D02*
X4764468Y-12390031D01*
X4764468Y-12390031D02*
X4773991Y-12409079D01*
X4773991Y-12409079D02*
X4783515Y-12447174D01*
X4783515Y-12447174D02*
X4783515Y-12494793D01*
X4783515Y-12494793D02*
X4773991Y-12532888D01*
X4773991Y-12532888D02*
X4764468Y-12551936D01*
X4764468Y-12551936D02*
X4754944Y-12561460D01*
X4754944Y-12561460D02*
X4735896Y-12570984D01*
X4735896Y-12570984D02*
X4716848Y-12570984D01*
X4716848Y-12570984D02*
X4697801Y-12561460D01*
X4697801Y-12561460D02*
X4688277Y-12551936D01*
X4688277Y-12551936D02*
X4678753Y-12532888D01*
X4678753Y-12532888D02*
X4669229Y-12494793D01*
X4669229Y-12494793D02*
X4669229Y-12447174D01*
X4669229Y-12447174D02*
X4678753Y-12409079D01*
X4678753Y-12409079D02*
X4688277Y-12390031D01*
X4688277Y-12390031D02*
X4697801Y-12380508D01*
X4697801Y-12380508D02*
X4716848Y-12370984D01*
X4850182Y-12370984D02*
X4973991Y-12370984D01*
X4973991Y-12370984D02*
X4907325Y-12447174D01*
X4907325Y-12447174D02*
X4935896Y-12447174D01*
X4935896Y-12447174D02*
X4954944Y-12456698D01*
X4954944Y-12456698D02*
X4964468Y-12466222D01*
X4964468Y-12466222D02*
X4973991Y-12485269D01*
X4973991Y-12485269D02*
X4973991Y-12532888D01*
X4973991Y-12532888D02*
X4964468Y-12551936D01*
X4964468Y-12551936D02*
X4954944Y-12561460D01*
X4954944Y-12561460D02*
X4935896Y-12570984D01*
X4935896Y-12570984D02*
X4878753Y-12570984D01*
X4878753Y-12570984D02*
X4859706Y-12561460D01*
X4859706Y-12561460D02*
X4850182Y-12551936D01*
X5069229Y-12570984D02*
X5107325Y-12570984D01*
X5107325Y-12570984D02*
X5126372Y-12561460D01*
X5126372Y-12561460D02*
X5135896Y-12551936D01*
X5135896Y-12551936D02*
X5154944Y-12523365D01*
X5154944Y-12523365D02*
X5164468Y-12485269D01*
X5164468Y-12485269D02*
X5164468Y-12409079D01*
X5164468Y-12409079D02*
X5154944Y-12390031D01*
X5154944Y-12390031D02*
X5145420Y-12380508D01*
X5145420Y-12380508D02*
X5126372Y-12370984D01*
X5126372Y-12370984D02*
X5088277Y-12370984D01*
X5088277Y-12370984D02*
X5069229Y-12380508D01*
X5069229Y-12380508D02*
X5059706Y-12390031D01*
X5059706Y-12390031D02*
X5050182Y-12409079D01*
X5050182Y-12409079D02*
X5050182Y-12456698D01*
X5050182Y-12456698D02*
X5059706Y-12475746D01*
X5059706Y-12475746D02*
X5069229Y-12485269D01*
X5069229Y-12485269D02*
X5088277Y-12494793D01*
X5088277Y-12494793D02*
X5126372Y-12494793D01*
X5126372Y-12494793D02*
X5145420Y-12485269D01*
X5145420Y-12485269D02*
X5154944Y-12475746D01*
X5154944Y-12475746D02*
X5164468Y-12456698D01*
X5335896Y-12437650D02*
X5335896Y-12570984D01*
X5288277Y-12361460D02*
X5240658Y-12504317D01*
X5240658Y-12504317D02*
X5364468Y-12504317D01*
X5431134Y-12370984D02*
X5431134Y-12409079D01*
X5507325Y-12370984D02*
X5507325Y-12409079D01*
X5802563Y-12647174D02*
X5793039Y-12637650D01*
X5793039Y-12637650D02*
X5773991Y-12609079D01*
X5773991Y-12609079D02*
X5764468Y-12590031D01*
X5764468Y-12590031D02*
X5754944Y-12561460D01*
X5754944Y-12561460D02*
X5745420Y-12513841D01*
X5745420Y-12513841D02*
X5745420Y-12475746D01*
X5745420Y-12475746D02*
X5754944Y-12428127D01*
X5754944Y-12428127D02*
X5764468Y-12399555D01*
X5764468Y-12399555D02*
X5773991Y-12380508D01*
X5773991Y-12380508D02*
X5793039Y-12351936D01*
X5793039Y-12351936D02*
X5802563Y-12342412D01*
X5964468Y-12437650D02*
X5964468Y-12570984D01*
X5916848Y-12361460D02*
X5869229Y-12504317D01*
X5869229Y-12504317D02*
X5993039Y-12504317D01*
X6097801Y-12456698D02*
X6078753Y-12447174D01*
X6078753Y-12447174D02*
X6069229Y-12437650D01*
X6069229Y-12437650D02*
X6059706Y-12418603D01*
X6059706Y-12418603D02*
X6059706Y-12409079D01*
X6059706Y-12409079D02*
X6069229Y-12390031D01*
X6069229Y-12390031D02*
X6078753Y-12380508D01*
X6078753Y-12380508D02*
X6097801Y-12370984D01*
X6097801Y-12370984D02*
X6135896Y-12370984D01*
X6135896Y-12370984D02*
X6154944Y-12380508D01*
X6154944Y-12380508D02*
X6164468Y-12390031D01*
X6164468Y-12390031D02*
X6173991Y-12409079D01*
X6173991Y-12409079D02*
X6173991Y-12418603D01*
X6173991Y-12418603D02*
X6164468Y-12437650D01*
X6164468Y-12437650D02*
X6154944Y-12447174D01*
X6154944Y-12447174D02*
X6135896Y-12456698D01*
X6135896Y-12456698D02*
X6097801Y-12456698D01*
X6097801Y-12456698D02*
X6078753Y-12466222D01*
X6078753Y-12466222D02*
X6069229Y-12475746D01*
X6069229Y-12475746D02*
X6059706Y-12494793D01*
X6059706Y-12494793D02*
X6059706Y-12532888D01*
X6059706Y-12532888D02*
X6069229Y-12551936D01*
X6069229Y-12551936D02*
X6078753Y-12561460D01*
X6078753Y-12561460D02*
X6097801Y-12570984D01*
X6097801Y-12570984D02*
X6135896Y-12570984D01*
X6135896Y-12570984D02*
X6154944Y-12561460D01*
X6154944Y-12561460D02*
X6164468Y-12551936D01*
X6164468Y-12551936D02*
X6173991Y-12532888D01*
X6173991Y-12532888D02*
X6173991Y-12494793D01*
X6173991Y-12494793D02*
X6164468Y-12475746D01*
X6164468Y-12475746D02*
X6154944Y-12466222D01*
X6154944Y-12466222D02*
X6135896Y-12456698D01*
X6412087Y-12570984D02*
X6412087Y-12370984D01*
X6497801Y-12570984D02*
X6497801Y-12466222D01*
X6497801Y-12466222D02*
X6488277Y-12447174D01*
X6488277Y-12447174D02*
X6469230Y-12437650D01*
X6469230Y-12437650D02*
X6440658Y-12437650D01*
X6440658Y-12437650D02*
X6421610Y-12447174D01*
X6421610Y-12447174D02*
X6412087Y-12456698D01*
X6621610Y-12570984D02*
X6602563Y-12561460D01*
X6602563Y-12561460D02*
X6593039Y-12551936D01*
X6593039Y-12551936D02*
X6583515Y-12532888D01*
X6583515Y-12532888D02*
X6583515Y-12475746D01*
X6583515Y-12475746D02*
X6593039Y-12456698D01*
X6593039Y-12456698D02*
X6602563Y-12447174D01*
X6602563Y-12447174D02*
X6621610Y-12437650D01*
X6621610Y-12437650D02*
X6650182Y-12437650D01*
X6650182Y-12437650D02*
X6669230Y-12447174D01*
X6669230Y-12447174D02*
X6678753Y-12456698D01*
X6678753Y-12456698D02*
X6688277Y-12475746D01*
X6688277Y-12475746D02*
X6688277Y-12532888D01*
X6688277Y-12532888D02*
X6678753Y-12551936D01*
X6678753Y-12551936D02*
X6669230Y-12561460D01*
X6669230Y-12561460D02*
X6650182Y-12570984D01*
X6650182Y-12570984D02*
X6621610Y-12570984D01*
X6802563Y-12570984D02*
X6783515Y-12561460D01*
X6783515Y-12561460D02*
X6773991Y-12542412D01*
X6773991Y-12542412D02*
X6773991Y-12370984D01*
X6954944Y-12561460D02*
X6935896Y-12570984D01*
X6935896Y-12570984D02*
X6897801Y-12570984D01*
X6897801Y-12570984D02*
X6878753Y-12561460D01*
X6878753Y-12561460D02*
X6869230Y-12542412D01*
X6869230Y-12542412D02*
X6869230Y-12466222D01*
X6869230Y-12466222D02*
X6878753Y-12447174D01*
X6878753Y-12447174D02*
X6897801Y-12437650D01*
X6897801Y-12437650D02*
X6935896Y-12437650D01*
X6935896Y-12437650D02*
X6954944Y-12447174D01*
X6954944Y-12447174D02*
X6964468Y-12466222D01*
X6964468Y-12466222D02*
X6964468Y-12485269D01*
X6964468Y-12485269D02*
X6869230Y-12504317D01*
X7040658Y-12561460D02*
X7059706Y-12570984D01*
X7059706Y-12570984D02*
X7097801Y-12570984D01*
X7097801Y-12570984D02*
X7116849Y-12561460D01*
X7116849Y-12561460D02*
X7126372Y-12542412D01*
X7126372Y-12542412D02*
X7126372Y-12532888D01*
X7126372Y-12532888D02*
X7116849Y-12513841D01*
X7116849Y-12513841D02*
X7097801Y-12504317D01*
X7097801Y-12504317D02*
X7069230Y-12504317D01*
X7069230Y-12504317D02*
X7050182Y-12494793D01*
X7050182Y-12494793D02*
X7040658Y-12475746D01*
X7040658Y-12475746D02*
X7040658Y-12466222D01*
X7040658Y-12466222D02*
X7050182Y-12447174D01*
X7050182Y-12447174D02*
X7069230Y-12437650D01*
X7069230Y-12437650D02*
X7097801Y-12437650D01*
X7097801Y-12437650D02*
X7116849Y-12447174D01*
X7193039Y-12647174D02*
X7202563Y-12637650D01*
X7202563Y-12637650D02*
X7221611Y-12609079D01*
X7221611Y-12609079D02*
X7231134Y-12590031D01*
X7231134Y-12590031D02*
X7240658Y-12561460D01*
X7240658Y-12561460D02*
X7250182Y-12513841D01*
X7250182Y-12513841D02*
X7250182Y-12475746D01*
X7250182Y-12475746D02*
X7240658Y-12428127D01*
X7240658Y-12428127D02*
X7231134Y-12399555D01*
X7231134Y-12399555D02*
X7221611Y-12380508D01*
X7221611Y-12380508D02*
X7202563Y-12351936D01*
X7202563Y-12351936D02*
X7193039Y-12342412D01*
M02*
