M48
; DRILL file {KiCad 9.0.0} date 2025-03-20T15:24:29+0900
; FORMAT={-:-/ absolute / metric / decimal}
; #@! TF.CreationDate,2025-03-20T15:24:29+09:00
; #@! TF.GenerationSoftware,Kicad,Pcbnew,9.0.0
; #@! TF.FileFunction,Plated,1,2,PTH
FMAT,2
METRIC
; #@! TA.AperFunction,Plated,PTH,ViaDrill
T1C0.300
; #@! TA.AperFunction,Plated,PTH,ComponentDrill
T2C0.500
; #@! TA.AperFunction,Plated,PTH,ComponentDrill
T3C0.813
; #@! TA.AperFunction,Plated,PTH,ComponentDrill
T4C1.000
%
G90
G05
T1
X22.704Y-37.251
X22.704Y-38.641
X24.227Y-77.444
X24.234Y-86.034
X24.856Y-75.4
X24.856Y-77.938
X27.647Y-83.75
X27.65Y-90.357
X28.585Y-96.005
X28.585Y-103.71
X29.2Y-39.4
X30.402Y-93.465
X30.402Y-97.07
X31.12Y-82.965
X34.151Y-42.331
X34.151Y-44.452
X34.223Y-103.71
X35.953Y-43.776
X35.953Y-47.527
X40.116Y-27.495
X40.116Y-47.527
X40.17Y-77.148
X42.05Y-77.938
X46.082Y-65.79
X46.082Y-77.148
X48.904Y-92.6
X48.95Y-82.85
X49.7Y-56.75
X49.704Y-85.739
X49.706Y-92.4
X50.381Y-91.958
X50.85Y-74.186
X51.099Y-35.822
X51.099Y-38.521
X51.119Y-39.791
X51.119Y-43.623
X51.619Y-48.55
X51.63Y-71.224
X51.63Y-89.0
X51.742Y-37.251
X51.742Y-41.061
X51.855Y-94.3
X51.855Y-97.985
X52.127Y-92.905
X52.328Y-68.65
X52.347Y-33.419
X53.524Y-53.451
X55.144Y-51.997
X55.296Y-85.739
X55.927Y-42.877
X56.704Y-43.623
X66.8Y-67.0
X67.131Y-51.014
X70.363Y-68.262
X72.66Y-68.262
X72.761Y-71.248
X77.467Y-68.864
X78.69Y-65.821
X78.75Y-80.597
X78.892Y-51.014
X78.892Y-55.452
X79.86Y-54.424
X83.25Y-49.8
X83.877Y-44.815
X84.536Y-80.597
X84.95Y-53.166
X86.15Y-68.208
X87.42Y-71.415
X87.48Y-51.162
X90.848Y-55.3
X92.827Y-44.815
X96.203Y-68.208
X97.7Y-51.162
X106.972Y-66.254
X107.1Y-56.413
T3
X38.265Y-87.825
X38.265Y-90.365
X38.265Y-92.905
X38.265Y-95.445
X38.265Y-97.985
X38.265Y-100.525
X38.265Y-103.065
X38.284Y-29.631
X38.284Y-32.171
X38.284Y-34.711
X38.284Y-37.251
X38.284Y-39.791
X38.284Y-42.331
X38.284Y-44.871
X53.505Y-87.825
X53.505Y-90.365
X53.505Y-92.905
X53.505Y-95.445
X53.505Y-97.985
X53.505Y-100.525
X53.505Y-103.065
X53.524Y-29.631
X53.524Y-32.171
X53.524Y-34.711
X53.524Y-37.251
X53.524Y-39.791
X53.524Y-42.331
X53.524Y-44.871
T4
X22.685Y-73.865
X22.685Y-76.405
X22.685Y-78.945
X22.685Y-81.485
X22.685Y-90.925
X22.685Y-93.465
X22.685Y-96.005
X22.685Y-98.545
X22.704Y-25.931
X22.704Y-28.471
X22.704Y-31.011
X22.704Y-33.551
X22.704Y-41.076
X22.704Y-43.616
X22.704Y-46.156
X22.704Y-48.696
X40.17Y-86.133
X41.459Y-35.029
X41.459Y-36.934
X42.05Y-86.133
X49.739Y-46.563
X50.33Y-95.762
X50.33Y-97.667
X51.619Y-46.563
X56.685Y-66.125
X56.685Y-68.665
X56.685Y-71.205
X56.685Y-73.745
X56.685Y-82.825
X56.685Y-85.365
X56.685Y-87.905
X56.685Y-90.445
X56.704Y-34.071
X56.704Y-36.611
X56.704Y-39.151
X56.704Y-41.691
X56.704Y-49.131
X56.704Y-51.671
X56.704Y-54.211
X56.704Y-56.751
X79.86Y-56.604
X82.4Y-56.604
X84.94Y-56.604
X86.15Y-66.254
X87.48Y-56.604
X88.69Y-66.254
X91.23Y-66.254
X93.77Y-66.254
T2
G00X28.254Y-27.121
M15
G01X28.554Y-27.121
M16
G05
G00X28.735Y-105.595
M15
G01X28.435Y-105.595
M16
G05
G00X30.754Y-27.121
M15
G01X31.054Y-27.121
M16
G05
G00X31.235Y-105.595
M15
G01X30.935Y-105.595
M16
G05
G00X33.254Y-27.121
M15
G01X33.554Y-27.121
M16
G05
G00X33.735Y-105.595
M15
G01X33.435Y-105.595
M16
G05
M30
