%TF.GenerationSoftware,KiCad,Pcbnew,9.0.0*%
%TF.CreationDate,2025-03-20T15:24:29+09:00*%
%TF.ProjectId,nofy,6e6f6679-2e6b-4696-9361-645f70636258,rev?*%
%TF.SameCoordinates,Original*%
%TF.FileFunction,Drillmap*%
%TF.FilePolarity,Positive*%
%FSLAX45Y45*%
G04 Gerber Fmt 4.5, Leading zero omitted, Abs format (unit mm)*
G04 Created by KiCad (PCBNEW 9.0.0) date 2025-03-20 15:24:29*
%MOMM*%
%LPD*%
G01*
G04 APERTURE LIST*
%ADD10C,0.050000*%
%ADD11C,0.120000*%
%ADD12C,0.100000*%
%ADD13C,0.200000*%
G04 APERTURE END LIST*
D10*
X7360000Y-5800000D02*
X11350000Y-5800711D01*
X3560000Y-10695000D02*
G75*
G02*
X3660000Y-10595000I100000J0D01*
G01*
X2141066Y-2551421D02*
G75*
G02*
X2241066Y-2451416I100004J1D01*
G01*
X6490000Y-5800000D02*
X6590000Y-5800000D01*
X5799645Y-5700000D02*
G75*
G02*
X5699645Y-5800005I-100005J0D01*
G01*
X2140000Y-6585000D02*
G75*
G02*
X2240000Y-6485000I100000J0D01*
G01*
X2560000Y-9985000D02*
X2240000Y-9985000D01*
X10995000Y-8185356D02*
G75*
G02*
X10895000Y-8285360I-100000J-4D01*
G01*
X7360000Y-6040000D02*
X7360000Y-6245000D01*
X10895000Y-6485711D02*
X7360000Y-6485000D01*
X3439645Y-2451421D02*
G75*
G02*
X3539639Y-2551421I-5J-99999D01*
G01*
X3539645Y-2570711D02*
X3539644Y-2551421D01*
X6035000Y-8285355D02*
G75*
G02*
X5935005Y-8185355I0J99995D01*
G01*
X11450000Y-5700711D02*
G75*
G02*
X11350000Y-5800710I-100000J1D01*
G01*
X10995000Y-8185356D02*
X10995000Y-6585711D01*
X11350000Y-4000355D02*
G75*
G02*
X11450005Y-4100355I0J-100005D01*
G01*
X5660355Y-3280711D02*
X5700355Y-3280711D01*
X2240000Y-9985000D02*
G75*
G02*
X2140000Y-9885000I0J100000D01*
G01*
X2241065Y-2451421D02*
X3439645Y-2451421D01*
X5935000Y-8185355D02*
X5935000Y-6585000D01*
X6490000Y-5800000D02*
G75*
G02*
X6390000Y-5700000I0J100000D01*
G01*
X10895000Y-6485711D02*
G75*
G02*
X10994999Y-6585711I0J-99999D01*
G01*
X3639645Y-2670711D02*
X5460355Y-2670711D01*
X2760000Y-10815000D02*
G75*
G02*
X2660000Y-10715000I0J100000D01*
G01*
X5460355Y-2671421D02*
G75*
G02*
X5560359Y-2771421I5J-99999D01*
G01*
X3639644Y-2670711D02*
G75*
G02*
X3539639Y-2570711I-5J100001D01*
G01*
X4815000Y-6245000D02*
X6590000Y-6245000D01*
X4815000Y-6040000D02*
X6590000Y-6040000D01*
X6390000Y-4100355D02*
X6390000Y-5700000D01*
X2240355Y-5800000D02*
X4045000Y-5800000D01*
X2140000Y-9885000D02*
X2140000Y-6585000D01*
X6035000Y-6485000D02*
X6590000Y-6485000D01*
X5690000Y-6485000D02*
G75*
G02*
X5790000Y-6585000I0J-100000D01*
G01*
X3560000Y-10715000D02*
G75*
G02*
X3460000Y-10815000I-100000J0D01*
G01*
X10895000Y-8285356D02*
X6035000Y-8285355D01*
X4815000Y-6485000D02*
X5690000Y-6485000D01*
X3660000Y-10595000D02*
X5690000Y-10595000D01*
X5560355Y-2771421D02*
X5560355Y-3180711D01*
X2560000Y-9985000D02*
G75*
G02*
X2660000Y-10085000I0J-100000D01*
G01*
X6490000Y-4000355D02*
X11350000Y-4000355D01*
X5700355Y-3280711D02*
G75*
G02*
X5800359Y-3380711I5J-99999D01*
G01*
X5660355Y-3280711D02*
G75*
G02*
X5560359Y-3180711I5J100001D01*
G01*
X3460000Y-10815000D02*
X2760000Y-10815000D01*
X5790000Y-10495000D02*
G75*
G02*
X5690000Y-10595000I-100000J0D01*
G01*
X5935000Y-6585000D02*
G75*
G02*
X6035000Y-6485000I100000J0D01*
G01*
X2240000Y-6485000D02*
X4045000Y-6485000D01*
X5790000Y-6585000D02*
X5790000Y-10495000D01*
X2240355Y-5800000D02*
G75*
G02*
X2140360Y-5700000I5J100000D01*
G01*
X6390000Y-4100355D02*
G75*
G02*
X6490000Y-4000350I100000J5D01*
G01*
X2140355Y-5700000D02*
X2141066Y-2551421D01*
X5699645Y-5800000D02*
X4815000Y-5800000D01*
X4045000Y-6040000D02*
X4045000Y-6245000D01*
X5800355Y-3380711D02*
X5799644Y-5700000D01*
X2660000Y-10715000D02*
X2660000Y-10085000D01*
X3560000Y-10715000D02*
X3560000Y-10695000D01*
X11450000Y-4100355D02*
X11450000Y-5700711D01*
D11*
X3989975Y-8815325D02*
X3989975Y-8655305D01*
X4058555Y-8586725D02*
X4162695Y-8586725D01*
X4193175Y-8853425D02*
X4028075Y-8853425D01*
X4231275Y-8655305D02*
X4231275Y-8815325D01*
X4792575Y-9754175D02*
X4792575Y-9589075D01*
X4830675Y-9550975D02*
X4990695Y-9550975D01*
X4990695Y-9792275D02*
X4830675Y-9792275D01*
X5059275Y-9619555D02*
X5059275Y-9723695D01*
X4028075Y-8853425D02*
G75*
G02*
X3989975Y-8815325I0J38100D01*
G01*
X4058555Y-8586725D02*
G75*
G02*
X3989975Y-8655305I-43805J-24775D01*
G01*
X4231275Y-8655305D02*
G75*
G02*
X4162695Y-8586725I-24775J43805D01*
G01*
X4231275Y-8815325D02*
G75*
G02*
X4193175Y-8853424I-38099J0D01*
G01*
X4792575Y-9589075D02*
G75*
G02*
X4830675Y-9550975I38100J0D01*
G01*
X4830675Y-9792275D02*
G75*
G02*
X4792575Y-9754175I-1J38099D01*
G01*
X4990695Y-9792275D02*
G75*
G02*
X5059275Y-9723695I43805J24775D01*
G01*
X5059275Y-9619555D02*
G75*
G02*
X4990695Y-9550975I-24775J43805D01*
G01*
D12*
X6590000Y-6245000D02*
G75*
G02*
X6590000Y-6485000I0J-120000D01*
G01*
X7360000Y-6485000D02*
G75*
G02*
X7360000Y-6245000I0J120000D01*
G01*
X4045000Y-5800000D02*
G75*
G02*
X4045000Y-6040000I0J-120000D01*
G01*
X4815000Y-6040000D02*
G75*
G02*
X4815000Y-5800000I0J120000D01*
G01*
D11*
X4119585Y-3650055D02*
X4119585Y-3545915D01*
X4188165Y-3477335D02*
X4348185Y-3477335D01*
X4348185Y-3718635D02*
X4188165Y-3718635D01*
X4386285Y-3515435D02*
X4386285Y-3680535D01*
X4947585Y-4614305D02*
X4947585Y-4454285D01*
X4985685Y-4416185D02*
X5150785Y-4416185D01*
X5120305Y-4682885D02*
X5016165Y-4682885D01*
X5188885Y-4454285D02*
X5188885Y-4614305D01*
X4119585Y-3650055D02*
G75*
G02*
X4188165Y-3718635I24775J-43805D01*
G01*
X4188165Y-3477335D02*
G75*
G02*
X4119585Y-3545915I-43805J-24775D01*
G01*
X4348185Y-3477335D02*
G75*
G02*
X4386285Y-3515435I1J-38099D01*
G01*
X4386285Y-3680535D02*
G75*
G02*
X4348185Y-3718635I-38100J0D01*
G01*
X4947585Y-4454285D02*
G75*
G02*
X4985685Y-4416186I38099J0D01*
G01*
X4947585Y-4614305D02*
G75*
G02*
X5016165Y-4682885I24775J-43805D01*
G01*
X5120305Y-4682885D02*
G75*
G02*
X5188885Y-4614305I43805J24775D01*
G01*
X5150785Y-4416185D02*
G75*
G02*
X5188885Y-4454285I0J-38100D01*
G01*
D12*
X6590000Y-5800000D02*
G75*
G02*
X6590000Y-6040000I0J-120000D01*
G01*
X7360000Y-6040000D02*
G75*
G02*
X7360000Y-5800000I0J120000D01*
G01*
X4045000Y-6245000D02*
G75*
G02*
X4045000Y-6485000I0J-120000D01*
G01*
X4815000Y-6485000D02*
G75*
G02*
X4815000Y-6245000I0J120000D01*
G01*
D13*
D12*
X2255360Y-3710110D02*
X2285360Y-3740110D01*
X2285360Y-3710110D02*
X2255360Y-3740110D01*
X2255360Y-3849060D02*
X2285360Y-3879060D01*
X2285360Y-3849060D02*
X2255360Y-3879060D01*
X2407655Y-7729439D02*
X2437655Y-7759439D01*
X2437655Y-7729439D02*
X2407655Y-7759439D01*
X2408370Y-8588420D02*
X2438370Y-8618420D01*
X2438370Y-8588420D02*
X2408370Y-8618420D01*
X2470580Y-7525000D02*
X2500580Y-7555000D01*
X2500580Y-7525000D02*
X2470580Y-7555000D01*
X2470580Y-7778840D02*
X2500580Y-7808840D01*
X2500580Y-7778840D02*
X2470580Y-7808840D01*
X2749720Y-8360000D02*
X2779720Y-8390000D01*
X2779720Y-8360000D02*
X2749720Y-8390000D01*
X2750000Y-9020710D02*
X2780000Y-9050710D01*
X2780000Y-9020710D02*
X2750000Y-9050710D01*
X2843500Y-9585500D02*
X2873500Y-9615500D01*
X2873500Y-9585500D02*
X2843500Y-9615500D01*
X2843500Y-10356040D02*
X2873500Y-10386040D01*
X2873500Y-10356040D02*
X2843500Y-10386040D01*
X2905000Y-3925000D02*
X2935000Y-3955000D01*
X2935000Y-3925000D02*
X2905000Y-3955000D01*
X3025170Y-9331500D02*
X3055170Y-9361500D01*
X3055170Y-9331500D02*
X3025170Y-9361500D01*
X3025170Y-9692050D02*
X3055170Y-9722050D01*
X3055170Y-9692050D02*
X3025170Y-9722050D01*
X3096980Y-8281520D02*
X3126980Y-8311520D01*
X3126980Y-8281520D02*
X3096980Y-8311520D01*
X3400110Y-4218110D02*
X3430110Y-4248110D01*
X3430110Y-4218110D02*
X3400110Y-4248110D01*
X3400110Y-4430240D02*
X3430110Y-4460240D01*
X3430110Y-4430240D02*
X3400110Y-4460240D01*
X3407320Y-10356040D02*
X3437320Y-10386040D01*
X3437320Y-10356040D02*
X3407320Y-10386040D01*
X3580290Y-4362570D02*
X3610290Y-4392570D01*
X3610290Y-4362570D02*
X3580290Y-4392570D01*
X3580290Y-4737690D02*
X3610290Y-4767690D01*
X3610290Y-4737690D02*
X3580290Y-4767690D01*
X3996650Y-2734510D02*
X4026650Y-2764510D01*
X4026650Y-2734510D02*
X3996650Y-2764510D01*
X3996650Y-4737690D02*
X4026650Y-4767690D01*
X4026650Y-4737690D02*
X3996650Y-4767690D01*
X4002000Y-7699790D02*
X4032000Y-7729790D01*
X4032000Y-7699790D02*
X4002000Y-7729790D01*
X4189960Y-7778840D02*
X4219960Y-7808840D01*
X4219960Y-7778840D02*
X4189960Y-7808840D01*
X4593190Y-6564030D02*
X4623190Y-6594030D01*
X4623190Y-6564030D02*
X4593190Y-6594030D01*
X4593190Y-7699790D02*
X4623190Y-7729790D01*
X4623190Y-7699790D02*
X4593190Y-7729790D01*
X4875400Y-9245000D02*
X4905400Y-9275000D01*
X4905400Y-9245000D02*
X4875400Y-9275000D01*
X4880000Y-8270000D02*
X4910000Y-8300000D01*
X4910000Y-8270000D02*
X4880000Y-8300000D01*
X4955000Y-5660000D02*
X4985000Y-5690000D01*
X4985000Y-5660000D02*
X4955000Y-5690000D01*
X4955400Y-8558910D02*
X4985400Y-8588910D01*
X4985400Y-8558910D02*
X4955400Y-8588910D01*
X4955570Y-9225000D02*
X4985570Y-9255000D01*
X4985570Y-9225000D02*
X4955570Y-9255000D01*
X5023070Y-9180840D02*
X5053070Y-9210840D01*
X5053070Y-9180840D02*
X5023070Y-9210840D01*
X5070000Y-7403580D02*
X5100000Y-7433580D01*
X5100000Y-7403580D02*
X5070000Y-7433580D01*
X5094890Y-3567200D02*
X5124890Y-3597200D01*
X5124890Y-3567200D02*
X5094890Y-3597200D01*
X5094890Y-3837110D02*
X5124890Y-3867110D01*
X5124890Y-3837110D02*
X5094890Y-3867110D01*
X5096910Y-3964110D02*
X5126910Y-3994110D01*
X5126910Y-3964110D02*
X5096910Y-3994110D01*
X5096910Y-4347290D02*
X5126910Y-4377290D01*
X5126910Y-4347290D02*
X5096910Y-4377290D01*
X5146860Y-4840000D02*
X5176860Y-4870000D01*
X5176860Y-4840000D02*
X5146860Y-4870000D01*
X5148000Y-7107370D02*
X5178000Y-7137370D01*
X5178000Y-7107370D02*
X5148000Y-7137370D01*
X5148000Y-8885000D02*
X5178000Y-8915000D01*
X5178000Y-8885000D02*
X5148000Y-8915000D01*
X5159180Y-3710110D02*
X5189180Y-3740110D01*
X5189180Y-3710110D02*
X5159180Y-3740110D01*
X5159180Y-4091110D02*
X5189180Y-4121110D01*
X5189180Y-4091110D02*
X5159180Y-4121110D01*
X5170500Y-9415000D02*
X5200500Y-9445000D01*
X5200500Y-9415000D02*
X5170500Y-9445000D01*
X5170500Y-9783500D02*
X5200500Y-9813500D01*
X5200500Y-9783500D02*
X5170500Y-9813500D01*
X5197680Y-9275500D02*
X5227680Y-9305500D01*
X5227680Y-9275500D02*
X5197680Y-9305500D01*
X5217830Y-6850000D02*
X5247830Y-6880000D01*
X5247830Y-6850000D02*
X5217830Y-6880000D01*
X5219690Y-3326880D02*
X5249690Y-3356880D01*
X5249690Y-3326880D02*
X5219690Y-3356880D01*
X5337360Y-5330110D02*
X5367360Y-5360110D01*
X5367360Y-5330110D02*
X5337360Y-5360110D01*
X5499370Y-5184660D02*
X5529370Y-5214660D01*
X5529370Y-5184660D02*
X5499370Y-5214660D01*
X5514580Y-8558910D02*
X5544580Y-8588910D01*
X5544580Y-8558910D02*
X5514580Y-8588910D01*
X5577750Y-4272720D02*
X5607750Y-4302720D01*
X5607750Y-4272720D02*
X5577750Y-4302720D01*
X5655360Y-4347290D02*
X5685360Y-4377290D01*
X5685360Y-4347290D02*
X5655360Y-4377290D01*
X6665000Y-6685000D02*
X6695000Y-6715000D01*
X6695000Y-6685000D02*
X6665000Y-6715000D01*
X6698110Y-5086400D02*
X6728110Y-5116400D01*
X6728110Y-5086400D02*
X6698110Y-5116400D01*
X7021310Y-6811160D02*
X7051310Y-6841160D01*
X7051310Y-6811160D02*
X7021310Y-6841160D01*
X7251020Y-6811160D02*
X7281020Y-6841160D01*
X7281020Y-6811160D02*
X7251020Y-6841160D01*
X7261140Y-7109760D02*
X7291140Y-7139760D01*
X7291140Y-7109760D02*
X7261140Y-7139760D01*
X7731740Y-6871400D02*
X7761740Y-6901400D01*
X7761740Y-6871400D02*
X7731740Y-6901400D01*
X7854020Y-6567080D02*
X7884020Y-6597080D01*
X7884020Y-6567080D02*
X7854020Y-6597080D01*
X7860000Y-8044730D02*
X7890000Y-8074730D01*
X7890000Y-8044730D02*
X7860000Y-8074730D01*
X7874160Y-5086400D02*
X7904160Y-5116400D01*
X7904160Y-5086400D02*
X7874160Y-5116400D01*
X7874160Y-5530190D02*
X7904160Y-5560190D01*
X7904160Y-5530190D02*
X7874160Y-5560190D01*
X7971000Y-5427420D02*
X8001000Y-5457420D01*
X8001000Y-5427420D02*
X7971000Y-5457420D01*
X8310000Y-4965000D02*
X8340000Y-4995000D01*
X8340000Y-4965000D02*
X8310000Y-4995000D01*
X8372670Y-4466490D02*
X8402670Y-4496490D01*
X8402670Y-4466490D02*
X8372670Y-4496490D01*
X8438600Y-8044730D02*
X8468600Y-8074730D01*
X8468600Y-8044730D02*
X8438600Y-8074730D01*
X8480000Y-5301610D02*
X8510000Y-5331610D01*
X8510000Y-5301610D02*
X8480000Y-5331610D01*
X8600000Y-6805810D02*
X8630000Y-6835810D01*
X8630000Y-6805810D02*
X8600000Y-6835810D01*
X8727000Y-7126470D02*
X8757000Y-7156470D01*
X8757000Y-7126470D02*
X8727000Y-7156470D01*
X8733000Y-5101180D02*
X8763000Y-5131180D01*
X8763000Y-5101180D02*
X8733000Y-5131180D01*
X9069830Y-5515000D02*
X9099830Y-5545000D01*
X9099830Y-5515000D02*
X9069830Y-5545000D01*
X9267700Y-4466490D02*
X9297700Y-4496490D01*
X9297700Y-4466490D02*
X9267700Y-4496490D01*
X9605270Y-6805810D02*
X9635270Y-6835810D01*
X9635270Y-6805810D02*
X9605270Y-6835810D01*
X9755000Y-5101180D02*
X9785000Y-5131180D01*
X9785000Y-5101180D02*
X9755000Y-5131180D01*
X10682160Y-6610360D02*
X10712160Y-6640360D01*
X10712160Y-6610360D02*
X10682160Y-6640360D01*
X10695000Y-5626320D02*
X10725000Y-5656320D01*
X10725000Y-5626320D02*
X10695000Y-5656320D01*
X2865360Y-2712110D02*
G75*
G02*
X2815360Y-2712110I-25000J0D01*
G01*
X2815360Y-2712110D02*
G75*
G02*
X2865360Y-2712110I25000J0D01*
G01*
X2825360Y-2737110D02*
X2855360Y-2737110D01*
X2855360Y-2687110D02*
G75*
G02*
X2855360Y-2737110I0J-25000D01*
G01*
X2855360Y-2687110D02*
X2825360Y-2687110D01*
X2825360Y-2687110D02*
G75*
G03*
X2825360Y-2737110I0J-25000D01*
G01*
X2883500Y-10559500D02*
G75*
G02*
X2833500Y-10559500I-25000J0D01*
G01*
X2833500Y-10559500D02*
G75*
G02*
X2883500Y-10559500I25000J0D01*
G01*
X2873500Y-10534500D02*
X2843500Y-10534500D01*
X2843500Y-10584500D02*
G75*
G02*
X2843500Y-10534500I0J25000D01*
G01*
X2843500Y-10584500D02*
X2873500Y-10584500D01*
X2873500Y-10584500D02*
G75*
G03*
X2873500Y-10534500I0J25000D01*
G01*
X3115360Y-2712110D02*
G75*
G02*
X3065360Y-2712110I-25000J0D01*
G01*
X3065360Y-2712110D02*
G75*
G02*
X3115360Y-2712110I25000J0D01*
G01*
X3075360Y-2737110D02*
X3105360Y-2737110D01*
X3105360Y-2687110D02*
G75*
G02*
X3105360Y-2737110I0J-25000D01*
G01*
X3105360Y-2687110D02*
X3075360Y-2687110D01*
X3075360Y-2687110D02*
G75*
G03*
X3075360Y-2737110I0J-25000D01*
G01*
X3133500Y-10559500D02*
G75*
G02*
X3083500Y-10559500I-25000J0D01*
G01*
X3083500Y-10559500D02*
G75*
G02*
X3133500Y-10559500I25000J0D01*
G01*
X3123500Y-10534500D02*
X3093500Y-10534500D01*
X3093500Y-10584500D02*
G75*
G02*
X3093500Y-10534500I0J25000D01*
G01*
X3093500Y-10584500D02*
X3123500Y-10584500D01*
X3123500Y-10584500D02*
G75*
G03*
X3123500Y-10534500I0J25000D01*
G01*
X3365360Y-2712110D02*
G75*
G02*
X3315360Y-2712110I-25000J0D01*
G01*
X3315360Y-2712110D02*
G75*
G02*
X3365360Y-2712110I25000J0D01*
G01*
X3325360Y-2737110D02*
X3355360Y-2737110D01*
X3355360Y-2687110D02*
G75*
G02*
X3355360Y-2737110I0J-25000D01*
G01*
X3355360Y-2687110D02*
X3325360Y-2687110D01*
X3325360Y-2687110D02*
G75*
G03*
X3325360Y-2737110I0J-25000D01*
G01*
X3383500Y-10559500D02*
G75*
G02*
X3333500Y-10559500I-25000J0D01*
G01*
X3333500Y-10559500D02*
G75*
G02*
X3383500Y-10559500I25000J0D01*
G01*
X3373500Y-10534500D02*
X3343500Y-10534500D01*
X3343500Y-10584500D02*
G75*
G02*
X3343500Y-10534500I0J25000D01*
G01*
X3343500Y-10584500D02*
X3373500Y-10584500D01*
X3373500Y-10584500D02*
G75*
G03*
X3373500Y-10534500I0J25000D01*
G01*
X3826500Y-8741860D02*
X3826500Y-8823140D01*
X3785860Y-8782500D02*
X3867140Y-8782500D01*
X3826500Y-8995860D02*
X3826500Y-9077140D01*
X3785860Y-9036500D02*
X3867140Y-9036500D01*
X3826500Y-9249860D02*
X3826500Y-9331140D01*
X3785860Y-9290500D02*
X3867140Y-9290500D01*
X3826500Y-9503860D02*
X3826500Y-9585140D01*
X3785860Y-9544500D02*
X3867140Y-9544500D01*
X3826500Y-9757860D02*
X3826500Y-9839140D01*
X3785860Y-9798500D02*
X3867140Y-9798500D01*
X3826500Y-10011860D02*
X3826500Y-10093140D01*
X3785860Y-10052500D02*
X3867140Y-10052500D01*
X3826500Y-10265860D02*
X3826500Y-10347140D01*
X3785860Y-10306500D02*
X3867140Y-10306500D01*
X3828360Y-2922470D02*
X3828360Y-3003750D01*
X3787720Y-2963110D02*
X3869000Y-2963110D01*
X3828360Y-3176470D02*
X3828360Y-3257750D01*
X3787720Y-3217110D02*
X3869000Y-3217110D01*
X3828360Y-3430470D02*
X3828360Y-3511750D01*
X3787720Y-3471110D02*
X3869000Y-3471110D01*
X3828360Y-3684470D02*
X3828360Y-3765750D01*
X3787720Y-3725110D02*
X3869000Y-3725110D01*
X3828360Y-3938470D02*
X3828360Y-4019750D01*
X3787720Y-3979110D02*
X3869000Y-3979110D01*
X3828360Y-4192470D02*
X3828360Y-4273750D01*
X3787720Y-4233110D02*
X3869000Y-4233110D01*
X3828360Y-4446470D02*
X3828360Y-4527750D01*
X3787720Y-4487110D02*
X3869000Y-4487110D01*
X5350500Y-8741860D02*
X5350500Y-8823140D01*
X5309860Y-8782500D02*
X5391140Y-8782500D01*
X5350500Y-8995860D02*
X5350500Y-9077140D01*
X5309860Y-9036500D02*
X5391140Y-9036500D01*
X5350500Y-9249860D02*
X5350500Y-9331140D01*
X5309860Y-9290500D02*
X5391140Y-9290500D01*
X5350500Y-9503860D02*
X5350500Y-9585140D01*
X5309860Y-9544500D02*
X5391140Y-9544500D01*
X5350500Y-9757860D02*
X5350500Y-9839140D01*
X5309860Y-9798500D02*
X5391140Y-9798500D01*
X5350500Y-10011860D02*
X5350500Y-10093140D01*
X5309860Y-10052500D02*
X5391140Y-10052500D01*
X5350500Y-10265860D02*
X5350500Y-10347140D01*
X5309860Y-10306500D02*
X5391140Y-10306500D01*
X5352360Y-2922470D02*
X5352360Y-3003750D01*
X5311720Y-2963110D02*
X5393000Y-2963110D01*
X5352360Y-3176470D02*
X5352360Y-3257750D01*
X5311720Y-3217110D02*
X5393000Y-3217110D01*
X5352360Y-3430470D02*
X5352360Y-3511750D01*
X5311720Y-3471110D02*
X5393000Y-3471110D01*
X5352360Y-3684470D02*
X5352360Y-3765750D01*
X5311720Y-3725110D02*
X5393000Y-3725110D01*
X5352360Y-3938470D02*
X5352360Y-4019750D01*
X5311720Y-3979110D02*
X5393000Y-3979110D01*
X5352360Y-4192470D02*
X5352360Y-4273750D01*
X5311720Y-4233110D02*
X5393000Y-4233110D01*
X5352360Y-4446470D02*
X5352360Y-4527750D01*
X5311720Y-4487110D02*
X5393000Y-4487110D01*
X2303856Y-7421856D02*
X2303856Y-7351144D01*
X2233144Y-7351144D01*
X2233144Y-7421856D01*
X2303856Y-7421856D01*
X2303856Y-7675856D02*
X2303856Y-7605144D01*
X2233144Y-7605144D01*
X2233144Y-7675856D01*
X2303856Y-7675856D01*
X2303856Y-7929856D02*
X2303856Y-7859144D01*
X2233144Y-7859144D01*
X2233144Y-7929856D01*
X2303856Y-7929856D01*
X2303856Y-8183856D02*
X2303856Y-8113144D01*
X2233144Y-8113144D01*
X2233144Y-8183856D01*
X2303856Y-8183856D01*
X2303856Y-9127856D02*
X2303856Y-9057144D01*
X2233144Y-9057144D01*
X2233144Y-9127856D01*
X2303856Y-9127856D01*
X2303856Y-9381856D02*
X2303856Y-9311144D01*
X2233144Y-9311144D01*
X2233144Y-9381856D01*
X2303856Y-9381856D01*
X2303856Y-9635856D02*
X2303856Y-9565144D01*
X2233144Y-9565144D01*
X2233144Y-9635856D01*
X2303856Y-9635856D01*
X2303856Y-9889856D02*
X2303856Y-9819144D01*
X2233144Y-9819144D01*
X2233144Y-9889856D01*
X2303856Y-9889856D01*
X2305716Y-2628466D02*
X2305716Y-2557754D01*
X2235004Y-2557754D01*
X2235004Y-2628466D01*
X2305716Y-2628466D01*
X2305716Y-2882466D02*
X2305716Y-2811754D01*
X2235004Y-2811754D01*
X2235004Y-2882466D01*
X2305716Y-2882466D01*
X2305716Y-3136466D02*
X2305716Y-3065754D01*
X2235004Y-3065754D01*
X2235004Y-3136466D01*
X2305716Y-3136466D01*
X2305716Y-3390466D02*
X2305716Y-3319754D01*
X2235004Y-3319754D01*
X2235004Y-3390466D01*
X2305716Y-3390466D01*
X2305716Y-4142966D02*
X2305716Y-4072254D01*
X2235004Y-4072254D01*
X2235004Y-4142966D01*
X2305716Y-4142966D01*
X2305716Y-4396966D02*
X2305716Y-4326254D01*
X2235004Y-4326254D01*
X2235004Y-4396966D01*
X2305716Y-4396966D01*
X2305716Y-4650966D02*
X2305716Y-4580254D01*
X2235004Y-4580254D01*
X2235004Y-4650966D01*
X2305716Y-4650966D01*
X2305716Y-4904966D02*
X2305716Y-4834254D01*
X2235004Y-4834254D01*
X2235004Y-4904966D01*
X2305716Y-4904966D01*
X4052356Y-8648656D02*
X4052356Y-8577944D01*
X3981644Y-8577944D01*
X3981644Y-8648656D01*
X4052356Y-8648656D01*
X4181216Y-3538266D02*
X4181216Y-3467554D01*
X4110504Y-3467554D01*
X4110504Y-3538266D01*
X4181216Y-3538266D01*
X4181216Y-3728766D02*
X4181216Y-3658054D01*
X4110504Y-3658054D01*
X4110504Y-3728766D01*
X4181216Y-3728766D01*
X4240316Y-8648656D02*
X4240316Y-8577944D01*
X4169604Y-8577944D01*
X4169604Y-8648656D01*
X4240316Y-8648656D01*
X5009256Y-4691666D02*
X5009256Y-4620954D01*
X4938544Y-4620954D01*
X4938544Y-4691666D01*
X5009256Y-4691666D01*
X5068356Y-9611556D02*
X5068356Y-9540844D01*
X4997644Y-9540844D01*
X4997644Y-9611556D01*
X5068356Y-9611556D01*
X5068356Y-9802056D02*
X5068356Y-9731344D01*
X4997644Y-9731344D01*
X4997644Y-9802056D01*
X5068356Y-9802056D01*
X5197216Y-4691666D02*
X5197216Y-4620954D01*
X5126504Y-4620954D01*
X5126504Y-4691666D01*
X5197216Y-4691666D01*
X5703856Y-6647856D02*
X5703856Y-6577144D01*
X5633144Y-6577144D01*
X5633144Y-6647856D01*
X5703856Y-6647856D01*
X5703856Y-6901856D02*
X5703856Y-6831144D01*
X5633144Y-6831144D01*
X5633144Y-6901856D01*
X5703856Y-6901856D01*
X5703856Y-7155856D02*
X5703856Y-7085144D01*
X5633144Y-7085144D01*
X5633144Y-7155856D01*
X5703856Y-7155856D01*
X5703856Y-7409856D02*
X5703856Y-7339144D01*
X5633144Y-7339144D01*
X5633144Y-7409856D01*
X5703856Y-7409856D01*
X5703856Y-8317856D02*
X5703856Y-8247144D01*
X5633144Y-8247144D01*
X5633144Y-8317856D01*
X5703856Y-8317856D01*
X5703856Y-8571856D02*
X5703856Y-8501144D01*
X5633144Y-8501144D01*
X5633144Y-8571856D01*
X5703856Y-8571856D01*
X5703856Y-8825856D02*
X5703856Y-8755144D01*
X5633144Y-8755144D01*
X5633144Y-8825856D01*
X5703856Y-8825856D01*
X5703856Y-9079856D02*
X5703856Y-9009144D01*
X5633144Y-9009144D01*
X5633144Y-9079856D01*
X5703856Y-9079856D01*
X5705716Y-3442466D02*
X5705716Y-3371754D01*
X5635004Y-3371754D01*
X5635004Y-3442466D01*
X5705716Y-3442466D01*
X5705716Y-3696466D02*
X5705716Y-3625754D01*
X5635004Y-3625754D01*
X5635004Y-3696466D01*
X5705716Y-3696466D01*
X5705716Y-3950466D02*
X5705716Y-3879754D01*
X5635004Y-3879754D01*
X5635004Y-3950466D01*
X5705716Y-3950466D01*
X5705716Y-4204466D02*
X5705716Y-4133754D01*
X5635004Y-4133754D01*
X5635004Y-4204466D01*
X5705716Y-4204466D01*
X5705716Y-4948466D02*
X5705716Y-4877754D01*
X5635004Y-4877754D01*
X5635004Y-4948466D01*
X5705716Y-4948466D01*
X5705716Y-5202466D02*
X5705716Y-5131754D01*
X5635004Y-5131754D01*
X5635004Y-5202466D01*
X5705716Y-5202466D01*
X5705716Y-5456466D02*
X5705716Y-5385754D01*
X5635004Y-5385754D01*
X5635004Y-5456466D01*
X5705716Y-5456466D01*
X5705716Y-5710466D02*
X5705716Y-5639754D01*
X5635004Y-5639754D01*
X5635004Y-5710466D01*
X5705716Y-5710466D01*
X8021356Y-5695716D02*
X8021356Y-5625004D01*
X7950644Y-5625004D01*
X7950644Y-5695716D01*
X8021356Y-5695716D01*
X8275356Y-5695716D02*
X8275356Y-5625004D01*
X8204644Y-5625004D01*
X8204644Y-5695716D01*
X8275356Y-5695716D01*
X8529356Y-5695716D02*
X8529356Y-5625004D01*
X8458644Y-5625004D01*
X8458644Y-5695716D01*
X8529356Y-5695716D01*
X8650356Y-6660716D02*
X8650356Y-6590004D01*
X8579644Y-6590004D01*
X8579644Y-6660716D01*
X8650356Y-6660716D01*
X8783356Y-5695716D02*
X8783356Y-5625004D01*
X8712644Y-5625004D01*
X8712644Y-5695716D01*
X8783356Y-5695716D01*
X8904356Y-6660716D02*
X8904356Y-6590004D01*
X8833644Y-6590004D01*
X8833644Y-6660716D01*
X8904356Y-6660716D01*
X9158356Y-6660716D02*
X9158356Y-6590004D01*
X9087644Y-6590004D01*
X9087644Y-6660716D01*
X9158356Y-6660716D01*
X9412356Y-6660716D02*
X9412356Y-6590004D01*
X9341644Y-6590004D01*
X9341644Y-6660716D01*
X9412356Y-6660716D01*
D13*
X2398277Y-11128984D02*
X2398277Y-10928984D01*
X2398277Y-10928984D02*
X2445896Y-10928984D01*
X2445896Y-10928984D02*
X2474467Y-10938508D01*
X2474467Y-10938508D02*
X2493515Y-10957555D01*
X2493515Y-10957555D02*
X2503039Y-10976603D01*
X2503039Y-10976603D02*
X2512563Y-11014698D01*
X2512563Y-11014698D02*
X2512563Y-11043270D01*
X2512563Y-11043270D02*
X2503039Y-11081365D01*
X2503039Y-11081365D02*
X2493515Y-11100412D01*
X2493515Y-11100412D02*
X2474467Y-11119460D01*
X2474467Y-11119460D02*
X2445896Y-11128984D01*
X2445896Y-11128984D02*
X2398277Y-11128984D01*
X2598277Y-11128984D02*
X2598277Y-10995650D01*
X2598277Y-11033746D02*
X2607801Y-11014698D01*
X2607801Y-11014698D02*
X2617324Y-11005174D01*
X2617324Y-11005174D02*
X2636372Y-10995650D01*
X2636372Y-10995650D02*
X2655420Y-10995650D01*
X2722086Y-11128984D02*
X2722086Y-10995650D01*
X2722086Y-10928984D02*
X2712563Y-10938508D01*
X2712563Y-10938508D02*
X2722086Y-10948031D01*
X2722086Y-10948031D02*
X2731610Y-10938508D01*
X2731610Y-10938508D02*
X2722086Y-10928984D01*
X2722086Y-10928984D02*
X2722086Y-10948031D01*
X2845896Y-11128984D02*
X2826848Y-11119460D01*
X2826848Y-11119460D02*
X2817324Y-11100412D01*
X2817324Y-11100412D02*
X2817324Y-10928984D01*
X2950658Y-11128984D02*
X2931610Y-11119460D01*
X2931610Y-11119460D02*
X2922086Y-11100412D01*
X2922086Y-11100412D02*
X2922086Y-10928984D01*
X3179229Y-11128984D02*
X3179229Y-10928984D01*
X3179229Y-10928984D02*
X3245896Y-11071841D01*
X3245896Y-11071841D02*
X3312562Y-10928984D01*
X3312562Y-10928984D02*
X3312562Y-11128984D01*
X3493515Y-11128984D02*
X3493515Y-11024222D01*
X3493515Y-11024222D02*
X3483991Y-11005174D01*
X3483991Y-11005174D02*
X3464943Y-10995650D01*
X3464943Y-10995650D02*
X3426848Y-10995650D01*
X3426848Y-10995650D02*
X3407801Y-11005174D01*
X3493515Y-11119460D02*
X3474467Y-11128984D01*
X3474467Y-11128984D02*
X3426848Y-11128984D01*
X3426848Y-11128984D02*
X3407801Y-11119460D01*
X3407801Y-11119460D02*
X3398277Y-11100412D01*
X3398277Y-11100412D02*
X3398277Y-11081365D01*
X3398277Y-11081365D02*
X3407801Y-11062317D01*
X3407801Y-11062317D02*
X3426848Y-11052793D01*
X3426848Y-11052793D02*
X3474467Y-11052793D01*
X3474467Y-11052793D02*
X3493515Y-11043270D01*
X3588753Y-10995650D02*
X3588753Y-11195650D01*
X3588753Y-11005174D02*
X3607801Y-10995650D01*
X3607801Y-10995650D02*
X3645896Y-10995650D01*
X3645896Y-10995650D02*
X3664943Y-11005174D01*
X3664943Y-11005174D02*
X3674467Y-11014698D01*
X3674467Y-11014698D02*
X3683991Y-11033746D01*
X3683991Y-11033746D02*
X3683991Y-11090889D01*
X3683991Y-11090889D02*
X3674467Y-11109936D01*
X3674467Y-11109936D02*
X3664943Y-11119460D01*
X3664943Y-11119460D02*
X3645896Y-11128984D01*
X3645896Y-11128984D02*
X3607801Y-11128984D01*
X3607801Y-11128984D02*
X3588753Y-11119460D01*
X3769705Y-11109936D02*
X3779229Y-11119460D01*
X3779229Y-11119460D02*
X3769705Y-11128984D01*
X3769705Y-11128984D02*
X3760182Y-11119460D01*
X3760182Y-11119460D02*
X3769705Y-11109936D01*
X3769705Y-11109936D02*
X3769705Y-11128984D01*
X3769705Y-11005174D02*
X3779229Y-11014698D01*
X3779229Y-11014698D02*
X3769705Y-11024222D01*
X3769705Y-11024222D02*
X3760182Y-11014698D01*
X3760182Y-11014698D02*
X3769705Y-11005174D01*
X3769705Y-11005174D02*
X3769705Y-11024222D01*
D12*
X2107500Y-11442500D02*
X2137500Y-11472500D01*
X2137500Y-11442500D02*
X2107500Y-11472500D01*
D13*
X2436372Y-11348984D02*
X2455420Y-11348984D01*
X2455420Y-11348984D02*
X2474467Y-11358508D01*
X2474467Y-11358508D02*
X2483991Y-11368031D01*
X2483991Y-11368031D02*
X2493515Y-11387079D01*
X2493515Y-11387079D02*
X2503039Y-11425174D01*
X2503039Y-11425174D02*
X2503039Y-11472793D01*
X2503039Y-11472793D02*
X2493515Y-11510888D01*
X2493515Y-11510888D02*
X2483991Y-11529936D01*
X2483991Y-11529936D02*
X2474467Y-11539460D01*
X2474467Y-11539460D02*
X2455420Y-11548984D01*
X2455420Y-11548984D02*
X2436372Y-11548984D01*
X2436372Y-11548984D02*
X2417324Y-11539460D01*
X2417324Y-11539460D02*
X2407801Y-11529936D01*
X2407801Y-11529936D02*
X2398277Y-11510888D01*
X2398277Y-11510888D02*
X2388753Y-11472793D01*
X2388753Y-11472793D02*
X2388753Y-11425174D01*
X2388753Y-11425174D02*
X2398277Y-11387079D01*
X2398277Y-11387079D02*
X2407801Y-11368031D01*
X2407801Y-11368031D02*
X2417324Y-11358508D01*
X2417324Y-11358508D02*
X2436372Y-11348984D01*
X2588753Y-11529936D02*
X2598277Y-11539460D01*
X2598277Y-11539460D02*
X2588753Y-11548984D01*
X2588753Y-11548984D02*
X2579229Y-11539460D01*
X2579229Y-11539460D02*
X2588753Y-11529936D01*
X2588753Y-11529936D02*
X2588753Y-11548984D01*
X2664944Y-11348984D02*
X2788753Y-11348984D01*
X2788753Y-11348984D02*
X2722086Y-11425174D01*
X2722086Y-11425174D02*
X2750658Y-11425174D01*
X2750658Y-11425174D02*
X2769705Y-11434698D01*
X2769705Y-11434698D02*
X2779229Y-11444222D01*
X2779229Y-11444222D02*
X2788753Y-11463269D01*
X2788753Y-11463269D02*
X2788753Y-11510888D01*
X2788753Y-11510888D02*
X2779229Y-11529936D01*
X2779229Y-11529936D02*
X2769705Y-11539460D01*
X2769705Y-11539460D02*
X2750658Y-11548984D01*
X2750658Y-11548984D02*
X2693515Y-11548984D01*
X2693515Y-11548984D02*
X2674467Y-11539460D01*
X2674467Y-11539460D02*
X2664944Y-11529936D01*
X2912562Y-11348984D02*
X2931610Y-11348984D01*
X2931610Y-11348984D02*
X2950658Y-11358508D01*
X2950658Y-11358508D02*
X2960182Y-11368031D01*
X2960182Y-11368031D02*
X2969705Y-11387079D01*
X2969705Y-11387079D02*
X2979229Y-11425174D01*
X2979229Y-11425174D02*
X2979229Y-11472793D01*
X2979229Y-11472793D02*
X2969705Y-11510888D01*
X2969705Y-11510888D02*
X2960182Y-11529936D01*
X2960182Y-11529936D02*
X2950658Y-11539460D01*
X2950658Y-11539460D02*
X2931610Y-11548984D01*
X2931610Y-11548984D02*
X2912562Y-11548984D01*
X2912562Y-11548984D02*
X2893515Y-11539460D01*
X2893515Y-11539460D02*
X2883991Y-11529936D01*
X2883991Y-11529936D02*
X2874467Y-11510888D01*
X2874467Y-11510888D02*
X2864943Y-11472793D01*
X2864943Y-11472793D02*
X2864943Y-11425174D01*
X2864943Y-11425174D02*
X2874467Y-11387079D01*
X2874467Y-11387079D02*
X2883991Y-11368031D01*
X2883991Y-11368031D02*
X2893515Y-11358508D01*
X2893515Y-11358508D02*
X2912562Y-11348984D01*
X3103039Y-11348984D02*
X3122086Y-11348984D01*
X3122086Y-11348984D02*
X3141134Y-11358508D01*
X3141134Y-11358508D02*
X3150658Y-11368031D01*
X3150658Y-11368031D02*
X3160182Y-11387079D01*
X3160182Y-11387079D02*
X3169705Y-11425174D01*
X3169705Y-11425174D02*
X3169705Y-11472793D01*
X3169705Y-11472793D02*
X3160182Y-11510888D01*
X3160182Y-11510888D02*
X3150658Y-11529936D01*
X3150658Y-11529936D02*
X3141134Y-11539460D01*
X3141134Y-11539460D02*
X3122086Y-11548984D01*
X3122086Y-11548984D02*
X3103039Y-11548984D01*
X3103039Y-11548984D02*
X3083991Y-11539460D01*
X3083991Y-11539460D02*
X3074467Y-11529936D01*
X3074467Y-11529936D02*
X3064943Y-11510888D01*
X3064943Y-11510888D02*
X3055420Y-11472793D01*
X3055420Y-11472793D02*
X3055420Y-11425174D01*
X3055420Y-11425174D02*
X3064943Y-11387079D01*
X3064943Y-11387079D02*
X3074467Y-11368031D01*
X3074467Y-11368031D02*
X3083991Y-11358508D01*
X3083991Y-11358508D02*
X3103039Y-11348984D01*
X3255420Y-11548984D02*
X3255420Y-11415650D01*
X3255420Y-11434698D02*
X3264943Y-11425174D01*
X3264943Y-11425174D02*
X3283991Y-11415650D01*
X3283991Y-11415650D02*
X3312563Y-11415650D01*
X3312563Y-11415650D02*
X3331610Y-11425174D01*
X3331610Y-11425174D02*
X3341134Y-11444222D01*
X3341134Y-11444222D02*
X3341134Y-11548984D01*
X3341134Y-11444222D02*
X3350658Y-11425174D01*
X3350658Y-11425174D02*
X3369705Y-11415650D01*
X3369705Y-11415650D02*
X3398277Y-11415650D01*
X3398277Y-11415650D02*
X3417324Y-11425174D01*
X3417324Y-11425174D02*
X3426848Y-11444222D01*
X3426848Y-11444222D02*
X3426848Y-11548984D01*
X3522086Y-11548984D02*
X3522086Y-11415650D01*
X3522086Y-11434698D02*
X3531610Y-11425174D01*
X3531610Y-11425174D02*
X3550658Y-11415650D01*
X3550658Y-11415650D02*
X3579229Y-11415650D01*
X3579229Y-11415650D02*
X3598277Y-11425174D01*
X3598277Y-11425174D02*
X3607801Y-11444222D01*
X3607801Y-11444222D02*
X3607801Y-11548984D01*
X3607801Y-11444222D02*
X3617324Y-11425174D01*
X3617324Y-11425174D02*
X3636372Y-11415650D01*
X3636372Y-11415650D02*
X3664943Y-11415650D01*
X3664943Y-11415650D02*
X3683991Y-11425174D01*
X3683991Y-11425174D02*
X3693515Y-11444222D01*
X3693515Y-11444222D02*
X3693515Y-11548984D01*
X4083991Y-11339460D02*
X3912563Y-11596603D01*
X4341134Y-11348984D02*
X4360182Y-11348984D01*
X4360182Y-11348984D02*
X4379229Y-11358508D01*
X4379229Y-11358508D02*
X4388753Y-11368031D01*
X4388753Y-11368031D02*
X4398277Y-11387079D01*
X4398277Y-11387079D02*
X4407801Y-11425174D01*
X4407801Y-11425174D02*
X4407801Y-11472793D01*
X4407801Y-11472793D02*
X4398277Y-11510888D01*
X4398277Y-11510888D02*
X4388753Y-11529936D01*
X4388753Y-11529936D02*
X4379229Y-11539460D01*
X4379229Y-11539460D02*
X4360182Y-11548984D01*
X4360182Y-11548984D02*
X4341134Y-11548984D01*
X4341134Y-11548984D02*
X4322087Y-11539460D01*
X4322087Y-11539460D02*
X4312563Y-11529936D01*
X4312563Y-11529936D02*
X4303039Y-11510888D01*
X4303039Y-11510888D02*
X4293515Y-11472793D01*
X4293515Y-11472793D02*
X4293515Y-11425174D01*
X4293515Y-11425174D02*
X4303039Y-11387079D01*
X4303039Y-11387079D02*
X4312563Y-11368031D01*
X4312563Y-11368031D02*
X4322087Y-11358508D01*
X4322087Y-11358508D02*
X4341134Y-11348984D01*
X4493515Y-11529936D02*
X4503039Y-11539460D01*
X4503039Y-11539460D02*
X4493515Y-11548984D01*
X4493515Y-11548984D02*
X4483991Y-11539460D01*
X4483991Y-11539460D02*
X4493515Y-11529936D01*
X4493515Y-11529936D02*
X4493515Y-11548984D01*
X4626848Y-11348984D02*
X4645896Y-11348984D01*
X4645896Y-11348984D02*
X4664944Y-11358508D01*
X4664944Y-11358508D02*
X4674468Y-11368031D01*
X4674468Y-11368031D02*
X4683991Y-11387079D01*
X4683991Y-11387079D02*
X4693515Y-11425174D01*
X4693515Y-11425174D02*
X4693515Y-11472793D01*
X4693515Y-11472793D02*
X4683991Y-11510888D01*
X4683991Y-11510888D02*
X4674468Y-11529936D01*
X4674468Y-11529936D02*
X4664944Y-11539460D01*
X4664944Y-11539460D02*
X4645896Y-11548984D01*
X4645896Y-11548984D02*
X4626848Y-11548984D01*
X4626848Y-11548984D02*
X4607801Y-11539460D01*
X4607801Y-11539460D02*
X4598277Y-11529936D01*
X4598277Y-11529936D02*
X4588753Y-11510888D01*
X4588753Y-11510888D02*
X4579229Y-11472793D01*
X4579229Y-11472793D02*
X4579229Y-11425174D01*
X4579229Y-11425174D02*
X4588753Y-11387079D01*
X4588753Y-11387079D02*
X4598277Y-11368031D01*
X4598277Y-11368031D02*
X4607801Y-11358508D01*
X4607801Y-11358508D02*
X4626848Y-11348984D01*
X4883991Y-11548984D02*
X4769706Y-11548984D01*
X4826848Y-11548984D02*
X4826848Y-11348984D01*
X4826848Y-11348984D02*
X4807801Y-11377555D01*
X4807801Y-11377555D02*
X4788753Y-11396603D01*
X4788753Y-11396603D02*
X4769706Y-11406127D01*
X5074468Y-11548984D02*
X4960182Y-11548984D01*
X5017325Y-11548984D02*
X5017325Y-11348984D01*
X5017325Y-11348984D02*
X4998277Y-11377555D01*
X4998277Y-11377555D02*
X4979229Y-11396603D01*
X4979229Y-11396603D02*
X4960182Y-11406127D01*
X5188753Y-11434698D02*
X5169706Y-11425174D01*
X5169706Y-11425174D02*
X5160182Y-11415650D01*
X5160182Y-11415650D02*
X5150658Y-11396603D01*
X5150658Y-11396603D02*
X5150658Y-11387079D01*
X5150658Y-11387079D02*
X5160182Y-11368031D01*
X5160182Y-11368031D02*
X5169706Y-11358508D01*
X5169706Y-11358508D02*
X5188753Y-11348984D01*
X5188753Y-11348984D02*
X5226849Y-11348984D01*
X5226849Y-11348984D02*
X5245896Y-11358508D01*
X5245896Y-11358508D02*
X5255420Y-11368031D01*
X5255420Y-11368031D02*
X5264944Y-11387079D01*
X5264944Y-11387079D02*
X5264944Y-11396603D01*
X5264944Y-11396603D02*
X5255420Y-11415650D01*
X5255420Y-11415650D02*
X5245896Y-11425174D01*
X5245896Y-11425174D02*
X5226849Y-11434698D01*
X5226849Y-11434698D02*
X5188753Y-11434698D01*
X5188753Y-11434698D02*
X5169706Y-11444222D01*
X5169706Y-11444222D02*
X5160182Y-11453746D01*
X5160182Y-11453746D02*
X5150658Y-11472793D01*
X5150658Y-11472793D02*
X5150658Y-11510888D01*
X5150658Y-11510888D02*
X5160182Y-11529936D01*
X5160182Y-11529936D02*
X5169706Y-11539460D01*
X5169706Y-11539460D02*
X5188753Y-11548984D01*
X5188753Y-11548984D02*
X5226849Y-11548984D01*
X5226849Y-11548984D02*
X5245896Y-11539460D01*
X5245896Y-11539460D02*
X5255420Y-11529936D01*
X5255420Y-11529936D02*
X5264944Y-11510888D01*
X5264944Y-11510888D02*
X5264944Y-11472793D01*
X5264944Y-11472793D02*
X5255420Y-11453746D01*
X5255420Y-11453746D02*
X5245896Y-11444222D01*
X5245896Y-11444222D02*
X5226849Y-11434698D01*
X5341134Y-11348984D02*
X5341134Y-11387079D01*
X5417325Y-11348984D02*
X5417325Y-11387079D01*
X5712563Y-11625174D02*
X5703039Y-11615650D01*
X5703039Y-11615650D02*
X5683991Y-11587079D01*
X5683991Y-11587079D02*
X5674468Y-11568031D01*
X5674468Y-11568031D02*
X5664944Y-11539460D01*
X5664944Y-11539460D02*
X5655420Y-11491841D01*
X5655420Y-11491841D02*
X5655420Y-11453746D01*
X5655420Y-11453746D02*
X5664944Y-11406127D01*
X5664944Y-11406127D02*
X5674468Y-11377555D01*
X5674468Y-11377555D02*
X5683991Y-11358508D01*
X5683991Y-11358508D02*
X5703039Y-11329936D01*
X5703039Y-11329936D02*
X5712563Y-11320412D01*
X5769706Y-11348984D02*
X5903039Y-11348984D01*
X5903039Y-11348984D02*
X5817325Y-11548984D01*
X6074468Y-11348984D02*
X5979229Y-11348984D01*
X5979229Y-11348984D02*
X5969706Y-11444222D01*
X5969706Y-11444222D02*
X5979229Y-11434698D01*
X5979229Y-11434698D02*
X5998277Y-11425174D01*
X5998277Y-11425174D02*
X6045896Y-11425174D01*
X6045896Y-11425174D02*
X6064944Y-11434698D01*
X6064944Y-11434698D02*
X6074468Y-11444222D01*
X6074468Y-11444222D02*
X6083991Y-11463269D01*
X6083991Y-11463269D02*
X6083991Y-11510888D01*
X6083991Y-11510888D02*
X6074468Y-11529936D01*
X6074468Y-11529936D02*
X6064944Y-11539460D01*
X6064944Y-11539460D02*
X6045896Y-11548984D01*
X6045896Y-11548984D02*
X5998277Y-11548984D01*
X5998277Y-11548984D02*
X5979229Y-11539460D01*
X5979229Y-11539460D02*
X5969706Y-11529936D01*
X6322087Y-11548984D02*
X6322087Y-11348984D01*
X6407801Y-11548984D02*
X6407801Y-11444222D01*
X6407801Y-11444222D02*
X6398277Y-11425174D01*
X6398277Y-11425174D02*
X6379230Y-11415650D01*
X6379230Y-11415650D02*
X6350658Y-11415650D01*
X6350658Y-11415650D02*
X6331610Y-11425174D01*
X6331610Y-11425174D02*
X6322087Y-11434698D01*
X6531610Y-11548984D02*
X6512563Y-11539460D01*
X6512563Y-11539460D02*
X6503039Y-11529936D01*
X6503039Y-11529936D02*
X6493515Y-11510888D01*
X6493515Y-11510888D02*
X6493515Y-11453746D01*
X6493515Y-11453746D02*
X6503039Y-11434698D01*
X6503039Y-11434698D02*
X6512563Y-11425174D01*
X6512563Y-11425174D02*
X6531610Y-11415650D01*
X6531610Y-11415650D02*
X6560182Y-11415650D01*
X6560182Y-11415650D02*
X6579230Y-11425174D01*
X6579230Y-11425174D02*
X6588753Y-11434698D01*
X6588753Y-11434698D02*
X6598277Y-11453746D01*
X6598277Y-11453746D02*
X6598277Y-11510888D01*
X6598277Y-11510888D02*
X6588753Y-11529936D01*
X6588753Y-11529936D02*
X6579230Y-11539460D01*
X6579230Y-11539460D02*
X6560182Y-11548984D01*
X6560182Y-11548984D02*
X6531610Y-11548984D01*
X6712563Y-11548984D02*
X6693515Y-11539460D01*
X6693515Y-11539460D02*
X6683991Y-11520412D01*
X6683991Y-11520412D02*
X6683991Y-11348984D01*
X6864944Y-11539460D02*
X6845896Y-11548984D01*
X6845896Y-11548984D02*
X6807801Y-11548984D01*
X6807801Y-11548984D02*
X6788753Y-11539460D01*
X6788753Y-11539460D02*
X6779230Y-11520412D01*
X6779230Y-11520412D02*
X6779230Y-11444222D01*
X6779230Y-11444222D02*
X6788753Y-11425174D01*
X6788753Y-11425174D02*
X6807801Y-11415650D01*
X6807801Y-11415650D02*
X6845896Y-11415650D01*
X6845896Y-11415650D02*
X6864944Y-11425174D01*
X6864944Y-11425174D02*
X6874468Y-11444222D01*
X6874468Y-11444222D02*
X6874468Y-11463269D01*
X6874468Y-11463269D02*
X6779230Y-11482317D01*
X6950658Y-11539460D02*
X6969706Y-11548984D01*
X6969706Y-11548984D02*
X7007801Y-11548984D01*
X7007801Y-11548984D02*
X7026849Y-11539460D01*
X7026849Y-11539460D02*
X7036372Y-11520412D01*
X7036372Y-11520412D02*
X7036372Y-11510888D01*
X7036372Y-11510888D02*
X7026849Y-11491841D01*
X7026849Y-11491841D02*
X7007801Y-11482317D01*
X7007801Y-11482317D02*
X6979230Y-11482317D01*
X6979230Y-11482317D02*
X6960182Y-11472793D01*
X6960182Y-11472793D02*
X6950658Y-11453746D01*
X6950658Y-11453746D02*
X6950658Y-11444222D01*
X6950658Y-11444222D02*
X6960182Y-11425174D01*
X6960182Y-11425174D02*
X6979230Y-11415650D01*
X6979230Y-11415650D02*
X7007801Y-11415650D01*
X7007801Y-11415650D02*
X7026849Y-11425174D01*
X7103039Y-11625174D02*
X7112563Y-11615650D01*
X7112563Y-11615650D02*
X7131611Y-11587079D01*
X7131611Y-11587079D02*
X7141134Y-11568031D01*
X7141134Y-11568031D02*
X7150658Y-11539460D01*
X7150658Y-11539460D02*
X7160182Y-11491841D01*
X7160182Y-11491841D02*
X7160182Y-11453746D01*
X7160182Y-11453746D02*
X7150658Y-11406127D01*
X7150658Y-11406127D02*
X7141134Y-11377555D01*
X7141134Y-11377555D02*
X7131611Y-11358508D01*
X7131611Y-11358508D02*
X7112563Y-11329936D01*
X7112563Y-11329936D02*
X7103039Y-11320412D01*
D12*
X2137500Y-11721500D02*
G75*
G02*
X2087500Y-11721500I-25000J0D01*
G01*
X2087500Y-11721500D02*
G75*
G02*
X2137500Y-11721500I25000J0D01*
G01*
D13*
X2436372Y-11612984D02*
X2455420Y-11612984D01*
X2455420Y-11612984D02*
X2474467Y-11622508D01*
X2474467Y-11622508D02*
X2483991Y-11632031D01*
X2483991Y-11632031D02*
X2493515Y-11651079D01*
X2493515Y-11651079D02*
X2503039Y-11689174D01*
X2503039Y-11689174D02*
X2503039Y-11736793D01*
X2503039Y-11736793D02*
X2493515Y-11774888D01*
X2493515Y-11774888D02*
X2483991Y-11793936D01*
X2483991Y-11793936D02*
X2474467Y-11803460D01*
X2474467Y-11803460D02*
X2455420Y-11812984D01*
X2455420Y-11812984D02*
X2436372Y-11812984D01*
X2436372Y-11812984D02*
X2417324Y-11803460D01*
X2417324Y-11803460D02*
X2407801Y-11793936D01*
X2407801Y-11793936D02*
X2398277Y-11774888D01*
X2398277Y-11774888D02*
X2388753Y-11736793D01*
X2388753Y-11736793D02*
X2388753Y-11689174D01*
X2388753Y-11689174D02*
X2398277Y-11651079D01*
X2398277Y-11651079D02*
X2407801Y-11632031D01*
X2407801Y-11632031D02*
X2417324Y-11622508D01*
X2417324Y-11622508D02*
X2436372Y-11612984D01*
X2588753Y-11793936D02*
X2598277Y-11803460D01*
X2598277Y-11803460D02*
X2588753Y-11812984D01*
X2588753Y-11812984D02*
X2579229Y-11803460D01*
X2579229Y-11803460D02*
X2588753Y-11793936D01*
X2588753Y-11793936D02*
X2588753Y-11812984D01*
X2779229Y-11612984D02*
X2683991Y-11612984D01*
X2683991Y-11612984D02*
X2674467Y-11708222D01*
X2674467Y-11708222D02*
X2683991Y-11698698D01*
X2683991Y-11698698D02*
X2703039Y-11689174D01*
X2703039Y-11689174D02*
X2750658Y-11689174D01*
X2750658Y-11689174D02*
X2769705Y-11698698D01*
X2769705Y-11698698D02*
X2779229Y-11708222D01*
X2779229Y-11708222D02*
X2788753Y-11727269D01*
X2788753Y-11727269D02*
X2788753Y-11774888D01*
X2788753Y-11774888D02*
X2779229Y-11793936D01*
X2779229Y-11793936D02*
X2769705Y-11803460D01*
X2769705Y-11803460D02*
X2750658Y-11812984D01*
X2750658Y-11812984D02*
X2703039Y-11812984D01*
X2703039Y-11812984D02*
X2683991Y-11803460D01*
X2683991Y-11803460D02*
X2674467Y-11793936D01*
X2912562Y-11612984D02*
X2931610Y-11612984D01*
X2931610Y-11612984D02*
X2950658Y-11622508D01*
X2950658Y-11622508D02*
X2960182Y-11632031D01*
X2960182Y-11632031D02*
X2969705Y-11651079D01*
X2969705Y-11651079D02*
X2979229Y-11689174D01*
X2979229Y-11689174D02*
X2979229Y-11736793D01*
X2979229Y-11736793D02*
X2969705Y-11774888D01*
X2969705Y-11774888D02*
X2960182Y-11793936D01*
X2960182Y-11793936D02*
X2950658Y-11803460D01*
X2950658Y-11803460D02*
X2931610Y-11812984D01*
X2931610Y-11812984D02*
X2912562Y-11812984D01*
X2912562Y-11812984D02*
X2893515Y-11803460D01*
X2893515Y-11803460D02*
X2883991Y-11793936D01*
X2883991Y-11793936D02*
X2874467Y-11774888D01*
X2874467Y-11774888D02*
X2864943Y-11736793D01*
X2864943Y-11736793D02*
X2864943Y-11689174D01*
X2864943Y-11689174D02*
X2874467Y-11651079D01*
X2874467Y-11651079D02*
X2883991Y-11632031D01*
X2883991Y-11632031D02*
X2893515Y-11622508D01*
X2893515Y-11622508D02*
X2912562Y-11612984D01*
X3103039Y-11612984D02*
X3122086Y-11612984D01*
X3122086Y-11612984D02*
X3141134Y-11622508D01*
X3141134Y-11622508D02*
X3150658Y-11632031D01*
X3150658Y-11632031D02*
X3160182Y-11651079D01*
X3160182Y-11651079D02*
X3169705Y-11689174D01*
X3169705Y-11689174D02*
X3169705Y-11736793D01*
X3169705Y-11736793D02*
X3160182Y-11774888D01*
X3160182Y-11774888D02*
X3150658Y-11793936D01*
X3150658Y-11793936D02*
X3141134Y-11803460D01*
X3141134Y-11803460D02*
X3122086Y-11812984D01*
X3122086Y-11812984D02*
X3103039Y-11812984D01*
X3103039Y-11812984D02*
X3083991Y-11803460D01*
X3083991Y-11803460D02*
X3074467Y-11793936D01*
X3074467Y-11793936D02*
X3064943Y-11774888D01*
X3064943Y-11774888D02*
X3055420Y-11736793D01*
X3055420Y-11736793D02*
X3055420Y-11689174D01*
X3055420Y-11689174D02*
X3064943Y-11651079D01*
X3064943Y-11651079D02*
X3074467Y-11632031D01*
X3074467Y-11632031D02*
X3083991Y-11622508D01*
X3083991Y-11622508D02*
X3103039Y-11612984D01*
X3255420Y-11812984D02*
X3255420Y-11679650D01*
X3255420Y-11698698D02*
X3264943Y-11689174D01*
X3264943Y-11689174D02*
X3283991Y-11679650D01*
X3283991Y-11679650D02*
X3312563Y-11679650D01*
X3312563Y-11679650D02*
X3331610Y-11689174D01*
X3331610Y-11689174D02*
X3341134Y-11708222D01*
X3341134Y-11708222D02*
X3341134Y-11812984D01*
X3341134Y-11708222D02*
X3350658Y-11689174D01*
X3350658Y-11689174D02*
X3369705Y-11679650D01*
X3369705Y-11679650D02*
X3398277Y-11679650D01*
X3398277Y-11679650D02*
X3417324Y-11689174D01*
X3417324Y-11689174D02*
X3426848Y-11708222D01*
X3426848Y-11708222D02*
X3426848Y-11812984D01*
X3522086Y-11812984D02*
X3522086Y-11679650D01*
X3522086Y-11698698D02*
X3531610Y-11689174D01*
X3531610Y-11689174D02*
X3550658Y-11679650D01*
X3550658Y-11679650D02*
X3579229Y-11679650D01*
X3579229Y-11679650D02*
X3598277Y-11689174D01*
X3598277Y-11689174D02*
X3607801Y-11708222D01*
X3607801Y-11708222D02*
X3607801Y-11812984D01*
X3607801Y-11708222D02*
X3617324Y-11689174D01*
X3617324Y-11689174D02*
X3636372Y-11679650D01*
X3636372Y-11679650D02*
X3664943Y-11679650D01*
X3664943Y-11679650D02*
X3683991Y-11689174D01*
X3683991Y-11689174D02*
X3693515Y-11708222D01*
X3693515Y-11708222D02*
X3693515Y-11812984D01*
X4083991Y-11603460D02*
X3912563Y-11860603D01*
X4341134Y-11612984D02*
X4360182Y-11612984D01*
X4360182Y-11612984D02*
X4379229Y-11622508D01*
X4379229Y-11622508D02*
X4388753Y-11632031D01*
X4388753Y-11632031D02*
X4398277Y-11651079D01*
X4398277Y-11651079D02*
X4407801Y-11689174D01*
X4407801Y-11689174D02*
X4407801Y-11736793D01*
X4407801Y-11736793D02*
X4398277Y-11774888D01*
X4398277Y-11774888D02*
X4388753Y-11793936D01*
X4388753Y-11793936D02*
X4379229Y-11803460D01*
X4379229Y-11803460D02*
X4360182Y-11812984D01*
X4360182Y-11812984D02*
X4341134Y-11812984D01*
X4341134Y-11812984D02*
X4322087Y-11803460D01*
X4322087Y-11803460D02*
X4312563Y-11793936D01*
X4312563Y-11793936D02*
X4303039Y-11774888D01*
X4303039Y-11774888D02*
X4293515Y-11736793D01*
X4293515Y-11736793D02*
X4293515Y-11689174D01*
X4293515Y-11689174D02*
X4303039Y-11651079D01*
X4303039Y-11651079D02*
X4312563Y-11632031D01*
X4312563Y-11632031D02*
X4322087Y-11622508D01*
X4322087Y-11622508D02*
X4341134Y-11612984D01*
X4493515Y-11793936D02*
X4503039Y-11803460D01*
X4503039Y-11803460D02*
X4493515Y-11812984D01*
X4493515Y-11812984D02*
X4483991Y-11803460D01*
X4483991Y-11803460D02*
X4493515Y-11793936D01*
X4493515Y-11793936D02*
X4493515Y-11812984D01*
X4626848Y-11612984D02*
X4645896Y-11612984D01*
X4645896Y-11612984D02*
X4664944Y-11622508D01*
X4664944Y-11622508D02*
X4674468Y-11632031D01*
X4674468Y-11632031D02*
X4683991Y-11651079D01*
X4683991Y-11651079D02*
X4693515Y-11689174D01*
X4693515Y-11689174D02*
X4693515Y-11736793D01*
X4693515Y-11736793D02*
X4683991Y-11774888D01*
X4683991Y-11774888D02*
X4674468Y-11793936D01*
X4674468Y-11793936D02*
X4664944Y-11803460D01*
X4664944Y-11803460D02*
X4645896Y-11812984D01*
X4645896Y-11812984D02*
X4626848Y-11812984D01*
X4626848Y-11812984D02*
X4607801Y-11803460D01*
X4607801Y-11803460D02*
X4598277Y-11793936D01*
X4598277Y-11793936D02*
X4588753Y-11774888D01*
X4588753Y-11774888D02*
X4579229Y-11736793D01*
X4579229Y-11736793D02*
X4579229Y-11689174D01*
X4579229Y-11689174D02*
X4588753Y-11651079D01*
X4588753Y-11651079D02*
X4598277Y-11632031D01*
X4598277Y-11632031D02*
X4607801Y-11622508D01*
X4607801Y-11622508D02*
X4626848Y-11612984D01*
X4883991Y-11812984D02*
X4769706Y-11812984D01*
X4826848Y-11812984D02*
X4826848Y-11612984D01*
X4826848Y-11612984D02*
X4807801Y-11641555D01*
X4807801Y-11641555D02*
X4788753Y-11660603D01*
X4788753Y-11660603D02*
X4769706Y-11670127D01*
X4979229Y-11812984D02*
X5017325Y-11812984D01*
X5017325Y-11812984D02*
X5036372Y-11803460D01*
X5036372Y-11803460D02*
X5045896Y-11793936D01*
X5045896Y-11793936D02*
X5064944Y-11765365D01*
X5064944Y-11765365D02*
X5074468Y-11727269D01*
X5074468Y-11727269D02*
X5074468Y-11651079D01*
X5074468Y-11651079D02*
X5064944Y-11632031D01*
X5064944Y-11632031D02*
X5055420Y-11622508D01*
X5055420Y-11622508D02*
X5036372Y-11612984D01*
X5036372Y-11612984D02*
X4998277Y-11612984D01*
X4998277Y-11612984D02*
X4979229Y-11622508D01*
X4979229Y-11622508D02*
X4969706Y-11632031D01*
X4969706Y-11632031D02*
X4960182Y-11651079D01*
X4960182Y-11651079D02*
X4960182Y-11698698D01*
X4960182Y-11698698D02*
X4969706Y-11717746D01*
X4969706Y-11717746D02*
X4979229Y-11727269D01*
X4979229Y-11727269D02*
X4998277Y-11736793D01*
X4998277Y-11736793D02*
X5036372Y-11736793D01*
X5036372Y-11736793D02*
X5055420Y-11727269D01*
X5055420Y-11727269D02*
X5064944Y-11717746D01*
X5064944Y-11717746D02*
X5074468Y-11698698D01*
X5141134Y-11612984D02*
X5274468Y-11612984D01*
X5274468Y-11612984D02*
X5188753Y-11812984D01*
X5341134Y-11612984D02*
X5341134Y-11651079D01*
X5417325Y-11612984D02*
X5417325Y-11651079D01*
X5712563Y-11889174D02*
X5703039Y-11879650D01*
X5703039Y-11879650D02*
X5683991Y-11851079D01*
X5683991Y-11851079D02*
X5674468Y-11832031D01*
X5674468Y-11832031D02*
X5664944Y-11803460D01*
X5664944Y-11803460D02*
X5655420Y-11755841D01*
X5655420Y-11755841D02*
X5655420Y-11717746D01*
X5655420Y-11717746D02*
X5664944Y-11670127D01*
X5664944Y-11670127D02*
X5674468Y-11641555D01*
X5674468Y-11641555D02*
X5683991Y-11622508D01*
X5683991Y-11622508D02*
X5703039Y-11593936D01*
X5703039Y-11593936D02*
X5712563Y-11584412D01*
X5826848Y-11612984D02*
X5845896Y-11612984D01*
X5845896Y-11612984D02*
X5864944Y-11622508D01*
X5864944Y-11622508D02*
X5874468Y-11632031D01*
X5874468Y-11632031D02*
X5883991Y-11651079D01*
X5883991Y-11651079D02*
X5893515Y-11689174D01*
X5893515Y-11689174D02*
X5893515Y-11736793D01*
X5893515Y-11736793D02*
X5883991Y-11774888D01*
X5883991Y-11774888D02*
X5874468Y-11793936D01*
X5874468Y-11793936D02*
X5864944Y-11803460D01*
X5864944Y-11803460D02*
X5845896Y-11812984D01*
X5845896Y-11812984D02*
X5826848Y-11812984D01*
X5826848Y-11812984D02*
X5807801Y-11803460D01*
X5807801Y-11803460D02*
X5798277Y-11793936D01*
X5798277Y-11793936D02*
X5788753Y-11774888D01*
X5788753Y-11774888D02*
X5779229Y-11736793D01*
X5779229Y-11736793D02*
X5779229Y-11689174D01*
X5779229Y-11689174D02*
X5788753Y-11651079D01*
X5788753Y-11651079D02*
X5798277Y-11632031D01*
X5798277Y-11632031D02*
X5807801Y-11622508D01*
X5807801Y-11622508D02*
X5826848Y-11612984D01*
X6131610Y-11812984D02*
X6131610Y-11612984D01*
X6217325Y-11812984D02*
X6217325Y-11708222D01*
X6217325Y-11708222D02*
X6207801Y-11689174D01*
X6207801Y-11689174D02*
X6188753Y-11679650D01*
X6188753Y-11679650D02*
X6160182Y-11679650D01*
X6160182Y-11679650D02*
X6141134Y-11689174D01*
X6141134Y-11689174D02*
X6131610Y-11698698D01*
X6341134Y-11812984D02*
X6322087Y-11803460D01*
X6322087Y-11803460D02*
X6312563Y-11793936D01*
X6312563Y-11793936D02*
X6303039Y-11774888D01*
X6303039Y-11774888D02*
X6303039Y-11717746D01*
X6303039Y-11717746D02*
X6312563Y-11698698D01*
X6312563Y-11698698D02*
X6322087Y-11689174D01*
X6322087Y-11689174D02*
X6341134Y-11679650D01*
X6341134Y-11679650D02*
X6369706Y-11679650D01*
X6369706Y-11679650D02*
X6388753Y-11689174D01*
X6388753Y-11689174D02*
X6398277Y-11698698D01*
X6398277Y-11698698D02*
X6407801Y-11717746D01*
X6407801Y-11717746D02*
X6407801Y-11774888D01*
X6407801Y-11774888D02*
X6398277Y-11793936D01*
X6398277Y-11793936D02*
X6388753Y-11803460D01*
X6388753Y-11803460D02*
X6369706Y-11812984D01*
X6369706Y-11812984D02*
X6341134Y-11812984D01*
X6522087Y-11812984D02*
X6503039Y-11803460D01*
X6503039Y-11803460D02*
X6493515Y-11784412D01*
X6493515Y-11784412D02*
X6493515Y-11612984D01*
X6674468Y-11803460D02*
X6655420Y-11812984D01*
X6655420Y-11812984D02*
X6617325Y-11812984D01*
X6617325Y-11812984D02*
X6598277Y-11803460D01*
X6598277Y-11803460D02*
X6588753Y-11784412D01*
X6588753Y-11784412D02*
X6588753Y-11708222D01*
X6588753Y-11708222D02*
X6598277Y-11689174D01*
X6598277Y-11689174D02*
X6617325Y-11679650D01*
X6617325Y-11679650D02*
X6655420Y-11679650D01*
X6655420Y-11679650D02*
X6674468Y-11689174D01*
X6674468Y-11689174D02*
X6683991Y-11708222D01*
X6683991Y-11708222D02*
X6683991Y-11727269D01*
X6683991Y-11727269D02*
X6588753Y-11746317D01*
X6760182Y-11803460D02*
X6779230Y-11812984D01*
X6779230Y-11812984D02*
X6817325Y-11812984D01*
X6817325Y-11812984D02*
X6836372Y-11803460D01*
X6836372Y-11803460D02*
X6845896Y-11784412D01*
X6845896Y-11784412D02*
X6845896Y-11774888D01*
X6845896Y-11774888D02*
X6836372Y-11755841D01*
X6836372Y-11755841D02*
X6817325Y-11746317D01*
X6817325Y-11746317D02*
X6788753Y-11746317D01*
X6788753Y-11746317D02*
X6769706Y-11736793D01*
X6769706Y-11736793D02*
X6760182Y-11717746D01*
X6760182Y-11717746D02*
X6760182Y-11708222D01*
X6760182Y-11708222D02*
X6769706Y-11689174D01*
X6769706Y-11689174D02*
X6788753Y-11679650D01*
X6788753Y-11679650D02*
X6817325Y-11679650D01*
X6817325Y-11679650D02*
X6836372Y-11689174D01*
X7083992Y-11736793D02*
X7236373Y-11736793D01*
X7160182Y-11812984D02*
X7160182Y-11660603D01*
X7569706Y-11612984D02*
X7531611Y-11612984D01*
X7531611Y-11612984D02*
X7512563Y-11622508D01*
X7512563Y-11622508D02*
X7503039Y-11632031D01*
X7503039Y-11632031D02*
X7483992Y-11660603D01*
X7483992Y-11660603D02*
X7474468Y-11698698D01*
X7474468Y-11698698D02*
X7474468Y-11774888D01*
X7474468Y-11774888D02*
X7483992Y-11793936D01*
X7483992Y-11793936D02*
X7493515Y-11803460D01*
X7493515Y-11803460D02*
X7512563Y-11812984D01*
X7512563Y-11812984D02*
X7550658Y-11812984D01*
X7550658Y-11812984D02*
X7569706Y-11803460D01*
X7569706Y-11803460D02*
X7579230Y-11793936D01*
X7579230Y-11793936D02*
X7588753Y-11774888D01*
X7588753Y-11774888D02*
X7588753Y-11727269D01*
X7588753Y-11727269D02*
X7579230Y-11708222D01*
X7579230Y-11708222D02*
X7569706Y-11698698D01*
X7569706Y-11698698D02*
X7550658Y-11689174D01*
X7550658Y-11689174D02*
X7512563Y-11689174D01*
X7512563Y-11689174D02*
X7493515Y-11698698D01*
X7493515Y-11698698D02*
X7483992Y-11708222D01*
X7483992Y-11708222D02*
X7474468Y-11727269D01*
X7817325Y-11803460D02*
X7836373Y-11812984D01*
X7836373Y-11812984D02*
X7874468Y-11812984D01*
X7874468Y-11812984D02*
X7893515Y-11803460D01*
X7893515Y-11803460D02*
X7903039Y-11784412D01*
X7903039Y-11784412D02*
X7903039Y-11774888D01*
X7903039Y-11774888D02*
X7893515Y-11755841D01*
X7893515Y-11755841D02*
X7874468Y-11746317D01*
X7874468Y-11746317D02*
X7845896Y-11746317D01*
X7845896Y-11746317D02*
X7826849Y-11736793D01*
X7826849Y-11736793D02*
X7817325Y-11717746D01*
X7817325Y-11717746D02*
X7817325Y-11708222D01*
X7817325Y-11708222D02*
X7826849Y-11689174D01*
X7826849Y-11689174D02*
X7845896Y-11679650D01*
X7845896Y-11679650D02*
X7874468Y-11679650D01*
X7874468Y-11679650D02*
X7893515Y-11689174D01*
X8017325Y-11812984D02*
X7998277Y-11803460D01*
X7998277Y-11803460D02*
X7988754Y-11784412D01*
X7988754Y-11784412D02*
X7988754Y-11612984D01*
X8122087Y-11812984D02*
X8103039Y-11803460D01*
X8103039Y-11803460D02*
X8093515Y-11793936D01*
X8093515Y-11793936D02*
X8083992Y-11774888D01*
X8083992Y-11774888D02*
X8083992Y-11717746D01*
X8083992Y-11717746D02*
X8093515Y-11698698D01*
X8093515Y-11698698D02*
X8103039Y-11689174D01*
X8103039Y-11689174D02*
X8122087Y-11679650D01*
X8122087Y-11679650D02*
X8150658Y-11679650D01*
X8150658Y-11679650D02*
X8169706Y-11689174D01*
X8169706Y-11689174D02*
X8179230Y-11698698D01*
X8179230Y-11698698D02*
X8188754Y-11717746D01*
X8188754Y-11717746D02*
X8188754Y-11774888D01*
X8188754Y-11774888D02*
X8179230Y-11793936D01*
X8179230Y-11793936D02*
X8169706Y-11803460D01*
X8169706Y-11803460D02*
X8150658Y-11812984D01*
X8150658Y-11812984D02*
X8122087Y-11812984D01*
X8245896Y-11679650D02*
X8322087Y-11679650D01*
X8274468Y-11612984D02*
X8274468Y-11784412D01*
X8274468Y-11784412D02*
X8283992Y-11803460D01*
X8283992Y-11803460D02*
X8303039Y-11812984D01*
X8303039Y-11812984D02*
X8322087Y-11812984D01*
X8379230Y-11803460D02*
X8398277Y-11812984D01*
X8398277Y-11812984D02*
X8436373Y-11812984D01*
X8436373Y-11812984D02*
X8455420Y-11803460D01*
X8455420Y-11803460D02*
X8464944Y-11784412D01*
X8464944Y-11784412D02*
X8464944Y-11774888D01*
X8464944Y-11774888D02*
X8455420Y-11755841D01*
X8455420Y-11755841D02*
X8436373Y-11746317D01*
X8436373Y-11746317D02*
X8407801Y-11746317D01*
X8407801Y-11746317D02*
X8388754Y-11736793D01*
X8388754Y-11736793D02*
X8379230Y-11717746D01*
X8379230Y-11717746D02*
X8379230Y-11708222D01*
X8379230Y-11708222D02*
X8388754Y-11689174D01*
X8388754Y-11689174D02*
X8407801Y-11679650D01*
X8407801Y-11679650D02*
X8436373Y-11679650D01*
X8436373Y-11679650D02*
X8455420Y-11689174D01*
X8531611Y-11889174D02*
X8541135Y-11879650D01*
X8541135Y-11879650D02*
X8560182Y-11851079D01*
X8560182Y-11851079D02*
X8569706Y-11832031D01*
X8569706Y-11832031D02*
X8579230Y-11803460D01*
X8579230Y-11803460D02*
X8588754Y-11755841D01*
X8588754Y-11755841D02*
X8588754Y-11717746D01*
X8588754Y-11717746D02*
X8579230Y-11670127D01*
X8579230Y-11670127D02*
X8569706Y-11641555D01*
X8569706Y-11641555D02*
X8560182Y-11622508D01*
X8560182Y-11622508D02*
X8541135Y-11593936D01*
X8541135Y-11593936D02*
X8531611Y-11584412D01*
D12*
X2096860Y-11944860D02*
X2096860Y-12026140D01*
X2056220Y-11985500D02*
X2137500Y-11985500D01*
D13*
X2436372Y-11876984D02*
X2455420Y-11876984D01*
X2455420Y-11876984D02*
X2474467Y-11886508D01*
X2474467Y-11886508D02*
X2483991Y-11896031D01*
X2483991Y-11896031D02*
X2493515Y-11915079D01*
X2493515Y-11915079D02*
X2503039Y-11953174D01*
X2503039Y-11953174D02*
X2503039Y-12000793D01*
X2503039Y-12000793D02*
X2493515Y-12038888D01*
X2493515Y-12038888D02*
X2483991Y-12057936D01*
X2483991Y-12057936D02*
X2474467Y-12067460D01*
X2474467Y-12067460D02*
X2455420Y-12076984D01*
X2455420Y-12076984D02*
X2436372Y-12076984D01*
X2436372Y-12076984D02*
X2417324Y-12067460D01*
X2417324Y-12067460D02*
X2407801Y-12057936D01*
X2407801Y-12057936D02*
X2398277Y-12038888D01*
X2398277Y-12038888D02*
X2388753Y-12000793D01*
X2388753Y-12000793D02*
X2388753Y-11953174D01*
X2388753Y-11953174D02*
X2398277Y-11915079D01*
X2398277Y-11915079D02*
X2407801Y-11896031D01*
X2407801Y-11896031D02*
X2417324Y-11886508D01*
X2417324Y-11886508D02*
X2436372Y-11876984D01*
X2588753Y-12057936D02*
X2598277Y-12067460D01*
X2598277Y-12067460D02*
X2588753Y-12076984D01*
X2588753Y-12076984D02*
X2579229Y-12067460D01*
X2579229Y-12067460D02*
X2588753Y-12057936D01*
X2588753Y-12057936D02*
X2588753Y-12076984D01*
X2712563Y-11962698D02*
X2693515Y-11953174D01*
X2693515Y-11953174D02*
X2683991Y-11943650D01*
X2683991Y-11943650D02*
X2674467Y-11924603D01*
X2674467Y-11924603D02*
X2674467Y-11915079D01*
X2674467Y-11915079D02*
X2683991Y-11896031D01*
X2683991Y-11896031D02*
X2693515Y-11886508D01*
X2693515Y-11886508D02*
X2712563Y-11876984D01*
X2712563Y-11876984D02*
X2750658Y-11876984D01*
X2750658Y-11876984D02*
X2769705Y-11886508D01*
X2769705Y-11886508D02*
X2779229Y-11896031D01*
X2779229Y-11896031D02*
X2788753Y-11915079D01*
X2788753Y-11915079D02*
X2788753Y-11924603D01*
X2788753Y-11924603D02*
X2779229Y-11943650D01*
X2779229Y-11943650D02*
X2769705Y-11953174D01*
X2769705Y-11953174D02*
X2750658Y-11962698D01*
X2750658Y-11962698D02*
X2712563Y-11962698D01*
X2712563Y-11962698D02*
X2693515Y-11972222D01*
X2693515Y-11972222D02*
X2683991Y-11981746D01*
X2683991Y-11981746D02*
X2674467Y-12000793D01*
X2674467Y-12000793D02*
X2674467Y-12038888D01*
X2674467Y-12038888D02*
X2683991Y-12057936D01*
X2683991Y-12057936D02*
X2693515Y-12067460D01*
X2693515Y-12067460D02*
X2712563Y-12076984D01*
X2712563Y-12076984D02*
X2750658Y-12076984D01*
X2750658Y-12076984D02*
X2769705Y-12067460D01*
X2769705Y-12067460D02*
X2779229Y-12057936D01*
X2779229Y-12057936D02*
X2788753Y-12038888D01*
X2788753Y-12038888D02*
X2788753Y-12000793D01*
X2788753Y-12000793D02*
X2779229Y-11981746D01*
X2779229Y-11981746D02*
X2769705Y-11972222D01*
X2769705Y-11972222D02*
X2750658Y-11962698D01*
X2979229Y-12076984D02*
X2864943Y-12076984D01*
X2922086Y-12076984D02*
X2922086Y-11876984D01*
X2922086Y-11876984D02*
X2903039Y-11905555D01*
X2903039Y-11905555D02*
X2883991Y-11924603D01*
X2883991Y-11924603D02*
X2864943Y-11934127D01*
X3045896Y-11876984D02*
X3169705Y-11876984D01*
X3169705Y-11876984D02*
X3103039Y-11953174D01*
X3103039Y-11953174D02*
X3131610Y-11953174D01*
X3131610Y-11953174D02*
X3150658Y-11962698D01*
X3150658Y-11962698D02*
X3160182Y-11972222D01*
X3160182Y-11972222D02*
X3169705Y-11991269D01*
X3169705Y-11991269D02*
X3169705Y-12038888D01*
X3169705Y-12038888D02*
X3160182Y-12057936D01*
X3160182Y-12057936D02*
X3150658Y-12067460D01*
X3150658Y-12067460D02*
X3131610Y-12076984D01*
X3131610Y-12076984D02*
X3074467Y-12076984D01*
X3074467Y-12076984D02*
X3055420Y-12067460D01*
X3055420Y-12067460D02*
X3045896Y-12057936D01*
X3255420Y-12076984D02*
X3255420Y-11943650D01*
X3255420Y-11962698D02*
X3264943Y-11953174D01*
X3264943Y-11953174D02*
X3283991Y-11943650D01*
X3283991Y-11943650D02*
X3312563Y-11943650D01*
X3312563Y-11943650D02*
X3331610Y-11953174D01*
X3331610Y-11953174D02*
X3341134Y-11972222D01*
X3341134Y-11972222D02*
X3341134Y-12076984D01*
X3341134Y-11972222D02*
X3350658Y-11953174D01*
X3350658Y-11953174D02*
X3369705Y-11943650D01*
X3369705Y-11943650D02*
X3398277Y-11943650D01*
X3398277Y-11943650D02*
X3417324Y-11953174D01*
X3417324Y-11953174D02*
X3426848Y-11972222D01*
X3426848Y-11972222D02*
X3426848Y-12076984D01*
X3522086Y-12076984D02*
X3522086Y-11943650D01*
X3522086Y-11962698D02*
X3531610Y-11953174D01*
X3531610Y-11953174D02*
X3550658Y-11943650D01*
X3550658Y-11943650D02*
X3579229Y-11943650D01*
X3579229Y-11943650D02*
X3598277Y-11953174D01*
X3598277Y-11953174D02*
X3607801Y-11972222D01*
X3607801Y-11972222D02*
X3607801Y-12076984D01*
X3607801Y-11972222D02*
X3617324Y-11953174D01*
X3617324Y-11953174D02*
X3636372Y-11943650D01*
X3636372Y-11943650D02*
X3664943Y-11943650D01*
X3664943Y-11943650D02*
X3683991Y-11953174D01*
X3683991Y-11953174D02*
X3693515Y-11972222D01*
X3693515Y-11972222D02*
X3693515Y-12076984D01*
X4083991Y-11867460D02*
X3912563Y-12124603D01*
X4341134Y-11876984D02*
X4360182Y-11876984D01*
X4360182Y-11876984D02*
X4379229Y-11886508D01*
X4379229Y-11886508D02*
X4388753Y-11896031D01*
X4388753Y-11896031D02*
X4398277Y-11915079D01*
X4398277Y-11915079D02*
X4407801Y-11953174D01*
X4407801Y-11953174D02*
X4407801Y-12000793D01*
X4407801Y-12000793D02*
X4398277Y-12038888D01*
X4398277Y-12038888D02*
X4388753Y-12057936D01*
X4388753Y-12057936D02*
X4379229Y-12067460D01*
X4379229Y-12067460D02*
X4360182Y-12076984D01*
X4360182Y-12076984D02*
X4341134Y-12076984D01*
X4341134Y-12076984D02*
X4322087Y-12067460D01*
X4322087Y-12067460D02*
X4312563Y-12057936D01*
X4312563Y-12057936D02*
X4303039Y-12038888D01*
X4303039Y-12038888D02*
X4293515Y-12000793D01*
X4293515Y-12000793D02*
X4293515Y-11953174D01*
X4293515Y-11953174D02*
X4303039Y-11915079D01*
X4303039Y-11915079D02*
X4312563Y-11896031D01*
X4312563Y-11896031D02*
X4322087Y-11886508D01*
X4322087Y-11886508D02*
X4341134Y-11876984D01*
X4493515Y-12057936D02*
X4503039Y-12067460D01*
X4503039Y-12067460D02*
X4493515Y-12076984D01*
X4493515Y-12076984D02*
X4483991Y-12067460D01*
X4483991Y-12067460D02*
X4493515Y-12057936D01*
X4493515Y-12057936D02*
X4493515Y-12076984D01*
X4626848Y-11876984D02*
X4645896Y-11876984D01*
X4645896Y-11876984D02*
X4664944Y-11886508D01*
X4664944Y-11886508D02*
X4674468Y-11896031D01*
X4674468Y-11896031D02*
X4683991Y-11915079D01*
X4683991Y-11915079D02*
X4693515Y-11953174D01*
X4693515Y-11953174D02*
X4693515Y-12000793D01*
X4693515Y-12000793D02*
X4683991Y-12038888D01*
X4683991Y-12038888D02*
X4674468Y-12057936D01*
X4674468Y-12057936D02*
X4664944Y-12067460D01*
X4664944Y-12067460D02*
X4645896Y-12076984D01*
X4645896Y-12076984D02*
X4626848Y-12076984D01*
X4626848Y-12076984D02*
X4607801Y-12067460D01*
X4607801Y-12067460D02*
X4598277Y-12057936D01*
X4598277Y-12057936D02*
X4588753Y-12038888D01*
X4588753Y-12038888D02*
X4579229Y-12000793D01*
X4579229Y-12000793D02*
X4579229Y-11953174D01*
X4579229Y-11953174D02*
X4588753Y-11915079D01*
X4588753Y-11915079D02*
X4598277Y-11896031D01*
X4598277Y-11896031D02*
X4607801Y-11886508D01*
X4607801Y-11886508D02*
X4626848Y-11876984D01*
X4760182Y-11876984D02*
X4883991Y-11876984D01*
X4883991Y-11876984D02*
X4817325Y-11953174D01*
X4817325Y-11953174D02*
X4845896Y-11953174D01*
X4845896Y-11953174D02*
X4864944Y-11962698D01*
X4864944Y-11962698D02*
X4874468Y-11972222D01*
X4874468Y-11972222D02*
X4883991Y-11991269D01*
X4883991Y-11991269D02*
X4883991Y-12038888D01*
X4883991Y-12038888D02*
X4874468Y-12057936D01*
X4874468Y-12057936D02*
X4864944Y-12067460D01*
X4864944Y-12067460D02*
X4845896Y-12076984D01*
X4845896Y-12076984D02*
X4788753Y-12076984D01*
X4788753Y-12076984D02*
X4769706Y-12067460D01*
X4769706Y-12067460D02*
X4760182Y-12057936D01*
X4960182Y-11896031D02*
X4969706Y-11886508D01*
X4969706Y-11886508D02*
X4988753Y-11876984D01*
X4988753Y-11876984D02*
X5036372Y-11876984D01*
X5036372Y-11876984D02*
X5055420Y-11886508D01*
X5055420Y-11886508D02*
X5064944Y-11896031D01*
X5064944Y-11896031D02*
X5074468Y-11915079D01*
X5074468Y-11915079D02*
X5074468Y-11934127D01*
X5074468Y-11934127D02*
X5064944Y-11962698D01*
X5064944Y-11962698D02*
X4950658Y-12076984D01*
X4950658Y-12076984D02*
X5074468Y-12076984D01*
X5198277Y-11876984D02*
X5217325Y-11876984D01*
X5217325Y-11876984D02*
X5236372Y-11886508D01*
X5236372Y-11886508D02*
X5245896Y-11896031D01*
X5245896Y-11896031D02*
X5255420Y-11915079D01*
X5255420Y-11915079D02*
X5264944Y-11953174D01*
X5264944Y-11953174D02*
X5264944Y-12000793D01*
X5264944Y-12000793D02*
X5255420Y-12038888D01*
X5255420Y-12038888D02*
X5245896Y-12057936D01*
X5245896Y-12057936D02*
X5236372Y-12067460D01*
X5236372Y-12067460D02*
X5217325Y-12076984D01*
X5217325Y-12076984D02*
X5198277Y-12076984D01*
X5198277Y-12076984D02*
X5179229Y-12067460D01*
X5179229Y-12067460D02*
X5169706Y-12057936D01*
X5169706Y-12057936D02*
X5160182Y-12038888D01*
X5160182Y-12038888D02*
X5150658Y-12000793D01*
X5150658Y-12000793D02*
X5150658Y-11953174D01*
X5150658Y-11953174D02*
X5160182Y-11915079D01*
X5160182Y-11915079D02*
X5169706Y-11896031D01*
X5169706Y-11896031D02*
X5179229Y-11886508D01*
X5179229Y-11886508D02*
X5198277Y-11876984D01*
X5341134Y-11876984D02*
X5341134Y-11915079D01*
X5417325Y-11876984D02*
X5417325Y-11915079D01*
X5712563Y-12153174D02*
X5703039Y-12143650D01*
X5703039Y-12143650D02*
X5683991Y-12115079D01*
X5683991Y-12115079D02*
X5674468Y-12096031D01*
X5674468Y-12096031D02*
X5664944Y-12067460D01*
X5664944Y-12067460D02*
X5655420Y-12019841D01*
X5655420Y-12019841D02*
X5655420Y-11981746D01*
X5655420Y-11981746D02*
X5664944Y-11934127D01*
X5664944Y-11934127D02*
X5674468Y-11905555D01*
X5674468Y-11905555D02*
X5683991Y-11886508D01*
X5683991Y-11886508D02*
X5703039Y-11857936D01*
X5703039Y-11857936D02*
X5712563Y-11848412D01*
X5779229Y-11896031D02*
X5788753Y-11886508D01*
X5788753Y-11886508D02*
X5807801Y-11876984D01*
X5807801Y-11876984D02*
X5855420Y-11876984D01*
X5855420Y-11876984D02*
X5874468Y-11886508D01*
X5874468Y-11886508D02*
X5883991Y-11896031D01*
X5883991Y-11896031D02*
X5893515Y-11915079D01*
X5893515Y-11915079D02*
X5893515Y-11934127D01*
X5893515Y-11934127D02*
X5883991Y-11962698D01*
X5883991Y-11962698D02*
X5769706Y-12076984D01*
X5769706Y-12076984D02*
X5893515Y-12076984D01*
X6007801Y-11962698D02*
X5988753Y-11953174D01*
X5988753Y-11953174D02*
X5979229Y-11943650D01*
X5979229Y-11943650D02*
X5969706Y-11924603D01*
X5969706Y-11924603D02*
X5969706Y-11915079D01*
X5969706Y-11915079D02*
X5979229Y-11896031D01*
X5979229Y-11896031D02*
X5988753Y-11886508D01*
X5988753Y-11886508D02*
X6007801Y-11876984D01*
X6007801Y-11876984D02*
X6045896Y-11876984D01*
X6045896Y-11876984D02*
X6064944Y-11886508D01*
X6064944Y-11886508D02*
X6074468Y-11896031D01*
X6074468Y-11896031D02*
X6083991Y-11915079D01*
X6083991Y-11915079D02*
X6083991Y-11924603D01*
X6083991Y-11924603D02*
X6074468Y-11943650D01*
X6074468Y-11943650D02*
X6064944Y-11953174D01*
X6064944Y-11953174D02*
X6045896Y-11962698D01*
X6045896Y-11962698D02*
X6007801Y-11962698D01*
X6007801Y-11962698D02*
X5988753Y-11972222D01*
X5988753Y-11972222D02*
X5979229Y-11981746D01*
X5979229Y-11981746D02*
X5969706Y-12000793D01*
X5969706Y-12000793D02*
X5969706Y-12038888D01*
X5969706Y-12038888D02*
X5979229Y-12057936D01*
X5979229Y-12057936D02*
X5988753Y-12067460D01*
X5988753Y-12067460D02*
X6007801Y-12076984D01*
X6007801Y-12076984D02*
X6045896Y-12076984D01*
X6045896Y-12076984D02*
X6064944Y-12067460D01*
X6064944Y-12067460D02*
X6074468Y-12057936D01*
X6074468Y-12057936D02*
X6083991Y-12038888D01*
X6083991Y-12038888D02*
X6083991Y-12000793D01*
X6083991Y-12000793D02*
X6074468Y-11981746D01*
X6074468Y-11981746D02*
X6064944Y-11972222D01*
X6064944Y-11972222D02*
X6045896Y-11962698D01*
X6322087Y-12076984D02*
X6322087Y-11876984D01*
X6407801Y-12076984D02*
X6407801Y-11972222D01*
X6407801Y-11972222D02*
X6398277Y-11953174D01*
X6398277Y-11953174D02*
X6379230Y-11943650D01*
X6379230Y-11943650D02*
X6350658Y-11943650D01*
X6350658Y-11943650D02*
X6331610Y-11953174D01*
X6331610Y-11953174D02*
X6322087Y-11962698D01*
X6531610Y-12076984D02*
X6512563Y-12067460D01*
X6512563Y-12067460D02*
X6503039Y-12057936D01*
X6503039Y-12057936D02*
X6493515Y-12038888D01*
X6493515Y-12038888D02*
X6493515Y-11981746D01*
X6493515Y-11981746D02*
X6503039Y-11962698D01*
X6503039Y-11962698D02*
X6512563Y-11953174D01*
X6512563Y-11953174D02*
X6531610Y-11943650D01*
X6531610Y-11943650D02*
X6560182Y-11943650D01*
X6560182Y-11943650D02*
X6579230Y-11953174D01*
X6579230Y-11953174D02*
X6588753Y-11962698D01*
X6588753Y-11962698D02*
X6598277Y-11981746D01*
X6598277Y-11981746D02*
X6598277Y-12038888D01*
X6598277Y-12038888D02*
X6588753Y-12057936D01*
X6588753Y-12057936D02*
X6579230Y-12067460D01*
X6579230Y-12067460D02*
X6560182Y-12076984D01*
X6560182Y-12076984D02*
X6531610Y-12076984D01*
X6712563Y-12076984D02*
X6693515Y-12067460D01*
X6693515Y-12067460D02*
X6683991Y-12048412D01*
X6683991Y-12048412D02*
X6683991Y-11876984D01*
X6864944Y-12067460D02*
X6845896Y-12076984D01*
X6845896Y-12076984D02*
X6807801Y-12076984D01*
X6807801Y-12076984D02*
X6788753Y-12067460D01*
X6788753Y-12067460D02*
X6779230Y-12048412D01*
X6779230Y-12048412D02*
X6779230Y-11972222D01*
X6779230Y-11972222D02*
X6788753Y-11953174D01*
X6788753Y-11953174D02*
X6807801Y-11943650D01*
X6807801Y-11943650D02*
X6845896Y-11943650D01*
X6845896Y-11943650D02*
X6864944Y-11953174D01*
X6864944Y-11953174D02*
X6874468Y-11972222D01*
X6874468Y-11972222D02*
X6874468Y-11991269D01*
X6874468Y-11991269D02*
X6779230Y-12010317D01*
X6950658Y-12067460D02*
X6969706Y-12076984D01*
X6969706Y-12076984D02*
X7007801Y-12076984D01*
X7007801Y-12076984D02*
X7026849Y-12067460D01*
X7026849Y-12067460D02*
X7036372Y-12048412D01*
X7036372Y-12048412D02*
X7036372Y-12038888D01*
X7036372Y-12038888D02*
X7026849Y-12019841D01*
X7026849Y-12019841D02*
X7007801Y-12010317D01*
X7007801Y-12010317D02*
X6979230Y-12010317D01*
X6979230Y-12010317D02*
X6960182Y-12000793D01*
X6960182Y-12000793D02*
X6950658Y-11981746D01*
X6950658Y-11981746D02*
X6950658Y-11972222D01*
X6950658Y-11972222D02*
X6960182Y-11953174D01*
X6960182Y-11953174D02*
X6979230Y-11943650D01*
X6979230Y-11943650D02*
X7007801Y-11943650D01*
X7007801Y-11943650D02*
X7026849Y-11953174D01*
X7103039Y-12153174D02*
X7112563Y-12143650D01*
X7112563Y-12143650D02*
X7131611Y-12115079D01*
X7131611Y-12115079D02*
X7141134Y-12096031D01*
X7141134Y-12096031D02*
X7150658Y-12067460D01*
X7150658Y-12067460D02*
X7160182Y-12019841D01*
X7160182Y-12019841D02*
X7160182Y-11981746D01*
X7160182Y-11981746D02*
X7150658Y-11934127D01*
X7150658Y-11934127D02*
X7141134Y-11905555D01*
X7141134Y-11905555D02*
X7131611Y-11886508D01*
X7131611Y-11886508D02*
X7112563Y-11857936D01*
X7112563Y-11857936D02*
X7103039Y-11848412D01*
D12*
X2122856Y-12284856D02*
X2122856Y-12214144D01*
X2052144Y-12214144D01*
X2052144Y-12284856D01*
X2122856Y-12284856D01*
D13*
X2503039Y-12340984D02*
X2388753Y-12340984D01*
X2445896Y-12340984D02*
X2445896Y-12140984D01*
X2445896Y-12140984D02*
X2426848Y-12169555D01*
X2426848Y-12169555D02*
X2407801Y-12188603D01*
X2407801Y-12188603D02*
X2388753Y-12198127D01*
X2588753Y-12321936D02*
X2598277Y-12331460D01*
X2598277Y-12331460D02*
X2588753Y-12340984D01*
X2588753Y-12340984D02*
X2579229Y-12331460D01*
X2579229Y-12331460D02*
X2588753Y-12321936D01*
X2588753Y-12321936D02*
X2588753Y-12340984D01*
X2722086Y-12140984D02*
X2741134Y-12140984D01*
X2741134Y-12140984D02*
X2760182Y-12150508D01*
X2760182Y-12150508D02*
X2769705Y-12160031D01*
X2769705Y-12160031D02*
X2779229Y-12179079D01*
X2779229Y-12179079D02*
X2788753Y-12217174D01*
X2788753Y-12217174D02*
X2788753Y-12264793D01*
X2788753Y-12264793D02*
X2779229Y-12302888D01*
X2779229Y-12302888D02*
X2769705Y-12321936D01*
X2769705Y-12321936D02*
X2760182Y-12331460D01*
X2760182Y-12331460D02*
X2741134Y-12340984D01*
X2741134Y-12340984D02*
X2722086Y-12340984D01*
X2722086Y-12340984D02*
X2703039Y-12331460D01*
X2703039Y-12331460D02*
X2693515Y-12321936D01*
X2693515Y-12321936D02*
X2683991Y-12302888D01*
X2683991Y-12302888D02*
X2674467Y-12264793D01*
X2674467Y-12264793D02*
X2674467Y-12217174D01*
X2674467Y-12217174D02*
X2683991Y-12179079D01*
X2683991Y-12179079D02*
X2693515Y-12160031D01*
X2693515Y-12160031D02*
X2703039Y-12150508D01*
X2703039Y-12150508D02*
X2722086Y-12140984D01*
X2912562Y-12140984D02*
X2931610Y-12140984D01*
X2931610Y-12140984D02*
X2950658Y-12150508D01*
X2950658Y-12150508D02*
X2960182Y-12160031D01*
X2960182Y-12160031D02*
X2969705Y-12179079D01*
X2969705Y-12179079D02*
X2979229Y-12217174D01*
X2979229Y-12217174D02*
X2979229Y-12264793D01*
X2979229Y-12264793D02*
X2969705Y-12302888D01*
X2969705Y-12302888D02*
X2960182Y-12321936D01*
X2960182Y-12321936D02*
X2950658Y-12331460D01*
X2950658Y-12331460D02*
X2931610Y-12340984D01*
X2931610Y-12340984D02*
X2912562Y-12340984D01*
X2912562Y-12340984D02*
X2893515Y-12331460D01*
X2893515Y-12331460D02*
X2883991Y-12321936D01*
X2883991Y-12321936D02*
X2874467Y-12302888D01*
X2874467Y-12302888D02*
X2864943Y-12264793D01*
X2864943Y-12264793D02*
X2864943Y-12217174D01*
X2864943Y-12217174D02*
X2874467Y-12179079D01*
X2874467Y-12179079D02*
X2883991Y-12160031D01*
X2883991Y-12160031D02*
X2893515Y-12150508D01*
X2893515Y-12150508D02*
X2912562Y-12140984D01*
X3103039Y-12140984D02*
X3122086Y-12140984D01*
X3122086Y-12140984D02*
X3141134Y-12150508D01*
X3141134Y-12150508D02*
X3150658Y-12160031D01*
X3150658Y-12160031D02*
X3160182Y-12179079D01*
X3160182Y-12179079D02*
X3169705Y-12217174D01*
X3169705Y-12217174D02*
X3169705Y-12264793D01*
X3169705Y-12264793D02*
X3160182Y-12302888D01*
X3160182Y-12302888D02*
X3150658Y-12321936D01*
X3150658Y-12321936D02*
X3141134Y-12331460D01*
X3141134Y-12331460D02*
X3122086Y-12340984D01*
X3122086Y-12340984D02*
X3103039Y-12340984D01*
X3103039Y-12340984D02*
X3083991Y-12331460D01*
X3083991Y-12331460D02*
X3074467Y-12321936D01*
X3074467Y-12321936D02*
X3064943Y-12302888D01*
X3064943Y-12302888D02*
X3055420Y-12264793D01*
X3055420Y-12264793D02*
X3055420Y-12217174D01*
X3055420Y-12217174D02*
X3064943Y-12179079D01*
X3064943Y-12179079D02*
X3074467Y-12160031D01*
X3074467Y-12160031D02*
X3083991Y-12150508D01*
X3083991Y-12150508D02*
X3103039Y-12140984D01*
X3255420Y-12340984D02*
X3255420Y-12207650D01*
X3255420Y-12226698D02*
X3264943Y-12217174D01*
X3264943Y-12217174D02*
X3283991Y-12207650D01*
X3283991Y-12207650D02*
X3312563Y-12207650D01*
X3312563Y-12207650D02*
X3331610Y-12217174D01*
X3331610Y-12217174D02*
X3341134Y-12236222D01*
X3341134Y-12236222D02*
X3341134Y-12340984D01*
X3341134Y-12236222D02*
X3350658Y-12217174D01*
X3350658Y-12217174D02*
X3369705Y-12207650D01*
X3369705Y-12207650D02*
X3398277Y-12207650D01*
X3398277Y-12207650D02*
X3417324Y-12217174D01*
X3417324Y-12217174D02*
X3426848Y-12236222D01*
X3426848Y-12236222D02*
X3426848Y-12340984D01*
X3522086Y-12340984D02*
X3522086Y-12207650D01*
X3522086Y-12226698D02*
X3531610Y-12217174D01*
X3531610Y-12217174D02*
X3550658Y-12207650D01*
X3550658Y-12207650D02*
X3579229Y-12207650D01*
X3579229Y-12207650D02*
X3598277Y-12217174D01*
X3598277Y-12217174D02*
X3607801Y-12236222D01*
X3607801Y-12236222D02*
X3607801Y-12340984D01*
X3607801Y-12236222D02*
X3617324Y-12217174D01*
X3617324Y-12217174D02*
X3636372Y-12207650D01*
X3636372Y-12207650D02*
X3664943Y-12207650D01*
X3664943Y-12207650D02*
X3683991Y-12217174D01*
X3683991Y-12217174D02*
X3693515Y-12236222D01*
X3693515Y-12236222D02*
X3693515Y-12340984D01*
X4083991Y-12131460D02*
X3912563Y-12388603D01*
X4341134Y-12140984D02*
X4360182Y-12140984D01*
X4360182Y-12140984D02*
X4379229Y-12150508D01*
X4379229Y-12150508D02*
X4388753Y-12160031D01*
X4388753Y-12160031D02*
X4398277Y-12179079D01*
X4398277Y-12179079D02*
X4407801Y-12217174D01*
X4407801Y-12217174D02*
X4407801Y-12264793D01*
X4407801Y-12264793D02*
X4398277Y-12302888D01*
X4398277Y-12302888D02*
X4388753Y-12321936D01*
X4388753Y-12321936D02*
X4379229Y-12331460D01*
X4379229Y-12331460D02*
X4360182Y-12340984D01*
X4360182Y-12340984D02*
X4341134Y-12340984D01*
X4341134Y-12340984D02*
X4322087Y-12331460D01*
X4322087Y-12331460D02*
X4312563Y-12321936D01*
X4312563Y-12321936D02*
X4303039Y-12302888D01*
X4303039Y-12302888D02*
X4293515Y-12264793D01*
X4293515Y-12264793D02*
X4293515Y-12217174D01*
X4293515Y-12217174D02*
X4303039Y-12179079D01*
X4303039Y-12179079D02*
X4312563Y-12160031D01*
X4312563Y-12160031D02*
X4322087Y-12150508D01*
X4322087Y-12150508D02*
X4341134Y-12140984D01*
X4493515Y-12321936D02*
X4503039Y-12331460D01*
X4503039Y-12331460D02*
X4493515Y-12340984D01*
X4493515Y-12340984D02*
X4483991Y-12331460D01*
X4483991Y-12331460D02*
X4493515Y-12321936D01*
X4493515Y-12321936D02*
X4493515Y-12340984D01*
X4626848Y-12140984D02*
X4645896Y-12140984D01*
X4645896Y-12140984D02*
X4664944Y-12150508D01*
X4664944Y-12150508D02*
X4674468Y-12160031D01*
X4674468Y-12160031D02*
X4683991Y-12179079D01*
X4683991Y-12179079D02*
X4693515Y-12217174D01*
X4693515Y-12217174D02*
X4693515Y-12264793D01*
X4693515Y-12264793D02*
X4683991Y-12302888D01*
X4683991Y-12302888D02*
X4674468Y-12321936D01*
X4674468Y-12321936D02*
X4664944Y-12331460D01*
X4664944Y-12331460D02*
X4645896Y-12340984D01*
X4645896Y-12340984D02*
X4626848Y-12340984D01*
X4626848Y-12340984D02*
X4607801Y-12331460D01*
X4607801Y-12331460D02*
X4598277Y-12321936D01*
X4598277Y-12321936D02*
X4588753Y-12302888D01*
X4588753Y-12302888D02*
X4579229Y-12264793D01*
X4579229Y-12264793D02*
X4579229Y-12217174D01*
X4579229Y-12217174D02*
X4588753Y-12179079D01*
X4588753Y-12179079D02*
X4598277Y-12160031D01*
X4598277Y-12160031D02*
X4607801Y-12150508D01*
X4607801Y-12150508D02*
X4626848Y-12140984D01*
X4760182Y-12140984D02*
X4883991Y-12140984D01*
X4883991Y-12140984D02*
X4817325Y-12217174D01*
X4817325Y-12217174D02*
X4845896Y-12217174D01*
X4845896Y-12217174D02*
X4864944Y-12226698D01*
X4864944Y-12226698D02*
X4874468Y-12236222D01*
X4874468Y-12236222D02*
X4883991Y-12255269D01*
X4883991Y-12255269D02*
X4883991Y-12302888D01*
X4883991Y-12302888D02*
X4874468Y-12321936D01*
X4874468Y-12321936D02*
X4864944Y-12331460D01*
X4864944Y-12331460D02*
X4845896Y-12340984D01*
X4845896Y-12340984D02*
X4788753Y-12340984D01*
X4788753Y-12340984D02*
X4769706Y-12331460D01*
X4769706Y-12331460D02*
X4760182Y-12321936D01*
X4979229Y-12340984D02*
X5017325Y-12340984D01*
X5017325Y-12340984D02*
X5036372Y-12331460D01*
X5036372Y-12331460D02*
X5045896Y-12321936D01*
X5045896Y-12321936D02*
X5064944Y-12293365D01*
X5064944Y-12293365D02*
X5074468Y-12255269D01*
X5074468Y-12255269D02*
X5074468Y-12179079D01*
X5074468Y-12179079D02*
X5064944Y-12160031D01*
X5064944Y-12160031D02*
X5055420Y-12150508D01*
X5055420Y-12150508D02*
X5036372Y-12140984D01*
X5036372Y-12140984D02*
X4998277Y-12140984D01*
X4998277Y-12140984D02*
X4979229Y-12150508D01*
X4979229Y-12150508D02*
X4969706Y-12160031D01*
X4969706Y-12160031D02*
X4960182Y-12179079D01*
X4960182Y-12179079D02*
X4960182Y-12226698D01*
X4960182Y-12226698D02*
X4969706Y-12245746D01*
X4969706Y-12245746D02*
X4979229Y-12255269D01*
X4979229Y-12255269D02*
X4998277Y-12264793D01*
X4998277Y-12264793D02*
X5036372Y-12264793D01*
X5036372Y-12264793D02*
X5055420Y-12255269D01*
X5055420Y-12255269D02*
X5064944Y-12245746D01*
X5064944Y-12245746D02*
X5074468Y-12226698D01*
X5245896Y-12207650D02*
X5245896Y-12340984D01*
X5198277Y-12131460D02*
X5150658Y-12274317D01*
X5150658Y-12274317D02*
X5274468Y-12274317D01*
X5341134Y-12140984D02*
X5341134Y-12179079D01*
X5417325Y-12140984D02*
X5417325Y-12179079D01*
X5712563Y-12417174D02*
X5703039Y-12407650D01*
X5703039Y-12407650D02*
X5683991Y-12379079D01*
X5683991Y-12379079D02*
X5674468Y-12360031D01*
X5674468Y-12360031D02*
X5664944Y-12331460D01*
X5664944Y-12331460D02*
X5655420Y-12283841D01*
X5655420Y-12283841D02*
X5655420Y-12245746D01*
X5655420Y-12245746D02*
X5664944Y-12198127D01*
X5664944Y-12198127D02*
X5674468Y-12169555D01*
X5674468Y-12169555D02*
X5683991Y-12150508D01*
X5683991Y-12150508D02*
X5703039Y-12121936D01*
X5703039Y-12121936D02*
X5712563Y-12112412D01*
X5874468Y-12207650D02*
X5874468Y-12340984D01*
X5826848Y-12131460D02*
X5779229Y-12274317D01*
X5779229Y-12274317D02*
X5903039Y-12274317D01*
X6007801Y-12226698D02*
X5988753Y-12217174D01*
X5988753Y-12217174D02*
X5979229Y-12207650D01*
X5979229Y-12207650D02*
X5969706Y-12188603D01*
X5969706Y-12188603D02*
X5969706Y-12179079D01*
X5969706Y-12179079D02*
X5979229Y-12160031D01*
X5979229Y-12160031D02*
X5988753Y-12150508D01*
X5988753Y-12150508D02*
X6007801Y-12140984D01*
X6007801Y-12140984D02*
X6045896Y-12140984D01*
X6045896Y-12140984D02*
X6064944Y-12150508D01*
X6064944Y-12150508D02*
X6074468Y-12160031D01*
X6074468Y-12160031D02*
X6083991Y-12179079D01*
X6083991Y-12179079D02*
X6083991Y-12188603D01*
X6083991Y-12188603D02*
X6074468Y-12207650D01*
X6074468Y-12207650D02*
X6064944Y-12217174D01*
X6064944Y-12217174D02*
X6045896Y-12226698D01*
X6045896Y-12226698D02*
X6007801Y-12226698D01*
X6007801Y-12226698D02*
X5988753Y-12236222D01*
X5988753Y-12236222D02*
X5979229Y-12245746D01*
X5979229Y-12245746D02*
X5969706Y-12264793D01*
X5969706Y-12264793D02*
X5969706Y-12302888D01*
X5969706Y-12302888D02*
X5979229Y-12321936D01*
X5979229Y-12321936D02*
X5988753Y-12331460D01*
X5988753Y-12331460D02*
X6007801Y-12340984D01*
X6007801Y-12340984D02*
X6045896Y-12340984D01*
X6045896Y-12340984D02*
X6064944Y-12331460D01*
X6064944Y-12331460D02*
X6074468Y-12321936D01*
X6074468Y-12321936D02*
X6083991Y-12302888D01*
X6083991Y-12302888D02*
X6083991Y-12264793D01*
X6083991Y-12264793D02*
X6074468Y-12245746D01*
X6074468Y-12245746D02*
X6064944Y-12236222D01*
X6064944Y-12236222D02*
X6045896Y-12226698D01*
X6322087Y-12340984D02*
X6322087Y-12140984D01*
X6407801Y-12340984D02*
X6407801Y-12236222D01*
X6407801Y-12236222D02*
X6398277Y-12217174D01*
X6398277Y-12217174D02*
X6379230Y-12207650D01*
X6379230Y-12207650D02*
X6350658Y-12207650D01*
X6350658Y-12207650D02*
X6331610Y-12217174D01*
X6331610Y-12217174D02*
X6322087Y-12226698D01*
X6531610Y-12340984D02*
X6512563Y-12331460D01*
X6512563Y-12331460D02*
X6503039Y-12321936D01*
X6503039Y-12321936D02*
X6493515Y-12302888D01*
X6493515Y-12302888D02*
X6493515Y-12245746D01*
X6493515Y-12245746D02*
X6503039Y-12226698D01*
X6503039Y-12226698D02*
X6512563Y-12217174D01*
X6512563Y-12217174D02*
X6531610Y-12207650D01*
X6531610Y-12207650D02*
X6560182Y-12207650D01*
X6560182Y-12207650D02*
X6579230Y-12217174D01*
X6579230Y-12217174D02*
X6588753Y-12226698D01*
X6588753Y-12226698D02*
X6598277Y-12245746D01*
X6598277Y-12245746D02*
X6598277Y-12302888D01*
X6598277Y-12302888D02*
X6588753Y-12321936D01*
X6588753Y-12321936D02*
X6579230Y-12331460D01*
X6579230Y-12331460D02*
X6560182Y-12340984D01*
X6560182Y-12340984D02*
X6531610Y-12340984D01*
X6712563Y-12340984D02*
X6693515Y-12331460D01*
X6693515Y-12331460D02*
X6683991Y-12312412D01*
X6683991Y-12312412D02*
X6683991Y-12140984D01*
X6864944Y-12331460D02*
X6845896Y-12340984D01*
X6845896Y-12340984D02*
X6807801Y-12340984D01*
X6807801Y-12340984D02*
X6788753Y-12331460D01*
X6788753Y-12331460D02*
X6779230Y-12312412D01*
X6779230Y-12312412D02*
X6779230Y-12236222D01*
X6779230Y-12236222D02*
X6788753Y-12217174D01*
X6788753Y-12217174D02*
X6807801Y-12207650D01*
X6807801Y-12207650D02*
X6845896Y-12207650D01*
X6845896Y-12207650D02*
X6864944Y-12217174D01*
X6864944Y-12217174D02*
X6874468Y-12236222D01*
X6874468Y-12236222D02*
X6874468Y-12255269D01*
X6874468Y-12255269D02*
X6779230Y-12274317D01*
X6950658Y-12331460D02*
X6969706Y-12340984D01*
X6969706Y-12340984D02*
X7007801Y-12340984D01*
X7007801Y-12340984D02*
X7026849Y-12331460D01*
X7026849Y-12331460D02*
X7036372Y-12312412D01*
X7036372Y-12312412D02*
X7036372Y-12302888D01*
X7036372Y-12302888D02*
X7026849Y-12283841D01*
X7026849Y-12283841D02*
X7007801Y-12274317D01*
X7007801Y-12274317D02*
X6979230Y-12274317D01*
X6979230Y-12274317D02*
X6960182Y-12264793D01*
X6960182Y-12264793D02*
X6950658Y-12245746D01*
X6950658Y-12245746D02*
X6950658Y-12236222D01*
X6950658Y-12236222D02*
X6960182Y-12217174D01*
X6960182Y-12217174D02*
X6979230Y-12207650D01*
X6979230Y-12207650D02*
X7007801Y-12207650D01*
X7007801Y-12207650D02*
X7026849Y-12217174D01*
X7103039Y-12417174D02*
X7112563Y-12407650D01*
X7112563Y-12407650D02*
X7131611Y-12379079D01*
X7131611Y-12379079D02*
X7141134Y-12360031D01*
X7141134Y-12360031D02*
X7150658Y-12331460D01*
X7150658Y-12331460D02*
X7160182Y-12283841D01*
X7160182Y-12283841D02*
X7160182Y-12245746D01*
X7160182Y-12245746D02*
X7150658Y-12198127D01*
X7150658Y-12198127D02*
X7141134Y-12169555D01*
X7141134Y-12169555D02*
X7131611Y-12150508D01*
X7131611Y-12150508D02*
X7112563Y-12121936D01*
X7112563Y-12121936D02*
X7103039Y-12112412D01*
M02*
