G04 #@! TF.GenerationSoftware,KiCad,Pcbnew,9.0.0*
G04 #@! TF.CreationDate,2025-03-20T15:23:17+09:00*
G04 #@! TF.ProjectId,nofy,6e6f6679-2e6b-4696-9361-645f70636258,rev?*
G04 #@! TF.SameCoordinates,Original*
G04 #@! TF.FileFunction,Copper,L1,Top*
G04 #@! TF.FilePolarity,Positive*
%FSLAX46Y46*%
G04 Gerber Fmt 4.6, Leading zero omitted, Abs format (unit mm)*
G04 Created by KiCad (PCBNEW 9.0.0) date 2025-03-20 15:23:17*
%MOMM*%
%LPD*%
G01*
G04 APERTURE LIST*
G04 #@! TA.AperFunction,ComponentPad*
%ADD10C,1.700000*%
G04 #@! TD*
G04 #@! TA.AperFunction,ComponentPad*
%ADD11O,1.700000X1.700000*%
G04 #@! TD*
G04 #@! TA.AperFunction,ComponentPad*
%ADD12O,2.750000X1.800000*%
G04 #@! TD*
G04 #@! TA.AperFunction,ComponentPad*
%ADD13C,1.500000*%
G04 #@! TD*
G04 #@! TA.AperFunction,ComponentPad*
%ADD14O,1.300000X1.000000*%
G04 #@! TD*
G04 #@! TA.AperFunction,SMDPad,CuDef*
%ADD15R,1.000000X3.500000*%
G04 #@! TD*
G04 #@! TA.AperFunction,SMDPad,CuDef*
%ADD16R,1.500000X3.400000*%
G04 #@! TD*
G04 #@! TA.AperFunction,ViaPad*
%ADD17C,0.600000*%
G04 #@! TD*
G04 #@! TA.AperFunction,Conductor*
%ADD18C,0.350000*%
G04 #@! TD*
G04 #@! TA.AperFunction,Conductor*
%ADD19C,0.200000*%
G04 #@! TD*
G04 #@! TA.AperFunction,Conductor*
%ADD20C,0.330000*%
G04 #@! TD*
G04 APERTURE END LIST*
D10*
X22685000Y-81485000D03*
D11*
X22685000Y-78945000D03*
X22685000Y-76405000D03*
X22685000Y-73865000D03*
D12*
X54005000Y-103065000D03*
X54005000Y-100525000D03*
X54005000Y-97985000D03*
X54005000Y-95445000D03*
X54005000Y-92905000D03*
X54005000Y-90365000D03*
X54005000Y-87825000D03*
X37765000Y-87825000D03*
X37765000Y-90365000D03*
X37765000Y-92905000D03*
X37765000Y-95445000D03*
X37765000Y-97985000D03*
X37765000Y-100525000D03*
X37765000Y-103065000D03*
D13*
X42049600Y-86133000D03*
X40170000Y-86133000D03*
X50330000Y-95762000D03*
X50330000Y-97667000D03*
D14*
X33585000Y-105595000D03*
X31085000Y-105595000D03*
X28585000Y-105595000D03*
D10*
X22703600Y-41076100D03*
D11*
X22703600Y-43616100D03*
X22703600Y-46156100D03*
X22703600Y-48696100D03*
D10*
X56685000Y-73745000D03*
D11*
X56685000Y-71205000D03*
X56685000Y-68665000D03*
X56685000Y-66125000D03*
D15*
X31196400Y-41832100D03*
X29196400Y-41832100D03*
D16*
X26846400Y-47582100D03*
X33546400Y-47582100D03*
D10*
X22685000Y-98545000D03*
D11*
X22685000Y-96005000D03*
X22685000Y-93465000D03*
X22685000Y-90925000D03*
D10*
X79860000Y-56603600D03*
D11*
X82400000Y-56603600D03*
X84940000Y-56603600D03*
X87480000Y-56603600D03*
D10*
X56703600Y-34071100D03*
D11*
X56703600Y-36611100D03*
X56703600Y-39151100D03*
X56703600Y-41691100D03*
D10*
X86150000Y-66253600D03*
D11*
X88690000Y-66253600D03*
X91230000Y-66253600D03*
X93770000Y-66253600D03*
D15*
X29100000Y-80625000D03*
X31100000Y-80625000D03*
D16*
X33450000Y-74875000D03*
X26750000Y-74875000D03*
D10*
X22703600Y-25931100D03*
D11*
X22703600Y-28471100D03*
X22703600Y-31011100D03*
X22703600Y-33551100D03*
D12*
X37783600Y-29631100D03*
X37783600Y-32171100D03*
X37783600Y-34711100D03*
X37783600Y-37251100D03*
X37783600Y-39791100D03*
X37783600Y-42331100D03*
X37783600Y-44871100D03*
X54023600Y-44871100D03*
X54023600Y-42331100D03*
X54023600Y-39791100D03*
X54023600Y-37251100D03*
X54023600Y-34711100D03*
X54023600Y-32171100D03*
X54023600Y-29631100D03*
D13*
X49739000Y-46563100D03*
X51618600Y-46563100D03*
X41458600Y-36934100D03*
X41458600Y-35029100D03*
D14*
X28403600Y-27121100D03*
X30903600Y-27121100D03*
X33403600Y-27121100D03*
D10*
X56703600Y-49131100D03*
D11*
X56703600Y-51671100D03*
X56703600Y-54211100D03*
X56703600Y-56751100D03*
D10*
X56685000Y-90445000D03*
D11*
X56685000Y-87905000D03*
X56685000Y-85365000D03*
X56685000Y-82825000D03*
D17*
X50380700Y-91958400D03*
X31119798Y-82965202D03*
X29200000Y-39400000D03*
X72660200Y-68261600D03*
X70363100Y-68261600D03*
X84536000Y-80597300D03*
X78750000Y-80597300D03*
X92827000Y-44814900D03*
X83876700Y-44814900D03*
X35952900Y-43775700D03*
X35952900Y-47526900D03*
X40116500Y-47526900D03*
X34223200Y-103710400D03*
X28585000Y-103710400D03*
X28585000Y-96005000D03*
X40116500Y-27495100D03*
X72761400Y-71247600D03*
X87420000Y-71414700D03*
X106971600Y-66253600D03*
X78891600Y-51014000D03*
X67131100Y-51014000D03*
X78891600Y-55451900D03*
X84950000Y-53166100D03*
X83250000Y-49800000D03*
X97700000Y-51161800D03*
X87480000Y-51161800D03*
X78690200Y-65820800D03*
X96202700Y-68208100D03*
X77467400Y-68864000D03*
X86150000Y-68208100D03*
X66800000Y-67000000D03*
X90848300Y-55300000D03*
X107100000Y-56413200D03*
X79860000Y-54424200D03*
X52346900Y-33418800D03*
X51098900Y-38521100D03*
X51098900Y-35822000D03*
X51741800Y-37251100D03*
X51741800Y-41061100D03*
X49700000Y-56750000D03*
X56703600Y-43622900D03*
X51119100Y-39791100D03*
X51119100Y-43622900D03*
X53523600Y-53451100D03*
X55927500Y-42877200D03*
X55143700Y-51996600D03*
X22703600Y-37251100D03*
X51618600Y-48550000D03*
X34151100Y-42331100D03*
X34151100Y-44452400D03*
X22703600Y-38640600D03*
X30401700Y-97070500D03*
X30401700Y-93465000D03*
X24226550Y-77444387D03*
X24233700Y-86034200D03*
X27647200Y-83750000D03*
X27650000Y-90357100D03*
X24855800Y-75400000D03*
X24855800Y-77938400D03*
X42049600Y-77938400D03*
X51855000Y-97985000D03*
X55295800Y-85739100D03*
X49705700Y-92400000D03*
X49704000Y-85739100D03*
X51855000Y-94300000D03*
X48903997Y-92600000D03*
X48950000Y-82850000D03*
X40170000Y-77147900D03*
X46081900Y-77147900D03*
X46081900Y-65790300D03*
X52328300Y-68650000D03*
X51630000Y-71223700D03*
X51630000Y-89000000D03*
X50850000Y-74185800D03*
X52126800Y-92905000D03*
D18*
X42293100Y-83700000D02*
X30900000Y-83700000D01*
X30900000Y-83700000D02*
X29100000Y-81900000D01*
X29100000Y-81900000D02*
X29100000Y-80625000D01*
X50380700Y-91958400D02*
X50380700Y-91787600D01*
X50380700Y-91787600D02*
X42293100Y-83700000D01*
D19*
X31100000Y-82945404D02*
X31100000Y-80625000D01*
X31119798Y-82965202D02*
X31100000Y-82945404D01*
X29196400Y-39403600D02*
X29196400Y-41832100D01*
X29200000Y-39400000D02*
X29196400Y-39403600D01*
X70363100Y-68261600D02*
X72660200Y-68261600D01*
X84536000Y-80597300D02*
X78750000Y-80597300D01*
X92827000Y-44814900D02*
X83876700Y-44814900D01*
D18*
X40116500Y-47526900D02*
X35952900Y-47526900D01*
X33140000Y-43775700D02*
X35952900Y-43775700D01*
X31196400Y-41832100D02*
X33140000Y-43775700D01*
X22685000Y-96005000D02*
X28585000Y-96005000D01*
X50330000Y-98056400D02*
X47861400Y-100525000D01*
X34223200Y-103710400D02*
X28585000Y-103710400D01*
X50330000Y-97667000D02*
X50330000Y-98056400D01*
X47861400Y-100525000D02*
X38265000Y-100525000D01*
D20*
X56703600Y-36611100D02*
X56673116Y-36611100D01*
X56046774Y-35984758D02*
X51892151Y-35984758D01*
D18*
X52271900Y-32171100D02*
X53523600Y-32171100D01*
X47750000Y-34392900D02*
X49426500Y-32716400D01*
X41458600Y-35029100D02*
X41458600Y-34651000D01*
X51378909Y-36498000D02*
X49821000Y-36498000D01*
X49821000Y-36498000D02*
X49073000Y-35750000D01*
D19*
X47792900Y-34392900D02*
X47750000Y-34392900D01*
D20*
X56673116Y-36611100D02*
X56046774Y-35984758D01*
D19*
X49073000Y-35750000D02*
X49073000Y-35715900D01*
D18*
X34430300Y-27121100D02*
X34804300Y-27495100D01*
X51876909Y-36000000D02*
X51378909Y-36498000D01*
X49073000Y-35715900D02*
X47750000Y-34392900D01*
X51726600Y-32716400D02*
X52271900Y-32171100D01*
X49426500Y-32716400D02*
X51726600Y-32716400D01*
X41458600Y-34651000D02*
X41716700Y-34392900D01*
X33403600Y-27121100D02*
X34430300Y-27121100D01*
X41716700Y-34392900D02*
X47750000Y-34392900D01*
X34804300Y-27495100D02*
X40116500Y-27495100D01*
D20*
X51892151Y-35984758D02*
X51876909Y-36000000D01*
D19*
X72761400Y-71247600D02*
X72928500Y-71414700D01*
X72928500Y-71414700D02*
X87420000Y-71414700D01*
X93770000Y-66253600D02*
X106971600Y-66253600D01*
X78891600Y-51014000D02*
X67131100Y-51014000D01*
X81248300Y-55451900D02*
X78891600Y-55451900D01*
X82400000Y-56603600D02*
X81248300Y-55451900D01*
X84950000Y-50700000D02*
X84950000Y-53166100D01*
X83250000Y-49800000D02*
X84050000Y-49800000D01*
X84050000Y-49800000D02*
X84950000Y-50700000D01*
X97700000Y-51161800D02*
X87480000Y-51161800D01*
X86150000Y-66253600D02*
X79123000Y-66253600D01*
X79123000Y-66253600D02*
X78690200Y-65820800D01*
X77467400Y-68864000D02*
X68664000Y-68864000D01*
X96202700Y-68208100D02*
X86150000Y-68208100D01*
X68664000Y-68864000D02*
X66800000Y-67000000D01*
X95060200Y-55300000D02*
X90848300Y-55300000D01*
X89972500Y-54424200D02*
X79860000Y-54424200D01*
X107100000Y-56413200D02*
X101013200Y-56413200D01*
X90848300Y-55300000D02*
X89972500Y-54424200D01*
X101013200Y-56413200D02*
X98901900Y-54301900D01*
X79860000Y-56603600D02*
X79669600Y-56413200D01*
X96058300Y-54301900D02*
X95060200Y-55300000D01*
X98901900Y-54301900D02*
X96058300Y-54301900D01*
X56051300Y-33418800D02*
X52346900Y-33418800D01*
X56703600Y-34071100D02*
X56051300Y-33418800D01*
X52346900Y-34711100D02*
X51236000Y-35822000D01*
X53523600Y-34711100D02*
X52346900Y-34711100D01*
X51098900Y-38521100D02*
X56073600Y-38521100D01*
X56073600Y-38521100D02*
X56703600Y-39151100D01*
X51236000Y-35822000D02*
X51098900Y-35822000D01*
X56703600Y-41691100D02*
X56073600Y-41061100D01*
X53523600Y-37251100D02*
X52346900Y-37251100D01*
X56073600Y-41061100D02*
X51741800Y-41061100D01*
X52346900Y-37251100D02*
X51741800Y-37251100D01*
X50086800Y-56750000D02*
X50087900Y-56751100D01*
X50087900Y-56751100D02*
X56703600Y-56751100D01*
X49700000Y-56750000D02*
X50086800Y-56750000D01*
X51119100Y-43622900D02*
X56703600Y-43622900D01*
X52346900Y-39791100D02*
X51119100Y-39791100D01*
X53523600Y-39791100D02*
X52346900Y-39791100D01*
X55551900Y-54211100D02*
X54791900Y-53451100D01*
X56703600Y-54211100D02*
X55551900Y-54211100D01*
X54791900Y-53451100D02*
X53523600Y-53451100D01*
X55226400Y-51996600D02*
X55143700Y-51996600D01*
X56703600Y-51671100D02*
X55551900Y-51671100D01*
X53523600Y-42331100D02*
X55381400Y-42331100D01*
X55381400Y-42331100D02*
X55927500Y-42877200D01*
X55551900Y-51671100D02*
X55226400Y-51996600D01*
X38283600Y-32171100D02*
X26871100Y-32171100D01*
X23171100Y-28471100D02*
X22703600Y-28471100D01*
X26871100Y-32171100D02*
X23171100Y-28471100D01*
X26981100Y-29631100D02*
X23426000Y-26076000D01*
X38283600Y-29631100D02*
X26981100Y-29631100D01*
X23426000Y-26076000D02*
X22848500Y-26076000D01*
X22848500Y-26076000D02*
X22703600Y-25931100D01*
X23111100Y-31011100D02*
X22703600Y-31011100D01*
X26800000Y-34700000D02*
X23111100Y-31011100D01*
X38272500Y-34700000D02*
X26800000Y-34700000D01*
X38283600Y-34711100D02*
X38272500Y-34700000D01*
X38283600Y-37251100D02*
X22703600Y-37251100D01*
X22703600Y-48696100D02*
X24307500Y-50300000D01*
X49868600Y-50300000D02*
X51618600Y-48550000D01*
X24307500Y-50300000D02*
X49868600Y-50300000D01*
X38283600Y-44871100D02*
X38100600Y-45054100D01*
X24904000Y-45054100D02*
X23802000Y-46156100D01*
X38100600Y-45054100D02*
X24904000Y-45054100D01*
X23802000Y-46156100D02*
X22703600Y-46156100D01*
X34151100Y-44452400D02*
X24691600Y-44452400D01*
X38283600Y-42331100D02*
X34151100Y-42331100D01*
X24691600Y-44452400D02*
X23855300Y-43616100D01*
X22703600Y-43616100D02*
X23855300Y-43616100D01*
X34956400Y-38640600D02*
X22703600Y-38640600D01*
X38283600Y-39791100D02*
X36106900Y-39791100D01*
X36106900Y-39791100D02*
X34956400Y-38640600D01*
X22685000Y-93465000D02*
X30401700Y-93465000D01*
X38265000Y-97985000D02*
X31316200Y-97985000D01*
X31316200Y-97985000D02*
X30401700Y-97070500D01*
X22685000Y-90925000D02*
X23175000Y-90925000D01*
X33700000Y-91750000D02*
X37395000Y-95445000D01*
X37395000Y-95445000D02*
X38265000Y-95445000D01*
X23175000Y-90925000D02*
X24000000Y-91750000D01*
X24000000Y-91750000D02*
X33700000Y-91750000D01*
X29513600Y-98700000D02*
X22840000Y-98700000D01*
X33878600Y-103065000D02*
X29513600Y-98700000D01*
X38265000Y-103065000D02*
X33878600Y-103065000D01*
X22840000Y-98700000D02*
X22685000Y-98545000D01*
X23105000Y-76405000D02*
X22685000Y-76405000D01*
X24002137Y-77302137D02*
X23105000Y-76405000D01*
X24226550Y-77444387D02*
X24084300Y-77302137D01*
X24084300Y-77302137D02*
X24002137Y-77302137D01*
X38240000Y-87850000D02*
X26049500Y-87850000D01*
X38265000Y-87825000D02*
X38240000Y-87850000D01*
X26049500Y-87850000D02*
X24233700Y-86034200D01*
X38265000Y-92905000D02*
X37105000Y-92905000D01*
X35157100Y-90957100D02*
X26157100Y-90957100D01*
X22700000Y-81500000D02*
X22685000Y-81485000D01*
X22685000Y-87485000D02*
X22685000Y-81485000D01*
X26157100Y-90957100D02*
X22685000Y-87485000D01*
X37105000Y-92905000D02*
X35157100Y-90957100D01*
X38257100Y-90357100D02*
X38265000Y-90365000D01*
X22842200Y-78945000D02*
X22685000Y-78945000D01*
X27650000Y-90357100D02*
X38257100Y-90357100D01*
X27647200Y-83750000D02*
X22842200Y-78945000D01*
X24855800Y-75400000D02*
X23320800Y-73865000D01*
X23320800Y-73865000D02*
X22685000Y-73865000D01*
X24855800Y-77938400D02*
X42049600Y-77938400D01*
X51650000Y-94300000D02*
X51299100Y-93949100D01*
X51299100Y-93949100D02*
X49750000Y-92400000D01*
X55295800Y-85739100D02*
X49704000Y-85739100D01*
X49750000Y-92400000D02*
X49705700Y-92400000D01*
X51855000Y-94300000D02*
X51650000Y-94300000D01*
X53505000Y-97985000D02*
X51855000Y-97985000D01*
X49200100Y-82825000D02*
X56685000Y-82825000D01*
X49175100Y-82850000D02*
X49200100Y-82825000D01*
X48903997Y-92600000D02*
X51748997Y-95445000D01*
X51748997Y-95445000D02*
X53505000Y-95445000D01*
X48950000Y-82850000D02*
X49175100Y-82850000D01*
X46081900Y-77147900D02*
X40170000Y-77147900D01*
X46081900Y-65790300D02*
X55198600Y-65790300D01*
X55198600Y-65790300D02*
X55533300Y-66125000D01*
X56685000Y-66125000D02*
X55533300Y-66125000D01*
X52328300Y-68650000D02*
X56670000Y-68650000D01*
X56670000Y-68650000D02*
X56685000Y-68665000D01*
X51630000Y-89000000D02*
X51630000Y-89030000D01*
X51630000Y-89030000D02*
X52965000Y-90365000D01*
X52965000Y-90365000D02*
X53505000Y-90365000D01*
X55514600Y-71223700D02*
X51630000Y-71223700D01*
X56685000Y-71205000D02*
X55533300Y-71205000D01*
X55533300Y-71205000D02*
X55514600Y-71223700D01*
X50850000Y-74185800D02*
X56244200Y-74185800D01*
X56244200Y-74185800D02*
X56685000Y-73745000D01*
X53505000Y-92905000D02*
X52126800Y-92905000D01*
M02*
