G04 #@! TF.GenerationSoftware,KiCad,Pcbnew,9.0.0*
G04 #@! TF.CreationDate,2025-03-30T22:48:21+09:00*
G04 #@! TF.ProjectId,nofy,6e6f6679-2e6b-4696-9361-645f70636258,rev?*
G04 #@! TF.SameCoordinates,Original*
G04 #@! TF.FileFunction,Soldermask,Top*
G04 #@! TF.FilePolarity,Negative*
%FSLAX46Y46*%
G04 Gerber Fmt 4.6, Leading zero omitted, Abs format (unit mm)*
G04 Created by KiCad (PCBNEW 9.0.0) date 2025-03-30 22:48:21*
%MOMM*%
%LPD*%
G01*
G04 APERTURE LIST*
G04 Aperture macros list*
%AMRoundRect*
0 Rectangle with rounded corners*
0 $1 Rounding radius*
0 $2 $3 $4 $5 $6 $7 $8 $9 X,Y pos of 4 corners*
0 Add a 4 corners polygon primitive as box body*
4,1,4,$2,$3,$4,$5,$6,$7,$8,$9,$2,$3,0*
0 Add four circle primitives for the rounded corners*
1,1,$1+$1,$2,$3*
1,1,$1+$1,$4,$5*
1,1,$1+$1,$6,$7*
1,1,$1+$1,$8,$9*
0 Add four rect primitives between the rounded corners*
20,1,$1+$1,$2,$3,$4,$5,0*
20,1,$1+$1,$4,$5,$6,$7,0*
20,1,$1+$1,$6,$7,$8,$9,0*
20,1,$1+$1,$8,$9,$2,$3,0*%
G04 Aperture macros list end*
%ADD10C,1.700000*%
%ADD11O,1.700000X1.700000*%
%ADD12C,3.000000*%
%ADD13C,4.800000*%
%ADD14C,1.000000*%
%ADD15O,2.750000X1.800000*%
%ADD16C,1.500000*%
%ADD17O,1.300000X1.000000*%
%ADD18C,2.200000*%
%ADD19RoundRect,0.102000X0.500000X1.750000X-0.500000X1.750000X-0.500000X-1.750000X0.500000X-1.750000X0*%
%ADD20RoundRect,0.102000X0.750000X1.700000X-0.750000X1.700000X-0.750000X-1.700000X0.750000X-1.700000X0*%
%ADD21RoundRect,0.102000X-0.500000X-1.750000X0.500000X-1.750000X0.500000X1.750000X-0.500000X1.750000X0*%
%ADD22RoundRect,0.102000X-0.750000X-1.700000X0.750000X-1.700000X0.750000X1.700000X-0.750000X1.700000X0*%
%ADD23C,0.600000*%
G04 APERTURE END LIST*
D10*
X23585000Y-83785000D03*
D11*
X23585000Y-81245000D03*
X23585000Y-78705000D03*
X23585000Y-76165000D03*
D12*
X63750000Y-63053600D03*
D13*
X67450000Y-68053600D03*
D12*
X61550000Y-68053600D03*
D14*
X73000000Y-73053600D03*
D12*
X80750000Y-63053600D03*
D13*
X84450000Y-68053600D03*
D12*
X78550000Y-68053600D03*
D14*
X90000000Y-73053600D03*
D15*
X54905000Y-105365000D03*
X54905000Y-102825000D03*
X54905000Y-100285000D03*
X54905000Y-97745000D03*
X54905000Y-95205000D03*
X54905000Y-92665000D03*
X54905000Y-90125000D03*
X38665000Y-90125000D03*
X38665000Y-92665000D03*
X38665000Y-95205000D03*
X38665000Y-97745000D03*
X38665000Y-100285000D03*
X38665000Y-102825000D03*
X38665000Y-105365000D03*
D16*
X42949600Y-88433000D03*
X41070000Y-88433000D03*
X51230000Y-98062000D03*
X51230000Y-99967000D03*
D17*
X34485000Y-107895000D03*
X31985000Y-107895000D03*
X29485000Y-107895000D03*
D18*
X75950000Y-60100000D03*
D12*
X97750000Y-63053600D03*
D13*
X101450000Y-68053600D03*
D12*
X95550000Y-68053600D03*
D14*
X107000000Y-73053600D03*
D10*
X23603600Y-49776100D03*
D11*
X23603600Y-52316100D03*
X23603600Y-54856100D03*
X23603600Y-57396100D03*
D10*
X57585000Y-76045000D03*
D11*
X57585000Y-73505000D03*
X57585000Y-70965000D03*
X57585000Y-68425000D03*
D18*
X97700000Y-56250000D03*
D12*
X109900000Y-53303600D03*
D13*
X106200000Y-48303600D03*
D12*
X112100000Y-48303600D03*
D14*
X100650000Y-43303600D03*
D19*
X32096400Y-50532100D03*
X30096400Y-50532100D03*
D20*
X27746400Y-56282100D03*
X34446400Y-56282100D03*
D10*
X23585000Y-100845000D03*
D11*
X23585000Y-98305000D03*
X23585000Y-95765000D03*
X23585000Y-93225000D03*
D10*
X79860000Y-56603600D03*
D11*
X82400000Y-56603600D03*
X84940000Y-56603600D03*
X87480000Y-56603600D03*
D18*
X33350000Y-101350000D03*
D10*
X57603600Y-42771100D03*
D11*
X57603600Y-45311100D03*
X57603600Y-47851100D03*
X57603600Y-50391100D03*
D10*
X85950000Y-59753600D03*
D11*
X88490000Y-59753600D03*
X91030000Y-59753600D03*
X93570000Y-59753600D03*
D21*
X30000000Y-82925000D03*
X32000000Y-82925000D03*
D22*
X34350000Y-77175000D03*
X27650000Y-77175000D03*
D10*
X23603600Y-34631100D03*
D11*
X23603600Y-37171100D03*
X23603600Y-39711100D03*
X23603600Y-42251100D03*
D15*
X38683600Y-38331100D03*
X38683600Y-40871100D03*
X38683600Y-43411100D03*
X38683600Y-45951100D03*
X38683600Y-48491100D03*
X38683600Y-51031100D03*
X38683600Y-53571100D03*
X54923600Y-53571100D03*
X54923600Y-51031100D03*
X54923600Y-48491100D03*
X54923600Y-45951100D03*
X54923600Y-43411100D03*
X54923600Y-40871100D03*
X54923600Y-38331100D03*
D16*
X50639000Y-55263100D03*
X52518600Y-55263100D03*
X42358600Y-45634100D03*
X42358600Y-43729100D03*
D17*
X29303600Y-35821100D03*
X31803600Y-35821100D03*
X34303600Y-35821100D03*
D10*
X57603600Y-57831100D03*
D11*
X57603600Y-60371100D03*
X57603600Y-62911100D03*
X57603600Y-65451100D03*
D18*
X31550000Y-41950000D03*
X41000000Y-74350000D03*
X46650000Y-62850000D03*
D12*
X75900000Y-53303600D03*
D13*
X72200000Y-48303600D03*
D12*
X78100000Y-48303600D03*
D14*
X66650000Y-43303600D03*
D12*
X92900000Y-53303600D03*
D13*
X89200000Y-48303600D03*
D12*
X95100000Y-48303600D03*
D14*
X83650000Y-43303600D03*
D10*
X57585000Y-92745000D03*
D11*
X57585000Y-90205000D03*
X57585000Y-87665000D03*
X57585000Y-85125000D03*
D23*
X51280700Y-94258400D03*
X32019798Y-85265202D03*
X30100000Y-48100000D03*
X72460200Y-61761600D03*
X70163100Y-61761600D03*
X84336000Y-74097300D03*
X78550000Y-74097300D03*
X92827000Y-44814900D03*
X83876700Y-44814900D03*
X36852900Y-52475700D03*
X36852900Y-56226900D03*
X41016500Y-56226900D03*
X35123200Y-106010400D03*
X29485000Y-106010400D03*
X28800000Y-98305000D03*
X72561400Y-64747600D03*
X87220000Y-64914700D03*
X106771600Y-59753600D03*
X78891600Y-51014000D03*
X67131100Y-51014000D03*
X78891600Y-55451900D03*
X84950000Y-53166100D03*
X83250000Y-49800000D03*
X97700000Y-51161800D03*
X87480000Y-51161800D03*
X78490200Y-59320800D03*
X96002700Y-61708100D03*
X77267400Y-62364000D03*
X85950000Y-61708100D03*
X66600000Y-60500000D03*
X90848300Y-55300000D03*
X107100000Y-56413200D03*
X79860000Y-54424200D03*
X53246900Y-42118800D03*
X51998900Y-47221100D03*
X51998900Y-44522000D03*
X52641800Y-45951100D03*
X52641800Y-49761100D03*
X50600000Y-65450000D03*
X57603600Y-52322900D03*
X52019100Y-48491100D03*
X52019100Y-52322900D03*
X54423600Y-62151100D03*
X56827500Y-51577200D03*
X56043700Y-60696600D03*
X23603600Y-45951100D03*
X52518600Y-57250000D03*
X35051100Y-51031100D03*
X35051100Y-53152400D03*
X23603600Y-47340600D03*
X25126550Y-79744387D03*
X25133700Y-88334200D03*
X28547200Y-86050000D03*
X28750000Y-90900000D03*
X25755800Y-77700000D03*
X25755800Y-80238400D03*
X42949600Y-80238400D03*
X52755000Y-100285000D03*
X56195800Y-88039100D03*
X50605700Y-94700000D03*
X50604000Y-88039100D03*
X52755000Y-96600000D03*
X49803997Y-94900000D03*
X49850000Y-85150000D03*
X41070000Y-79447900D03*
X46981900Y-79447900D03*
X46981900Y-68090300D03*
X53228300Y-70950000D03*
X52530000Y-73523700D03*
X52530000Y-91300000D03*
X51750000Y-76485800D03*
X53026800Y-95205000D03*
M02*
