M48
; DRILL file {KiCad 9.0.0} date 2025-03-20T15:24:29+0900
; FORMAT={-:-/ absolute / metric / decimal}
; #@! TF.CreationDate,2025-03-20T15:24:29+09:00
; #@! TF.GenerationSoftware,Kicad,Pcbnew,9.0.0
; #@! TF.FileFunction,NonPlated,1,2,NPTH
FMAT,2
METRIC
; #@! TA.AperFunction,NonPlated,NPTH,ComponentDrill
T1C1.000
; #@! TA.AperFunction,NonPlated,NPTH,ComponentDrill
T2C3.000
; #@! TA.AperFunction,NonPlated,NPTH,ComponentDrill
T3C3.200
; #@! TA.AperFunction,NonPlated,NPTH,ComponentDrill
T4C4.800
%
G90
G05
T1
X42.05Y-58.55
X42.05Y-59.85
X42.05Y-63.0
X42.05Y-64.3
X43.55Y-58.55
X43.55Y-59.85
X43.55Y-63.0
X43.55Y-64.3
X45.05Y-58.55
X45.05Y-59.85
X45.05Y-63.0
X45.05Y-64.3
X46.55Y-58.55
X46.55Y-59.85
X46.55Y-63.0
X46.55Y-64.3
X66.65Y-43.304
X67.5Y-58.55
X67.5Y-59.85
X67.5Y-63.0
X67.5Y-64.3
X69.0Y-58.55
X69.0Y-59.85
X69.0Y-63.0
X69.0Y-64.3
X70.5Y-58.55
X70.5Y-59.85
X70.5Y-63.0
X70.5Y-64.3
X72.0Y-58.55
X72.0Y-59.85
X72.0Y-63.0
X72.0Y-64.3
X73.2Y-79.554
X83.65Y-43.304
X90.2Y-79.554
X100.65Y-43.304
X107.2Y-79.554
T2
X61.75Y-74.554
X63.95Y-69.554
X75.9Y-53.304
X78.1Y-48.304
X78.75Y-74.554
X80.95Y-69.554
X92.9Y-53.304
X95.1Y-48.304
X95.75Y-74.554
X97.95Y-69.554
X109.9Y-53.304
X112.1Y-48.304
T3
X40.1Y-72.05
X76.15Y-66.654
X97.7Y-56.204
T4
X67.65Y-74.554
X72.2Y-48.304
X84.65Y-74.554
X89.2Y-48.304
X101.65Y-74.554
X106.2Y-48.304
M30
