M48
; DRILL file {KiCad 9.0.0} date 2025-03-30T22:48:25+0900
; FORMAT={-:-/ absolute / metric / decimal}
; #@! TF.CreationDate,2025-03-30T22:48:25+09:00
; #@! TF.GenerationSoftware,Kicad,Pcbnew,9.0.0
; #@! TF.FileFunction,NonPlated,1,2,NPTH
FMAT,2
METRIC
; #@! TA.AperFunction,NonPlated,NPTH,ComponentDrill
T1C1.000
; #@! TA.AperFunction,NonPlated,NPTH,ComponentDrill
T2C2.200
; #@! TA.AperFunction,NonPlated,NPTH,ComponentDrill
T3C3.000
; #@! TA.AperFunction,NonPlated,NPTH,ComponentDrill
T4C4.800
%
G90
G05
T1
X66.65Y-43.304
X73.0Y-73.054
X83.65Y-43.304
X90.0Y-73.054
X100.65Y-43.304
X107.0Y-73.054
T2
X31.55Y-41.95
X33.35Y-101.35
X41.0Y-74.35
X46.65Y-62.85
X75.95Y-60.1
X97.7Y-56.25
T3
X61.55Y-68.054
X63.75Y-63.054
X75.9Y-53.304
X78.1Y-48.304
X78.55Y-68.054
X80.75Y-63.054
X92.9Y-53.304
X95.1Y-48.304
X95.55Y-68.054
X97.75Y-63.054
X109.9Y-53.304
X112.1Y-48.304
T4
X67.45Y-68.054
X72.2Y-48.304
X84.45Y-68.054
X89.2Y-48.304
X101.45Y-68.054
X106.2Y-48.304
M30
