G04 #@! TF.GenerationSoftware,KiCad,Pcbnew,9.0.0*
G04 #@! TF.CreationDate,2025-03-30T22:48:21+09:00*
G04 #@! TF.ProjectId,nofy,6e6f6679-2e6b-4696-9361-645f70636258,rev?*
G04 #@! TF.SameCoordinates,Original*
G04 #@! TF.FileFunction,Copper,L2,Bot*
G04 #@! TF.FilePolarity,Positive*
%FSLAX46Y46*%
G04 Gerber Fmt 4.6, Leading zero omitted, Abs format (unit mm)*
G04 Created by KiCad (PCBNEW 9.0.0) date 2025-03-30 22:48:21*
%MOMM*%
%LPD*%
G01*
G04 APERTURE LIST*
G04 #@! TA.AperFunction,ComponentPad*
%ADD10C,1.700000*%
G04 #@! TD*
G04 #@! TA.AperFunction,ComponentPad*
%ADD11O,1.700000X1.700000*%
G04 #@! TD*
G04 #@! TA.AperFunction,SMDPad,CuDef*
%ADD12R,3.500000X2.750000*%
G04 #@! TD*
G04 #@! TA.AperFunction,SMDPad,CuDef*
%ADD13R,3.500000X3.000000*%
G04 #@! TD*
G04 #@! TA.AperFunction,ComponentPad*
%ADD14O,2.750000X1.800000*%
G04 #@! TD*
G04 #@! TA.AperFunction,ComponentPad*
%ADD15C,1.500000*%
G04 #@! TD*
G04 #@! TA.AperFunction,ComponentPad*
%ADD16O,1.300000X1.000000*%
G04 #@! TD*
G04 #@! TA.AperFunction,SMDPad,CuDef*
%ADD17R,3.500000X2.650000*%
G04 #@! TD*
G04 #@! TA.AperFunction,SMDPad,CuDef*
%ADD18R,0.950000X1.200000*%
G04 #@! TD*
G04 #@! TA.AperFunction,SMDPad,CuDef*
%ADD19R,3.450000X2.750000*%
G04 #@! TD*
G04 #@! TA.AperFunction,ViaPad*
%ADD20C,0.600000*%
G04 #@! TD*
G04 #@! TA.AperFunction,Conductor*
%ADD21C,0.350000*%
G04 #@! TD*
G04 #@! TA.AperFunction,Conductor*
%ADD22C,0.200000*%
G04 #@! TD*
G04 APERTURE END LIST*
D10*
X23585000Y-83785000D03*
D11*
X23585000Y-81245000D03*
X23585000Y-78705000D03*
X23585000Y-76165000D03*
D12*
X63750000Y-59828600D03*
D13*
X61550000Y-71603600D03*
D12*
X80750000Y-59828600D03*
D13*
X78550000Y-71603600D03*
D14*
X54905000Y-105365000D03*
X54905000Y-102825000D03*
X54905000Y-100285000D03*
X54905000Y-97745000D03*
X54905000Y-95205000D03*
X54905000Y-92665000D03*
X54905000Y-90125000D03*
X38665000Y-90125000D03*
X38665000Y-92665000D03*
X38665000Y-95205000D03*
X38665000Y-97745000D03*
X38665000Y-100285000D03*
X38665000Y-102825000D03*
X38665000Y-105365000D03*
D15*
X42949600Y-88433000D03*
X41070000Y-88433000D03*
X51230000Y-98062000D03*
X51230000Y-99967000D03*
D16*
X34485000Y-107895000D03*
X31985000Y-107895000D03*
X29485000Y-107895000D03*
D17*
X97750000Y-59878600D03*
D13*
X95550000Y-71603600D03*
D10*
X23603600Y-49776100D03*
D11*
X23603600Y-52316100D03*
X23603600Y-54856100D03*
X23603600Y-57396100D03*
D10*
X57585000Y-76045000D03*
D11*
X57585000Y-73505000D03*
X57585000Y-70965000D03*
X57585000Y-68425000D03*
D18*
X107750000Y-65253575D03*
X107750000Y-61803575D03*
D12*
X109900000Y-56528600D03*
D13*
X112100000Y-44753600D03*
D18*
X73550000Y-65353575D03*
X73550000Y-61903575D03*
D10*
X23585000Y-100845000D03*
D11*
X23585000Y-98305000D03*
X23585000Y-95765000D03*
X23585000Y-93225000D03*
D10*
X79860000Y-56603600D03*
D11*
X82400000Y-56603600D03*
X84940000Y-56603600D03*
X87480000Y-56603600D03*
D10*
X57603600Y-42771100D03*
D11*
X57603600Y-45311100D03*
X57603600Y-47851100D03*
X57603600Y-50391100D03*
D10*
X85950000Y-59753600D03*
D11*
X88490000Y-59753600D03*
X91030000Y-59753600D03*
X93570000Y-59753600D03*
D10*
X23603600Y-34631100D03*
D11*
X23603600Y-37171100D03*
X23603600Y-39711100D03*
X23603600Y-42251100D03*
D18*
X100000000Y-50953525D03*
X100000000Y-54403525D03*
D14*
X38683600Y-38331100D03*
X38683600Y-40871100D03*
X38683600Y-43411100D03*
X38683600Y-45951100D03*
X38683600Y-48491100D03*
X38683600Y-51031100D03*
X38683600Y-53571100D03*
X54923600Y-53571100D03*
X54923600Y-51031100D03*
X54923600Y-48491100D03*
X54923600Y-45951100D03*
X54923600Y-43411100D03*
X54923600Y-40871100D03*
X54923600Y-38331100D03*
D15*
X50639000Y-55263100D03*
X52518600Y-55263100D03*
X42358600Y-45634100D03*
X42358600Y-43729100D03*
D18*
X83100000Y-50953525D03*
X83100000Y-54403525D03*
D16*
X29303600Y-35821100D03*
X31803600Y-35821100D03*
X34303600Y-35821100D03*
D10*
X57603600Y-57831100D03*
D11*
X57603600Y-60371100D03*
X57603600Y-62911100D03*
X57603600Y-65451100D03*
D19*
X75925000Y-56528600D03*
D13*
X78100000Y-44753600D03*
D12*
X92900000Y-56528600D03*
D13*
X95100000Y-44753600D03*
D10*
X57585000Y-92745000D03*
D11*
X57585000Y-90205000D03*
X57585000Y-87665000D03*
X57585000Y-85125000D03*
D18*
X90550000Y-65453575D03*
X90550000Y-62003575D03*
X66100000Y-50953525D03*
X66100000Y-54403525D03*
D20*
X51280700Y-94258400D03*
X32019798Y-85265202D03*
X30100000Y-48100000D03*
X72460200Y-61761600D03*
X70163100Y-61761600D03*
X84336000Y-74097300D03*
X78550000Y-74097300D03*
X92827000Y-44814900D03*
X83876700Y-44814900D03*
X36852900Y-52475700D03*
X36852900Y-56226900D03*
X41016500Y-56226900D03*
X35123200Y-106010400D03*
X29485000Y-106010400D03*
X28800000Y-98305000D03*
X72561400Y-64747600D03*
X87220000Y-64914700D03*
X106771600Y-59753600D03*
X78891600Y-51014000D03*
X67131100Y-51014000D03*
X78891600Y-55451900D03*
X84950000Y-53166100D03*
X83250000Y-49800000D03*
X97700000Y-51161800D03*
X87480000Y-51161800D03*
X78490200Y-59320800D03*
X96002700Y-61708100D03*
X77267400Y-62364000D03*
X85950000Y-61708100D03*
X66600000Y-60500000D03*
X90848300Y-55300000D03*
X107100000Y-56413200D03*
X79860000Y-54424200D03*
X53246900Y-42118800D03*
X51998900Y-47221100D03*
X51998900Y-44522000D03*
X52641800Y-45951100D03*
X52641800Y-49761100D03*
X50600000Y-65450000D03*
X57603600Y-52322900D03*
X52019100Y-48491100D03*
X52019100Y-52322900D03*
X54423600Y-62151100D03*
X56827500Y-51577200D03*
X56043700Y-60696600D03*
X23603600Y-45951100D03*
X52518600Y-57250000D03*
X35051100Y-51031100D03*
X35051100Y-53152400D03*
X23603600Y-47340600D03*
X25126550Y-79744387D03*
X25133700Y-88334200D03*
X28547200Y-86050000D03*
X28750000Y-90900000D03*
X25755800Y-77700000D03*
X25755800Y-80238400D03*
X42949600Y-80238400D03*
X52755000Y-100285000D03*
X56195800Y-88039100D03*
X50605700Y-94700000D03*
X50604000Y-88039100D03*
X52755000Y-96600000D03*
X49803997Y-94900000D03*
X49850000Y-85150000D03*
X41070000Y-79447900D03*
X46981900Y-79447900D03*
X46981900Y-68090300D03*
X53228300Y-70950000D03*
X52530000Y-73523700D03*
X52530000Y-91300000D03*
X51750000Y-76485800D03*
X53026800Y-95205000D03*
D21*
X51230000Y-98062000D02*
X51280700Y-98011300D01*
X51280700Y-98011300D02*
X51280700Y-94258400D01*
D22*
X31985000Y-107285000D02*
X31985000Y-107895000D01*
X29550000Y-87735000D02*
X29550000Y-104850000D01*
X32019798Y-85265202D02*
X29550000Y-87735000D01*
X29550000Y-104850000D02*
X31985000Y-107285000D01*
X30100000Y-47820000D02*
X27050000Y-44770000D01*
X30100000Y-48100000D02*
X30100000Y-47820000D01*
X27050000Y-40574700D02*
X31803600Y-35821100D01*
X27050000Y-44770000D02*
X27050000Y-40574700D01*
X73550000Y-61903600D02*
X72602200Y-61903600D01*
X70163100Y-69850000D02*
X70150000Y-69850000D01*
X70150000Y-69850000D02*
X68400000Y-71600000D01*
X72602200Y-61903600D02*
X72460200Y-61761600D01*
X70163100Y-61761600D02*
X70163100Y-69850000D01*
X68400000Y-71600000D02*
X61553600Y-71600000D01*
X61553600Y-71600000D02*
X61550000Y-71603600D01*
X89000000Y-69433300D02*
X84336000Y-74097300D01*
X89000000Y-63553600D02*
X89000000Y-69433300D01*
X90550000Y-62003600D02*
X89000000Y-63553600D01*
X78550000Y-71603600D02*
X78550000Y-74097300D01*
X108526000Y-68174000D02*
X105100000Y-71600000D01*
X107753600Y-61803600D02*
X108526000Y-62576000D01*
X105100000Y-71600000D02*
X95553600Y-71600000D01*
X107750000Y-61803600D02*
X107753600Y-61803600D01*
X95553600Y-71600000D02*
X95550000Y-71603600D01*
X108526000Y-62576000D02*
X108526000Y-68174000D01*
X72101700Y-54403500D02*
X75878300Y-50626900D01*
X75878300Y-50626900D02*
X75878300Y-46975300D01*
X75878300Y-46975300D02*
X78100000Y-44753600D01*
X66100000Y-54403500D02*
X72101700Y-54403500D01*
X92888300Y-44753600D02*
X92827000Y-44814900D01*
X83100000Y-54403500D02*
X83876700Y-54403500D01*
X95100000Y-44753600D02*
X92888300Y-44753600D01*
X83876700Y-54403500D02*
X83876700Y-44814900D01*
X109550000Y-47303600D02*
X112100000Y-44753600D01*
X100146500Y-54403500D02*
X100000000Y-54403500D01*
X99704563Y-54901900D02*
X99898100Y-54901900D01*
X103896475Y-54403525D02*
X109550000Y-48750000D01*
X109550000Y-48750000D02*
X109550000Y-47303600D01*
X100000000Y-54403525D02*
X103896475Y-54403525D01*
D21*
X42358600Y-45634100D02*
X41016500Y-46976200D01*
X36852900Y-56226900D02*
X36852900Y-52475700D01*
X41016500Y-46976200D02*
X41016500Y-56226900D01*
X29485000Y-107895000D02*
X29485000Y-106010400D01*
X28800000Y-105325400D02*
X29485000Y-106010400D01*
X28800000Y-98305000D02*
X28800000Y-105325400D01*
X38308600Y-102825000D02*
X35123200Y-106010400D01*
X39165000Y-102825000D02*
X38308600Y-102825000D01*
X42350000Y-39550000D02*
X42350000Y-43720500D01*
X42350000Y-43720500D02*
X42358600Y-43729100D01*
X38621100Y-35821100D02*
X42350000Y-39550000D01*
X34303600Y-35821100D02*
X38621100Y-35821100D01*
D22*
X72561400Y-64747600D02*
X72773300Y-64959500D01*
X72773300Y-64959500D02*
X72773300Y-65353600D01*
X73550000Y-65353600D02*
X72773300Y-65353600D01*
X88490000Y-59753600D02*
X87220000Y-61023600D01*
X87220000Y-61023600D02*
X87220000Y-64914700D01*
X91030000Y-60905300D02*
X91326700Y-61202000D01*
X91030000Y-59753600D02*
X91030000Y-60905300D01*
X90550000Y-65453600D02*
X91326700Y-65453600D01*
X91326700Y-61202000D02*
X91326700Y-65453600D01*
X107750000Y-65253575D02*
X106771600Y-64275175D01*
X107750000Y-65253600D02*
X107750000Y-65253575D01*
X106771600Y-64275175D02*
X106771600Y-59753600D01*
X67070600Y-50953500D02*
X67131100Y-51014000D01*
X66100000Y-50953500D02*
X67070600Y-50953500D01*
X78891600Y-55451900D02*
X78891600Y-51014000D01*
X84950000Y-53166100D02*
X84950000Y-53378600D01*
X84940000Y-53388600D02*
X84940000Y-56603600D01*
X83100000Y-50953500D02*
X83100000Y-49950000D01*
X84950000Y-53378600D02*
X84940000Y-53388600D01*
X83100000Y-49950000D02*
X83250000Y-49800000D01*
X100000000Y-50953525D02*
X100000000Y-50953500D01*
X97908275Y-50953525D02*
X100000000Y-50953525D01*
X97700000Y-51161800D02*
X97908275Y-50953525D01*
X87480000Y-56603600D02*
X87480000Y-51161800D01*
X78490200Y-59320800D02*
X78698300Y-59528900D01*
X80750000Y-59828600D02*
X79724200Y-59828600D01*
X64421400Y-60500000D02*
X66600000Y-60500000D01*
X79724200Y-59828600D02*
X78698300Y-59828600D01*
X97750000Y-59878600D02*
X96002700Y-61625900D01*
X78698300Y-59528900D02*
X78698300Y-59828600D01*
X85950000Y-59753600D02*
X85950000Y-61708100D01*
X77267400Y-62285400D02*
X77267400Y-62364000D01*
X63750000Y-59828600D02*
X64421400Y-60500000D01*
X96002700Y-61625900D02*
X96002700Y-61708100D01*
X79724200Y-59828600D02*
X77267400Y-62285400D01*
X75925000Y-56528600D02*
X75953600Y-56500000D01*
X107215400Y-56528600D02*
X109900000Y-56528600D01*
X107100000Y-56413200D02*
X107215400Y-56528600D01*
X79860000Y-56603600D02*
X79860000Y-54424200D01*
X92076900Y-56528600D02*
X92900000Y-56528600D01*
X90848300Y-55300000D02*
X92076900Y-56528600D01*
X75953600Y-56500000D02*
X79756400Y-56500000D01*
X79756400Y-56500000D02*
X79860000Y-56603600D01*
X53246900Y-39507800D02*
X53246900Y-42118800D01*
X54423600Y-38331100D02*
X53246900Y-39507800D01*
X51998900Y-47221100D02*
X51998900Y-44522000D01*
X52641800Y-49761100D02*
X52641800Y-45951100D01*
X50600000Y-65450000D02*
X50650000Y-65400000D01*
X50650000Y-65400000D02*
X50650000Y-55274100D01*
X50650000Y-55274100D02*
X50639000Y-55263100D01*
X52019100Y-52322900D02*
X52019100Y-48491100D01*
X57603600Y-57831100D02*
X57603600Y-52322900D01*
X54423600Y-55245600D02*
X54423600Y-62151100D01*
X54423600Y-53571100D02*
X54423600Y-55245600D01*
X56827500Y-51577200D02*
X56827500Y-55048100D01*
X56827500Y-55048100D02*
X56043700Y-55831900D01*
X56043700Y-55831900D02*
X56043700Y-60696600D01*
X23603600Y-42251100D02*
X23603600Y-45951100D01*
X52518600Y-55263100D02*
X52518600Y-57250000D01*
X35051100Y-53152400D02*
X35051100Y-51031100D01*
X23603600Y-49776100D02*
X23603600Y-47340600D01*
X25133700Y-79751537D02*
X25133700Y-88334200D01*
X39165000Y-90125000D02*
X39230000Y-90125000D01*
X25126550Y-79744387D02*
X25133700Y-79751537D01*
X28550000Y-90760600D02*
X28547200Y-90757800D01*
X28750000Y-90900000D02*
X28610600Y-90760600D01*
X28547200Y-90757800D02*
X28547200Y-86050000D01*
X28610600Y-90760600D02*
X28550000Y-90760600D01*
X42949600Y-88433000D02*
X42949600Y-80238400D01*
X25755800Y-77700000D02*
X25755800Y-80238400D01*
X52755000Y-96600000D02*
X52755000Y-100285000D01*
X50604000Y-94698300D02*
X50604000Y-88039100D01*
X56195800Y-88039100D02*
X56433300Y-87801600D01*
X57585000Y-87665000D02*
X56433300Y-87665000D01*
X50605700Y-94700000D02*
X50604000Y-94698300D01*
X56433300Y-87801600D02*
X56433300Y-87665000D01*
X56750000Y-101700000D02*
X55625000Y-102825000D01*
X53771600Y-93921600D02*
X55921600Y-93921600D01*
X56750000Y-94750000D02*
X56750000Y-101700000D01*
X53000000Y-92393900D02*
X53000000Y-93150000D01*
X53000000Y-93150000D02*
X53771600Y-93921600D01*
X57585000Y-90205000D02*
X56326700Y-91463300D01*
X53930600Y-91463300D02*
X53000000Y-92393900D01*
X55921600Y-93921600D02*
X56750000Y-94750000D01*
X56326700Y-91463300D02*
X53930600Y-91463300D01*
X55625000Y-102825000D02*
X54405000Y-102825000D01*
X49850000Y-85150000D02*
X49853000Y-85153000D01*
X49853000Y-94850997D02*
X49803997Y-94900000D01*
X49853000Y-85153000D02*
X49853000Y-94850997D01*
X55235000Y-105365000D02*
X54405000Y-105365000D01*
X57585000Y-92745000D02*
X57585000Y-103015000D01*
X57585000Y-103015000D02*
X55235000Y-105365000D01*
X41070000Y-88433000D02*
X41070000Y-79447900D01*
X46981900Y-79447900D02*
X46981900Y-68090300D01*
X53228300Y-90125000D02*
X54405000Y-90125000D01*
X53228300Y-70950000D02*
X53228300Y-90125000D01*
X52530000Y-73523700D02*
X52530000Y-91300000D01*
X53026800Y-95069400D02*
X53026800Y-95205000D01*
X51750000Y-76485800D02*
X51750000Y-93792600D01*
X51750000Y-93792600D02*
X53026800Y-95069400D01*
M02*
