G04 #@! TF.GenerationSoftware,KiCad,Pcbnew,9.0.0*
G04 #@! TF.CreationDate,2025-04-19T14:36:31+09:00*
G04 #@! TF.ProjectId,nofy_V2_E,6e6f6679-5f56-4325-9f45-2e6b69636164,rev?*
G04 #@! TF.SameCoordinates,Original*
G04 #@! TF.FileFunction,Soldermask,Bot*
G04 #@! TF.FilePolarity,Negative*
%FSLAX46Y46*%
G04 Gerber Fmt 4.6, Leading zero omitted, Abs format (unit mm)*
G04 Created by KiCad (PCBNEW 9.0.0) date 2025-04-19 14:36:31*
%MOMM*%
%LPD*%
G01*
G04 APERTURE LIST*
%ADD10R,0.950000X1.200000*%
%ADD11O,2.750000X1.800000*%
%ADD12C,1.500000*%
%ADD13C,3.000000*%
%ADD14C,4.800000*%
%ADD15R,3.500000X2.700000*%
%ADD16R,3.500000X3.000000*%
%ADD17R,3.500000X2.650000*%
%ADD18C,1.700000*%
%ADD19O,1.700000X1.700000*%
%ADD20C,2.200000*%
%ADD21R,3.500000X2.450000*%
%ADD22R,3.500000X2.500000*%
%ADD23O,1.300000X1.000000*%
%ADD24C,0.600000*%
G04 APERTURE END LIST*
D10*
X104145500Y-55829525D03*
X104145500Y-59279525D03*
D11*
X34979100Y-23434100D03*
X34979100Y-25974100D03*
X34979100Y-28514100D03*
X34979100Y-31054100D03*
X34979100Y-33594100D03*
X34979100Y-36134100D03*
X34979100Y-38674100D03*
X51219100Y-38674100D03*
X51219100Y-36134100D03*
X51219100Y-33594100D03*
X51219100Y-31054100D03*
X51219100Y-28514100D03*
X51219100Y-25974100D03*
X51219100Y-23434100D03*
D12*
X46934500Y-40366100D03*
X48814100Y-40366100D03*
X38654100Y-30737100D03*
X38654100Y-28832100D03*
D13*
X72245500Y-38453000D03*
D14*
X68545500Y-33453000D03*
D13*
X74445500Y-33453000D03*
D15*
X72245500Y-41653000D03*
D16*
X74445500Y-29903000D03*
D10*
X96295500Y-39652975D03*
X96295500Y-36202975D03*
X87095500Y-55829525D03*
X87095500Y-59279525D03*
D13*
X89245500Y-38453000D03*
D14*
X85545500Y-33453000D03*
D13*
X91445500Y-33453000D03*
D17*
X89245500Y-41628000D03*
D16*
X91445500Y-29903000D03*
D18*
X53899100Y-42934100D03*
D19*
X53899100Y-45474100D03*
X53899100Y-48014100D03*
X53899100Y-50554100D03*
D20*
X42945500Y-47953000D03*
D13*
X77145500Y-48153000D03*
D14*
X80845500Y-53153000D03*
D13*
X74945500Y-53153000D03*
D21*
X77145500Y-45078000D03*
D16*
X74945500Y-56703000D03*
D18*
X89865500Y-44853000D03*
D19*
X87325500Y-44853000D03*
X84785500Y-44853000D03*
X82245500Y-44853000D03*
D20*
X27845500Y-27053000D03*
D18*
X19899100Y-34879100D03*
D19*
X19899100Y-37419100D03*
X19899100Y-39959100D03*
X19899100Y-42499100D03*
D20*
X37295500Y-59453000D03*
D13*
X60145500Y-48153000D03*
D14*
X63845500Y-53153000D03*
D13*
X57945500Y-53153000D03*
D22*
X60145500Y-45053000D03*
D16*
X57945500Y-56703000D03*
D10*
X70045500Y-55803025D03*
X70045500Y-59253025D03*
D23*
X30780500Y-92998000D03*
X28280500Y-92998000D03*
X25780500Y-92998000D03*
D18*
X19880500Y-85948000D03*
D19*
X19880500Y-83408000D03*
X19880500Y-80868000D03*
X19880500Y-78328000D03*
D18*
X53880500Y-77848000D03*
D19*
X53880500Y-75308000D03*
X53880500Y-72768000D03*
X53880500Y-70228000D03*
D10*
X62295500Y-39552975D03*
X62295500Y-36102975D03*
D18*
X53899100Y-27874100D03*
D19*
X53899100Y-30414100D03*
X53899100Y-32954100D03*
X53899100Y-35494100D03*
D18*
X53880500Y-61148000D03*
D19*
X53880500Y-58608000D03*
X53880500Y-56068000D03*
X53880500Y-53528000D03*
D20*
X94045500Y-41395800D03*
X72245500Y-45203000D03*
D13*
X94145500Y-48153000D03*
D14*
X97845500Y-53153000D03*
D13*
X91945500Y-53153000D03*
D17*
X94145500Y-44978000D03*
D16*
X91945500Y-56703000D03*
D23*
X25599100Y-20924100D03*
X28099100Y-20924100D03*
X30599100Y-20924100D03*
D20*
X29645500Y-86453000D03*
D18*
X19880500Y-68888000D03*
D19*
X19880500Y-66348000D03*
X19880500Y-63808000D03*
X19880500Y-61268000D03*
D11*
X51200500Y-90468000D03*
X51200500Y-87928000D03*
X51200500Y-85388000D03*
X51200500Y-82848000D03*
X51200500Y-80308000D03*
X51200500Y-77768000D03*
X51200500Y-75228000D03*
X34960500Y-75228000D03*
X34960500Y-77768000D03*
X34960500Y-80308000D03*
X34960500Y-82848000D03*
X34960500Y-85388000D03*
X34960500Y-87928000D03*
X34960500Y-90468000D03*
D12*
X39245100Y-73536000D03*
X37365500Y-73536000D03*
X47525500Y-83165000D03*
X47525500Y-85070000D03*
D18*
X19899100Y-19734100D03*
D19*
X19899100Y-22274100D03*
X19899100Y-24814100D03*
X19899100Y-27354100D03*
D10*
X79295500Y-39602975D03*
X79295500Y-36152975D03*
D18*
X84045500Y-41753000D03*
D19*
X81505500Y-41753000D03*
X78965500Y-41753000D03*
X76425500Y-41753000D03*
D13*
X106245500Y-38453000D03*
D14*
X102545500Y-33453000D03*
D13*
X108445500Y-33453000D03*
D17*
X106245500Y-41628000D03*
D16*
X108445500Y-29903000D03*
D24*
X24095500Y-70268700D03*
X25733900Y-79056300D03*
X27395500Y-70268700D03*
X33233800Y-91805600D03*
X25780500Y-91805600D03*
X25500800Y-33545000D03*
X37695500Y-23103000D03*
X48379000Y-29779900D03*
X75723100Y-40503000D03*
X103216600Y-42811200D03*
X74128700Y-46207500D03*
X85928800Y-55353000D03*
X103116700Y-55886700D03*
X93195500Y-38653000D03*
X62295500Y-41753000D03*
X77408200Y-36166000D03*
X61900000Y-46807500D03*
X84785500Y-46331000D03*
X91863500Y-44853000D03*
X79197200Y-46984400D03*
X33302400Y-22270000D03*
X33302400Y-25020800D03*
X48814100Y-46500000D03*
X48395500Y-27153000D03*
X48938000Y-32392400D03*
X46934500Y-49746600D03*
X48811368Y-81034897D03*
X46209400Y-79566900D03*
X48095500Y-70228000D03*
X48192500Y-72774400D03*
X43421300Y-76532800D03*
X43845500Y-84603000D03*
X48751800Y-61593400D03*
X36974100Y-62974300D03*
X49356000Y-58589100D03*
X24245500Y-71553000D03*
X35460500Y-64555100D03*
X29108300Y-80241800D03*
X28145500Y-73203000D03*
M02*
