G04 #@! TF.GenerationSoftware,KiCad,Pcbnew,9.0.0*
G04 #@! TF.CreationDate,2025-04-19T14:36:31+09:00*
G04 #@! TF.ProjectId,nofy_V2_E,6e6f6679-5f56-4325-9f45-2e6b69636164,rev?*
G04 #@! TF.SameCoordinates,Original*
G04 #@! TF.FileFunction,Legend,Bot*
G04 #@! TF.FilePolarity,Positive*
%FSLAX46Y46*%
G04 Gerber Fmt 4.6, Leading zero omitted, Abs format (unit mm)*
G04 Created by KiCad (PCBNEW 9.0.0) date 2025-04-19 14:36:31*
%MOMM*%
%LPD*%
G01*
G04 APERTURE LIST*
%ADD10C,0.100000*%
%ADD11C,0.125000*%
%ADD12C,0.300000*%
%ADD13C,0.200000*%
%ADD14C,0.150000*%
G04 APERTURE END LIST*
D10*
X89595550Y-43303000D02*
X104895550Y-43303000D01*
X55295500Y-59003000D02*
X55295500Y-55003000D01*
X33995500Y-52003000D02*
X21395500Y-52003000D01*
D11*
X52033768Y-50391552D02*
X52033768Y-51058219D01*
X52033768Y-50486790D02*
X51986149Y-50439171D01*
X51986149Y-50439171D02*
X51890911Y-50391552D01*
X51890911Y-50391552D02*
X51748054Y-50391552D01*
X51748054Y-50391552D02*
X51652816Y-50439171D01*
X51652816Y-50439171D02*
X51605197Y-50534409D01*
X51605197Y-50534409D02*
X51605197Y-51058219D01*
X50986149Y-51058219D02*
X51081387Y-51010600D01*
X51081387Y-51010600D02*
X51129006Y-50962980D01*
X51129006Y-50962980D02*
X51176625Y-50867742D01*
X51176625Y-50867742D02*
X51176625Y-50582028D01*
X51176625Y-50582028D02*
X51129006Y-50486790D01*
X51129006Y-50486790D02*
X51081387Y-50439171D01*
X51081387Y-50439171D02*
X50986149Y-50391552D01*
X50986149Y-50391552D02*
X50843292Y-50391552D01*
X50843292Y-50391552D02*
X50748054Y-50439171D01*
X50748054Y-50439171D02*
X50700435Y-50486790D01*
X50700435Y-50486790D02*
X50652816Y-50582028D01*
X50652816Y-50582028D02*
X50652816Y-50867742D01*
X50652816Y-50867742D02*
X50700435Y-50962980D01*
X50700435Y-50962980D02*
X50748054Y-51010600D01*
X50748054Y-51010600D02*
X50843292Y-51058219D01*
X50843292Y-51058219D02*
X50986149Y-51058219D01*
X50367101Y-50391552D02*
X49986149Y-50391552D01*
X50224244Y-51058219D02*
X50224244Y-50201076D01*
X50224244Y-50201076D02*
X50176625Y-50105838D01*
X50176625Y-50105838D02*
X50081387Y-50058219D01*
X50081387Y-50058219D02*
X49986149Y-50058219D01*
X49748053Y-50391552D02*
X49509958Y-51058219D01*
X49271863Y-50391552D02*
X49509958Y-51058219D01*
X49509958Y-51058219D02*
X49605196Y-51296314D01*
X49605196Y-51296314D02*
X49652815Y-51343933D01*
X49652815Y-51343933D02*
X49748053Y-51391552D01*
X48129005Y-50534409D02*
X47795672Y-50534409D01*
X47652815Y-51058219D02*
X48129005Y-51058219D01*
X48129005Y-51058219D02*
X48129005Y-50058219D01*
X48129005Y-50058219D02*
X47652815Y-50058219D01*
X47224243Y-50391552D02*
X47224243Y-51058219D01*
X47224243Y-50486790D02*
X47176624Y-50439171D01*
X47176624Y-50439171D02*
X47081386Y-50391552D01*
X47081386Y-50391552D02*
X46938529Y-50391552D01*
X46938529Y-50391552D02*
X46843291Y-50439171D01*
X46843291Y-50439171D02*
X46795672Y-50534409D01*
X46795672Y-50534409D02*
X46795672Y-51058219D01*
X45890910Y-50391552D02*
X45890910Y-51201076D01*
X45890910Y-51201076D02*
X45938529Y-51296314D01*
X45938529Y-51296314D02*
X45986148Y-51343933D01*
X45986148Y-51343933D02*
X46081386Y-51391552D01*
X46081386Y-51391552D02*
X46224243Y-51391552D01*
X46224243Y-51391552D02*
X46319481Y-51343933D01*
X45890910Y-51010600D02*
X45986148Y-51058219D01*
X45986148Y-51058219D02*
X46176624Y-51058219D01*
X46176624Y-51058219D02*
X46271862Y-51010600D01*
X46271862Y-51010600D02*
X46319481Y-50962980D01*
X46319481Y-50962980D02*
X46367100Y-50867742D01*
X46367100Y-50867742D02*
X46367100Y-50582028D01*
X46367100Y-50582028D02*
X46319481Y-50486790D01*
X46319481Y-50486790D02*
X46271862Y-50439171D01*
X46271862Y-50439171D02*
X46176624Y-50391552D01*
X46176624Y-50391552D02*
X45986148Y-50391552D01*
X45986148Y-50391552D02*
X45890910Y-50439171D01*
X45414719Y-51058219D02*
X45414719Y-50391552D01*
X45414719Y-50058219D02*
X45462338Y-50105838D01*
X45462338Y-50105838D02*
X45414719Y-50153457D01*
X45414719Y-50153457D02*
X45367100Y-50105838D01*
X45367100Y-50105838D02*
X45414719Y-50058219D01*
X45414719Y-50058219D02*
X45414719Y-50153457D01*
X44938529Y-50391552D02*
X44938529Y-51058219D01*
X44938529Y-50486790D02*
X44890910Y-50439171D01*
X44890910Y-50439171D02*
X44795672Y-50391552D01*
X44795672Y-50391552D02*
X44652815Y-50391552D01*
X44652815Y-50391552D02*
X44557577Y-50439171D01*
X44557577Y-50439171D02*
X44509958Y-50534409D01*
X44509958Y-50534409D02*
X44509958Y-51058219D01*
X43652815Y-51010600D02*
X43748053Y-51058219D01*
X43748053Y-51058219D02*
X43938529Y-51058219D01*
X43938529Y-51058219D02*
X44033767Y-51010600D01*
X44033767Y-51010600D02*
X44081386Y-50915361D01*
X44081386Y-50915361D02*
X44081386Y-50534409D01*
X44081386Y-50534409D02*
X44033767Y-50439171D01*
X44033767Y-50439171D02*
X43938529Y-50391552D01*
X43938529Y-50391552D02*
X43748053Y-50391552D01*
X43748053Y-50391552D02*
X43652815Y-50439171D01*
X43652815Y-50439171D02*
X43605196Y-50534409D01*
X43605196Y-50534409D02*
X43605196Y-50629647D01*
X43605196Y-50629647D02*
X44081386Y-50724885D01*
D12*
X56294671Y-44284203D02*
X56294671Y-44998489D01*
X56294671Y-44998489D02*
X57794671Y-44998489D01*
D11*
X43724431Y-53582647D02*
X43724431Y-52915980D01*
X43724431Y-53487409D02*
X43772050Y-53535028D01*
X43772050Y-53535028D02*
X43867288Y-53582647D01*
X43867288Y-53582647D02*
X44010145Y-53582647D01*
X44010145Y-53582647D02*
X44105383Y-53535028D01*
X44105383Y-53535028D02*
X44153002Y-53439790D01*
X44153002Y-53439790D02*
X44153002Y-52915980D01*
X44772050Y-52915980D02*
X44676812Y-52963600D01*
X44676812Y-52963600D02*
X44629193Y-53011219D01*
X44629193Y-53011219D02*
X44581574Y-53106457D01*
X44581574Y-53106457D02*
X44581574Y-53392171D01*
X44581574Y-53392171D02*
X44629193Y-53487409D01*
X44629193Y-53487409D02*
X44676812Y-53535028D01*
X44676812Y-53535028D02*
X44772050Y-53582647D01*
X44772050Y-53582647D02*
X44914907Y-53582647D01*
X44914907Y-53582647D02*
X45010145Y-53535028D01*
X45010145Y-53535028D02*
X45057764Y-53487409D01*
X45057764Y-53487409D02*
X45105383Y-53392171D01*
X45105383Y-53392171D02*
X45105383Y-53106457D01*
X45105383Y-53106457D02*
X45057764Y-53011219D01*
X45057764Y-53011219D02*
X45010145Y-52963600D01*
X45010145Y-52963600D02*
X44914907Y-52915980D01*
X44914907Y-52915980D02*
X44772050Y-52915980D01*
X45391098Y-53582647D02*
X45772050Y-53582647D01*
X45533955Y-52915980D02*
X45533955Y-53773123D01*
X45533955Y-53773123D02*
X45581574Y-53868361D01*
X45581574Y-53868361D02*
X45676812Y-53915980D01*
X45676812Y-53915980D02*
X45772050Y-53915980D01*
X46010146Y-53582647D02*
X46248241Y-52915980D01*
X46486336Y-53582647D02*
X46248241Y-52915980D01*
X46248241Y-52915980D02*
X46153003Y-52677885D01*
X46153003Y-52677885D02*
X46105384Y-52630266D01*
X46105384Y-52630266D02*
X46010146Y-52582647D01*
X47629194Y-53439790D02*
X47962527Y-53439790D01*
X48105384Y-52915980D02*
X47629194Y-52915980D01*
X47629194Y-52915980D02*
X47629194Y-53915980D01*
X47629194Y-53915980D02*
X48105384Y-53915980D01*
X48533956Y-53582647D02*
X48533956Y-52915980D01*
X48533956Y-53487409D02*
X48581575Y-53535028D01*
X48581575Y-53535028D02*
X48676813Y-53582647D01*
X48676813Y-53582647D02*
X48819670Y-53582647D01*
X48819670Y-53582647D02*
X48914908Y-53535028D01*
X48914908Y-53535028D02*
X48962527Y-53439790D01*
X48962527Y-53439790D02*
X48962527Y-52915980D01*
X49867289Y-53582647D02*
X49867289Y-52773123D01*
X49867289Y-52773123D02*
X49819670Y-52677885D01*
X49819670Y-52677885D02*
X49772051Y-52630266D01*
X49772051Y-52630266D02*
X49676813Y-52582647D01*
X49676813Y-52582647D02*
X49533956Y-52582647D01*
X49533956Y-52582647D02*
X49438718Y-52630266D01*
X49867289Y-52963600D02*
X49772051Y-52915980D01*
X49772051Y-52915980D02*
X49581575Y-52915980D01*
X49581575Y-52915980D02*
X49486337Y-52963600D01*
X49486337Y-52963600D02*
X49438718Y-53011219D01*
X49438718Y-53011219D02*
X49391099Y-53106457D01*
X49391099Y-53106457D02*
X49391099Y-53392171D01*
X49391099Y-53392171D02*
X49438718Y-53487409D01*
X49438718Y-53487409D02*
X49486337Y-53535028D01*
X49486337Y-53535028D02*
X49581575Y-53582647D01*
X49581575Y-53582647D02*
X49772051Y-53582647D01*
X49772051Y-53582647D02*
X49867289Y-53535028D01*
X50343480Y-52915980D02*
X50343480Y-53582647D01*
X50343480Y-53915980D02*
X50295861Y-53868361D01*
X50295861Y-53868361D02*
X50343480Y-53820742D01*
X50343480Y-53820742D02*
X50391099Y-53868361D01*
X50391099Y-53868361D02*
X50343480Y-53915980D01*
X50343480Y-53915980D02*
X50343480Y-53820742D01*
X50819670Y-53582647D02*
X50819670Y-52915980D01*
X50819670Y-53487409D02*
X50867289Y-53535028D01*
X50867289Y-53535028D02*
X50962527Y-53582647D01*
X50962527Y-53582647D02*
X51105384Y-53582647D01*
X51105384Y-53582647D02*
X51200622Y-53535028D01*
X51200622Y-53535028D02*
X51248241Y-53439790D01*
X51248241Y-53439790D02*
X51248241Y-52915980D01*
X52105384Y-52963600D02*
X52010146Y-52915980D01*
X52010146Y-52915980D02*
X51819670Y-52915980D01*
X51819670Y-52915980D02*
X51724432Y-52963600D01*
X51724432Y-52963600D02*
X51676813Y-53058838D01*
X51676813Y-53058838D02*
X51676813Y-53439790D01*
X51676813Y-53439790D02*
X51724432Y-53535028D01*
X51724432Y-53535028D02*
X51819670Y-53582647D01*
X51819670Y-53582647D02*
X52010146Y-53582647D01*
X52010146Y-53582647D02*
X52105384Y-53535028D01*
X52105384Y-53535028D02*
X52153003Y-53439790D01*
X52153003Y-53439790D02*
X52153003Y-53344552D01*
X52153003Y-53344552D02*
X51676813Y-53249314D01*
D12*
X20565753Y-53236271D02*
X20065753Y-53950557D01*
X19708610Y-53236271D02*
X19708610Y-54736271D01*
X19708610Y-54736271D02*
X20280039Y-54736271D01*
X20280039Y-54736271D02*
X20422896Y-54664842D01*
X20422896Y-54664842D02*
X20494325Y-54593414D01*
X20494325Y-54593414D02*
X20565753Y-54450557D01*
X20565753Y-54450557D02*
X20565753Y-54236271D01*
X20565753Y-54236271D02*
X20494325Y-54093414D01*
X20494325Y-54093414D02*
X20422896Y-54021985D01*
X20422896Y-54021985D02*
X20280039Y-53950557D01*
X20280039Y-53950557D02*
X19708610Y-53950557D01*
X60994671Y-41541346D02*
X61708957Y-42041346D01*
X60994671Y-42398489D02*
X62494671Y-42398489D01*
X62494671Y-42398489D02*
X62494671Y-41827060D01*
X62494671Y-41827060D02*
X62423242Y-41684203D01*
X62423242Y-41684203D02*
X62351814Y-41612774D01*
X62351814Y-41612774D02*
X62208957Y-41541346D01*
X62208957Y-41541346D02*
X61994671Y-41541346D01*
X61994671Y-41541346D02*
X61851814Y-41612774D01*
X61851814Y-41612774D02*
X61780385Y-41684203D01*
X61780385Y-41684203D02*
X61708957Y-41827060D01*
X61708957Y-41827060D02*
X61708957Y-42398489D01*
X19635303Y-50837928D02*
X20349589Y-50837928D01*
X20349589Y-50837928D02*
X20349589Y-49337928D01*
D13*
X103550186Y-56760781D02*
X103550186Y-58348285D01*
X103550186Y-57157657D02*
X104740814Y-57157657D01*
X103550186Y-58348285D02*
X104740814Y-58348285D01*
X104145500Y-56562343D02*
X104145500Y-56760781D01*
X104145500Y-58348285D02*
X104145500Y-58546723D01*
X104740814Y-56760781D02*
X103550186Y-56760781D01*
X104740814Y-58348285D02*
X104740814Y-56760781D01*
D14*
X69920500Y-36764204D02*
X69920500Y-39728000D01*
X70920500Y-40758000D02*
X73570500Y-40758000D01*
X70945500Y-35903000D02*
X70622387Y-35903000D01*
X72120500Y-32153000D02*
X72120500Y-34728000D01*
X73120500Y-31153000D02*
X72120500Y-32153000D01*
X73120500Y-31153000D02*
X75770500Y-31153000D01*
X74075500Y-40603000D02*
X70395500Y-40603000D01*
X74245500Y-40453000D02*
X70275500Y-40453000D01*
X74385500Y-40303000D02*
X70245500Y-40303000D01*
X74465500Y-40153000D02*
X70345500Y-40153000D01*
X74515500Y-40003000D02*
X70195500Y-40003000D01*
X74545500Y-37603000D02*
X69995500Y-37603000D01*
X74545500Y-37753000D02*
X69945500Y-37753000D01*
X74545500Y-37903000D02*
X69945500Y-37903000D01*
X74545500Y-38053000D02*
X69945500Y-38053000D01*
X74545500Y-38203000D02*
X69945500Y-38203000D01*
X74545500Y-38353000D02*
X69945500Y-38353000D01*
X74545500Y-38503000D02*
X69945500Y-38503000D01*
X74545500Y-38653000D02*
X69945500Y-38653000D01*
X74545500Y-38803000D02*
X69945500Y-38803000D01*
X74545500Y-38953000D02*
X69945500Y-38953000D01*
X74545500Y-39103000D02*
X69945500Y-39103000D01*
X74545500Y-39253000D02*
X69945500Y-39253000D01*
X74545500Y-39403000D02*
X69945500Y-39403000D01*
X74545500Y-39553000D02*
X69945500Y-39553000D01*
X74545500Y-39703000D02*
X69945500Y-39703000D01*
X74555500Y-39853000D02*
X70045500Y-39853000D01*
X74570500Y-37753000D02*
X74570500Y-39728000D01*
X74585500Y-37453000D02*
X69945500Y-37453000D01*
X74595500Y-37153000D02*
X69995500Y-37153000D01*
X74595500Y-37303000D02*
X69945500Y-37303000D01*
X74645500Y-37003000D02*
X69935500Y-37003000D01*
X74745500Y-36853000D02*
X69925500Y-36853000D01*
X74795500Y-36703000D02*
X69945500Y-36703000D01*
X74895500Y-36553000D02*
X69975500Y-36553000D01*
X74995500Y-36403000D02*
X70025500Y-36403000D01*
X75095500Y-36253000D02*
X70105500Y-36253000D01*
X75245500Y-36103000D02*
X70295500Y-36103000D01*
X75395500Y-35953000D02*
X70495500Y-35953000D01*
X75565500Y-35853000D02*
X71445500Y-35853000D01*
X75745500Y-35753000D02*
X71595500Y-35753000D01*
X75745500Y-35753000D02*
X76770500Y-34478000D01*
X75770500Y-31153000D02*
X76770500Y-32153000D01*
X75815500Y-35653000D02*
X71795500Y-35653000D01*
X75895500Y-35553000D02*
X71895500Y-35553000D01*
X75915500Y-31303000D02*
X72985500Y-31303000D01*
X75975500Y-35453000D02*
X71945500Y-35453000D01*
X75995500Y-31403000D02*
X72875500Y-31403000D01*
X76065500Y-35343000D02*
X71995500Y-35353000D01*
X76105500Y-31503000D02*
X72775500Y-31503000D01*
X76165500Y-35203000D02*
X72045500Y-35203000D01*
X76205500Y-31603000D02*
X72675500Y-31603000D01*
X76305500Y-35053000D02*
X72145500Y-35053000D01*
X76365500Y-31753000D02*
X72535500Y-31753000D01*
X76425500Y-34903000D02*
X72145500Y-34903000D01*
X76495500Y-31903000D02*
X72375500Y-31903000D01*
X76535500Y-34753000D02*
X72145500Y-34753000D01*
X76635500Y-32053000D02*
X72245500Y-32053000D01*
X76655500Y-34603000D02*
X72195500Y-34603000D01*
X76745500Y-32203000D02*
X72145500Y-32203000D01*
X76745500Y-32353000D02*
X72145500Y-32353000D01*
X76745500Y-32503000D02*
X72145500Y-32503000D01*
X76745500Y-32653000D02*
X72145500Y-32653000D01*
X76745500Y-32803000D02*
X72145500Y-32803000D01*
X76745500Y-32953000D02*
X72145500Y-32953000D01*
X76745500Y-33103000D02*
X72145500Y-33103000D01*
X76745500Y-33253000D02*
X72145500Y-33253000D01*
X76745500Y-33403000D02*
X72145500Y-33403000D01*
X76745500Y-33553000D02*
X72145500Y-33553000D01*
X76745500Y-33703000D02*
X72145500Y-33703000D01*
X76745500Y-33853000D02*
X72145500Y-33853000D01*
X76745500Y-34003000D02*
X72145500Y-34003000D01*
X76745500Y-34153000D02*
X72145500Y-34153000D01*
X76745500Y-34303000D02*
X72145500Y-34303000D01*
X76745500Y-34453000D02*
X72145500Y-34453000D01*
X76770500Y-32153000D02*
X76770500Y-34478000D01*
X69920500Y-36764204D02*
G75*
G02*
X70622387Y-35903000I926887J-38796D01*
G01*
X70920500Y-40758000D02*
G75*
G02*
X69920500Y-39758000I-1J999999D01*
G01*
X72120500Y-34728000D02*
G75*
G02*
X70945500Y-35903000I-1175002J2D01*
G01*
X74562958Y-37753000D02*
G75*
G02*
X75745500Y-35753000I2282546J-2D01*
G01*
X74570500Y-39758000D02*
G75*
G02*
X73570500Y-40758000I-999999J-1D01*
G01*
D13*
X95700186Y-37134215D02*
X95700186Y-38721719D01*
X95700186Y-38721719D02*
X96890814Y-38721719D01*
X96295500Y-37134215D02*
X96295500Y-36935777D01*
X96295500Y-38920157D02*
X96295500Y-38721719D01*
X96890814Y-37134215D02*
X95700186Y-37134215D01*
X96890814Y-38324843D02*
X95700186Y-38324843D01*
X96890814Y-38721719D02*
X96890814Y-37134215D01*
X86500186Y-56760781D02*
X86500186Y-58348285D01*
X86500186Y-57157657D02*
X87690814Y-57157657D01*
X86500186Y-58348285D02*
X87690814Y-58348285D01*
X87095500Y-56562343D02*
X87095500Y-56760781D01*
X87095500Y-58348285D02*
X87095500Y-58546723D01*
X87690814Y-56760781D02*
X86500186Y-56760781D01*
X87690814Y-58348285D02*
X87690814Y-56760781D01*
D14*
X86920500Y-36764204D02*
X86920500Y-39728000D01*
X87920500Y-40758000D02*
X90570500Y-40758000D01*
X87945500Y-35903000D02*
X87622387Y-35903000D01*
X89120500Y-32153000D02*
X89120500Y-34728000D01*
X90120500Y-31153000D02*
X89120500Y-32153000D01*
X90120500Y-31153000D02*
X92770500Y-31153000D01*
X91075500Y-40603000D02*
X87395500Y-40603000D01*
X91245500Y-40453000D02*
X87275500Y-40453000D01*
X91385500Y-40303000D02*
X87245500Y-40303000D01*
X91465500Y-40153000D02*
X87345500Y-40153000D01*
X91515500Y-40003000D02*
X87195500Y-40003000D01*
X91545500Y-37603000D02*
X86995500Y-37603000D01*
X91545500Y-37753000D02*
X86945500Y-37753000D01*
X91545500Y-37903000D02*
X86945500Y-37903000D01*
X91545500Y-38053000D02*
X86945500Y-38053000D01*
X91545500Y-38203000D02*
X86945500Y-38203000D01*
X91545500Y-38353000D02*
X86945500Y-38353000D01*
X91545500Y-38503000D02*
X86945500Y-38503000D01*
X91545500Y-38653000D02*
X86945500Y-38653000D01*
X91545500Y-38803000D02*
X86945500Y-38803000D01*
X91545500Y-38953000D02*
X86945500Y-38953000D01*
X91545500Y-39103000D02*
X86945500Y-39103000D01*
X91545500Y-39253000D02*
X86945500Y-39253000D01*
X91545500Y-39403000D02*
X86945500Y-39403000D01*
X91545500Y-39553000D02*
X86945500Y-39553000D01*
X91545500Y-39703000D02*
X86945500Y-39703000D01*
X91555500Y-39853000D02*
X87045500Y-39853000D01*
X91570500Y-37753000D02*
X91570500Y-39728000D01*
X91585500Y-37453000D02*
X86945500Y-37453000D01*
X91595500Y-37153000D02*
X86995500Y-37153000D01*
X91595500Y-37303000D02*
X86945500Y-37303000D01*
X91645500Y-37003000D02*
X86935500Y-37003000D01*
X91745500Y-36853000D02*
X86925500Y-36853000D01*
X91795500Y-36703000D02*
X86945500Y-36703000D01*
X91895500Y-36553000D02*
X86975500Y-36553000D01*
X91995500Y-36403000D02*
X87025500Y-36403000D01*
X92095500Y-36253000D02*
X87105500Y-36253000D01*
X92245500Y-36103000D02*
X87295500Y-36103000D01*
X92395500Y-35953000D02*
X87495500Y-35953000D01*
X92565500Y-35853000D02*
X88445500Y-35853000D01*
X92745500Y-35753000D02*
X88595500Y-35753000D01*
X92745500Y-35753000D02*
X93770500Y-34478000D01*
X92770500Y-31153000D02*
X93770500Y-32153000D01*
X92815500Y-35653000D02*
X88795500Y-35653000D01*
X92895500Y-35553000D02*
X88895500Y-35553000D01*
X92915500Y-31303000D02*
X89985500Y-31303000D01*
X92975500Y-35453000D02*
X88945500Y-35453000D01*
X92995500Y-31403000D02*
X89875500Y-31403000D01*
X93065500Y-35343000D02*
X88995500Y-35353000D01*
X93105500Y-31503000D02*
X89775500Y-31503000D01*
X93165500Y-35203000D02*
X89045500Y-35203000D01*
X93205500Y-31603000D02*
X89675500Y-31603000D01*
X93305500Y-35053000D02*
X89145500Y-35053000D01*
X93365500Y-31753000D02*
X89535500Y-31753000D01*
X93425500Y-34903000D02*
X89145500Y-34903000D01*
X93495500Y-31903000D02*
X89375500Y-31903000D01*
X93535500Y-34753000D02*
X89145500Y-34753000D01*
X93635500Y-32053000D02*
X89245500Y-32053000D01*
X93655500Y-34603000D02*
X89195500Y-34603000D01*
X93745500Y-32203000D02*
X89145500Y-32203000D01*
X93745500Y-32353000D02*
X89145500Y-32353000D01*
X93745500Y-32503000D02*
X89145500Y-32503000D01*
X93745500Y-32653000D02*
X89145500Y-32653000D01*
X93745500Y-32803000D02*
X89145500Y-32803000D01*
X93745500Y-32953000D02*
X89145500Y-32953000D01*
X93745500Y-33103000D02*
X89145500Y-33103000D01*
X93745500Y-33253000D02*
X89145500Y-33253000D01*
X93745500Y-33403000D02*
X89145500Y-33403000D01*
X93745500Y-33553000D02*
X89145500Y-33553000D01*
X93745500Y-33703000D02*
X89145500Y-33703000D01*
X93745500Y-33853000D02*
X89145500Y-33853000D01*
X93745500Y-34003000D02*
X89145500Y-34003000D01*
X93745500Y-34153000D02*
X89145500Y-34153000D01*
X93745500Y-34303000D02*
X89145500Y-34303000D01*
X93745500Y-34453000D02*
X89145500Y-34453000D01*
X93770500Y-32153000D02*
X93770500Y-34478000D01*
X86920500Y-36764204D02*
G75*
G02*
X87622387Y-35903000I926887J-38796D01*
G01*
X87920500Y-40758000D02*
G75*
G02*
X86920500Y-39758000I-1J999999D01*
G01*
X89120500Y-34728000D02*
G75*
G02*
X87945500Y-35903000I-1175002J2D01*
G01*
X91562958Y-37753000D02*
G75*
G02*
X92745500Y-35753000I2282546J-2D01*
G01*
X91570500Y-39758000D02*
G75*
G02*
X90570500Y-40758000I-999999J-1D01*
G01*
X72620500Y-54453000D02*
X72620500Y-52128000D01*
X72645500Y-52153000D02*
X77245500Y-52153000D01*
X72645500Y-52303000D02*
X77245500Y-52303000D01*
X72645500Y-52453000D02*
X77245500Y-52453000D01*
X72645500Y-52603000D02*
X77245500Y-52603000D01*
X72645500Y-52753000D02*
X77245500Y-52753000D01*
X72645500Y-52903000D02*
X77245500Y-52903000D01*
X72645500Y-53053000D02*
X77245500Y-53053000D01*
X72645500Y-53203000D02*
X77245500Y-53203000D01*
X72645500Y-53353000D02*
X77245500Y-53353000D01*
X72645500Y-53503000D02*
X77245500Y-53503000D01*
X72645500Y-53653000D02*
X77245500Y-53653000D01*
X72645500Y-53803000D02*
X77245500Y-53803000D01*
X72645500Y-53953000D02*
X77245500Y-53953000D01*
X72645500Y-54103000D02*
X77245500Y-54103000D01*
X72645500Y-54253000D02*
X77245500Y-54253000D01*
X72645500Y-54403000D02*
X77245500Y-54403000D01*
X72735500Y-52003000D02*
X77195500Y-52003000D01*
X72755500Y-54553000D02*
X77145500Y-54553000D01*
X72855500Y-51853000D02*
X77245500Y-51853000D01*
X72895500Y-54703000D02*
X77015500Y-54703000D01*
X72965500Y-51703000D02*
X77245500Y-51703000D01*
X73025500Y-54853000D02*
X76855500Y-54853000D01*
X73085500Y-51553000D02*
X77245500Y-51553000D01*
X73185500Y-55003000D02*
X76715500Y-55003000D01*
X73225500Y-51403000D02*
X77345500Y-51403000D01*
X73285500Y-55103000D02*
X76615500Y-55103000D01*
X73325500Y-51263000D02*
X77395500Y-51253000D01*
X73395500Y-55203000D02*
X76515500Y-55203000D01*
X73415500Y-51153000D02*
X77445500Y-51153000D01*
X73475500Y-55303000D02*
X76405500Y-55303000D01*
X73495500Y-51053000D02*
X77495500Y-51053000D01*
X73575500Y-50953000D02*
X77595500Y-50953000D01*
X73620500Y-55453000D02*
X72620500Y-54453000D01*
X73645500Y-50853000D02*
X72620500Y-52128000D01*
X73645500Y-50853000D02*
X77795500Y-50853000D01*
X73825500Y-50753000D02*
X77945500Y-50753000D01*
X73995500Y-50653000D02*
X78895500Y-50653000D01*
X74145500Y-50503000D02*
X79095500Y-50503000D01*
X74295500Y-50353000D02*
X79285500Y-50353000D01*
X74395500Y-50203000D02*
X79365500Y-50203000D01*
X74495500Y-50053000D02*
X79415500Y-50053000D01*
X74595500Y-49903000D02*
X79445500Y-49903000D01*
X74645500Y-49753000D02*
X79465500Y-49753000D01*
X74745500Y-49603000D02*
X79455500Y-49603000D01*
X74795500Y-49303000D02*
X79445500Y-49303000D01*
X74795500Y-49453000D02*
X79395500Y-49453000D01*
X74805500Y-49153000D02*
X79445500Y-49153000D01*
X74820500Y-48853000D02*
X74820500Y-46878000D01*
X74835500Y-46753000D02*
X79345500Y-46753000D01*
X74845500Y-46903000D02*
X79445500Y-46903000D01*
X74845500Y-47053000D02*
X79445500Y-47053000D01*
X74845500Y-47203000D02*
X79445500Y-47203000D01*
X74845500Y-47353000D02*
X79445500Y-47353000D01*
X74845500Y-47503000D02*
X79445500Y-47503000D01*
X74845500Y-47653000D02*
X79445500Y-47653000D01*
X74845500Y-47803000D02*
X79445500Y-47803000D01*
X74845500Y-47953000D02*
X79445500Y-47953000D01*
X74845500Y-48103000D02*
X79445500Y-48103000D01*
X74845500Y-48253000D02*
X79445500Y-48253000D01*
X74845500Y-48403000D02*
X79445500Y-48403000D01*
X74845500Y-48553000D02*
X79445500Y-48553000D01*
X74845500Y-48703000D02*
X79445500Y-48703000D01*
X74845500Y-48853000D02*
X79445500Y-48853000D01*
X74845500Y-49003000D02*
X79395500Y-49003000D01*
X74875500Y-46603000D02*
X79195500Y-46603000D01*
X74925500Y-46453000D02*
X79045500Y-46453000D01*
X75005500Y-46303000D02*
X79145500Y-46303000D01*
X75145500Y-46153000D02*
X79115500Y-46153000D01*
X75315500Y-46003000D02*
X78995500Y-46003000D01*
X76270500Y-55453000D02*
X73620500Y-55453000D01*
X76270500Y-55453000D02*
X77270500Y-54453000D01*
X77270500Y-54453000D02*
X77270500Y-51878000D01*
X78445500Y-50703000D02*
X78768613Y-50703000D01*
X78470500Y-45848000D02*
X75820500Y-45848000D01*
X79470500Y-49841796D02*
X79470500Y-46878000D01*
X74820500Y-46848000D02*
G75*
G02*
X75820500Y-45848000I999999J1D01*
G01*
X74828042Y-48853000D02*
G75*
G02*
X73645500Y-50853000I-2282546J2D01*
G01*
X77270500Y-51878000D02*
G75*
G02*
X78445500Y-50703000I1175002J-2D01*
G01*
X78470500Y-45848000D02*
G75*
G02*
X79470500Y-46848000I1J-999999D01*
G01*
X79470500Y-49841796D02*
G75*
G02*
X78768613Y-50703000I-926887J38796D01*
G01*
X55620500Y-54453000D02*
X55620500Y-52128000D01*
X55645500Y-52153000D02*
X60245500Y-52153000D01*
X55645500Y-52303000D02*
X60245500Y-52303000D01*
X55645500Y-52453000D02*
X60245500Y-52453000D01*
X55645500Y-52603000D02*
X60245500Y-52603000D01*
X55645500Y-52753000D02*
X60245500Y-52753000D01*
X55645500Y-52903000D02*
X60245500Y-52903000D01*
X55645500Y-53053000D02*
X60245500Y-53053000D01*
X55645500Y-53203000D02*
X60245500Y-53203000D01*
X55645500Y-53353000D02*
X60245500Y-53353000D01*
X55645500Y-53503000D02*
X60245500Y-53503000D01*
X55645500Y-53653000D02*
X60245500Y-53653000D01*
X55645500Y-53803000D02*
X60245500Y-53803000D01*
X55645500Y-53953000D02*
X60245500Y-53953000D01*
X55645500Y-54103000D02*
X60245500Y-54103000D01*
X55645500Y-54253000D02*
X60245500Y-54253000D01*
X55645500Y-54403000D02*
X60245500Y-54403000D01*
X55735500Y-52003000D02*
X60195500Y-52003000D01*
X55755500Y-54553000D02*
X60145500Y-54553000D01*
X55855500Y-51853000D02*
X60245500Y-51853000D01*
X55895500Y-54703000D02*
X60015500Y-54703000D01*
X55965500Y-51703000D02*
X60245500Y-51703000D01*
X56025500Y-54853000D02*
X59855500Y-54853000D01*
X56085500Y-51553000D02*
X60245500Y-51553000D01*
X56185500Y-55003000D02*
X59715500Y-55003000D01*
X56225500Y-51403000D02*
X60345500Y-51403000D01*
X56285500Y-55103000D02*
X59615500Y-55103000D01*
X56325500Y-51263000D02*
X60395500Y-51253000D01*
X56395500Y-55203000D02*
X59515500Y-55203000D01*
X56415500Y-51153000D02*
X60445500Y-51153000D01*
X56475500Y-55303000D02*
X59405500Y-55303000D01*
X56495500Y-51053000D02*
X60495500Y-51053000D01*
X56575500Y-50953000D02*
X60595500Y-50953000D01*
X56620500Y-55453000D02*
X55620500Y-54453000D01*
X56645500Y-50853000D02*
X55620500Y-52128000D01*
X56645500Y-50853000D02*
X60795500Y-50853000D01*
X56825500Y-50753000D02*
X60945500Y-50753000D01*
X56995500Y-50653000D02*
X61895500Y-50653000D01*
X57145500Y-50503000D02*
X62095500Y-50503000D01*
X57295500Y-50353000D02*
X62285500Y-50353000D01*
X57395500Y-50203000D02*
X62365500Y-50203000D01*
X57495500Y-50053000D02*
X62415500Y-50053000D01*
X57595500Y-49903000D02*
X62445500Y-49903000D01*
X57645500Y-49753000D02*
X62465500Y-49753000D01*
X57745500Y-49603000D02*
X62455500Y-49603000D01*
X57795500Y-49303000D02*
X62445500Y-49303000D01*
X57795500Y-49453000D02*
X62395500Y-49453000D01*
X57805500Y-49153000D02*
X62445500Y-49153000D01*
X57820500Y-48853000D02*
X57820500Y-46878000D01*
X57835500Y-46753000D02*
X62345500Y-46753000D01*
X57845500Y-46903000D02*
X62445500Y-46903000D01*
X57845500Y-47053000D02*
X62445500Y-47053000D01*
X57845500Y-47203000D02*
X62445500Y-47203000D01*
X57845500Y-47353000D02*
X62445500Y-47353000D01*
X57845500Y-47503000D02*
X62445500Y-47503000D01*
X57845500Y-47653000D02*
X62445500Y-47653000D01*
X57845500Y-47803000D02*
X62445500Y-47803000D01*
X57845500Y-47953000D02*
X62445500Y-47953000D01*
X57845500Y-48103000D02*
X62445500Y-48103000D01*
X57845500Y-48253000D02*
X62445500Y-48253000D01*
X57845500Y-48403000D02*
X62445500Y-48403000D01*
X57845500Y-48553000D02*
X62445500Y-48553000D01*
X57845500Y-48703000D02*
X62445500Y-48703000D01*
X57845500Y-48853000D02*
X62445500Y-48853000D01*
X57845500Y-49003000D02*
X62395500Y-49003000D01*
X57875500Y-46603000D02*
X62195500Y-46603000D01*
X57925500Y-46453000D02*
X62045500Y-46453000D01*
X58005500Y-46303000D02*
X62145500Y-46303000D01*
X58145500Y-46153000D02*
X62115500Y-46153000D01*
X58315500Y-46003000D02*
X61995500Y-46003000D01*
X59270500Y-55453000D02*
X56620500Y-55453000D01*
X59270500Y-55453000D02*
X60270500Y-54453000D01*
X60270500Y-54453000D02*
X60270500Y-51878000D01*
X61445500Y-50703000D02*
X61768613Y-50703000D01*
X61470500Y-45848000D02*
X58820500Y-45848000D01*
X62470500Y-49841796D02*
X62470500Y-46878000D01*
X57820500Y-46848000D02*
G75*
G02*
X58820500Y-45848000I999999J1D01*
G01*
X57828042Y-48853000D02*
G75*
G02*
X56645500Y-50853000I-2282546J2D01*
G01*
X60270500Y-51878000D02*
G75*
G02*
X61445500Y-50703000I1175002J-2D01*
G01*
X61470500Y-45848000D02*
G75*
G02*
X62470500Y-46848000I1J-999999D01*
G01*
X62470500Y-49841796D02*
G75*
G02*
X61768613Y-50703000I-926887J38796D01*
G01*
D13*
X69450186Y-56734281D02*
X69450186Y-58321785D01*
X69450186Y-57131157D02*
X70640814Y-57131157D01*
X69450186Y-58321785D02*
X70640814Y-58321785D01*
X70045500Y-56535843D02*
X70045500Y-56734281D01*
X70045500Y-58321785D02*
X70045500Y-58520223D01*
X70640814Y-56734281D02*
X69450186Y-56734281D01*
X70640814Y-58321785D02*
X70640814Y-56734281D01*
X61700186Y-37034215D02*
X61700186Y-38621719D01*
X61700186Y-38621719D02*
X62890814Y-38621719D01*
X62295500Y-37034215D02*
X62295500Y-36835777D01*
X62295500Y-38820157D02*
X62295500Y-38621719D01*
X62890814Y-37034215D02*
X61700186Y-37034215D01*
X62890814Y-38224843D02*
X61700186Y-38224843D01*
X62890814Y-38621719D02*
X62890814Y-37034215D01*
D14*
X89620500Y-54453000D02*
X89620500Y-52128000D01*
X89645500Y-52153000D02*
X94245500Y-52153000D01*
X89645500Y-52303000D02*
X94245500Y-52303000D01*
X89645500Y-52453000D02*
X94245500Y-52453000D01*
X89645500Y-52603000D02*
X94245500Y-52603000D01*
X89645500Y-52753000D02*
X94245500Y-52753000D01*
X89645500Y-52903000D02*
X94245500Y-52903000D01*
X89645500Y-53053000D02*
X94245500Y-53053000D01*
X89645500Y-53203000D02*
X94245500Y-53203000D01*
X89645500Y-53353000D02*
X94245500Y-53353000D01*
X89645500Y-53503000D02*
X94245500Y-53503000D01*
X89645500Y-53653000D02*
X94245500Y-53653000D01*
X89645500Y-53803000D02*
X94245500Y-53803000D01*
X89645500Y-53953000D02*
X94245500Y-53953000D01*
X89645500Y-54103000D02*
X94245500Y-54103000D01*
X89645500Y-54253000D02*
X94245500Y-54253000D01*
X89645500Y-54403000D02*
X94245500Y-54403000D01*
X89735500Y-52003000D02*
X94195500Y-52003000D01*
X89755500Y-54553000D02*
X94145500Y-54553000D01*
X89855500Y-51853000D02*
X94245500Y-51853000D01*
X89895500Y-54703000D02*
X94015500Y-54703000D01*
X89965500Y-51703000D02*
X94245500Y-51703000D01*
X90025500Y-54853000D02*
X93855500Y-54853000D01*
X90085500Y-51553000D02*
X94245500Y-51553000D01*
X90185500Y-55003000D02*
X93715500Y-55003000D01*
X90225500Y-51403000D02*
X94345500Y-51403000D01*
X90285500Y-55103000D02*
X93615500Y-55103000D01*
X90325500Y-51263000D02*
X94395500Y-51253000D01*
X90395500Y-55203000D02*
X93515500Y-55203000D01*
X90415500Y-51153000D02*
X94445500Y-51153000D01*
X90475500Y-55303000D02*
X93405500Y-55303000D01*
X90495500Y-51053000D02*
X94495500Y-51053000D01*
X90575500Y-50953000D02*
X94595500Y-50953000D01*
X90620500Y-55453000D02*
X89620500Y-54453000D01*
X90645500Y-50853000D02*
X89620500Y-52128000D01*
X90645500Y-50853000D02*
X94795500Y-50853000D01*
X90825500Y-50753000D02*
X94945500Y-50753000D01*
X90995500Y-50653000D02*
X95895500Y-50653000D01*
X91145500Y-50503000D02*
X96095500Y-50503000D01*
X91295500Y-50353000D02*
X96285500Y-50353000D01*
X91395500Y-50203000D02*
X96365500Y-50203000D01*
X91495500Y-50053000D02*
X96415500Y-50053000D01*
X91595500Y-49903000D02*
X96445500Y-49903000D01*
X91645500Y-49753000D02*
X96465500Y-49753000D01*
X91745500Y-49603000D02*
X96455500Y-49603000D01*
X91795500Y-49303000D02*
X96445500Y-49303000D01*
X91795500Y-49453000D02*
X96395500Y-49453000D01*
X91805500Y-49153000D02*
X96445500Y-49153000D01*
X91820500Y-48853000D02*
X91820500Y-46878000D01*
X91835500Y-46753000D02*
X96345500Y-46753000D01*
X91845500Y-46903000D02*
X96445500Y-46903000D01*
X91845500Y-47053000D02*
X96445500Y-47053000D01*
X91845500Y-47203000D02*
X96445500Y-47203000D01*
X91845500Y-47353000D02*
X96445500Y-47353000D01*
X91845500Y-47503000D02*
X96445500Y-47503000D01*
X91845500Y-47653000D02*
X96445500Y-47653000D01*
X91845500Y-47803000D02*
X96445500Y-47803000D01*
X91845500Y-47953000D02*
X96445500Y-47953000D01*
X91845500Y-48103000D02*
X96445500Y-48103000D01*
X91845500Y-48253000D02*
X96445500Y-48253000D01*
X91845500Y-48403000D02*
X96445500Y-48403000D01*
X91845500Y-48553000D02*
X96445500Y-48553000D01*
X91845500Y-48703000D02*
X96445500Y-48703000D01*
X91845500Y-48853000D02*
X96445500Y-48853000D01*
X91845500Y-49003000D02*
X96395500Y-49003000D01*
X91875500Y-46603000D02*
X96195500Y-46603000D01*
X91925500Y-46453000D02*
X96045500Y-46453000D01*
X92005500Y-46303000D02*
X96145500Y-46303000D01*
X92145500Y-46153000D02*
X96115500Y-46153000D01*
X92315500Y-46003000D02*
X95995500Y-46003000D01*
X93270500Y-55453000D02*
X90620500Y-55453000D01*
X93270500Y-55453000D02*
X94270500Y-54453000D01*
X94270500Y-54453000D02*
X94270500Y-51878000D01*
X95445500Y-50703000D02*
X95768613Y-50703000D01*
X95470500Y-45848000D02*
X92820500Y-45848000D01*
X96470500Y-49841796D02*
X96470500Y-46878000D01*
X91820500Y-46848000D02*
G75*
G02*
X92820500Y-45848000I999999J1D01*
G01*
X91828042Y-48853000D02*
G75*
G02*
X90645500Y-50853000I-2282546J2D01*
G01*
X94270500Y-51878000D02*
G75*
G02*
X95445500Y-50703000I1175002J-2D01*
G01*
X95470500Y-45848000D02*
G75*
G02*
X96470500Y-46848000I1J-999999D01*
G01*
X96470500Y-49841796D02*
G75*
G02*
X95768613Y-50703000I-926887J38796D01*
G01*
D13*
X78700186Y-37084215D02*
X78700186Y-38671719D01*
X78700186Y-38671719D02*
X79890814Y-38671719D01*
X79295500Y-37084215D02*
X79295500Y-36885777D01*
X79295500Y-38870157D02*
X79295500Y-38671719D01*
X79890814Y-37084215D02*
X78700186Y-37084215D01*
X79890814Y-38274843D02*
X78700186Y-38274843D01*
X79890814Y-38671719D02*
X79890814Y-37084215D01*
D14*
X103920500Y-36764204D02*
X103920500Y-39728000D01*
X104920500Y-40758000D02*
X107570500Y-40758000D01*
X104945500Y-35903000D02*
X104622387Y-35903000D01*
X106120500Y-32153000D02*
X106120500Y-34728000D01*
X107120500Y-31153000D02*
X106120500Y-32153000D01*
X107120500Y-31153000D02*
X109770500Y-31153000D01*
X108075500Y-40603000D02*
X104395500Y-40603000D01*
X108245500Y-40453000D02*
X104275500Y-40453000D01*
X108385500Y-40303000D02*
X104245500Y-40303000D01*
X108465500Y-40153000D02*
X104345500Y-40153000D01*
X108515500Y-40003000D02*
X104195500Y-40003000D01*
X108545500Y-37603000D02*
X103995500Y-37603000D01*
X108545500Y-37753000D02*
X103945500Y-37753000D01*
X108545500Y-37903000D02*
X103945500Y-37903000D01*
X108545500Y-38053000D02*
X103945500Y-38053000D01*
X108545500Y-38203000D02*
X103945500Y-38203000D01*
X108545500Y-38353000D02*
X103945500Y-38353000D01*
X108545500Y-38503000D02*
X103945500Y-38503000D01*
X108545500Y-38653000D02*
X103945500Y-38653000D01*
X108545500Y-38803000D02*
X103945500Y-38803000D01*
X108545500Y-38953000D02*
X103945500Y-38953000D01*
X108545500Y-39103000D02*
X103945500Y-39103000D01*
X108545500Y-39253000D02*
X103945500Y-39253000D01*
X108545500Y-39403000D02*
X103945500Y-39403000D01*
X108545500Y-39553000D02*
X103945500Y-39553000D01*
X108545500Y-39703000D02*
X103945500Y-39703000D01*
X108555500Y-39853000D02*
X104045500Y-39853000D01*
X108570500Y-37753000D02*
X108570500Y-39728000D01*
X108585500Y-37453000D02*
X103945500Y-37453000D01*
X108595500Y-37153000D02*
X103995500Y-37153000D01*
X108595500Y-37303000D02*
X103945500Y-37303000D01*
X108645500Y-37003000D02*
X103935500Y-37003000D01*
X108745500Y-36853000D02*
X103925500Y-36853000D01*
X108795500Y-36703000D02*
X103945500Y-36703000D01*
X108895500Y-36553000D02*
X103975500Y-36553000D01*
X108995500Y-36403000D02*
X104025500Y-36403000D01*
X109095500Y-36253000D02*
X104105500Y-36253000D01*
X109245500Y-36103000D02*
X104295500Y-36103000D01*
X109395500Y-35953000D02*
X104495500Y-35953000D01*
X109565500Y-35853000D02*
X105445500Y-35853000D01*
X109745500Y-35753000D02*
X105595500Y-35753000D01*
X109745500Y-35753000D02*
X110770500Y-34478000D01*
X109770500Y-31153000D02*
X110770500Y-32153000D01*
X109815500Y-35653000D02*
X105795500Y-35653000D01*
X109895500Y-35553000D02*
X105895500Y-35553000D01*
X109915500Y-31303000D02*
X106985500Y-31303000D01*
X109975500Y-35453000D02*
X105945500Y-35453000D01*
X109995500Y-31403000D02*
X106875500Y-31403000D01*
X110065500Y-35343000D02*
X105995500Y-35353000D01*
X110105500Y-31503000D02*
X106775500Y-31503000D01*
X110165500Y-35203000D02*
X106045500Y-35203000D01*
X110205500Y-31603000D02*
X106675500Y-31603000D01*
X110305500Y-35053000D02*
X106145500Y-35053000D01*
X110365500Y-31753000D02*
X106535500Y-31753000D01*
X110425500Y-34903000D02*
X106145500Y-34903000D01*
X110495500Y-31903000D02*
X106375500Y-31903000D01*
X110535500Y-34753000D02*
X106145500Y-34753000D01*
X110635500Y-32053000D02*
X106245500Y-32053000D01*
X110655500Y-34603000D02*
X106195500Y-34603000D01*
X110745500Y-32203000D02*
X106145500Y-32203000D01*
X110745500Y-32353000D02*
X106145500Y-32353000D01*
X110745500Y-32503000D02*
X106145500Y-32503000D01*
X110745500Y-32653000D02*
X106145500Y-32653000D01*
X110745500Y-32803000D02*
X106145500Y-32803000D01*
X110745500Y-32953000D02*
X106145500Y-32953000D01*
X110745500Y-33103000D02*
X106145500Y-33103000D01*
X110745500Y-33253000D02*
X106145500Y-33253000D01*
X110745500Y-33403000D02*
X106145500Y-33403000D01*
X110745500Y-33553000D02*
X106145500Y-33553000D01*
X110745500Y-33703000D02*
X106145500Y-33703000D01*
X110745500Y-33853000D02*
X106145500Y-33853000D01*
X110745500Y-34003000D02*
X106145500Y-34003000D01*
X110745500Y-34153000D02*
X106145500Y-34153000D01*
X110745500Y-34303000D02*
X106145500Y-34303000D01*
X110745500Y-34453000D02*
X106145500Y-34453000D01*
X110770500Y-32153000D02*
X110770500Y-34478000D01*
X103920500Y-36764204D02*
G75*
G02*
X104622387Y-35903000I926887J-38796D01*
G01*
X104920500Y-40758000D02*
G75*
G02*
X103920500Y-39758000I-1J999999D01*
G01*
X106120500Y-34728000D02*
G75*
G02*
X104945500Y-35903000I-1175002J2D01*
G01*
X108562958Y-37753000D02*
G75*
G02*
X109745500Y-35753000I2282546J-2D01*
G01*
X108570500Y-39758000D02*
G75*
G02*
X107570500Y-40758000I-999999J-1D01*
G01*
M02*
