G04 #@! TF.GenerationSoftware,KiCad,Pcbnew,9.0.0*
G04 #@! TF.CreationDate,2025-04-19T14:36:31+09:00*
G04 #@! TF.ProjectId,nofy_V2_E,6e6f6679-5f56-4325-9f45-2e6b69636164,rev?*
G04 #@! TF.SameCoordinates,Original*
G04 #@! TF.FileFunction,Copper,L2,Bot*
G04 #@! TF.FilePolarity,Positive*
%FSLAX46Y46*%
G04 Gerber Fmt 4.6, Leading zero omitted, Abs format (unit mm)*
G04 Created by KiCad (PCBNEW 9.0.0) date 2025-04-19 14:36:31*
%MOMM*%
%LPD*%
G01*
G04 APERTURE LIST*
G04 #@! TA.AperFunction,SMDPad,CuDef*
%ADD10R,0.950000X1.200000*%
G04 #@! TD*
G04 #@! TA.AperFunction,ComponentPad*
%ADD11O,2.750000X1.800000*%
G04 #@! TD*
G04 #@! TA.AperFunction,ComponentPad*
%ADD12C,1.500000*%
G04 #@! TD*
G04 #@! TA.AperFunction,SMDPad,CuDef*
%ADD13R,3.500000X2.700000*%
G04 #@! TD*
G04 #@! TA.AperFunction,SMDPad,CuDef*
%ADD14R,3.500000X3.000000*%
G04 #@! TD*
G04 #@! TA.AperFunction,SMDPad,CuDef*
%ADD15R,3.500000X2.650000*%
G04 #@! TD*
G04 #@! TA.AperFunction,ComponentPad*
%ADD16C,1.700000*%
G04 #@! TD*
G04 #@! TA.AperFunction,ComponentPad*
%ADD17O,1.700000X1.700000*%
G04 #@! TD*
G04 #@! TA.AperFunction,SMDPad,CuDef*
%ADD18R,3.500000X2.450000*%
G04 #@! TD*
G04 #@! TA.AperFunction,SMDPad,CuDef*
%ADD19R,3.500000X2.500000*%
G04 #@! TD*
G04 #@! TA.AperFunction,ComponentPad*
%ADD20O,1.300000X1.000000*%
G04 #@! TD*
G04 #@! TA.AperFunction,ViaPad*
%ADD21C,0.600000*%
G04 #@! TD*
G04 #@! TA.AperFunction,Conductor*
%ADD22C,0.200000*%
G04 #@! TD*
G04 #@! TA.AperFunction,Conductor*
%ADD23C,0.300000*%
G04 #@! TD*
G04 APERTURE END LIST*
D10*
X104145500Y-55829525D03*
X104145500Y-59279525D03*
D11*
X34979100Y-23434100D03*
X34979100Y-25974100D03*
X34979100Y-28514100D03*
X34979100Y-31054100D03*
X34979100Y-33594100D03*
X34979100Y-36134100D03*
X34979100Y-38674100D03*
X51219100Y-38674100D03*
X51219100Y-36134100D03*
X51219100Y-33594100D03*
X51219100Y-31054100D03*
X51219100Y-28514100D03*
X51219100Y-25974100D03*
X51219100Y-23434100D03*
D12*
X46934500Y-40366100D03*
X48814100Y-40366100D03*
X38654100Y-30737100D03*
X38654100Y-28832100D03*
D13*
X72245500Y-41653000D03*
D14*
X74445500Y-29903000D03*
D10*
X96295500Y-39652975D03*
X96295500Y-36202975D03*
X87095500Y-55829525D03*
X87095500Y-59279525D03*
D15*
X89245500Y-41628000D03*
D14*
X91445500Y-29903000D03*
D16*
X53899100Y-42934100D03*
D17*
X53899100Y-45474100D03*
X53899100Y-48014100D03*
X53899100Y-50554100D03*
D18*
X77145500Y-45078000D03*
D14*
X74945500Y-56703000D03*
D16*
X89865500Y-44853000D03*
D17*
X87325500Y-44853000D03*
X84785500Y-44853000D03*
X82245500Y-44853000D03*
D16*
X19899100Y-34879100D03*
D17*
X19899100Y-37419100D03*
X19899100Y-39959100D03*
X19899100Y-42499100D03*
D19*
X60145500Y-45053000D03*
D14*
X57945500Y-56703000D03*
D10*
X70045500Y-55803025D03*
X70045500Y-59253025D03*
D20*
X30780500Y-92998000D03*
X28280500Y-92998000D03*
X25780500Y-92998000D03*
D16*
X19880500Y-85948000D03*
D17*
X19880500Y-83408000D03*
X19880500Y-80868000D03*
X19880500Y-78328000D03*
D16*
X53880500Y-77848000D03*
D17*
X53880500Y-75308000D03*
X53880500Y-72768000D03*
X53880500Y-70228000D03*
D10*
X62295500Y-39552975D03*
X62295500Y-36102975D03*
D16*
X53899100Y-27874100D03*
D17*
X53899100Y-30414100D03*
X53899100Y-32954100D03*
X53899100Y-35494100D03*
D16*
X53880500Y-61148000D03*
D17*
X53880500Y-58608000D03*
X53880500Y-56068000D03*
X53880500Y-53528000D03*
D15*
X94145500Y-44978000D03*
D14*
X91945500Y-56703000D03*
D20*
X25599100Y-20924100D03*
X28099100Y-20924100D03*
X30599100Y-20924100D03*
D16*
X19880500Y-68888000D03*
D17*
X19880500Y-66348000D03*
X19880500Y-63808000D03*
X19880500Y-61268000D03*
D11*
X51200500Y-90468000D03*
X51200500Y-87928000D03*
X51200500Y-85388000D03*
X51200500Y-82848000D03*
X51200500Y-80308000D03*
X51200500Y-77768000D03*
X51200500Y-75228000D03*
X34960500Y-75228000D03*
X34960500Y-77768000D03*
X34960500Y-80308000D03*
X34960500Y-82848000D03*
X34960500Y-85388000D03*
X34960500Y-87928000D03*
X34960500Y-90468000D03*
D12*
X39245100Y-73536000D03*
X37365500Y-73536000D03*
X47525500Y-83165000D03*
X47525500Y-85070000D03*
D16*
X19899100Y-19734100D03*
D17*
X19899100Y-22274100D03*
X19899100Y-24814100D03*
X19899100Y-27354100D03*
D10*
X79295500Y-39602975D03*
X79295500Y-36152975D03*
D16*
X84045500Y-41753000D03*
D17*
X81505500Y-41753000D03*
X78965500Y-41753000D03*
X76425500Y-41753000D03*
D15*
X106245500Y-41628000D03*
D14*
X108445500Y-29903000D03*
D21*
X24095500Y-70268700D03*
X25733900Y-79056300D03*
X27395500Y-70268700D03*
X33233800Y-91805600D03*
X25780500Y-91805600D03*
X25500800Y-33545000D03*
X37695500Y-23103000D03*
X48379000Y-29779900D03*
X75723100Y-40503000D03*
X103216600Y-42811200D03*
X74128700Y-46207500D03*
X85928800Y-55353000D03*
X103116700Y-55886700D03*
X93195500Y-38653000D03*
X62295500Y-41753000D03*
X77408200Y-36166000D03*
X61900000Y-46807500D03*
X84785500Y-46331000D03*
X91863500Y-44853000D03*
X79197200Y-46984400D03*
X33302400Y-22270000D03*
X33302400Y-25020800D03*
X48814100Y-46500000D03*
X48395500Y-27153000D03*
X48938000Y-32392400D03*
X46934500Y-49746600D03*
X48811368Y-81034897D03*
X46209400Y-79566900D03*
X48095500Y-70228000D03*
X48192500Y-72774400D03*
X43421300Y-76532800D03*
X43845500Y-84603000D03*
X48751800Y-61593400D03*
X36974100Y-62974300D03*
X49356000Y-58589100D03*
X24245500Y-71553000D03*
X35460500Y-64555100D03*
X29108300Y-80241800D03*
X28145500Y-73203000D03*
D22*
X76425500Y-41696300D02*
X78518800Y-39603000D01*
X78518800Y-39603000D02*
X78520300Y-39603000D01*
X76425500Y-41753000D02*
X76425500Y-41696300D01*
X104145500Y-59279500D02*
X104145500Y-59253000D01*
X104145500Y-59253000D02*
X94495500Y-59253000D01*
X94495500Y-59253000D02*
X91945500Y-56703000D01*
X74945500Y-56703000D02*
X77522025Y-59279525D01*
X77522025Y-59279525D02*
X87095475Y-59279525D01*
X87095475Y-59279525D02*
X87095500Y-59279500D01*
X66345500Y-56703000D02*
X57945500Y-56703000D01*
X68895500Y-59253000D02*
X67795500Y-58153000D01*
X70045500Y-59253000D02*
X68895500Y-59253000D01*
X67795500Y-58153000D02*
X66345500Y-56703000D01*
X108445500Y-31253000D02*
X107095500Y-29903000D01*
X103540500Y-36158000D02*
X97117200Y-36158000D01*
X107095500Y-29903000D02*
X106844500Y-29903000D01*
X108445500Y-29903000D02*
X108445500Y-31253000D01*
X106844500Y-29903000D02*
X106844500Y-32854000D01*
X97117200Y-36158000D02*
X97072200Y-36203000D01*
X97072200Y-36203000D02*
X96295500Y-36203000D01*
X106844500Y-32854000D02*
X103540500Y-36158000D01*
X62295500Y-36103000D02*
X62295500Y-34103000D01*
X66495500Y-29903000D02*
X74445500Y-29903000D01*
X62295500Y-34103000D02*
X66495500Y-29903000D01*
X87656400Y-36142100D02*
X88986100Y-34812400D01*
X87656400Y-36153000D02*
X87656400Y-36142100D01*
X88986100Y-32362400D02*
X91445500Y-29903000D01*
X88986100Y-34812400D02*
X88986100Y-32362400D01*
X79295500Y-36153000D02*
X87656400Y-36153000D01*
D23*
X24895500Y-71068700D02*
X24895500Y-78217900D01*
X24895500Y-78217900D02*
X25733900Y-79056300D01*
X24095500Y-70268700D02*
X24895500Y-71068700D01*
D22*
X27395500Y-70268700D02*
X27395500Y-91311300D01*
X27395500Y-91311300D02*
X28280500Y-92196300D01*
X28280500Y-92196300D02*
X28280500Y-92998000D01*
D23*
X47253453Y-85366456D02*
X47287544Y-85332364D01*
X35460500Y-87928000D02*
X45270499Y-87928000D01*
X25780500Y-89308000D02*
X19880500Y-83408000D01*
X47435168Y-85763331D02*
X47148590Y-85476753D01*
X47238007Y-85247761D02*
X47201081Y-85171606D01*
X47241850Y-85399902D02*
X47253453Y-85388299D01*
X45270499Y-87928000D02*
X47435168Y-85763331D01*
X47525500Y-85070000D02*
X47279666Y-85315834D01*
X47164999Y-85476753D02*
X47180445Y-85461307D01*
X47180445Y-85461307D02*
X47228658Y-85437930D01*
X47271014Y-85315834D02*
X47253453Y-85279617D01*
X47201621Y-85070000D02*
X47525500Y-85070000D01*
X47148590Y-85476753D02*
X47164999Y-85476753D01*
X47253453Y-85263207D02*
X47238007Y-85247761D01*
X47253453Y-85388299D02*
X47253453Y-85366456D01*
X33233800Y-88614700D02*
X33233800Y-91805600D01*
X33920500Y-87928000D02*
X33233800Y-88614700D01*
X47287544Y-85332364D02*
X47271014Y-85315834D01*
X25780500Y-92998000D02*
X25780500Y-91805600D01*
X35460500Y-87928000D02*
X33920500Y-87928000D01*
X47279666Y-85315834D02*
X47271014Y-85315834D01*
X47253453Y-85279617D02*
X47253453Y-85263207D01*
X47228658Y-85437930D02*
X47241850Y-85399902D01*
X47201081Y-85171606D02*
X47201621Y-85070000D01*
X25780500Y-91805600D02*
X25780500Y-89308000D01*
D22*
X25500800Y-24324100D02*
X28099100Y-21725800D01*
X28099100Y-21725800D02*
X28099100Y-20924100D01*
X25500800Y-33545000D02*
X25500800Y-24324100D01*
D23*
X38595500Y-24003000D02*
X38595500Y-28773500D01*
X37695500Y-23103000D02*
X38595500Y-24003000D01*
X48379000Y-29779900D02*
X48379000Y-28119500D01*
X50524400Y-25974100D02*
X50719100Y-25974100D01*
X48379000Y-28119500D02*
X50524400Y-25974100D01*
X38595500Y-28773500D02*
X38654100Y-28832100D01*
D22*
X88120500Y-40503000D02*
X89245500Y-41628000D01*
X82755500Y-40503000D02*
X88120500Y-40503000D01*
X81505500Y-41753000D02*
X82755500Y-40503000D01*
X75723100Y-40503000D02*
X75323100Y-40903000D01*
X75323100Y-40903000D02*
X75245500Y-40903000D01*
X74495500Y-41653000D02*
X72245500Y-41653000D01*
X75245500Y-40903000D02*
X74495500Y-41653000D01*
X103216600Y-42605200D02*
X103216600Y-42811200D01*
X104193800Y-41628000D02*
X103216600Y-42605200D01*
X106245500Y-41628000D02*
X104193800Y-41628000D01*
X74128700Y-46207500D02*
X74128700Y-46269800D01*
X85928800Y-49688000D02*
X82245500Y-46004700D01*
X86231500Y-55742100D02*
X85928800Y-55439500D01*
X86318800Y-55829500D02*
X86231500Y-55742100D01*
X104145500Y-55829500D02*
X103368800Y-55829500D01*
X85928800Y-55439500D02*
X85928800Y-49688000D01*
X74128700Y-46269800D02*
X70045500Y-50353000D01*
X86231500Y-55742100D02*
X85928800Y-55439400D01*
X85928800Y-55439400D02*
X85928800Y-55353000D01*
X70045500Y-50353000D02*
X70045500Y-55803000D01*
X87095500Y-55829500D02*
X86318800Y-55829500D01*
X103368800Y-55829500D02*
X103173900Y-55829500D01*
X103173900Y-55829500D02*
X103116700Y-55886700D01*
X82245500Y-44853000D02*
X82245500Y-46004700D01*
X62295500Y-39553000D02*
X62295500Y-41753000D01*
X94195500Y-39653000D02*
X96295500Y-39653000D01*
X77408200Y-38490900D02*
X77408200Y-36166000D01*
X78520300Y-39603000D02*
X77408200Y-38490900D01*
X79295500Y-39603000D02*
X78619700Y-39603000D01*
X93195500Y-38653000D02*
X94195500Y-39653000D01*
X78619700Y-39603000D02*
X78520300Y-39603000D01*
X60145500Y-45053000D02*
X61900000Y-46807500D01*
X84785500Y-44853000D02*
X84785500Y-46331000D01*
X94145500Y-44978000D02*
X91988500Y-44978000D01*
X91988500Y-44978000D02*
X91863500Y-44853000D01*
X77145500Y-45078000D02*
X77290800Y-45078000D01*
X77290800Y-45078000D02*
X79197200Y-46984400D01*
X35479100Y-23434100D02*
X33302400Y-23434100D01*
X33302400Y-23434100D02*
X33302400Y-22270000D01*
X35479100Y-25974100D02*
X33302400Y-25974100D01*
X33302400Y-25974100D02*
X33302400Y-25020800D01*
X48814100Y-40366100D02*
X48814100Y-46500000D01*
X49543100Y-32205400D02*
X50694400Y-31054100D01*
X53338100Y-34933100D02*
X50275600Y-34933100D01*
X49543100Y-34200600D02*
X49543100Y-32205400D01*
X50694400Y-31054100D02*
X50719100Y-31054100D01*
X53899100Y-35494100D02*
X53338100Y-34933100D01*
X50275600Y-34933100D02*
X49543100Y-34200600D01*
X48382900Y-25865600D02*
X50719100Y-23529400D01*
X48395500Y-27153000D02*
X48382900Y-27140400D01*
X48382900Y-27140400D02*
X48382900Y-25865600D01*
X50719100Y-23529400D02*
X50719100Y-23434100D01*
X48938000Y-32392400D02*
X48980700Y-32349700D01*
X48980700Y-32349700D02*
X48980700Y-29075800D01*
X50719100Y-28514100D02*
X49542400Y-28514100D01*
X48980700Y-29075800D02*
X49542400Y-28514100D01*
X50719100Y-43970300D02*
X50719100Y-38674100D01*
X53899100Y-48014100D02*
X53899100Y-47150300D01*
X53899100Y-47150300D02*
X50719100Y-43970300D01*
X52645500Y-44153000D02*
X52645500Y-40603000D01*
X52895100Y-40353400D02*
X52895100Y-37602600D01*
X52895100Y-37602600D02*
X51426600Y-36134100D01*
X51426600Y-36134100D02*
X50719100Y-36134100D01*
X53899100Y-45474100D02*
X53899100Y-45406600D01*
X53899100Y-45406600D02*
X52645500Y-44153000D01*
X52645500Y-40603000D02*
X52895100Y-40353400D01*
X46934500Y-40366100D02*
X46934500Y-49746600D01*
X48811368Y-81171868D02*
X48842500Y-81203000D01*
X48842500Y-81203000D02*
X48842500Y-88600000D01*
X48811368Y-81034897D02*
X48811368Y-81171868D01*
X48842500Y-88600000D02*
X50700500Y-90458000D01*
X50700500Y-90458000D02*
X50700500Y-90468000D01*
X46209400Y-79566900D02*
X46209400Y-72114100D01*
X46209400Y-72114100D02*
X48095500Y-70228000D01*
X49523800Y-84211300D02*
X49523800Y-80898800D01*
X48192500Y-79567500D02*
X48192500Y-72774400D01*
X50700500Y-85388000D02*
X49523800Y-84211300D01*
X49523800Y-80898800D02*
X48192500Y-79567500D01*
X43421300Y-84178800D02*
X43421300Y-76532800D01*
X43845500Y-84603000D02*
X43421300Y-84178800D01*
X48811000Y-61652600D02*
X48751800Y-61593400D01*
X50700500Y-80058000D02*
X48811000Y-78168500D01*
X48811000Y-78168500D02*
X48811000Y-61652600D01*
X50700500Y-80308000D02*
X50700500Y-80058000D01*
X53880500Y-56951200D02*
X53880500Y-56068000D01*
X49792200Y-73987500D02*
X49792200Y-61039500D01*
X50700500Y-75228000D02*
X50700500Y-74895800D01*
X50700500Y-74895800D02*
X49792200Y-73987500D01*
X49792200Y-61039500D02*
X53880500Y-56951200D01*
X36974100Y-62974300D02*
X36974100Y-73144600D01*
X36974100Y-73144600D02*
X37365500Y-73536000D01*
X49356000Y-76423500D02*
X49356000Y-58589100D01*
X50700500Y-77768000D02*
X49356000Y-76423500D01*
X34354300Y-58553000D02*
X39245100Y-63443800D01*
X22595500Y-58553000D02*
X34354300Y-58553000D01*
X19880500Y-61268000D02*
X22595500Y-58553000D01*
X39245100Y-63443800D02*
X39245100Y-73536000D01*
X24221701Y-71553000D02*
X19880500Y-67211799D01*
X19880500Y-67211799D02*
X19880500Y-66348000D01*
X24245500Y-71553000D02*
X24221701Y-71553000D01*
X35460500Y-73553500D02*
X35460500Y-64555100D01*
X36637200Y-75228000D02*
X36637200Y-74730200D01*
X36637200Y-74730200D02*
X35460500Y-73553500D01*
X35460500Y-75228000D02*
X36637200Y-75228000D01*
X29108300Y-74165800D02*
X29108300Y-80241800D01*
X28145500Y-73203000D02*
X29108300Y-74165800D01*
M02*
