M48
; DRILL file {KiCad 9.0.0} date 2025-04-19T14:36:41+0900
; FORMAT={-:-/ absolute / metric / decimal}
; #@! TF.CreationDate,2025-04-19T14:36:41+09:00
; #@! TF.GenerationSoftware,Kicad,Pcbnew,9.0.0
; #@! TF.FileFunction,Plated,1,2,PTH
FMAT,2
METRIC
; #@! TA.AperFunction,Plated,PTH,ViaDrill
T1C0.300
; #@! TA.AperFunction,Plated,PTH,ComponentDrill
T2C0.500
; #@! TA.AperFunction,Plated,PTH,ComponentDrill
T3C0.813
; #@! TA.AperFunction,Plated,PTH,ComponentDrill
T4C1.000
%
G90
G05
T1
X24.095Y-70.269
X24.245Y-71.553
X25.501Y-33.545
X25.734Y-79.056
X25.78Y-91.806
X27.395Y-70.269
X28.145Y-73.203
X29.108Y-80.242
X33.234Y-91.806
X33.302Y-22.27
X33.302Y-25.021
X35.46Y-64.555
X36.974Y-62.974
X37.695Y-23.103
X43.421Y-76.533
X43.846Y-84.603
X46.209Y-79.567
X46.934Y-49.747
X48.096Y-70.228
X48.192Y-72.774
X48.379Y-29.78
X48.395Y-27.153
X48.752Y-61.593
X48.811Y-81.035
X48.814Y-46.5
X48.938Y-32.392
X49.356Y-58.589
X61.9Y-46.807
X62.295Y-41.753
X74.129Y-46.207
X75.723Y-40.503
X77.408Y-36.166
X79.197Y-46.984
X84.785Y-46.331
X85.929Y-55.353
X91.864Y-44.853
X93.195Y-38.653
X103.117Y-55.887
X103.217Y-42.811
T3
X35.46Y-75.228
X35.46Y-77.768
X35.46Y-80.308
X35.46Y-82.848
X35.46Y-85.388
X35.46Y-87.928
X35.46Y-90.468
X35.479Y-23.434
X35.479Y-25.974
X35.479Y-28.514
X35.479Y-31.054
X35.479Y-33.594
X35.479Y-36.134
X35.479Y-38.674
X50.7Y-75.228
X50.7Y-77.768
X50.7Y-80.308
X50.7Y-82.848
X50.7Y-85.388
X50.7Y-87.928
X50.7Y-90.468
X50.719Y-23.434
X50.719Y-25.974
X50.719Y-28.514
X50.719Y-31.054
X50.719Y-33.594
X50.719Y-36.134
X50.719Y-38.674
T4
X19.88Y-61.268
X19.88Y-63.808
X19.88Y-66.348
X19.88Y-68.888
X19.88Y-78.328
X19.88Y-80.868
X19.88Y-83.408
X19.88Y-85.948
X19.899Y-19.734
X19.899Y-22.274
X19.899Y-24.814
X19.899Y-27.354
X19.899Y-34.879
X19.899Y-37.419
X19.899Y-39.959
X19.899Y-42.499
X37.365Y-73.536
X38.654Y-28.832
X38.654Y-30.737
X39.245Y-73.536
X46.934Y-40.366
X47.526Y-83.165
X47.526Y-85.07
X48.814Y-40.366
X53.88Y-53.528
X53.88Y-56.068
X53.88Y-58.608
X53.88Y-61.148
X53.88Y-70.228
X53.88Y-72.768
X53.88Y-75.308
X53.88Y-77.848
X53.899Y-27.874
X53.899Y-30.414
X53.899Y-32.954
X53.899Y-35.494
X53.899Y-42.934
X53.899Y-45.474
X53.899Y-48.014
X53.899Y-50.554
X76.425Y-41.753
X78.965Y-41.753
X81.505Y-41.753
X82.245Y-44.853
X84.045Y-41.753
X84.785Y-44.853
X87.325Y-44.853
X89.865Y-44.853
T2
G00X25.449Y-20.924
M15
G01X25.749Y-20.924
M16
G05
G00X25.93Y-92.998
M15
G01X25.63Y-92.998
M16
G05
G00X27.949Y-20.924
M15
G01X28.249Y-20.924
M16
G05
G00X28.43Y-92.998
M15
G01X28.13Y-92.998
M16
G05
G00X30.449Y-20.924
M15
G01X30.749Y-20.924
M16
G05
G00X30.93Y-92.998
M15
G01X30.63Y-92.998
M16
G05
M30
