M48
; DRILL file {KiCad 9.0.0} date 2025-04-19T14:36:41+0900
; FORMAT={-:-/ absolute / metric / decimal}
; #@! TF.CreationDate,2025-04-19T14:36:41+09:00
; #@! TF.GenerationSoftware,Kicad,Pcbnew,9.0.0
; #@! TF.FileFunction,NonPlated,1,2,NPTH
FMAT,2
METRIC
; #@! TA.AperFunction,NonPlated,NPTH,ComponentDrill
T1C2.200
; #@! TA.AperFunction,NonPlated,NPTH,ComponentDrill
T2C3.000
; #@! TA.AperFunction,NonPlated,NPTH,ComponentDrill
T3C4.800
%
G90
G05
T1
X27.845Y-27.053
X29.645Y-86.453
X37.295Y-59.453
X42.945Y-47.953
X72.245Y-45.203
X94.045Y-41.396
T2
X57.945Y-53.153
X60.145Y-48.153
X72.245Y-38.453
X74.445Y-33.453
X74.945Y-53.153
X77.145Y-48.153
X89.245Y-38.453
X91.445Y-33.453
X91.945Y-53.153
X94.145Y-48.153
X106.245Y-38.453
X108.445Y-33.453
T3
X63.845Y-53.153
X68.545Y-33.453
X80.846Y-53.153
X85.545Y-33.453
X97.846Y-53.153
X102.545Y-33.453
M30
