G04 #@! TF.GenerationSoftware,KiCad,Pcbnew,9.0.0*
G04 #@! TF.CreationDate,2025-03-30T21:58:58+09:00*
G04 #@! TF.ProjectId,nofy,6e6f6679-2e6b-4696-9361-645f70636258,rev?*
G04 #@! TF.SameCoordinates,Original*
G04 #@! TF.FileFunction,Legend,Bot*
G04 #@! TF.FilePolarity,Positive*
%FSLAX46Y46*%
G04 Gerber Fmt 4.6, Leading zero omitted, Abs format (unit mm)*
G04 Created by KiCad (PCBNEW 9.0.0) date 2025-03-30 21:58:58*
%MOMM*%
%LPD*%
G01*
G04 APERTURE LIST*
%ADD10C,0.125000*%
%ADD11C,0.150000*%
%ADD12C,0.200000*%
%ADD13C,0.500000*%
%ADD14C,0.120000*%
G04 APERTURE END LIST*
D10*
X27453168Y-92837452D02*
X27453168Y-93504119D01*
X27453168Y-92932690D02*
X27405549Y-92885071D01*
X27405549Y-92885071D02*
X27310311Y-92837452D01*
X27310311Y-92837452D02*
X27167454Y-92837452D01*
X27167454Y-92837452D02*
X27072216Y-92885071D01*
X27072216Y-92885071D02*
X27024597Y-92980309D01*
X27024597Y-92980309D02*
X27024597Y-93504119D01*
X26405549Y-93504119D02*
X26500787Y-93456500D01*
X26500787Y-93456500D02*
X26548406Y-93408880D01*
X26548406Y-93408880D02*
X26596025Y-93313642D01*
X26596025Y-93313642D02*
X26596025Y-93027928D01*
X26596025Y-93027928D02*
X26548406Y-92932690D01*
X26548406Y-92932690D02*
X26500787Y-92885071D01*
X26500787Y-92885071D02*
X26405549Y-92837452D01*
X26405549Y-92837452D02*
X26262692Y-92837452D01*
X26262692Y-92837452D02*
X26167454Y-92885071D01*
X26167454Y-92885071D02*
X26119835Y-92932690D01*
X26119835Y-92932690D02*
X26072216Y-93027928D01*
X26072216Y-93027928D02*
X26072216Y-93313642D01*
X26072216Y-93313642D02*
X26119835Y-93408880D01*
X26119835Y-93408880D02*
X26167454Y-93456500D01*
X26167454Y-93456500D02*
X26262692Y-93504119D01*
X26262692Y-93504119D02*
X26405549Y-93504119D01*
X25786501Y-92837452D02*
X25405549Y-92837452D01*
X25643644Y-93504119D02*
X25643644Y-92646976D01*
X25643644Y-92646976D02*
X25596025Y-92551738D01*
X25596025Y-92551738D02*
X25500787Y-92504119D01*
X25500787Y-92504119D02*
X25405549Y-92504119D01*
X25167453Y-92837452D02*
X24929358Y-93504119D01*
X24691263Y-92837452D02*
X24929358Y-93504119D01*
X24929358Y-93504119D02*
X25024596Y-93742214D01*
X25024596Y-93742214D02*
X25072215Y-93789833D01*
X25072215Y-93789833D02*
X25167453Y-93837452D01*
X23691262Y-92504119D02*
X23357929Y-93504119D01*
X23357929Y-93504119D02*
X23024596Y-92504119D01*
X22738881Y-92599357D02*
X22691262Y-92551738D01*
X22691262Y-92551738D02*
X22596024Y-92504119D01*
X22596024Y-92504119D02*
X22357929Y-92504119D01*
X22357929Y-92504119D02*
X22262691Y-92551738D01*
X22262691Y-92551738D02*
X22215072Y-92599357D01*
X22215072Y-92599357D02*
X22167453Y-92694595D01*
X22167453Y-92694595D02*
X22167453Y-92789833D01*
X22167453Y-92789833D02*
X22215072Y-92932690D01*
X22215072Y-92932690D02*
X22786500Y-93504119D01*
X22786500Y-93504119D02*
X22167453Y-93504119D01*
D11*
X27228319Y-65371095D02*
X28037842Y-65371095D01*
X28037842Y-65371095D02*
X28133080Y-65418714D01*
X28133080Y-65418714D02*
X28180700Y-65466333D01*
X28180700Y-65466333D02*
X28228319Y-65561571D01*
X28228319Y-65561571D02*
X28228319Y-65752047D01*
X28228319Y-65752047D02*
X28180700Y-65847285D01*
X28180700Y-65847285D02*
X28133080Y-65894904D01*
X28133080Y-65894904D02*
X28037842Y-65942523D01*
X28037842Y-65942523D02*
X27228319Y-65942523D01*
X27228319Y-66323476D02*
X27228319Y-66942523D01*
X27228319Y-66942523D02*
X27609271Y-66609190D01*
X27609271Y-66609190D02*
X27609271Y-66752047D01*
X27609271Y-66752047D02*
X27656890Y-66847285D01*
X27656890Y-66847285D02*
X27704509Y-66894904D01*
X27704509Y-66894904D02*
X27799747Y-66942523D01*
X27799747Y-66942523D02*
X28037842Y-66942523D01*
X28037842Y-66942523D02*
X28133080Y-66894904D01*
X28133080Y-66894904D02*
X28180700Y-66847285D01*
X28180700Y-66847285D02*
X28228319Y-66752047D01*
X28228319Y-66752047D02*
X28228319Y-66466333D01*
X28228319Y-66466333D02*
X28180700Y-66371095D01*
X28180700Y-66371095D02*
X28133080Y-66323476D01*
D12*
X75506343Y-61733000D02*
X75704781Y-61733000D01*
X75704781Y-61137686D02*
X75704781Y-62328314D01*
X75704781Y-62328314D02*
X77292285Y-62328314D01*
X76101657Y-62328314D02*
X76101657Y-61137686D01*
X77292285Y-61137686D02*
X75704781Y-61137686D01*
X77292285Y-61733000D02*
X77490723Y-61733000D01*
X77292285Y-62328314D02*
X77292285Y-61137686D01*
D11*
X39573500Y-21808000D02*
X40573500Y-20808000D01*
X39573500Y-24458000D02*
X39573500Y-21808000D01*
X39573500Y-24458000D02*
X40573500Y-25458000D01*
X39723500Y-21663000D02*
X39723500Y-24593000D01*
X39823500Y-21583000D02*
X39823500Y-24703000D01*
X39923500Y-21473000D02*
X39923500Y-24803000D01*
X40023500Y-21373000D02*
X40023500Y-24903000D01*
X40173500Y-21213000D02*
X40173500Y-25043000D01*
X40323500Y-21083000D02*
X40323500Y-25203000D01*
X40473500Y-20943000D02*
X40473500Y-25333000D01*
X40573500Y-20808000D02*
X42898500Y-20808000D01*
X40573500Y-25458000D02*
X43148500Y-25458000D01*
X40623500Y-20833000D02*
X40623500Y-25433000D01*
X40773500Y-20833000D02*
X40773500Y-25433000D01*
X40923500Y-20833000D02*
X40923500Y-25433000D01*
X41073500Y-20833000D02*
X41073500Y-25433000D01*
X41223500Y-20833000D02*
X41223500Y-25433000D01*
X41373500Y-20833000D02*
X41373500Y-25433000D01*
X41523500Y-20833000D02*
X41523500Y-25433000D01*
X41673500Y-20833000D02*
X41673500Y-25433000D01*
X41823500Y-20833000D02*
X41823500Y-25433000D01*
X41973500Y-20833000D02*
X41973500Y-25433000D01*
X42123500Y-20833000D02*
X42123500Y-25433000D01*
X42273500Y-20833000D02*
X42273500Y-25433000D01*
X42423500Y-20833000D02*
X42423500Y-25433000D01*
X42573500Y-20833000D02*
X42573500Y-25433000D01*
X42723500Y-20833000D02*
X42723500Y-25433000D01*
X42873500Y-20833000D02*
X42873500Y-25433000D01*
X43023500Y-20923000D02*
X43023500Y-25383000D01*
X43173500Y-21043000D02*
X43173500Y-25433000D01*
X43323500Y-21153000D02*
X43323500Y-25433000D01*
X43473500Y-21273000D02*
X43473500Y-25433000D01*
X43623500Y-21413000D02*
X43623500Y-25533000D01*
X43763500Y-21513000D02*
X43773500Y-25583000D01*
X43873500Y-21603000D02*
X43873500Y-25633000D01*
X43973500Y-21683000D02*
X43973500Y-25683000D01*
X44073500Y-21763000D02*
X44073500Y-25783000D01*
X44173500Y-21833000D02*
X42898500Y-20808000D01*
X44173500Y-21833000D02*
X44173500Y-25983000D01*
X44273500Y-22013000D02*
X44273500Y-26133000D01*
X44323500Y-26633000D02*
X44323500Y-26956113D01*
X44373500Y-22183000D02*
X44373500Y-27083000D01*
X44523500Y-22333000D02*
X44523500Y-27283000D01*
X44673500Y-22483000D02*
X44673500Y-27473000D01*
X44823500Y-22583000D02*
X44823500Y-27553000D01*
X44973500Y-22683000D02*
X44973500Y-27603000D01*
X45123500Y-22783000D02*
X45123500Y-27633000D01*
X45184704Y-27658000D02*
X48148500Y-27658000D01*
X45273500Y-22833000D02*
X45273500Y-27653000D01*
X45423500Y-22933000D02*
X45423500Y-27643000D01*
X45573500Y-22983000D02*
X45573500Y-27583000D01*
X45723500Y-22983000D02*
X45723500Y-27633000D01*
X45873500Y-22993000D02*
X45873500Y-27633000D01*
X46023500Y-23033000D02*
X46023500Y-27583000D01*
X46173500Y-23008000D02*
X48148500Y-23008000D01*
X46173500Y-23033000D02*
X46173500Y-27633000D01*
X46323500Y-23033000D02*
X46323500Y-27633000D01*
X46473500Y-23033000D02*
X46473500Y-27633000D01*
X46623500Y-23033000D02*
X46623500Y-27633000D01*
X46773500Y-23033000D02*
X46773500Y-27633000D01*
X46923500Y-23033000D02*
X46923500Y-27633000D01*
X47073500Y-23033000D02*
X47073500Y-27633000D01*
X47223500Y-23033000D02*
X47223500Y-27633000D01*
X47373500Y-23033000D02*
X47373500Y-27633000D01*
X47523500Y-23033000D02*
X47523500Y-27633000D01*
X47673500Y-23033000D02*
X47673500Y-27633000D01*
X47823500Y-23033000D02*
X47823500Y-27633000D01*
X47973500Y-23033000D02*
X47973500Y-27633000D01*
X48123500Y-23033000D02*
X48123500Y-27633000D01*
X48273500Y-23023000D02*
X48273500Y-27533000D01*
X48423500Y-23063000D02*
X48423500Y-27383000D01*
X48573500Y-23113000D02*
X48573500Y-27233000D01*
X48723500Y-23193000D02*
X48723500Y-27333000D01*
X48873500Y-23333000D02*
X48873500Y-27303000D01*
X49023500Y-23503000D02*
X49023500Y-27183000D01*
X49178500Y-26658000D02*
X49178500Y-24008000D01*
X43148500Y-25458000D02*
G75*
G02*
X44323500Y-26633000I-2J-1175002D01*
G01*
X45184704Y-27658000D02*
G75*
G02*
X44323500Y-26956113I38796J926887D01*
G01*
X46173500Y-23015542D02*
G75*
G02*
X44173500Y-21833000I2J2282546D01*
G01*
X48178500Y-23008000D02*
G75*
G02*
X49178500Y-24008000I1J-999999D01*
G01*
X49178500Y-26658000D02*
G75*
G02*
X48178500Y-27658000I-999999J-1D01*
G01*
X49373500Y-28433000D02*
G75*
G02*
X48373500Y-28433000I-500000J0D01*
G01*
X48373500Y-28433000D02*
G75*
G02*
X49373500Y-28433000I500000J0D01*
G01*
X17523500Y-66733000D02*
X21523500Y-66733000D01*
X17523500Y-66943000D02*
X21423500Y-66933000D01*
X17523500Y-67083000D02*
X21373500Y-67083000D01*
X17523500Y-67233000D02*
X21273500Y-67233000D01*
X17523500Y-67383000D02*
X21273500Y-67383000D01*
X17523500Y-67533000D02*
X21298500Y-67533000D01*
X17523500Y-67683000D02*
X21223500Y-67683000D01*
X17523500Y-67833000D02*
X21273500Y-67833000D01*
X17523500Y-67983000D02*
X21273500Y-67983000D01*
X17523500Y-68133000D02*
X21273500Y-68133000D01*
X17523500Y-68283000D02*
X21273500Y-68283000D01*
X17523500Y-68433000D02*
X21273500Y-68433000D01*
X17523500Y-68583000D02*
X21273500Y-68583000D01*
X17523500Y-68733000D02*
X21273500Y-68733000D01*
X17523500Y-68883000D02*
X21273500Y-68883000D01*
X17523500Y-69033000D02*
X21273500Y-69033000D01*
X17523500Y-69183000D02*
X21273500Y-69183000D01*
X17523500Y-69333000D02*
X21273500Y-69333000D01*
X17523500Y-69483000D02*
X21273500Y-69483000D01*
X17523500Y-69633000D02*
X21273500Y-69633000D01*
X17523500Y-69783000D02*
X21273500Y-69783000D01*
X17523500Y-69933000D02*
X21273500Y-69933000D01*
X17523500Y-70083000D02*
X21273500Y-70083000D01*
X17523500Y-70233000D02*
X21173500Y-70233000D01*
X17523500Y-70383000D02*
X21043500Y-70383000D01*
X17523500Y-70533000D02*
X20883500Y-70533000D01*
X17523500Y-70683000D02*
X20743500Y-70683000D01*
X17523500Y-70783000D02*
X20643500Y-70783000D01*
X17523500Y-70883000D02*
X20543500Y-70883000D01*
X17523500Y-70933000D02*
X17523500Y-66733000D01*
X17573500Y-66833000D02*
X21473500Y-66833000D01*
X17603500Y-66633000D02*
X21623500Y-66633000D01*
X17673500Y-66533000D02*
X17523500Y-66733000D01*
X17673500Y-66533000D02*
X21823500Y-66533000D01*
X17853500Y-66433000D02*
X21973500Y-66433000D01*
X18023500Y-66333000D02*
X22923500Y-66333000D01*
X18173500Y-66183000D02*
X23123500Y-66183000D01*
X18323500Y-66033000D02*
X23313500Y-66033000D01*
X18423500Y-65883000D02*
X23393500Y-65883000D01*
X18523500Y-65733000D02*
X23443500Y-65733000D01*
X18623500Y-65583000D02*
X23473500Y-65583000D01*
X18673500Y-65433000D02*
X23493500Y-65433000D01*
X18773500Y-65283000D02*
X23483500Y-65283000D01*
X18823500Y-64983000D02*
X23473500Y-64983000D01*
X18823500Y-65133000D02*
X23423500Y-65133000D01*
X18833500Y-64833000D02*
X23473500Y-64833000D01*
X18848500Y-64533000D02*
X18848500Y-62558000D01*
X18863500Y-62433000D02*
X23373500Y-62433000D01*
X18873500Y-62583000D02*
X23473500Y-62583000D01*
X18873500Y-62733000D02*
X23473500Y-62733000D01*
X18873500Y-62883000D02*
X23473500Y-62883000D01*
X18873500Y-63033000D02*
X23473500Y-63033000D01*
X18873500Y-63183000D02*
X23473500Y-63183000D01*
X18873500Y-63333000D02*
X23473500Y-63333000D01*
X18873500Y-63483000D02*
X23473500Y-63483000D01*
X18873500Y-63633000D02*
X23473500Y-63633000D01*
X18873500Y-63783000D02*
X23473500Y-63783000D01*
X18873500Y-63933000D02*
X23473500Y-63933000D01*
X18873500Y-64083000D02*
X23473500Y-64083000D01*
X18873500Y-64233000D02*
X23473500Y-64233000D01*
X18873500Y-64383000D02*
X23473500Y-64383000D01*
X18873500Y-64533000D02*
X23473500Y-64533000D01*
X18873500Y-64683000D02*
X23423500Y-64683000D01*
X18903500Y-62283000D02*
X23223500Y-62283000D01*
X18953500Y-62133000D02*
X23073500Y-62133000D01*
X19033500Y-61983000D02*
X23173500Y-61983000D01*
X19173500Y-61833000D02*
X23143500Y-61833000D01*
X19343500Y-61683000D02*
X23023500Y-61683000D01*
X20298500Y-71133000D02*
X17648500Y-71133000D01*
X20298500Y-71133000D02*
X21298500Y-70133000D01*
X21298500Y-70133000D02*
X21298500Y-67558000D01*
X22473500Y-66383000D02*
X22796613Y-66383000D01*
X22498500Y-61528000D02*
X19848500Y-61528000D01*
D13*
X23318500Y-58633000D02*
X21818500Y-58633000D01*
X23318500Y-63033000D02*
X23318500Y-58633000D01*
D11*
X23498500Y-65521796D02*
X23498500Y-62558000D01*
X18848500Y-62528000D02*
G75*
G02*
X19848500Y-61528000I999999J1D01*
G01*
X18856042Y-64533000D02*
G75*
G02*
X17673500Y-66533000I-2282546J2D01*
G01*
X21298500Y-67558000D02*
G75*
G02*
X22473500Y-66383000I1175002J-2D01*
G01*
X22498500Y-61528000D02*
G75*
G02*
X23498500Y-62528000I1J-999999D01*
G01*
X23498500Y-65521796D02*
G75*
G02*
X22796613Y-66383000I-926887J38796D01*
G01*
X24773500Y-58833000D02*
G75*
G02*
X23773500Y-58833000I-500000J0D01*
G01*
X23773500Y-58833000D02*
G75*
G02*
X24773500Y-58833000I500000J0D01*
G01*
D13*
X82673500Y-62188000D02*
X82673500Y-63688000D01*
D11*
X85568500Y-63008000D02*
X85568500Y-65658000D01*
X85723500Y-66163000D02*
X85723500Y-62483000D01*
X85873500Y-66333000D02*
X85873500Y-62363000D01*
X86023500Y-66473000D02*
X86023500Y-62333000D01*
X86173500Y-66553000D02*
X86173500Y-62433000D01*
X86323500Y-66603000D02*
X86323500Y-62283000D01*
X86473500Y-66643000D02*
X86473500Y-62133000D01*
X86623500Y-66633000D02*
X86623500Y-62033000D01*
X86773500Y-66633000D02*
X86773500Y-62033000D01*
X86923500Y-66633000D02*
X86923500Y-62033000D01*
D13*
X87073500Y-62188000D02*
X82673500Y-62188000D01*
D11*
X87073500Y-66633000D02*
X87073500Y-62033000D01*
X87223500Y-66633000D02*
X87223500Y-62033000D01*
X87373500Y-66633000D02*
X87373500Y-62033000D01*
X87523500Y-66633000D02*
X87523500Y-62033000D01*
X87673500Y-66633000D02*
X87673500Y-62033000D01*
X87823500Y-66633000D02*
X87823500Y-62033000D01*
X87973500Y-66633000D02*
X87973500Y-62033000D01*
X88123500Y-66633000D02*
X88123500Y-62033000D01*
X88273500Y-66633000D02*
X88273500Y-62033000D01*
X88423500Y-66633000D02*
X88423500Y-62033000D01*
X88573500Y-66633000D02*
X88573500Y-62033000D01*
X88573500Y-66658000D02*
X86598500Y-66658000D01*
X88723500Y-66633000D02*
X88723500Y-62083000D01*
X88873500Y-66673000D02*
X88873500Y-62033000D01*
X89023500Y-66683000D02*
X89023500Y-62033000D01*
X89173500Y-66683000D02*
X89173500Y-62083000D01*
X89323500Y-66733000D02*
X89323500Y-62023000D01*
X89473500Y-66833000D02*
X89473500Y-62013000D01*
X89562296Y-62008000D02*
X86598500Y-62008000D01*
X89623500Y-66883000D02*
X89623500Y-62033000D01*
X89773500Y-66983000D02*
X89773500Y-62063000D01*
X89923500Y-67083000D02*
X89923500Y-62113000D01*
X90073500Y-67183000D02*
X90073500Y-62193000D01*
X90223500Y-67333000D02*
X90223500Y-62383000D01*
X90373500Y-67483000D02*
X90373500Y-62583000D01*
X90423500Y-63033000D02*
X90423500Y-62709887D01*
X90473500Y-67653000D02*
X90473500Y-63533000D01*
X90573500Y-67833000D02*
X90573500Y-63683000D01*
X90573500Y-67833000D02*
X91848500Y-68858000D01*
X90673500Y-67903000D02*
X90673500Y-63883000D01*
X90773500Y-67983000D02*
X90773500Y-63983000D01*
X90873500Y-68063000D02*
X90873500Y-64033000D01*
X90983500Y-68153000D02*
X90973500Y-64083000D01*
X91123500Y-68253000D02*
X91123500Y-64133000D01*
X91273500Y-68393000D02*
X91273500Y-64233000D01*
X91423500Y-68513000D02*
X91423500Y-64233000D01*
X91573500Y-68623000D02*
X91573500Y-64233000D01*
X91723500Y-68743000D02*
X91723500Y-64283000D01*
X91873500Y-68833000D02*
X91873500Y-64233000D01*
X92023500Y-68833000D02*
X92023500Y-64233000D01*
X92173500Y-68833000D02*
X92173500Y-64233000D01*
X92323500Y-68833000D02*
X92323500Y-64233000D01*
X92473500Y-68833000D02*
X92473500Y-64233000D01*
X92623500Y-68833000D02*
X92623500Y-64233000D01*
X92773500Y-68833000D02*
X92773500Y-64233000D01*
X92923500Y-68833000D02*
X92923500Y-64233000D01*
X93073500Y-68833000D02*
X93073500Y-64233000D01*
X93223500Y-68833000D02*
X93223500Y-64233000D01*
X93373500Y-68833000D02*
X93373500Y-64233000D01*
X93523500Y-68833000D02*
X93523500Y-64233000D01*
X93673500Y-68833000D02*
X93673500Y-64233000D01*
X93823500Y-68833000D02*
X93823500Y-64233000D01*
X93973500Y-68833000D02*
X93973500Y-64233000D01*
X94123500Y-68833000D02*
X94123500Y-64233000D01*
X94173500Y-64208000D02*
X91598500Y-64208000D01*
X94173500Y-68858000D02*
X91848500Y-68858000D01*
X94273500Y-68723000D02*
X94273500Y-64333000D01*
X94423500Y-68583000D02*
X94423500Y-64463000D01*
X94573500Y-68453000D02*
X94573500Y-64623000D01*
X94723500Y-68293000D02*
X94723500Y-64763000D01*
X94823500Y-68193000D02*
X94823500Y-64863000D01*
X94923500Y-68083000D02*
X94923500Y-64963000D01*
X95023500Y-68003000D02*
X95023500Y-65073000D01*
X95173500Y-65208000D02*
X94173500Y-64208000D01*
X95173500Y-65208000D02*
X95173500Y-67858000D01*
X95173500Y-67858000D02*
X94173500Y-68858000D01*
X85568500Y-63008000D02*
G75*
G02*
X86568500Y-62008000I999999J1D01*
G01*
X86568500Y-66658000D02*
G75*
G02*
X85568500Y-65658000I-1J999999D01*
G01*
X88573500Y-66650458D02*
G75*
G02*
X90573500Y-67833000I-2J-2282546D01*
G01*
X89562296Y-62008000D02*
G75*
G02*
X90423500Y-62709887I-38796J-926887D01*
G01*
X91598500Y-64208000D02*
G75*
G02*
X90423500Y-63033000I2J1175002D01*
G01*
X83373500Y-61233000D02*
G75*
G02*
X82373500Y-61233000I-500000J0D01*
G01*
X82373500Y-61233000D02*
G75*
G02*
X83373500Y-61233000I500000J0D01*
G01*
D13*
X31673500Y-81588000D02*
X31673500Y-83088000D01*
D11*
X34568500Y-82408000D02*
X34568500Y-85058000D01*
X34723500Y-85563000D02*
X34723500Y-81883000D01*
X34873500Y-85733000D02*
X34873500Y-81763000D01*
X35023500Y-85873000D02*
X35023500Y-81733000D01*
X35173500Y-85953000D02*
X35173500Y-81833000D01*
X35323500Y-86003000D02*
X35323500Y-81683000D01*
X35473500Y-86043000D02*
X35473500Y-81533000D01*
X35623500Y-86033000D02*
X35623500Y-81433000D01*
X35773500Y-86033000D02*
X35773500Y-81433000D01*
X35923500Y-86033000D02*
X35923500Y-81433000D01*
D13*
X36073500Y-81588000D02*
X31673500Y-81588000D01*
D11*
X36073500Y-86033000D02*
X36073500Y-81433000D01*
X36223500Y-86033000D02*
X36223500Y-81433000D01*
X36373500Y-86033000D02*
X36373500Y-81433000D01*
X36523500Y-86033000D02*
X36523500Y-81433000D01*
X36673500Y-86033000D02*
X36673500Y-81433000D01*
X36823500Y-86033000D02*
X36823500Y-81433000D01*
X36973500Y-86033000D02*
X36973500Y-81433000D01*
X37123500Y-86033000D02*
X37123500Y-81433000D01*
X37273500Y-86033000D02*
X37273500Y-81433000D01*
X37423500Y-86033000D02*
X37423500Y-81433000D01*
X37573500Y-86033000D02*
X37573500Y-81433000D01*
X37573500Y-86058000D02*
X35598500Y-86058000D01*
X37723500Y-86033000D02*
X37723500Y-81483000D01*
X37873500Y-86073000D02*
X37873500Y-81433000D01*
X38023500Y-86083000D02*
X38023500Y-81433000D01*
X38173500Y-86083000D02*
X38173500Y-81483000D01*
X38323500Y-86133000D02*
X38323500Y-81423000D01*
X38473500Y-86233000D02*
X38473500Y-81413000D01*
X38562296Y-81408000D02*
X35598500Y-81408000D01*
X38623500Y-86283000D02*
X38623500Y-81433000D01*
X38773500Y-86383000D02*
X38773500Y-81463000D01*
X38923500Y-86483000D02*
X38923500Y-81513000D01*
X39073500Y-86583000D02*
X39073500Y-81593000D01*
X39223500Y-86733000D02*
X39223500Y-81783000D01*
X39373500Y-86883000D02*
X39373500Y-81983000D01*
X39423500Y-82433000D02*
X39423500Y-82109887D01*
X39473500Y-87053000D02*
X39473500Y-82933000D01*
X39573500Y-87233000D02*
X39573500Y-83083000D01*
X39573500Y-87233000D02*
X40848500Y-88258000D01*
X39673500Y-87303000D02*
X39673500Y-83283000D01*
X39773500Y-87383000D02*
X39773500Y-83383000D01*
X39873500Y-87463000D02*
X39873500Y-83433000D01*
X39983500Y-87553000D02*
X39973500Y-83483000D01*
X40123500Y-87653000D02*
X40123500Y-83533000D01*
X40273500Y-87793000D02*
X40273500Y-83633000D01*
X40423500Y-87913000D02*
X40423500Y-83633000D01*
X40573500Y-88023000D02*
X40573500Y-83633000D01*
X40723500Y-88143000D02*
X40723500Y-83683000D01*
X40873500Y-88233000D02*
X40873500Y-83633000D01*
X41023500Y-88233000D02*
X41023500Y-83633000D01*
X41173500Y-88233000D02*
X41173500Y-83633000D01*
X41323500Y-88233000D02*
X41323500Y-83633000D01*
X41473500Y-88233000D02*
X41473500Y-83633000D01*
X41623500Y-88233000D02*
X41623500Y-83633000D01*
X41773500Y-88233000D02*
X41773500Y-83633000D01*
X41923500Y-88233000D02*
X41923500Y-83633000D01*
X42073500Y-88233000D02*
X42073500Y-83633000D01*
X42223500Y-88233000D02*
X42223500Y-83633000D01*
X42373500Y-88233000D02*
X42373500Y-83633000D01*
X42523500Y-88233000D02*
X42523500Y-83633000D01*
X42673500Y-88233000D02*
X42673500Y-83633000D01*
X42823500Y-88233000D02*
X42823500Y-83633000D01*
X42973500Y-88233000D02*
X42973500Y-83633000D01*
X43123500Y-88233000D02*
X43123500Y-83633000D01*
X43173500Y-83608000D02*
X40598500Y-83608000D01*
X43173500Y-88258000D02*
X40848500Y-88258000D01*
X43273500Y-88123000D02*
X43273500Y-83733000D01*
X43423500Y-87983000D02*
X43423500Y-83863000D01*
X43573500Y-87853000D02*
X43573500Y-84023000D01*
X43723500Y-87693000D02*
X43723500Y-84163000D01*
X43823500Y-87593000D02*
X43823500Y-84263000D01*
X43923500Y-87483000D02*
X43923500Y-84363000D01*
X44023500Y-87403000D02*
X44023500Y-84473000D01*
X44173500Y-84608000D02*
X43173500Y-83608000D01*
X44173500Y-84608000D02*
X44173500Y-87258000D01*
X44173500Y-87258000D02*
X43173500Y-88258000D01*
X34568500Y-82408000D02*
G75*
G02*
X35568500Y-81408000I999999J1D01*
G01*
X35568500Y-86058000D02*
G75*
G02*
X34568500Y-85058000I-1J999999D01*
G01*
X37573500Y-86050458D02*
G75*
G02*
X39573500Y-87233000I-2J-2282546D01*
G01*
X38562296Y-81408000D02*
G75*
G02*
X39423500Y-82109887I-38796J-926887D01*
G01*
X40598500Y-83608000D02*
G75*
G02*
X39423500Y-82433000I2J1175002D01*
G01*
X32373500Y-80633000D02*
G75*
G02*
X31373500Y-80633000I-500000J0D01*
G01*
X31373500Y-80633000D02*
G75*
G02*
X32373500Y-80633000I500000J0D01*
G01*
D12*
X88932843Y-40133000D02*
X89131281Y-40133000D01*
X89131281Y-39537686D02*
X89131281Y-40728314D01*
X89131281Y-40728314D02*
X90718785Y-40728314D01*
X89528157Y-40728314D02*
X89528157Y-39537686D01*
X90718785Y-39537686D02*
X89131281Y-39537686D01*
X90718785Y-40133000D02*
X90917223Y-40133000D01*
X90718785Y-40728314D02*
X90718785Y-39537686D01*
X70832843Y-30533000D02*
X71031281Y-30533000D01*
X71031281Y-29937686D02*
X71031281Y-31128314D01*
X71031281Y-31128314D02*
X72618785Y-31128314D01*
X71428157Y-31128314D02*
X71428157Y-29937686D01*
X72618785Y-29937686D02*
X71031281Y-29937686D01*
X72618785Y-30533000D02*
X72817223Y-30533000D01*
X72618785Y-31128314D02*
X72618785Y-29937686D01*
X104806343Y-65033000D02*
X105004781Y-65033000D01*
X105004781Y-64437686D02*
X105004781Y-65628314D01*
X105004781Y-65628314D02*
X106592285Y-65628314D01*
X105401657Y-65628314D02*
X105401657Y-64437686D01*
X106592285Y-64437686D02*
X105004781Y-64437686D01*
X106592285Y-65033000D02*
X106790723Y-65033000D01*
X106592285Y-65628314D02*
X106592285Y-64437686D01*
X49332843Y-64233000D02*
X49531281Y-64233000D01*
X49531281Y-63637686D02*
X49531281Y-64828314D01*
X49531281Y-64828314D02*
X51118785Y-64828314D01*
X49928157Y-64828314D02*
X49928157Y-63637686D01*
X51118785Y-63637686D02*
X49531281Y-63637686D01*
X51118785Y-64233000D02*
X51317223Y-64233000D01*
X51118785Y-64828314D02*
X51118785Y-63637686D01*
X28332843Y-71733000D02*
X28531281Y-71733000D01*
X28531281Y-71137686D02*
X28531281Y-72328314D01*
X28531281Y-72328314D02*
X30118785Y-72328314D01*
X28928157Y-72328314D02*
X28928157Y-71137686D01*
X30118785Y-71137686D02*
X28531281Y-71137686D01*
X30118785Y-71733000D02*
X30317223Y-71733000D01*
X30118785Y-72328314D02*
X30118785Y-71137686D01*
D13*
X82673500Y-28213000D02*
X82673500Y-29713000D01*
D11*
X85568500Y-29033000D02*
X85568500Y-31683000D01*
X85723500Y-32188000D02*
X85723500Y-28508000D01*
X85873500Y-32358000D02*
X85873500Y-28388000D01*
X86023500Y-32498000D02*
X86023500Y-28358000D01*
X86173500Y-32578000D02*
X86173500Y-28458000D01*
X86323500Y-32628000D02*
X86323500Y-28308000D01*
X86473500Y-32668000D02*
X86473500Y-28158000D01*
X86623500Y-32658000D02*
X86623500Y-28058000D01*
X86773500Y-32658000D02*
X86773500Y-28058000D01*
X86923500Y-32658000D02*
X86923500Y-28058000D01*
D13*
X87073500Y-28213000D02*
X82673500Y-28213000D01*
D11*
X87073500Y-32658000D02*
X87073500Y-28058000D01*
X87223500Y-32658000D02*
X87223500Y-28058000D01*
X87373500Y-32658000D02*
X87373500Y-28058000D01*
X87523500Y-32658000D02*
X87523500Y-28058000D01*
X87673500Y-32658000D02*
X87673500Y-28058000D01*
X87823500Y-32658000D02*
X87823500Y-28058000D01*
X87973500Y-32658000D02*
X87973500Y-28058000D01*
X88123500Y-32658000D02*
X88123500Y-28058000D01*
X88273500Y-32658000D02*
X88273500Y-28058000D01*
X88423500Y-32658000D02*
X88423500Y-28058000D01*
X88573500Y-32658000D02*
X88573500Y-28058000D01*
X88573500Y-32683000D02*
X86598500Y-32683000D01*
X88723500Y-32658000D02*
X88723500Y-28108000D01*
X88873500Y-32698000D02*
X88873500Y-28058000D01*
X89023500Y-32708000D02*
X89023500Y-28058000D01*
X89173500Y-32708000D02*
X89173500Y-28108000D01*
X89323500Y-32758000D02*
X89323500Y-28048000D01*
X89473500Y-32858000D02*
X89473500Y-28038000D01*
X89562296Y-28033000D02*
X86598500Y-28033000D01*
X89623500Y-32908000D02*
X89623500Y-28058000D01*
X89773500Y-33008000D02*
X89773500Y-28088000D01*
X89923500Y-33108000D02*
X89923500Y-28138000D01*
X90073500Y-33208000D02*
X90073500Y-28218000D01*
X90223500Y-33358000D02*
X90223500Y-28408000D01*
X90373500Y-33508000D02*
X90373500Y-28608000D01*
X90423500Y-29058000D02*
X90423500Y-28734887D01*
X90473500Y-33678000D02*
X90473500Y-29558000D01*
X90573500Y-33858000D02*
X90573500Y-29708000D01*
X90573500Y-33858000D02*
X91848500Y-34883000D01*
X90673500Y-33928000D02*
X90673500Y-29908000D01*
X90773500Y-34008000D02*
X90773500Y-30008000D01*
X90873500Y-34088000D02*
X90873500Y-30058000D01*
X90983500Y-34178000D02*
X90973500Y-30108000D01*
X91123500Y-34278000D02*
X91123500Y-30158000D01*
X91273500Y-34418000D02*
X91273500Y-30258000D01*
X91423500Y-34538000D02*
X91423500Y-30258000D01*
X91573500Y-34648000D02*
X91573500Y-30258000D01*
X91723500Y-34768000D02*
X91723500Y-30308000D01*
X91873500Y-34858000D02*
X91873500Y-30258000D01*
X92023500Y-34858000D02*
X92023500Y-30258000D01*
X92173500Y-34858000D02*
X92173500Y-30258000D01*
X92323500Y-34858000D02*
X92323500Y-30258000D01*
X92473500Y-34858000D02*
X92473500Y-30258000D01*
X92623500Y-34858000D02*
X92623500Y-30258000D01*
X92773500Y-34858000D02*
X92773500Y-30258000D01*
X92923500Y-34858000D02*
X92923500Y-30258000D01*
X93073500Y-34858000D02*
X93073500Y-30258000D01*
X93223500Y-34858000D02*
X93223500Y-30258000D01*
X93373500Y-34858000D02*
X93373500Y-30258000D01*
X93523500Y-34858000D02*
X93523500Y-30258000D01*
X93673500Y-34858000D02*
X93673500Y-30258000D01*
X93823500Y-34858000D02*
X93823500Y-30258000D01*
X93973500Y-34858000D02*
X93973500Y-30258000D01*
X94123500Y-34858000D02*
X94123500Y-30258000D01*
X94173500Y-30233000D02*
X91598500Y-30233000D01*
X94173500Y-34883000D02*
X91848500Y-34883000D01*
X94273500Y-34748000D02*
X94273500Y-30358000D01*
X94423500Y-34608000D02*
X94423500Y-30488000D01*
X94573500Y-34478000D02*
X94573500Y-30648000D01*
X94723500Y-34318000D02*
X94723500Y-30788000D01*
X94823500Y-34218000D02*
X94823500Y-30888000D01*
X94923500Y-34108000D02*
X94923500Y-30988000D01*
X95023500Y-34028000D02*
X95023500Y-31098000D01*
X95173500Y-31233000D02*
X94173500Y-30233000D01*
X95173500Y-31233000D02*
X95173500Y-33883000D01*
X95173500Y-33883000D02*
X94173500Y-34883000D01*
X85568500Y-29033000D02*
G75*
G02*
X86568500Y-28033000I999999J1D01*
G01*
X86568500Y-32683000D02*
G75*
G02*
X85568500Y-31683000I-1J999999D01*
G01*
X88573500Y-32675458D02*
G75*
G02*
X90573500Y-33858000I-2J-2282546D01*
G01*
X89562296Y-28033000D02*
G75*
G02*
X90423500Y-28734887I-38796J-926887D01*
G01*
X91598500Y-30233000D02*
G75*
G02*
X90423500Y-29058000I2J1175002D01*
G01*
X83373500Y-27258000D02*
G75*
G02*
X82373500Y-27258000I-500000J0D01*
G01*
X82373500Y-27258000D02*
G75*
G02*
X83373500Y-27258000I500000J0D01*
G01*
D13*
X99673500Y-36388000D02*
X99673500Y-37888000D01*
D11*
X102568500Y-37208000D02*
X102568500Y-39858000D01*
X102723500Y-40363000D02*
X102723500Y-36683000D01*
X102873500Y-40533000D02*
X102873500Y-36563000D01*
X103023500Y-40673000D02*
X103023500Y-36533000D01*
X103173500Y-40753000D02*
X103173500Y-36633000D01*
X103323500Y-40803000D02*
X103323500Y-36483000D01*
X103473500Y-40843000D02*
X103473500Y-36333000D01*
X103623500Y-40833000D02*
X103623500Y-36233000D01*
X103773500Y-40833000D02*
X103773500Y-36233000D01*
X103923500Y-40833000D02*
X103923500Y-36233000D01*
D13*
X104073500Y-36388000D02*
X99673500Y-36388000D01*
D11*
X104073500Y-40833000D02*
X104073500Y-36233000D01*
X104223500Y-40833000D02*
X104223500Y-36233000D01*
X104373500Y-40833000D02*
X104373500Y-36233000D01*
X104523500Y-40833000D02*
X104523500Y-36233000D01*
X104673500Y-40833000D02*
X104673500Y-36233000D01*
X104823500Y-40833000D02*
X104823500Y-36233000D01*
X104973500Y-40833000D02*
X104973500Y-36233000D01*
X105123500Y-40833000D02*
X105123500Y-36233000D01*
X105273500Y-40833000D02*
X105273500Y-36233000D01*
X105423500Y-40833000D02*
X105423500Y-36233000D01*
X105573500Y-40833000D02*
X105573500Y-36233000D01*
X105573500Y-40858000D02*
X103598500Y-40858000D01*
X105723500Y-40833000D02*
X105723500Y-36283000D01*
X105873500Y-40873000D02*
X105873500Y-36233000D01*
X106023500Y-40883000D02*
X106023500Y-36233000D01*
X106173500Y-40883000D02*
X106173500Y-36283000D01*
X106323500Y-40933000D02*
X106323500Y-36223000D01*
X106473500Y-41033000D02*
X106473500Y-36213000D01*
X106562296Y-36208000D02*
X103598500Y-36208000D01*
X106623500Y-41083000D02*
X106623500Y-36233000D01*
X106773500Y-41183000D02*
X106773500Y-36263000D01*
X106923500Y-41283000D02*
X106923500Y-36313000D01*
X107073500Y-41383000D02*
X107073500Y-36393000D01*
X107223500Y-41533000D02*
X107223500Y-36583000D01*
X107373500Y-41683000D02*
X107373500Y-36783000D01*
X107423500Y-37233000D02*
X107423500Y-36909887D01*
X107473500Y-41853000D02*
X107473500Y-37733000D01*
X107573500Y-42033000D02*
X107573500Y-37883000D01*
X107573500Y-42033000D02*
X108848500Y-43058000D01*
X107673500Y-42103000D02*
X107673500Y-38083000D01*
X107773500Y-42183000D02*
X107773500Y-38183000D01*
X107873500Y-42263000D02*
X107873500Y-38233000D01*
X107983500Y-42353000D02*
X107973500Y-38283000D01*
X108123500Y-42453000D02*
X108123500Y-38333000D01*
X108273500Y-42593000D02*
X108273500Y-38433000D01*
X108423500Y-42713000D02*
X108423500Y-38433000D01*
X108573500Y-42823000D02*
X108573500Y-38433000D01*
X108723500Y-42943000D02*
X108723500Y-38483000D01*
X108873500Y-43033000D02*
X108873500Y-38433000D01*
X109023500Y-43033000D02*
X109023500Y-38433000D01*
X109173500Y-43033000D02*
X109173500Y-38433000D01*
X109323500Y-43033000D02*
X109323500Y-38433000D01*
X109473500Y-43033000D02*
X109473500Y-38433000D01*
X109623500Y-43033000D02*
X109623500Y-38433000D01*
X109773500Y-43033000D02*
X109773500Y-38433000D01*
X109923500Y-43033000D02*
X109923500Y-38433000D01*
X110073500Y-43033000D02*
X110073500Y-38433000D01*
X110223500Y-43033000D02*
X110223500Y-38433000D01*
X110373500Y-43033000D02*
X110373500Y-38433000D01*
X110523500Y-43033000D02*
X110523500Y-38433000D01*
X110673500Y-43033000D02*
X110673500Y-38433000D01*
X110823500Y-43033000D02*
X110823500Y-38433000D01*
X110973500Y-43033000D02*
X110973500Y-38433000D01*
X111123500Y-43033000D02*
X111123500Y-38433000D01*
X111173500Y-38408000D02*
X108598500Y-38408000D01*
X111173500Y-43058000D02*
X108848500Y-43058000D01*
X111273500Y-42923000D02*
X111273500Y-38533000D01*
X111423500Y-42783000D02*
X111423500Y-38663000D01*
X111573500Y-42653000D02*
X111573500Y-38823000D01*
X111723500Y-42493000D02*
X111723500Y-38963000D01*
X111823500Y-42393000D02*
X111823500Y-39063000D01*
X111923500Y-42283000D02*
X111923500Y-39163000D01*
X112023500Y-42203000D02*
X112023500Y-39273000D01*
X112173500Y-39408000D02*
X111173500Y-38408000D01*
X112173500Y-39408000D02*
X112173500Y-42058000D01*
X112173500Y-42058000D02*
X111173500Y-43058000D01*
X102568500Y-37208000D02*
G75*
G02*
X103568500Y-36208000I999999J1D01*
G01*
X103568500Y-40858000D02*
G75*
G02*
X102568500Y-39858000I-1J999999D01*
G01*
X105573500Y-40850458D02*
G75*
G02*
X107573500Y-42033000I-2J-2282546D01*
G01*
X106562296Y-36208000D02*
G75*
G02*
X107423500Y-36909887I-38796J-926887D01*
G01*
X108598500Y-38408000D02*
G75*
G02*
X107423500Y-37233000I2J1175002D01*
G01*
X100373500Y-35433000D02*
G75*
G02*
X99373500Y-35433000I-500000J0D01*
G01*
X99373500Y-35433000D02*
G75*
G02*
X100373500Y-35433000I500000J0D01*
G01*
D12*
X28522844Y-79303000D02*
X28721281Y-79303000D01*
X28721281Y-78707686D02*
X28721281Y-79898314D01*
X28721281Y-79898314D02*
X30308785Y-79898314D01*
X29118157Y-79898314D02*
X29118157Y-78707686D01*
X30308785Y-78707686D02*
X28721281Y-78707686D01*
X30308785Y-79303000D02*
X30507223Y-79303000D01*
X30308785Y-79898314D02*
X30308785Y-78707686D01*
D11*
X73573500Y-50308000D02*
X74573500Y-49308000D01*
X73573500Y-52958000D02*
X73573500Y-50308000D01*
X73573500Y-52958000D02*
X74573500Y-53958000D01*
X73723500Y-50163000D02*
X73723500Y-53093000D01*
X73823500Y-50083000D02*
X73823500Y-53203000D01*
X73923500Y-49973000D02*
X73923500Y-53303000D01*
X74023500Y-49873000D02*
X74023500Y-53403000D01*
X74173500Y-49713000D02*
X74173500Y-53543000D01*
X74323500Y-49583000D02*
X74323500Y-53703000D01*
X74473500Y-49443000D02*
X74473500Y-53833000D01*
X74573500Y-49308000D02*
X76898500Y-49308000D01*
X74573500Y-53958000D02*
X77148500Y-53958000D01*
X74623500Y-49333000D02*
X74623500Y-53933000D01*
X74773500Y-49333000D02*
X74773500Y-53933000D01*
X74923500Y-49333000D02*
X74923500Y-53933000D01*
X75073500Y-49333000D02*
X75073500Y-53933000D01*
X75223500Y-49333000D02*
X75223500Y-53933000D01*
X75373500Y-49333000D02*
X75373500Y-53933000D01*
X75523500Y-49333000D02*
X75523500Y-53933000D01*
X75673500Y-49333000D02*
X75673500Y-53933000D01*
X75823500Y-49333000D02*
X75823500Y-53933000D01*
X75973500Y-49333000D02*
X75973500Y-53933000D01*
X76123500Y-49333000D02*
X76123500Y-53933000D01*
X76273500Y-49333000D02*
X76273500Y-53933000D01*
X76423500Y-49333000D02*
X76423500Y-53933000D01*
X76573500Y-49333000D02*
X76573500Y-53933000D01*
X76723500Y-49333000D02*
X76723500Y-53933000D01*
X76873500Y-49333000D02*
X76873500Y-53933000D01*
X77023500Y-49423000D02*
X77023500Y-53883000D01*
X77173500Y-49543000D02*
X77173500Y-53933000D01*
X77323500Y-49653000D02*
X77323500Y-53933000D01*
X77473500Y-49773000D02*
X77473500Y-53933000D01*
X77623500Y-49913000D02*
X77623500Y-54033000D01*
X77763500Y-50013000D02*
X77773500Y-54083000D01*
X77873500Y-50103000D02*
X77873500Y-54133000D01*
X77973500Y-50183000D02*
X77973500Y-54183000D01*
X78073500Y-50263000D02*
X78073500Y-54283000D01*
X78173500Y-50333000D02*
X76898500Y-49308000D01*
X78173500Y-50333000D02*
X78173500Y-54483000D01*
X78273500Y-50513000D02*
X78273500Y-54633000D01*
X78323500Y-55133000D02*
X78323500Y-55456113D01*
X78373500Y-50683000D02*
X78373500Y-55583000D01*
X78523500Y-50833000D02*
X78523500Y-55783000D01*
X78673500Y-50983000D02*
X78673500Y-55973000D01*
X78823500Y-51083000D02*
X78823500Y-56053000D01*
X78973500Y-51183000D02*
X78973500Y-56103000D01*
X79123500Y-51283000D02*
X79123500Y-56133000D01*
X79184704Y-56158000D02*
X82148500Y-56158000D01*
X79273500Y-51333000D02*
X79273500Y-56153000D01*
X79423500Y-51433000D02*
X79423500Y-56143000D01*
X79573500Y-51483000D02*
X79573500Y-56083000D01*
X79723500Y-51483000D02*
X79723500Y-56133000D01*
X79873500Y-51493000D02*
X79873500Y-56133000D01*
X80023500Y-51533000D02*
X80023500Y-56083000D01*
X80173500Y-51508000D02*
X82148500Y-51508000D01*
X80173500Y-51533000D02*
X80173500Y-56133000D01*
X80323500Y-51533000D02*
X80323500Y-56133000D01*
X80473500Y-51533000D02*
X80473500Y-56133000D01*
X80623500Y-51533000D02*
X80623500Y-56133000D01*
X80773500Y-51533000D02*
X80773500Y-56133000D01*
X80923500Y-51533000D02*
X80923500Y-56133000D01*
X81073500Y-51533000D02*
X81073500Y-56133000D01*
X81223500Y-51533000D02*
X81223500Y-56133000D01*
X81373500Y-51533000D02*
X81373500Y-56133000D01*
X81523500Y-51533000D02*
X81523500Y-56133000D01*
X81673500Y-51533000D02*
X81673500Y-56133000D01*
D13*
X81673500Y-55978000D02*
X86073500Y-55978000D01*
D11*
X81823500Y-51533000D02*
X81823500Y-56133000D01*
X81973500Y-51533000D02*
X81973500Y-56133000D01*
X82123500Y-51533000D02*
X82123500Y-56133000D01*
X82273500Y-51523000D02*
X82273500Y-56033000D01*
X82423500Y-51563000D02*
X82423500Y-55883000D01*
X82573500Y-51613000D02*
X82573500Y-55733000D01*
X82723500Y-51693000D02*
X82723500Y-55833000D01*
X82873500Y-51833000D02*
X82873500Y-55803000D01*
X83023500Y-52003000D02*
X83023500Y-55683000D01*
X83178500Y-55158000D02*
X83178500Y-52508000D01*
D13*
X86073500Y-55978000D02*
X86073500Y-54478000D01*
D11*
X77148500Y-53958000D02*
G75*
G02*
X78323500Y-55133000I-2J-1175002D01*
G01*
X79184704Y-56158000D02*
G75*
G02*
X78323500Y-55456113I38796J926887D01*
G01*
X80173500Y-51515542D02*
G75*
G02*
X78173500Y-50333000I2J2282546D01*
G01*
X82178500Y-51508000D02*
G75*
G02*
X83178500Y-52508000I1J-999999D01*
G01*
X83178500Y-55158000D02*
G75*
G02*
X82178500Y-56158000I-999999J-1D01*
G01*
X86373500Y-56933000D02*
G75*
G02*
X85373500Y-56933000I-500000J0D01*
G01*
X85373500Y-56933000D02*
G75*
G02*
X86373500Y-56933000I500000J0D01*
G01*
D12*
X104632843Y-48633000D02*
X104831281Y-48633000D01*
X104831281Y-48037686D02*
X104831281Y-49228314D01*
X104831281Y-49228314D02*
X106418785Y-49228314D01*
X105228157Y-49228314D02*
X105228157Y-48037686D01*
X106418785Y-48037686D02*
X104831281Y-48037686D01*
X106418785Y-48633000D02*
X106617223Y-48633000D01*
X106418785Y-49228314D02*
X106418785Y-48037686D01*
D11*
X17523500Y-83733000D02*
X21523500Y-83733000D01*
X17523500Y-84233000D02*
X21273500Y-84233000D01*
X17523500Y-84383000D02*
X21273500Y-84383000D01*
X17523500Y-84533000D02*
X21273500Y-84533000D01*
X17523500Y-84683000D02*
X21173500Y-84683000D01*
X17523500Y-84833000D02*
X21273500Y-84833000D01*
X17523500Y-84983000D02*
X21273500Y-84983000D01*
X17523500Y-85133000D02*
X21273500Y-85133000D01*
X17523500Y-85283000D02*
X21273500Y-85283000D01*
X17523500Y-85433000D02*
X21273500Y-85433000D01*
X17523500Y-85583000D02*
X21273500Y-85583000D01*
X17523500Y-85733000D02*
X21273500Y-85733000D01*
X17523500Y-85883000D02*
X21273500Y-85883000D01*
X17523500Y-87083000D02*
X21273500Y-87083000D01*
X17523500Y-87233000D02*
X21173500Y-87233000D01*
X17523500Y-87383000D02*
X21043500Y-87383000D01*
X17523500Y-87533000D02*
X20898500Y-87533000D01*
X17523500Y-87683000D02*
X20743500Y-87683000D01*
X17523500Y-87783000D02*
X20643500Y-87783000D01*
X17523500Y-87883000D02*
X17523500Y-83733000D01*
X17523500Y-87883000D02*
X20543500Y-87883000D01*
X17573500Y-83833000D02*
X21523500Y-83833000D01*
X17573500Y-83943000D02*
X21373500Y-83933000D01*
X17573500Y-84083000D02*
X21373500Y-84083000D01*
X17573500Y-86033000D02*
X21273500Y-86033000D01*
X17573500Y-86183000D02*
X21273500Y-86183000D01*
X17573500Y-86333000D02*
X21273500Y-86333000D01*
X17573500Y-86483000D02*
X21273500Y-86483000D01*
X17573500Y-86633000D02*
X21273500Y-86633000D01*
X17573500Y-86783000D02*
X21273500Y-86783000D01*
X17573500Y-86933000D02*
X21273500Y-86933000D01*
X17603500Y-83633000D02*
X21623500Y-83633000D01*
X17673500Y-83533000D02*
X17512716Y-83733000D01*
X17673500Y-83533000D02*
X21823500Y-83533000D01*
X17853500Y-83433000D02*
X21973500Y-83433000D01*
X18023500Y-83333000D02*
X22923500Y-83333000D01*
X18173500Y-83183000D02*
X23123500Y-83183000D01*
X18323500Y-83033000D02*
X23313500Y-83033000D01*
X18423500Y-82883000D02*
X23393500Y-82883000D01*
X18523500Y-82733000D02*
X23443500Y-82733000D01*
X18623500Y-82583000D02*
X23473500Y-82583000D01*
X18673500Y-82433000D02*
X23493500Y-82433000D01*
X18773500Y-82283000D02*
X23483500Y-82283000D01*
X18823500Y-81983000D02*
X23473500Y-81983000D01*
X18823500Y-82133000D02*
X23423500Y-82133000D01*
X18833500Y-81833000D02*
X23473500Y-81833000D01*
X18848500Y-81533000D02*
X18848500Y-79558000D01*
X18863500Y-79433000D02*
X23373500Y-79433000D01*
X18873500Y-79583000D02*
X23473500Y-79583000D01*
X18873500Y-79733000D02*
X23473500Y-79733000D01*
X18873500Y-79883000D02*
X23473500Y-79883000D01*
X18873500Y-80033000D02*
X23473500Y-80033000D01*
X18873500Y-80183000D02*
X23473500Y-80183000D01*
X18873500Y-80333000D02*
X23473500Y-80333000D01*
X18873500Y-80483000D02*
X23473500Y-80483000D01*
X18873500Y-80633000D02*
X23473500Y-80633000D01*
X18873500Y-80783000D02*
X23473500Y-80783000D01*
X18873500Y-80933000D02*
X23473500Y-80933000D01*
X18873500Y-81083000D02*
X23473500Y-81083000D01*
X18873500Y-81233000D02*
X23473500Y-81233000D01*
X18873500Y-81383000D02*
X23473500Y-81383000D01*
X18873500Y-81533000D02*
X23473500Y-81533000D01*
X18873500Y-81683000D02*
X23423500Y-81683000D01*
X18903500Y-79283000D02*
X23223500Y-79283000D01*
X18953500Y-79133000D02*
X23073500Y-79133000D01*
X19033500Y-78983000D02*
X23173500Y-78983000D01*
X19173500Y-78833000D02*
X23143500Y-78833000D01*
X19343500Y-78683000D02*
X23023500Y-78683000D01*
X20298500Y-88133000D02*
X17648500Y-88133000D01*
X20298500Y-88133000D02*
X21298500Y-87133000D01*
X21298500Y-87133000D02*
X21298500Y-84558000D01*
X22473500Y-83383000D02*
X22796613Y-83383000D01*
X22498500Y-78528000D02*
X19848500Y-78528000D01*
D13*
X23318500Y-75633000D02*
X21818500Y-75633000D01*
X23318500Y-80033000D02*
X23318500Y-75633000D01*
D11*
X23498500Y-82521796D02*
X23498500Y-79558000D01*
X18848500Y-79528000D02*
G75*
G02*
X19848500Y-78528000I999999J1D01*
G01*
X18856042Y-81533000D02*
G75*
G02*
X17673500Y-83533000I-2282546J2D01*
G01*
X21298500Y-84558000D02*
G75*
G02*
X22473500Y-83383000I1175002J-2D01*
G01*
X22498500Y-78528000D02*
G75*
G02*
X23498500Y-79528000I1J-999999D01*
G01*
X23498500Y-82521796D02*
G75*
G02*
X22796613Y-83383000I-926887J38796D01*
G01*
X24773500Y-75833000D02*
G75*
G02*
X23773500Y-75833000I-500000J0D01*
G01*
X23773500Y-75833000D02*
G75*
G02*
X24773500Y-75833000I500000J0D01*
G01*
D12*
X104632843Y-45833000D02*
X104831281Y-45833000D01*
X104831281Y-45237686D02*
X104831281Y-46428314D01*
X104831281Y-46428314D02*
X106418785Y-46428314D01*
X105228157Y-46428314D02*
X105228157Y-45237686D01*
X106418785Y-45237686D02*
X104831281Y-45237686D01*
X106418785Y-45833000D02*
X106617223Y-45833000D01*
X106418785Y-46428314D02*
X106418785Y-45237686D01*
D13*
X99673500Y-70388000D02*
X99673500Y-71888000D01*
D11*
X102568500Y-71208000D02*
X102568500Y-73858000D01*
X102723500Y-74363000D02*
X102723500Y-70683000D01*
X102873500Y-74533000D02*
X102873500Y-70563000D01*
X103023500Y-74673000D02*
X103023500Y-70533000D01*
X103173500Y-74753000D02*
X103173500Y-70633000D01*
X103323500Y-74803000D02*
X103323500Y-70483000D01*
X103473500Y-74843000D02*
X103473500Y-70333000D01*
X103623500Y-74833000D02*
X103623500Y-70233000D01*
X103773500Y-74833000D02*
X103773500Y-70233000D01*
X103923500Y-74833000D02*
X103923500Y-70233000D01*
D13*
X104073500Y-70388000D02*
X99673500Y-70388000D01*
D11*
X104073500Y-74833000D02*
X104073500Y-70233000D01*
X104223500Y-74833000D02*
X104223500Y-70233000D01*
X104373500Y-74833000D02*
X104373500Y-70233000D01*
X104523500Y-74833000D02*
X104523500Y-70233000D01*
X104673500Y-74833000D02*
X104673500Y-70233000D01*
X104823500Y-74833000D02*
X104823500Y-70233000D01*
X104973500Y-74833000D02*
X104973500Y-70233000D01*
X105123500Y-74833000D02*
X105123500Y-70233000D01*
X105273500Y-74833000D02*
X105273500Y-70233000D01*
X105423500Y-74833000D02*
X105423500Y-70233000D01*
X105573500Y-74833000D02*
X105573500Y-70233000D01*
X105573500Y-74858000D02*
X103598500Y-74858000D01*
X105723500Y-74833000D02*
X105723500Y-70283000D01*
X105873500Y-74873000D02*
X105873500Y-70233000D01*
X106023500Y-74883000D02*
X106023500Y-70233000D01*
X106173500Y-74883000D02*
X106173500Y-70283000D01*
X106323500Y-74933000D02*
X106323500Y-70223000D01*
X106473500Y-75033000D02*
X106473500Y-70213000D01*
X106562296Y-70208000D02*
X103598500Y-70208000D01*
X106623500Y-75083000D02*
X106623500Y-70233000D01*
X106773500Y-75183000D02*
X106773500Y-70263000D01*
X106923500Y-75283000D02*
X106923500Y-70313000D01*
X107073500Y-75383000D02*
X107073500Y-70393000D01*
X107223500Y-75533000D02*
X107223500Y-70583000D01*
X107373500Y-75683000D02*
X107373500Y-70783000D01*
X107423500Y-71233000D02*
X107423500Y-70909887D01*
X107473500Y-75853000D02*
X107473500Y-71733000D01*
X107573500Y-76033000D02*
X107573500Y-71883000D01*
X107573500Y-76033000D02*
X108848500Y-77058000D01*
X107673500Y-76103000D02*
X107673500Y-72083000D01*
X107773500Y-76183000D02*
X107773500Y-72183000D01*
X107873500Y-76263000D02*
X107873500Y-72233000D01*
X107983500Y-76353000D02*
X107973500Y-72283000D01*
X108123500Y-76453000D02*
X108123500Y-72333000D01*
X108273500Y-76593000D02*
X108273500Y-72433000D01*
X108423500Y-76713000D02*
X108423500Y-72433000D01*
X108573500Y-76823000D02*
X108573500Y-72433000D01*
X108723500Y-76943000D02*
X108723500Y-72483000D01*
X108873500Y-77033000D02*
X108873500Y-72433000D01*
X109023500Y-77033000D02*
X109023500Y-72433000D01*
X109173500Y-77033000D02*
X109173500Y-72433000D01*
X109323500Y-77033000D02*
X109323500Y-72433000D01*
X109473500Y-77033000D02*
X109473500Y-72433000D01*
X109623500Y-77033000D02*
X109623500Y-72433000D01*
X109773500Y-77033000D02*
X109773500Y-72433000D01*
X109923500Y-77033000D02*
X109923500Y-72433000D01*
X110073500Y-77033000D02*
X110073500Y-72433000D01*
X110223500Y-77033000D02*
X110223500Y-72433000D01*
X110373500Y-77033000D02*
X110373500Y-72433000D01*
X110523500Y-77033000D02*
X110523500Y-72433000D01*
X110673500Y-77033000D02*
X110673500Y-72433000D01*
X110823500Y-77033000D02*
X110823500Y-72433000D01*
X110973500Y-77033000D02*
X110973500Y-72433000D01*
X111123500Y-77033000D02*
X111123500Y-72433000D01*
X111173500Y-72408000D02*
X108598500Y-72408000D01*
X111173500Y-77058000D02*
X108848500Y-77058000D01*
X111273500Y-76923000D02*
X111273500Y-72533000D01*
X111423500Y-76783000D02*
X111423500Y-72663000D01*
X111573500Y-76653000D02*
X111573500Y-72823000D01*
X111723500Y-76493000D02*
X111723500Y-72963000D01*
X111823500Y-76393000D02*
X111823500Y-73063000D01*
X111923500Y-76283000D02*
X111923500Y-73163000D01*
X112023500Y-76203000D02*
X112023500Y-73273000D01*
X112173500Y-73408000D02*
X111173500Y-72408000D01*
X112173500Y-73408000D02*
X112173500Y-76058000D01*
X112173500Y-76058000D02*
X111173500Y-77058000D01*
X102568500Y-71208000D02*
G75*
G02*
X103568500Y-70208000I999999J1D01*
G01*
X103568500Y-74858000D02*
G75*
G02*
X102568500Y-73858000I-1J999999D01*
G01*
X105573500Y-74850458D02*
G75*
G02*
X107573500Y-76033000I-2J-2282546D01*
G01*
X106562296Y-70208000D02*
G75*
G02*
X107423500Y-70909887I-38796J-926887D01*
G01*
X108598500Y-72408000D02*
G75*
G02*
X107423500Y-71233000I2J1175002D01*
G01*
X100373500Y-69433000D02*
G75*
G02*
X99373500Y-69433000I-500000J0D01*
G01*
X99373500Y-69433000D02*
G75*
G02*
X100373500Y-69433000I500000J0D01*
G01*
D13*
X99673500Y-87388000D02*
X99673500Y-88888000D01*
D11*
X102568500Y-88208000D02*
X102568500Y-90858000D01*
X102723500Y-91363000D02*
X102723500Y-87683000D01*
X102873500Y-91533000D02*
X102873500Y-87563000D01*
X103023500Y-91673000D02*
X103023500Y-87533000D01*
X103173500Y-91753000D02*
X103173500Y-87633000D01*
X103323500Y-91803000D02*
X103323500Y-87483000D01*
X103473500Y-91843000D02*
X103473500Y-87333000D01*
X103623500Y-91833000D02*
X103623500Y-87233000D01*
X103773500Y-91833000D02*
X103773500Y-87233000D01*
X103923500Y-91833000D02*
X103923500Y-87233000D01*
D13*
X104073500Y-87388000D02*
X99673500Y-87388000D01*
D11*
X104073500Y-91833000D02*
X104073500Y-87233000D01*
X104223500Y-91833000D02*
X104223500Y-87233000D01*
X104373500Y-91833000D02*
X104373500Y-87233000D01*
X104523500Y-91833000D02*
X104523500Y-87233000D01*
X104673500Y-91833000D02*
X104673500Y-87233000D01*
X104823500Y-91833000D02*
X104823500Y-87233000D01*
X104973500Y-91833000D02*
X104973500Y-87233000D01*
X105123500Y-91833000D02*
X105123500Y-87233000D01*
X105273500Y-91833000D02*
X105273500Y-87233000D01*
X105423500Y-91833000D02*
X105423500Y-87233000D01*
X105573500Y-91833000D02*
X105573500Y-87233000D01*
X105573500Y-91858000D02*
X103598500Y-91858000D01*
X105723500Y-91833000D02*
X105723500Y-87283000D01*
X105873500Y-91873000D02*
X105873500Y-87233000D01*
X106023500Y-91883000D02*
X106023500Y-87233000D01*
X106173500Y-91883000D02*
X106173500Y-87283000D01*
X106323500Y-91933000D02*
X106323500Y-87223000D01*
X106473500Y-92033000D02*
X106473500Y-87213000D01*
X106562296Y-87208000D02*
X103598500Y-87208000D01*
X106623500Y-92083000D02*
X106623500Y-87233000D01*
X106773500Y-92183000D02*
X106773500Y-87263000D01*
X106923500Y-92283000D02*
X106923500Y-87313000D01*
X107073500Y-92383000D02*
X107073500Y-87393000D01*
X107223500Y-92533000D02*
X107223500Y-87583000D01*
X107373500Y-92683000D02*
X107373500Y-87783000D01*
X107423500Y-88233000D02*
X107423500Y-87909887D01*
X107473500Y-92853000D02*
X107473500Y-88733000D01*
X107573500Y-93033000D02*
X107573500Y-88883000D01*
X107573500Y-93033000D02*
X108848500Y-94058000D01*
X107673500Y-93103000D02*
X107673500Y-89083000D01*
X107773500Y-93183000D02*
X107773500Y-89183000D01*
X107873500Y-93263000D02*
X107873500Y-89233000D01*
X107983500Y-93353000D02*
X107973500Y-89283000D01*
X108123500Y-93453000D02*
X108123500Y-89333000D01*
X108273500Y-93593000D02*
X108273500Y-89433000D01*
X108423500Y-93713000D02*
X108423500Y-89433000D01*
X108573500Y-93823000D02*
X108573500Y-89433000D01*
X108723500Y-93943000D02*
X108723500Y-89483000D01*
X108873500Y-94033000D02*
X108873500Y-89433000D01*
X109023500Y-94033000D02*
X109023500Y-89433000D01*
X109173500Y-94033000D02*
X109173500Y-89433000D01*
X109323500Y-94033000D02*
X109323500Y-89433000D01*
X109473500Y-94033000D02*
X109473500Y-89433000D01*
X109623500Y-94033000D02*
X109623500Y-89433000D01*
X109773500Y-94033000D02*
X109773500Y-89433000D01*
X109923500Y-94033000D02*
X109923500Y-89433000D01*
X110073500Y-94033000D02*
X110073500Y-89433000D01*
X110223500Y-94033000D02*
X110223500Y-89433000D01*
X110373500Y-94033000D02*
X110373500Y-89433000D01*
X110523500Y-94033000D02*
X110523500Y-89433000D01*
X110673500Y-94033000D02*
X110673500Y-89433000D01*
X110823500Y-94033000D02*
X110823500Y-89433000D01*
X110973500Y-94033000D02*
X110973500Y-89433000D01*
X111123500Y-94033000D02*
X111123500Y-89433000D01*
X111173500Y-89408000D02*
X108598500Y-89408000D01*
X111173500Y-94058000D02*
X108848500Y-94058000D01*
X111273500Y-93923000D02*
X111273500Y-89533000D01*
X111423500Y-93783000D02*
X111423500Y-89663000D01*
X111573500Y-93653000D02*
X111573500Y-89823000D01*
X111723500Y-93493000D02*
X111723500Y-89963000D01*
X111823500Y-93393000D02*
X111823500Y-90063000D01*
X111923500Y-93283000D02*
X111923500Y-90163000D01*
X112023500Y-93203000D02*
X112023500Y-90273000D01*
X112173500Y-90408000D02*
X111173500Y-89408000D01*
X112173500Y-90408000D02*
X112173500Y-93058000D01*
X112173500Y-93058000D02*
X111173500Y-94058000D01*
X102568500Y-88208000D02*
G75*
G02*
X103568500Y-87208000I999999J1D01*
G01*
X103568500Y-91858000D02*
G75*
G02*
X102568500Y-90858000I-1J999999D01*
G01*
X105573500Y-91850458D02*
G75*
G02*
X107573500Y-93033000I-2J-2282546D01*
G01*
X106562296Y-87208000D02*
G75*
G02*
X107423500Y-87909887I-38796J-926887D01*
G01*
X108598500Y-89408000D02*
G75*
G02*
X107423500Y-88233000I2J1175002D01*
G01*
X100373500Y-86433000D02*
G75*
G02*
X99373500Y-86433000I-500000J0D01*
G01*
X99373500Y-86433000D02*
G75*
G02*
X100373500Y-86433000I500000J0D01*
G01*
D12*
X49332843Y-66533000D02*
X49531281Y-66533000D01*
X49531281Y-65937686D02*
X49531281Y-67128314D01*
X49531281Y-67128314D02*
X51118785Y-67128314D01*
X49928157Y-67128314D02*
X49928157Y-65937686D01*
X51118785Y-65937686D02*
X49531281Y-65937686D01*
X51118785Y-66533000D02*
X51317223Y-66533000D01*
X51118785Y-67128314D02*
X51118785Y-65937686D01*
D11*
X22573500Y-27608000D02*
X23573500Y-26608000D01*
X22573500Y-30258000D02*
X22573500Y-27608000D01*
X22573500Y-30258000D02*
X23573500Y-31258000D01*
X22723500Y-27463000D02*
X22723500Y-30393000D01*
X22823500Y-27383000D02*
X22823500Y-30503000D01*
X22923500Y-27273000D02*
X22923500Y-30603000D01*
X23023500Y-27173000D02*
X23023500Y-30703000D01*
X23173500Y-27013000D02*
X23173500Y-30843000D01*
X23323500Y-26883000D02*
X23323500Y-31003000D01*
X23473500Y-26743000D02*
X23473500Y-31133000D01*
X23573500Y-26608000D02*
X25898500Y-26608000D01*
X23573500Y-31258000D02*
X26148500Y-31258000D01*
X23623500Y-26633000D02*
X23623500Y-31233000D01*
X23773500Y-26633000D02*
X23773500Y-31233000D01*
X23923500Y-26633000D02*
X23923500Y-31233000D01*
X24073500Y-26633000D02*
X24073500Y-31233000D01*
X24223500Y-26633000D02*
X24223500Y-31233000D01*
X24373500Y-26633000D02*
X24373500Y-31233000D01*
X24523500Y-26633000D02*
X24523500Y-31233000D01*
X24673500Y-26633000D02*
X24673500Y-31233000D01*
X24823500Y-26633000D02*
X24823500Y-31233000D01*
X24973500Y-26633000D02*
X24973500Y-31233000D01*
X25123500Y-26633000D02*
X25123500Y-31233000D01*
X25273500Y-26633000D02*
X25273500Y-31233000D01*
X25423500Y-26633000D02*
X25423500Y-31233000D01*
X25573500Y-26633000D02*
X25573500Y-31233000D01*
X25723500Y-26633000D02*
X25723500Y-31233000D01*
X25873500Y-26633000D02*
X25873500Y-31233000D01*
X26023500Y-26723000D02*
X26023500Y-31183000D01*
X26173500Y-26843000D02*
X26173500Y-31233000D01*
X26323500Y-26953000D02*
X26323500Y-31233000D01*
X26473500Y-27073000D02*
X26473500Y-31233000D01*
X26623500Y-27213000D02*
X26623500Y-31333000D01*
X26763500Y-27313000D02*
X26773500Y-31383000D01*
X26873500Y-27403000D02*
X26873500Y-31433000D01*
X26973500Y-27483000D02*
X26973500Y-31483000D01*
X27073500Y-27563000D02*
X27073500Y-31583000D01*
X27173500Y-27633000D02*
X25898500Y-26608000D01*
X27173500Y-27633000D02*
X27173500Y-31783000D01*
X27273500Y-27813000D02*
X27273500Y-31933000D01*
X27323500Y-32433000D02*
X27323500Y-32756113D01*
X27373500Y-27983000D02*
X27373500Y-32883000D01*
X27523500Y-28133000D02*
X27523500Y-33083000D01*
X27673500Y-28283000D02*
X27673500Y-33273000D01*
X27823500Y-28383000D02*
X27823500Y-33353000D01*
X27973500Y-28483000D02*
X27973500Y-33403000D01*
X28123500Y-28583000D02*
X28123500Y-33433000D01*
X28184704Y-33458000D02*
X31148500Y-33458000D01*
X28273500Y-28633000D02*
X28273500Y-33453000D01*
X28423500Y-28733000D02*
X28423500Y-33443000D01*
X28573500Y-28783000D02*
X28573500Y-33383000D01*
X28723500Y-28783000D02*
X28723500Y-33433000D01*
X28873500Y-28793000D02*
X28873500Y-33433000D01*
X29023500Y-28833000D02*
X29023500Y-33383000D01*
X29173500Y-28808000D02*
X31148500Y-28808000D01*
X29173500Y-28833000D02*
X29173500Y-33433000D01*
X29323500Y-28833000D02*
X29323500Y-33433000D01*
X29473500Y-28833000D02*
X29473500Y-33433000D01*
X29623500Y-28833000D02*
X29623500Y-33433000D01*
X29773500Y-28833000D02*
X29773500Y-33433000D01*
X29923500Y-28833000D02*
X29923500Y-33433000D01*
X30073500Y-28833000D02*
X30073500Y-33433000D01*
X30223500Y-28833000D02*
X30223500Y-33433000D01*
X30373500Y-28833000D02*
X30373500Y-33433000D01*
X30523500Y-28833000D02*
X30523500Y-33433000D01*
X30673500Y-28833000D02*
X30673500Y-33433000D01*
D13*
X30673500Y-33278000D02*
X35073500Y-33278000D01*
D11*
X30823500Y-28833000D02*
X30823500Y-33433000D01*
X30973500Y-28833000D02*
X30973500Y-33433000D01*
X31123500Y-28833000D02*
X31123500Y-33433000D01*
X31273500Y-28823000D02*
X31273500Y-33333000D01*
X31423500Y-28863000D02*
X31423500Y-33183000D01*
X31573500Y-28913000D02*
X31573500Y-33033000D01*
X31723500Y-28993000D02*
X31723500Y-33133000D01*
X31873500Y-29133000D02*
X31873500Y-33103000D01*
X32023500Y-29303000D02*
X32023500Y-32983000D01*
X32178500Y-32458000D02*
X32178500Y-29808000D01*
D13*
X35073500Y-33278000D02*
X35073500Y-31778000D01*
D11*
X26148500Y-31258000D02*
G75*
G02*
X27323500Y-32433000I-2J-1175002D01*
G01*
X28184704Y-33458000D02*
G75*
G02*
X27323500Y-32756113I38796J926887D01*
G01*
X29173500Y-28815542D02*
G75*
G02*
X27173500Y-27633000I2J2282546D01*
G01*
X31178500Y-28808000D02*
G75*
G02*
X32178500Y-29808000I1J-999999D01*
G01*
X32178500Y-32458000D02*
G75*
G02*
X31178500Y-33458000I-999999J-1D01*
G01*
X35373500Y-34233000D02*
G75*
G02*
X34373500Y-34233000I-500000J0D01*
G01*
X34373500Y-34233000D02*
G75*
G02*
X35373500Y-34233000I500000J0D01*
G01*
X39573500Y-55808000D02*
X40573500Y-54808000D01*
X39573500Y-58458000D02*
X39573500Y-55808000D01*
X39573500Y-58458000D02*
X40573500Y-59458000D01*
X39723500Y-55663000D02*
X39723500Y-58593000D01*
X39823500Y-55583000D02*
X39823500Y-58703000D01*
X39923500Y-55473000D02*
X39923500Y-58803000D01*
X40023500Y-55373000D02*
X40023500Y-58903000D01*
X40173500Y-55213000D02*
X40173500Y-59043000D01*
X40323500Y-55083000D02*
X40323500Y-59203000D01*
X40473500Y-54943000D02*
X40473500Y-59333000D01*
X40573500Y-54808000D02*
X42898500Y-54808000D01*
X40573500Y-59458000D02*
X43148500Y-59458000D01*
X40623500Y-54833000D02*
X40623500Y-59433000D01*
X40773500Y-54833000D02*
X40773500Y-59433000D01*
X40923500Y-54833000D02*
X40923500Y-59433000D01*
X41073500Y-54833000D02*
X41073500Y-59433000D01*
X41223500Y-54833000D02*
X41223500Y-59433000D01*
X41373500Y-54833000D02*
X41373500Y-59433000D01*
X41523500Y-54833000D02*
X41523500Y-59433000D01*
X41673500Y-54833000D02*
X41673500Y-59433000D01*
X41823500Y-54833000D02*
X41823500Y-59433000D01*
X41973500Y-54833000D02*
X41973500Y-59433000D01*
X42123500Y-54833000D02*
X42123500Y-59433000D01*
X42273500Y-54833000D02*
X42273500Y-59433000D01*
X42423500Y-54833000D02*
X42423500Y-59433000D01*
X42573500Y-54833000D02*
X42573500Y-59433000D01*
X42723500Y-54833000D02*
X42723500Y-59433000D01*
X42873500Y-54833000D02*
X42873500Y-59433000D01*
X43023500Y-54923000D02*
X43023500Y-59383000D01*
X43173500Y-55043000D02*
X43173500Y-59433000D01*
X43323500Y-55153000D02*
X43323500Y-59433000D01*
X43473500Y-55273000D02*
X43473500Y-59433000D01*
X43623500Y-55413000D02*
X43623500Y-59533000D01*
X43763500Y-55513000D02*
X43773500Y-59583000D01*
X43873500Y-55603000D02*
X43873500Y-59633000D01*
X43973500Y-55683000D02*
X43973500Y-59683000D01*
X44073500Y-55763000D02*
X44073500Y-59783000D01*
X44173500Y-55833000D02*
X42898500Y-54808000D01*
X44173500Y-55833000D02*
X44173500Y-59983000D01*
X44273500Y-56013000D02*
X44273500Y-60133000D01*
X44323500Y-60633000D02*
X44323500Y-60956113D01*
X44373500Y-56183000D02*
X44373500Y-61083000D01*
X44523500Y-56333000D02*
X44523500Y-61283000D01*
X44673500Y-56483000D02*
X44673500Y-61473000D01*
X44823500Y-56583000D02*
X44823500Y-61553000D01*
X44973500Y-56683000D02*
X44973500Y-61603000D01*
X45123500Y-56783000D02*
X45123500Y-61633000D01*
X45184704Y-61658000D02*
X48148500Y-61658000D01*
X45273500Y-56833000D02*
X45273500Y-61653000D01*
X45423500Y-56933000D02*
X45423500Y-61643000D01*
X45573500Y-56983000D02*
X45573500Y-61583000D01*
X45723500Y-56983000D02*
X45723500Y-61633000D01*
X45873500Y-56993000D02*
X45873500Y-61633000D01*
X46023500Y-57033000D02*
X46023500Y-61583000D01*
X46173500Y-57008000D02*
X48148500Y-57008000D01*
X46173500Y-57033000D02*
X46173500Y-61633000D01*
X46323500Y-57033000D02*
X46323500Y-61633000D01*
X46473500Y-57033000D02*
X46473500Y-61633000D01*
X46623500Y-57033000D02*
X46623500Y-61633000D01*
X46773500Y-57033000D02*
X46773500Y-61633000D01*
X46923500Y-57033000D02*
X46923500Y-61633000D01*
X47073500Y-57033000D02*
X47073500Y-61633000D01*
X47223500Y-57033000D02*
X47223500Y-61633000D01*
X47373500Y-57033000D02*
X47373500Y-61633000D01*
X47523500Y-57033000D02*
X47523500Y-61633000D01*
X47673500Y-57033000D02*
X47673500Y-61633000D01*
D13*
X47673500Y-61478000D02*
X52073500Y-61478000D01*
D11*
X47823500Y-57033000D02*
X47823500Y-61633000D01*
X47973500Y-57033000D02*
X47973500Y-61633000D01*
X48123500Y-57033000D02*
X48123500Y-61633000D01*
X48273500Y-57023000D02*
X48273500Y-61533000D01*
X48423500Y-57063000D02*
X48423500Y-61383000D01*
X48573500Y-57113000D02*
X48573500Y-61233000D01*
X48723500Y-57193000D02*
X48723500Y-61333000D01*
X48873500Y-57333000D02*
X48873500Y-61303000D01*
X49023500Y-57503000D02*
X49023500Y-61183000D01*
X49178500Y-60658000D02*
X49178500Y-58008000D01*
D13*
X52073500Y-61478000D02*
X52073500Y-59978000D01*
D11*
X43148500Y-59458000D02*
G75*
G02*
X44323500Y-60633000I-2J-1175002D01*
G01*
X45184704Y-61658000D02*
G75*
G02*
X44323500Y-60956113I38796J926887D01*
G01*
X46173500Y-57015542D02*
G75*
G02*
X44173500Y-55833000I2J2282546D01*
G01*
X48178500Y-57008000D02*
G75*
G02*
X49178500Y-58008000I1J-999999D01*
G01*
X49178500Y-60658000D02*
G75*
G02*
X48178500Y-61658000I-999999J-1D01*
G01*
X52373500Y-62433000D02*
G75*
G02*
X51373500Y-62433000I-500000J0D01*
G01*
X51373500Y-62433000D02*
G75*
G02*
X52373500Y-62433000I500000J0D01*
G01*
D12*
X52806343Y-30633000D02*
X53004781Y-30633000D01*
X53004781Y-30037686D02*
X53004781Y-31228314D01*
X53004781Y-31228314D02*
X54592285Y-31228314D01*
X53401657Y-31228314D02*
X53401657Y-30037686D01*
X54592285Y-30037686D02*
X53004781Y-30037686D01*
X54592285Y-30633000D02*
X54790723Y-30633000D01*
X54592285Y-31228314D02*
X54592285Y-30037686D01*
D11*
X56573500Y-53408000D02*
X57573500Y-52408000D01*
X56573500Y-56058000D02*
X56573500Y-53408000D01*
X56573500Y-56058000D02*
X57573500Y-57058000D01*
X56723500Y-53263000D02*
X56723500Y-56193000D01*
X56823500Y-53183000D02*
X56823500Y-56303000D01*
X56923500Y-53073000D02*
X56923500Y-56403000D01*
X57023500Y-52973000D02*
X57023500Y-56503000D01*
X57173500Y-52813000D02*
X57173500Y-56643000D01*
X57323500Y-52683000D02*
X57323500Y-56803000D01*
X57473500Y-52543000D02*
X57473500Y-56933000D01*
X57573500Y-52408000D02*
X59898500Y-52408000D01*
X57573500Y-57058000D02*
X60148500Y-57058000D01*
X57623500Y-52433000D02*
X57623500Y-57033000D01*
X57773500Y-52433000D02*
X57773500Y-57033000D01*
X57923500Y-52433000D02*
X57923500Y-57033000D01*
X58073500Y-52433000D02*
X58073500Y-57033000D01*
X58223500Y-52433000D02*
X58223500Y-57033000D01*
X58373500Y-52433000D02*
X58373500Y-57033000D01*
X58523500Y-52433000D02*
X58523500Y-57033000D01*
X58673500Y-52433000D02*
X58673500Y-57033000D01*
X58823500Y-52433000D02*
X58823500Y-57033000D01*
X58973500Y-52433000D02*
X58973500Y-57033000D01*
X59123500Y-52433000D02*
X59123500Y-57033000D01*
X59273500Y-52433000D02*
X59273500Y-57033000D01*
X59423500Y-52433000D02*
X59423500Y-57033000D01*
X59573500Y-52433000D02*
X59573500Y-57033000D01*
X59723500Y-52433000D02*
X59723500Y-57033000D01*
X59873500Y-52433000D02*
X59873500Y-57033000D01*
X60023500Y-52523000D02*
X60023500Y-56983000D01*
X60173500Y-52643000D02*
X60173500Y-57033000D01*
X60323500Y-52753000D02*
X60323500Y-57033000D01*
X60473500Y-52873000D02*
X60473500Y-57033000D01*
X60623500Y-53013000D02*
X60623500Y-57133000D01*
X60763500Y-53113000D02*
X60773500Y-57183000D01*
X60873500Y-53203000D02*
X60873500Y-57233000D01*
X60973500Y-53283000D02*
X60973500Y-57283000D01*
X61073500Y-53363000D02*
X61073500Y-57383000D01*
X61173500Y-53433000D02*
X59898500Y-52408000D01*
X61173500Y-53433000D02*
X61173500Y-57583000D01*
X61273500Y-53613000D02*
X61273500Y-57733000D01*
X61323500Y-58233000D02*
X61323500Y-58556113D01*
X61373500Y-53783000D02*
X61373500Y-58683000D01*
X61523500Y-53933000D02*
X61523500Y-58883000D01*
X61673500Y-54083000D02*
X61673500Y-59073000D01*
X61823500Y-54183000D02*
X61823500Y-59153000D01*
X61973500Y-54283000D02*
X61973500Y-59203000D01*
X62123500Y-54383000D02*
X62123500Y-59233000D01*
X62184704Y-59258000D02*
X65148500Y-59258000D01*
X62273500Y-54433000D02*
X62273500Y-59253000D01*
X62423500Y-54533000D02*
X62423500Y-59243000D01*
X62573500Y-54583000D02*
X62573500Y-59183000D01*
X62723500Y-54583000D02*
X62723500Y-59233000D01*
X62873500Y-54593000D02*
X62873500Y-59233000D01*
X63023500Y-54633000D02*
X63023500Y-59183000D01*
X63173500Y-54608000D02*
X65148500Y-54608000D01*
X63173500Y-54633000D02*
X63173500Y-59233000D01*
X63323500Y-54633000D02*
X63323500Y-59233000D01*
X63473500Y-54633000D02*
X63473500Y-59233000D01*
X63623500Y-54633000D02*
X63623500Y-59233000D01*
X63773500Y-54633000D02*
X63773500Y-59233000D01*
X63923500Y-54633000D02*
X63923500Y-59233000D01*
X64073500Y-54633000D02*
X64073500Y-59233000D01*
X64223500Y-54633000D02*
X64223500Y-59233000D01*
X64373500Y-54633000D02*
X64373500Y-59233000D01*
X64523500Y-54633000D02*
X64523500Y-59233000D01*
X64673500Y-54633000D02*
X64673500Y-59233000D01*
D13*
X64673500Y-59078000D02*
X69073500Y-59078000D01*
D11*
X64823500Y-54633000D02*
X64823500Y-59233000D01*
X64973500Y-54633000D02*
X64973500Y-59233000D01*
X65123500Y-54633000D02*
X65123500Y-59233000D01*
X65273500Y-54623000D02*
X65273500Y-59133000D01*
X65423500Y-54663000D02*
X65423500Y-58983000D01*
X65573500Y-54713000D02*
X65573500Y-58833000D01*
X65723500Y-54793000D02*
X65723500Y-58933000D01*
X65873500Y-54933000D02*
X65873500Y-58903000D01*
X66023500Y-55103000D02*
X66023500Y-58783000D01*
X66178500Y-58258000D02*
X66178500Y-55608000D01*
D13*
X69073500Y-59078000D02*
X69073500Y-57578000D01*
D11*
X60148500Y-57058000D02*
G75*
G02*
X61323500Y-58233000I-2J-1175002D01*
G01*
X62184704Y-59258000D02*
G75*
G02*
X61323500Y-58556113I38796J926887D01*
G01*
X63173500Y-54615542D02*
G75*
G02*
X61173500Y-53433000I2J2282546D01*
G01*
X65178500Y-54608000D02*
G75*
G02*
X66178500Y-55608000I1J-999999D01*
G01*
X66178500Y-58258000D02*
G75*
G02*
X65178500Y-59258000I-999999J-1D01*
G01*
X69373500Y-60033000D02*
G75*
G02*
X68373500Y-60033000I-500000J0D01*
G01*
X68373500Y-60033000D02*
G75*
G02*
X69373500Y-60033000I500000J0D01*
G01*
X73573500Y-33308000D02*
X74573500Y-32308000D01*
X73573500Y-35958000D02*
X73573500Y-33308000D01*
X73573500Y-35958000D02*
X74573500Y-36958000D01*
X73723500Y-33163000D02*
X73723500Y-36093000D01*
X73823500Y-33083000D02*
X73823500Y-36203000D01*
X73923500Y-32973000D02*
X73923500Y-36303000D01*
X74023500Y-32873000D02*
X74023500Y-36403000D01*
X74173500Y-32713000D02*
X74173500Y-36543000D01*
X74323500Y-32583000D02*
X74323500Y-36703000D01*
X74473500Y-32443000D02*
X74473500Y-36833000D01*
X74573500Y-32308000D02*
X76898500Y-32308000D01*
X74573500Y-36958000D02*
X77148500Y-36958000D01*
X74623500Y-32333000D02*
X74623500Y-36933000D01*
X74773500Y-32333000D02*
X74773500Y-36933000D01*
X74923500Y-32333000D02*
X74923500Y-36933000D01*
X75073500Y-32333000D02*
X75073500Y-36933000D01*
X75223500Y-32333000D02*
X75223500Y-36933000D01*
X75373500Y-32333000D02*
X75373500Y-36933000D01*
X75523500Y-32333000D02*
X75523500Y-36933000D01*
X75673500Y-32333000D02*
X75673500Y-36933000D01*
X75823500Y-32333000D02*
X75823500Y-36933000D01*
X75973500Y-32333000D02*
X75973500Y-36933000D01*
X76123500Y-32333000D02*
X76123500Y-36933000D01*
X76273500Y-32333000D02*
X76273500Y-36933000D01*
X76423500Y-32333000D02*
X76423500Y-36933000D01*
X76573500Y-32333000D02*
X76573500Y-36933000D01*
X76723500Y-32333000D02*
X76723500Y-36933000D01*
X76873500Y-32333000D02*
X76873500Y-36933000D01*
X77023500Y-32423000D02*
X77023500Y-36883000D01*
X77173500Y-32543000D02*
X77173500Y-36933000D01*
X77323500Y-32653000D02*
X77323500Y-36933000D01*
X77473500Y-32773000D02*
X77473500Y-36933000D01*
X77623500Y-32913000D02*
X77623500Y-37033000D01*
X77763500Y-33013000D02*
X77773500Y-37083000D01*
X77873500Y-33103000D02*
X77873500Y-37133000D01*
X77973500Y-33183000D02*
X77973500Y-37183000D01*
X78073500Y-33263000D02*
X78073500Y-37283000D01*
X78173500Y-33333000D02*
X76898500Y-32308000D01*
X78173500Y-33333000D02*
X78173500Y-37483000D01*
X78273500Y-33513000D02*
X78273500Y-37633000D01*
X78323500Y-38133000D02*
X78323500Y-38456113D01*
X78373500Y-33683000D02*
X78373500Y-38583000D01*
X78523500Y-33833000D02*
X78523500Y-38783000D01*
X78673500Y-33983000D02*
X78673500Y-38973000D01*
X78823500Y-34083000D02*
X78823500Y-39053000D01*
X78973500Y-34183000D02*
X78973500Y-39103000D01*
X79123500Y-34283000D02*
X79123500Y-39133000D01*
X79184704Y-39158000D02*
X82148500Y-39158000D01*
X79273500Y-34333000D02*
X79273500Y-39153000D01*
X79423500Y-34433000D02*
X79423500Y-39143000D01*
X79573500Y-34483000D02*
X79573500Y-39083000D01*
X79723500Y-34483000D02*
X79723500Y-39133000D01*
X79873500Y-34493000D02*
X79873500Y-39133000D01*
X80023500Y-34533000D02*
X80023500Y-39083000D01*
X80173500Y-34508000D02*
X82148500Y-34508000D01*
X80173500Y-34533000D02*
X80173500Y-39133000D01*
X80323500Y-34533000D02*
X80323500Y-39133000D01*
X80473500Y-34533000D02*
X80473500Y-39133000D01*
X80623500Y-34533000D02*
X80623500Y-39133000D01*
X80773500Y-34533000D02*
X80773500Y-39133000D01*
X80923500Y-34533000D02*
X80923500Y-39133000D01*
X81073500Y-34533000D02*
X81073500Y-39133000D01*
X81223500Y-34533000D02*
X81223500Y-39133000D01*
X81373500Y-34533000D02*
X81373500Y-39133000D01*
X81523500Y-34533000D02*
X81523500Y-39133000D01*
X81673500Y-34533000D02*
X81673500Y-39133000D01*
D13*
X81673500Y-38978000D02*
X86073500Y-38978000D01*
D11*
X81823500Y-34533000D02*
X81823500Y-39133000D01*
X81973500Y-34533000D02*
X81973500Y-39133000D01*
X82123500Y-34533000D02*
X82123500Y-39133000D01*
X82273500Y-34523000D02*
X82273500Y-39033000D01*
X82423500Y-34563000D02*
X82423500Y-38883000D01*
X82573500Y-34613000D02*
X82573500Y-38733000D01*
X82723500Y-34693000D02*
X82723500Y-38833000D01*
X82873500Y-34833000D02*
X82873500Y-38803000D01*
X83023500Y-35003000D02*
X83023500Y-38683000D01*
X83178500Y-38158000D02*
X83178500Y-35508000D01*
D13*
X86073500Y-38978000D02*
X86073500Y-37478000D01*
D11*
X77148500Y-36958000D02*
G75*
G02*
X78323500Y-38133000I-2J-1175002D01*
G01*
X79184704Y-39158000D02*
G75*
G02*
X78323500Y-38456113I38796J926887D01*
G01*
X80173500Y-34515542D02*
G75*
G02*
X78173500Y-33333000I2J2282546D01*
G01*
X82178500Y-34508000D02*
G75*
G02*
X83178500Y-35508000I1J-999999D01*
G01*
X83178500Y-38158000D02*
G75*
G02*
X82178500Y-39158000I-999999J-1D01*
G01*
X86373500Y-39933000D02*
G75*
G02*
X85373500Y-39933000I-500000J0D01*
G01*
X85373500Y-39933000D02*
G75*
G02*
X86373500Y-39933000I500000J0D01*
G01*
D12*
X45332843Y-35333000D02*
X45531281Y-35333000D01*
X45531281Y-34737686D02*
X45531281Y-35928314D01*
X45531281Y-35928314D02*
X47118785Y-35928314D01*
X45928157Y-35928314D02*
X45928157Y-34737686D01*
X47118785Y-34737686D02*
X45531281Y-34737686D01*
X47118785Y-35333000D02*
X47317223Y-35333000D01*
X47118785Y-35928314D02*
X47118785Y-34737686D01*
X88932843Y-37333000D02*
X89131281Y-37333000D01*
X89131281Y-36737686D02*
X89131281Y-37928314D01*
X89131281Y-37928314D02*
X90718785Y-37928314D01*
X89528157Y-37928314D02*
X89528157Y-36737686D01*
X90718785Y-36737686D02*
X89131281Y-36737686D01*
X90718785Y-37333000D02*
X90917223Y-37333000D01*
X90718785Y-37928314D02*
X90718785Y-36737686D01*
D11*
X56573500Y-19408000D02*
X57573500Y-18408000D01*
X56573500Y-22058000D02*
X56573500Y-19408000D01*
X56573500Y-22058000D02*
X57573500Y-23058000D01*
X56723500Y-19263000D02*
X56723500Y-22193000D01*
X56823500Y-19183000D02*
X56823500Y-22303000D01*
X56923500Y-19073000D02*
X56923500Y-22403000D01*
X57023500Y-18973000D02*
X57023500Y-22503000D01*
X57173500Y-18813000D02*
X57173500Y-22643000D01*
X57323500Y-18683000D02*
X57323500Y-22803000D01*
X57473500Y-18543000D02*
X57473500Y-22933000D01*
X57573500Y-18408000D02*
X59898500Y-18408000D01*
X57573500Y-23058000D02*
X60148500Y-23058000D01*
X57623500Y-18433000D02*
X57623500Y-23033000D01*
X57773500Y-18433000D02*
X57773500Y-23033000D01*
X57923500Y-18433000D02*
X57923500Y-23033000D01*
X58073500Y-18433000D02*
X58073500Y-23033000D01*
X58223500Y-18433000D02*
X58223500Y-23033000D01*
X58373500Y-18433000D02*
X58373500Y-23033000D01*
X58523500Y-18433000D02*
X58523500Y-23033000D01*
X58673500Y-18433000D02*
X58673500Y-23033000D01*
X58823500Y-18433000D02*
X58823500Y-23033000D01*
X58973500Y-18433000D02*
X58973500Y-23033000D01*
X59123500Y-18433000D02*
X59123500Y-23033000D01*
X59273500Y-18433000D02*
X59273500Y-23033000D01*
X59423500Y-18433000D02*
X59423500Y-23033000D01*
X59573500Y-18433000D02*
X59573500Y-23033000D01*
X59723500Y-18433000D02*
X59723500Y-23033000D01*
X59873500Y-18433000D02*
X59873500Y-23033000D01*
X60023500Y-18523000D02*
X60023500Y-22983000D01*
X60173500Y-18643000D02*
X60173500Y-23033000D01*
X60323500Y-18753000D02*
X60323500Y-23033000D01*
X60473500Y-18873000D02*
X60473500Y-23033000D01*
X60623500Y-19013000D02*
X60623500Y-23133000D01*
X60763500Y-19113000D02*
X60773500Y-23183000D01*
X60873500Y-19203000D02*
X60873500Y-23233000D01*
X60973500Y-19283000D02*
X60973500Y-23283000D01*
X61073500Y-19363000D02*
X61073500Y-23383000D01*
X61173500Y-19433000D02*
X59898500Y-18408000D01*
X61173500Y-19433000D02*
X61173500Y-23583000D01*
X61273500Y-19613000D02*
X61273500Y-23733000D01*
X61323500Y-24233000D02*
X61323500Y-24556113D01*
X61373500Y-19783000D02*
X61373500Y-24683000D01*
X61523500Y-19933000D02*
X61523500Y-24883000D01*
X61673500Y-20083000D02*
X61673500Y-25073000D01*
X61823500Y-20183000D02*
X61823500Y-25153000D01*
X61973500Y-20283000D02*
X61973500Y-25203000D01*
X62123500Y-20383000D02*
X62123500Y-25233000D01*
X62184704Y-25258000D02*
X65148500Y-25258000D01*
X62273500Y-20433000D02*
X62273500Y-25253000D01*
X62423500Y-20533000D02*
X62423500Y-25243000D01*
X62573500Y-20583000D02*
X62573500Y-25183000D01*
X62723500Y-20583000D02*
X62723500Y-25233000D01*
X62873500Y-20593000D02*
X62873500Y-25233000D01*
X63023500Y-20633000D02*
X63023500Y-25183000D01*
X63173500Y-20608000D02*
X65148500Y-20608000D01*
X63173500Y-20633000D02*
X63173500Y-25233000D01*
X63323500Y-20633000D02*
X63323500Y-25233000D01*
X63473500Y-20633000D02*
X63473500Y-25233000D01*
X63623500Y-20633000D02*
X63623500Y-25233000D01*
X63773500Y-20633000D02*
X63773500Y-25233000D01*
X63923500Y-20633000D02*
X63923500Y-25233000D01*
X64073500Y-20633000D02*
X64073500Y-25233000D01*
X64223500Y-20633000D02*
X64223500Y-25233000D01*
X64373500Y-20633000D02*
X64373500Y-25233000D01*
X64523500Y-20633000D02*
X64523500Y-25233000D01*
X64673500Y-20633000D02*
X64673500Y-25233000D01*
D13*
X64673500Y-25078000D02*
X69073500Y-25078000D01*
D11*
X64823500Y-20633000D02*
X64823500Y-25233000D01*
X64973500Y-20633000D02*
X64973500Y-25233000D01*
X65123500Y-20633000D02*
X65123500Y-25233000D01*
X65273500Y-20623000D02*
X65273500Y-25133000D01*
X65423500Y-20663000D02*
X65423500Y-24983000D01*
X65573500Y-20713000D02*
X65573500Y-24833000D01*
X65723500Y-20793000D02*
X65723500Y-24933000D01*
X65873500Y-20933000D02*
X65873500Y-24903000D01*
X66023500Y-21103000D02*
X66023500Y-24783000D01*
X66178500Y-24258000D02*
X66178500Y-21608000D01*
D13*
X69073500Y-25078000D02*
X69073500Y-23578000D01*
D11*
X60148500Y-23058000D02*
G75*
G02*
X61323500Y-24233000I-2J-1175002D01*
G01*
X62184704Y-25258000D02*
G75*
G02*
X61323500Y-24556113I38796J926887D01*
G01*
X63173500Y-20615542D02*
G75*
G02*
X61173500Y-19433000I2J2282546D01*
G01*
X65178500Y-20608000D02*
G75*
G02*
X66178500Y-21608000I1J-999999D01*
G01*
X66178500Y-24258000D02*
G75*
G02*
X65178500Y-25258000I-999999J-1D01*
G01*
X69373500Y-26033000D02*
G75*
G02*
X68373500Y-26033000I-500000J0D01*
G01*
X68373500Y-26033000D02*
G75*
G02*
X69373500Y-26033000I500000J0D01*
G01*
X56573500Y-36408000D02*
X57573500Y-35408000D01*
X56573500Y-39058000D02*
X56573500Y-36408000D01*
X56573500Y-39058000D02*
X57573500Y-40058000D01*
X56723500Y-36263000D02*
X56723500Y-39193000D01*
X56823500Y-36183000D02*
X56823500Y-39303000D01*
X56923500Y-36073000D02*
X56923500Y-39403000D01*
X57023500Y-35973000D02*
X57023500Y-39503000D01*
X57173500Y-35813000D02*
X57173500Y-39643000D01*
X57323500Y-35683000D02*
X57323500Y-39803000D01*
X57473500Y-35543000D02*
X57473500Y-39933000D01*
X57573500Y-35408000D02*
X59898500Y-35408000D01*
X57573500Y-40058000D02*
X60148500Y-40058000D01*
X57623500Y-35433000D02*
X57623500Y-40033000D01*
X57773500Y-35433000D02*
X57773500Y-40033000D01*
X57923500Y-35433000D02*
X57923500Y-40033000D01*
X58073500Y-35433000D02*
X58073500Y-40033000D01*
X58223500Y-35433000D02*
X58223500Y-40033000D01*
X58373500Y-35433000D02*
X58373500Y-40033000D01*
X58523500Y-35433000D02*
X58523500Y-40033000D01*
X58673500Y-35433000D02*
X58673500Y-40033000D01*
X58823500Y-35433000D02*
X58823500Y-40033000D01*
X58973500Y-35433000D02*
X58973500Y-40033000D01*
X59123500Y-35433000D02*
X59123500Y-40033000D01*
X59273500Y-35433000D02*
X59273500Y-40033000D01*
X59423500Y-35433000D02*
X59423500Y-40033000D01*
X59573500Y-35433000D02*
X59573500Y-40033000D01*
X59723500Y-35433000D02*
X59723500Y-40033000D01*
X59873500Y-35433000D02*
X59873500Y-40033000D01*
X60023500Y-35523000D02*
X60023500Y-39983000D01*
X60173500Y-35643000D02*
X60173500Y-40033000D01*
X60323500Y-35753000D02*
X60323500Y-40033000D01*
X60473500Y-35873000D02*
X60473500Y-40033000D01*
X60623500Y-36013000D02*
X60623500Y-40133000D01*
X60763500Y-36113000D02*
X60773500Y-40183000D01*
X60873500Y-36203000D02*
X60873500Y-40233000D01*
X60973500Y-36283000D02*
X60973500Y-40283000D01*
X61073500Y-36363000D02*
X61073500Y-40383000D01*
X61173500Y-36433000D02*
X59898500Y-35408000D01*
X61173500Y-36433000D02*
X61173500Y-40583000D01*
X61273500Y-36613000D02*
X61273500Y-40733000D01*
X61323500Y-41233000D02*
X61323500Y-41556113D01*
X61373500Y-36783000D02*
X61373500Y-41683000D01*
X61523500Y-36933000D02*
X61523500Y-41883000D01*
X61673500Y-37083000D02*
X61673500Y-42073000D01*
X61823500Y-37183000D02*
X61823500Y-42153000D01*
X61973500Y-37283000D02*
X61973500Y-42203000D01*
X62123500Y-37383000D02*
X62123500Y-42233000D01*
X62184704Y-42258000D02*
X65148500Y-42258000D01*
X62273500Y-37433000D02*
X62273500Y-42253000D01*
X62423500Y-37533000D02*
X62423500Y-42243000D01*
X62573500Y-37583000D02*
X62573500Y-42183000D01*
X62723500Y-37583000D02*
X62723500Y-42233000D01*
X62873500Y-37593000D02*
X62873500Y-42233000D01*
X63023500Y-37633000D02*
X63023500Y-42183000D01*
X63173500Y-37608000D02*
X65148500Y-37608000D01*
X63173500Y-37633000D02*
X63173500Y-42233000D01*
X63323500Y-37633000D02*
X63323500Y-42233000D01*
X63473500Y-37633000D02*
X63473500Y-42233000D01*
X63623500Y-37633000D02*
X63623500Y-42233000D01*
X63773500Y-37633000D02*
X63773500Y-42233000D01*
X63923500Y-37633000D02*
X63923500Y-42233000D01*
X64073500Y-37633000D02*
X64073500Y-42233000D01*
X64223500Y-37633000D02*
X64223500Y-42233000D01*
X64373500Y-37633000D02*
X64373500Y-42233000D01*
X64523500Y-37633000D02*
X64523500Y-42233000D01*
X64673500Y-37633000D02*
X64673500Y-42233000D01*
D13*
X64673500Y-42078000D02*
X69073500Y-42078000D01*
D11*
X64823500Y-37633000D02*
X64823500Y-42233000D01*
X64973500Y-37633000D02*
X64973500Y-42233000D01*
X65123500Y-37633000D02*
X65123500Y-42233000D01*
X65273500Y-37623000D02*
X65273500Y-42133000D01*
X65423500Y-37663000D02*
X65423500Y-41983000D01*
X65573500Y-37713000D02*
X65573500Y-41833000D01*
X65723500Y-37793000D02*
X65723500Y-41933000D01*
X65873500Y-37933000D02*
X65873500Y-41903000D01*
X66023500Y-38103000D02*
X66023500Y-41783000D01*
X66178500Y-41258000D02*
X66178500Y-38608000D01*
D13*
X69073500Y-42078000D02*
X69073500Y-40578000D01*
D11*
X60148500Y-40058000D02*
G75*
G02*
X61323500Y-41233000I-2J-1175002D01*
G01*
X62184704Y-42258000D02*
G75*
G02*
X61323500Y-41556113I38796J926887D01*
G01*
X63173500Y-37615542D02*
G75*
G02*
X61173500Y-36433000I2J2282546D01*
G01*
X65178500Y-37608000D02*
G75*
G02*
X66178500Y-38608000I1J-999999D01*
G01*
X66178500Y-41258000D02*
G75*
G02*
X65178500Y-42258000I-999999J-1D01*
G01*
X69373500Y-43033000D02*
G75*
G02*
X68373500Y-43033000I-500000J0D01*
G01*
X68373500Y-43033000D02*
G75*
G02*
X69373500Y-43033000I500000J0D01*
G01*
D12*
X70832843Y-27733000D02*
X71031281Y-27733000D01*
X71031281Y-27137686D02*
X71031281Y-28328314D01*
X71031281Y-28328314D02*
X72618785Y-28328314D01*
X71428157Y-28328314D02*
X71428157Y-27137686D01*
X72618785Y-27137686D02*
X71031281Y-27137686D01*
X72618785Y-27733000D02*
X72817223Y-27733000D01*
X72618785Y-28328314D02*
X72618785Y-27137686D01*
D11*
X73573500Y-16308000D02*
X74573500Y-15308000D01*
X73573500Y-18958000D02*
X73573500Y-16308000D01*
X73573500Y-18958000D02*
X74573500Y-19958000D01*
X73723500Y-16163000D02*
X73723500Y-19093000D01*
X73823500Y-16083000D02*
X73823500Y-19203000D01*
X73923500Y-15973000D02*
X73923500Y-19303000D01*
X74023500Y-15873000D02*
X74023500Y-19403000D01*
X74173500Y-15713000D02*
X74173500Y-19543000D01*
X74323500Y-15583000D02*
X74323500Y-19703000D01*
X74473500Y-15443000D02*
X74473500Y-19833000D01*
X74573500Y-15308000D02*
X76898500Y-15308000D01*
X74573500Y-19958000D02*
X77148500Y-19958000D01*
X74623500Y-15333000D02*
X74623500Y-19933000D01*
X74773500Y-15333000D02*
X74773500Y-19933000D01*
X74923500Y-15333000D02*
X74923500Y-19933000D01*
X75073500Y-15333000D02*
X75073500Y-19933000D01*
X75223500Y-15333000D02*
X75223500Y-19933000D01*
X75373500Y-15333000D02*
X75373500Y-19933000D01*
X75523500Y-15333000D02*
X75523500Y-19933000D01*
X75673500Y-15333000D02*
X75673500Y-19933000D01*
X75823500Y-15333000D02*
X75823500Y-19933000D01*
X75973500Y-15333000D02*
X75973500Y-19933000D01*
X76123500Y-15333000D02*
X76123500Y-19933000D01*
X76273500Y-15333000D02*
X76273500Y-19933000D01*
X76423500Y-15333000D02*
X76423500Y-19933000D01*
X76573500Y-15333000D02*
X76573500Y-19933000D01*
X76723500Y-15333000D02*
X76723500Y-19933000D01*
X76873500Y-15333000D02*
X76873500Y-19933000D01*
X77023500Y-15423000D02*
X77023500Y-19883000D01*
X77173500Y-15543000D02*
X77173500Y-19933000D01*
X77323500Y-15653000D02*
X77323500Y-19933000D01*
X77473500Y-15773000D02*
X77473500Y-19933000D01*
X77623500Y-15913000D02*
X77623500Y-20033000D01*
X77763500Y-16013000D02*
X77773500Y-20083000D01*
X77873500Y-16103000D02*
X77873500Y-20133000D01*
X77973500Y-16183000D02*
X77973500Y-20183000D01*
X78073500Y-16263000D02*
X78073500Y-20283000D01*
X78173500Y-16333000D02*
X76898500Y-15308000D01*
X78173500Y-16333000D02*
X78173500Y-20483000D01*
X78273500Y-16513000D02*
X78273500Y-20633000D01*
X78323500Y-21133000D02*
X78323500Y-21456113D01*
X78373500Y-16683000D02*
X78373500Y-21583000D01*
X78523500Y-16833000D02*
X78523500Y-21783000D01*
X78673500Y-16983000D02*
X78673500Y-21973000D01*
X78823500Y-17083000D02*
X78823500Y-22053000D01*
X78973500Y-17183000D02*
X78973500Y-22103000D01*
X79123500Y-17283000D02*
X79123500Y-22133000D01*
X79184704Y-22158000D02*
X82148500Y-22158000D01*
X79273500Y-17333000D02*
X79273500Y-22153000D01*
X79423500Y-17433000D02*
X79423500Y-22143000D01*
X79573500Y-17483000D02*
X79573500Y-22083000D01*
X79723500Y-17483000D02*
X79723500Y-22133000D01*
X79873500Y-17493000D02*
X79873500Y-22133000D01*
X80023500Y-17533000D02*
X80023500Y-22083000D01*
X80173500Y-17508000D02*
X82148500Y-17508000D01*
X80173500Y-17533000D02*
X80173500Y-22133000D01*
X80323500Y-17533000D02*
X80323500Y-22133000D01*
X80473500Y-17533000D02*
X80473500Y-22133000D01*
X80623500Y-17533000D02*
X80623500Y-22133000D01*
X80773500Y-17533000D02*
X80773500Y-22133000D01*
X80923500Y-17533000D02*
X80923500Y-22133000D01*
X81073500Y-17533000D02*
X81073500Y-22133000D01*
X81223500Y-17533000D02*
X81223500Y-22133000D01*
X81373500Y-17533000D02*
X81373500Y-22133000D01*
X81523500Y-17533000D02*
X81523500Y-22133000D01*
X81673500Y-17533000D02*
X81673500Y-22133000D01*
D13*
X81673500Y-21978000D02*
X86073500Y-21978000D01*
D11*
X81823500Y-17533000D02*
X81823500Y-22133000D01*
X81973500Y-17533000D02*
X81973500Y-22133000D01*
X82123500Y-17533000D02*
X82123500Y-22133000D01*
X82273500Y-17523000D02*
X82273500Y-22033000D01*
X82423500Y-17563000D02*
X82423500Y-21883000D01*
X82573500Y-17613000D02*
X82573500Y-21733000D01*
X82723500Y-17693000D02*
X82723500Y-21833000D01*
X82873500Y-17833000D02*
X82873500Y-21803000D01*
X83023500Y-18003000D02*
X83023500Y-21683000D01*
X83178500Y-21158000D02*
X83178500Y-18508000D01*
D13*
X86073500Y-21978000D02*
X86073500Y-20478000D01*
D11*
X77148500Y-19958000D02*
G75*
G02*
X78323500Y-21133000I-2J-1175002D01*
G01*
X79184704Y-22158000D02*
G75*
G02*
X78323500Y-21456113I38796J926887D01*
G01*
X80173500Y-17515542D02*
G75*
G02*
X78173500Y-16333000I2J2282546D01*
G01*
X82178500Y-17508000D02*
G75*
G02*
X83178500Y-18508000I1J-999999D01*
G01*
X83178500Y-21158000D02*
G75*
G02*
X82178500Y-22158000I-999999J-1D01*
G01*
X86373500Y-22933000D02*
G75*
G02*
X85373500Y-22933000I-500000J0D01*
G01*
X85373500Y-22933000D02*
G75*
G02*
X86373500Y-22933000I500000J0D01*
G01*
X22573500Y-44608000D02*
X23573500Y-43608000D01*
X22573500Y-47258000D02*
X22573500Y-44608000D01*
X22573500Y-47258000D02*
X23573500Y-48258000D01*
X22723500Y-44463000D02*
X22723500Y-47393000D01*
X22823500Y-44383000D02*
X22823500Y-47503000D01*
X22923500Y-44273000D02*
X22923500Y-47603000D01*
X23023500Y-44173000D02*
X23023500Y-47703000D01*
X23173500Y-44013000D02*
X23173500Y-47843000D01*
X23323500Y-43883000D02*
X23323500Y-48003000D01*
X23473500Y-43743000D02*
X23473500Y-48133000D01*
X23573500Y-43608000D02*
X25898500Y-43608000D01*
X23573500Y-48258000D02*
X26148500Y-48258000D01*
X23623500Y-43633000D02*
X23623500Y-48233000D01*
X23773500Y-43633000D02*
X23773500Y-48233000D01*
X23923500Y-43633000D02*
X23923500Y-48233000D01*
X24073500Y-43633000D02*
X24073500Y-48233000D01*
X24223500Y-43633000D02*
X24223500Y-48233000D01*
X24373500Y-43633000D02*
X24373500Y-48233000D01*
X24523500Y-43633000D02*
X24523500Y-48233000D01*
X24673500Y-43633000D02*
X24673500Y-48233000D01*
X24823500Y-43633000D02*
X24823500Y-48233000D01*
X24973500Y-43633000D02*
X24973500Y-48233000D01*
X25123500Y-43633000D02*
X25123500Y-48233000D01*
X25273500Y-43633000D02*
X25273500Y-48233000D01*
X25423500Y-43633000D02*
X25423500Y-48233000D01*
X25573500Y-43633000D02*
X25573500Y-48233000D01*
X25723500Y-43633000D02*
X25723500Y-48233000D01*
X25873500Y-43633000D02*
X25873500Y-48233000D01*
X26023500Y-43723000D02*
X26023500Y-48183000D01*
X26173500Y-43843000D02*
X26173500Y-48233000D01*
X26323500Y-43953000D02*
X26323500Y-48233000D01*
X26473500Y-44073000D02*
X26473500Y-48233000D01*
X26623500Y-44213000D02*
X26623500Y-48333000D01*
X26763500Y-44313000D02*
X26773500Y-48383000D01*
X26873500Y-44403000D02*
X26873500Y-48433000D01*
X26973500Y-44483000D02*
X26973500Y-48483000D01*
X27073500Y-44563000D02*
X27073500Y-48583000D01*
X27173500Y-44633000D02*
X25898500Y-43608000D01*
X27173500Y-44633000D02*
X27173500Y-48783000D01*
X27273500Y-44813000D02*
X27273500Y-48933000D01*
X27323500Y-49433000D02*
X27323500Y-49756113D01*
X27373500Y-44983000D02*
X27373500Y-49883000D01*
X27523500Y-45133000D02*
X27523500Y-50083000D01*
X27673500Y-45283000D02*
X27673500Y-50273000D01*
X27823500Y-45383000D02*
X27823500Y-50353000D01*
X27973500Y-45483000D02*
X27973500Y-50403000D01*
X28123500Y-45583000D02*
X28123500Y-50433000D01*
X28184704Y-50458000D02*
X31148500Y-50458000D01*
X28273500Y-45633000D02*
X28273500Y-50453000D01*
X28423500Y-45733000D02*
X28423500Y-50443000D01*
X28573500Y-45783000D02*
X28573500Y-50383000D01*
X28723500Y-45783000D02*
X28723500Y-50433000D01*
X28873500Y-45793000D02*
X28873500Y-50433000D01*
X29023500Y-45833000D02*
X29023500Y-50383000D01*
X29173500Y-45808000D02*
X31148500Y-45808000D01*
X29173500Y-45833000D02*
X29173500Y-50433000D01*
X29323500Y-45833000D02*
X29323500Y-50433000D01*
X29473500Y-45833000D02*
X29473500Y-50433000D01*
X29623500Y-45833000D02*
X29623500Y-50433000D01*
X29773500Y-45833000D02*
X29773500Y-50433000D01*
X29923500Y-45833000D02*
X29923500Y-50433000D01*
X30073500Y-45833000D02*
X30073500Y-50433000D01*
X30223500Y-45833000D02*
X30223500Y-50433000D01*
X30373500Y-45833000D02*
X30373500Y-50433000D01*
X30523500Y-45833000D02*
X30523500Y-50433000D01*
X30673500Y-45833000D02*
X30673500Y-50433000D01*
D13*
X30673500Y-50278000D02*
X35073500Y-50278000D01*
D11*
X30823500Y-45833000D02*
X30823500Y-50433000D01*
X30973500Y-45833000D02*
X30973500Y-50433000D01*
X31123500Y-45833000D02*
X31123500Y-50433000D01*
X31273500Y-45823000D02*
X31273500Y-50333000D01*
X31423500Y-45863000D02*
X31423500Y-50183000D01*
X31573500Y-45913000D02*
X31573500Y-50033000D01*
X31723500Y-45993000D02*
X31723500Y-50133000D01*
X31873500Y-46133000D02*
X31873500Y-50103000D01*
X32023500Y-46303000D02*
X32023500Y-49983000D01*
X32178500Y-49458000D02*
X32178500Y-46808000D01*
D13*
X35073500Y-50278000D02*
X35073500Y-48778000D01*
D11*
X26148500Y-48258000D02*
G75*
G02*
X27323500Y-49433000I-2J-1175002D01*
G01*
X28184704Y-50458000D02*
G75*
G02*
X27323500Y-49756113I38796J926887D01*
G01*
X29173500Y-45815542D02*
G75*
G02*
X27173500Y-44633000I2J2282546D01*
G01*
X31178500Y-45808000D02*
G75*
G02*
X32178500Y-46808000I1J-999999D01*
G01*
X32178500Y-49458000D02*
G75*
G02*
X31178500Y-50458000I-999999J-1D01*
G01*
X35373500Y-51233000D02*
G75*
G02*
X34373500Y-51233000I-500000J0D01*
G01*
X34373500Y-51233000D02*
G75*
G02*
X35373500Y-51233000I500000J0D01*
G01*
D12*
X18832843Y-36333000D02*
X19031281Y-36333000D01*
X19031281Y-35737686D02*
X19031281Y-36928314D01*
X19031281Y-36928314D02*
X20618785Y-36928314D01*
X19428157Y-36928314D02*
X19428157Y-35737686D01*
X20618785Y-35737686D02*
X19031281Y-35737686D01*
X20618785Y-36333000D02*
X20817223Y-36333000D01*
X20618785Y-36928314D02*
X20618785Y-35737686D01*
X45332843Y-32033000D02*
X45531281Y-32033000D01*
X45531281Y-31437686D02*
X45531281Y-32628314D01*
X45531281Y-32628314D02*
X47118785Y-32628314D01*
X45928157Y-32628314D02*
X45928157Y-31437686D01*
X47118785Y-31437686D02*
X45531281Y-31437686D01*
X47118785Y-32033000D02*
X47317223Y-32033000D01*
X47118785Y-32628314D02*
X47118785Y-31437686D01*
X18959443Y-32933000D02*
X19157881Y-32933000D01*
X19157881Y-32337686D02*
X19157881Y-33528314D01*
X19157881Y-33528314D02*
X20745385Y-33528314D01*
X19554757Y-33528314D02*
X19554757Y-32337686D01*
X20745385Y-32337686D02*
X19157881Y-32337686D01*
X20745385Y-32933000D02*
X20943823Y-32933000D01*
X20745385Y-33528314D02*
X20745385Y-32337686D01*
X52806343Y-33533000D02*
X53004781Y-33533000D01*
X53004781Y-32937686D02*
X53004781Y-34128314D01*
X53004781Y-34128314D02*
X54592285Y-34128314D01*
X53401657Y-34128314D02*
X53401657Y-32937686D01*
X54592285Y-32937686D02*
X53004781Y-32937686D01*
X54592285Y-33533000D02*
X54790723Y-33533000D01*
X54592285Y-34128314D02*
X54592285Y-32937686D01*
X104806343Y-62033000D02*
X105004781Y-62033000D01*
X105004781Y-61437686D02*
X105004781Y-62628314D01*
X105004781Y-62628314D02*
X106592285Y-62628314D01*
X105401657Y-62628314D02*
X105401657Y-61437686D01*
X106592285Y-61437686D02*
X105004781Y-61437686D01*
X106592285Y-62033000D02*
X106790723Y-62033000D01*
X106592285Y-62628314D02*
X106592285Y-61437686D01*
X75406343Y-64133000D02*
X75604781Y-64133000D01*
X75604781Y-63537686D02*
X75604781Y-64728314D01*
X75604781Y-64728314D02*
X77192285Y-64728314D01*
X76001657Y-64728314D02*
X76001657Y-63537686D01*
X77192285Y-63537686D02*
X75604781Y-63537686D01*
X77192285Y-64133000D02*
X77390723Y-64133000D01*
X77192285Y-64728314D02*
X77192285Y-63537686D01*
X28306342Y-75133000D02*
X28504781Y-75133000D01*
X28504781Y-74537686D02*
X28504781Y-75728314D01*
X28504781Y-75728314D02*
X30092285Y-75728314D01*
X28901657Y-75728314D02*
X28901657Y-74537686D01*
X30092285Y-74537686D02*
X28504781Y-74537686D01*
X30092285Y-75133000D02*
X30290723Y-75133000D01*
X30092285Y-75728314D02*
X30092285Y-74537686D01*
D11*
X39573500Y-38808000D02*
X40573500Y-37808000D01*
X39573500Y-41458000D02*
X39573500Y-38808000D01*
X39573500Y-41458000D02*
X40573500Y-42458000D01*
X39723500Y-38663000D02*
X39723500Y-41593000D01*
X39823500Y-38583000D02*
X39823500Y-41703000D01*
X39923500Y-38473000D02*
X39923500Y-41803000D01*
X40023500Y-38373000D02*
X40023500Y-41903000D01*
X40173500Y-38213000D02*
X40173500Y-42043000D01*
X40323500Y-38083000D02*
X40323500Y-42203000D01*
X40473500Y-37943000D02*
X40473500Y-42333000D01*
X40573500Y-37808000D02*
X42898500Y-37808000D01*
X40573500Y-42458000D02*
X43148500Y-42458000D01*
X40623500Y-37833000D02*
X40623500Y-42433000D01*
X40773500Y-37833000D02*
X40773500Y-42433000D01*
X40923500Y-37833000D02*
X40923500Y-42433000D01*
X41073500Y-37833000D02*
X41073500Y-42433000D01*
X41223500Y-37833000D02*
X41223500Y-42433000D01*
X41373500Y-37833000D02*
X41373500Y-42433000D01*
X41523500Y-37833000D02*
X41523500Y-42433000D01*
X41673500Y-37833000D02*
X41673500Y-42433000D01*
X41823500Y-37833000D02*
X41823500Y-42433000D01*
X41973500Y-37833000D02*
X41973500Y-42433000D01*
X42123500Y-37833000D02*
X42123500Y-42433000D01*
X42273500Y-37833000D02*
X42273500Y-42433000D01*
X42423500Y-37833000D02*
X42423500Y-42433000D01*
X42573500Y-37833000D02*
X42573500Y-42433000D01*
X42723500Y-37833000D02*
X42723500Y-42433000D01*
X42873500Y-37833000D02*
X42873500Y-42433000D01*
X43023500Y-37923000D02*
X43023500Y-42383000D01*
X43173500Y-38043000D02*
X43173500Y-42433000D01*
X43323500Y-38153000D02*
X43323500Y-42433000D01*
X43473500Y-38273000D02*
X43473500Y-42433000D01*
X43623500Y-38413000D02*
X43623500Y-42533000D01*
X43763500Y-38513000D02*
X43773500Y-42583000D01*
X43873500Y-38603000D02*
X43873500Y-42633000D01*
X43973500Y-38683000D02*
X43973500Y-42683000D01*
X44073500Y-38763000D02*
X44073500Y-42783000D01*
X44173500Y-38833000D02*
X42898500Y-37808000D01*
X44173500Y-38833000D02*
X44173500Y-42983000D01*
X44273500Y-39013000D02*
X44273500Y-43133000D01*
X44323500Y-43633000D02*
X44323500Y-43956113D01*
X44373500Y-39183000D02*
X44373500Y-44083000D01*
X44523500Y-39333000D02*
X44523500Y-44283000D01*
X44673500Y-39483000D02*
X44673500Y-44473000D01*
X44823500Y-39583000D02*
X44823500Y-44553000D01*
X44973500Y-39683000D02*
X44973500Y-44603000D01*
X45123500Y-39783000D02*
X45123500Y-44633000D01*
X45184704Y-44658000D02*
X48148500Y-44658000D01*
X45273500Y-39833000D02*
X45273500Y-44653000D01*
X45423500Y-39933000D02*
X45423500Y-44643000D01*
X45573500Y-39983000D02*
X45573500Y-44583000D01*
X45723500Y-39983000D02*
X45723500Y-44633000D01*
X45873500Y-39993000D02*
X45873500Y-44633000D01*
X46023500Y-40033000D02*
X46023500Y-44583000D01*
X46173500Y-40008000D02*
X48148500Y-40008000D01*
X46173500Y-40033000D02*
X46173500Y-44633000D01*
X46323500Y-40033000D02*
X46323500Y-44633000D01*
X46473500Y-40033000D02*
X46473500Y-44633000D01*
X46623500Y-40033000D02*
X46623500Y-44633000D01*
X46773500Y-40033000D02*
X46773500Y-44633000D01*
X46923500Y-40033000D02*
X46923500Y-44633000D01*
X47073500Y-40033000D02*
X47073500Y-44633000D01*
X47223500Y-40033000D02*
X47223500Y-44633000D01*
X47373500Y-40033000D02*
X47373500Y-44633000D01*
X47523500Y-40033000D02*
X47523500Y-44633000D01*
X47673500Y-40033000D02*
X47673500Y-44633000D01*
D13*
X47673500Y-44478000D02*
X52073500Y-44478000D01*
D11*
X47823500Y-40033000D02*
X47823500Y-44633000D01*
X47973500Y-40033000D02*
X47973500Y-44633000D01*
X48123500Y-40033000D02*
X48123500Y-44633000D01*
X48273500Y-40023000D02*
X48273500Y-44533000D01*
X48423500Y-40063000D02*
X48423500Y-44383000D01*
X48573500Y-40113000D02*
X48573500Y-44233000D01*
X48723500Y-40193000D02*
X48723500Y-44333000D01*
X48873500Y-40333000D02*
X48873500Y-44303000D01*
X49023500Y-40503000D02*
X49023500Y-44183000D01*
X49178500Y-43658000D02*
X49178500Y-41008000D01*
D13*
X52073500Y-44478000D02*
X52073500Y-42978000D01*
D11*
X43148500Y-42458000D02*
G75*
G02*
X44323500Y-43633000I-2J-1175002D01*
G01*
X45184704Y-44658000D02*
G75*
G02*
X44323500Y-43956113I38796J926887D01*
G01*
X46173500Y-40015542D02*
G75*
G02*
X44173500Y-38833000I2J2282546D01*
G01*
X48178500Y-40008000D02*
G75*
G02*
X49178500Y-41008000I1J-999999D01*
G01*
X49178500Y-43658000D02*
G75*
G02*
X48178500Y-44658000I-999999J-1D01*
G01*
X52373500Y-45433000D02*
G75*
G02*
X51373500Y-45433000I-500000J0D01*
G01*
X51373500Y-45433000D02*
G75*
G02*
X52373500Y-45433000I500000J0D01*
G01*
D13*
X99673500Y-53388000D02*
X99673500Y-54888000D01*
D11*
X102568500Y-54208000D02*
X102568500Y-56858000D01*
X102723500Y-57363000D02*
X102723500Y-53683000D01*
X102873500Y-57533000D02*
X102873500Y-53563000D01*
X103023500Y-57673000D02*
X103023500Y-53533000D01*
X103173500Y-57753000D02*
X103173500Y-53633000D01*
X103323500Y-57803000D02*
X103323500Y-53483000D01*
X103473500Y-57843000D02*
X103473500Y-53333000D01*
X103623500Y-57833000D02*
X103623500Y-53233000D01*
X103773500Y-57833000D02*
X103773500Y-53233000D01*
X103923500Y-57833000D02*
X103923500Y-53233000D01*
D13*
X104073500Y-53388000D02*
X99673500Y-53388000D01*
D11*
X104073500Y-57833000D02*
X104073500Y-53233000D01*
X104223500Y-57833000D02*
X104223500Y-53233000D01*
X104373500Y-57833000D02*
X104373500Y-53233000D01*
X104523500Y-57833000D02*
X104523500Y-53233000D01*
X104673500Y-57833000D02*
X104673500Y-53233000D01*
X104823500Y-57833000D02*
X104823500Y-53233000D01*
X104973500Y-57833000D02*
X104973500Y-53233000D01*
X105123500Y-57833000D02*
X105123500Y-53233000D01*
X105273500Y-57833000D02*
X105273500Y-53233000D01*
X105423500Y-57833000D02*
X105423500Y-53233000D01*
X105573500Y-57833000D02*
X105573500Y-53233000D01*
X105573500Y-57858000D02*
X103598500Y-57858000D01*
X105723500Y-57833000D02*
X105723500Y-53283000D01*
X105873500Y-57873000D02*
X105873500Y-53233000D01*
X106023500Y-57883000D02*
X106023500Y-53233000D01*
X106173500Y-57883000D02*
X106173500Y-53283000D01*
X106323500Y-57933000D02*
X106323500Y-53223000D01*
X106473500Y-58033000D02*
X106473500Y-53213000D01*
X106562296Y-53208000D02*
X103598500Y-53208000D01*
X106623500Y-58083000D02*
X106623500Y-53233000D01*
X106773500Y-58183000D02*
X106773500Y-53263000D01*
X106923500Y-58283000D02*
X106923500Y-53313000D01*
X107073500Y-58383000D02*
X107073500Y-53393000D01*
X107223500Y-58533000D02*
X107223500Y-53583000D01*
X107373500Y-58683000D02*
X107373500Y-53783000D01*
X107423500Y-54233000D02*
X107423500Y-53909887D01*
X107473500Y-58853000D02*
X107473500Y-54733000D01*
X107573500Y-59033000D02*
X107573500Y-54883000D01*
X107573500Y-59033000D02*
X108848500Y-60058000D01*
X107673500Y-59103000D02*
X107673500Y-55083000D01*
X107773500Y-59183000D02*
X107773500Y-55183000D01*
X107873500Y-59263000D02*
X107873500Y-55233000D01*
X107983500Y-59353000D02*
X107973500Y-55283000D01*
X108123500Y-59453000D02*
X108123500Y-55333000D01*
X108273500Y-59593000D02*
X108273500Y-55433000D01*
X108423500Y-59713000D02*
X108423500Y-55433000D01*
X108573500Y-59823000D02*
X108573500Y-55433000D01*
X108723500Y-59943000D02*
X108723500Y-55483000D01*
X108873500Y-60033000D02*
X108873500Y-55433000D01*
X109023500Y-60033000D02*
X109023500Y-55433000D01*
X109173500Y-60033000D02*
X109173500Y-55433000D01*
X109323500Y-60033000D02*
X109323500Y-55433000D01*
X109473500Y-60033000D02*
X109473500Y-55433000D01*
X109623500Y-60033000D02*
X109623500Y-55433000D01*
X109773500Y-60033000D02*
X109773500Y-55433000D01*
X109923500Y-60033000D02*
X109923500Y-55433000D01*
X110073500Y-60033000D02*
X110073500Y-55433000D01*
X110223500Y-60033000D02*
X110223500Y-55433000D01*
X110373500Y-60033000D02*
X110373500Y-55433000D01*
X110523500Y-60033000D02*
X110523500Y-55433000D01*
X110673500Y-60033000D02*
X110673500Y-55433000D01*
X110823500Y-60033000D02*
X110823500Y-55433000D01*
X110973500Y-60033000D02*
X110973500Y-55433000D01*
X111123500Y-60033000D02*
X111123500Y-55433000D01*
X111173500Y-55408000D02*
X108598500Y-55408000D01*
X111173500Y-60058000D02*
X108848500Y-60058000D01*
X111273500Y-59923000D02*
X111273500Y-55533000D01*
X111423500Y-59783000D02*
X111423500Y-55663000D01*
X111573500Y-59653000D02*
X111573500Y-55823000D01*
X111723500Y-59493000D02*
X111723500Y-55963000D01*
X111823500Y-59393000D02*
X111823500Y-56063000D01*
X111923500Y-59283000D02*
X111923500Y-56163000D01*
X112023500Y-59203000D02*
X112023500Y-56273000D01*
X112173500Y-56408000D02*
X111173500Y-55408000D01*
X112173500Y-56408000D02*
X112173500Y-59058000D01*
X112173500Y-59058000D02*
X111173500Y-60058000D01*
X102568500Y-54208000D02*
G75*
G02*
X103568500Y-53208000I999999J1D01*
G01*
X103568500Y-57858000D02*
G75*
G02*
X102568500Y-56858000I-1J999999D01*
G01*
X105573500Y-57850458D02*
G75*
G02*
X107573500Y-59033000I-2J-2282546D01*
G01*
X106562296Y-53208000D02*
G75*
G02*
X107423500Y-53909887I-38796J-926887D01*
G01*
X108598500Y-55408000D02*
G75*
G02*
X107423500Y-54233000I2J1175002D01*
G01*
X100373500Y-52433000D02*
G75*
G02*
X99373500Y-52433000I-500000J0D01*
G01*
X99373500Y-52433000D02*
G75*
G02*
X100373500Y-52433000I500000J0D01*
G01*
D13*
X82673500Y-45213000D02*
X82673500Y-46713000D01*
D11*
X85568500Y-46033000D02*
X85568500Y-48683000D01*
X85723500Y-49188000D02*
X85723500Y-45508000D01*
X85873500Y-49358000D02*
X85873500Y-45388000D01*
X86023500Y-49498000D02*
X86023500Y-45358000D01*
X86173500Y-49578000D02*
X86173500Y-45458000D01*
X86323500Y-49628000D02*
X86323500Y-45308000D01*
X86473500Y-49668000D02*
X86473500Y-45158000D01*
X86623500Y-49658000D02*
X86623500Y-45058000D01*
X86773500Y-49658000D02*
X86773500Y-45058000D01*
X86923500Y-49658000D02*
X86923500Y-45058000D01*
D13*
X87073500Y-45213000D02*
X82673500Y-45213000D01*
D11*
X87073500Y-49658000D02*
X87073500Y-45058000D01*
X87223500Y-49658000D02*
X87223500Y-45058000D01*
X87373500Y-49658000D02*
X87373500Y-45058000D01*
X87523500Y-49658000D02*
X87523500Y-45058000D01*
X87673500Y-49658000D02*
X87673500Y-45058000D01*
X87823500Y-49658000D02*
X87823500Y-45058000D01*
X87973500Y-49658000D02*
X87973500Y-45058000D01*
X88123500Y-49658000D02*
X88123500Y-45058000D01*
X88273500Y-49658000D02*
X88273500Y-45058000D01*
X88423500Y-49658000D02*
X88423500Y-45058000D01*
X88573500Y-49658000D02*
X88573500Y-45058000D01*
X88573500Y-49683000D02*
X86598500Y-49683000D01*
X88723500Y-49658000D02*
X88723500Y-45108000D01*
X88873500Y-49698000D02*
X88873500Y-45058000D01*
X89023500Y-49708000D02*
X89023500Y-45058000D01*
X89173500Y-49708000D02*
X89173500Y-45108000D01*
X89323500Y-49758000D02*
X89323500Y-45048000D01*
X89473500Y-49858000D02*
X89473500Y-45038000D01*
X89562296Y-45033000D02*
X86598500Y-45033000D01*
X89623500Y-49908000D02*
X89623500Y-45058000D01*
X89773500Y-50008000D02*
X89773500Y-45088000D01*
X89923500Y-50108000D02*
X89923500Y-45138000D01*
X90073500Y-50208000D02*
X90073500Y-45218000D01*
X90223500Y-50358000D02*
X90223500Y-45408000D01*
X90373500Y-50508000D02*
X90373500Y-45608000D01*
X90423500Y-46058000D02*
X90423500Y-45734887D01*
X90473500Y-50678000D02*
X90473500Y-46558000D01*
X90573500Y-50858000D02*
X90573500Y-46708000D01*
X90573500Y-50858000D02*
X91848500Y-51883000D01*
X90673500Y-50928000D02*
X90673500Y-46908000D01*
X90773500Y-51008000D02*
X90773500Y-47008000D01*
X90873500Y-51088000D02*
X90873500Y-47058000D01*
X90983500Y-51178000D02*
X90973500Y-47108000D01*
X91123500Y-51278000D02*
X91123500Y-47158000D01*
X91273500Y-51418000D02*
X91273500Y-47258000D01*
X91423500Y-51538000D02*
X91423500Y-47258000D01*
X91573500Y-51648000D02*
X91573500Y-47258000D01*
X91723500Y-51768000D02*
X91723500Y-47308000D01*
X91873500Y-51858000D02*
X91873500Y-47258000D01*
X92023500Y-51858000D02*
X92023500Y-47258000D01*
X92173500Y-51858000D02*
X92173500Y-47258000D01*
X92323500Y-51858000D02*
X92323500Y-47258000D01*
X92473500Y-51858000D02*
X92473500Y-47258000D01*
X92623500Y-51858000D02*
X92623500Y-47258000D01*
X92773500Y-51858000D02*
X92773500Y-47258000D01*
X92923500Y-51858000D02*
X92923500Y-47258000D01*
X93073500Y-51858000D02*
X93073500Y-47258000D01*
X93223500Y-51858000D02*
X93223500Y-47258000D01*
X93373500Y-51858000D02*
X93373500Y-47258000D01*
X93523500Y-51858000D02*
X93523500Y-47258000D01*
X93673500Y-51858000D02*
X93673500Y-47258000D01*
X93823500Y-51858000D02*
X93823500Y-47258000D01*
X93973500Y-51858000D02*
X93973500Y-47258000D01*
X94123500Y-51858000D02*
X94123500Y-47258000D01*
X94173500Y-47233000D02*
X91598500Y-47233000D01*
X94173500Y-51883000D02*
X91848500Y-51883000D01*
X94273500Y-51748000D02*
X94273500Y-47358000D01*
X94423500Y-51608000D02*
X94423500Y-47488000D01*
X94573500Y-51478000D02*
X94573500Y-47648000D01*
X94723500Y-51318000D02*
X94723500Y-47788000D01*
X94823500Y-51218000D02*
X94823500Y-47888000D01*
X94923500Y-51108000D02*
X94923500Y-47988000D01*
X95023500Y-51028000D02*
X95023500Y-48098000D01*
X95173500Y-48233000D02*
X94173500Y-47233000D01*
X95173500Y-48233000D02*
X95173500Y-50883000D01*
X95173500Y-50883000D02*
X94173500Y-51883000D01*
X85568500Y-46033000D02*
G75*
G02*
X86568500Y-45033000I999999J1D01*
G01*
X86568500Y-49683000D02*
G75*
G02*
X85568500Y-48683000I-1J999999D01*
G01*
X88573500Y-49675458D02*
G75*
G02*
X90573500Y-50858000I-2J-2282546D01*
G01*
X89562296Y-45033000D02*
G75*
G02*
X90423500Y-45734887I-38796J-926887D01*
G01*
X91598500Y-47233000D02*
G75*
G02*
X90423500Y-46058000I2J1175002D01*
G01*
X83373500Y-44258000D02*
G75*
G02*
X82373500Y-44258000I-500000J0D01*
G01*
X82373500Y-44258000D02*
G75*
G02*
X83373500Y-44258000I500000J0D01*
G01*
D14*
X28613500Y-66133000D02*
X28613500Y-64183000D01*
X28613500Y-66133000D02*
X28613500Y-68083000D01*
X38733500Y-66133000D02*
X38733500Y-64183000D01*
X38733500Y-66133000D02*
X38733500Y-68083000D01*
X28668500Y-63433000D02*
X28338500Y-63673000D01*
X28338500Y-63193000D01*
X28668500Y-63433000D01*
G36*
X28668500Y-63433000D02*
G01*
X28338500Y-63673000D01*
X28338500Y-63193000D01*
X28668500Y-63433000D01*
G37*
D11*
X36307250Y-73876750D02*
X36307250Y-74670500D01*
X36307250Y-84989250D02*
X36307250Y-84195500D01*
X37101000Y-73876750D02*
X36307250Y-73876750D01*
X37101000Y-84989250D02*
X36307250Y-84989250D01*
X46626000Y-84989250D02*
X47419750Y-84989250D01*
X47419750Y-73876750D02*
X46626000Y-73876750D01*
X47419750Y-74670500D02*
X47419750Y-73876750D01*
X47419750Y-84989250D02*
X47419750Y-84195500D01*
M02*
