%TF.GenerationSoftware,KiCad,Pcbnew,9.0.0*%
%TF.CreationDate,2025-03-30T21:59:10+09:00*%
%TF.ProjectId,nofy,6e6f6679-2e6b-4696-9361-645f70636258,rev?*%
%TF.SameCoordinates,Original*%
%TF.FileFunction,Drillmap*%
%TF.FilePolarity,Positive*%
%FSLAX45Y45*%
G04 Gerber Fmt 4.5, Leading zero omitted, Abs format (unit mm)*
G04 Created by KiCad (PCBNEW 9.0.0) date 2025-03-30 21:59:10*
%MOMM*%
%LPD*%
G01*
G04 APERTURE LIST*
%ADD10C,0.050000*%
%ADD11C,0.200000*%
%ADD12C,0.100000*%
%ADD13C,0.220000*%
%ADD14C,0.300000*%
%ADD15C,0.480000*%
G04 APERTURE END LIST*
D10*
X5057350Y-1973300D02*
G75*
G02*
X4957350Y-2073300I-100000J0D01*
G01*
X8357350Y-6583300D02*
G75*
G02*
X8457350Y-6683300I0J-100000D01*
G01*
X1727350Y-2753300D02*
X1727350Y-9313300D01*
X6757350Y-1623300D02*
G75*
G02*
X6857350Y-1523300I100000J0D01*
G01*
X6717350Y-6683300D02*
G75*
G02*
X6817350Y-6583300I100000J0D01*
G01*
X9547350Y-9413300D02*
X11597350Y-9413300D01*
X3317350Y-9313300D02*
G75*
G02*
X3217350Y-9413300I-100000J0D01*
G01*
X6757350Y-1733300D02*
G75*
G02*
X6657350Y-1833300I-100000J0D01*
G01*
X10217350Y-2653299D02*
G75*
G02*
X10117351Y-2553299I0J99999D01*
G01*
X3317350Y-9313300D02*
X3317350Y-8933300D01*
X6757350Y-1623300D02*
X6757350Y-1733300D01*
X9447350Y-6993300D02*
X9447350Y-9313300D01*
X5017350Y-6993300D02*
G75*
G02*
X5117350Y-6893300I100000J0D01*
G01*
X8317350Y-1523300D02*
X6857350Y-1523300D01*
X10017350Y-1833300D02*
X8517350Y-1833300D01*
X9347350Y-6893300D02*
G75*
G02*
X9447350Y-6993300I0J-100000D01*
G01*
X6717350Y-6793300D02*
X6717350Y-6683300D01*
X8557350Y-6893300D02*
X9347350Y-6893300D01*
X8517350Y-1833300D02*
G75*
G02*
X8417350Y-1733300I0J100000D01*
G01*
X5117350Y-6893300D02*
X6617350Y-6893300D01*
X6657350Y-1833300D02*
X5157350Y-1833300D01*
X6717350Y-6793300D02*
G75*
G02*
X6617350Y-6893300I-100000J0D01*
G01*
X10017350Y-1833300D02*
G75*
G02*
X10117350Y-1933300I0J-100000D01*
G01*
X3357350Y-2173300D02*
G75*
G02*
X3457350Y-2073300I100000J0D01*
G01*
X1827350Y-9413300D02*
G75*
G02*
X1727350Y-9313300I0J100000D01*
G01*
X6817350Y-6583300D02*
X8357350Y-6583300D01*
X8557350Y-6893300D02*
G75*
G02*
X8457350Y-6793300I0J100000D01*
G01*
X1827350Y-9413300D02*
X3217350Y-9413300D01*
X1727350Y-2753300D02*
G75*
G02*
X1827350Y-2653300I100000J0D01*
G01*
X3357350Y-2553300D02*
X3357350Y-2173300D01*
X3257350Y-2653300D02*
X1827350Y-2653300D01*
X8317350Y-1523300D02*
G75*
G02*
X8417350Y-1623300I0J-100000D01*
G01*
X8457350Y-6683300D02*
X8457350Y-6793300D01*
X11697350Y-9313300D02*
X11697350Y-2753300D01*
X9547350Y-9413300D02*
G75*
G02*
X9447350Y-9313300I0J100000D01*
G01*
X3417350Y-8833300D02*
X4917350Y-8833300D01*
X8417350Y-1733300D02*
X8417350Y-1623300D01*
X4957350Y-2073300D02*
X3457350Y-2073300D01*
X5017350Y-8733300D02*
X5017350Y-6993300D01*
X10117350Y-2553299D02*
X10117350Y-1933300D01*
X11597350Y-2653300D02*
G75*
G02*
X11697350Y-2753300I0J-100000D01*
G01*
X3357350Y-2553300D02*
G75*
G02*
X3257350Y-2653300I-100000J0D01*
G01*
X3317350Y-8933300D02*
G75*
G02*
X3417350Y-8833300I100000J0D01*
G01*
X5057350Y-1933300D02*
X5057350Y-1973300D01*
X5057350Y-1933300D02*
G75*
G02*
X5157350Y-1833300I100000J0D01*
G01*
X5017350Y-8733300D02*
G75*
G02*
X4917350Y-8833300I-100000J0D01*
G01*
X11597350Y-2653300D02*
X10217350Y-2653299D01*
X11697350Y-9313300D02*
G75*
G02*
X11597350Y-9413300I-100000J0D01*
G01*
D11*
D12*
X1937350Y-3988300D02*
X2037350Y-4088300D01*
X2037350Y-3988300D02*
X1937350Y-4088300D01*
X1937350Y-5688300D02*
X2037350Y-5788300D01*
X2037350Y-5688300D02*
X1937350Y-5788300D01*
X2992350Y-7333300D02*
X3092350Y-7433300D01*
X3092350Y-7333300D02*
X2992350Y-7433300D01*
X2992350Y-9033300D02*
X3092350Y-9133300D01*
X3092350Y-9033300D02*
X2992350Y-9133300D01*
X4637350Y-7398300D02*
X4737350Y-7498300D01*
X4737350Y-7398300D02*
X4637350Y-7498300D01*
X5337350Y-3168300D02*
X5437350Y-3268300D01*
X5437350Y-3168300D02*
X5337350Y-3268300D01*
X5337350Y-4868300D02*
X5437350Y-4968300D01*
X5437350Y-4868300D02*
X5337350Y-4968300D01*
X5337350Y-6568300D02*
X5437350Y-6668300D01*
X5437350Y-6568300D02*
X5337350Y-6668300D01*
X7037350Y-2858300D02*
X7137350Y-2958300D01*
X7137350Y-2858300D02*
X7037350Y-2958300D01*
X7037350Y-4558300D02*
X7137350Y-4658300D01*
X7137350Y-4558300D02*
X7037350Y-4658300D01*
X7037350Y-6258300D02*
X7137350Y-6358300D01*
X7137350Y-6258300D02*
X7037350Y-6358300D01*
X9737350Y-2060800D02*
X9837350Y-2160800D01*
X9837350Y-2060800D02*
X9737350Y-2160800D01*
X9737350Y-3760800D02*
X9837350Y-3860800D01*
X9837350Y-3760800D02*
X9737350Y-3860800D01*
X9737350Y-5458300D02*
X9837350Y-5558300D01*
X9837350Y-5458300D02*
X9737350Y-5558300D01*
X11437350Y-2878300D02*
X11537350Y-2978300D01*
X11537350Y-2878300D02*
X11437350Y-2978300D01*
X11437350Y-4578300D02*
X11537350Y-4678300D01*
X11537350Y-4578300D02*
X11437350Y-4678300D01*
X11437350Y-6278300D02*
X11537350Y-6378300D01*
X11537350Y-6278300D02*
X11437350Y-6378300D01*
X11437350Y-7978300D02*
X11537350Y-8078300D01*
X11537350Y-7978300D02*
X11437350Y-8078300D01*
D13*
X5107350Y-5453300D02*
G75*
G02*
X4887350Y-5453300I-110000J0D01*
G01*
X4887350Y-5453300D02*
G75*
G02*
X5107350Y-5453300I110000J0D01*
G01*
X10257350Y-7733300D02*
G75*
G02*
X10037350Y-7733300I-110000J0D01*
G01*
X10037350Y-7733300D02*
G75*
G02*
X10257350Y-7733300I110000J0D01*
G01*
X10297350Y-4333300D02*
G75*
G02*
X10077350Y-4333300I-110000J0D01*
G01*
X10077350Y-4333300D02*
G75*
G02*
X10297350Y-4333300I110000J0D01*
G01*
D14*
X1897350Y-6733300D02*
X1897350Y-7033300D01*
X1747350Y-6883300D02*
X2047350Y-6883300D01*
X1897350Y-8433300D02*
X1897350Y-8733300D01*
X1747350Y-8583300D02*
X2047350Y-8583300D01*
X2117350Y-6233300D02*
X2117350Y-6533300D01*
X1967350Y-6383300D02*
X2267350Y-6383300D01*
X2117350Y-7933300D02*
X2117350Y-8233300D01*
X1967350Y-8083300D02*
X2267350Y-8083300D01*
X2487350Y-2743300D02*
X2487350Y-3043300D01*
X2337350Y-2893300D02*
X2637350Y-2893300D01*
X2487350Y-4443300D02*
X2487350Y-4743300D01*
X2337350Y-4593300D02*
X2637350Y-4593300D01*
X2987350Y-2963300D02*
X2987350Y-3263300D01*
X2837350Y-3113300D02*
X3137350Y-3113300D01*
X2987350Y-4663300D02*
X2987350Y-4963300D01*
X2837350Y-4813300D02*
X3137350Y-4813300D01*
X3687350Y-8223300D02*
X3687350Y-8523300D01*
X3537350Y-8373300D02*
X3837350Y-8373300D01*
X4187350Y-2163300D02*
X4187350Y-2463300D01*
X4037350Y-2313300D02*
X4337350Y-2313300D01*
X4187350Y-3863300D02*
X4187350Y-4163300D01*
X4037350Y-4013300D02*
X4337350Y-4013300D01*
X4187350Y-5563300D02*
X4187350Y-5863300D01*
X4037350Y-5713300D02*
X4337350Y-5713300D01*
X4187350Y-8443300D02*
X4187350Y-8743300D01*
X4037350Y-8593300D02*
X4337350Y-8593300D01*
X4687350Y-2383300D02*
X4687350Y-2683300D01*
X4537350Y-2533300D02*
X4837350Y-2533300D01*
X4687350Y-4083300D02*
X4687350Y-4383300D01*
X4537350Y-4233300D02*
X4837350Y-4233300D01*
X4687350Y-5783300D02*
X4687350Y-6083300D01*
X4537350Y-5933300D02*
X4837350Y-5933300D01*
X5887350Y-1923300D02*
X5887350Y-2223300D01*
X5737350Y-2073300D02*
X6037350Y-2073300D01*
X5887350Y-3623300D02*
X5887350Y-3923300D01*
X5737350Y-3773300D02*
X6037350Y-3773300D01*
X5887350Y-5323300D02*
X5887350Y-5623300D01*
X5737350Y-5473300D02*
X6037350Y-5473300D01*
X6387350Y-2143300D02*
X6387350Y-2443300D01*
X6237350Y-2293300D02*
X6537350Y-2293300D01*
X6387350Y-3843300D02*
X6387350Y-4143300D01*
X6237350Y-3993300D02*
X6537350Y-3993300D01*
X6387350Y-5543300D02*
X6387350Y-5843300D01*
X6237350Y-5693300D02*
X6537350Y-5693300D01*
X7587350Y-1613300D02*
X7587350Y-1913300D01*
X7437350Y-1763300D02*
X7737350Y-1763300D01*
X7587350Y-3313300D02*
X7587350Y-3613300D01*
X7437350Y-3463300D02*
X7737350Y-3463300D01*
X7587350Y-5013300D02*
X7587350Y-5313300D01*
X7437350Y-5163300D02*
X7737350Y-5163300D01*
X8087350Y-1833300D02*
X8087350Y-2133300D01*
X7937350Y-1983300D02*
X8237350Y-1983300D01*
X8087350Y-3533300D02*
X8087350Y-3833300D01*
X7937350Y-3683300D02*
X8237350Y-3683300D01*
X8087350Y-5233300D02*
X8087350Y-5533300D01*
X7937350Y-5383300D02*
X8237350Y-5383300D01*
X8787350Y-2885800D02*
X8787350Y-3185800D01*
X8637350Y-3035800D02*
X8937350Y-3035800D01*
X8787350Y-4585800D02*
X8787350Y-4885800D01*
X8637350Y-4735800D02*
X8937350Y-4735800D01*
X8787350Y-6283300D02*
X8787350Y-6583300D01*
X8637350Y-6433300D02*
X8937350Y-6433300D01*
X9287350Y-3105800D02*
X9287350Y-3405800D01*
X9137350Y-3255800D02*
X9437350Y-3255800D01*
X9287350Y-4805800D02*
X9287350Y-5105800D01*
X9137350Y-4955800D02*
X9437350Y-4955800D01*
X9287350Y-6503300D02*
X9287350Y-6803300D01*
X9137350Y-6653300D02*
X9437350Y-6653300D01*
X10487350Y-3703300D02*
X10487350Y-4003300D01*
X10337350Y-3853300D02*
X10637350Y-3853300D01*
X10487350Y-5403300D02*
X10487350Y-5703300D01*
X10337350Y-5553300D02*
X10637350Y-5553300D01*
X10487350Y-7103300D02*
X10487350Y-7403300D01*
X10337350Y-7253300D02*
X10637350Y-7253300D01*
X10487350Y-8803300D02*
X10487350Y-9103300D01*
X10337350Y-8953300D02*
X10637350Y-8953300D01*
X10987350Y-3923300D02*
X10987350Y-4223300D01*
X10837350Y-4073300D02*
X11137350Y-4073300D01*
X10987350Y-5623300D02*
X10987350Y-5923300D01*
X10837350Y-5773300D02*
X11137350Y-5773300D01*
X10987350Y-7323300D02*
X10987350Y-7623300D01*
X10837350Y-7473300D02*
X11137350Y-7473300D01*
X10987350Y-9023300D02*
X10987350Y-9323300D01*
X10837350Y-9173300D02*
X11137350Y-9173300D01*
D15*
X2657057Y-3653007D02*
X2657057Y-3313593D01*
X2317643Y-3313593D01*
X2317643Y-3653007D01*
X2657057Y-3653007D01*
X2657057Y-5353007D02*
X2657057Y-5013593D01*
X2317643Y-5013593D01*
X2317643Y-5353007D01*
X2657057Y-5353007D01*
X2657057Y-7053007D02*
X2657057Y-6713593D01*
X2317643Y-6713593D01*
X2317643Y-7053007D01*
X2657057Y-7053007D01*
X2657057Y-8753007D02*
X2657057Y-8413593D01*
X2317643Y-8413593D01*
X2317643Y-8753007D01*
X2657057Y-8753007D01*
X4357057Y-3073007D02*
X4357057Y-2733593D01*
X4017643Y-2733593D01*
X4017643Y-3073007D01*
X4357057Y-3073007D01*
X4357057Y-4773007D02*
X4357057Y-4433593D01*
X4017643Y-4433593D01*
X4017643Y-4773007D01*
X4357057Y-4773007D01*
X4357057Y-6473007D02*
X4357057Y-6133593D01*
X4017643Y-6133593D01*
X4017643Y-6473007D01*
X4357057Y-6473007D01*
X4357057Y-8173007D02*
X4357057Y-7833593D01*
X4017643Y-7833593D01*
X4017643Y-8173007D01*
X4357057Y-8173007D01*
X6057057Y-2833007D02*
X6057057Y-2493593D01*
X5717643Y-2493593D01*
X5717643Y-2833007D01*
X6057057Y-2833007D01*
X6057057Y-4533007D02*
X6057057Y-4193593D01*
X5717643Y-4193593D01*
X5717643Y-4533007D01*
X6057057Y-4533007D01*
X6057057Y-6233007D02*
X6057057Y-5893593D01*
X5717643Y-5893593D01*
X5717643Y-6233007D01*
X6057057Y-6233007D01*
X7757057Y-2523007D02*
X7757057Y-2183593D01*
X7417643Y-2183593D01*
X7417643Y-2523007D01*
X7757057Y-2523007D01*
X7757057Y-4223007D02*
X7757057Y-3883593D01*
X7417643Y-3883593D01*
X7417643Y-4223007D01*
X7757057Y-4223007D01*
X7757057Y-5923007D02*
X7757057Y-5583593D01*
X7417643Y-5583593D01*
X7417643Y-5923007D01*
X7757057Y-5923007D01*
X9457057Y-2835507D02*
X9457057Y-2496093D01*
X9117643Y-2496093D01*
X9117643Y-2835507D01*
X9457057Y-2835507D01*
X9457057Y-4535507D02*
X9457057Y-4196093D01*
X9117643Y-4196093D01*
X9117643Y-4535507D01*
X9457057Y-4535507D01*
X9457057Y-6233007D02*
X9457057Y-5893593D01*
X9117643Y-5893593D01*
X9117643Y-6233007D01*
X9457057Y-6233007D01*
X11157057Y-3653007D02*
X11157057Y-3313593D01*
X10817643Y-3313593D01*
X10817643Y-3653007D01*
X11157057Y-3653007D01*
X11157057Y-5353007D02*
X11157057Y-5013593D01*
X10817643Y-5013593D01*
X10817643Y-5353007D01*
X11157057Y-5353007D01*
X11157057Y-7053007D02*
X11157057Y-6713593D01*
X10817643Y-6713593D01*
X10817643Y-7053007D01*
X11157057Y-7053007D01*
X11157057Y-8753007D02*
X11157057Y-8413593D01*
X10817643Y-8413593D01*
X10817643Y-8753007D01*
X11157057Y-8753007D01*
D11*
X1985627Y-9727284D02*
X1985627Y-9527284D01*
X1985627Y-9527284D02*
X2033246Y-9527284D01*
X2033246Y-9527284D02*
X2061817Y-9536808D01*
X2061817Y-9536808D02*
X2080865Y-9555855D01*
X2080865Y-9555855D02*
X2090389Y-9574903D01*
X2090389Y-9574903D02*
X2099913Y-9612998D01*
X2099913Y-9612998D02*
X2099913Y-9641570D01*
X2099913Y-9641570D02*
X2090389Y-9679665D01*
X2090389Y-9679665D02*
X2080865Y-9698712D01*
X2080865Y-9698712D02*
X2061817Y-9717760D01*
X2061817Y-9717760D02*
X2033246Y-9727284D01*
X2033246Y-9727284D02*
X1985627Y-9727284D01*
X2185627Y-9727284D02*
X2185627Y-9593950D01*
X2185627Y-9632046D02*
X2195151Y-9612998D01*
X2195151Y-9612998D02*
X2204674Y-9603474D01*
X2204674Y-9603474D02*
X2223722Y-9593950D01*
X2223722Y-9593950D02*
X2242770Y-9593950D01*
X2309436Y-9727284D02*
X2309436Y-9593950D01*
X2309436Y-9527284D02*
X2299913Y-9536808D01*
X2299913Y-9536808D02*
X2309436Y-9546331D01*
X2309436Y-9546331D02*
X2318960Y-9536808D01*
X2318960Y-9536808D02*
X2309436Y-9527284D01*
X2309436Y-9527284D02*
X2309436Y-9546331D01*
X2433246Y-9727284D02*
X2414198Y-9717760D01*
X2414198Y-9717760D02*
X2404674Y-9698712D01*
X2404674Y-9698712D02*
X2404674Y-9527284D01*
X2538008Y-9727284D02*
X2518960Y-9717760D01*
X2518960Y-9717760D02*
X2509436Y-9698712D01*
X2509436Y-9698712D02*
X2509436Y-9527284D01*
X2766579Y-9727284D02*
X2766579Y-9527284D01*
X2766579Y-9527284D02*
X2833246Y-9670141D01*
X2833246Y-9670141D02*
X2899912Y-9527284D01*
X2899912Y-9527284D02*
X2899912Y-9727284D01*
X3080865Y-9727284D02*
X3080865Y-9622522D01*
X3080865Y-9622522D02*
X3071341Y-9603474D01*
X3071341Y-9603474D02*
X3052293Y-9593950D01*
X3052293Y-9593950D02*
X3014198Y-9593950D01*
X3014198Y-9593950D02*
X2995151Y-9603474D01*
X3080865Y-9717760D02*
X3061817Y-9727284D01*
X3061817Y-9727284D02*
X3014198Y-9727284D01*
X3014198Y-9727284D02*
X2995151Y-9717760D01*
X2995151Y-9717760D02*
X2985627Y-9698712D01*
X2985627Y-9698712D02*
X2985627Y-9679665D01*
X2985627Y-9679665D02*
X2995151Y-9660617D01*
X2995151Y-9660617D02*
X3014198Y-9651093D01*
X3014198Y-9651093D02*
X3061817Y-9651093D01*
X3061817Y-9651093D02*
X3080865Y-9641570D01*
X3176103Y-9593950D02*
X3176103Y-9793950D01*
X3176103Y-9603474D02*
X3195151Y-9593950D01*
X3195151Y-9593950D02*
X3233246Y-9593950D01*
X3233246Y-9593950D02*
X3252293Y-9603474D01*
X3252293Y-9603474D02*
X3261817Y-9612998D01*
X3261817Y-9612998D02*
X3271341Y-9632046D01*
X3271341Y-9632046D02*
X3271341Y-9689189D01*
X3271341Y-9689189D02*
X3261817Y-9708236D01*
X3261817Y-9708236D02*
X3252293Y-9717760D01*
X3252293Y-9717760D02*
X3233246Y-9727284D01*
X3233246Y-9727284D02*
X3195151Y-9727284D01*
X3195151Y-9727284D02*
X3176103Y-9717760D01*
X3357055Y-9708236D02*
X3366579Y-9717760D01*
X3366579Y-9717760D02*
X3357055Y-9727284D01*
X3357055Y-9727284D02*
X3347532Y-9717760D01*
X3347532Y-9717760D02*
X3357055Y-9708236D01*
X3357055Y-9708236D02*
X3357055Y-9727284D01*
X3357055Y-9603474D02*
X3366579Y-9612998D01*
X3366579Y-9612998D02*
X3357055Y-9622522D01*
X3357055Y-9622522D02*
X3347532Y-9612998D01*
X3347532Y-9612998D02*
X3357055Y-9603474D01*
X3357055Y-9603474D02*
X3357055Y-9622522D01*
D12*
X1624850Y-10005800D02*
X1724850Y-10105800D01*
X1724850Y-10005800D02*
X1624850Y-10105800D01*
D11*
X2090389Y-10147284D02*
X1976103Y-10147284D01*
X2033246Y-10147284D02*
X2033246Y-9947284D01*
X2033246Y-9947284D02*
X2014198Y-9975855D01*
X2014198Y-9975855D02*
X1995151Y-9994903D01*
X1995151Y-9994903D02*
X1976103Y-10004427D01*
X2176103Y-10128236D02*
X2185627Y-10137760D01*
X2185627Y-10137760D02*
X2176103Y-10147284D01*
X2176103Y-10147284D02*
X2166579Y-10137760D01*
X2166579Y-10137760D02*
X2176103Y-10128236D01*
X2176103Y-10128236D02*
X2176103Y-10147284D01*
X2309436Y-9947284D02*
X2328484Y-9947284D01*
X2328484Y-9947284D02*
X2347532Y-9956808D01*
X2347532Y-9956808D02*
X2357055Y-9966331D01*
X2357055Y-9966331D02*
X2366579Y-9985379D01*
X2366579Y-9985379D02*
X2376103Y-10023474D01*
X2376103Y-10023474D02*
X2376103Y-10071093D01*
X2376103Y-10071093D02*
X2366579Y-10109189D01*
X2366579Y-10109189D02*
X2357055Y-10128236D01*
X2357055Y-10128236D02*
X2347532Y-10137760D01*
X2347532Y-10137760D02*
X2328484Y-10147284D01*
X2328484Y-10147284D02*
X2309436Y-10147284D01*
X2309436Y-10147284D02*
X2290389Y-10137760D01*
X2290389Y-10137760D02*
X2280865Y-10128236D01*
X2280865Y-10128236D02*
X2271341Y-10109189D01*
X2271341Y-10109189D02*
X2261817Y-10071093D01*
X2261817Y-10071093D02*
X2261817Y-10023474D01*
X2261817Y-10023474D02*
X2271341Y-9985379D01*
X2271341Y-9985379D02*
X2280865Y-9966331D01*
X2280865Y-9966331D02*
X2290389Y-9956808D01*
X2290389Y-9956808D02*
X2309436Y-9947284D01*
X2499913Y-9947284D02*
X2518960Y-9947284D01*
X2518960Y-9947284D02*
X2538008Y-9956808D01*
X2538008Y-9956808D02*
X2547532Y-9966331D01*
X2547532Y-9966331D02*
X2557055Y-9985379D01*
X2557055Y-9985379D02*
X2566579Y-10023474D01*
X2566579Y-10023474D02*
X2566579Y-10071093D01*
X2566579Y-10071093D02*
X2557055Y-10109189D01*
X2557055Y-10109189D02*
X2547532Y-10128236D01*
X2547532Y-10128236D02*
X2538008Y-10137760D01*
X2538008Y-10137760D02*
X2518960Y-10147284D01*
X2518960Y-10147284D02*
X2499913Y-10147284D01*
X2499913Y-10147284D02*
X2480865Y-10137760D01*
X2480865Y-10137760D02*
X2471341Y-10128236D01*
X2471341Y-10128236D02*
X2461817Y-10109189D01*
X2461817Y-10109189D02*
X2452294Y-10071093D01*
X2452294Y-10071093D02*
X2452294Y-10023474D01*
X2452294Y-10023474D02*
X2461817Y-9985379D01*
X2461817Y-9985379D02*
X2471341Y-9966331D01*
X2471341Y-9966331D02*
X2480865Y-9956808D01*
X2480865Y-9956808D02*
X2499913Y-9947284D01*
X2690389Y-9947284D02*
X2709436Y-9947284D01*
X2709436Y-9947284D02*
X2728484Y-9956808D01*
X2728484Y-9956808D02*
X2738008Y-9966331D01*
X2738008Y-9966331D02*
X2747532Y-9985379D01*
X2747532Y-9985379D02*
X2757055Y-10023474D01*
X2757055Y-10023474D02*
X2757055Y-10071093D01*
X2757055Y-10071093D02*
X2747532Y-10109189D01*
X2747532Y-10109189D02*
X2738008Y-10128236D01*
X2738008Y-10128236D02*
X2728484Y-10137760D01*
X2728484Y-10137760D02*
X2709436Y-10147284D01*
X2709436Y-10147284D02*
X2690389Y-10147284D01*
X2690389Y-10147284D02*
X2671341Y-10137760D01*
X2671341Y-10137760D02*
X2661817Y-10128236D01*
X2661817Y-10128236D02*
X2652294Y-10109189D01*
X2652294Y-10109189D02*
X2642770Y-10071093D01*
X2642770Y-10071093D02*
X2642770Y-10023474D01*
X2642770Y-10023474D02*
X2652294Y-9985379D01*
X2652294Y-9985379D02*
X2661817Y-9966331D01*
X2661817Y-9966331D02*
X2671341Y-9956808D01*
X2671341Y-9956808D02*
X2690389Y-9947284D01*
X2842770Y-10147284D02*
X2842770Y-10013950D01*
X2842770Y-10032998D02*
X2852293Y-10023474D01*
X2852293Y-10023474D02*
X2871341Y-10013950D01*
X2871341Y-10013950D02*
X2899913Y-10013950D01*
X2899913Y-10013950D02*
X2918960Y-10023474D01*
X2918960Y-10023474D02*
X2928484Y-10042522D01*
X2928484Y-10042522D02*
X2928484Y-10147284D01*
X2928484Y-10042522D02*
X2938008Y-10023474D01*
X2938008Y-10023474D02*
X2957055Y-10013950D01*
X2957055Y-10013950D02*
X2985627Y-10013950D01*
X2985627Y-10013950D02*
X3004674Y-10023474D01*
X3004674Y-10023474D02*
X3014198Y-10042522D01*
X3014198Y-10042522D02*
X3014198Y-10147284D01*
X3109436Y-10147284D02*
X3109436Y-10013950D01*
X3109436Y-10032998D02*
X3118960Y-10023474D01*
X3118960Y-10023474D02*
X3138008Y-10013950D01*
X3138008Y-10013950D02*
X3166579Y-10013950D01*
X3166579Y-10013950D02*
X3185627Y-10023474D01*
X3185627Y-10023474D02*
X3195151Y-10042522D01*
X3195151Y-10042522D02*
X3195151Y-10147284D01*
X3195151Y-10042522D02*
X3204674Y-10023474D01*
X3204674Y-10023474D02*
X3223722Y-10013950D01*
X3223722Y-10013950D02*
X3252293Y-10013950D01*
X3252293Y-10013950D02*
X3271341Y-10023474D01*
X3271341Y-10023474D02*
X3280865Y-10042522D01*
X3280865Y-10042522D02*
X3280865Y-10147284D01*
X3671341Y-9937760D02*
X3499913Y-10194903D01*
X3928484Y-9947284D02*
X3947532Y-9947284D01*
X3947532Y-9947284D02*
X3966579Y-9956808D01*
X3966579Y-9956808D02*
X3976103Y-9966331D01*
X3976103Y-9966331D02*
X3985627Y-9985379D01*
X3985627Y-9985379D02*
X3995151Y-10023474D01*
X3995151Y-10023474D02*
X3995151Y-10071093D01*
X3995151Y-10071093D02*
X3985627Y-10109189D01*
X3985627Y-10109189D02*
X3976103Y-10128236D01*
X3976103Y-10128236D02*
X3966579Y-10137760D01*
X3966579Y-10137760D02*
X3947532Y-10147284D01*
X3947532Y-10147284D02*
X3928484Y-10147284D01*
X3928484Y-10147284D02*
X3909436Y-10137760D01*
X3909436Y-10137760D02*
X3899913Y-10128236D01*
X3899913Y-10128236D02*
X3890389Y-10109189D01*
X3890389Y-10109189D02*
X3880865Y-10071093D01*
X3880865Y-10071093D02*
X3880865Y-10023474D01*
X3880865Y-10023474D02*
X3890389Y-9985379D01*
X3890389Y-9985379D02*
X3899913Y-9966331D01*
X3899913Y-9966331D02*
X3909436Y-9956808D01*
X3909436Y-9956808D02*
X3928484Y-9947284D01*
X4080865Y-10128236D02*
X4090389Y-10137760D01*
X4090389Y-10137760D02*
X4080865Y-10147284D01*
X4080865Y-10147284D02*
X4071341Y-10137760D01*
X4071341Y-10137760D02*
X4080865Y-10128236D01*
X4080865Y-10128236D02*
X4080865Y-10147284D01*
X4214198Y-9947284D02*
X4233246Y-9947284D01*
X4233246Y-9947284D02*
X4252294Y-9956808D01*
X4252294Y-9956808D02*
X4261818Y-9966331D01*
X4261818Y-9966331D02*
X4271341Y-9985379D01*
X4271341Y-9985379D02*
X4280865Y-10023474D01*
X4280865Y-10023474D02*
X4280865Y-10071093D01*
X4280865Y-10071093D02*
X4271341Y-10109189D01*
X4271341Y-10109189D02*
X4261818Y-10128236D01*
X4261818Y-10128236D02*
X4252294Y-10137760D01*
X4252294Y-10137760D02*
X4233246Y-10147284D01*
X4233246Y-10147284D02*
X4214198Y-10147284D01*
X4214198Y-10147284D02*
X4195151Y-10137760D01*
X4195151Y-10137760D02*
X4185627Y-10128236D01*
X4185627Y-10128236D02*
X4176103Y-10109189D01*
X4176103Y-10109189D02*
X4166579Y-10071093D01*
X4166579Y-10071093D02*
X4166579Y-10023474D01*
X4166579Y-10023474D02*
X4176103Y-9985379D01*
X4176103Y-9985379D02*
X4185627Y-9966331D01*
X4185627Y-9966331D02*
X4195151Y-9956808D01*
X4195151Y-9956808D02*
X4214198Y-9947284D01*
X4347532Y-9947284D02*
X4471341Y-9947284D01*
X4471341Y-9947284D02*
X4404675Y-10023474D01*
X4404675Y-10023474D02*
X4433246Y-10023474D01*
X4433246Y-10023474D02*
X4452294Y-10032998D01*
X4452294Y-10032998D02*
X4461818Y-10042522D01*
X4461818Y-10042522D02*
X4471341Y-10061570D01*
X4471341Y-10061570D02*
X4471341Y-10109189D01*
X4471341Y-10109189D02*
X4461818Y-10128236D01*
X4461818Y-10128236D02*
X4452294Y-10137760D01*
X4452294Y-10137760D02*
X4433246Y-10147284D01*
X4433246Y-10147284D02*
X4376103Y-10147284D01*
X4376103Y-10147284D02*
X4357056Y-10137760D01*
X4357056Y-10137760D02*
X4347532Y-10128236D01*
X4566579Y-10147284D02*
X4604675Y-10147284D01*
X4604675Y-10147284D02*
X4623722Y-10137760D01*
X4623722Y-10137760D02*
X4633246Y-10128236D01*
X4633246Y-10128236D02*
X4652294Y-10099665D01*
X4652294Y-10099665D02*
X4661818Y-10061570D01*
X4661818Y-10061570D02*
X4661818Y-9985379D01*
X4661818Y-9985379D02*
X4652294Y-9966331D01*
X4652294Y-9966331D02*
X4642770Y-9956808D01*
X4642770Y-9956808D02*
X4623722Y-9947284D01*
X4623722Y-9947284D02*
X4585627Y-9947284D01*
X4585627Y-9947284D02*
X4566579Y-9956808D01*
X4566579Y-9956808D02*
X4557056Y-9966331D01*
X4557056Y-9966331D02*
X4547532Y-9985379D01*
X4547532Y-9985379D02*
X4547532Y-10032998D01*
X4547532Y-10032998D02*
X4557056Y-10052046D01*
X4557056Y-10052046D02*
X4566579Y-10061570D01*
X4566579Y-10061570D02*
X4585627Y-10071093D01*
X4585627Y-10071093D02*
X4623722Y-10071093D01*
X4623722Y-10071093D02*
X4642770Y-10061570D01*
X4642770Y-10061570D02*
X4652294Y-10052046D01*
X4652294Y-10052046D02*
X4661818Y-10032998D01*
X4833246Y-10013950D02*
X4833246Y-10147284D01*
X4785627Y-9937760D02*
X4738008Y-10080617D01*
X4738008Y-10080617D02*
X4861818Y-10080617D01*
X4928484Y-9947284D02*
X4928484Y-9985379D01*
X5004675Y-9947284D02*
X5004675Y-9985379D01*
X5299913Y-10223474D02*
X5290389Y-10213950D01*
X5290389Y-10213950D02*
X5271341Y-10185379D01*
X5271341Y-10185379D02*
X5261818Y-10166331D01*
X5261818Y-10166331D02*
X5252294Y-10137760D01*
X5252294Y-10137760D02*
X5242770Y-10090141D01*
X5242770Y-10090141D02*
X5242770Y-10052046D01*
X5242770Y-10052046D02*
X5252294Y-10004427D01*
X5252294Y-10004427D02*
X5261818Y-9975855D01*
X5261818Y-9975855D02*
X5271341Y-9956808D01*
X5271341Y-9956808D02*
X5290389Y-9928236D01*
X5290389Y-9928236D02*
X5299913Y-9918712D01*
X5480865Y-10147284D02*
X5366580Y-10147284D01*
X5423722Y-10147284D02*
X5423722Y-9947284D01*
X5423722Y-9947284D02*
X5404675Y-9975855D01*
X5404675Y-9975855D02*
X5385627Y-9994903D01*
X5385627Y-9994903D02*
X5366580Y-10004427D01*
X5595151Y-10032998D02*
X5576103Y-10023474D01*
X5576103Y-10023474D02*
X5566580Y-10013950D01*
X5566580Y-10013950D02*
X5557056Y-9994903D01*
X5557056Y-9994903D02*
X5557056Y-9985379D01*
X5557056Y-9985379D02*
X5566580Y-9966331D01*
X5566580Y-9966331D02*
X5576103Y-9956808D01*
X5576103Y-9956808D02*
X5595151Y-9947284D01*
X5595151Y-9947284D02*
X5633246Y-9947284D01*
X5633246Y-9947284D02*
X5652294Y-9956808D01*
X5652294Y-9956808D02*
X5661818Y-9966331D01*
X5661818Y-9966331D02*
X5671341Y-9985379D01*
X5671341Y-9985379D02*
X5671341Y-9994903D01*
X5671341Y-9994903D02*
X5661818Y-10013950D01*
X5661818Y-10013950D02*
X5652294Y-10023474D01*
X5652294Y-10023474D02*
X5633246Y-10032998D01*
X5633246Y-10032998D02*
X5595151Y-10032998D01*
X5595151Y-10032998D02*
X5576103Y-10042522D01*
X5576103Y-10042522D02*
X5566580Y-10052046D01*
X5566580Y-10052046D02*
X5557056Y-10071093D01*
X5557056Y-10071093D02*
X5557056Y-10109189D01*
X5557056Y-10109189D02*
X5566580Y-10128236D01*
X5566580Y-10128236D02*
X5576103Y-10137760D01*
X5576103Y-10137760D02*
X5595151Y-10147284D01*
X5595151Y-10147284D02*
X5633246Y-10147284D01*
X5633246Y-10147284D02*
X5652294Y-10137760D01*
X5652294Y-10137760D02*
X5661818Y-10128236D01*
X5661818Y-10128236D02*
X5671341Y-10109189D01*
X5671341Y-10109189D02*
X5671341Y-10071093D01*
X5671341Y-10071093D02*
X5661818Y-10052046D01*
X5661818Y-10052046D02*
X5652294Y-10042522D01*
X5652294Y-10042522D02*
X5633246Y-10032998D01*
X5909437Y-10147284D02*
X5909437Y-9947284D01*
X5995151Y-10147284D02*
X5995151Y-10042522D01*
X5995151Y-10042522D02*
X5985627Y-10023474D01*
X5985627Y-10023474D02*
X5966580Y-10013950D01*
X5966580Y-10013950D02*
X5938008Y-10013950D01*
X5938008Y-10013950D02*
X5918960Y-10023474D01*
X5918960Y-10023474D02*
X5909437Y-10032998D01*
X6118960Y-10147284D02*
X6099913Y-10137760D01*
X6099913Y-10137760D02*
X6090389Y-10128236D01*
X6090389Y-10128236D02*
X6080865Y-10109189D01*
X6080865Y-10109189D02*
X6080865Y-10052046D01*
X6080865Y-10052046D02*
X6090389Y-10032998D01*
X6090389Y-10032998D02*
X6099913Y-10023474D01*
X6099913Y-10023474D02*
X6118960Y-10013950D01*
X6118960Y-10013950D02*
X6147532Y-10013950D01*
X6147532Y-10013950D02*
X6166580Y-10023474D01*
X6166580Y-10023474D02*
X6176103Y-10032998D01*
X6176103Y-10032998D02*
X6185627Y-10052046D01*
X6185627Y-10052046D02*
X6185627Y-10109189D01*
X6185627Y-10109189D02*
X6176103Y-10128236D01*
X6176103Y-10128236D02*
X6166580Y-10137760D01*
X6166580Y-10137760D02*
X6147532Y-10147284D01*
X6147532Y-10147284D02*
X6118960Y-10147284D01*
X6299913Y-10147284D02*
X6280865Y-10137760D01*
X6280865Y-10137760D02*
X6271341Y-10118712D01*
X6271341Y-10118712D02*
X6271341Y-9947284D01*
X6452294Y-10137760D02*
X6433246Y-10147284D01*
X6433246Y-10147284D02*
X6395151Y-10147284D01*
X6395151Y-10147284D02*
X6376103Y-10137760D01*
X6376103Y-10137760D02*
X6366580Y-10118712D01*
X6366580Y-10118712D02*
X6366580Y-10042522D01*
X6366580Y-10042522D02*
X6376103Y-10023474D01*
X6376103Y-10023474D02*
X6395151Y-10013950D01*
X6395151Y-10013950D02*
X6433246Y-10013950D01*
X6433246Y-10013950D02*
X6452294Y-10023474D01*
X6452294Y-10023474D02*
X6461818Y-10042522D01*
X6461818Y-10042522D02*
X6461818Y-10061570D01*
X6461818Y-10061570D02*
X6366580Y-10080617D01*
X6538008Y-10137760D02*
X6557056Y-10147284D01*
X6557056Y-10147284D02*
X6595151Y-10147284D01*
X6595151Y-10147284D02*
X6614199Y-10137760D01*
X6614199Y-10137760D02*
X6623722Y-10118712D01*
X6623722Y-10118712D02*
X6623722Y-10109189D01*
X6623722Y-10109189D02*
X6614199Y-10090141D01*
X6614199Y-10090141D02*
X6595151Y-10080617D01*
X6595151Y-10080617D02*
X6566580Y-10080617D01*
X6566580Y-10080617D02*
X6547532Y-10071093D01*
X6547532Y-10071093D02*
X6538008Y-10052046D01*
X6538008Y-10052046D02*
X6538008Y-10042522D01*
X6538008Y-10042522D02*
X6547532Y-10023474D01*
X6547532Y-10023474D02*
X6566580Y-10013950D01*
X6566580Y-10013950D02*
X6595151Y-10013950D01*
X6595151Y-10013950D02*
X6614199Y-10023474D01*
X6690389Y-10223474D02*
X6699913Y-10213950D01*
X6699913Y-10213950D02*
X6718961Y-10185379D01*
X6718961Y-10185379D02*
X6728484Y-10166331D01*
X6728484Y-10166331D02*
X6738008Y-10137760D01*
X6738008Y-10137760D02*
X6747532Y-10090141D01*
X6747532Y-10090141D02*
X6747532Y-10052046D01*
X6747532Y-10052046D02*
X6738008Y-10004427D01*
X6738008Y-10004427D02*
X6728484Y-9975855D01*
X6728484Y-9975855D02*
X6718961Y-9956808D01*
X6718961Y-9956808D02*
X6699913Y-9928236D01*
X6699913Y-9928236D02*
X6690389Y-9918712D01*
X7052294Y-10223474D02*
X7042770Y-10213950D01*
X7042770Y-10213950D02*
X7023722Y-10185379D01*
X7023722Y-10185379D02*
X7014199Y-10166331D01*
X7014199Y-10166331D02*
X7004675Y-10137760D01*
X7004675Y-10137760D02*
X6995151Y-10090141D01*
X6995151Y-10090141D02*
X6995151Y-10052046D01*
X6995151Y-10052046D02*
X7004675Y-10004427D01*
X7004675Y-10004427D02*
X7014199Y-9975855D01*
X7014199Y-9975855D02*
X7023722Y-9956808D01*
X7023722Y-9956808D02*
X7042770Y-9928236D01*
X7042770Y-9928236D02*
X7052294Y-9918712D01*
X7128484Y-10013950D02*
X7128484Y-10147284D01*
X7128484Y-10032998D02*
X7138008Y-10023474D01*
X7138008Y-10023474D02*
X7157056Y-10013950D01*
X7157056Y-10013950D02*
X7185627Y-10013950D01*
X7185627Y-10013950D02*
X7204675Y-10023474D01*
X7204675Y-10023474D02*
X7214199Y-10042522D01*
X7214199Y-10042522D02*
X7214199Y-10147284D01*
X7338008Y-10147284D02*
X7318961Y-10137760D01*
X7318961Y-10137760D02*
X7309437Y-10128236D01*
X7309437Y-10128236D02*
X7299913Y-10109189D01*
X7299913Y-10109189D02*
X7299913Y-10052046D01*
X7299913Y-10052046D02*
X7309437Y-10032998D01*
X7309437Y-10032998D02*
X7318961Y-10023474D01*
X7318961Y-10023474D02*
X7338008Y-10013950D01*
X7338008Y-10013950D02*
X7366580Y-10013950D01*
X7366580Y-10013950D02*
X7385627Y-10023474D01*
X7385627Y-10023474D02*
X7395151Y-10032998D01*
X7395151Y-10032998D02*
X7404675Y-10052046D01*
X7404675Y-10052046D02*
X7404675Y-10109189D01*
X7404675Y-10109189D02*
X7395151Y-10128236D01*
X7395151Y-10128236D02*
X7385627Y-10137760D01*
X7385627Y-10137760D02*
X7366580Y-10147284D01*
X7366580Y-10147284D02*
X7338008Y-10147284D01*
X7461818Y-10013950D02*
X7538008Y-10013950D01*
X7490389Y-9947284D02*
X7490389Y-10118712D01*
X7490389Y-10118712D02*
X7499913Y-10137760D01*
X7499913Y-10137760D02*
X7518961Y-10147284D01*
X7518961Y-10147284D02*
X7538008Y-10147284D01*
X7757056Y-10013950D02*
X7757056Y-10213950D01*
X7757056Y-10023474D02*
X7776103Y-10013950D01*
X7776103Y-10013950D02*
X7814199Y-10013950D01*
X7814199Y-10013950D02*
X7833246Y-10023474D01*
X7833246Y-10023474D02*
X7842770Y-10032998D01*
X7842770Y-10032998D02*
X7852294Y-10052046D01*
X7852294Y-10052046D02*
X7852294Y-10109189D01*
X7852294Y-10109189D02*
X7842770Y-10128236D01*
X7842770Y-10128236D02*
X7833246Y-10137760D01*
X7833246Y-10137760D02*
X7814199Y-10147284D01*
X7814199Y-10147284D02*
X7776103Y-10147284D01*
X7776103Y-10147284D02*
X7757056Y-10137760D01*
X7966580Y-10147284D02*
X7947532Y-10137760D01*
X7947532Y-10137760D02*
X7938008Y-10118712D01*
X7938008Y-10118712D02*
X7938008Y-9947284D01*
X8128484Y-10147284D02*
X8128484Y-10042522D01*
X8128484Y-10042522D02*
X8118961Y-10023474D01*
X8118961Y-10023474D02*
X8099913Y-10013950D01*
X8099913Y-10013950D02*
X8061818Y-10013950D01*
X8061818Y-10013950D02*
X8042770Y-10023474D01*
X8128484Y-10137760D02*
X8109437Y-10147284D01*
X8109437Y-10147284D02*
X8061818Y-10147284D01*
X8061818Y-10147284D02*
X8042770Y-10137760D01*
X8042770Y-10137760D02*
X8033246Y-10118712D01*
X8033246Y-10118712D02*
X8033246Y-10099665D01*
X8033246Y-10099665D02*
X8042770Y-10080617D01*
X8042770Y-10080617D02*
X8061818Y-10071093D01*
X8061818Y-10071093D02*
X8109437Y-10071093D01*
X8109437Y-10071093D02*
X8128484Y-10061570D01*
X8195151Y-10013950D02*
X8271342Y-10013950D01*
X8223723Y-9947284D02*
X8223723Y-10118712D01*
X8223723Y-10118712D02*
X8233246Y-10137760D01*
X8233246Y-10137760D02*
X8252294Y-10147284D01*
X8252294Y-10147284D02*
X8271342Y-10147284D01*
X8414199Y-10137760D02*
X8395151Y-10147284D01*
X8395151Y-10147284D02*
X8357056Y-10147284D01*
X8357056Y-10147284D02*
X8338008Y-10137760D01*
X8338008Y-10137760D02*
X8328484Y-10118712D01*
X8328484Y-10118712D02*
X8328484Y-10042522D01*
X8328484Y-10042522D02*
X8338008Y-10023474D01*
X8338008Y-10023474D02*
X8357056Y-10013950D01*
X8357056Y-10013950D02*
X8395151Y-10013950D01*
X8395151Y-10013950D02*
X8414199Y-10023474D01*
X8414199Y-10023474D02*
X8423723Y-10042522D01*
X8423723Y-10042522D02*
X8423723Y-10061570D01*
X8423723Y-10061570D02*
X8328484Y-10080617D01*
X8595151Y-10147284D02*
X8595151Y-9947284D01*
X8595151Y-10137760D02*
X8576104Y-10147284D01*
X8576104Y-10147284D02*
X8538008Y-10147284D01*
X8538008Y-10147284D02*
X8518961Y-10137760D01*
X8518961Y-10137760D02*
X8509437Y-10128236D01*
X8509437Y-10128236D02*
X8499913Y-10109189D01*
X8499913Y-10109189D02*
X8499913Y-10052046D01*
X8499913Y-10052046D02*
X8509437Y-10032998D01*
X8509437Y-10032998D02*
X8518961Y-10023474D01*
X8518961Y-10023474D02*
X8538008Y-10013950D01*
X8538008Y-10013950D02*
X8576104Y-10013950D01*
X8576104Y-10013950D02*
X8595151Y-10023474D01*
X8671342Y-10223474D02*
X8680866Y-10213950D01*
X8680866Y-10213950D02*
X8699913Y-10185379D01*
X8699913Y-10185379D02*
X8709437Y-10166331D01*
X8709437Y-10166331D02*
X8718961Y-10137760D01*
X8718961Y-10137760D02*
X8728485Y-10090141D01*
X8728485Y-10090141D02*
X8728485Y-10052046D01*
X8728485Y-10052046D02*
X8718961Y-10004427D01*
X8718961Y-10004427D02*
X8709437Y-9975855D01*
X8709437Y-9975855D02*
X8699913Y-9956808D01*
X8699913Y-9956808D02*
X8680866Y-9928236D01*
X8680866Y-9928236D02*
X8671342Y-9918712D01*
X1724850Y-10319800D02*
G75*
G02*
X1524850Y-10319800I-100000J0D01*
G01*
X1524850Y-10319800D02*
G75*
G02*
X1724850Y-10319800I100000J0D01*
G01*
X1976103Y-10230331D02*
X1985627Y-10220808D01*
X1985627Y-10220808D02*
X2004674Y-10211284D01*
X2004674Y-10211284D02*
X2052293Y-10211284D01*
X2052293Y-10211284D02*
X2071341Y-10220808D01*
X2071341Y-10220808D02*
X2080865Y-10230331D01*
X2080865Y-10230331D02*
X2090389Y-10249379D01*
X2090389Y-10249379D02*
X2090389Y-10268427D01*
X2090389Y-10268427D02*
X2080865Y-10296998D01*
X2080865Y-10296998D02*
X1966579Y-10411284D01*
X1966579Y-10411284D02*
X2090389Y-10411284D01*
X2176103Y-10392236D02*
X2185627Y-10401760D01*
X2185627Y-10401760D02*
X2176103Y-10411284D01*
X2176103Y-10411284D02*
X2166579Y-10401760D01*
X2166579Y-10401760D02*
X2176103Y-10392236D01*
X2176103Y-10392236D02*
X2176103Y-10411284D01*
X2261817Y-10230331D02*
X2271341Y-10220808D01*
X2271341Y-10220808D02*
X2290389Y-10211284D01*
X2290389Y-10211284D02*
X2338008Y-10211284D01*
X2338008Y-10211284D02*
X2357055Y-10220808D01*
X2357055Y-10220808D02*
X2366579Y-10230331D01*
X2366579Y-10230331D02*
X2376103Y-10249379D01*
X2376103Y-10249379D02*
X2376103Y-10268427D01*
X2376103Y-10268427D02*
X2366579Y-10296998D01*
X2366579Y-10296998D02*
X2252294Y-10411284D01*
X2252294Y-10411284D02*
X2376103Y-10411284D01*
X2499913Y-10211284D02*
X2518960Y-10211284D01*
X2518960Y-10211284D02*
X2538008Y-10220808D01*
X2538008Y-10220808D02*
X2547532Y-10230331D01*
X2547532Y-10230331D02*
X2557055Y-10249379D01*
X2557055Y-10249379D02*
X2566579Y-10287474D01*
X2566579Y-10287474D02*
X2566579Y-10335093D01*
X2566579Y-10335093D02*
X2557055Y-10373189D01*
X2557055Y-10373189D02*
X2547532Y-10392236D01*
X2547532Y-10392236D02*
X2538008Y-10401760D01*
X2538008Y-10401760D02*
X2518960Y-10411284D01*
X2518960Y-10411284D02*
X2499913Y-10411284D01*
X2499913Y-10411284D02*
X2480865Y-10401760D01*
X2480865Y-10401760D02*
X2471341Y-10392236D01*
X2471341Y-10392236D02*
X2461817Y-10373189D01*
X2461817Y-10373189D02*
X2452294Y-10335093D01*
X2452294Y-10335093D02*
X2452294Y-10287474D01*
X2452294Y-10287474D02*
X2461817Y-10249379D01*
X2461817Y-10249379D02*
X2471341Y-10230331D01*
X2471341Y-10230331D02*
X2480865Y-10220808D01*
X2480865Y-10220808D02*
X2499913Y-10211284D01*
X2690389Y-10211284D02*
X2709436Y-10211284D01*
X2709436Y-10211284D02*
X2728484Y-10220808D01*
X2728484Y-10220808D02*
X2738008Y-10230331D01*
X2738008Y-10230331D02*
X2747532Y-10249379D01*
X2747532Y-10249379D02*
X2757055Y-10287474D01*
X2757055Y-10287474D02*
X2757055Y-10335093D01*
X2757055Y-10335093D02*
X2747532Y-10373189D01*
X2747532Y-10373189D02*
X2738008Y-10392236D01*
X2738008Y-10392236D02*
X2728484Y-10401760D01*
X2728484Y-10401760D02*
X2709436Y-10411284D01*
X2709436Y-10411284D02*
X2690389Y-10411284D01*
X2690389Y-10411284D02*
X2671341Y-10401760D01*
X2671341Y-10401760D02*
X2661817Y-10392236D01*
X2661817Y-10392236D02*
X2652294Y-10373189D01*
X2652294Y-10373189D02*
X2642770Y-10335093D01*
X2642770Y-10335093D02*
X2642770Y-10287474D01*
X2642770Y-10287474D02*
X2652294Y-10249379D01*
X2652294Y-10249379D02*
X2661817Y-10230331D01*
X2661817Y-10230331D02*
X2671341Y-10220808D01*
X2671341Y-10220808D02*
X2690389Y-10211284D01*
X2842770Y-10411284D02*
X2842770Y-10277950D01*
X2842770Y-10296998D02*
X2852293Y-10287474D01*
X2852293Y-10287474D02*
X2871341Y-10277950D01*
X2871341Y-10277950D02*
X2899913Y-10277950D01*
X2899913Y-10277950D02*
X2918960Y-10287474D01*
X2918960Y-10287474D02*
X2928484Y-10306522D01*
X2928484Y-10306522D02*
X2928484Y-10411284D01*
X2928484Y-10306522D02*
X2938008Y-10287474D01*
X2938008Y-10287474D02*
X2957055Y-10277950D01*
X2957055Y-10277950D02*
X2985627Y-10277950D01*
X2985627Y-10277950D02*
X3004674Y-10287474D01*
X3004674Y-10287474D02*
X3014198Y-10306522D01*
X3014198Y-10306522D02*
X3014198Y-10411284D01*
X3109436Y-10411284D02*
X3109436Y-10277950D01*
X3109436Y-10296998D02*
X3118960Y-10287474D01*
X3118960Y-10287474D02*
X3138008Y-10277950D01*
X3138008Y-10277950D02*
X3166579Y-10277950D01*
X3166579Y-10277950D02*
X3185627Y-10287474D01*
X3185627Y-10287474D02*
X3195151Y-10306522D01*
X3195151Y-10306522D02*
X3195151Y-10411284D01*
X3195151Y-10306522D02*
X3204674Y-10287474D01*
X3204674Y-10287474D02*
X3223722Y-10277950D01*
X3223722Y-10277950D02*
X3252293Y-10277950D01*
X3252293Y-10277950D02*
X3271341Y-10287474D01*
X3271341Y-10287474D02*
X3280865Y-10306522D01*
X3280865Y-10306522D02*
X3280865Y-10411284D01*
X3671341Y-10201760D02*
X3499913Y-10458903D01*
X3928484Y-10211284D02*
X3947532Y-10211284D01*
X3947532Y-10211284D02*
X3966579Y-10220808D01*
X3966579Y-10220808D02*
X3976103Y-10230331D01*
X3976103Y-10230331D02*
X3985627Y-10249379D01*
X3985627Y-10249379D02*
X3995151Y-10287474D01*
X3995151Y-10287474D02*
X3995151Y-10335093D01*
X3995151Y-10335093D02*
X3985627Y-10373189D01*
X3985627Y-10373189D02*
X3976103Y-10392236D01*
X3976103Y-10392236D02*
X3966579Y-10401760D01*
X3966579Y-10401760D02*
X3947532Y-10411284D01*
X3947532Y-10411284D02*
X3928484Y-10411284D01*
X3928484Y-10411284D02*
X3909436Y-10401760D01*
X3909436Y-10401760D02*
X3899913Y-10392236D01*
X3899913Y-10392236D02*
X3890389Y-10373189D01*
X3890389Y-10373189D02*
X3880865Y-10335093D01*
X3880865Y-10335093D02*
X3880865Y-10287474D01*
X3880865Y-10287474D02*
X3890389Y-10249379D01*
X3890389Y-10249379D02*
X3899913Y-10230331D01*
X3899913Y-10230331D02*
X3909436Y-10220808D01*
X3909436Y-10220808D02*
X3928484Y-10211284D01*
X4080865Y-10392236D02*
X4090389Y-10401760D01*
X4090389Y-10401760D02*
X4080865Y-10411284D01*
X4080865Y-10411284D02*
X4071341Y-10401760D01*
X4071341Y-10401760D02*
X4080865Y-10392236D01*
X4080865Y-10392236D02*
X4080865Y-10411284D01*
X4214198Y-10211284D02*
X4233246Y-10211284D01*
X4233246Y-10211284D02*
X4252294Y-10220808D01*
X4252294Y-10220808D02*
X4261818Y-10230331D01*
X4261818Y-10230331D02*
X4271341Y-10249379D01*
X4271341Y-10249379D02*
X4280865Y-10287474D01*
X4280865Y-10287474D02*
X4280865Y-10335093D01*
X4280865Y-10335093D02*
X4271341Y-10373189D01*
X4271341Y-10373189D02*
X4261818Y-10392236D01*
X4261818Y-10392236D02*
X4252294Y-10401760D01*
X4252294Y-10401760D02*
X4233246Y-10411284D01*
X4233246Y-10411284D02*
X4214198Y-10411284D01*
X4214198Y-10411284D02*
X4195151Y-10401760D01*
X4195151Y-10401760D02*
X4185627Y-10392236D01*
X4185627Y-10392236D02*
X4176103Y-10373189D01*
X4176103Y-10373189D02*
X4166579Y-10335093D01*
X4166579Y-10335093D02*
X4166579Y-10287474D01*
X4166579Y-10287474D02*
X4176103Y-10249379D01*
X4176103Y-10249379D02*
X4185627Y-10230331D01*
X4185627Y-10230331D02*
X4195151Y-10220808D01*
X4195151Y-10220808D02*
X4214198Y-10211284D01*
X4395151Y-10296998D02*
X4376103Y-10287474D01*
X4376103Y-10287474D02*
X4366579Y-10277950D01*
X4366579Y-10277950D02*
X4357056Y-10258903D01*
X4357056Y-10258903D02*
X4357056Y-10249379D01*
X4357056Y-10249379D02*
X4366579Y-10230331D01*
X4366579Y-10230331D02*
X4376103Y-10220808D01*
X4376103Y-10220808D02*
X4395151Y-10211284D01*
X4395151Y-10211284D02*
X4433246Y-10211284D01*
X4433246Y-10211284D02*
X4452294Y-10220808D01*
X4452294Y-10220808D02*
X4461818Y-10230331D01*
X4461818Y-10230331D02*
X4471341Y-10249379D01*
X4471341Y-10249379D02*
X4471341Y-10258903D01*
X4471341Y-10258903D02*
X4461818Y-10277950D01*
X4461818Y-10277950D02*
X4452294Y-10287474D01*
X4452294Y-10287474D02*
X4433246Y-10296998D01*
X4433246Y-10296998D02*
X4395151Y-10296998D01*
X4395151Y-10296998D02*
X4376103Y-10306522D01*
X4376103Y-10306522D02*
X4366579Y-10316046D01*
X4366579Y-10316046D02*
X4357056Y-10335093D01*
X4357056Y-10335093D02*
X4357056Y-10373189D01*
X4357056Y-10373189D02*
X4366579Y-10392236D01*
X4366579Y-10392236D02*
X4376103Y-10401760D01*
X4376103Y-10401760D02*
X4395151Y-10411284D01*
X4395151Y-10411284D02*
X4433246Y-10411284D01*
X4433246Y-10411284D02*
X4452294Y-10401760D01*
X4452294Y-10401760D02*
X4461818Y-10392236D01*
X4461818Y-10392236D02*
X4471341Y-10373189D01*
X4471341Y-10373189D02*
X4471341Y-10335093D01*
X4471341Y-10335093D02*
X4461818Y-10316046D01*
X4461818Y-10316046D02*
X4452294Y-10306522D01*
X4452294Y-10306522D02*
X4433246Y-10296998D01*
X4642770Y-10211284D02*
X4604675Y-10211284D01*
X4604675Y-10211284D02*
X4585627Y-10220808D01*
X4585627Y-10220808D02*
X4576103Y-10230331D01*
X4576103Y-10230331D02*
X4557056Y-10258903D01*
X4557056Y-10258903D02*
X4547532Y-10296998D01*
X4547532Y-10296998D02*
X4547532Y-10373189D01*
X4547532Y-10373189D02*
X4557056Y-10392236D01*
X4557056Y-10392236D02*
X4566579Y-10401760D01*
X4566579Y-10401760D02*
X4585627Y-10411284D01*
X4585627Y-10411284D02*
X4623722Y-10411284D01*
X4623722Y-10411284D02*
X4642770Y-10401760D01*
X4642770Y-10401760D02*
X4652294Y-10392236D01*
X4652294Y-10392236D02*
X4661818Y-10373189D01*
X4661818Y-10373189D02*
X4661818Y-10325570D01*
X4661818Y-10325570D02*
X4652294Y-10306522D01*
X4652294Y-10306522D02*
X4642770Y-10296998D01*
X4642770Y-10296998D02*
X4623722Y-10287474D01*
X4623722Y-10287474D02*
X4585627Y-10287474D01*
X4585627Y-10287474D02*
X4566579Y-10296998D01*
X4566579Y-10296998D02*
X4557056Y-10306522D01*
X4557056Y-10306522D02*
X4547532Y-10325570D01*
X4833246Y-10211284D02*
X4795151Y-10211284D01*
X4795151Y-10211284D02*
X4776103Y-10220808D01*
X4776103Y-10220808D02*
X4766579Y-10230331D01*
X4766579Y-10230331D02*
X4747532Y-10258903D01*
X4747532Y-10258903D02*
X4738008Y-10296998D01*
X4738008Y-10296998D02*
X4738008Y-10373189D01*
X4738008Y-10373189D02*
X4747532Y-10392236D01*
X4747532Y-10392236D02*
X4757056Y-10401760D01*
X4757056Y-10401760D02*
X4776103Y-10411284D01*
X4776103Y-10411284D02*
X4814199Y-10411284D01*
X4814199Y-10411284D02*
X4833246Y-10401760D01*
X4833246Y-10401760D02*
X4842770Y-10392236D01*
X4842770Y-10392236D02*
X4852294Y-10373189D01*
X4852294Y-10373189D02*
X4852294Y-10325570D01*
X4852294Y-10325570D02*
X4842770Y-10306522D01*
X4842770Y-10306522D02*
X4833246Y-10296998D01*
X4833246Y-10296998D02*
X4814199Y-10287474D01*
X4814199Y-10287474D02*
X4776103Y-10287474D01*
X4776103Y-10287474D02*
X4757056Y-10296998D01*
X4757056Y-10296998D02*
X4747532Y-10306522D01*
X4747532Y-10306522D02*
X4738008Y-10325570D01*
X4928484Y-10211284D02*
X4928484Y-10249379D01*
X5004675Y-10211284D02*
X5004675Y-10249379D01*
X5299913Y-10487474D02*
X5290389Y-10477950D01*
X5290389Y-10477950D02*
X5271341Y-10449379D01*
X5271341Y-10449379D02*
X5261818Y-10430331D01*
X5261818Y-10430331D02*
X5252294Y-10401760D01*
X5252294Y-10401760D02*
X5242770Y-10354141D01*
X5242770Y-10354141D02*
X5242770Y-10316046D01*
X5242770Y-10316046D02*
X5252294Y-10268427D01*
X5252294Y-10268427D02*
X5261818Y-10239855D01*
X5261818Y-10239855D02*
X5271341Y-10220808D01*
X5271341Y-10220808D02*
X5290389Y-10192236D01*
X5290389Y-10192236D02*
X5299913Y-10182712D01*
X5357056Y-10211284D02*
X5480865Y-10211284D01*
X5480865Y-10211284D02*
X5414199Y-10287474D01*
X5414199Y-10287474D02*
X5442770Y-10287474D01*
X5442770Y-10287474D02*
X5461818Y-10296998D01*
X5461818Y-10296998D02*
X5471341Y-10306522D01*
X5471341Y-10306522D02*
X5480865Y-10325570D01*
X5480865Y-10325570D02*
X5480865Y-10373189D01*
X5480865Y-10373189D02*
X5471341Y-10392236D01*
X5471341Y-10392236D02*
X5461818Y-10401760D01*
X5461818Y-10401760D02*
X5442770Y-10411284D01*
X5442770Y-10411284D02*
X5385627Y-10411284D01*
X5385627Y-10411284D02*
X5366580Y-10401760D01*
X5366580Y-10401760D02*
X5357056Y-10392236D01*
X5718960Y-10411284D02*
X5718960Y-10211284D01*
X5804675Y-10411284D02*
X5804675Y-10306522D01*
X5804675Y-10306522D02*
X5795151Y-10287474D01*
X5795151Y-10287474D02*
X5776103Y-10277950D01*
X5776103Y-10277950D02*
X5747532Y-10277950D01*
X5747532Y-10277950D02*
X5728484Y-10287474D01*
X5728484Y-10287474D02*
X5718960Y-10296998D01*
X5928484Y-10411284D02*
X5909437Y-10401760D01*
X5909437Y-10401760D02*
X5899913Y-10392236D01*
X5899913Y-10392236D02*
X5890389Y-10373189D01*
X5890389Y-10373189D02*
X5890389Y-10316046D01*
X5890389Y-10316046D02*
X5899913Y-10296998D01*
X5899913Y-10296998D02*
X5909437Y-10287474D01*
X5909437Y-10287474D02*
X5928484Y-10277950D01*
X5928484Y-10277950D02*
X5957056Y-10277950D01*
X5957056Y-10277950D02*
X5976103Y-10287474D01*
X5976103Y-10287474D02*
X5985627Y-10296998D01*
X5985627Y-10296998D02*
X5995151Y-10316046D01*
X5995151Y-10316046D02*
X5995151Y-10373189D01*
X5995151Y-10373189D02*
X5985627Y-10392236D01*
X5985627Y-10392236D02*
X5976103Y-10401760D01*
X5976103Y-10401760D02*
X5957056Y-10411284D01*
X5957056Y-10411284D02*
X5928484Y-10411284D01*
X6109437Y-10411284D02*
X6090389Y-10401760D01*
X6090389Y-10401760D02*
X6080865Y-10382712D01*
X6080865Y-10382712D02*
X6080865Y-10211284D01*
X6261818Y-10401760D02*
X6242770Y-10411284D01*
X6242770Y-10411284D02*
X6204675Y-10411284D01*
X6204675Y-10411284D02*
X6185627Y-10401760D01*
X6185627Y-10401760D02*
X6176103Y-10382712D01*
X6176103Y-10382712D02*
X6176103Y-10306522D01*
X6176103Y-10306522D02*
X6185627Y-10287474D01*
X6185627Y-10287474D02*
X6204675Y-10277950D01*
X6204675Y-10277950D02*
X6242770Y-10277950D01*
X6242770Y-10277950D02*
X6261818Y-10287474D01*
X6261818Y-10287474D02*
X6271341Y-10306522D01*
X6271341Y-10306522D02*
X6271341Y-10325570D01*
X6271341Y-10325570D02*
X6176103Y-10344617D01*
X6347532Y-10401760D02*
X6366580Y-10411284D01*
X6366580Y-10411284D02*
X6404675Y-10411284D01*
X6404675Y-10411284D02*
X6423722Y-10401760D01*
X6423722Y-10401760D02*
X6433246Y-10382712D01*
X6433246Y-10382712D02*
X6433246Y-10373189D01*
X6433246Y-10373189D02*
X6423722Y-10354141D01*
X6423722Y-10354141D02*
X6404675Y-10344617D01*
X6404675Y-10344617D02*
X6376103Y-10344617D01*
X6376103Y-10344617D02*
X6357056Y-10335093D01*
X6357056Y-10335093D02*
X6347532Y-10316046D01*
X6347532Y-10316046D02*
X6347532Y-10306522D01*
X6347532Y-10306522D02*
X6357056Y-10287474D01*
X6357056Y-10287474D02*
X6376103Y-10277950D01*
X6376103Y-10277950D02*
X6404675Y-10277950D01*
X6404675Y-10277950D02*
X6423722Y-10287474D01*
X6499913Y-10487474D02*
X6509437Y-10477950D01*
X6509437Y-10477950D02*
X6528484Y-10449379D01*
X6528484Y-10449379D02*
X6538008Y-10430331D01*
X6538008Y-10430331D02*
X6547532Y-10401760D01*
X6547532Y-10401760D02*
X6557056Y-10354141D01*
X6557056Y-10354141D02*
X6557056Y-10316046D01*
X6557056Y-10316046D02*
X6547532Y-10268427D01*
X6547532Y-10268427D02*
X6538008Y-10239855D01*
X6538008Y-10239855D02*
X6528484Y-10220808D01*
X6528484Y-10220808D02*
X6509437Y-10192236D01*
X6509437Y-10192236D02*
X6499913Y-10182712D01*
X6861818Y-10487474D02*
X6852294Y-10477950D01*
X6852294Y-10477950D02*
X6833246Y-10449379D01*
X6833246Y-10449379D02*
X6823722Y-10430331D01*
X6823722Y-10430331D02*
X6814199Y-10401760D01*
X6814199Y-10401760D02*
X6804675Y-10354141D01*
X6804675Y-10354141D02*
X6804675Y-10316046D01*
X6804675Y-10316046D02*
X6814199Y-10268427D01*
X6814199Y-10268427D02*
X6823722Y-10239855D01*
X6823722Y-10239855D02*
X6833246Y-10220808D01*
X6833246Y-10220808D02*
X6852294Y-10192236D01*
X6852294Y-10192236D02*
X6861818Y-10182712D01*
X6938008Y-10277950D02*
X6938008Y-10411284D01*
X6938008Y-10296998D02*
X6947532Y-10287474D01*
X6947532Y-10287474D02*
X6966580Y-10277950D01*
X6966580Y-10277950D02*
X6995151Y-10277950D01*
X6995151Y-10277950D02*
X7014199Y-10287474D01*
X7014199Y-10287474D02*
X7023722Y-10306522D01*
X7023722Y-10306522D02*
X7023722Y-10411284D01*
X7147532Y-10411284D02*
X7128484Y-10401760D01*
X7128484Y-10401760D02*
X7118961Y-10392236D01*
X7118961Y-10392236D02*
X7109437Y-10373189D01*
X7109437Y-10373189D02*
X7109437Y-10316046D01*
X7109437Y-10316046D02*
X7118961Y-10296998D01*
X7118961Y-10296998D02*
X7128484Y-10287474D01*
X7128484Y-10287474D02*
X7147532Y-10277950D01*
X7147532Y-10277950D02*
X7176103Y-10277950D01*
X7176103Y-10277950D02*
X7195151Y-10287474D01*
X7195151Y-10287474D02*
X7204675Y-10296998D01*
X7204675Y-10296998D02*
X7214199Y-10316046D01*
X7214199Y-10316046D02*
X7214199Y-10373189D01*
X7214199Y-10373189D02*
X7204675Y-10392236D01*
X7204675Y-10392236D02*
X7195151Y-10401760D01*
X7195151Y-10401760D02*
X7176103Y-10411284D01*
X7176103Y-10411284D02*
X7147532Y-10411284D01*
X7271342Y-10277950D02*
X7347532Y-10277950D01*
X7299913Y-10211284D02*
X7299913Y-10382712D01*
X7299913Y-10382712D02*
X7309437Y-10401760D01*
X7309437Y-10401760D02*
X7328484Y-10411284D01*
X7328484Y-10411284D02*
X7347532Y-10411284D01*
X7566580Y-10277950D02*
X7566580Y-10477950D01*
X7566580Y-10287474D02*
X7585627Y-10277950D01*
X7585627Y-10277950D02*
X7623723Y-10277950D01*
X7623723Y-10277950D02*
X7642770Y-10287474D01*
X7642770Y-10287474D02*
X7652294Y-10296998D01*
X7652294Y-10296998D02*
X7661818Y-10316046D01*
X7661818Y-10316046D02*
X7661818Y-10373189D01*
X7661818Y-10373189D02*
X7652294Y-10392236D01*
X7652294Y-10392236D02*
X7642770Y-10401760D01*
X7642770Y-10401760D02*
X7623723Y-10411284D01*
X7623723Y-10411284D02*
X7585627Y-10411284D01*
X7585627Y-10411284D02*
X7566580Y-10401760D01*
X7776103Y-10411284D02*
X7757056Y-10401760D01*
X7757056Y-10401760D02*
X7747532Y-10382712D01*
X7747532Y-10382712D02*
X7747532Y-10211284D01*
X7938008Y-10411284D02*
X7938008Y-10306522D01*
X7938008Y-10306522D02*
X7928484Y-10287474D01*
X7928484Y-10287474D02*
X7909437Y-10277950D01*
X7909437Y-10277950D02*
X7871342Y-10277950D01*
X7871342Y-10277950D02*
X7852294Y-10287474D01*
X7938008Y-10401760D02*
X7918961Y-10411284D01*
X7918961Y-10411284D02*
X7871342Y-10411284D01*
X7871342Y-10411284D02*
X7852294Y-10401760D01*
X7852294Y-10401760D02*
X7842770Y-10382712D01*
X7842770Y-10382712D02*
X7842770Y-10363665D01*
X7842770Y-10363665D02*
X7852294Y-10344617D01*
X7852294Y-10344617D02*
X7871342Y-10335093D01*
X7871342Y-10335093D02*
X7918961Y-10335093D01*
X7918961Y-10335093D02*
X7938008Y-10325570D01*
X8004675Y-10277950D02*
X8080865Y-10277950D01*
X8033246Y-10211284D02*
X8033246Y-10382712D01*
X8033246Y-10382712D02*
X8042770Y-10401760D01*
X8042770Y-10401760D02*
X8061818Y-10411284D01*
X8061818Y-10411284D02*
X8080865Y-10411284D01*
X8223723Y-10401760D02*
X8204675Y-10411284D01*
X8204675Y-10411284D02*
X8166580Y-10411284D01*
X8166580Y-10411284D02*
X8147532Y-10401760D01*
X8147532Y-10401760D02*
X8138008Y-10382712D01*
X8138008Y-10382712D02*
X8138008Y-10306522D01*
X8138008Y-10306522D02*
X8147532Y-10287474D01*
X8147532Y-10287474D02*
X8166580Y-10277950D01*
X8166580Y-10277950D02*
X8204675Y-10277950D01*
X8204675Y-10277950D02*
X8223723Y-10287474D01*
X8223723Y-10287474D02*
X8233246Y-10306522D01*
X8233246Y-10306522D02*
X8233246Y-10325570D01*
X8233246Y-10325570D02*
X8138008Y-10344617D01*
X8404675Y-10411284D02*
X8404675Y-10211284D01*
X8404675Y-10401760D02*
X8385627Y-10411284D01*
X8385627Y-10411284D02*
X8347532Y-10411284D01*
X8347532Y-10411284D02*
X8328484Y-10401760D01*
X8328484Y-10401760D02*
X8318961Y-10392236D01*
X8318961Y-10392236D02*
X8309437Y-10373189D01*
X8309437Y-10373189D02*
X8309437Y-10316046D01*
X8309437Y-10316046D02*
X8318961Y-10296998D01*
X8318961Y-10296998D02*
X8328484Y-10287474D01*
X8328484Y-10287474D02*
X8347532Y-10277950D01*
X8347532Y-10277950D02*
X8385627Y-10277950D01*
X8385627Y-10277950D02*
X8404675Y-10287474D01*
X8480866Y-10487474D02*
X8490389Y-10477950D01*
X8490389Y-10477950D02*
X8509437Y-10449379D01*
X8509437Y-10449379D02*
X8518961Y-10430331D01*
X8518961Y-10430331D02*
X8528485Y-10401760D01*
X8528485Y-10401760D02*
X8538008Y-10354141D01*
X8538008Y-10354141D02*
X8538008Y-10316046D01*
X8538008Y-10316046D02*
X8528485Y-10268427D01*
X8528485Y-10268427D02*
X8518961Y-10239855D01*
X8518961Y-10239855D02*
X8509437Y-10220808D01*
X8509437Y-10220808D02*
X8490389Y-10192236D01*
X8490389Y-10192236D02*
X8480866Y-10182712D01*
X1624850Y-10539800D02*
X1624850Y-10739800D01*
X1524850Y-10639800D02*
X1724850Y-10639800D01*
X1966579Y-10531284D02*
X2090389Y-10531284D01*
X2090389Y-10531284D02*
X2023722Y-10607474D01*
X2023722Y-10607474D02*
X2052293Y-10607474D01*
X2052293Y-10607474D02*
X2071341Y-10616998D01*
X2071341Y-10616998D02*
X2080865Y-10626522D01*
X2080865Y-10626522D02*
X2090389Y-10645570D01*
X2090389Y-10645570D02*
X2090389Y-10693189D01*
X2090389Y-10693189D02*
X2080865Y-10712236D01*
X2080865Y-10712236D02*
X2071341Y-10721760D01*
X2071341Y-10721760D02*
X2052293Y-10731284D01*
X2052293Y-10731284D02*
X1995151Y-10731284D01*
X1995151Y-10731284D02*
X1976103Y-10721760D01*
X1976103Y-10721760D02*
X1966579Y-10712236D01*
X2176103Y-10712236D02*
X2185627Y-10721760D01*
X2185627Y-10721760D02*
X2176103Y-10731284D01*
X2176103Y-10731284D02*
X2166579Y-10721760D01*
X2166579Y-10721760D02*
X2176103Y-10712236D01*
X2176103Y-10712236D02*
X2176103Y-10731284D01*
X2309436Y-10531284D02*
X2328484Y-10531284D01*
X2328484Y-10531284D02*
X2347532Y-10540808D01*
X2347532Y-10540808D02*
X2357055Y-10550331D01*
X2357055Y-10550331D02*
X2366579Y-10569379D01*
X2366579Y-10569379D02*
X2376103Y-10607474D01*
X2376103Y-10607474D02*
X2376103Y-10655093D01*
X2376103Y-10655093D02*
X2366579Y-10693189D01*
X2366579Y-10693189D02*
X2357055Y-10712236D01*
X2357055Y-10712236D02*
X2347532Y-10721760D01*
X2347532Y-10721760D02*
X2328484Y-10731284D01*
X2328484Y-10731284D02*
X2309436Y-10731284D01*
X2309436Y-10731284D02*
X2290389Y-10721760D01*
X2290389Y-10721760D02*
X2280865Y-10712236D01*
X2280865Y-10712236D02*
X2271341Y-10693189D01*
X2271341Y-10693189D02*
X2261817Y-10655093D01*
X2261817Y-10655093D02*
X2261817Y-10607474D01*
X2261817Y-10607474D02*
X2271341Y-10569379D01*
X2271341Y-10569379D02*
X2280865Y-10550331D01*
X2280865Y-10550331D02*
X2290389Y-10540808D01*
X2290389Y-10540808D02*
X2309436Y-10531284D01*
X2499913Y-10531284D02*
X2518960Y-10531284D01*
X2518960Y-10531284D02*
X2538008Y-10540808D01*
X2538008Y-10540808D02*
X2547532Y-10550331D01*
X2547532Y-10550331D02*
X2557055Y-10569379D01*
X2557055Y-10569379D02*
X2566579Y-10607474D01*
X2566579Y-10607474D02*
X2566579Y-10655093D01*
X2566579Y-10655093D02*
X2557055Y-10693189D01*
X2557055Y-10693189D02*
X2547532Y-10712236D01*
X2547532Y-10712236D02*
X2538008Y-10721760D01*
X2538008Y-10721760D02*
X2518960Y-10731284D01*
X2518960Y-10731284D02*
X2499913Y-10731284D01*
X2499913Y-10731284D02*
X2480865Y-10721760D01*
X2480865Y-10721760D02*
X2471341Y-10712236D01*
X2471341Y-10712236D02*
X2461817Y-10693189D01*
X2461817Y-10693189D02*
X2452294Y-10655093D01*
X2452294Y-10655093D02*
X2452294Y-10607474D01*
X2452294Y-10607474D02*
X2461817Y-10569379D01*
X2461817Y-10569379D02*
X2471341Y-10550331D01*
X2471341Y-10550331D02*
X2480865Y-10540808D01*
X2480865Y-10540808D02*
X2499913Y-10531284D01*
X2690389Y-10531284D02*
X2709436Y-10531284D01*
X2709436Y-10531284D02*
X2728484Y-10540808D01*
X2728484Y-10540808D02*
X2738008Y-10550331D01*
X2738008Y-10550331D02*
X2747532Y-10569379D01*
X2747532Y-10569379D02*
X2757055Y-10607474D01*
X2757055Y-10607474D02*
X2757055Y-10655093D01*
X2757055Y-10655093D02*
X2747532Y-10693189D01*
X2747532Y-10693189D02*
X2738008Y-10712236D01*
X2738008Y-10712236D02*
X2728484Y-10721760D01*
X2728484Y-10721760D02*
X2709436Y-10731284D01*
X2709436Y-10731284D02*
X2690389Y-10731284D01*
X2690389Y-10731284D02*
X2671341Y-10721760D01*
X2671341Y-10721760D02*
X2661817Y-10712236D01*
X2661817Y-10712236D02*
X2652294Y-10693189D01*
X2652294Y-10693189D02*
X2642770Y-10655093D01*
X2642770Y-10655093D02*
X2642770Y-10607474D01*
X2642770Y-10607474D02*
X2652294Y-10569379D01*
X2652294Y-10569379D02*
X2661817Y-10550331D01*
X2661817Y-10550331D02*
X2671341Y-10540808D01*
X2671341Y-10540808D02*
X2690389Y-10531284D01*
X2842770Y-10731284D02*
X2842770Y-10597950D01*
X2842770Y-10616998D02*
X2852293Y-10607474D01*
X2852293Y-10607474D02*
X2871341Y-10597950D01*
X2871341Y-10597950D02*
X2899913Y-10597950D01*
X2899913Y-10597950D02*
X2918960Y-10607474D01*
X2918960Y-10607474D02*
X2928484Y-10626522D01*
X2928484Y-10626522D02*
X2928484Y-10731284D01*
X2928484Y-10626522D02*
X2938008Y-10607474D01*
X2938008Y-10607474D02*
X2957055Y-10597950D01*
X2957055Y-10597950D02*
X2985627Y-10597950D01*
X2985627Y-10597950D02*
X3004674Y-10607474D01*
X3004674Y-10607474D02*
X3014198Y-10626522D01*
X3014198Y-10626522D02*
X3014198Y-10731284D01*
X3109436Y-10731284D02*
X3109436Y-10597950D01*
X3109436Y-10616998D02*
X3118960Y-10607474D01*
X3118960Y-10607474D02*
X3138008Y-10597950D01*
X3138008Y-10597950D02*
X3166579Y-10597950D01*
X3166579Y-10597950D02*
X3185627Y-10607474D01*
X3185627Y-10607474D02*
X3195151Y-10626522D01*
X3195151Y-10626522D02*
X3195151Y-10731284D01*
X3195151Y-10626522D02*
X3204674Y-10607474D01*
X3204674Y-10607474D02*
X3223722Y-10597950D01*
X3223722Y-10597950D02*
X3252293Y-10597950D01*
X3252293Y-10597950D02*
X3271341Y-10607474D01*
X3271341Y-10607474D02*
X3280865Y-10626522D01*
X3280865Y-10626522D02*
X3280865Y-10731284D01*
X3671341Y-10521760D02*
X3499913Y-10778903D01*
X3928484Y-10531284D02*
X3947532Y-10531284D01*
X3947532Y-10531284D02*
X3966579Y-10540808D01*
X3966579Y-10540808D02*
X3976103Y-10550331D01*
X3976103Y-10550331D02*
X3985627Y-10569379D01*
X3985627Y-10569379D02*
X3995151Y-10607474D01*
X3995151Y-10607474D02*
X3995151Y-10655093D01*
X3995151Y-10655093D02*
X3985627Y-10693189D01*
X3985627Y-10693189D02*
X3976103Y-10712236D01*
X3976103Y-10712236D02*
X3966579Y-10721760D01*
X3966579Y-10721760D02*
X3947532Y-10731284D01*
X3947532Y-10731284D02*
X3928484Y-10731284D01*
X3928484Y-10731284D02*
X3909436Y-10721760D01*
X3909436Y-10721760D02*
X3899913Y-10712236D01*
X3899913Y-10712236D02*
X3890389Y-10693189D01*
X3890389Y-10693189D02*
X3880865Y-10655093D01*
X3880865Y-10655093D02*
X3880865Y-10607474D01*
X3880865Y-10607474D02*
X3890389Y-10569379D01*
X3890389Y-10569379D02*
X3899913Y-10550331D01*
X3899913Y-10550331D02*
X3909436Y-10540808D01*
X3909436Y-10540808D02*
X3928484Y-10531284D01*
X4080865Y-10712236D02*
X4090389Y-10721760D01*
X4090389Y-10721760D02*
X4080865Y-10731284D01*
X4080865Y-10731284D02*
X4071341Y-10721760D01*
X4071341Y-10721760D02*
X4080865Y-10712236D01*
X4080865Y-10712236D02*
X4080865Y-10731284D01*
X4280865Y-10731284D02*
X4166579Y-10731284D01*
X4223722Y-10731284D02*
X4223722Y-10531284D01*
X4223722Y-10531284D02*
X4204675Y-10559855D01*
X4204675Y-10559855D02*
X4185627Y-10578903D01*
X4185627Y-10578903D02*
X4166579Y-10588427D01*
X4471341Y-10731284D02*
X4357056Y-10731284D01*
X4414198Y-10731284D02*
X4414198Y-10531284D01*
X4414198Y-10531284D02*
X4395151Y-10559855D01*
X4395151Y-10559855D02*
X4376103Y-10578903D01*
X4376103Y-10578903D02*
X4357056Y-10588427D01*
X4585627Y-10616998D02*
X4566579Y-10607474D01*
X4566579Y-10607474D02*
X4557056Y-10597950D01*
X4557056Y-10597950D02*
X4547532Y-10578903D01*
X4547532Y-10578903D02*
X4547532Y-10569379D01*
X4547532Y-10569379D02*
X4557056Y-10550331D01*
X4557056Y-10550331D02*
X4566579Y-10540808D01*
X4566579Y-10540808D02*
X4585627Y-10531284D01*
X4585627Y-10531284D02*
X4623722Y-10531284D01*
X4623722Y-10531284D02*
X4642770Y-10540808D01*
X4642770Y-10540808D02*
X4652294Y-10550331D01*
X4652294Y-10550331D02*
X4661818Y-10569379D01*
X4661818Y-10569379D02*
X4661818Y-10578903D01*
X4661818Y-10578903D02*
X4652294Y-10597950D01*
X4652294Y-10597950D02*
X4642770Y-10607474D01*
X4642770Y-10607474D02*
X4623722Y-10616998D01*
X4623722Y-10616998D02*
X4585627Y-10616998D01*
X4585627Y-10616998D02*
X4566579Y-10626522D01*
X4566579Y-10626522D02*
X4557056Y-10636046D01*
X4557056Y-10636046D02*
X4547532Y-10655093D01*
X4547532Y-10655093D02*
X4547532Y-10693189D01*
X4547532Y-10693189D02*
X4557056Y-10712236D01*
X4557056Y-10712236D02*
X4566579Y-10721760D01*
X4566579Y-10721760D02*
X4585627Y-10731284D01*
X4585627Y-10731284D02*
X4623722Y-10731284D01*
X4623722Y-10731284D02*
X4642770Y-10721760D01*
X4642770Y-10721760D02*
X4652294Y-10712236D01*
X4652294Y-10712236D02*
X4661818Y-10693189D01*
X4661818Y-10693189D02*
X4661818Y-10655093D01*
X4661818Y-10655093D02*
X4652294Y-10636046D01*
X4652294Y-10636046D02*
X4642770Y-10626522D01*
X4642770Y-10626522D02*
X4623722Y-10616998D01*
X4852294Y-10731284D02*
X4738008Y-10731284D01*
X4795151Y-10731284D02*
X4795151Y-10531284D01*
X4795151Y-10531284D02*
X4776103Y-10559855D01*
X4776103Y-10559855D02*
X4757056Y-10578903D01*
X4757056Y-10578903D02*
X4738008Y-10588427D01*
X4928484Y-10531284D02*
X4928484Y-10569379D01*
X5004675Y-10531284D02*
X5004675Y-10569379D01*
X5299913Y-10807474D02*
X5290389Y-10797950D01*
X5290389Y-10797950D02*
X5271341Y-10769379D01*
X5271341Y-10769379D02*
X5261818Y-10750331D01*
X5261818Y-10750331D02*
X5252294Y-10721760D01*
X5252294Y-10721760D02*
X5242770Y-10674141D01*
X5242770Y-10674141D02*
X5242770Y-10636046D01*
X5242770Y-10636046D02*
X5252294Y-10588427D01*
X5252294Y-10588427D02*
X5261818Y-10559855D01*
X5261818Y-10559855D02*
X5271341Y-10540808D01*
X5271341Y-10540808D02*
X5290389Y-10512236D01*
X5290389Y-10512236D02*
X5299913Y-10502712D01*
X5461818Y-10597950D02*
X5461818Y-10731284D01*
X5414199Y-10521760D02*
X5366580Y-10664617D01*
X5366580Y-10664617D02*
X5490389Y-10664617D01*
X5557056Y-10550331D02*
X5566580Y-10540808D01*
X5566580Y-10540808D02*
X5585627Y-10531284D01*
X5585627Y-10531284D02*
X5633246Y-10531284D01*
X5633246Y-10531284D02*
X5652294Y-10540808D01*
X5652294Y-10540808D02*
X5661818Y-10550331D01*
X5661818Y-10550331D02*
X5671341Y-10569379D01*
X5671341Y-10569379D02*
X5671341Y-10588427D01*
X5671341Y-10588427D02*
X5661818Y-10616998D01*
X5661818Y-10616998D02*
X5547532Y-10731284D01*
X5547532Y-10731284D02*
X5671341Y-10731284D01*
X5909437Y-10731284D02*
X5909437Y-10531284D01*
X5995151Y-10731284D02*
X5995151Y-10626522D01*
X5995151Y-10626522D02*
X5985627Y-10607474D01*
X5985627Y-10607474D02*
X5966580Y-10597950D01*
X5966580Y-10597950D02*
X5938008Y-10597950D01*
X5938008Y-10597950D02*
X5918960Y-10607474D01*
X5918960Y-10607474D02*
X5909437Y-10616998D01*
X6118960Y-10731284D02*
X6099913Y-10721760D01*
X6099913Y-10721760D02*
X6090389Y-10712236D01*
X6090389Y-10712236D02*
X6080865Y-10693189D01*
X6080865Y-10693189D02*
X6080865Y-10636046D01*
X6080865Y-10636046D02*
X6090389Y-10616998D01*
X6090389Y-10616998D02*
X6099913Y-10607474D01*
X6099913Y-10607474D02*
X6118960Y-10597950D01*
X6118960Y-10597950D02*
X6147532Y-10597950D01*
X6147532Y-10597950D02*
X6166580Y-10607474D01*
X6166580Y-10607474D02*
X6176103Y-10616998D01*
X6176103Y-10616998D02*
X6185627Y-10636046D01*
X6185627Y-10636046D02*
X6185627Y-10693189D01*
X6185627Y-10693189D02*
X6176103Y-10712236D01*
X6176103Y-10712236D02*
X6166580Y-10721760D01*
X6166580Y-10721760D02*
X6147532Y-10731284D01*
X6147532Y-10731284D02*
X6118960Y-10731284D01*
X6299913Y-10731284D02*
X6280865Y-10721760D01*
X6280865Y-10721760D02*
X6271341Y-10702712D01*
X6271341Y-10702712D02*
X6271341Y-10531284D01*
X6452294Y-10721760D02*
X6433246Y-10731284D01*
X6433246Y-10731284D02*
X6395151Y-10731284D01*
X6395151Y-10731284D02*
X6376103Y-10721760D01*
X6376103Y-10721760D02*
X6366580Y-10702712D01*
X6366580Y-10702712D02*
X6366580Y-10626522D01*
X6366580Y-10626522D02*
X6376103Y-10607474D01*
X6376103Y-10607474D02*
X6395151Y-10597950D01*
X6395151Y-10597950D02*
X6433246Y-10597950D01*
X6433246Y-10597950D02*
X6452294Y-10607474D01*
X6452294Y-10607474D02*
X6461818Y-10626522D01*
X6461818Y-10626522D02*
X6461818Y-10645570D01*
X6461818Y-10645570D02*
X6366580Y-10664617D01*
X6538008Y-10721760D02*
X6557056Y-10731284D01*
X6557056Y-10731284D02*
X6595151Y-10731284D01*
X6595151Y-10731284D02*
X6614199Y-10721760D01*
X6614199Y-10721760D02*
X6623722Y-10702712D01*
X6623722Y-10702712D02*
X6623722Y-10693189D01*
X6623722Y-10693189D02*
X6614199Y-10674141D01*
X6614199Y-10674141D02*
X6595151Y-10664617D01*
X6595151Y-10664617D02*
X6566580Y-10664617D01*
X6566580Y-10664617D02*
X6547532Y-10655093D01*
X6547532Y-10655093D02*
X6538008Y-10636046D01*
X6538008Y-10636046D02*
X6538008Y-10626522D01*
X6538008Y-10626522D02*
X6547532Y-10607474D01*
X6547532Y-10607474D02*
X6566580Y-10597950D01*
X6566580Y-10597950D02*
X6595151Y-10597950D01*
X6595151Y-10597950D02*
X6614199Y-10607474D01*
X6690389Y-10807474D02*
X6699913Y-10797950D01*
X6699913Y-10797950D02*
X6718961Y-10769379D01*
X6718961Y-10769379D02*
X6728484Y-10750331D01*
X6728484Y-10750331D02*
X6738008Y-10721760D01*
X6738008Y-10721760D02*
X6747532Y-10674141D01*
X6747532Y-10674141D02*
X6747532Y-10636046D01*
X6747532Y-10636046D02*
X6738008Y-10588427D01*
X6738008Y-10588427D02*
X6728484Y-10559855D01*
X6728484Y-10559855D02*
X6718961Y-10540808D01*
X6718961Y-10540808D02*
X6699913Y-10512236D01*
X6699913Y-10512236D02*
X6690389Y-10502712D01*
X7052294Y-10807474D02*
X7042770Y-10797950D01*
X7042770Y-10797950D02*
X7023722Y-10769379D01*
X7023722Y-10769379D02*
X7014199Y-10750331D01*
X7014199Y-10750331D02*
X7004675Y-10721760D01*
X7004675Y-10721760D02*
X6995151Y-10674141D01*
X6995151Y-10674141D02*
X6995151Y-10636046D01*
X6995151Y-10636046D02*
X7004675Y-10588427D01*
X7004675Y-10588427D02*
X7014199Y-10559855D01*
X7014199Y-10559855D02*
X7023722Y-10540808D01*
X7023722Y-10540808D02*
X7042770Y-10512236D01*
X7042770Y-10512236D02*
X7052294Y-10502712D01*
X7128484Y-10597950D02*
X7128484Y-10731284D01*
X7128484Y-10616998D02*
X7138008Y-10607474D01*
X7138008Y-10607474D02*
X7157056Y-10597950D01*
X7157056Y-10597950D02*
X7185627Y-10597950D01*
X7185627Y-10597950D02*
X7204675Y-10607474D01*
X7204675Y-10607474D02*
X7214199Y-10626522D01*
X7214199Y-10626522D02*
X7214199Y-10731284D01*
X7338008Y-10731284D02*
X7318961Y-10721760D01*
X7318961Y-10721760D02*
X7309437Y-10712236D01*
X7309437Y-10712236D02*
X7299913Y-10693189D01*
X7299913Y-10693189D02*
X7299913Y-10636046D01*
X7299913Y-10636046D02*
X7309437Y-10616998D01*
X7309437Y-10616998D02*
X7318961Y-10607474D01*
X7318961Y-10607474D02*
X7338008Y-10597950D01*
X7338008Y-10597950D02*
X7366580Y-10597950D01*
X7366580Y-10597950D02*
X7385627Y-10607474D01*
X7385627Y-10607474D02*
X7395151Y-10616998D01*
X7395151Y-10616998D02*
X7404675Y-10636046D01*
X7404675Y-10636046D02*
X7404675Y-10693189D01*
X7404675Y-10693189D02*
X7395151Y-10712236D01*
X7395151Y-10712236D02*
X7385627Y-10721760D01*
X7385627Y-10721760D02*
X7366580Y-10731284D01*
X7366580Y-10731284D02*
X7338008Y-10731284D01*
X7461818Y-10597950D02*
X7538008Y-10597950D01*
X7490389Y-10531284D02*
X7490389Y-10702712D01*
X7490389Y-10702712D02*
X7499913Y-10721760D01*
X7499913Y-10721760D02*
X7518961Y-10731284D01*
X7518961Y-10731284D02*
X7538008Y-10731284D01*
X7757056Y-10597950D02*
X7757056Y-10797950D01*
X7757056Y-10607474D02*
X7776103Y-10597950D01*
X7776103Y-10597950D02*
X7814199Y-10597950D01*
X7814199Y-10597950D02*
X7833246Y-10607474D01*
X7833246Y-10607474D02*
X7842770Y-10616998D01*
X7842770Y-10616998D02*
X7852294Y-10636046D01*
X7852294Y-10636046D02*
X7852294Y-10693189D01*
X7852294Y-10693189D02*
X7842770Y-10712236D01*
X7842770Y-10712236D02*
X7833246Y-10721760D01*
X7833246Y-10721760D02*
X7814199Y-10731284D01*
X7814199Y-10731284D02*
X7776103Y-10731284D01*
X7776103Y-10731284D02*
X7757056Y-10721760D01*
X7966580Y-10731284D02*
X7947532Y-10721760D01*
X7947532Y-10721760D02*
X7938008Y-10702712D01*
X7938008Y-10702712D02*
X7938008Y-10531284D01*
X8128484Y-10731284D02*
X8128484Y-10626522D01*
X8128484Y-10626522D02*
X8118961Y-10607474D01*
X8118961Y-10607474D02*
X8099913Y-10597950D01*
X8099913Y-10597950D02*
X8061818Y-10597950D01*
X8061818Y-10597950D02*
X8042770Y-10607474D01*
X8128484Y-10721760D02*
X8109437Y-10731284D01*
X8109437Y-10731284D02*
X8061818Y-10731284D01*
X8061818Y-10731284D02*
X8042770Y-10721760D01*
X8042770Y-10721760D02*
X8033246Y-10702712D01*
X8033246Y-10702712D02*
X8033246Y-10683665D01*
X8033246Y-10683665D02*
X8042770Y-10664617D01*
X8042770Y-10664617D02*
X8061818Y-10655093D01*
X8061818Y-10655093D02*
X8109437Y-10655093D01*
X8109437Y-10655093D02*
X8128484Y-10645570D01*
X8195151Y-10597950D02*
X8271342Y-10597950D01*
X8223723Y-10531284D02*
X8223723Y-10702712D01*
X8223723Y-10702712D02*
X8233246Y-10721760D01*
X8233246Y-10721760D02*
X8252294Y-10731284D01*
X8252294Y-10731284D02*
X8271342Y-10731284D01*
X8414199Y-10721760D02*
X8395151Y-10731284D01*
X8395151Y-10731284D02*
X8357056Y-10731284D01*
X8357056Y-10731284D02*
X8338008Y-10721760D01*
X8338008Y-10721760D02*
X8328484Y-10702712D01*
X8328484Y-10702712D02*
X8328484Y-10626522D01*
X8328484Y-10626522D02*
X8338008Y-10607474D01*
X8338008Y-10607474D02*
X8357056Y-10597950D01*
X8357056Y-10597950D02*
X8395151Y-10597950D01*
X8395151Y-10597950D02*
X8414199Y-10607474D01*
X8414199Y-10607474D02*
X8423723Y-10626522D01*
X8423723Y-10626522D02*
X8423723Y-10645570D01*
X8423723Y-10645570D02*
X8328484Y-10664617D01*
X8595151Y-10731284D02*
X8595151Y-10531284D01*
X8595151Y-10721760D02*
X8576104Y-10731284D01*
X8576104Y-10731284D02*
X8538008Y-10731284D01*
X8538008Y-10731284D02*
X8518961Y-10721760D01*
X8518961Y-10721760D02*
X8509437Y-10712236D01*
X8509437Y-10712236D02*
X8499913Y-10693189D01*
X8499913Y-10693189D02*
X8499913Y-10636046D01*
X8499913Y-10636046D02*
X8509437Y-10616998D01*
X8509437Y-10616998D02*
X8518961Y-10607474D01*
X8518961Y-10607474D02*
X8538008Y-10597950D01*
X8538008Y-10597950D02*
X8576104Y-10597950D01*
X8576104Y-10597950D02*
X8595151Y-10607474D01*
X8671342Y-10807474D02*
X8680866Y-10797950D01*
X8680866Y-10797950D02*
X8699913Y-10769379D01*
X8699913Y-10769379D02*
X8709437Y-10750331D01*
X8709437Y-10750331D02*
X8718961Y-10721760D01*
X8718961Y-10721760D02*
X8728485Y-10674141D01*
X8728485Y-10674141D02*
X8728485Y-10636046D01*
X8728485Y-10636046D02*
X8718961Y-10588427D01*
X8718961Y-10588427D02*
X8709437Y-10559855D01*
X8709437Y-10559855D02*
X8699913Y-10540808D01*
X8699913Y-10540808D02*
X8680866Y-10512236D01*
X8680866Y-10512236D02*
X8671342Y-10502712D01*
X1695561Y-11030511D02*
X1695561Y-10889089D01*
X1554139Y-10889089D01*
X1554139Y-11030511D01*
X1695561Y-11030511D01*
X2071341Y-10917950D02*
X2071341Y-11051284D01*
X2023722Y-10841760D02*
X1976103Y-10984617D01*
X1976103Y-10984617D02*
X2099913Y-10984617D01*
X2176103Y-11032236D02*
X2185627Y-11041760D01*
X2185627Y-11041760D02*
X2176103Y-11051284D01*
X2176103Y-11051284D02*
X2166579Y-11041760D01*
X2166579Y-11041760D02*
X2176103Y-11032236D01*
X2176103Y-11032236D02*
X2176103Y-11051284D01*
X2299913Y-10936998D02*
X2280865Y-10927474D01*
X2280865Y-10927474D02*
X2271341Y-10917950D01*
X2271341Y-10917950D02*
X2261817Y-10898903D01*
X2261817Y-10898903D02*
X2261817Y-10889379D01*
X2261817Y-10889379D02*
X2271341Y-10870331D01*
X2271341Y-10870331D02*
X2280865Y-10860808D01*
X2280865Y-10860808D02*
X2299913Y-10851284D01*
X2299913Y-10851284D02*
X2338008Y-10851284D01*
X2338008Y-10851284D02*
X2357055Y-10860808D01*
X2357055Y-10860808D02*
X2366579Y-10870331D01*
X2366579Y-10870331D02*
X2376103Y-10889379D01*
X2376103Y-10889379D02*
X2376103Y-10898903D01*
X2376103Y-10898903D02*
X2366579Y-10917950D01*
X2366579Y-10917950D02*
X2357055Y-10927474D01*
X2357055Y-10927474D02*
X2338008Y-10936998D01*
X2338008Y-10936998D02*
X2299913Y-10936998D01*
X2299913Y-10936998D02*
X2280865Y-10946522D01*
X2280865Y-10946522D02*
X2271341Y-10956046D01*
X2271341Y-10956046D02*
X2261817Y-10975093D01*
X2261817Y-10975093D02*
X2261817Y-11013189D01*
X2261817Y-11013189D02*
X2271341Y-11032236D01*
X2271341Y-11032236D02*
X2280865Y-11041760D01*
X2280865Y-11041760D02*
X2299913Y-11051284D01*
X2299913Y-11051284D02*
X2338008Y-11051284D01*
X2338008Y-11051284D02*
X2357055Y-11041760D01*
X2357055Y-11041760D02*
X2366579Y-11032236D01*
X2366579Y-11032236D02*
X2376103Y-11013189D01*
X2376103Y-11013189D02*
X2376103Y-10975093D01*
X2376103Y-10975093D02*
X2366579Y-10956046D01*
X2366579Y-10956046D02*
X2357055Y-10946522D01*
X2357055Y-10946522D02*
X2338008Y-10936998D01*
X2499913Y-10851284D02*
X2518960Y-10851284D01*
X2518960Y-10851284D02*
X2538008Y-10860808D01*
X2538008Y-10860808D02*
X2547532Y-10870331D01*
X2547532Y-10870331D02*
X2557055Y-10889379D01*
X2557055Y-10889379D02*
X2566579Y-10927474D01*
X2566579Y-10927474D02*
X2566579Y-10975093D01*
X2566579Y-10975093D02*
X2557055Y-11013189D01*
X2557055Y-11013189D02*
X2547532Y-11032236D01*
X2547532Y-11032236D02*
X2538008Y-11041760D01*
X2538008Y-11041760D02*
X2518960Y-11051284D01*
X2518960Y-11051284D02*
X2499913Y-11051284D01*
X2499913Y-11051284D02*
X2480865Y-11041760D01*
X2480865Y-11041760D02*
X2471341Y-11032236D01*
X2471341Y-11032236D02*
X2461817Y-11013189D01*
X2461817Y-11013189D02*
X2452294Y-10975093D01*
X2452294Y-10975093D02*
X2452294Y-10927474D01*
X2452294Y-10927474D02*
X2461817Y-10889379D01*
X2461817Y-10889379D02*
X2471341Y-10870331D01*
X2471341Y-10870331D02*
X2480865Y-10860808D01*
X2480865Y-10860808D02*
X2499913Y-10851284D01*
X2690389Y-10851284D02*
X2709436Y-10851284D01*
X2709436Y-10851284D02*
X2728484Y-10860808D01*
X2728484Y-10860808D02*
X2738008Y-10870331D01*
X2738008Y-10870331D02*
X2747532Y-10889379D01*
X2747532Y-10889379D02*
X2757055Y-10927474D01*
X2757055Y-10927474D02*
X2757055Y-10975093D01*
X2757055Y-10975093D02*
X2747532Y-11013189D01*
X2747532Y-11013189D02*
X2738008Y-11032236D01*
X2738008Y-11032236D02*
X2728484Y-11041760D01*
X2728484Y-11041760D02*
X2709436Y-11051284D01*
X2709436Y-11051284D02*
X2690389Y-11051284D01*
X2690389Y-11051284D02*
X2671341Y-11041760D01*
X2671341Y-11041760D02*
X2661817Y-11032236D01*
X2661817Y-11032236D02*
X2652294Y-11013189D01*
X2652294Y-11013189D02*
X2642770Y-10975093D01*
X2642770Y-10975093D02*
X2642770Y-10927474D01*
X2642770Y-10927474D02*
X2652294Y-10889379D01*
X2652294Y-10889379D02*
X2661817Y-10870331D01*
X2661817Y-10870331D02*
X2671341Y-10860808D01*
X2671341Y-10860808D02*
X2690389Y-10851284D01*
X2842770Y-11051284D02*
X2842770Y-10917950D01*
X2842770Y-10936998D02*
X2852293Y-10927474D01*
X2852293Y-10927474D02*
X2871341Y-10917950D01*
X2871341Y-10917950D02*
X2899913Y-10917950D01*
X2899913Y-10917950D02*
X2918960Y-10927474D01*
X2918960Y-10927474D02*
X2928484Y-10946522D01*
X2928484Y-10946522D02*
X2928484Y-11051284D01*
X2928484Y-10946522D02*
X2938008Y-10927474D01*
X2938008Y-10927474D02*
X2957055Y-10917950D01*
X2957055Y-10917950D02*
X2985627Y-10917950D01*
X2985627Y-10917950D02*
X3004674Y-10927474D01*
X3004674Y-10927474D02*
X3014198Y-10946522D01*
X3014198Y-10946522D02*
X3014198Y-11051284D01*
X3109436Y-11051284D02*
X3109436Y-10917950D01*
X3109436Y-10936998D02*
X3118960Y-10927474D01*
X3118960Y-10927474D02*
X3138008Y-10917950D01*
X3138008Y-10917950D02*
X3166579Y-10917950D01*
X3166579Y-10917950D02*
X3185627Y-10927474D01*
X3185627Y-10927474D02*
X3195151Y-10946522D01*
X3195151Y-10946522D02*
X3195151Y-11051284D01*
X3195151Y-10946522D02*
X3204674Y-10927474D01*
X3204674Y-10927474D02*
X3223722Y-10917950D01*
X3223722Y-10917950D02*
X3252293Y-10917950D01*
X3252293Y-10917950D02*
X3271341Y-10927474D01*
X3271341Y-10927474D02*
X3280865Y-10946522D01*
X3280865Y-10946522D02*
X3280865Y-11051284D01*
X3671341Y-10841760D02*
X3499913Y-11098903D01*
X3928484Y-10851284D02*
X3947532Y-10851284D01*
X3947532Y-10851284D02*
X3966579Y-10860808D01*
X3966579Y-10860808D02*
X3976103Y-10870331D01*
X3976103Y-10870331D02*
X3985627Y-10889379D01*
X3985627Y-10889379D02*
X3995151Y-10927474D01*
X3995151Y-10927474D02*
X3995151Y-10975093D01*
X3995151Y-10975093D02*
X3985627Y-11013189D01*
X3985627Y-11013189D02*
X3976103Y-11032236D01*
X3976103Y-11032236D02*
X3966579Y-11041760D01*
X3966579Y-11041760D02*
X3947532Y-11051284D01*
X3947532Y-11051284D02*
X3928484Y-11051284D01*
X3928484Y-11051284D02*
X3909436Y-11041760D01*
X3909436Y-11041760D02*
X3899913Y-11032236D01*
X3899913Y-11032236D02*
X3890389Y-11013189D01*
X3890389Y-11013189D02*
X3880865Y-10975093D01*
X3880865Y-10975093D02*
X3880865Y-10927474D01*
X3880865Y-10927474D02*
X3890389Y-10889379D01*
X3890389Y-10889379D02*
X3899913Y-10870331D01*
X3899913Y-10870331D02*
X3909436Y-10860808D01*
X3909436Y-10860808D02*
X3928484Y-10851284D01*
X4080865Y-11032236D02*
X4090389Y-11041760D01*
X4090389Y-11041760D02*
X4080865Y-11051284D01*
X4080865Y-11051284D02*
X4071341Y-11041760D01*
X4071341Y-11041760D02*
X4080865Y-11032236D01*
X4080865Y-11032236D02*
X4080865Y-11051284D01*
X4280865Y-11051284D02*
X4166579Y-11051284D01*
X4223722Y-11051284D02*
X4223722Y-10851284D01*
X4223722Y-10851284D02*
X4204675Y-10879855D01*
X4204675Y-10879855D02*
X4185627Y-10898903D01*
X4185627Y-10898903D02*
X4166579Y-10908427D01*
X4395151Y-10936998D02*
X4376103Y-10927474D01*
X4376103Y-10927474D02*
X4366579Y-10917950D01*
X4366579Y-10917950D02*
X4357056Y-10898903D01*
X4357056Y-10898903D02*
X4357056Y-10889379D01*
X4357056Y-10889379D02*
X4366579Y-10870331D01*
X4366579Y-10870331D02*
X4376103Y-10860808D01*
X4376103Y-10860808D02*
X4395151Y-10851284D01*
X4395151Y-10851284D02*
X4433246Y-10851284D01*
X4433246Y-10851284D02*
X4452294Y-10860808D01*
X4452294Y-10860808D02*
X4461818Y-10870331D01*
X4461818Y-10870331D02*
X4471341Y-10889379D01*
X4471341Y-10889379D02*
X4471341Y-10898903D01*
X4471341Y-10898903D02*
X4461818Y-10917950D01*
X4461818Y-10917950D02*
X4452294Y-10927474D01*
X4452294Y-10927474D02*
X4433246Y-10936998D01*
X4433246Y-10936998D02*
X4395151Y-10936998D01*
X4395151Y-10936998D02*
X4376103Y-10946522D01*
X4376103Y-10946522D02*
X4366579Y-10956046D01*
X4366579Y-10956046D02*
X4357056Y-10975093D01*
X4357056Y-10975093D02*
X4357056Y-11013189D01*
X4357056Y-11013189D02*
X4366579Y-11032236D01*
X4366579Y-11032236D02*
X4376103Y-11041760D01*
X4376103Y-11041760D02*
X4395151Y-11051284D01*
X4395151Y-11051284D02*
X4433246Y-11051284D01*
X4433246Y-11051284D02*
X4452294Y-11041760D01*
X4452294Y-11041760D02*
X4461818Y-11032236D01*
X4461818Y-11032236D02*
X4471341Y-11013189D01*
X4471341Y-11013189D02*
X4471341Y-10975093D01*
X4471341Y-10975093D02*
X4461818Y-10956046D01*
X4461818Y-10956046D02*
X4452294Y-10946522D01*
X4452294Y-10946522D02*
X4433246Y-10936998D01*
X4566579Y-11051284D02*
X4604675Y-11051284D01*
X4604675Y-11051284D02*
X4623722Y-11041760D01*
X4623722Y-11041760D02*
X4633246Y-11032236D01*
X4633246Y-11032236D02*
X4652294Y-11003665D01*
X4652294Y-11003665D02*
X4661818Y-10965570D01*
X4661818Y-10965570D02*
X4661818Y-10889379D01*
X4661818Y-10889379D02*
X4652294Y-10870331D01*
X4652294Y-10870331D02*
X4642770Y-10860808D01*
X4642770Y-10860808D02*
X4623722Y-10851284D01*
X4623722Y-10851284D02*
X4585627Y-10851284D01*
X4585627Y-10851284D02*
X4566579Y-10860808D01*
X4566579Y-10860808D02*
X4557056Y-10870331D01*
X4557056Y-10870331D02*
X4547532Y-10889379D01*
X4547532Y-10889379D02*
X4547532Y-10936998D01*
X4547532Y-10936998D02*
X4557056Y-10956046D01*
X4557056Y-10956046D02*
X4566579Y-10965570D01*
X4566579Y-10965570D02*
X4585627Y-10975093D01*
X4585627Y-10975093D02*
X4623722Y-10975093D01*
X4623722Y-10975093D02*
X4642770Y-10965570D01*
X4642770Y-10965570D02*
X4652294Y-10956046D01*
X4652294Y-10956046D02*
X4661818Y-10936998D01*
X4785627Y-10851284D02*
X4804675Y-10851284D01*
X4804675Y-10851284D02*
X4823722Y-10860808D01*
X4823722Y-10860808D02*
X4833246Y-10870331D01*
X4833246Y-10870331D02*
X4842770Y-10889379D01*
X4842770Y-10889379D02*
X4852294Y-10927474D01*
X4852294Y-10927474D02*
X4852294Y-10975093D01*
X4852294Y-10975093D02*
X4842770Y-11013189D01*
X4842770Y-11013189D02*
X4833246Y-11032236D01*
X4833246Y-11032236D02*
X4823722Y-11041760D01*
X4823722Y-11041760D02*
X4804675Y-11051284D01*
X4804675Y-11051284D02*
X4785627Y-11051284D01*
X4785627Y-11051284D02*
X4766579Y-11041760D01*
X4766579Y-11041760D02*
X4757056Y-11032236D01*
X4757056Y-11032236D02*
X4747532Y-11013189D01*
X4747532Y-11013189D02*
X4738008Y-10975093D01*
X4738008Y-10975093D02*
X4738008Y-10927474D01*
X4738008Y-10927474D02*
X4747532Y-10889379D01*
X4747532Y-10889379D02*
X4757056Y-10870331D01*
X4757056Y-10870331D02*
X4766579Y-10860808D01*
X4766579Y-10860808D02*
X4785627Y-10851284D01*
X4928484Y-10851284D02*
X4928484Y-10889379D01*
X5004675Y-10851284D02*
X5004675Y-10889379D01*
X5299913Y-11127474D02*
X5290389Y-11117950D01*
X5290389Y-11117950D02*
X5271341Y-11089379D01*
X5271341Y-11089379D02*
X5261818Y-11070331D01*
X5261818Y-11070331D02*
X5252294Y-11041760D01*
X5252294Y-11041760D02*
X5242770Y-10994141D01*
X5242770Y-10994141D02*
X5242770Y-10956046D01*
X5242770Y-10956046D02*
X5252294Y-10908427D01*
X5252294Y-10908427D02*
X5261818Y-10879855D01*
X5261818Y-10879855D02*
X5271341Y-10860808D01*
X5271341Y-10860808D02*
X5290389Y-10832236D01*
X5290389Y-10832236D02*
X5299913Y-10822712D01*
X5366580Y-10870331D02*
X5376103Y-10860808D01*
X5376103Y-10860808D02*
X5395151Y-10851284D01*
X5395151Y-10851284D02*
X5442770Y-10851284D01*
X5442770Y-10851284D02*
X5461818Y-10860808D01*
X5461818Y-10860808D02*
X5471341Y-10870331D01*
X5471341Y-10870331D02*
X5480865Y-10889379D01*
X5480865Y-10889379D02*
X5480865Y-10908427D01*
X5480865Y-10908427D02*
X5471341Y-10936998D01*
X5471341Y-10936998D02*
X5357056Y-11051284D01*
X5357056Y-11051284D02*
X5480865Y-11051284D01*
X5671341Y-11051284D02*
X5557056Y-11051284D01*
X5614198Y-11051284D02*
X5614198Y-10851284D01*
X5614198Y-10851284D02*
X5595151Y-10879855D01*
X5595151Y-10879855D02*
X5576103Y-10898903D01*
X5576103Y-10898903D02*
X5557056Y-10908427D01*
X5909437Y-11051284D02*
X5909437Y-10851284D01*
X5995151Y-11051284D02*
X5995151Y-10946522D01*
X5995151Y-10946522D02*
X5985627Y-10927474D01*
X5985627Y-10927474D02*
X5966580Y-10917950D01*
X5966580Y-10917950D02*
X5938008Y-10917950D01*
X5938008Y-10917950D02*
X5918960Y-10927474D01*
X5918960Y-10927474D02*
X5909437Y-10936998D01*
X6118960Y-11051284D02*
X6099913Y-11041760D01*
X6099913Y-11041760D02*
X6090389Y-11032236D01*
X6090389Y-11032236D02*
X6080865Y-11013189D01*
X6080865Y-11013189D02*
X6080865Y-10956046D01*
X6080865Y-10956046D02*
X6090389Y-10936998D01*
X6090389Y-10936998D02*
X6099913Y-10927474D01*
X6099913Y-10927474D02*
X6118960Y-10917950D01*
X6118960Y-10917950D02*
X6147532Y-10917950D01*
X6147532Y-10917950D02*
X6166580Y-10927474D01*
X6166580Y-10927474D02*
X6176103Y-10936998D01*
X6176103Y-10936998D02*
X6185627Y-10956046D01*
X6185627Y-10956046D02*
X6185627Y-11013189D01*
X6185627Y-11013189D02*
X6176103Y-11032236D01*
X6176103Y-11032236D02*
X6166580Y-11041760D01*
X6166580Y-11041760D02*
X6147532Y-11051284D01*
X6147532Y-11051284D02*
X6118960Y-11051284D01*
X6299913Y-11051284D02*
X6280865Y-11041760D01*
X6280865Y-11041760D02*
X6271341Y-11022712D01*
X6271341Y-11022712D02*
X6271341Y-10851284D01*
X6452294Y-11041760D02*
X6433246Y-11051284D01*
X6433246Y-11051284D02*
X6395151Y-11051284D01*
X6395151Y-11051284D02*
X6376103Y-11041760D01*
X6376103Y-11041760D02*
X6366580Y-11022712D01*
X6366580Y-11022712D02*
X6366580Y-10946522D01*
X6366580Y-10946522D02*
X6376103Y-10927474D01*
X6376103Y-10927474D02*
X6395151Y-10917950D01*
X6395151Y-10917950D02*
X6433246Y-10917950D01*
X6433246Y-10917950D02*
X6452294Y-10927474D01*
X6452294Y-10927474D02*
X6461818Y-10946522D01*
X6461818Y-10946522D02*
X6461818Y-10965570D01*
X6461818Y-10965570D02*
X6366580Y-10984617D01*
X6538008Y-11041760D02*
X6557056Y-11051284D01*
X6557056Y-11051284D02*
X6595151Y-11051284D01*
X6595151Y-11051284D02*
X6614199Y-11041760D01*
X6614199Y-11041760D02*
X6623722Y-11022712D01*
X6623722Y-11022712D02*
X6623722Y-11013189D01*
X6623722Y-11013189D02*
X6614199Y-10994141D01*
X6614199Y-10994141D02*
X6595151Y-10984617D01*
X6595151Y-10984617D02*
X6566580Y-10984617D01*
X6566580Y-10984617D02*
X6547532Y-10975093D01*
X6547532Y-10975093D02*
X6538008Y-10956046D01*
X6538008Y-10956046D02*
X6538008Y-10946522D01*
X6538008Y-10946522D02*
X6547532Y-10927474D01*
X6547532Y-10927474D02*
X6566580Y-10917950D01*
X6566580Y-10917950D02*
X6595151Y-10917950D01*
X6595151Y-10917950D02*
X6614199Y-10927474D01*
X6690389Y-11127474D02*
X6699913Y-11117950D01*
X6699913Y-11117950D02*
X6718961Y-11089379D01*
X6718961Y-11089379D02*
X6728484Y-11070331D01*
X6728484Y-11070331D02*
X6738008Y-11041760D01*
X6738008Y-11041760D02*
X6747532Y-10994141D01*
X6747532Y-10994141D02*
X6747532Y-10956046D01*
X6747532Y-10956046D02*
X6738008Y-10908427D01*
X6738008Y-10908427D02*
X6728484Y-10879855D01*
X6728484Y-10879855D02*
X6718961Y-10860808D01*
X6718961Y-10860808D02*
X6699913Y-10832236D01*
X6699913Y-10832236D02*
X6690389Y-10822712D01*
X7052294Y-11127474D02*
X7042770Y-11117950D01*
X7042770Y-11117950D02*
X7023722Y-11089379D01*
X7023722Y-11089379D02*
X7014199Y-11070331D01*
X7014199Y-11070331D02*
X7004675Y-11041760D01*
X7004675Y-11041760D02*
X6995151Y-10994141D01*
X6995151Y-10994141D02*
X6995151Y-10956046D01*
X6995151Y-10956046D02*
X7004675Y-10908427D01*
X7004675Y-10908427D02*
X7014199Y-10879855D01*
X7014199Y-10879855D02*
X7023722Y-10860808D01*
X7023722Y-10860808D02*
X7042770Y-10832236D01*
X7042770Y-10832236D02*
X7052294Y-10822712D01*
X7128484Y-10917950D02*
X7128484Y-11051284D01*
X7128484Y-10936998D02*
X7138008Y-10927474D01*
X7138008Y-10927474D02*
X7157056Y-10917950D01*
X7157056Y-10917950D02*
X7185627Y-10917950D01*
X7185627Y-10917950D02*
X7204675Y-10927474D01*
X7204675Y-10927474D02*
X7214199Y-10946522D01*
X7214199Y-10946522D02*
X7214199Y-11051284D01*
X7338008Y-11051284D02*
X7318961Y-11041760D01*
X7318961Y-11041760D02*
X7309437Y-11032236D01*
X7309437Y-11032236D02*
X7299913Y-11013189D01*
X7299913Y-11013189D02*
X7299913Y-10956046D01*
X7299913Y-10956046D02*
X7309437Y-10936998D01*
X7309437Y-10936998D02*
X7318961Y-10927474D01*
X7318961Y-10927474D02*
X7338008Y-10917950D01*
X7338008Y-10917950D02*
X7366580Y-10917950D01*
X7366580Y-10917950D02*
X7385627Y-10927474D01*
X7385627Y-10927474D02*
X7395151Y-10936998D01*
X7395151Y-10936998D02*
X7404675Y-10956046D01*
X7404675Y-10956046D02*
X7404675Y-11013189D01*
X7404675Y-11013189D02*
X7395151Y-11032236D01*
X7395151Y-11032236D02*
X7385627Y-11041760D01*
X7385627Y-11041760D02*
X7366580Y-11051284D01*
X7366580Y-11051284D02*
X7338008Y-11051284D01*
X7461818Y-10917950D02*
X7538008Y-10917950D01*
X7490389Y-10851284D02*
X7490389Y-11022712D01*
X7490389Y-11022712D02*
X7499913Y-11041760D01*
X7499913Y-11041760D02*
X7518961Y-11051284D01*
X7518961Y-11051284D02*
X7538008Y-11051284D01*
X7757056Y-10917950D02*
X7757056Y-11117950D01*
X7757056Y-10927474D02*
X7776103Y-10917950D01*
X7776103Y-10917950D02*
X7814199Y-10917950D01*
X7814199Y-10917950D02*
X7833246Y-10927474D01*
X7833246Y-10927474D02*
X7842770Y-10936998D01*
X7842770Y-10936998D02*
X7852294Y-10956046D01*
X7852294Y-10956046D02*
X7852294Y-11013189D01*
X7852294Y-11013189D02*
X7842770Y-11032236D01*
X7842770Y-11032236D02*
X7833246Y-11041760D01*
X7833246Y-11041760D02*
X7814199Y-11051284D01*
X7814199Y-11051284D02*
X7776103Y-11051284D01*
X7776103Y-11051284D02*
X7757056Y-11041760D01*
X7966580Y-11051284D02*
X7947532Y-11041760D01*
X7947532Y-11041760D02*
X7938008Y-11022712D01*
X7938008Y-11022712D02*
X7938008Y-10851284D01*
X8128484Y-11051284D02*
X8128484Y-10946522D01*
X8128484Y-10946522D02*
X8118961Y-10927474D01*
X8118961Y-10927474D02*
X8099913Y-10917950D01*
X8099913Y-10917950D02*
X8061818Y-10917950D01*
X8061818Y-10917950D02*
X8042770Y-10927474D01*
X8128484Y-11041760D02*
X8109437Y-11051284D01*
X8109437Y-11051284D02*
X8061818Y-11051284D01*
X8061818Y-11051284D02*
X8042770Y-11041760D01*
X8042770Y-11041760D02*
X8033246Y-11022712D01*
X8033246Y-11022712D02*
X8033246Y-11003665D01*
X8033246Y-11003665D02*
X8042770Y-10984617D01*
X8042770Y-10984617D02*
X8061818Y-10975093D01*
X8061818Y-10975093D02*
X8109437Y-10975093D01*
X8109437Y-10975093D02*
X8128484Y-10965570D01*
X8195151Y-10917950D02*
X8271342Y-10917950D01*
X8223723Y-10851284D02*
X8223723Y-11022712D01*
X8223723Y-11022712D02*
X8233246Y-11041760D01*
X8233246Y-11041760D02*
X8252294Y-11051284D01*
X8252294Y-11051284D02*
X8271342Y-11051284D01*
X8414199Y-11041760D02*
X8395151Y-11051284D01*
X8395151Y-11051284D02*
X8357056Y-11051284D01*
X8357056Y-11051284D02*
X8338008Y-11041760D01*
X8338008Y-11041760D02*
X8328484Y-11022712D01*
X8328484Y-11022712D02*
X8328484Y-10946522D01*
X8328484Y-10946522D02*
X8338008Y-10927474D01*
X8338008Y-10927474D02*
X8357056Y-10917950D01*
X8357056Y-10917950D02*
X8395151Y-10917950D01*
X8395151Y-10917950D02*
X8414199Y-10927474D01*
X8414199Y-10927474D02*
X8423723Y-10946522D01*
X8423723Y-10946522D02*
X8423723Y-10965570D01*
X8423723Y-10965570D02*
X8328484Y-10984617D01*
X8595151Y-11051284D02*
X8595151Y-10851284D01*
X8595151Y-11041760D02*
X8576104Y-11051284D01*
X8576104Y-11051284D02*
X8538008Y-11051284D01*
X8538008Y-11051284D02*
X8518961Y-11041760D01*
X8518961Y-11041760D02*
X8509437Y-11032236D01*
X8509437Y-11032236D02*
X8499913Y-11013189D01*
X8499913Y-11013189D02*
X8499913Y-10956046D01*
X8499913Y-10956046D02*
X8509437Y-10936998D01*
X8509437Y-10936998D02*
X8518961Y-10927474D01*
X8518961Y-10927474D02*
X8538008Y-10917950D01*
X8538008Y-10917950D02*
X8576104Y-10917950D01*
X8576104Y-10917950D02*
X8595151Y-10927474D01*
X8671342Y-11127474D02*
X8680866Y-11117950D01*
X8680866Y-11117950D02*
X8699913Y-11089379D01*
X8699913Y-11089379D02*
X8709437Y-11070331D01*
X8709437Y-11070331D02*
X8718961Y-11041760D01*
X8718961Y-11041760D02*
X8728485Y-10994141D01*
X8728485Y-10994141D02*
X8728485Y-10956046D01*
X8728485Y-10956046D02*
X8718961Y-10908427D01*
X8718961Y-10908427D02*
X8709437Y-10879855D01*
X8709437Y-10879855D02*
X8699913Y-10860808D01*
X8699913Y-10860808D02*
X8680866Y-10832236D01*
X8680866Y-10832236D02*
X8671342Y-10822712D01*
M02*
