G04 #@! TF.GenerationSoftware,KiCad,Pcbnew,9.0.0*
G04 #@! TF.CreationDate,2025-03-30T21:58:58+09:00*
G04 #@! TF.ProjectId,nofy,6e6f6679-2e6b-4696-9361-645f70636258,rev?*
G04 #@! TF.SameCoordinates,Original*
G04 #@! TF.FileFunction,Copper,L2,Bot*
G04 #@! TF.FilePolarity,Positive*
%FSLAX46Y46*%
G04 Gerber Fmt 4.6, Leading zero omitted, Abs format (unit mm)*
G04 Created by KiCad (PCBNEW 9.0.0) date 2025-03-30 21:58:58*
%MOMM*%
%LPD*%
G01*
G04 APERTURE LIST*
G04 Aperture macros list*
%AMRoundRect*
0 Rectangle with rounded corners*
0 $1 Rounding radius*
0 $2 $3 $4 $5 $6 $7 $8 $9 X,Y pos of 4 corners*
0 Add a 4 corners polygon primitive as box body*
4,1,4,$2,$3,$4,$5,$6,$7,$8,$9,$2,$3,0*
0 Add four circle primitives for the rounded corners*
1,1,$1+$1,$2,$3*
1,1,$1+$1,$4,$5*
1,1,$1+$1,$6,$7*
1,1,$1+$1,$8,$9*
0 Add four rect primitives between the rounded corners*
20,1,$1+$1,$2,$3,$4,$5,0*
20,1,$1+$1,$4,$5,$6,$7,0*
20,1,$1+$1,$6,$7,$8,$9,0*
20,1,$1+$1,$8,$9,$2,$3,0*%
G04 Aperture macros list end*
G04 #@! TA.AperFunction,SMDPad,CuDef*
%ADD10R,1.200000X0.950000*%
G04 #@! TD*
G04 #@! TA.AperFunction,SMDPad,CuDef*
%ADD11R,2.300000X3.550000*%
G04 #@! TD*
G04 #@! TA.AperFunction,SMDPad,CuDef*
%ADD12R,3.000000X3.500000*%
G04 #@! TD*
G04 #@! TA.AperFunction,SMDPad,CuDef*
%ADD13R,3.500000X3.000000*%
G04 #@! TD*
G04 #@! TA.AperFunction,SMDPad,CuDef*
%ADD14R,3.250000X3.000000*%
G04 #@! TD*
G04 #@! TA.AperFunction,SMDPad,CuDef*
%ADD15R,3.000000X3.050000*%
G04 #@! TD*
G04 #@! TA.AperFunction,ComponentPad*
%ADD16C,1.700000*%
G04 #@! TD*
G04 #@! TA.AperFunction,ComponentPad*
%ADD17O,1.700000X1.700000*%
G04 #@! TD*
G04 #@! TA.AperFunction,ComponentPad*
%ADD18R,1.700000X1.700000*%
G04 #@! TD*
G04 #@! TA.AperFunction,SMDPad,CuDef*
%ADD19R,3.000000X3.150000*%
G04 #@! TD*
G04 #@! TA.AperFunction,SMDPad,CuDef*
%ADD20RoundRect,0.150000X-0.150000X0.825000X-0.150000X-0.825000X0.150000X-0.825000X0.150000X0.825000X0*%
G04 #@! TD*
G04 #@! TA.AperFunction,ComponentPad*
%ADD21C,2.000000*%
G04 #@! TD*
G04 #@! TA.AperFunction,ViaPad*
%ADD22C,0.600000*%
G04 #@! TD*
G04 #@! TA.AperFunction,Conductor*
%ADD23C,0.200000*%
G04 #@! TD*
G04 #@! TA.AperFunction,Conductor*
%ADD24C,0.350000*%
G04 #@! TD*
G04 APERTURE END LIST*
D10*
X74773525Y-61733000D03*
X78223525Y-61733000D03*
D11*
X49873500Y-25308000D03*
D12*
X38323500Y-23133000D03*
D13*
X21173500Y-60483000D03*
D14*
X19098500Y-72383000D03*
D15*
X84523500Y-64108000D03*
D12*
X96423500Y-66533000D03*
X33523500Y-83733000D03*
X45423500Y-85933000D03*
D10*
X88200025Y-40133000D03*
X91650025Y-40133000D03*
X70100025Y-30533000D03*
X73550025Y-30533000D03*
X104073525Y-65033000D03*
X107523525Y-65033000D03*
X48600025Y-64233000D03*
X52050025Y-64233000D03*
X27600025Y-71733000D03*
X31050025Y-71733000D03*
D16*
X101373500Y-59033000D03*
D17*
X101373500Y-61573000D03*
X101373500Y-64113000D03*
X101373500Y-66653000D03*
D12*
X84523500Y-30358000D03*
X96423500Y-32558000D03*
D16*
X67373500Y-27933000D03*
D17*
X67373500Y-30473000D03*
X67373500Y-33013000D03*
X67373500Y-35553000D03*
D12*
X101523500Y-38533000D03*
X113423500Y-40733000D03*
D10*
X27790025Y-79303000D03*
X31240025Y-79303000D03*
D12*
X84223500Y-53833000D03*
X72323500Y-51633000D03*
D16*
X33373500Y-36038000D03*
D17*
X33373500Y-38578000D03*
X33373500Y-41118000D03*
X33373500Y-43658000D03*
D10*
X103900025Y-48633000D03*
X107350025Y-48633000D03*
D13*
X21173500Y-77483000D03*
D14*
X19098500Y-89383000D03*
D10*
X103900025Y-45833000D03*
X107350025Y-45833000D03*
D12*
X101523500Y-72533000D03*
X113423500Y-74733000D03*
X101523500Y-89533000D03*
X113423500Y-91733000D03*
D10*
X48600025Y-66533000D03*
X52050025Y-66533000D03*
D12*
X33223500Y-31133000D03*
X21323500Y-28933000D03*
X50223500Y-59333000D03*
X38323500Y-57133000D03*
D16*
X33373500Y-52733000D03*
D17*
X33373500Y-55273000D03*
X33373500Y-57813000D03*
X33373500Y-60353000D03*
D10*
X52073525Y-30633000D03*
X55523525Y-30633000D03*
D12*
X67223500Y-56933000D03*
X55323500Y-54733000D03*
X84223500Y-36833000D03*
X72323500Y-34633000D03*
D18*
X95773500Y-73573000D03*
D17*
X95773500Y-76113000D03*
X95773500Y-78653000D03*
X95773500Y-81193000D03*
X95773500Y-83733000D03*
X95773500Y-86273000D03*
X95773500Y-88813000D03*
D16*
X67373500Y-44993000D03*
D17*
X67373500Y-47533000D03*
X67373500Y-50073000D03*
X67373500Y-52613000D03*
D10*
X44600025Y-35333000D03*
X48050025Y-35333000D03*
X88200025Y-37333000D03*
X91650025Y-37333000D03*
D12*
X67223500Y-22933000D03*
X55323500Y-20733000D03*
X67223500Y-39933000D03*
X55323500Y-37733000D03*
D10*
X70100025Y-27733000D03*
X73550025Y-27733000D03*
D19*
X84223500Y-20008000D03*
D12*
X72323500Y-17633000D03*
X33223500Y-48133000D03*
X21323500Y-45933000D03*
D10*
X18100025Y-36333000D03*
X21550025Y-36333000D03*
X44600025Y-32033000D03*
X48050025Y-32033000D03*
X18226625Y-32933000D03*
X21676625Y-32933000D03*
X52073525Y-33533000D03*
X55523525Y-33533000D03*
X104073525Y-62033000D03*
X107523525Y-62033000D03*
X74673525Y-64133000D03*
X78123525Y-64133000D03*
X27573525Y-75133000D03*
X31023525Y-75133000D03*
D12*
X50223500Y-42333000D03*
X38323500Y-40133000D03*
X101523500Y-55533000D03*
X113423500Y-57733000D03*
X84523500Y-47358000D03*
X96423500Y-49558000D03*
D20*
X29228500Y-63658000D03*
X30498500Y-63658000D03*
X31768500Y-63658000D03*
X33038500Y-63658000D03*
X34308500Y-63658000D03*
X35578500Y-63658000D03*
X36848500Y-63658000D03*
X38118500Y-63658000D03*
X38118500Y-68608000D03*
X36848500Y-68608000D03*
X35578500Y-68608000D03*
X34308500Y-68608000D03*
X33038500Y-68608000D03*
X31768500Y-68608000D03*
X30498500Y-68608000D03*
X29228500Y-68608000D03*
D21*
X39363500Y-71933000D03*
X44363500Y-71933000D03*
X41863500Y-71933000D03*
D22*
X44600000Y-33013000D03*
X80996100Y-34384800D03*
X36121200Y-38578000D03*
X97763100Y-46233200D03*
X69653800Y-29313100D03*
X80996100Y-31422700D03*
X97763100Y-39518500D03*
X88200000Y-34384800D03*
X44600000Y-34329800D03*
X52073500Y-32411400D03*
X103900000Y-46815000D03*
X36121200Y-34359700D03*
X52324800Y-29345100D03*
X19329900Y-37818000D03*
X89826900Y-39518500D03*
X48050000Y-37200000D03*
X38323500Y-37200000D03*
X77837500Y-32037200D03*
X49163900Y-36553600D03*
X49163900Y-34800900D03*
X57134500Y-34800900D03*
X88291800Y-40933600D03*
X87082200Y-40309000D03*
X35118900Y-36558500D03*
X98923900Y-43271100D03*
X44600000Y-36558500D03*
X103900000Y-49892200D03*
X70100000Y-31861300D03*
X52073500Y-34800900D03*
X57134500Y-31830800D03*
X81256400Y-40309000D03*
X99676200Y-49892200D03*
X42927300Y-59052200D03*
X40361800Y-59052200D03*
X44412200Y-61213900D03*
X52050000Y-61518800D03*
X73300000Y-64773800D03*
X48600000Y-63141400D03*
X104073500Y-64041500D03*
X45769000Y-48840800D03*
X45071800Y-63141400D03*
X75889400Y-61861800D03*
X42221000Y-49442500D03*
X78185800Y-53967400D03*
X27600000Y-55119500D03*
X18100000Y-55119500D03*
X97788400Y-57250100D03*
X65482500Y-50244700D03*
X29869500Y-52733000D03*
X65482500Y-54169100D03*
X99772200Y-66653000D03*
X42221000Y-53013100D03*
X79720500Y-57250100D03*
X104073500Y-66653000D03*
X21559600Y-72700000D03*
X31050000Y-72700000D03*
X78223500Y-60637300D03*
X72319452Y-60507459D03*
X98364800Y-40309000D03*
X92876100Y-40309000D03*
X79500000Y-64773800D03*
X94380800Y-64696000D03*
X34300000Y-79300000D03*
X32700000Y-79300000D03*
X69977600Y-52700000D03*
X69977600Y-55735700D03*
X90118500Y-56563300D03*
X80996100Y-62486300D03*
X80996100Y-65233600D03*
X44598300Y-58081600D03*
X61289800Y-58775800D03*
X61289800Y-57108000D03*
X45142500Y-57108000D03*
X95120200Y-70584700D03*
X96128300Y-59177500D03*
X57107100Y-40984200D03*
X87360900Y-43405100D03*
X93962700Y-51381900D03*
X90929300Y-51381900D03*
X98967700Y-87259800D03*
X97931400Y-59177500D03*
X57335400Y-39543000D03*
X36848500Y-70497300D03*
X38006200Y-70497300D03*
X45947500Y-33880900D03*
X43921600Y-60101200D03*
X99337600Y-59192600D03*
X38946300Y-60229300D03*
X105297300Y-60346300D03*
X77278500Y-37066300D03*
X107763800Y-71677400D03*
X106498400Y-70412000D03*
X89944200Y-54152100D03*
X69824700Y-37066300D03*
X89944200Y-51292500D03*
X107763800Y-78937700D03*
X98846700Y-54152100D03*
X79700000Y-51292500D03*
X29228500Y-70431100D03*
X69425500Y-34085600D03*
X46854300Y-48339300D03*
X88473900Y-57890000D03*
X100127900Y-62470800D03*
X97329700Y-62470800D03*
X35153800Y-53811500D03*
X97034500Y-57890000D03*
X97730900Y-69295400D03*
X97730900Y-86273000D03*
X88473900Y-49767200D03*
X46854300Y-53811500D03*
X101292200Y-69295400D03*
X36255600Y-51279700D03*
X33223500Y-51279700D03*
X51927800Y-51287400D03*
X26650000Y-58964700D03*
X35643400Y-52392800D03*
X67223500Y-36954200D03*
X68792800Y-36954200D03*
X57134500Y-51087400D03*
X66209900Y-51087400D03*
X56758000Y-52392800D03*
X35452200Y-58964700D03*
X32429300Y-75854200D03*
X34343600Y-65333000D03*
X84223500Y-61239900D03*
X26400000Y-77500000D03*
X72048000Y-65219500D03*
X72048000Y-61260000D03*
X33673600Y-66062400D03*
X49559800Y-72495100D03*
X86077300Y-59843500D03*
X63368100Y-59548700D03*
X33673600Y-74324500D03*
X63368100Y-64977200D03*
X50070800Y-64793400D03*
X32382755Y-64942122D03*
X31768500Y-54084600D03*
X101523500Y-52008600D03*
X113423500Y-80540200D03*
X107131100Y-80540200D03*
X64555100Y-51952400D03*
X58266300Y-51952400D03*
X58266300Y-50446000D03*
X64555100Y-54770800D03*
X28050000Y-50100000D03*
X61685300Y-67858400D03*
X33038500Y-66967900D03*
X38118500Y-66967900D03*
X98354600Y-78679100D03*
X61685300Y-63731500D03*
X41863500Y-67858400D03*
X61970000Y-30473000D03*
X41863500Y-66967900D03*
X98354600Y-64013900D03*
X34943600Y-71933000D03*
X34943600Y-60353000D03*
X53155500Y-63912500D03*
X47347500Y-64007400D03*
X47347500Y-69930000D03*
X34308500Y-71152400D03*
X53708200Y-46364600D03*
X60701100Y-36378900D03*
X60701100Y-40358000D03*
X31119400Y-50646100D03*
X56033700Y-51224900D03*
X56033700Y-40358000D03*
X56101900Y-57915400D03*
X60680200Y-57915400D03*
X45438300Y-67073400D03*
X56101900Y-67073400D03*
X60680200Y-49608600D03*
X35578500Y-66280600D03*
X50672500Y-62783100D03*
X52649700Y-47347200D03*
X50672500Y-66365100D03*
X52405200Y-62783100D03*
D23*
X48050000Y-32033000D02*
X48050000Y-30450000D01*
X43250000Y-25650000D02*
X41000000Y-25650000D01*
X38483000Y-23133000D02*
X38323500Y-23133000D01*
X41000000Y-25650000D02*
X38483000Y-23133000D01*
X48050000Y-30450000D02*
X43250000Y-25650000D01*
X52073500Y-30633000D02*
X52073500Y-32411400D01*
X88200000Y-34384800D02*
X88200000Y-37709500D01*
X52073500Y-30633000D02*
X52073500Y-29856300D01*
X80996100Y-31422700D02*
X80996100Y-34384800D01*
X103900000Y-45833000D02*
X103900000Y-46815000D01*
X18226600Y-33709700D02*
X19329900Y-34813000D01*
X36121200Y-34359700D02*
X36121200Y-38578000D01*
X52073500Y-29856300D02*
X52324800Y-29605000D01*
X97763100Y-46233200D02*
X97763100Y-39518500D01*
X70100000Y-27733000D02*
X70100000Y-28509700D01*
X88200000Y-37709500D02*
X89826900Y-39336400D01*
X70100000Y-28509700D02*
X69653800Y-28955900D01*
X19329900Y-34813000D02*
X19329900Y-37818000D01*
X44600000Y-32033000D02*
X44600000Y-33013000D01*
X52324800Y-29605000D02*
X52324800Y-29345100D01*
X69653800Y-28955900D02*
X69653800Y-29313100D01*
X18226600Y-32933000D02*
X18226600Y-33709700D01*
X89826900Y-39336400D02*
X89826900Y-39518500D01*
X44600000Y-34329800D02*
X44600000Y-33013000D01*
X38323500Y-40133000D02*
X38323500Y-37200000D01*
X48050000Y-35333000D02*
X48050000Y-37200000D01*
X99676200Y-58491000D02*
X99676200Y-49892200D01*
X101085600Y-60421300D02*
X99939300Y-59275000D01*
X44600000Y-35333000D02*
X44600000Y-36558500D01*
X49163900Y-36553600D02*
X49163900Y-34800900D01*
X101373500Y-61573000D02*
X101373500Y-60421300D01*
X88291800Y-40933600D02*
X88200000Y-40841800D01*
X33373500Y-41033000D02*
X35118900Y-39287600D01*
X88200000Y-40841800D02*
X88200000Y-40133000D01*
X87298300Y-40133000D02*
X87122300Y-40309000D01*
X57134500Y-34800900D02*
X57134500Y-31830800D01*
X99939300Y-58754100D02*
X99676200Y-58491000D01*
X33373500Y-41118000D02*
X33373500Y-41033000D01*
X99939300Y-59275000D02*
X99939300Y-58754100D01*
X99676200Y-49892200D02*
X98923900Y-49139900D01*
X52073500Y-33533000D02*
X52073500Y-34800900D01*
X81256400Y-40309000D02*
X81256400Y-40193300D01*
X87122300Y-40309000D02*
X87082200Y-40309000D01*
X101373500Y-60421300D02*
X101085600Y-60421300D01*
X88200000Y-40133000D02*
X87298300Y-40133000D01*
X77837500Y-36774400D02*
X77837500Y-32037200D01*
X98923900Y-49139900D02*
X98923900Y-43271100D01*
X103900000Y-48633000D02*
X103900000Y-49892200D01*
X35118900Y-39287600D02*
X35118900Y-36558500D01*
X70100000Y-30533000D02*
X70100000Y-31861300D01*
X81256400Y-40193300D02*
X77837500Y-36774400D01*
X44412200Y-61213800D02*
X44125600Y-61213800D01*
X42927300Y-60015500D02*
X42927300Y-59052200D01*
X52050000Y-61518800D02*
X51803500Y-61765300D01*
X52050000Y-64233000D02*
X52050000Y-63456300D01*
X40242700Y-59052200D02*
X40361800Y-59052200D01*
X51803500Y-61765300D02*
X51803500Y-63209800D01*
X44125600Y-61213800D02*
X42927300Y-60015500D01*
X44412200Y-61213900D02*
X44412200Y-61213800D01*
X38323500Y-57133000D02*
X40242700Y-59052200D01*
X51803500Y-63209800D02*
X52050000Y-63456300D01*
X45071800Y-58459000D02*
X45769000Y-57761800D01*
X48600000Y-66533000D02*
X48600000Y-64233000D01*
X73300000Y-64773800D02*
X73940800Y-64133000D01*
X74773500Y-64033025D02*
X74773500Y-61733000D01*
X104073500Y-62033000D02*
X104073500Y-64041500D01*
X48600000Y-64233000D02*
X48600000Y-63141400D01*
X45071800Y-63141400D02*
X45071800Y-58459000D01*
X75760600Y-61733000D02*
X75889400Y-61861800D01*
X74773500Y-61733000D02*
X75760600Y-61733000D01*
X74673525Y-64133000D02*
X74773500Y-64033025D01*
X73940800Y-64133000D02*
X74673525Y-64133000D01*
X45769000Y-57761800D02*
X45769000Y-48840800D01*
X21323500Y-45933000D02*
X21550000Y-45706500D01*
X21550000Y-45706500D02*
X21550000Y-36333000D01*
X27600000Y-55002500D02*
X29869500Y-52733000D01*
X27600000Y-55119500D02*
X27600000Y-55002500D01*
X97788400Y-58183600D02*
X97788400Y-57250100D01*
X98533100Y-59238900D02*
X98533100Y-58928300D01*
X99526200Y-60232000D02*
X98533100Y-59238900D01*
X27573525Y-75133000D02*
X27600000Y-75106525D01*
X18100000Y-36333000D02*
X18100000Y-55119500D01*
X99526200Y-66407000D02*
X99526200Y-60232000D01*
X65482500Y-54169100D02*
X65482500Y-50244700D01*
X27790000Y-79303000D02*
X27790000Y-75349475D01*
X27600000Y-75106525D02*
X27600000Y-55119500D01*
X79720500Y-55502100D02*
X78185800Y-53967400D01*
X42221000Y-53013100D02*
X42221000Y-49442500D01*
X98533100Y-58928300D02*
X97788400Y-58183600D01*
X27790000Y-75349475D02*
X27573525Y-75133000D01*
X104073500Y-65033000D02*
X104073500Y-66653000D01*
X99772200Y-66653000D02*
X99526200Y-66407000D01*
X79720500Y-57250100D02*
X79720500Y-55502100D01*
X55323500Y-20733000D02*
X55323500Y-29656300D01*
X55523500Y-30633000D02*
X55523500Y-29856300D01*
X55323500Y-29656300D02*
X55523500Y-29856300D01*
X55323500Y-37733000D02*
X55323500Y-35681300D01*
X55523500Y-35481300D02*
X55523500Y-33533000D01*
X55323500Y-35681300D02*
X55523500Y-35481300D01*
X52162600Y-65756300D02*
X55323500Y-62595400D01*
X52050000Y-65756300D02*
X52162600Y-65756300D01*
X52050000Y-66533000D02*
X52050000Y-65756300D01*
X55323500Y-62595400D02*
X55323500Y-54733000D01*
X31050000Y-72700000D02*
X31050000Y-71733000D01*
X21559600Y-72700000D02*
X19290500Y-72700000D01*
X19290500Y-72700000D02*
X18973500Y-72383000D01*
X73550000Y-27733000D02*
X73550000Y-26956300D01*
X72323500Y-25729800D02*
X73550000Y-26956300D01*
X72323500Y-17633000D02*
X72323500Y-25729800D01*
X72323500Y-34633000D02*
X72323500Y-32536200D01*
X72323500Y-32536200D02*
X73550000Y-31309700D01*
X73550000Y-30533000D02*
X73550000Y-31309700D01*
X72323500Y-51633000D02*
X72323500Y-60503411D01*
X72323500Y-60503411D02*
X72319452Y-60507459D01*
X78223500Y-61733000D02*
X78223500Y-60637300D01*
X26350000Y-89400000D02*
X18990500Y-89400000D01*
X31023500Y-75909700D02*
X29950000Y-76983200D01*
X29950000Y-76983200D02*
X29950000Y-85800000D01*
X18990500Y-89400000D02*
X18973500Y-89383000D01*
X31023500Y-75133000D02*
X31023500Y-75909700D01*
X29950000Y-85800000D02*
X26350000Y-89400000D01*
X96423500Y-32558000D02*
X96423500Y-33461200D01*
X96423500Y-33461200D02*
X92551700Y-37333000D01*
X92551700Y-37333000D02*
X91650000Y-37333000D01*
X92551700Y-40133000D02*
X92700100Y-40133000D01*
X92700100Y-40133000D02*
X92876100Y-40309000D01*
X91650000Y-40133000D02*
X92551700Y-40133000D01*
X98322200Y-43520200D02*
X98364800Y-43562800D01*
X98364800Y-48635200D02*
X97442000Y-49558000D01*
X98322200Y-40351600D02*
X98322200Y-43520200D01*
X98364800Y-40309000D02*
X98322200Y-40351600D01*
X98364800Y-43562800D02*
X98364800Y-48635200D01*
X97442000Y-49558000D02*
X96423500Y-49558000D01*
X78859200Y-64133000D02*
X78123525Y-64133000D01*
X94586500Y-64696000D02*
X94380800Y-64696000D01*
X78123525Y-64133000D02*
X78123500Y-64133000D01*
X96423500Y-66533000D02*
X94586500Y-64696000D01*
X79500000Y-64773800D02*
X78859200Y-64133000D01*
X44173500Y-85933000D02*
X45423500Y-85933000D01*
X34300000Y-79300000D02*
X35600000Y-79300000D01*
X40923500Y-82683000D02*
X44173500Y-85933000D01*
X31240000Y-79303000D02*
X32697000Y-79303000D01*
X32697000Y-79303000D02*
X32700000Y-79300000D01*
X35600000Y-79300000D02*
X38983000Y-82683000D01*
X38983000Y-82683000D02*
X40923500Y-82683000D01*
X108251700Y-45833000D02*
X107350000Y-45833000D01*
X113423500Y-40733000D02*
X113351700Y-40733000D01*
X113351700Y-40733000D02*
X108251700Y-45833000D01*
X113150000Y-49800000D02*
X113150000Y-57459500D01*
X113150000Y-57459500D02*
X113423500Y-57733000D01*
X111983000Y-48633000D02*
X113150000Y-49800000D01*
X107350000Y-48633000D02*
X111983000Y-48633000D01*
X95773500Y-75753100D02*
X96942300Y-74584300D01*
X93836100Y-68433200D02*
X92179000Y-68433200D01*
X91062900Y-62798600D02*
X90118500Y-61854200D01*
X96942300Y-74584300D02*
X96942300Y-71539400D01*
X95773500Y-76113000D02*
X95773500Y-75753100D01*
X96942300Y-71539400D02*
X93836100Y-68433200D01*
X90118500Y-61854200D02*
X90118500Y-56563300D01*
X91062900Y-67317100D02*
X91062900Y-62798600D01*
X69977600Y-55735700D02*
X69977600Y-52700000D01*
X92179000Y-68433200D02*
X91062900Y-67317100D01*
X80996100Y-65233600D02*
X80996100Y-62486300D01*
X44598300Y-58081600D02*
X45142500Y-57537400D01*
X61289800Y-58775800D02*
X61289800Y-57108000D01*
X95773500Y-73573000D02*
X95773500Y-72421300D01*
X45142500Y-57537400D02*
X45142500Y-57108000D01*
X95120200Y-71768000D02*
X95120200Y-70584700D01*
X95773500Y-72421300D02*
X95120200Y-71768000D01*
X57107100Y-40984200D02*
X57335400Y-40755900D01*
X57335400Y-40755900D02*
X57335400Y-39543000D01*
X90929300Y-46973500D02*
X90929300Y-51381900D01*
X98967700Y-87259800D02*
X98967700Y-62059700D01*
X98967700Y-62059700D02*
X97931400Y-61023400D01*
X97931400Y-61023400D02*
X97931400Y-59177500D01*
X87360900Y-43405100D02*
X90929300Y-46973500D01*
X93962700Y-51381900D02*
X93962700Y-57011900D01*
X93962700Y-57011900D02*
X96128300Y-59177500D01*
D24*
X79700000Y-51292500D02*
X79700000Y-39487800D01*
X105297300Y-69210900D02*
X106498400Y-70412000D01*
X44996800Y-49298400D02*
X43921600Y-50373600D01*
X45947500Y-38319200D02*
X44996800Y-39269900D01*
X79700000Y-39487800D02*
X77278500Y-37066300D01*
X38946300Y-60229300D02*
X38946300Y-69557200D01*
X36848500Y-68608000D02*
X36848500Y-70497300D01*
X69824700Y-34484800D02*
X69425500Y-34085600D01*
X29228500Y-68608000D02*
X29228500Y-70431100D01*
X45947500Y-33880900D02*
X45947500Y-38319200D01*
X38946300Y-69557200D02*
X38006200Y-70497300D01*
X99337600Y-59058700D02*
X98846700Y-58567800D01*
X43921600Y-50373600D02*
X43921600Y-60101200D01*
X105297300Y-60346300D02*
X105297300Y-69210900D01*
X69824700Y-37066300D02*
X69824700Y-34484800D01*
X99337600Y-59192600D02*
X99337600Y-59058700D01*
X44996800Y-39269900D02*
X44996800Y-49298400D01*
X98846700Y-58567800D02*
X98846700Y-54152100D01*
X89944200Y-51292500D02*
X89944200Y-54152100D01*
X107763800Y-71677400D02*
X107763800Y-78937700D01*
D23*
X101750200Y-62843000D02*
X100500100Y-62843000D01*
X46854300Y-53811500D02*
X46854300Y-48339300D01*
X97730900Y-86273000D02*
X97730900Y-69295400D01*
X102540300Y-68047300D02*
X102540300Y-63633100D01*
X102540300Y-63633100D02*
X101750200Y-62843000D01*
X97329700Y-58185200D02*
X97034500Y-57890000D01*
X100500100Y-62843000D02*
X100127900Y-62470800D01*
X34525200Y-54440100D02*
X34525200Y-55273000D01*
X33373500Y-55273000D02*
X34525200Y-55273000D01*
X35153800Y-53811500D02*
X34525200Y-54440100D01*
X88473900Y-49767200D02*
X88473900Y-57890000D01*
X101292200Y-69295400D02*
X102540300Y-68047300D01*
X97329700Y-62470800D02*
X97329700Y-58185200D01*
X111915100Y-62033000D02*
X113423500Y-63541400D01*
X107523500Y-62033000D02*
X111915100Y-62033000D01*
X113423500Y-74733000D02*
X113423500Y-63541400D01*
X50223500Y-27734700D02*
X49873500Y-27384700D01*
X33223500Y-48133000D02*
X33223500Y-51279700D01*
X50223500Y-42333000D02*
X50223500Y-27734700D01*
X50223500Y-49583100D02*
X51927800Y-51287400D01*
X50223500Y-42333000D02*
X50223500Y-44384700D01*
X36848500Y-63658000D02*
X36255600Y-63065100D01*
X49873500Y-25308000D02*
X49873500Y-27384700D01*
X50223500Y-59333000D02*
X50223500Y-57281300D01*
X51927800Y-55577000D02*
X50223500Y-57281300D01*
X50223500Y-44384700D02*
X50223500Y-49583100D01*
X36255600Y-63065100D02*
X36255600Y-51279700D01*
X51927800Y-51287400D02*
X51927800Y-55577000D01*
X66209900Y-42998300D02*
X66209900Y-51087400D01*
X67223500Y-56933000D02*
X67223500Y-54881300D01*
X21173500Y-60483000D02*
X25131700Y-60483000D01*
X67223500Y-22933000D02*
X69025200Y-24734700D01*
X35755500Y-52504900D02*
X35643400Y-52392800D01*
X57134500Y-52016300D02*
X56758000Y-52392800D01*
X69025200Y-24734700D02*
X69025200Y-32019100D01*
X35452200Y-58964700D02*
X35578500Y-59091000D01*
X66209900Y-51087400D02*
X66209900Y-53867700D01*
X67223500Y-39933000D02*
X67223500Y-41984700D01*
X25131700Y-60483000D02*
X26650000Y-58964700D01*
X67223500Y-41984700D02*
X66209900Y-42998300D01*
X68792800Y-32251500D02*
X68792800Y-36954200D01*
X69025200Y-32019100D02*
X68792800Y-32251500D01*
X35578500Y-59091000D02*
X35578500Y-63658000D01*
X35452200Y-58964700D02*
X35755500Y-58661400D01*
X35755500Y-58661400D02*
X35755500Y-52504900D01*
X57134500Y-51087400D02*
X57134500Y-52016300D01*
X66209900Y-53867700D02*
X67223500Y-54881300D01*
X67223500Y-39933000D02*
X67223500Y-36954200D01*
X34343600Y-65310068D02*
X34343600Y-65333000D01*
X34343600Y-65333000D02*
X33488278Y-65333000D01*
X82682500Y-33240300D02*
X84223500Y-34781300D01*
X34308500Y-64598000D02*
X34308500Y-63658000D01*
X34323500Y-64613000D02*
X34308500Y-64598000D01*
X84223500Y-36833000D02*
X84223500Y-38884700D01*
X84223500Y-53833000D02*
X84223500Y-51781300D01*
X84223500Y-36833000D02*
X84223500Y-34781300D01*
X84223500Y-21884700D02*
X82682500Y-23425700D01*
X34323500Y-65312900D02*
X34323500Y-64613000D01*
X84223500Y-38884700D02*
X82694600Y-40413600D01*
X21173500Y-77483000D02*
X26383000Y-77483000D01*
X84223500Y-53833000D02*
X84223500Y-61239900D01*
X82694600Y-40413600D02*
X82694600Y-50252400D01*
X82694600Y-50252400D02*
X84223500Y-51781300D01*
X26383000Y-77483000D02*
X26400000Y-77500000D01*
X33488278Y-65333000D02*
X32429300Y-66391978D01*
X32429300Y-66391978D02*
X32429300Y-75854200D01*
X34343600Y-65333000D02*
X34323500Y-65312900D01*
X82682500Y-23425700D02*
X82682500Y-33240300D01*
X84223500Y-20008000D02*
X84223500Y-21884700D01*
X72048000Y-65219500D02*
X72048000Y-61260000D01*
X86077300Y-50963500D02*
X86077300Y-59843500D01*
X84523500Y-62028500D02*
X84523500Y-62281300D01*
X49559800Y-65304400D02*
X50070800Y-64793400D01*
X33523500Y-83733000D02*
X33673600Y-83582900D01*
X33673600Y-74324500D02*
X33673600Y-66062400D01*
X84523500Y-30358000D02*
X84523500Y-32409700D01*
X84523500Y-47358000D02*
X84523500Y-49409700D01*
X84523500Y-46814300D02*
X84523500Y-47358000D01*
X84523500Y-45306300D02*
X86029800Y-43800000D01*
X49559800Y-72495100D02*
X49559800Y-65304400D01*
X32382755Y-64786723D02*
X32397500Y-64771978D01*
X33673600Y-83582900D02*
X33673600Y-74324500D01*
X86029800Y-43800000D02*
X86029800Y-33916000D01*
X86077300Y-59843500D02*
X86077300Y-60474700D01*
X84523500Y-49409700D02*
X86077300Y-50963500D01*
X84523500Y-46814300D02*
X84523500Y-45306300D01*
X63368100Y-64977200D02*
X63368100Y-59548700D01*
X32382755Y-64942122D02*
X32382755Y-64786723D01*
X32397500Y-64299000D02*
X33038500Y-63658000D01*
X86077300Y-60474700D02*
X84523500Y-62028500D01*
X32397500Y-64771978D02*
X32397500Y-64299000D01*
X84523500Y-64108000D02*
X84523500Y-62281300D01*
X86029800Y-33916000D02*
X84523500Y-32409700D01*
X102942000Y-58876000D02*
X101650700Y-57584700D01*
X101523500Y-72533000D02*
X101523500Y-70481300D01*
X101650700Y-57584700D02*
X101523500Y-57584700D01*
X101523500Y-72533000D02*
X101523500Y-73383000D01*
X99543300Y-46298400D02*
X101523500Y-48278600D01*
X99543300Y-40513200D02*
X99543300Y-46298400D01*
X101523500Y-70481300D02*
X102942000Y-69062800D01*
X101523500Y-38533000D02*
X99543300Y-40513200D01*
X102942000Y-69062800D02*
X102942000Y-58876000D01*
X101523500Y-55533000D02*
X101523500Y-52008600D01*
X101523500Y-55533000D02*
X101523500Y-57584700D01*
X104056600Y-86999900D02*
X101523500Y-89533000D01*
X104056600Y-75916100D02*
X104056600Y-86999900D01*
X101523500Y-48278600D02*
X101523500Y-52008600D01*
X31768500Y-63658000D02*
X31768500Y-54084600D01*
X101523500Y-73383000D02*
X104056600Y-75916100D01*
X107131100Y-66202100D02*
X107131100Y-80540200D01*
X107523500Y-65033000D02*
X107523500Y-65809700D01*
X107523500Y-65809700D02*
X107131100Y-66202100D01*
X113423500Y-91733000D02*
X113423500Y-80540200D01*
X21323500Y-32579900D02*
X21676600Y-32933000D01*
X21323500Y-28933000D02*
X21323500Y-32579900D01*
X28233700Y-50100000D02*
X30498500Y-52364800D01*
X33123500Y-31133000D02*
X33223500Y-31133000D01*
X28050000Y-50100000D02*
X28049400Y-50099400D01*
X58266300Y-51952400D02*
X58266300Y-50446000D01*
X28049400Y-50099400D02*
X28049400Y-36207100D01*
X28050000Y-50100000D02*
X28233700Y-50100000D01*
X28049400Y-36207100D02*
X33123500Y-31133000D01*
X64555100Y-51952400D02*
X64555100Y-54770800D01*
X30498500Y-52364800D02*
X30498500Y-63658000D01*
D24*
X98410800Y-78622900D02*
X98410800Y-64070100D01*
X98410800Y-64070100D02*
X98354600Y-64013900D01*
X38118500Y-63658000D02*
X38118500Y-66967900D01*
X41863500Y-71933000D02*
X41863500Y-67858400D01*
X33038500Y-68608000D02*
X33038500Y-66967900D01*
X41863500Y-67858400D02*
X41863500Y-66967900D01*
X61685300Y-67858400D02*
X61685300Y-63731500D01*
X98354600Y-78679100D02*
X98410800Y-78622900D01*
X61685300Y-63731500D02*
X61970000Y-63446800D01*
X61970000Y-63446800D02*
X61970000Y-30473000D01*
D23*
X34943600Y-71933000D02*
X34943600Y-60353000D01*
X53155500Y-50424800D02*
X53051400Y-50320700D01*
X53051400Y-47798300D02*
X53708200Y-47141500D01*
X47347500Y-64007400D02*
X47347500Y-69930000D01*
X34308500Y-68608000D02*
X34308500Y-71152400D01*
X53708200Y-47141500D02*
X53708200Y-46364600D01*
X53051400Y-50320700D02*
X53051400Y-47798300D01*
X53155500Y-63912500D02*
X53155500Y-50424800D01*
X60701100Y-36378900D02*
X60701100Y-40358000D01*
X56033700Y-40358000D02*
X56033700Y-51224900D01*
X31768500Y-68608000D02*
X31119400Y-67958900D01*
X31119400Y-67958900D02*
X31119400Y-50646100D01*
X60680200Y-57915400D02*
X60680200Y-49608600D01*
X56101900Y-67073400D02*
X56101900Y-57915400D01*
X45438300Y-70858200D02*
X45438300Y-67073400D01*
X44363500Y-71933000D02*
X45438300Y-70858200D01*
X52649700Y-50687200D02*
X52649700Y-47347200D01*
X52699700Y-50737200D02*
X52649700Y-50687200D01*
X50672500Y-66365100D02*
X50672500Y-62783100D01*
X52699700Y-62488600D02*
X52699700Y-50737200D01*
X52405200Y-62783100D02*
X52699700Y-62488600D01*
X35578500Y-68608000D02*
X35578500Y-66280600D01*
M02*
