M48
; DRILL file {KiCad 9.0.0} date 2025-03-30T21:59:10+0900
; FORMAT={-:-/ absolute / metric / decimal}
; #@! TF.CreationDate,2025-03-30T21:59:10+09:00
; #@! TF.GenerationSoftware,Kicad,Pcbnew,9.0.0
; #@! TF.FileFunction,Plated,1,2,PTH
FMAT,2
METRIC
; #@! TA.AperFunction,Plated,PTH,ViaDrill
T1C0.300
; #@! TA.AperFunction,Plated,PTH,ComponentDrill
T2C1.000
%
G90
G05
T1
X18.1Y-55.119
X19.33Y-37.818
X21.56Y-72.7
X26.4Y-77.5
X26.65Y-58.965
X27.6Y-55.119
X28.05Y-50.1
X29.229Y-70.431
X29.869Y-52.733
X31.05Y-72.7
X31.119Y-50.646
X31.768Y-54.085
X32.383Y-64.942
X32.429Y-75.854
X32.7Y-79.3
X33.038Y-66.968
X33.224Y-51.28
X33.674Y-66.062
X33.674Y-74.325
X34.3Y-79.3
X34.308Y-71.152
X34.344Y-65.333
X34.944Y-60.353
X34.944Y-71.933
X35.119Y-36.558
X35.154Y-53.811
X35.452Y-58.965
X35.578Y-66.281
X35.643Y-52.393
X36.121Y-34.36
X36.121Y-38.578
X36.256Y-51.28
X36.849Y-70.497
X38.006Y-70.497
X38.118Y-66.968
X38.323Y-37.2
X38.946Y-60.229
X40.362Y-59.052
X41.863Y-66.968
X41.863Y-67.858
X42.221Y-49.442
X42.221Y-53.013
X42.927Y-59.052
X43.922Y-60.101
X44.412Y-61.214
X44.598Y-58.082
X44.6Y-33.013
X44.6Y-34.33
X44.6Y-36.558
X45.072Y-63.141
X45.142Y-57.108
X45.438Y-67.073
X45.769Y-48.841
X45.947Y-33.881
X46.854Y-48.339
X46.854Y-53.811
X47.347Y-64.007
X47.347Y-69.93
X48.05Y-37.2
X48.6Y-63.141
X49.164Y-34.801
X49.164Y-36.554
X49.56Y-72.495
X50.071Y-64.793
X50.672Y-62.783
X50.672Y-66.365
X51.928Y-51.287
X52.05Y-61.519
X52.073Y-32.411
X52.073Y-34.801
X52.325Y-29.345
X52.405Y-62.783
X52.65Y-47.347
X53.155Y-63.912
X53.708Y-46.365
X56.034Y-40.358
X56.034Y-51.225
X56.102Y-57.915
X56.102Y-67.073
X56.758Y-52.393
X57.107Y-40.984
X57.134Y-31.831
X57.134Y-34.801
X57.134Y-51.087
X57.335Y-39.543
X58.266Y-50.446
X58.266Y-51.952
X60.68Y-49.609
X60.68Y-57.915
X60.701Y-36.379
X60.701Y-40.358
X61.29Y-57.108
X61.29Y-58.776
X61.685Y-63.731
X61.685Y-67.858
X61.97Y-30.473
X63.368Y-59.549
X63.368Y-64.977
X64.555Y-51.952
X64.555Y-54.771
X65.483Y-50.245
X65.483Y-54.169
X66.21Y-51.087
X67.224Y-36.954
X68.793Y-36.954
X69.425Y-34.086
X69.654Y-29.313
X69.825Y-37.066
X69.978Y-52.7
X69.978Y-55.736
X70.1Y-31.861
X72.048Y-61.26
X72.048Y-65.219
X72.319Y-60.507
X73.3Y-64.774
X75.889Y-61.862
X77.278Y-37.066
X77.837Y-32.037
X78.186Y-53.967
X78.224Y-60.637
X79.5Y-64.774
X79.7Y-51.292
X79.721Y-57.25
X80.996Y-31.423
X80.996Y-34.385
X80.996Y-62.486
X80.996Y-65.234
X81.256Y-40.309
X84.224Y-61.24
X86.077Y-59.843
X87.082Y-40.309
X87.361Y-43.405
X88.2Y-34.385
X88.292Y-40.934
X88.474Y-49.767
X88.474Y-57.89
X89.827Y-39.518
X89.944Y-51.292
X89.944Y-54.152
X90.118Y-56.563
X90.929Y-51.382
X92.876Y-40.309
X93.963Y-51.382
X94.381Y-64.696
X95.12Y-70.585
X96.128Y-59.177
X97.034Y-57.89
X97.33Y-62.471
X97.731Y-69.295
X97.731Y-86.273
X97.763Y-39.518
X97.763Y-46.233
X97.788Y-57.25
X97.931Y-59.177
X98.355Y-64.014
X98.355Y-78.679
X98.365Y-40.309
X98.847Y-54.152
X98.924Y-43.271
X98.968Y-87.26
X99.338Y-59.193
X99.676Y-49.892
X99.772Y-66.653
X100.128Y-62.471
X101.292Y-69.295
X101.523Y-52.009
X103.9Y-46.815
X103.9Y-49.892
X104.073Y-64.041
X104.073Y-66.653
X105.297Y-60.346
X106.498Y-70.412
X107.131Y-80.54
X107.764Y-71.677
X107.764Y-78.938
X113.423Y-80.54
T2
X33.373Y-36.038
X33.373Y-38.578
X33.373Y-41.118
X33.373Y-43.658
X33.373Y-52.733
X33.373Y-55.273
X33.373Y-57.813
X33.373Y-60.353
X39.363Y-71.933
X41.863Y-71.933
X44.363Y-71.933
X67.373Y-27.933
X67.373Y-30.473
X67.373Y-33.013
X67.373Y-35.553
X67.373Y-44.993
X67.373Y-47.533
X67.373Y-50.073
X67.373Y-52.613
X95.773Y-73.573
X95.773Y-76.113
X95.773Y-78.653
X95.773Y-81.193
X95.773Y-83.733
X95.773Y-86.273
X95.773Y-88.813
X101.373Y-59.033
X101.373Y-61.573
X101.373Y-64.113
X101.373Y-66.653
M30
