M48
; DRILL file {KiCad 9.0.0} date 2025-04-21T18:55:11+0900
; FORMAT={-:-/ absolute / metric / decimal}
; #@! TF.CreationDate,2025-04-21T18:55:11+09:00
; #@! TF.GenerationSoftware,Kicad,Pcbnew,9.0.0
; #@! TF.FileFunction,Plated,1,2,PTH
FMAT,2
METRIC
; #@! TA.AperFunction,Plated,PTH,ViaDrill
T1C0.300
; #@! TA.AperFunction,Plated,PTH,ComponentDrill
T2C1.000
%
G90
G05
T1
X105.85Y-73.041
X106.1Y-71.75
X106.125Y-29.426
X112.465Y-47.834
X113.273Y-67.79
X115.65Y-65.653
X115.65Y-71.8
X116.006Y-48.646
X117.95Y-73.041
X119.05Y-32.5
X120.009Y-57.002
X120.356Y-33.052
X120.672Y-50.02
X120.691Y-58.1
X121.235Y-31.955
X122.731Y-82.2
X122.85Y-64.829
X123.05Y-30.35
X123.125Y-35.75
X123.589Y-65.653
X129.1Y-57.002
X129.306Y-59.032
X129.306Y-73.714
X129.665Y-29.572
X130.33Y-30.35
X131.658Y-64.829
X132.45Y-31.3
X132.45Y-35.749
X132.95Y-26.657
X134.5Y-33.7
X135.166Y-38.23
X136.752Y-49.249
X136.752Y-49.249
X137.1Y-27.9
X137.428Y-50.911
X138.104Y-50.02
X138.104Y-59.032
X138.26Y-47.834
X139.2Y-32.0
X140.197Y-26.657
X140.546Y-55.281
X140.546Y-65.005
X141.148Y-45.032
X141.148Y-48.646
X141.85Y-32.752
X143.066Y-37.931
X144.753Y-52.95
X144.753Y-55.281
X146.193Y-26.963
X147.011Y-51.359
X147.075Y-44.187
X147.077Y-41.135
X147.862Y-41.757
X147.862Y-45.032
X150.02Y-50.02
X150.4Y-38.679
X152.1Y-37.959
X153.85Y-44.187
X154.304Y-30.524
X154.383Y-28.75
X154.413Y-26.85
X154.644Y-38.679
X154.745Y-34.142
X154.773Y-42.679
X155.651Y-62.674
X156.131Y-46.702
X156.451Y-51.688
X156.451Y-60.398
X158.927Y-47.772
X162.215Y-35.698
X162.317Y-52.083
X162.376Y-41.755
X164.648Y-46.702
X164.648Y-49.536
X164.648Y-55.944
X165.498Y-42.679
X165.498Y-48.904
X165.72Y-54.881
X166.147Y-41.135
X166.923Y-50.173
X166.949Y-46.114
X167.913Y-53.565
X169.963Y-43.214
X171.254Y-29.857
X171.509Y-35.212
X172.4Y-53.285
X172.4Y-59.53
X173.026Y-41.755
X174.28Y-47.304
X174.531Y-55.944
X175.341Y-44.36
X175.829Y-54.109
X176.407Y-55.536
X178.88Y-49.141
X179.701Y-32.759
X179.758Y-56.349
X180.359Y-54.934
X180.471Y-60.945
X181.023Y-45.251
X181.656Y-66.324
X181.8Y-58.288
X183.4Y-35.212
X184.124Y-50.173
X184.124Y-64.52
X184.443Y-84.14
X184.639Y-65.804
X184.734Y-55.536
X184.812Y-60.945
X185.642Y-38.752
X185.65Y-44.36
X186.8Y-33.366
X187.583Y-49.37
X187.997Y-45.251
X191.523Y-64.55
X198.075Y-58.288
T2
X118.0Y-77.2
X118.0Y-79.7
X118.0Y-82.2
X118.1Y-33.905
X118.1Y-36.445
X118.1Y-38.985
X118.1Y-41.525
X118.1Y-50.6
X118.1Y-53.14
X118.1Y-55.68
X118.1Y-58.22
X152.1Y-25.8
X152.1Y-28.34
X152.1Y-30.88
X152.1Y-33.42
X152.1Y-42.86
X152.1Y-45.4
X152.1Y-47.94
X152.1Y-50.48
X180.5Y-71.44
X180.5Y-73.98
X180.5Y-76.52
X180.5Y-79.06
X180.5Y-81.6
X180.5Y-84.14
X180.5Y-86.68
X186.1Y-56.9
X186.1Y-59.44
X186.1Y-61.98
X186.1Y-64.52
M30
