G04 #@! TF.GenerationSoftware,KiCad,Pcbnew,9.0.0*
G04 #@! TF.CreationDate,2025-04-21T18:55:09+09:00*
G04 #@! TF.ProjectId,nofy_V2_R,6e6f6679-5f56-4325-9f52-2e6b69636164,rev?*
G04 #@! TF.SameCoordinates,Original*
G04 #@! TF.FileFunction,Copper,L2,Bot*
G04 #@! TF.FilePolarity,Positive*
%FSLAX46Y46*%
G04 Gerber Fmt 4.6, Leading zero omitted, Abs format (unit mm)*
G04 Created by KiCad (PCBNEW 9.0.0) date 2025-04-21 18:55:09*
%MOMM*%
%LPD*%
G01*
G04 APERTURE LIST*
G04 #@! TA.AperFunction,SMDPad,CuDef*
%ADD10R,1.200000X0.950000*%
G04 #@! TD*
G04 #@! TA.AperFunction,SMDPad,CuDef*
%ADD11R,3.000000X2.800000*%
G04 #@! TD*
G04 #@! TA.AperFunction,SMDPad,CuDef*
%ADD12R,2.850000X2.750000*%
G04 #@! TD*
G04 #@! TA.AperFunction,ComponentPad*
%ADD13C,1.700000*%
G04 #@! TD*
G04 #@! TA.AperFunction,ComponentPad*
%ADD14O,1.700000X1.700000*%
G04 #@! TD*
G04 #@! TA.AperFunction,ComponentPad*
%ADD15R,1.700000X1.700000*%
G04 #@! TD*
G04 #@! TA.AperFunction,SMDPad,CuDef*
%ADD16R,2.800000X3.000000*%
G04 #@! TD*
G04 #@! TA.AperFunction,SMDPad,CuDef*
%ADD17R,2.750000X2.850000*%
G04 #@! TD*
G04 #@! TA.AperFunction,ComponentPad*
%ADD18C,2.000000*%
G04 #@! TD*
G04 #@! TA.AperFunction,ViaPad*
%ADD19C,0.600000*%
G04 #@! TD*
G04 #@! TA.AperFunction,Conductor*
%ADD20C,0.200000*%
G04 #@! TD*
G04 #@! TA.AperFunction,Conductor*
%ADD21C,0.330000*%
G04 #@! TD*
G04 APERTURE END LIST*
D10*
X172400025Y-51650000D03*
X175850025Y-51650000D03*
X141850025Y-27900000D03*
X145300025Y-27900000D03*
X144753125Y-54050000D03*
X148203125Y-54050000D03*
D11*
X134950000Y-57150000D03*
D12*
X123125000Y-55025000D03*
D11*
X168950000Y-51650000D03*
D12*
X157125000Y-49525000D03*
D11*
X169250000Y-45250000D03*
D12*
X181075000Y-47375000D03*
D10*
X150400025Y-37550000D03*
X153850025Y-37550000D03*
D13*
X186100000Y-56900000D03*
D14*
X186100000Y-59440000D03*
X186100000Y-61980000D03*
X186100000Y-64520000D03*
D11*
X117950000Y-62950000D03*
D12*
X106125000Y-60825000D03*
D10*
X112200025Y-70550000D03*
X115650025Y-70550000D03*
X185650025Y-49250000D03*
X189100025Y-49250000D03*
D11*
X168950000Y-34650000D03*
D12*
X157125000Y-32525000D03*
D11*
X135250000Y-45250000D03*
D12*
X147075000Y-47375000D03*
D13*
X152100000Y-25800000D03*
D14*
X152100000Y-28340000D03*
X152100000Y-30880000D03*
X152100000Y-33420000D03*
D10*
X150400025Y-39700000D03*
X153850025Y-39700000D03*
X135899975Y-34750000D03*
X132449975Y-34750000D03*
D11*
X168950000Y-17650000D03*
D12*
X157125000Y-15525000D03*
D10*
X141850025Y-31750000D03*
X145300025Y-31750000D03*
X135899975Y-30250000D03*
X132449975Y-30250000D03*
X188200025Y-79250000D03*
X191650025Y-79250000D03*
X185649925Y-47250000D03*
X189099925Y-47250000D03*
X155750025Y-29250000D03*
X159200025Y-29250000D03*
D13*
X118100000Y-33905000D03*
D14*
X118100000Y-36445000D03*
X118100000Y-38985000D03*
X118100000Y-41525000D03*
D10*
X135900075Y-27900000D03*
X132450075Y-27900000D03*
X158926525Y-45400000D03*
X162376525Y-45400000D03*
D11*
X117950000Y-45950000D03*
D12*
X106125000Y-43825000D03*
D11*
X117950000Y-28950000D03*
D12*
X106125000Y-26825000D03*
D11*
X186250000Y-36450000D03*
D12*
X198075000Y-38575000D03*
D10*
X153850025Y-35700000D03*
X157300025Y-35700000D03*
X141850025Y-33750000D03*
X145300025Y-33750000D03*
D13*
X118100000Y-50600000D03*
D14*
X118100000Y-53140000D03*
X118100000Y-55680000D03*
X118100000Y-58220000D03*
D10*
X141850025Y-35700000D03*
X145300025Y-35700000D03*
X186800025Y-30850000D03*
X190250025Y-30850000D03*
D11*
X134950000Y-23125000D03*
D12*
X123125000Y-21000000D03*
D11*
X186250000Y-53450000D03*
D12*
X198075000Y-55575000D03*
D10*
X112300025Y-79400000D03*
X115750025Y-79400000D03*
D15*
X180500000Y-71440000D03*
D14*
X180500000Y-73980000D03*
X180500000Y-76520000D03*
X180500000Y-79060000D03*
X180500000Y-81600000D03*
X180500000Y-84140000D03*
X180500000Y-86680000D03*
D13*
X152100000Y-42860000D03*
D14*
X152100000Y-45400000D03*
X152100000Y-47940000D03*
X152100000Y-50480000D03*
D16*
X122850000Y-69550000D03*
D17*
X120725000Y-81375000D03*
D11*
X134950000Y-40150000D03*
D12*
X123125000Y-38025000D03*
D11*
X186250000Y-70450000D03*
D12*
X198075000Y-72575000D03*
D10*
X185650025Y-45400000D03*
X189100025Y-45400000D03*
D11*
X169250000Y-28250000D03*
D12*
X181075000Y-30375000D03*
D11*
X169250000Y-62250000D03*
D12*
X181075000Y-64375000D03*
D10*
X178350025Y-51650000D03*
X181800025Y-51650000D03*
X112200025Y-72950000D03*
X115650025Y-72950000D03*
X155750025Y-26850000D03*
X159200025Y-26850000D03*
X186800025Y-28750000D03*
X190250025Y-28750000D03*
X135899975Y-32600000D03*
X132449975Y-32600000D03*
D11*
X151950000Y-20750000D03*
D12*
X140125000Y-18625000D03*
D11*
X135250000Y-62250000D03*
D12*
X147075000Y-64375000D03*
D10*
X112300025Y-81500000D03*
X115750025Y-81500000D03*
D11*
X186250000Y-87450000D03*
D12*
X198075000Y-89575000D03*
D10*
X141850025Y-29850000D03*
X145300025Y-29850000D03*
X178350025Y-53850000D03*
X181800025Y-53850000D03*
X144753125Y-51600000D03*
X148203125Y-51600000D03*
D16*
X105850000Y-75350000D03*
D17*
X103725000Y-87175000D03*
D10*
X141850025Y-37700000D03*
X145300025Y-37700000D03*
D18*
X118000000Y-82200000D03*
X118000000Y-77200000D03*
X118000000Y-79700000D03*
D19*
X155651000Y-62673900D03*
X181655700Y-66324400D03*
X164648300Y-55943600D03*
X162317200Y-52083200D03*
X174531400Y-55943600D03*
X180359500Y-54933900D03*
X165720200Y-54881000D03*
X184811600Y-60944800D03*
X180471400Y-60944800D03*
X162215200Y-35698300D03*
X171509100Y-35211700D03*
X183399900Y-35211700D03*
X171254500Y-29857200D03*
X156450800Y-60398300D03*
X184443400Y-84140000D03*
X184638765Y-65803765D03*
X156450800Y-51688000D03*
X120008600Y-57001600D03*
X154304000Y-30523900D03*
X129100000Y-57001600D03*
X129665100Y-29572100D03*
X179701100Y-32759200D03*
X120691000Y-58100000D03*
X122731300Y-82200000D03*
X129306500Y-73713800D03*
X138103800Y-59032100D03*
X129306500Y-59032100D03*
X150019800Y-50020200D03*
X138103800Y-50020200D03*
X187997400Y-45251300D03*
X181023300Y-45251300D03*
X112464800Y-47834400D03*
X138259600Y-47834400D03*
X147011100Y-51359400D03*
X137427800Y-50910600D03*
X147075000Y-44187400D03*
X153850000Y-44187400D03*
X115650000Y-71800000D03*
X106100000Y-71750000D03*
X123125000Y-35750000D03*
X132450000Y-35748600D03*
X123589300Y-65653300D03*
X115650000Y-65653300D03*
X132950000Y-26657000D03*
X140196700Y-26657000D03*
X164648300Y-46702000D03*
X156130900Y-46702000D03*
X164648300Y-49535900D03*
X187583300Y-49369700D03*
X123050000Y-30350000D03*
X130330100Y-30350000D03*
X132450000Y-31300000D03*
X106125000Y-29425900D03*
X181800000Y-58288300D03*
X198075000Y-58288300D03*
X186800000Y-33366400D03*
X154744700Y-34141700D03*
X147862300Y-41757300D03*
X141148000Y-45032500D03*
X141148000Y-48646400D03*
X185650000Y-44359600D03*
X175341100Y-44359600D03*
X116005700Y-48646400D03*
X173025800Y-41755000D03*
X162376500Y-41755000D03*
X147862300Y-45032500D03*
X175829015Y-54108885D03*
X140546300Y-55281400D03*
X140546300Y-65004800D03*
X113273100Y-67790400D03*
X144753100Y-52950000D03*
X144753100Y-55281400D03*
X137100000Y-27900000D03*
X154412600Y-26850000D03*
X146193200Y-26962600D03*
X147076600Y-41135100D03*
X166922700Y-50173100D03*
X166147500Y-41135100D03*
X184123700Y-64520000D03*
X191522700Y-64550000D03*
X184123700Y-50173100D03*
X120356500Y-33052400D03*
X141850000Y-32751500D03*
X105850000Y-73041500D03*
X154382700Y-28750000D03*
X121235200Y-31955100D03*
X117950000Y-73041500D03*
X179757800Y-56349200D03*
X150400000Y-38679400D03*
X154644500Y-38679400D03*
X165497900Y-42679500D03*
X154773000Y-42679500D03*
X135166300Y-38230300D03*
X178879700Y-49140800D03*
X165497900Y-48904500D03*
X122850000Y-64828700D03*
X131658200Y-64828700D03*
X158926500Y-47772400D03*
X136751700Y-49248600D03*
X120671800Y-50020200D03*
X136751700Y-49248600D03*
X184734200Y-55535600D03*
X176407200Y-55535600D03*
X174279700Y-47303700D03*
X167913400Y-53564600D03*
X172400000Y-59530300D03*
X172400000Y-53284900D03*
X166948900Y-46113800D03*
X169963400Y-43214200D03*
X139200000Y-32000000D03*
X143066085Y-37931485D03*
X152100000Y-37958800D03*
X119050000Y-32500000D03*
X134500000Y-33700000D03*
X185642000Y-38752100D03*
D20*
X155651000Y-62673900D02*
X155651000Y-55182700D01*
X181655700Y-72464400D02*
X181655700Y-66324400D01*
X152100000Y-50480000D02*
X152100000Y-51631700D01*
X155651000Y-55182700D02*
X152100000Y-51631700D01*
X180500000Y-73980000D02*
X180500000Y-73620100D01*
X180500000Y-73620100D02*
X181655700Y-72464400D01*
X164648300Y-55943600D02*
X164648300Y-54414300D01*
X164648300Y-54414300D02*
X162317200Y-52083200D01*
X174531400Y-63881400D02*
X174531400Y-55943600D01*
X178801100Y-66486500D02*
X177136500Y-66486500D01*
X180500000Y-71440000D02*
X180500000Y-68185400D01*
X180500000Y-68185400D02*
X178801100Y-66486500D01*
X177136500Y-66486500D02*
X174531400Y-63881400D01*
X184811600Y-60944800D02*
X184811600Y-64782400D01*
X163405500Y-36888600D02*
X162215200Y-35698300D01*
X184035100Y-82281100D02*
X180500000Y-85816200D01*
X163405500Y-52566300D02*
X163405500Y-36888600D01*
X180359500Y-54933900D02*
X180471400Y-55045800D01*
X165720200Y-54881000D02*
X163405500Y-52566300D01*
X184811600Y-64782400D02*
X184035100Y-65558900D01*
X184035100Y-65558900D02*
X184035100Y-82281100D01*
X180500000Y-85816200D02*
X180500000Y-86680000D01*
X180471400Y-55045800D02*
X180471400Y-60944800D01*
D21*
X171509100Y-30111800D02*
X171254500Y-29857200D01*
X180500000Y-79060000D02*
X183399900Y-76160100D01*
X183399900Y-76160100D02*
X183399900Y-35211700D01*
X171509100Y-35211700D02*
X171509100Y-30111800D01*
D20*
X184638765Y-65806035D02*
X184443400Y-66001400D01*
X184638765Y-65803765D02*
X184638765Y-65806035D01*
X184443400Y-66001400D02*
X184443400Y-84140000D01*
X156450800Y-60398300D02*
X156450800Y-51688000D01*
D21*
X152120100Y-28340000D02*
X154304000Y-30523900D01*
X182868200Y-35926300D02*
X179701100Y-32759200D01*
X116586100Y-78286100D02*
X116586100Y-76181200D01*
X116586100Y-76181200D02*
X120008600Y-72758700D01*
X152100000Y-28340000D02*
X152120100Y-28340000D01*
X129100000Y-57001600D02*
X129665100Y-56436500D01*
X129665100Y-56436500D02*
X129665100Y-29572100D01*
X180500000Y-76520000D02*
X180830000Y-76520000D01*
X180830000Y-76520000D02*
X182868200Y-74481800D01*
X118000000Y-79700000D02*
X116586100Y-78286100D01*
X182868200Y-74481800D02*
X182868200Y-35926300D01*
X120008600Y-72758700D02*
X120008600Y-57001600D01*
D20*
X120691000Y-73422300D02*
X122731300Y-75462600D01*
X122731300Y-75462600D02*
X122731300Y-82200000D01*
X120691000Y-58100000D02*
X120691000Y-73422300D01*
X152100000Y-47940000D02*
X150948300Y-47940000D01*
X129306500Y-73713800D02*
X129306500Y-59032100D01*
X138103800Y-50020200D02*
X138103800Y-59032100D01*
X150948300Y-47940000D02*
X150948300Y-49091700D01*
X150948300Y-49091700D02*
X150019800Y-50020200D01*
X189300000Y-27750000D02*
X190250000Y-28700000D01*
X182850000Y-27750000D02*
X189300000Y-27750000D01*
X181075000Y-29525000D02*
X182850000Y-27750000D01*
X190250000Y-28700000D02*
X190250000Y-28750000D01*
X181075000Y-30375000D02*
X181075000Y-29525000D01*
X180870800Y-53258800D02*
X180870800Y-54594300D01*
X181800025Y-51650000D02*
X181800025Y-52329575D01*
X181075000Y-54798500D02*
X181075000Y-64375000D01*
X180870800Y-54594300D02*
X181075000Y-54798500D01*
X181800000Y-51650000D02*
X181800025Y-51650000D01*
X181800025Y-52329575D02*
X180870800Y-53258800D01*
X188049600Y-45251300D02*
X188198300Y-45400000D01*
X181075000Y-45698300D02*
X181023300Y-45646600D01*
X187997400Y-45251300D02*
X188049600Y-45251300D01*
X181023300Y-45646600D02*
X181023300Y-45251300D01*
X181075000Y-47375000D02*
X181075000Y-45698300D01*
X189100000Y-45400000D02*
X188198300Y-45400000D01*
X147011100Y-51359400D02*
X147060800Y-51359400D01*
X148203100Y-51600000D02*
X147301400Y-51600000D01*
X137427800Y-50910600D02*
X137427800Y-49825900D01*
X147060800Y-51359400D02*
X147301400Y-51600000D01*
X106125000Y-45501700D02*
X107526900Y-46903600D01*
X111534000Y-46903600D02*
X112464800Y-47834400D01*
X107526900Y-46903600D02*
X111534000Y-46903600D01*
X138259600Y-48994100D02*
X138259600Y-47834400D01*
X106125000Y-43825000D02*
X106125000Y-45501700D01*
X137427800Y-49825900D02*
X138259600Y-48994100D01*
X147075000Y-44187400D02*
X147075000Y-47375000D01*
X153850000Y-39700000D02*
X153850000Y-44187400D01*
X157125000Y-32525000D02*
X157300000Y-32700000D01*
X157300000Y-32700000D02*
X157300000Y-35700000D01*
X148203100Y-61570200D02*
X148203100Y-54050000D01*
X147075000Y-62698300D02*
X148203100Y-61570200D01*
X147075000Y-64375000D02*
X147075000Y-62698300D01*
X106125000Y-71725000D02*
X106100000Y-71750000D01*
X115650000Y-71800000D02*
X115650000Y-72950000D01*
X106125000Y-60825000D02*
X106125000Y-71725000D01*
X115750000Y-83800000D02*
X112375000Y-87175000D01*
X112375000Y-87175000D02*
X103725000Y-87175000D01*
X115750000Y-81500000D02*
X115750000Y-83800000D01*
X132450000Y-34750000D02*
X132450000Y-35748600D01*
X123125000Y-38025000D02*
X123125000Y-35750000D01*
X123125000Y-55025000D02*
X123125000Y-56701700D01*
X123125000Y-56701700D02*
X123589300Y-57166000D01*
X123589300Y-57166000D02*
X123589300Y-65653300D01*
X115650000Y-70550000D02*
X115650000Y-65653300D01*
X120725000Y-81375000D02*
X118554300Y-83545700D01*
X117480700Y-83545700D02*
X116675000Y-82740000D01*
X115750025Y-79400000D02*
X115750000Y-79400000D01*
X118554300Y-83545700D02*
X117480700Y-83545700D01*
X116675000Y-82740000D02*
X116675000Y-80907500D01*
X115750025Y-79982525D02*
X115750025Y-79400000D01*
X116675000Y-80907500D02*
X115750025Y-79982525D01*
X132916400Y-26657000D02*
X132450100Y-27123300D01*
X132450100Y-27123300D02*
X132450100Y-27900000D01*
X140125000Y-18625000D02*
X140196700Y-18696700D01*
X140196700Y-18696700D02*
X140196700Y-26657000D01*
X132950000Y-26657000D02*
X132916400Y-26657000D01*
X189099900Y-47250000D02*
X189099900Y-47702300D01*
X187583300Y-49218900D02*
X187583300Y-49369700D01*
X156130900Y-46854200D02*
X156130900Y-46702000D01*
X164648300Y-46702000D02*
X164648300Y-49535900D01*
X189099900Y-47702300D02*
X187583300Y-49218900D01*
X157125000Y-47848300D02*
X156130900Y-46854200D01*
X157125000Y-49525000D02*
X157125000Y-47848300D01*
X157125000Y-15525000D02*
X157125000Y-23998300D01*
X157125000Y-23998300D02*
X159200000Y-26073300D01*
X159200000Y-26850000D02*
X159200000Y-26073300D01*
X130430100Y-30250000D02*
X132450000Y-30250000D01*
X123125000Y-30275000D02*
X123050000Y-30350000D01*
X130330100Y-30350000D02*
X130430100Y-30250000D01*
X123125000Y-21000000D02*
X123125000Y-30275000D01*
X193552800Y-53652800D02*
X189150000Y-49250000D01*
X189150000Y-49250000D02*
X189100000Y-49250000D01*
X198075000Y-55575000D02*
X196152800Y-53652800D01*
X196152800Y-53652800D02*
X193552800Y-53652800D01*
X192434300Y-36550000D02*
X190250000Y-34365700D01*
X198075000Y-38575000D02*
X196050000Y-36550000D01*
X190250000Y-34365700D02*
X190250000Y-30850000D01*
X196050000Y-36550000D02*
X192434300Y-36550000D01*
X132450000Y-31300000D02*
X132450000Y-32600000D01*
X106125000Y-26825000D02*
X106125000Y-29425900D01*
X181800000Y-53850000D02*
X181800000Y-58288300D01*
X198075000Y-72575000D02*
X198075000Y-58288300D01*
X195500000Y-79250000D02*
X198075000Y-81825000D01*
X198075000Y-81825000D02*
X198075000Y-89575000D01*
X191650000Y-79250000D02*
X195500000Y-79250000D01*
X152192200Y-37357800D02*
X151851057Y-37357800D01*
X150400000Y-47284000D02*
X146926300Y-50757700D01*
X151508857Y-37700000D02*
X151496300Y-37700000D01*
X151409300Y-38569900D02*
X150403000Y-39576200D01*
X150403000Y-39688000D02*
X150400000Y-39691000D01*
X153850025Y-35700000D02*
X153850000Y-35700025D01*
X154744700Y-34141700D02*
X153850025Y-35036375D01*
X153850000Y-37549975D02*
X153850025Y-37550000D01*
X151496300Y-37700000D02*
X151409300Y-37787000D01*
X152200000Y-37350000D02*
X152192200Y-37357800D01*
X186800000Y-30850000D02*
X186800000Y-31626700D01*
X153850025Y-35036375D02*
X153850025Y-35700000D01*
X146926300Y-50757700D02*
X144818700Y-50757700D01*
X186800000Y-31626700D02*
X186800000Y-33366400D01*
X153850000Y-35700025D02*
X153850000Y-37549975D01*
X153650025Y-37350000D02*
X152200000Y-37350000D01*
X150400000Y-39691000D02*
X150400000Y-39700000D01*
X145300000Y-30238400D02*
X149295800Y-34234200D01*
X151409300Y-37787000D02*
X151409300Y-38569900D01*
X144753100Y-51600000D02*
X144753100Y-50823300D01*
X150403000Y-39576200D02*
X150403000Y-39576300D01*
X144818700Y-50757700D02*
X144753100Y-50823300D01*
X149295800Y-34234200D02*
X149295800Y-38469100D01*
X149295800Y-38469100D02*
X150403000Y-39576200D01*
X150403000Y-39576300D02*
X150403000Y-39688000D01*
X150400000Y-39700000D02*
X150400000Y-47284000D01*
X153850025Y-37550000D02*
X153650025Y-37350000D01*
X186800000Y-28750000D02*
X186800000Y-30850000D01*
X151851057Y-37357800D02*
X151508857Y-37700000D01*
X145300000Y-29850000D02*
X145300000Y-30238400D01*
X116005700Y-48646400D02*
X112431700Y-52220400D01*
X141148000Y-48646400D02*
X141148000Y-45032500D01*
X147862300Y-34797700D02*
X147862300Y-41757300D01*
X175341100Y-44359600D02*
X173025800Y-42044300D01*
X145300000Y-31750000D02*
X145300025Y-31750000D01*
X112200000Y-70550000D02*
X112200000Y-72950000D01*
X112431700Y-70318325D02*
X112200025Y-70550000D01*
X112200025Y-70550000D02*
X112200000Y-70550000D01*
X145300025Y-32235425D02*
X147862300Y-34797700D01*
X185649900Y-47250000D02*
X185649900Y-48026700D01*
X185649900Y-46176700D02*
X185649900Y-47250000D01*
X185650000Y-48026700D02*
X185650000Y-49250000D01*
X185650000Y-45400000D02*
X185650000Y-46176700D01*
X162376500Y-45400000D02*
X162376500Y-41755000D01*
X112431700Y-52220400D02*
X112431700Y-70318325D01*
X185649900Y-48026700D02*
X185650000Y-48026700D01*
X145300025Y-31750000D02*
X145300025Y-32235425D01*
X185650000Y-46176700D02*
X185649900Y-46176700D01*
X173025800Y-42044300D02*
X173025800Y-41755000D01*
X147862300Y-41757300D02*
X147862300Y-45032500D01*
X185650000Y-45400000D02*
X185650000Y-44359600D01*
X143693400Y-38152700D02*
X143246900Y-38599200D01*
X112300000Y-79400000D02*
X112300000Y-78623300D01*
X175850025Y-51650000D02*
X178350025Y-51650000D01*
X175850000Y-54087900D02*
X175829015Y-54108885D01*
X143693400Y-35745000D02*
X143693400Y-38152700D01*
X145300000Y-33750000D02*
X145300000Y-34138400D01*
X113273100Y-77650200D02*
X113273100Y-67790400D01*
X145300000Y-34138400D02*
X143693400Y-35745000D01*
X178350000Y-52750000D02*
X178350000Y-51650000D01*
X112300000Y-78623300D02*
X113273100Y-77650200D01*
X143246900Y-38599200D02*
X142678100Y-38599200D01*
X140546300Y-40731000D02*
X140546300Y-55281400D01*
X112300000Y-81500000D02*
X112300000Y-79400000D01*
X178350000Y-53850000D02*
X178350000Y-52750000D01*
X140546300Y-55281400D02*
X140546300Y-65004800D01*
X142678100Y-38599200D02*
X140546300Y-40731000D01*
X144753100Y-52950000D02*
X144753100Y-55281400D01*
X175850000Y-51650000D02*
X175850000Y-54087900D01*
X175850025Y-51650000D02*
X175850000Y-51650000D01*
X155750000Y-26850000D02*
X154886900Y-26850000D01*
X155750025Y-26850000D02*
X154886900Y-26850000D01*
X156300000Y-26850000D02*
X158700000Y-29250000D01*
X135900100Y-29473300D02*
X135900000Y-29473300D01*
X154412600Y-26850000D02*
X154886900Y-26850000D01*
X135900000Y-29473300D02*
X135900000Y-34750000D01*
X145300000Y-27900000D02*
X145300000Y-27855800D01*
X137100000Y-27900000D02*
X135900100Y-27900000D01*
X135900100Y-27900000D02*
X135900100Y-29473300D01*
X158700000Y-29250000D02*
X159200000Y-29250000D01*
X145300000Y-27855800D02*
X146193200Y-26962600D01*
X154886900Y-26850000D02*
X156300000Y-26850000D01*
X166147500Y-41135100D02*
X166147500Y-49397900D01*
X188200000Y-78473300D02*
X188200000Y-79250000D01*
X145300000Y-35700000D02*
X145300000Y-37700000D01*
X191522700Y-75150600D02*
X188200000Y-78473300D01*
X184123700Y-50173100D02*
X184123700Y-64520000D01*
X166147500Y-49397900D02*
X166922700Y-50173100D01*
X145300000Y-37700000D02*
X145300000Y-39358500D01*
X191522700Y-64550000D02*
X191522700Y-75150600D01*
X145300000Y-39358500D02*
X147076600Y-41135100D01*
X141850000Y-32751500D02*
X141850000Y-27900000D01*
X118100000Y-35581200D02*
X120356500Y-33324700D01*
X120356500Y-33324700D02*
X120356500Y-33052400D01*
X141850000Y-32751500D02*
X141850000Y-35700000D01*
X118100000Y-36445000D02*
X118100000Y-35581200D01*
X154382900Y-28749800D02*
X154774500Y-28749800D01*
X118100000Y-39378500D02*
X118100000Y-39848800D01*
X116948300Y-60246600D02*
X117950000Y-61248300D01*
X105850000Y-73548300D02*
X105850000Y-73041500D01*
X155750025Y-29250000D02*
X155750000Y-29250000D01*
X117950000Y-45950000D02*
X117950000Y-47651700D01*
X105850000Y-75350000D02*
X105850000Y-73548300D01*
X118100000Y-38985000D02*
X118100000Y-39378500D01*
X118100000Y-39378500D02*
X121235200Y-36243300D01*
X117950000Y-62950000D02*
X117950000Y-73041500D01*
X117950000Y-62950000D02*
X117950000Y-61248300D01*
X116938300Y-43236600D02*
X117950000Y-44248300D01*
X117950000Y-47651700D02*
X116948300Y-48653400D01*
X118100000Y-39848800D02*
X116938300Y-41010500D01*
X155274700Y-29250000D02*
X155750025Y-29250000D01*
X154382700Y-28750000D02*
X154382900Y-28749800D01*
X121235200Y-36243300D02*
X121235200Y-31955100D01*
X117950000Y-44248300D02*
X117950000Y-45950000D01*
X154774500Y-28749800D02*
X155274700Y-29250000D01*
X116948300Y-48653400D02*
X116948300Y-60246600D01*
X116938300Y-41010500D02*
X116938300Y-43236600D01*
X118100000Y-41525000D02*
X118100000Y-42676700D01*
X121308700Y-45885400D02*
X118100000Y-42676700D01*
X154773000Y-38807900D02*
X154644500Y-38679400D01*
X133270500Y-43531200D02*
X133270500Y-53768800D01*
X178879700Y-49140800D02*
X179757800Y-50018900D01*
X134950000Y-41000800D02*
X135166300Y-40784500D01*
X135166300Y-40784500D02*
X135166300Y-38230300D01*
X134950000Y-40150000D02*
X134950000Y-41000800D01*
X134950000Y-57150000D02*
X134950000Y-58851700D01*
X122850000Y-64828700D02*
X121308700Y-63287400D01*
X134950000Y-57150000D02*
X134950000Y-55448300D01*
X134950000Y-41851700D02*
X133270500Y-43531200D01*
X121308700Y-63287400D02*
X121308700Y-45885400D01*
X122850000Y-69550000D02*
X122850000Y-64828700D01*
X133270500Y-53768800D02*
X134950000Y-55448300D01*
X134950000Y-41000800D02*
X134950000Y-41851700D01*
X154773000Y-42679500D02*
X154773000Y-38807900D01*
X150400000Y-37550000D02*
X150400000Y-38679400D01*
X165497900Y-48904500D02*
X165497900Y-42679500D01*
X131658200Y-62143500D02*
X134950000Y-58851700D01*
X131658200Y-64828700D02*
X131658200Y-62143500D01*
X179757800Y-50018900D02*
X179757800Y-56349200D01*
X136751700Y-48453400D02*
X135250000Y-46951700D01*
X186100000Y-59440000D02*
X186100000Y-58288300D01*
X186100000Y-58288300D02*
X185812100Y-58288300D01*
X135250000Y-60548300D02*
X135250000Y-62250000D01*
X136751700Y-59046600D02*
X135250000Y-60548300D01*
X153782700Y-29036800D02*
X153782700Y-24284400D01*
X174279700Y-53408100D02*
X176407200Y-55535600D01*
X155346400Y-41043200D02*
X155346400Y-30600500D01*
X155346400Y-30600500D02*
X153782700Y-29036800D01*
X151950000Y-22451700D02*
X151950000Y-20750000D01*
X184734200Y-57210400D02*
X184734200Y-55535600D01*
X158926500Y-47772400D02*
X158926500Y-44623300D01*
X135250000Y-45250000D02*
X135250000Y-46951700D01*
X185812100Y-58288300D02*
X184734200Y-57210400D01*
X120671800Y-53108200D02*
X120671800Y-50020200D01*
X158926500Y-44623300D02*
X155346400Y-41043200D01*
X118100000Y-55680000D02*
X120671800Y-53108200D01*
X153782700Y-24284400D02*
X151950000Y-22451700D01*
X136751700Y-49248600D02*
X136751700Y-59046600D01*
X136751700Y-49248600D02*
X136751700Y-48453400D01*
X174279700Y-47303700D02*
X174279700Y-53408100D01*
X168950000Y-34650000D02*
X168950000Y-36351700D01*
X168950000Y-50799100D02*
X168950000Y-49948300D01*
X168950000Y-19351700D02*
X167425500Y-20876200D01*
X167913400Y-51835700D02*
X167913400Y-53564600D01*
X167425500Y-31423800D02*
X168950000Y-32948300D01*
X168950000Y-51650000D02*
X168950000Y-50799100D01*
X172400000Y-53284900D02*
X172400000Y-59530300D01*
X166948900Y-47947200D02*
X168950000Y-49948300D01*
X168950000Y-36351700D02*
X166948900Y-38352800D01*
X168950000Y-17650000D02*
X168950000Y-19351700D01*
X166948900Y-46113800D02*
X166948900Y-47947200D01*
X166948900Y-38352800D02*
X166948900Y-46113800D01*
X168950000Y-50799100D02*
X167913400Y-51835700D01*
X172400000Y-51650000D02*
X172400000Y-53284900D01*
X168950000Y-34131400D02*
X168950000Y-32948300D01*
X167425500Y-20876200D02*
X167425500Y-31423800D01*
X168950000Y-34131400D02*
X168950000Y-34650000D01*
X169250000Y-60548300D02*
X170771200Y-59027100D01*
X139100000Y-34450000D02*
X141850000Y-37200000D01*
X139200000Y-32000000D02*
X139200000Y-32050000D01*
X169250000Y-45250000D02*
X169250000Y-46951700D01*
X119024900Y-30024900D02*
X117950000Y-28950000D01*
X169250000Y-29951700D02*
X170772100Y-31473800D01*
X169584100Y-43214200D02*
X169250000Y-43548300D01*
X119024900Y-32474900D02*
X119024900Y-30024900D01*
X152100000Y-42860000D02*
X152100000Y-37958800D01*
X170772100Y-42405500D02*
X169963400Y-43214200D01*
X119050000Y-32500000D02*
X119024900Y-32474900D01*
X139200000Y-32050000D02*
X139100000Y-32150000D01*
X139100000Y-32150000D02*
X139100000Y-34450000D01*
X142751700Y-37700000D02*
X142983185Y-37931485D01*
X169250000Y-62250000D02*
X169250000Y-60548300D01*
X142983185Y-37931485D02*
X143066085Y-37931485D01*
X141850000Y-37200000D02*
X141850000Y-37700000D01*
X169250000Y-28250000D02*
X169250000Y-29951700D01*
X169963400Y-43214200D02*
X169584100Y-43214200D01*
X169250000Y-45250000D02*
X169250000Y-43548300D01*
X170771200Y-59027100D02*
X170771200Y-48472900D01*
X170771200Y-48472900D02*
X169250000Y-46951700D01*
X141850000Y-37700000D02*
X142751700Y-37700000D01*
X170772100Y-31473800D02*
X170772100Y-42405500D01*
X187251700Y-67746600D02*
X187251700Y-54451700D01*
X186250000Y-54300800D02*
X184735600Y-52786400D01*
X184735600Y-52786400D02*
X184735600Y-39658500D01*
X184735600Y-39658500D02*
X185642000Y-38752100D01*
X134529800Y-33670200D02*
X134529800Y-25246900D01*
X187609400Y-73511100D02*
X186250000Y-72151700D01*
X185642000Y-38752100D02*
X185649600Y-38752100D01*
X134500000Y-33700000D02*
X134529800Y-33670200D01*
X186250000Y-53450000D02*
X186250000Y-54300800D01*
X186250000Y-36450000D02*
X186250000Y-38151700D01*
X186250000Y-71300800D02*
X186250000Y-72151700D01*
X134950000Y-24826700D02*
X134950000Y-23125000D01*
X187251700Y-54451700D02*
X187100800Y-54300800D01*
X187100800Y-54300800D02*
X186250000Y-54300800D01*
X186250000Y-70450000D02*
X186250000Y-68748300D01*
X186250000Y-68748300D02*
X187251700Y-67746600D01*
X134529800Y-25246900D02*
X134950000Y-24826700D01*
X186250000Y-78604600D02*
X187609400Y-77245200D01*
X187609400Y-77245200D02*
X187609400Y-73511100D01*
X186250000Y-71300800D02*
X186250000Y-70450000D01*
X186250000Y-87450000D02*
X186250000Y-78604600D01*
X185649600Y-38752100D02*
X186250000Y-38151700D01*
M02*
