%TF.GenerationSoftware,KiCad,Pcbnew,9.0.0*%
%TF.CreationDate,2025-04-19T15:35:50+09:00*%
%TF.ProjectId,nofy_V2_R,6e6f6679-5f56-4325-9f52-2e6b69636164,rev?*%
%TF.SameCoordinates,Original*%
%TF.FileFunction,Drillmap*%
%TF.FilePolarity,Positive*%
%FSLAX45Y45*%
G04 Gerber Fmt 4.5, Leading zero omitted, Abs format (unit mm)*
G04 Created by KiCad (PCBNEW 9.0.0) date 2025-04-19 15:35:50*
%MOMM*%
%LPD*%
G01*
G04 APERTURE LIST*
%ADD10C,0.050000*%
%ADD11C,0.200000*%
%ADD12C,0.100000*%
G04 APERTURE END LIST*
D10*
X5451250Y-2402585D02*
G75*
G02*
X5351250Y-2502590I-100000J-5D01*
G01*
X8751250Y-7012585D02*
G75*
G02*
X8851245Y-7112585I0J-99995D01*
G01*
X2121250Y-3182585D02*
X2121250Y-9742585D01*
X7151250Y-2052585D02*
G75*
G02*
X7251250Y-1952580I100000J5D01*
G01*
X7111250Y-7112585D02*
G75*
G02*
X7211250Y-7012580I100000J5D01*
G01*
X9941250Y-9842585D02*
X11991250Y-9842585D01*
X3711250Y-9742585D02*
G75*
G02*
X3611250Y-9842585I-100000J0D01*
G01*
X7151250Y-2162585D02*
G75*
G02*
X7051250Y-2262590I-100000J-5D01*
G01*
X10611250Y-3082584D02*
G75*
G02*
X10511246Y-2982584I0J100004D01*
G01*
X3711250Y-9742585D02*
X3711250Y-9362585D01*
X7151250Y-2052585D02*
X7151250Y-2162585D01*
X9841250Y-7422585D02*
X9841250Y-9742585D01*
X5411250Y-7422585D02*
G75*
G02*
X5511250Y-7322580I100000J5D01*
G01*
X8711250Y-1952585D02*
X7251250Y-1952585D01*
X10411250Y-2262585D02*
X8911250Y-2262585D01*
X9741250Y-7322585D02*
G75*
G02*
X9841245Y-7422585I0J-99995D01*
G01*
X7111250Y-7222585D02*
X7111250Y-7112585D01*
X8951250Y-7322585D02*
X9741250Y-7322585D01*
X8911250Y-2262585D02*
G75*
G02*
X8811255Y-2162585I0J99995D01*
G01*
X5511250Y-7322585D02*
X7011250Y-7322585D01*
X7051250Y-2262585D02*
X5551250Y-2262585D01*
X7111250Y-7222585D02*
G75*
G02*
X7011250Y-7322590I-100000J-5D01*
G01*
X3751250Y-2602585D02*
G75*
G02*
X3851250Y-2502580I100000J5D01*
G01*
X2221250Y-9842585D02*
G75*
G02*
X2121255Y-9742585I0J99995D01*
G01*
X10411250Y-2262585D02*
G75*
G02*
X10511245Y-2362585I0J-99995D01*
G01*
X7211250Y-7012585D02*
X8751250Y-7012585D01*
X8951250Y-7322585D02*
G75*
G02*
X8851255Y-7222585I0J99995D01*
G01*
X2221250Y-9842585D02*
X3611250Y-9842585D01*
X2121250Y-3182585D02*
G75*
G02*
X2221250Y-3082585I100000J0D01*
G01*
X3751250Y-2982585D02*
X3751250Y-2602585D01*
X3651250Y-3082585D02*
X2221250Y-3082585D01*
X8711250Y-1952585D02*
G75*
G02*
X8811245Y-2052585I0J-99995D01*
G01*
X8851250Y-7112585D02*
X8851250Y-7222585D01*
X9941250Y-9842585D02*
G75*
G02*
X9841255Y-9742585I0J99995D01*
G01*
X3811250Y-9262585D02*
X5311250Y-9262585D01*
X8811250Y-2162585D02*
X8811250Y-2052585D01*
X12091250Y-3182585D02*
X12091250Y-9742585D01*
X5351250Y-2502585D02*
X3851250Y-2502585D01*
X5411250Y-9162585D02*
X5411250Y-7422585D01*
X10511250Y-2982584D02*
X10511250Y-2362585D01*
X11991250Y-3082585D02*
G75*
G02*
X12091245Y-3182585I0J-99995D01*
G01*
X3751250Y-2982585D02*
G75*
G02*
X3651250Y-3082585I-100000J0D01*
G01*
X3711250Y-9362585D02*
G75*
G02*
X3811250Y-9262580I100000J5D01*
G01*
X5451250Y-2362585D02*
X5451250Y-2402585D01*
X5451250Y-2362585D02*
G75*
G02*
X5551250Y-2262580I100000J5D01*
G01*
X5411250Y-9162585D02*
G75*
G02*
X5311250Y-9262590I-100000J-5D01*
G01*
X11991250Y-3082585D02*
X10611250Y-3082584D01*
X12091250Y-9742585D02*
G75*
G02*
X11991250Y-9842590I-100000J-5D01*
G01*
D11*
D12*
X2637350Y-5933265D02*
X2667350Y-5963265D01*
X2667350Y-5933265D02*
X2637350Y-5963265D01*
X3186250Y-3157585D02*
X3216250Y-3187585D01*
X3216250Y-3157585D02*
X3186250Y-3187585D01*
X3219550Y-5477845D02*
X3249550Y-5507845D01*
X3249550Y-5477845D02*
X3219550Y-5507845D01*
X3903010Y-3645625D02*
X3933010Y-3675625D01*
X3933010Y-3645625D02*
X3903010Y-3675625D01*
X3921250Y-5572585D02*
X3951250Y-5602585D01*
X3951250Y-5572585D02*
X3921250Y-5602585D01*
X3965650Y-3585255D02*
X3995650Y-3615255D01*
X3995650Y-3585255D02*
X3965650Y-3615255D01*
X3983850Y-7702795D02*
X4013850Y-7732795D01*
X4013850Y-7702795D02*
X3983850Y-7732795D01*
X4104850Y-4058985D02*
X4134850Y-4088985D01*
X4134850Y-4058985D02*
X4104850Y-4088985D01*
X4172340Y-3852585D02*
X4202340Y-3882585D01*
X4202340Y-3852585D02*
X4172340Y-3882585D01*
X4209190Y-7382405D02*
X4239190Y-7412405D01*
X4239190Y-7382405D02*
X4209190Y-7412405D01*
X4218750Y-5635145D02*
X4248750Y-5665145D01*
X4248750Y-5635145D02*
X4218750Y-5665145D01*
X4472250Y-7110455D02*
X4502250Y-7140455D01*
X4502250Y-7110455D02*
X4472250Y-7140455D01*
X4804910Y-4438215D02*
X4834910Y-4468215D01*
X4834910Y-4438215D02*
X4804910Y-4468215D01*
X4804910Y-4727145D02*
X4834910Y-4757145D01*
X4834910Y-4727145D02*
X4804910Y-4757145D01*
X4952120Y-3348185D02*
X4982120Y-3378185D01*
X4982120Y-3348185D02*
X4952120Y-3378185D01*
X5071740Y-7407455D02*
X5101740Y-7437455D01*
X5101740Y-7407455D02*
X5071740Y-7437455D01*
X5072070Y-6581895D02*
X5102070Y-6611895D01*
X5102070Y-6581895D02*
X5072070Y-6611895D01*
X5351980Y-3576755D02*
X5381980Y-3606755D01*
X5381980Y-3576755D02*
X5351980Y-3606755D01*
X5401250Y-4362525D02*
X5431250Y-4392525D01*
X5431250Y-4362525D02*
X5401250Y-4392525D01*
X5501250Y-3150315D02*
X5531250Y-3180315D01*
X5531250Y-3150315D02*
X5501250Y-3180315D01*
X5581670Y-5921085D02*
X5611670Y-5951085D01*
X5611670Y-5921085D02*
X5581670Y-5951085D01*
X5684100Y-5989805D02*
X5714100Y-6019805D01*
X5714100Y-5989805D02*
X5684100Y-6019805D01*
X5816250Y-5477845D02*
X5846250Y-5507845D01*
X5846250Y-5477845D02*
X5816250Y-5507845D01*
X5816250Y-6581895D02*
X5846250Y-6611895D01*
X5846250Y-6581895D02*
X5816250Y-6611895D01*
X5896940Y-3262585D02*
X5926940Y-3292585D01*
X5926940Y-3262585D02*
X5896940Y-3292585D01*
X5943090Y-4160015D02*
X5973090Y-4190015D01*
X5973090Y-4160015D02*
X5943090Y-4190015D01*
X5976250Y-3645625D02*
X6006250Y-3675625D01*
X6006250Y-3645625D02*
X5976250Y-3675625D01*
X5988750Y-5988615D02*
X6018750Y-6018615D01*
X6018750Y-5988615D02*
X5988750Y-6018615D01*
X6018210Y-6815075D02*
X6048210Y-6845075D01*
X6048210Y-6815075D02*
X6018210Y-6845075D01*
X6018210Y-7110455D02*
X6048210Y-7140455D01*
X6048210Y-7110455D02*
X6018210Y-7140455D01*
X6042390Y-3266955D02*
X6072390Y-3296955D01*
X6072390Y-3266955D02*
X6042390Y-3296955D01*
X6050680Y-5808685D02*
X6080680Y-5838685D01*
X6080680Y-5808685D02*
X6050680Y-5838685D01*
X6083230Y-4522235D02*
X6113230Y-4552235D01*
X6113230Y-4522235D02*
X6083230Y-4552235D01*
X6262310Y-3461695D02*
X6292310Y-3491695D01*
X6292310Y-3461695D02*
X6262310Y-3491695D01*
X6262420Y-3852585D02*
X6292420Y-3882585D01*
X6292420Y-3852585D02*
X6262420Y-3882585D01*
X6264950Y-4147555D02*
X6294950Y-4177555D01*
X6294950Y-4147555D02*
X6264950Y-4177555D01*
X6433590Y-3334095D02*
X6463590Y-3364095D01*
X6463590Y-3334095D02*
X6433590Y-3364095D01*
X6551970Y-4643465D02*
X6581970Y-4673465D01*
X6581970Y-4643465D02*
X6551970Y-4673465D01*
X6613750Y-4445045D02*
X6643750Y-4475045D01*
X6643750Y-4445045D02*
X6613750Y-4475045D01*
X6656030Y-6815075D02*
X6686030Y-6845075D01*
X6686030Y-6815075D02*
X6656030Y-6845075D01*
X6676770Y-4803125D02*
X6706770Y-4833125D01*
X6706770Y-4803125D02*
X6676770Y-4833125D01*
X6694960Y-5153055D02*
X6724960Y-5183055D01*
X6724960Y-5153055D02*
X6694960Y-5183055D01*
X6761060Y-5045285D02*
X6791060Y-5075285D01*
X6791060Y-5045285D02*
X6761060Y-5075285D01*
X6763850Y-4086725D02*
X6793850Y-4116725D01*
X6793850Y-4086725D02*
X6763850Y-4116725D01*
X6767390Y-4207725D02*
X6797390Y-4237725D01*
X6797390Y-4207725D02*
X6767390Y-4237725D01*
X6842890Y-5930795D02*
X6872890Y-5960795D01*
X6872890Y-5930795D02*
X6842890Y-5960795D01*
X6906250Y-4362525D02*
X6936250Y-4392525D01*
X6936250Y-4362525D02*
X6906250Y-4392525D01*
X6922960Y-5649695D02*
X6952960Y-5679695D01*
X6952960Y-5649695D02*
X6922960Y-5679695D01*
X7083800Y-4207725D02*
X7113800Y-4237725D01*
X7113800Y-4207725D02*
X7083800Y-4237725D01*
X7116250Y-6896415D02*
X7146250Y-6926415D01*
X7146250Y-6896415D02*
X7116250Y-6926415D01*
X7206580Y-3823915D02*
X7236580Y-3853915D01*
X7236580Y-3823915D02*
X7206580Y-3853915D01*
X7233330Y-4086725D02*
X7263330Y-4116725D01*
X7263330Y-4086725D02*
X7233330Y-4116725D01*
X7255060Y-3969585D02*
X7285060Y-3999585D01*
X7285060Y-3969585D02*
X7255060Y-3999585D01*
X7298320Y-3260245D02*
X7328320Y-3290245D01*
X7328320Y-3260245D02*
X7298320Y-3290245D01*
X7319770Y-5808685D02*
X7349770Y-5838685D01*
X7349770Y-5808685D02*
X7319770Y-5838685D01*
X7326920Y-3804285D02*
X7356920Y-3834285D01*
X7356920Y-3804285D02*
X7326920Y-3834285D01*
X7387100Y-4086725D02*
X7417100Y-4116725D01*
X7417100Y-4086725D02*
X7387100Y-4116725D01*
X7461710Y-6050045D02*
X7491710Y-6080045D01*
X7491710Y-6050045D02*
X7461710Y-6080045D01*
X7461710Y-6536895D02*
X7491710Y-6566895D01*
X7491710Y-6536895D02*
X7461710Y-6566895D01*
X7485540Y-5818275D02*
X7515540Y-5848275D01*
X7515540Y-5818275D02*
X7485540Y-5848275D01*
X7507820Y-3660345D02*
X7537820Y-3690345D01*
X7537820Y-3660345D02*
X7507820Y-3690345D01*
X7556510Y-5956035D02*
X7586510Y-5986035D01*
X7586510Y-5956035D02*
X7556510Y-5986035D01*
X7556510Y-6606545D02*
X7586510Y-6636545D01*
X7586510Y-6606545D02*
X7556510Y-6636545D01*
X7591250Y-4147555D02*
X7621250Y-4177555D01*
X7621250Y-4147555D02*
X7591250Y-4177555D01*
X7591250Y-4525685D02*
X7621250Y-4555685D01*
X7621250Y-4525685D02*
X7591250Y-4555685D01*
X7618750Y-3487545D02*
X7648750Y-3517545D01*
X7648750Y-3487545D02*
X7618750Y-3517545D01*
X7618750Y-4958225D02*
X7648750Y-4988225D01*
X7648750Y-4958225D02*
X7618750Y-4988225D01*
X7673780Y-6164655D02*
X7703780Y-6194655D01*
X7703780Y-6164655D02*
X7673780Y-6194655D01*
X7673780Y-6448465D02*
X7703780Y-6478465D01*
X7703780Y-6448465D02*
X7673780Y-6478465D01*
X7685610Y-5167585D02*
X7715610Y-5197585D01*
X7715610Y-5167585D02*
X7685610Y-5197585D01*
X7764560Y-5326955D02*
X7794560Y-5356955D01*
X7794560Y-5326955D02*
X7764560Y-5356955D01*
X7921420Y-3660345D02*
X7951420Y-3690345D01*
X7951420Y-3660345D02*
X7921420Y-3690345D01*
X7985490Y-5099235D02*
X8015490Y-5129235D01*
X8015490Y-5099235D02*
X7985490Y-5129235D01*
X8199350Y-5820475D02*
X8229350Y-5850475D01*
X8229350Y-5820475D02*
X8199350Y-5850475D01*
X8240060Y-3260245D02*
X8270060Y-3290245D01*
X8270060Y-3260245D02*
X8240060Y-3290245D01*
X8288880Y-6063685D02*
X8318880Y-6093685D01*
X8318880Y-6063685D02*
X8288880Y-6093685D01*
X8301640Y-5037115D02*
X8331640Y-5067115D01*
X8331640Y-5037115D02*
X8301640Y-5067115D01*
X8301640Y-5617415D02*
X8331640Y-5647415D01*
X8331640Y-5617415D02*
X8301640Y-5647415D01*
X8371080Y-4444925D02*
X8401080Y-4474925D01*
X8401080Y-4444925D02*
X8371080Y-4474925D01*
X8585220Y-5446815D02*
X8615220Y-5476815D01*
X8615220Y-5446815D02*
X8585220Y-5476815D01*
X8801250Y-6448465D02*
X8831250Y-6478465D01*
X8831250Y-6448465D02*
X8801250Y-6478465D01*
X8970900Y-4741095D02*
X9000900Y-4771095D01*
X9000900Y-4741095D02*
X8970900Y-4771095D01*
X9013930Y-5446815D02*
X9043930Y-5476815D01*
X9043930Y-5446815D02*
X9013930Y-5476815D01*
X9031920Y-4958225D02*
X9061920Y-4988225D01*
X9061920Y-4958225D02*
X9031920Y-4988225D01*
X9056080Y-6232555D02*
X9086080Y-6262555D01*
X9086080Y-6232555D02*
X9056080Y-6262555D01*
X9171250Y-3648275D02*
X9201250Y-3678275D01*
X9201250Y-3648275D02*
X9171250Y-3678275D01*
X9313110Y-6536895D02*
X9343110Y-6566895D01*
X9343110Y-6536895D02*
X9313110Y-6566895D01*
X9340160Y-4807505D02*
X9370160Y-4837505D01*
X9370160Y-4807505D02*
X9340160Y-4837505D01*
X9371940Y-6448465D02*
X9401940Y-6478465D01*
X9401940Y-6448465D02*
X9371940Y-6478465D01*
X9385360Y-4278425D02*
X9415360Y-4308425D01*
X9415360Y-4278425D02*
X9385360Y-4308425D01*
X9400330Y-4932555D02*
X9430330Y-4962555D01*
X9430330Y-4932555D02*
X9400330Y-4962555D01*
X9496250Y-5893475D02*
X9526250Y-5923475D01*
X9526250Y-5893475D02*
X9496250Y-5923475D01*
X9570720Y-6155725D02*
X9600720Y-6185725D01*
X9600720Y-6155725D02*
X9570720Y-6185725D01*
X9609560Y-6825585D02*
X9639560Y-6855585D01*
X9639560Y-6825585D02*
X9609560Y-6855585D01*
X9611250Y-4452585D02*
X9641250Y-4482585D01*
X9641250Y-4452585D02*
X9611250Y-4482585D01*
X9835480Y-5877875D02*
X9865480Y-5907875D01*
X9865480Y-5877875D02*
X9835480Y-5907875D01*
X10071420Y-7260755D02*
X10101420Y-7290755D01*
X10101420Y-7260755D02*
X10071420Y-7290755D01*
X10107910Y-5592785D02*
X10137910Y-5622785D01*
X10137910Y-5592785D02*
X10107910Y-5622785D01*
X10116340Y-8708045D02*
X10146340Y-8738045D01*
X10146340Y-8708045D02*
X10116340Y-8738045D01*
X10150818Y-7270553D02*
X10180818Y-7300553D01*
X10180818Y-7270553D02*
X10150818Y-7300553D01*
X10182620Y-5948335D02*
X10212620Y-5978335D01*
X10212620Y-5948335D02*
X10182620Y-5978335D01*
X10243210Y-6204375D02*
X10273210Y-6234375D01*
X10273210Y-6204375D02*
X10243210Y-6234375D01*
X10275040Y-7495665D02*
X10305040Y-7525665D01*
X10305040Y-7495665D02*
X10275040Y-7525665D01*
X10275040Y-8782945D02*
X10305040Y-8812945D01*
X10305040Y-8782945D02*
X10275040Y-8812945D01*
X10279760Y-7406625D02*
X10309760Y-7436625D01*
X10309760Y-7406625D02*
X10279760Y-7436625D01*
X10305130Y-6755305D02*
X10335130Y-6785305D01*
X10335130Y-6755305D02*
X10305130Y-6785305D01*
X10332650Y-6571585D02*
X10362650Y-6601585D01*
X10362650Y-6571585D02*
X10332650Y-6601585D01*
X10348130Y-5652955D02*
X10378130Y-5682955D01*
X10378130Y-5652955D02*
X10348130Y-5682955D01*
X10380370Y-4463695D02*
X10410370Y-4493695D01*
X10410370Y-4463695D02*
X10380370Y-4493695D01*
X10428300Y-5671845D02*
X10458300Y-5701845D01*
X10458300Y-5671845D02*
X10428300Y-5701845D01*
X10516225Y-7347610D02*
X10546225Y-7377610D01*
X10546225Y-7347610D02*
X10516225Y-7377610D01*
X10531250Y-4081465D02*
X10561250Y-4111465D01*
X10561250Y-4081465D02*
X10531250Y-4111465D01*
X10710390Y-6160595D02*
X10740390Y-6190595D01*
X10740390Y-6160595D02*
X10710390Y-6190595D01*
X10710390Y-7482935D02*
X10740390Y-7512935D01*
X10740390Y-7482935D02*
X10710390Y-7512935D01*
X10822850Y-6273405D02*
X10852850Y-6303405D01*
X10852850Y-6273405D02*
X10822850Y-6303405D01*
X10822850Y-7271965D02*
X10852850Y-7301965D01*
X10852850Y-7271965D02*
X10822850Y-7301965D01*
X11047990Y-7361985D02*
X11077990Y-7391985D01*
X11077990Y-7361985D02*
X11047990Y-7391985D01*
X3771250Y-8362585D02*
G75*
G02*
X3671250Y-8362585I-50000J0D01*
G01*
X3671250Y-8362585D02*
G75*
G02*
X3771250Y-8362585I50000J0D01*
G01*
X3771250Y-8612585D02*
G75*
G02*
X3671250Y-8612585I-50000J0D01*
G01*
X3671250Y-8612585D02*
G75*
G02*
X3771250Y-8612585I50000J0D01*
G01*
X3771250Y-8862585D02*
G75*
G02*
X3671250Y-8862585I-50000J0D01*
G01*
X3671250Y-8862585D02*
G75*
G02*
X3771250Y-8862585I50000J0D01*
G01*
X3781250Y-4033085D02*
G75*
G02*
X3681250Y-4033085I-50000J0D01*
G01*
X3681250Y-4033085D02*
G75*
G02*
X3781250Y-4033085I50000J0D01*
G01*
X3781250Y-4287085D02*
G75*
G02*
X3681250Y-4287085I-50000J0D01*
G01*
X3681250Y-4287085D02*
G75*
G02*
X3781250Y-4287085I50000J0D01*
G01*
X3781250Y-4541085D02*
G75*
G02*
X3681250Y-4541085I-50000J0D01*
G01*
X3681250Y-4541085D02*
G75*
G02*
X3781250Y-4541085I50000J0D01*
G01*
X3781250Y-4795085D02*
G75*
G02*
X3681250Y-4795085I-50000J0D01*
G01*
X3681250Y-4795085D02*
G75*
G02*
X3781250Y-4795085I50000J0D01*
G01*
X3781250Y-5702585D02*
G75*
G02*
X3681250Y-5702585I-50000J0D01*
G01*
X3681250Y-5702585D02*
G75*
G02*
X3781250Y-5702585I50000J0D01*
G01*
X3781250Y-5956585D02*
G75*
G02*
X3681250Y-5956585I-50000J0D01*
G01*
X3681250Y-5956585D02*
G75*
G02*
X3781250Y-5956585I50000J0D01*
G01*
X3781250Y-6210585D02*
G75*
G02*
X3681250Y-6210585I-50000J0D01*
G01*
X3681250Y-6210585D02*
G75*
G02*
X3781250Y-6210585I50000J0D01*
G01*
X3781250Y-6464585D02*
G75*
G02*
X3681250Y-6464585I-50000J0D01*
G01*
X3681250Y-6464585D02*
G75*
G02*
X3781250Y-6464585I50000J0D01*
G01*
X7181250Y-3222585D02*
G75*
G02*
X7081250Y-3222585I-50000J0D01*
G01*
X7081250Y-3222585D02*
G75*
G02*
X7181250Y-3222585I50000J0D01*
G01*
X7181250Y-3476585D02*
G75*
G02*
X7081250Y-3476585I-50000J0D01*
G01*
X7081250Y-3476585D02*
G75*
G02*
X7181250Y-3476585I50000J0D01*
G01*
X7181250Y-3730585D02*
G75*
G02*
X7081250Y-3730585I-50000J0D01*
G01*
X7081250Y-3730585D02*
G75*
G02*
X7181250Y-3730585I50000J0D01*
G01*
X7181250Y-3984585D02*
G75*
G02*
X7081250Y-3984585I-50000J0D01*
G01*
X7081250Y-3984585D02*
G75*
G02*
X7181250Y-3984585I50000J0D01*
G01*
X7181250Y-4928585D02*
G75*
G02*
X7081250Y-4928585I-50000J0D01*
G01*
X7081250Y-4928585D02*
G75*
G02*
X7181250Y-4928585I50000J0D01*
G01*
X7181250Y-5182585D02*
G75*
G02*
X7081250Y-5182585I-50000J0D01*
G01*
X7081250Y-5182585D02*
G75*
G02*
X7181250Y-5182585I50000J0D01*
G01*
X7181250Y-5436585D02*
G75*
G02*
X7081250Y-5436585I-50000J0D01*
G01*
X7081250Y-5436585D02*
G75*
G02*
X7181250Y-5436585I50000J0D01*
G01*
X7181250Y-5690585D02*
G75*
G02*
X7081250Y-5690585I-50000J0D01*
G01*
X7081250Y-5690585D02*
G75*
G02*
X7181250Y-5690585I50000J0D01*
G01*
X10021250Y-7786585D02*
G75*
G02*
X9921250Y-7786585I-50000J0D01*
G01*
X9921250Y-7786585D02*
G75*
G02*
X10021250Y-7786585I50000J0D01*
G01*
X10021250Y-8040585D02*
G75*
G02*
X9921250Y-8040585I-50000J0D01*
G01*
X9921250Y-8040585D02*
G75*
G02*
X10021250Y-8040585I50000J0D01*
G01*
X10021250Y-8294585D02*
G75*
G02*
X9921250Y-8294585I-50000J0D01*
G01*
X9921250Y-8294585D02*
G75*
G02*
X10021250Y-8294585I50000J0D01*
G01*
X10021250Y-8548585D02*
G75*
G02*
X9921250Y-8548585I-50000J0D01*
G01*
X9921250Y-8548585D02*
G75*
G02*
X10021250Y-8548585I50000J0D01*
G01*
X10021250Y-8802585D02*
G75*
G02*
X9921250Y-8802585I-50000J0D01*
G01*
X9921250Y-8802585D02*
G75*
G02*
X10021250Y-8802585I50000J0D01*
G01*
X10021250Y-9056585D02*
G75*
G02*
X9921250Y-9056585I-50000J0D01*
G01*
X9921250Y-9056585D02*
G75*
G02*
X10021250Y-9056585I50000J0D01*
G01*
X10021250Y-9310585D02*
G75*
G02*
X9921250Y-9310585I-50000J0D01*
G01*
X9921250Y-9310585D02*
G75*
G02*
X10021250Y-9310585I50000J0D01*
G01*
X10581250Y-6332585D02*
G75*
G02*
X10481250Y-6332585I-50000J0D01*
G01*
X10481250Y-6332585D02*
G75*
G02*
X10581250Y-6332585I50000J0D01*
G01*
X10581250Y-6586585D02*
G75*
G02*
X10481250Y-6586585I-50000J0D01*
G01*
X10481250Y-6586585D02*
G75*
G02*
X10581250Y-6586585I50000J0D01*
G01*
X10581250Y-6840585D02*
G75*
G02*
X10481250Y-6840585I-50000J0D01*
G01*
X10481250Y-6840585D02*
G75*
G02*
X10581250Y-6840585I50000J0D01*
G01*
X10581250Y-7094585D02*
G75*
G02*
X10481250Y-7094585I-50000J0D01*
G01*
X10481250Y-7094585D02*
G75*
G02*
X10581250Y-7094585I50000J0D01*
G01*
D11*
X2379527Y-10156569D02*
X2379527Y-9956569D01*
X2379527Y-9956569D02*
X2427146Y-9956569D01*
X2427146Y-9956569D02*
X2455717Y-9966093D01*
X2455717Y-9966093D02*
X2474765Y-9985140D01*
X2474765Y-9985140D02*
X2484289Y-10004188D01*
X2484289Y-10004188D02*
X2493813Y-10042283D01*
X2493813Y-10042283D02*
X2493813Y-10070855D01*
X2493813Y-10070855D02*
X2484289Y-10108950D01*
X2484289Y-10108950D02*
X2474765Y-10127997D01*
X2474765Y-10127997D02*
X2455717Y-10147045D01*
X2455717Y-10147045D02*
X2427146Y-10156569D01*
X2427146Y-10156569D02*
X2379527Y-10156569D01*
X2579527Y-10156569D02*
X2579527Y-10023235D01*
X2579527Y-10061331D02*
X2589051Y-10042283D01*
X2589051Y-10042283D02*
X2598574Y-10032759D01*
X2598574Y-10032759D02*
X2617622Y-10023235D01*
X2617622Y-10023235D02*
X2636670Y-10023235D01*
X2703336Y-10156569D02*
X2703336Y-10023235D01*
X2703336Y-9956569D02*
X2693813Y-9966093D01*
X2693813Y-9966093D02*
X2703336Y-9975616D01*
X2703336Y-9975616D02*
X2712860Y-9966093D01*
X2712860Y-9966093D02*
X2703336Y-9956569D01*
X2703336Y-9956569D02*
X2703336Y-9975616D01*
X2827146Y-10156569D02*
X2808098Y-10147045D01*
X2808098Y-10147045D02*
X2798574Y-10127997D01*
X2798574Y-10127997D02*
X2798574Y-9956569D01*
X2931908Y-10156569D02*
X2912860Y-10147045D01*
X2912860Y-10147045D02*
X2903336Y-10127997D01*
X2903336Y-10127997D02*
X2903336Y-9956569D01*
X3160479Y-10156569D02*
X3160479Y-9956569D01*
X3160479Y-9956569D02*
X3227146Y-10099426D01*
X3227146Y-10099426D02*
X3293812Y-9956569D01*
X3293812Y-9956569D02*
X3293812Y-10156569D01*
X3474765Y-10156569D02*
X3474765Y-10051807D01*
X3474765Y-10051807D02*
X3465241Y-10032759D01*
X3465241Y-10032759D02*
X3446193Y-10023235D01*
X3446193Y-10023235D02*
X3408098Y-10023235D01*
X3408098Y-10023235D02*
X3389051Y-10032759D01*
X3474765Y-10147045D02*
X3455717Y-10156569D01*
X3455717Y-10156569D02*
X3408098Y-10156569D01*
X3408098Y-10156569D02*
X3389051Y-10147045D01*
X3389051Y-10147045D02*
X3379527Y-10127997D01*
X3379527Y-10127997D02*
X3379527Y-10108950D01*
X3379527Y-10108950D02*
X3389051Y-10089902D01*
X3389051Y-10089902D02*
X3408098Y-10080378D01*
X3408098Y-10080378D02*
X3455717Y-10080378D01*
X3455717Y-10080378D02*
X3474765Y-10070855D01*
X3570003Y-10023235D02*
X3570003Y-10223235D01*
X3570003Y-10032759D02*
X3589051Y-10023235D01*
X3589051Y-10023235D02*
X3627146Y-10023235D01*
X3627146Y-10023235D02*
X3646193Y-10032759D01*
X3646193Y-10032759D02*
X3655717Y-10042283D01*
X3655717Y-10042283D02*
X3665241Y-10061331D01*
X3665241Y-10061331D02*
X3665241Y-10118474D01*
X3665241Y-10118474D02*
X3655717Y-10137521D01*
X3655717Y-10137521D02*
X3646193Y-10147045D01*
X3646193Y-10147045D02*
X3627146Y-10156569D01*
X3627146Y-10156569D02*
X3589051Y-10156569D01*
X3589051Y-10156569D02*
X3570003Y-10147045D01*
X3750955Y-10137521D02*
X3760479Y-10147045D01*
X3760479Y-10147045D02*
X3750955Y-10156569D01*
X3750955Y-10156569D02*
X3741432Y-10147045D01*
X3741432Y-10147045D02*
X3750955Y-10137521D01*
X3750955Y-10137521D02*
X3750955Y-10156569D01*
X3750955Y-10032759D02*
X3760479Y-10042283D01*
X3760479Y-10042283D02*
X3750955Y-10051807D01*
X3750955Y-10051807D02*
X3741432Y-10042283D01*
X3741432Y-10042283D02*
X3750955Y-10032759D01*
X3750955Y-10032759D02*
X3750955Y-10051807D01*
D12*
X2088750Y-10470085D02*
X2118750Y-10500085D01*
X2118750Y-10470085D02*
X2088750Y-10500085D01*
D11*
X2417622Y-10376569D02*
X2436670Y-10376569D01*
X2436670Y-10376569D02*
X2455717Y-10386093D01*
X2455717Y-10386093D02*
X2465241Y-10395616D01*
X2465241Y-10395616D02*
X2474765Y-10414664D01*
X2474765Y-10414664D02*
X2484289Y-10452759D01*
X2484289Y-10452759D02*
X2484289Y-10500378D01*
X2484289Y-10500378D02*
X2474765Y-10538474D01*
X2474765Y-10538474D02*
X2465241Y-10557521D01*
X2465241Y-10557521D02*
X2455717Y-10567045D01*
X2455717Y-10567045D02*
X2436670Y-10576569D01*
X2436670Y-10576569D02*
X2417622Y-10576569D01*
X2417622Y-10576569D02*
X2398574Y-10567045D01*
X2398574Y-10567045D02*
X2389051Y-10557521D01*
X2389051Y-10557521D02*
X2379527Y-10538474D01*
X2379527Y-10538474D02*
X2370003Y-10500378D01*
X2370003Y-10500378D02*
X2370003Y-10452759D01*
X2370003Y-10452759D02*
X2379527Y-10414664D01*
X2379527Y-10414664D02*
X2389051Y-10395616D01*
X2389051Y-10395616D02*
X2398574Y-10386093D01*
X2398574Y-10386093D02*
X2417622Y-10376569D01*
X2570003Y-10557521D02*
X2579527Y-10567045D01*
X2579527Y-10567045D02*
X2570003Y-10576569D01*
X2570003Y-10576569D02*
X2560479Y-10567045D01*
X2560479Y-10567045D02*
X2570003Y-10557521D01*
X2570003Y-10557521D02*
X2570003Y-10576569D01*
X2646194Y-10376569D02*
X2770003Y-10376569D01*
X2770003Y-10376569D02*
X2703336Y-10452759D01*
X2703336Y-10452759D02*
X2731908Y-10452759D01*
X2731908Y-10452759D02*
X2750955Y-10462283D01*
X2750955Y-10462283D02*
X2760479Y-10471807D01*
X2760479Y-10471807D02*
X2770003Y-10490855D01*
X2770003Y-10490855D02*
X2770003Y-10538474D01*
X2770003Y-10538474D02*
X2760479Y-10557521D01*
X2760479Y-10557521D02*
X2750955Y-10567045D01*
X2750955Y-10567045D02*
X2731908Y-10576569D01*
X2731908Y-10576569D02*
X2674765Y-10576569D01*
X2674765Y-10576569D02*
X2655717Y-10567045D01*
X2655717Y-10567045D02*
X2646194Y-10557521D01*
X2893812Y-10376569D02*
X2912860Y-10376569D01*
X2912860Y-10376569D02*
X2931908Y-10386093D01*
X2931908Y-10386093D02*
X2941432Y-10395616D01*
X2941432Y-10395616D02*
X2950955Y-10414664D01*
X2950955Y-10414664D02*
X2960479Y-10452759D01*
X2960479Y-10452759D02*
X2960479Y-10500378D01*
X2960479Y-10500378D02*
X2950955Y-10538474D01*
X2950955Y-10538474D02*
X2941432Y-10557521D01*
X2941432Y-10557521D02*
X2931908Y-10567045D01*
X2931908Y-10567045D02*
X2912860Y-10576569D01*
X2912860Y-10576569D02*
X2893812Y-10576569D01*
X2893812Y-10576569D02*
X2874765Y-10567045D01*
X2874765Y-10567045D02*
X2865241Y-10557521D01*
X2865241Y-10557521D02*
X2855717Y-10538474D01*
X2855717Y-10538474D02*
X2846193Y-10500378D01*
X2846193Y-10500378D02*
X2846193Y-10452759D01*
X2846193Y-10452759D02*
X2855717Y-10414664D01*
X2855717Y-10414664D02*
X2865241Y-10395616D01*
X2865241Y-10395616D02*
X2874765Y-10386093D01*
X2874765Y-10386093D02*
X2893812Y-10376569D01*
X3084289Y-10376569D02*
X3103336Y-10376569D01*
X3103336Y-10376569D02*
X3122384Y-10386093D01*
X3122384Y-10386093D02*
X3131908Y-10395616D01*
X3131908Y-10395616D02*
X3141432Y-10414664D01*
X3141432Y-10414664D02*
X3150955Y-10452759D01*
X3150955Y-10452759D02*
X3150955Y-10500378D01*
X3150955Y-10500378D02*
X3141432Y-10538474D01*
X3141432Y-10538474D02*
X3131908Y-10557521D01*
X3131908Y-10557521D02*
X3122384Y-10567045D01*
X3122384Y-10567045D02*
X3103336Y-10576569D01*
X3103336Y-10576569D02*
X3084289Y-10576569D01*
X3084289Y-10576569D02*
X3065241Y-10567045D01*
X3065241Y-10567045D02*
X3055717Y-10557521D01*
X3055717Y-10557521D02*
X3046193Y-10538474D01*
X3046193Y-10538474D02*
X3036670Y-10500378D01*
X3036670Y-10500378D02*
X3036670Y-10452759D01*
X3036670Y-10452759D02*
X3046193Y-10414664D01*
X3046193Y-10414664D02*
X3055717Y-10395616D01*
X3055717Y-10395616D02*
X3065241Y-10386093D01*
X3065241Y-10386093D02*
X3084289Y-10376569D01*
X3236670Y-10576569D02*
X3236670Y-10443235D01*
X3236670Y-10462283D02*
X3246193Y-10452759D01*
X3246193Y-10452759D02*
X3265241Y-10443235D01*
X3265241Y-10443235D02*
X3293813Y-10443235D01*
X3293813Y-10443235D02*
X3312860Y-10452759D01*
X3312860Y-10452759D02*
X3322384Y-10471807D01*
X3322384Y-10471807D02*
X3322384Y-10576569D01*
X3322384Y-10471807D02*
X3331908Y-10452759D01*
X3331908Y-10452759D02*
X3350955Y-10443235D01*
X3350955Y-10443235D02*
X3379527Y-10443235D01*
X3379527Y-10443235D02*
X3398574Y-10452759D01*
X3398574Y-10452759D02*
X3408098Y-10471807D01*
X3408098Y-10471807D02*
X3408098Y-10576569D01*
X3503336Y-10576569D02*
X3503336Y-10443235D01*
X3503336Y-10462283D02*
X3512860Y-10452759D01*
X3512860Y-10452759D02*
X3531908Y-10443235D01*
X3531908Y-10443235D02*
X3560479Y-10443235D01*
X3560479Y-10443235D02*
X3579527Y-10452759D01*
X3579527Y-10452759D02*
X3589051Y-10471807D01*
X3589051Y-10471807D02*
X3589051Y-10576569D01*
X3589051Y-10471807D02*
X3598574Y-10452759D01*
X3598574Y-10452759D02*
X3617622Y-10443235D01*
X3617622Y-10443235D02*
X3646193Y-10443235D01*
X3646193Y-10443235D02*
X3665241Y-10452759D01*
X3665241Y-10452759D02*
X3674765Y-10471807D01*
X3674765Y-10471807D02*
X3674765Y-10576569D01*
X4065241Y-10367045D02*
X3893813Y-10624188D01*
X4322384Y-10376569D02*
X4341432Y-10376569D01*
X4341432Y-10376569D02*
X4360479Y-10386093D01*
X4360479Y-10386093D02*
X4370003Y-10395616D01*
X4370003Y-10395616D02*
X4379527Y-10414664D01*
X4379527Y-10414664D02*
X4389051Y-10452759D01*
X4389051Y-10452759D02*
X4389051Y-10500378D01*
X4389051Y-10500378D02*
X4379527Y-10538474D01*
X4379527Y-10538474D02*
X4370003Y-10557521D01*
X4370003Y-10557521D02*
X4360479Y-10567045D01*
X4360479Y-10567045D02*
X4341432Y-10576569D01*
X4341432Y-10576569D02*
X4322384Y-10576569D01*
X4322384Y-10576569D02*
X4303337Y-10567045D01*
X4303337Y-10567045D02*
X4293813Y-10557521D01*
X4293813Y-10557521D02*
X4284289Y-10538474D01*
X4284289Y-10538474D02*
X4274765Y-10500378D01*
X4274765Y-10500378D02*
X4274765Y-10452759D01*
X4274765Y-10452759D02*
X4284289Y-10414664D01*
X4284289Y-10414664D02*
X4293813Y-10395616D01*
X4293813Y-10395616D02*
X4303337Y-10386093D01*
X4303337Y-10386093D02*
X4322384Y-10376569D01*
X4474765Y-10557521D02*
X4484289Y-10567045D01*
X4484289Y-10567045D02*
X4474765Y-10576569D01*
X4474765Y-10576569D02*
X4465241Y-10567045D01*
X4465241Y-10567045D02*
X4474765Y-10557521D01*
X4474765Y-10557521D02*
X4474765Y-10576569D01*
X4608098Y-10376569D02*
X4627146Y-10376569D01*
X4627146Y-10376569D02*
X4646194Y-10386093D01*
X4646194Y-10386093D02*
X4655718Y-10395616D01*
X4655718Y-10395616D02*
X4665241Y-10414664D01*
X4665241Y-10414664D02*
X4674765Y-10452759D01*
X4674765Y-10452759D02*
X4674765Y-10500378D01*
X4674765Y-10500378D02*
X4665241Y-10538474D01*
X4665241Y-10538474D02*
X4655718Y-10557521D01*
X4655718Y-10557521D02*
X4646194Y-10567045D01*
X4646194Y-10567045D02*
X4627146Y-10576569D01*
X4627146Y-10576569D02*
X4608098Y-10576569D01*
X4608098Y-10576569D02*
X4589051Y-10567045D01*
X4589051Y-10567045D02*
X4579527Y-10557521D01*
X4579527Y-10557521D02*
X4570003Y-10538474D01*
X4570003Y-10538474D02*
X4560479Y-10500378D01*
X4560479Y-10500378D02*
X4560479Y-10452759D01*
X4560479Y-10452759D02*
X4570003Y-10414664D01*
X4570003Y-10414664D02*
X4579527Y-10395616D01*
X4579527Y-10395616D02*
X4589051Y-10386093D01*
X4589051Y-10386093D02*
X4608098Y-10376569D01*
X4865241Y-10576569D02*
X4750956Y-10576569D01*
X4808098Y-10576569D02*
X4808098Y-10376569D01*
X4808098Y-10376569D02*
X4789051Y-10405140D01*
X4789051Y-10405140D02*
X4770003Y-10424188D01*
X4770003Y-10424188D02*
X4750956Y-10433712D01*
X5055718Y-10576569D02*
X4941432Y-10576569D01*
X4998575Y-10576569D02*
X4998575Y-10376569D01*
X4998575Y-10376569D02*
X4979527Y-10405140D01*
X4979527Y-10405140D02*
X4960479Y-10424188D01*
X4960479Y-10424188D02*
X4941432Y-10433712D01*
X5170003Y-10462283D02*
X5150956Y-10452759D01*
X5150956Y-10452759D02*
X5141432Y-10443235D01*
X5141432Y-10443235D02*
X5131908Y-10424188D01*
X5131908Y-10424188D02*
X5131908Y-10414664D01*
X5131908Y-10414664D02*
X5141432Y-10395616D01*
X5141432Y-10395616D02*
X5150956Y-10386093D01*
X5150956Y-10386093D02*
X5170003Y-10376569D01*
X5170003Y-10376569D02*
X5208099Y-10376569D01*
X5208099Y-10376569D02*
X5227146Y-10386093D01*
X5227146Y-10386093D02*
X5236670Y-10395616D01*
X5236670Y-10395616D02*
X5246194Y-10414664D01*
X5246194Y-10414664D02*
X5246194Y-10424188D01*
X5246194Y-10424188D02*
X5236670Y-10443235D01*
X5236670Y-10443235D02*
X5227146Y-10452759D01*
X5227146Y-10452759D02*
X5208099Y-10462283D01*
X5208099Y-10462283D02*
X5170003Y-10462283D01*
X5170003Y-10462283D02*
X5150956Y-10471807D01*
X5150956Y-10471807D02*
X5141432Y-10481331D01*
X5141432Y-10481331D02*
X5131908Y-10500378D01*
X5131908Y-10500378D02*
X5131908Y-10538474D01*
X5131908Y-10538474D02*
X5141432Y-10557521D01*
X5141432Y-10557521D02*
X5150956Y-10567045D01*
X5150956Y-10567045D02*
X5170003Y-10576569D01*
X5170003Y-10576569D02*
X5208099Y-10576569D01*
X5208099Y-10576569D02*
X5227146Y-10567045D01*
X5227146Y-10567045D02*
X5236670Y-10557521D01*
X5236670Y-10557521D02*
X5246194Y-10538474D01*
X5246194Y-10538474D02*
X5246194Y-10500378D01*
X5246194Y-10500378D02*
X5236670Y-10481331D01*
X5236670Y-10481331D02*
X5227146Y-10471807D01*
X5227146Y-10471807D02*
X5208099Y-10462283D01*
X5322384Y-10376569D02*
X5322384Y-10414664D01*
X5398575Y-10376569D02*
X5398575Y-10414664D01*
X5693813Y-10652759D02*
X5684289Y-10643235D01*
X5684289Y-10643235D02*
X5665241Y-10614664D01*
X5665241Y-10614664D02*
X5655718Y-10595616D01*
X5655718Y-10595616D02*
X5646194Y-10567045D01*
X5646194Y-10567045D02*
X5636670Y-10519426D01*
X5636670Y-10519426D02*
X5636670Y-10481331D01*
X5636670Y-10481331D02*
X5646194Y-10433712D01*
X5646194Y-10433712D02*
X5655718Y-10405140D01*
X5655718Y-10405140D02*
X5665241Y-10386093D01*
X5665241Y-10386093D02*
X5684289Y-10357521D01*
X5684289Y-10357521D02*
X5693813Y-10347997D01*
X5874765Y-10576569D02*
X5760479Y-10576569D01*
X5817622Y-10576569D02*
X5817622Y-10376569D01*
X5817622Y-10376569D02*
X5798575Y-10405140D01*
X5798575Y-10405140D02*
X5779527Y-10424188D01*
X5779527Y-10424188D02*
X5760479Y-10433712D01*
X6065241Y-10576569D02*
X5950956Y-10576569D01*
X6008098Y-10576569D02*
X6008098Y-10376569D01*
X6008098Y-10376569D02*
X5989051Y-10405140D01*
X5989051Y-10405140D02*
X5970003Y-10424188D01*
X5970003Y-10424188D02*
X5950956Y-10433712D01*
X6131908Y-10376569D02*
X6265241Y-10376569D01*
X6265241Y-10376569D02*
X6179527Y-10576569D01*
X6493813Y-10576569D02*
X6493813Y-10376569D01*
X6579527Y-10576569D02*
X6579527Y-10471807D01*
X6579527Y-10471807D02*
X6570003Y-10452759D01*
X6570003Y-10452759D02*
X6550956Y-10443235D01*
X6550956Y-10443235D02*
X6522384Y-10443235D01*
X6522384Y-10443235D02*
X6503337Y-10452759D01*
X6503337Y-10452759D02*
X6493813Y-10462283D01*
X6703337Y-10576569D02*
X6684289Y-10567045D01*
X6684289Y-10567045D02*
X6674765Y-10557521D01*
X6674765Y-10557521D02*
X6665241Y-10538474D01*
X6665241Y-10538474D02*
X6665241Y-10481331D01*
X6665241Y-10481331D02*
X6674765Y-10462283D01*
X6674765Y-10462283D02*
X6684289Y-10452759D01*
X6684289Y-10452759D02*
X6703337Y-10443235D01*
X6703337Y-10443235D02*
X6731908Y-10443235D01*
X6731908Y-10443235D02*
X6750956Y-10452759D01*
X6750956Y-10452759D02*
X6760480Y-10462283D01*
X6760480Y-10462283D02*
X6770003Y-10481331D01*
X6770003Y-10481331D02*
X6770003Y-10538474D01*
X6770003Y-10538474D02*
X6760480Y-10557521D01*
X6760480Y-10557521D02*
X6750956Y-10567045D01*
X6750956Y-10567045D02*
X6731908Y-10576569D01*
X6731908Y-10576569D02*
X6703337Y-10576569D01*
X6884289Y-10576569D02*
X6865241Y-10567045D01*
X6865241Y-10567045D02*
X6855718Y-10547997D01*
X6855718Y-10547997D02*
X6855718Y-10376569D01*
X7036670Y-10567045D02*
X7017622Y-10576569D01*
X7017622Y-10576569D02*
X6979527Y-10576569D01*
X6979527Y-10576569D02*
X6960480Y-10567045D01*
X6960480Y-10567045D02*
X6950956Y-10547997D01*
X6950956Y-10547997D02*
X6950956Y-10471807D01*
X6950956Y-10471807D02*
X6960480Y-10452759D01*
X6960480Y-10452759D02*
X6979527Y-10443235D01*
X6979527Y-10443235D02*
X7017622Y-10443235D01*
X7017622Y-10443235D02*
X7036670Y-10452759D01*
X7036670Y-10452759D02*
X7046194Y-10471807D01*
X7046194Y-10471807D02*
X7046194Y-10490855D01*
X7046194Y-10490855D02*
X6950956Y-10509902D01*
X7122384Y-10567045D02*
X7141432Y-10576569D01*
X7141432Y-10576569D02*
X7179527Y-10576569D01*
X7179527Y-10576569D02*
X7198575Y-10567045D01*
X7198575Y-10567045D02*
X7208099Y-10547997D01*
X7208099Y-10547997D02*
X7208099Y-10538474D01*
X7208099Y-10538474D02*
X7198575Y-10519426D01*
X7198575Y-10519426D02*
X7179527Y-10509902D01*
X7179527Y-10509902D02*
X7150956Y-10509902D01*
X7150956Y-10509902D02*
X7131908Y-10500378D01*
X7131908Y-10500378D02*
X7122384Y-10481331D01*
X7122384Y-10481331D02*
X7122384Y-10471807D01*
X7122384Y-10471807D02*
X7131908Y-10452759D01*
X7131908Y-10452759D02*
X7150956Y-10443235D01*
X7150956Y-10443235D02*
X7179527Y-10443235D01*
X7179527Y-10443235D02*
X7198575Y-10452759D01*
X7274765Y-10652759D02*
X7284289Y-10643235D01*
X7284289Y-10643235D02*
X7303337Y-10614664D01*
X7303337Y-10614664D02*
X7312861Y-10595616D01*
X7312861Y-10595616D02*
X7322384Y-10567045D01*
X7322384Y-10567045D02*
X7331908Y-10519426D01*
X7331908Y-10519426D02*
X7331908Y-10481331D01*
X7331908Y-10481331D02*
X7322384Y-10433712D01*
X7322384Y-10433712D02*
X7312861Y-10405140D01*
X7312861Y-10405140D02*
X7303337Y-10386093D01*
X7303337Y-10386093D02*
X7284289Y-10357521D01*
X7284289Y-10357521D02*
X7274765Y-10347997D01*
D12*
X2118750Y-10749085D02*
G75*
G02*
X2018750Y-10749085I-50000J0D01*
G01*
X2018750Y-10749085D02*
G75*
G02*
X2118750Y-10749085I50000J0D01*
G01*
D11*
X2484289Y-10840569D02*
X2370003Y-10840569D01*
X2427146Y-10840569D02*
X2427146Y-10640569D01*
X2427146Y-10640569D02*
X2408098Y-10669140D01*
X2408098Y-10669140D02*
X2389051Y-10688188D01*
X2389051Y-10688188D02*
X2370003Y-10697712D01*
X2570003Y-10821521D02*
X2579527Y-10831045D01*
X2579527Y-10831045D02*
X2570003Y-10840569D01*
X2570003Y-10840569D02*
X2560479Y-10831045D01*
X2560479Y-10831045D02*
X2570003Y-10821521D01*
X2570003Y-10821521D02*
X2570003Y-10840569D01*
X2703336Y-10640569D02*
X2722384Y-10640569D01*
X2722384Y-10640569D02*
X2741432Y-10650093D01*
X2741432Y-10650093D02*
X2750955Y-10659616D01*
X2750955Y-10659616D02*
X2760479Y-10678664D01*
X2760479Y-10678664D02*
X2770003Y-10716759D01*
X2770003Y-10716759D02*
X2770003Y-10764378D01*
X2770003Y-10764378D02*
X2760479Y-10802474D01*
X2760479Y-10802474D02*
X2750955Y-10821521D01*
X2750955Y-10821521D02*
X2741432Y-10831045D01*
X2741432Y-10831045D02*
X2722384Y-10840569D01*
X2722384Y-10840569D02*
X2703336Y-10840569D01*
X2703336Y-10840569D02*
X2684289Y-10831045D01*
X2684289Y-10831045D02*
X2674765Y-10821521D01*
X2674765Y-10821521D02*
X2665241Y-10802474D01*
X2665241Y-10802474D02*
X2655717Y-10764378D01*
X2655717Y-10764378D02*
X2655717Y-10716759D01*
X2655717Y-10716759D02*
X2665241Y-10678664D01*
X2665241Y-10678664D02*
X2674765Y-10659616D01*
X2674765Y-10659616D02*
X2684289Y-10650093D01*
X2684289Y-10650093D02*
X2703336Y-10640569D01*
X2893812Y-10640569D02*
X2912860Y-10640569D01*
X2912860Y-10640569D02*
X2931908Y-10650093D01*
X2931908Y-10650093D02*
X2941432Y-10659616D01*
X2941432Y-10659616D02*
X2950955Y-10678664D01*
X2950955Y-10678664D02*
X2960479Y-10716759D01*
X2960479Y-10716759D02*
X2960479Y-10764378D01*
X2960479Y-10764378D02*
X2950955Y-10802474D01*
X2950955Y-10802474D02*
X2941432Y-10821521D01*
X2941432Y-10821521D02*
X2931908Y-10831045D01*
X2931908Y-10831045D02*
X2912860Y-10840569D01*
X2912860Y-10840569D02*
X2893812Y-10840569D01*
X2893812Y-10840569D02*
X2874765Y-10831045D01*
X2874765Y-10831045D02*
X2865241Y-10821521D01*
X2865241Y-10821521D02*
X2855717Y-10802474D01*
X2855717Y-10802474D02*
X2846193Y-10764378D01*
X2846193Y-10764378D02*
X2846193Y-10716759D01*
X2846193Y-10716759D02*
X2855717Y-10678664D01*
X2855717Y-10678664D02*
X2865241Y-10659616D01*
X2865241Y-10659616D02*
X2874765Y-10650093D01*
X2874765Y-10650093D02*
X2893812Y-10640569D01*
X3084289Y-10640569D02*
X3103336Y-10640569D01*
X3103336Y-10640569D02*
X3122384Y-10650093D01*
X3122384Y-10650093D02*
X3131908Y-10659616D01*
X3131908Y-10659616D02*
X3141432Y-10678664D01*
X3141432Y-10678664D02*
X3150955Y-10716759D01*
X3150955Y-10716759D02*
X3150955Y-10764378D01*
X3150955Y-10764378D02*
X3141432Y-10802474D01*
X3141432Y-10802474D02*
X3131908Y-10821521D01*
X3131908Y-10821521D02*
X3122384Y-10831045D01*
X3122384Y-10831045D02*
X3103336Y-10840569D01*
X3103336Y-10840569D02*
X3084289Y-10840569D01*
X3084289Y-10840569D02*
X3065241Y-10831045D01*
X3065241Y-10831045D02*
X3055717Y-10821521D01*
X3055717Y-10821521D02*
X3046193Y-10802474D01*
X3046193Y-10802474D02*
X3036670Y-10764378D01*
X3036670Y-10764378D02*
X3036670Y-10716759D01*
X3036670Y-10716759D02*
X3046193Y-10678664D01*
X3046193Y-10678664D02*
X3055717Y-10659616D01*
X3055717Y-10659616D02*
X3065241Y-10650093D01*
X3065241Y-10650093D02*
X3084289Y-10640569D01*
X3236670Y-10840569D02*
X3236670Y-10707235D01*
X3236670Y-10726283D02*
X3246193Y-10716759D01*
X3246193Y-10716759D02*
X3265241Y-10707235D01*
X3265241Y-10707235D02*
X3293813Y-10707235D01*
X3293813Y-10707235D02*
X3312860Y-10716759D01*
X3312860Y-10716759D02*
X3322384Y-10735807D01*
X3322384Y-10735807D02*
X3322384Y-10840569D01*
X3322384Y-10735807D02*
X3331908Y-10716759D01*
X3331908Y-10716759D02*
X3350955Y-10707235D01*
X3350955Y-10707235D02*
X3379527Y-10707235D01*
X3379527Y-10707235D02*
X3398574Y-10716759D01*
X3398574Y-10716759D02*
X3408098Y-10735807D01*
X3408098Y-10735807D02*
X3408098Y-10840569D01*
X3503336Y-10840569D02*
X3503336Y-10707235D01*
X3503336Y-10726283D02*
X3512860Y-10716759D01*
X3512860Y-10716759D02*
X3531908Y-10707235D01*
X3531908Y-10707235D02*
X3560479Y-10707235D01*
X3560479Y-10707235D02*
X3579527Y-10716759D01*
X3579527Y-10716759D02*
X3589051Y-10735807D01*
X3589051Y-10735807D02*
X3589051Y-10840569D01*
X3589051Y-10735807D02*
X3598574Y-10716759D01*
X3598574Y-10716759D02*
X3617622Y-10707235D01*
X3617622Y-10707235D02*
X3646193Y-10707235D01*
X3646193Y-10707235D02*
X3665241Y-10716759D01*
X3665241Y-10716759D02*
X3674765Y-10735807D01*
X3674765Y-10735807D02*
X3674765Y-10840569D01*
X4065241Y-10631045D02*
X3893813Y-10888188D01*
X4322384Y-10640569D02*
X4341432Y-10640569D01*
X4341432Y-10640569D02*
X4360479Y-10650093D01*
X4360479Y-10650093D02*
X4370003Y-10659616D01*
X4370003Y-10659616D02*
X4379527Y-10678664D01*
X4379527Y-10678664D02*
X4389051Y-10716759D01*
X4389051Y-10716759D02*
X4389051Y-10764378D01*
X4389051Y-10764378D02*
X4379527Y-10802474D01*
X4379527Y-10802474D02*
X4370003Y-10821521D01*
X4370003Y-10821521D02*
X4360479Y-10831045D01*
X4360479Y-10831045D02*
X4341432Y-10840569D01*
X4341432Y-10840569D02*
X4322384Y-10840569D01*
X4322384Y-10840569D02*
X4303337Y-10831045D01*
X4303337Y-10831045D02*
X4293813Y-10821521D01*
X4293813Y-10821521D02*
X4284289Y-10802474D01*
X4284289Y-10802474D02*
X4274765Y-10764378D01*
X4274765Y-10764378D02*
X4274765Y-10716759D01*
X4274765Y-10716759D02*
X4284289Y-10678664D01*
X4284289Y-10678664D02*
X4293813Y-10659616D01*
X4293813Y-10659616D02*
X4303337Y-10650093D01*
X4303337Y-10650093D02*
X4322384Y-10640569D01*
X4474765Y-10821521D02*
X4484289Y-10831045D01*
X4484289Y-10831045D02*
X4474765Y-10840569D01*
X4474765Y-10840569D02*
X4465241Y-10831045D01*
X4465241Y-10831045D02*
X4474765Y-10821521D01*
X4474765Y-10821521D02*
X4474765Y-10840569D01*
X4608098Y-10640569D02*
X4627146Y-10640569D01*
X4627146Y-10640569D02*
X4646194Y-10650093D01*
X4646194Y-10650093D02*
X4655718Y-10659616D01*
X4655718Y-10659616D02*
X4665241Y-10678664D01*
X4665241Y-10678664D02*
X4674765Y-10716759D01*
X4674765Y-10716759D02*
X4674765Y-10764378D01*
X4674765Y-10764378D02*
X4665241Y-10802474D01*
X4665241Y-10802474D02*
X4655718Y-10821521D01*
X4655718Y-10821521D02*
X4646194Y-10831045D01*
X4646194Y-10831045D02*
X4627146Y-10840569D01*
X4627146Y-10840569D02*
X4608098Y-10840569D01*
X4608098Y-10840569D02*
X4589051Y-10831045D01*
X4589051Y-10831045D02*
X4579527Y-10821521D01*
X4579527Y-10821521D02*
X4570003Y-10802474D01*
X4570003Y-10802474D02*
X4560479Y-10764378D01*
X4560479Y-10764378D02*
X4560479Y-10716759D01*
X4560479Y-10716759D02*
X4570003Y-10678664D01*
X4570003Y-10678664D02*
X4579527Y-10659616D01*
X4579527Y-10659616D02*
X4589051Y-10650093D01*
X4589051Y-10650093D02*
X4608098Y-10640569D01*
X4741432Y-10640569D02*
X4865241Y-10640569D01*
X4865241Y-10640569D02*
X4798575Y-10716759D01*
X4798575Y-10716759D02*
X4827146Y-10716759D01*
X4827146Y-10716759D02*
X4846194Y-10726283D01*
X4846194Y-10726283D02*
X4855718Y-10735807D01*
X4855718Y-10735807D02*
X4865241Y-10754855D01*
X4865241Y-10754855D02*
X4865241Y-10802474D01*
X4865241Y-10802474D02*
X4855718Y-10821521D01*
X4855718Y-10821521D02*
X4846194Y-10831045D01*
X4846194Y-10831045D02*
X4827146Y-10840569D01*
X4827146Y-10840569D02*
X4770003Y-10840569D01*
X4770003Y-10840569D02*
X4750956Y-10831045D01*
X4750956Y-10831045D02*
X4741432Y-10821521D01*
X4960479Y-10840569D02*
X4998575Y-10840569D01*
X4998575Y-10840569D02*
X5017622Y-10831045D01*
X5017622Y-10831045D02*
X5027146Y-10821521D01*
X5027146Y-10821521D02*
X5046194Y-10792950D01*
X5046194Y-10792950D02*
X5055718Y-10754855D01*
X5055718Y-10754855D02*
X5055718Y-10678664D01*
X5055718Y-10678664D02*
X5046194Y-10659616D01*
X5046194Y-10659616D02*
X5036670Y-10650093D01*
X5036670Y-10650093D02*
X5017622Y-10640569D01*
X5017622Y-10640569D02*
X4979527Y-10640569D01*
X4979527Y-10640569D02*
X4960479Y-10650093D01*
X4960479Y-10650093D02*
X4950956Y-10659616D01*
X4950956Y-10659616D02*
X4941432Y-10678664D01*
X4941432Y-10678664D02*
X4941432Y-10726283D01*
X4941432Y-10726283D02*
X4950956Y-10745331D01*
X4950956Y-10745331D02*
X4960479Y-10754855D01*
X4960479Y-10754855D02*
X4979527Y-10764378D01*
X4979527Y-10764378D02*
X5017622Y-10764378D01*
X5017622Y-10764378D02*
X5036670Y-10754855D01*
X5036670Y-10754855D02*
X5046194Y-10745331D01*
X5046194Y-10745331D02*
X5055718Y-10726283D01*
X5227146Y-10707235D02*
X5227146Y-10840569D01*
X5179527Y-10631045D02*
X5131908Y-10773902D01*
X5131908Y-10773902D02*
X5255718Y-10773902D01*
X5322384Y-10640569D02*
X5322384Y-10678664D01*
X5398575Y-10640569D02*
X5398575Y-10678664D01*
X5693813Y-10916759D02*
X5684289Y-10907235D01*
X5684289Y-10907235D02*
X5665241Y-10878664D01*
X5665241Y-10878664D02*
X5655718Y-10859616D01*
X5655718Y-10859616D02*
X5646194Y-10831045D01*
X5646194Y-10831045D02*
X5636670Y-10783426D01*
X5636670Y-10783426D02*
X5636670Y-10745331D01*
X5636670Y-10745331D02*
X5646194Y-10697712D01*
X5646194Y-10697712D02*
X5655718Y-10669140D01*
X5655718Y-10669140D02*
X5665241Y-10650093D01*
X5665241Y-10650093D02*
X5684289Y-10621521D01*
X5684289Y-10621521D02*
X5693813Y-10611997D01*
X5750956Y-10640569D02*
X5874765Y-10640569D01*
X5874765Y-10640569D02*
X5808098Y-10716759D01*
X5808098Y-10716759D02*
X5836670Y-10716759D01*
X5836670Y-10716759D02*
X5855718Y-10726283D01*
X5855718Y-10726283D02*
X5865241Y-10735807D01*
X5865241Y-10735807D02*
X5874765Y-10754855D01*
X5874765Y-10754855D02*
X5874765Y-10802474D01*
X5874765Y-10802474D02*
X5865241Y-10821521D01*
X5865241Y-10821521D02*
X5855718Y-10831045D01*
X5855718Y-10831045D02*
X5836670Y-10840569D01*
X5836670Y-10840569D02*
X5779527Y-10840569D01*
X5779527Y-10840569D02*
X5760479Y-10831045D01*
X5760479Y-10831045D02*
X5750956Y-10821521D01*
X5998575Y-10640569D02*
X6017622Y-10640569D01*
X6017622Y-10640569D02*
X6036670Y-10650093D01*
X6036670Y-10650093D02*
X6046194Y-10659616D01*
X6046194Y-10659616D02*
X6055718Y-10678664D01*
X6055718Y-10678664D02*
X6065241Y-10716759D01*
X6065241Y-10716759D02*
X6065241Y-10764378D01*
X6065241Y-10764378D02*
X6055718Y-10802474D01*
X6055718Y-10802474D02*
X6046194Y-10821521D01*
X6046194Y-10821521D02*
X6036670Y-10831045D01*
X6036670Y-10831045D02*
X6017622Y-10840569D01*
X6017622Y-10840569D02*
X5998575Y-10840569D01*
X5998575Y-10840569D02*
X5979527Y-10831045D01*
X5979527Y-10831045D02*
X5970003Y-10821521D01*
X5970003Y-10821521D02*
X5960479Y-10802474D01*
X5960479Y-10802474D02*
X5950956Y-10764378D01*
X5950956Y-10764378D02*
X5950956Y-10716759D01*
X5950956Y-10716759D02*
X5960479Y-10678664D01*
X5960479Y-10678664D02*
X5970003Y-10659616D01*
X5970003Y-10659616D02*
X5979527Y-10650093D01*
X5979527Y-10650093D02*
X5998575Y-10640569D01*
X6303337Y-10840569D02*
X6303337Y-10640569D01*
X6389051Y-10840569D02*
X6389051Y-10735807D01*
X6389051Y-10735807D02*
X6379527Y-10716759D01*
X6379527Y-10716759D02*
X6360480Y-10707235D01*
X6360480Y-10707235D02*
X6331908Y-10707235D01*
X6331908Y-10707235D02*
X6312860Y-10716759D01*
X6312860Y-10716759D02*
X6303337Y-10726283D01*
X6512860Y-10840569D02*
X6493813Y-10831045D01*
X6493813Y-10831045D02*
X6484289Y-10821521D01*
X6484289Y-10821521D02*
X6474765Y-10802474D01*
X6474765Y-10802474D02*
X6474765Y-10745331D01*
X6474765Y-10745331D02*
X6484289Y-10726283D01*
X6484289Y-10726283D02*
X6493813Y-10716759D01*
X6493813Y-10716759D02*
X6512860Y-10707235D01*
X6512860Y-10707235D02*
X6541432Y-10707235D01*
X6541432Y-10707235D02*
X6560480Y-10716759D01*
X6560480Y-10716759D02*
X6570003Y-10726283D01*
X6570003Y-10726283D02*
X6579527Y-10745331D01*
X6579527Y-10745331D02*
X6579527Y-10802474D01*
X6579527Y-10802474D02*
X6570003Y-10821521D01*
X6570003Y-10821521D02*
X6560480Y-10831045D01*
X6560480Y-10831045D02*
X6541432Y-10840569D01*
X6541432Y-10840569D02*
X6512860Y-10840569D01*
X6693813Y-10840569D02*
X6674765Y-10831045D01*
X6674765Y-10831045D02*
X6665241Y-10811997D01*
X6665241Y-10811997D02*
X6665241Y-10640569D01*
X6846194Y-10831045D02*
X6827146Y-10840569D01*
X6827146Y-10840569D02*
X6789051Y-10840569D01*
X6789051Y-10840569D02*
X6770003Y-10831045D01*
X6770003Y-10831045D02*
X6760480Y-10811997D01*
X6760480Y-10811997D02*
X6760480Y-10735807D01*
X6760480Y-10735807D02*
X6770003Y-10716759D01*
X6770003Y-10716759D02*
X6789051Y-10707235D01*
X6789051Y-10707235D02*
X6827146Y-10707235D01*
X6827146Y-10707235D02*
X6846194Y-10716759D01*
X6846194Y-10716759D02*
X6855718Y-10735807D01*
X6855718Y-10735807D02*
X6855718Y-10754855D01*
X6855718Y-10754855D02*
X6760480Y-10773902D01*
X6931908Y-10831045D02*
X6950956Y-10840569D01*
X6950956Y-10840569D02*
X6989051Y-10840569D01*
X6989051Y-10840569D02*
X7008099Y-10831045D01*
X7008099Y-10831045D02*
X7017622Y-10811997D01*
X7017622Y-10811997D02*
X7017622Y-10802474D01*
X7017622Y-10802474D02*
X7008099Y-10783426D01*
X7008099Y-10783426D02*
X6989051Y-10773902D01*
X6989051Y-10773902D02*
X6960480Y-10773902D01*
X6960480Y-10773902D02*
X6941432Y-10764378D01*
X6941432Y-10764378D02*
X6931908Y-10745331D01*
X6931908Y-10745331D02*
X6931908Y-10735807D01*
X6931908Y-10735807D02*
X6941432Y-10716759D01*
X6941432Y-10716759D02*
X6960480Y-10707235D01*
X6960480Y-10707235D02*
X6989051Y-10707235D01*
X6989051Y-10707235D02*
X7008099Y-10716759D01*
X7084289Y-10916759D02*
X7093813Y-10907235D01*
X7093813Y-10907235D02*
X7112861Y-10878664D01*
X7112861Y-10878664D02*
X7122384Y-10859616D01*
X7122384Y-10859616D02*
X7131908Y-10831045D01*
X7131908Y-10831045D02*
X7141432Y-10783426D01*
X7141432Y-10783426D02*
X7141432Y-10745331D01*
X7141432Y-10745331D02*
X7131908Y-10697712D01*
X7131908Y-10697712D02*
X7122384Y-10669140D01*
X7122384Y-10669140D02*
X7112861Y-10650093D01*
X7112861Y-10650093D02*
X7093813Y-10621521D01*
X7093813Y-10621521D02*
X7084289Y-10611997D01*
M02*
