M48
; DRILL file {KiCad 9.0.0} date 2025-04-19T15:35:50+0900
; FORMAT={-:-/ absolute / metric / decimal}
; #@! TF.CreationDate,2025-04-19T15:35:50+09:00
; #@! TF.GenerationSoftware,Kicad,Pcbnew,9.0.0
; #@! TF.FileFunction,NonPlated,1,2,NPTH
FMAT,2
METRIC
; #@! TA.AperFunction,NonPlated,NPTH,ComponentDrill
T1C2.200
; #@! TA.AperFunction,NonPlated,NPTH,ComponentDrill
T2C3.000
; #@! TA.AperFunction,NonPlated,NPTH,ComponentDrill
T3C4.800
%
G90
G05
T1
X53.912Y-58.826
X105.412Y-81.626
X105.812Y-47.626
T2
X22.912Y-90.126
X25.112Y-85.126
X28.812Y-33.226
X28.812Y-50.226
X28.812Y-67.226
X33.812Y-35.426
X33.812Y-52.426
X33.812Y-69.426
X39.913Y-84.326
X42.112Y-79.326
X45.812Y-27.401
X45.812Y-44.426
X45.812Y-61.426
X50.812Y-29.601
X50.812Y-46.626
X50.812Y-63.626
X57.812Y-51.626
X57.812Y-68.626
X62.812Y-25.026
X62.812Y-53.826
X62.812Y-70.826
X67.812Y-27.226
X79.812Y-21.926
X79.812Y-38.926
X79.812Y-55.926
X84.812Y-24.126
X84.812Y-41.126
X84.812Y-58.126
X91.812Y-34.626
X91.812Y-51.626
X91.812Y-68.626
X96.812Y-36.826
X96.812Y-53.826
X96.812Y-70.826
X108.812Y-42.826
X108.812Y-59.826
X108.812Y-76.826
X108.812Y-93.826
X113.812Y-45.026
X113.812Y-62.026
X113.812Y-79.026
X113.812Y-96.026
T3
X28.812Y-39.126
X28.812Y-56.126
X28.812Y-73.126
X28.812Y-90.126
X45.812Y-33.301
X45.812Y-50.326
X45.812Y-67.326
X45.812Y-84.326
X62.812Y-30.926
X62.812Y-47.926
X62.812Y-64.926
X79.812Y-27.826
X79.812Y-44.826
X79.812Y-61.826
X96.812Y-30.926
X96.812Y-47.926
X96.812Y-64.926
X113.812Y-39.126
X113.812Y-56.126
X113.812Y-73.126
X113.812Y-90.126
M30
