M48
; DRILL file {KiCad 9.0.0} date 2025-04-21T18:55:11+0900
; FORMAT={-:-/ absolute / metric / decimal}
; #@! TF.CreationDate,2025-04-21T18:55:11+09:00
; #@! TF.GenerationSoftware,Kicad,Pcbnew,9.0.0
; #@! TF.FileFunction,NonPlated,1,2,NPTH
FMAT,2
METRIC
; #@! TA.AperFunction,NonPlated,NPTH,ComponentDrill
T1C2.200
; #@! TA.AperFunction,NonPlated,NPTH,ComponentDrill
T2C3.000
; #@! TA.AperFunction,NonPlated,NPTH,ComponentDrill
T3C4.800
%
G90
G05
T1
X134.7Y-52.4
X186.2Y-75.2
X186.6Y-41.2
T2
X103.7Y-83.7
X105.9Y-78.7
X109.6Y-26.8
X109.6Y-43.8
X109.6Y-60.8
X114.6Y-29.0
X114.6Y-46.0
X114.6Y-63.0
X120.7Y-77.9
X122.9Y-72.9
X126.6Y-20.975
X126.6Y-38.0
X126.6Y-55.0
X131.6Y-23.175
X131.6Y-40.2
X131.6Y-57.2
X138.6Y-45.2
X138.6Y-62.2
X143.6Y-18.6
X143.6Y-47.4
X143.6Y-64.4
X148.6Y-20.8
X160.6Y-15.5
X160.6Y-32.5
X160.6Y-49.5
X165.6Y-17.7
X165.6Y-34.7
X165.6Y-51.7
X172.6Y-28.2
X172.6Y-45.2
X172.6Y-62.2
X177.6Y-30.4
X177.6Y-47.4
X177.6Y-64.4
X189.6Y-36.4
X189.6Y-53.4
X189.6Y-70.4
X189.6Y-87.4
X194.6Y-38.6
X194.6Y-55.6
X194.6Y-72.6
X194.6Y-89.6
T3
X109.6Y-32.7
X109.6Y-49.7
X109.6Y-66.7
X109.6Y-83.7
X126.6Y-26.875
X126.6Y-43.9
X126.6Y-60.9
X126.6Y-77.9
X143.6Y-24.5
X143.6Y-41.5
X143.6Y-58.5
X160.6Y-21.4
X160.6Y-38.4
X160.6Y-55.4
X177.6Y-24.5
X177.6Y-41.5
X177.6Y-58.5
X194.6Y-32.7
X194.6Y-49.7
X194.6Y-66.7
X194.6Y-83.7
M30
