G04 #@! TF.GenerationSoftware,KiCad,Pcbnew,9.0.0*
G04 #@! TF.CreationDate,2025-04-21T18:55:09+09:00*
G04 #@! TF.ProjectId,nofy_V2_R,6e6f6679-5f56-4325-9f52-2e6b69636164,rev?*
G04 #@! TF.SameCoordinates,Original*
G04 #@! TF.FileFunction,Legend,Bot*
G04 #@! TF.FilePolarity,Positive*
%FSLAX46Y46*%
G04 Gerber Fmt 4.6, Leading zero omitted, Abs format (unit mm)*
G04 Created by KiCad (PCBNEW 9.0.0) date 2025-04-21 18:55:09*
%MOMM*%
%LPD*%
G01*
G04 APERTURE LIST*
%ADD10C,0.100000*%
%ADD11C,0.125000*%
%ADD12C,0.200000*%
%ADD13C,0.150000*%
%ADD14C,0.500000*%
G04 APERTURE END LIST*
D10*
X131200000Y-26300000D02*
X137150000Y-26300000D01*
X137150000Y-36250000D01*
X131200000Y-36250000D01*
X131200000Y-26300000D01*
D11*
X108579668Y-90354452D02*
X108579668Y-91021119D01*
X108579668Y-90449690D02*
X108532049Y-90402071D01*
X108532049Y-90402071D02*
X108436811Y-90354452D01*
X108436811Y-90354452D02*
X108293954Y-90354452D01*
X108293954Y-90354452D02*
X108198716Y-90402071D01*
X108198716Y-90402071D02*
X108151097Y-90497309D01*
X108151097Y-90497309D02*
X108151097Y-91021119D01*
X107532049Y-91021119D02*
X107627287Y-90973500D01*
X107627287Y-90973500D02*
X107674906Y-90925880D01*
X107674906Y-90925880D02*
X107722525Y-90830642D01*
X107722525Y-90830642D02*
X107722525Y-90544928D01*
X107722525Y-90544928D02*
X107674906Y-90449690D01*
X107674906Y-90449690D02*
X107627287Y-90402071D01*
X107627287Y-90402071D02*
X107532049Y-90354452D01*
X107532049Y-90354452D02*
X107389192Y-90354452D01*
X107389192Y-90354452D02*
X107293954Y-90402071D01*
X107293954Y-90402071D02*
X107246335Y-90449690D01*
X107246335Y-90449690D02*
X107198716Y-90544928D01*
X107198716Y-90544928D02*
X107198716Y-90830642D01*
X107198716Y-90830642D02*
X107246335Y-90925880D01*
X107246335Y-90925880D02*
X107293954Y-90973500D01*
X107293954Y-90973500D02*
X107389192Y-91021119D01*
X107389192Y-91021119D02*
X107532049Y-91021119D01*
X106913001Y-90354452D02*
X106532049Y-90354452D01*
X106770144Y-91021119D02*
X106770144Y-90163976D01*
X106770144Y-90163976D02*
X106722525Y-90068738D01*
X106722525Y-90068738D02*
X106627287Y-90021119D01*
X106627287Y-90021119D02*
X106532049Y-90021119D01*
X106293953Y-90354452D02*
X106055858Y-91021119D01*
X105817763Y-90354452D02*
X106055858Y-91021119D01*
X106055858Y-91021119D02*
X106151096Y-91259214D01*
X106151096Y-91259214D02*
X106198715Y-91306833D01*
X106198715Y-91306833D02*
X106293953Y-91354452D01*
X104817762Y-90021119D02*
X104484429Y-91021119D01*
X104484429Y-91021119D02*
X104151096Y-90021119D01*
X103865381Y-90116357D02*
X103817762Y-90068738D01*
X103817762Y-90068738D02*
X103722524Y-90021119D01*
X103722524Y-90021119D02*
X103484429Y-90021119D01*
X103484429Y-90021119D02*
X103389191Y-90068738D01*
X103389191Y-90068738D02*
X103341572Y-90116357D01*
X103341572Y-90116357D02*
X103293953Y-90211595D01*
X103293953Y-90211595D02*
X103293953Y-90306833D01*
X103293953Y-90306833D02*
X103341572Y-90449690D01*
X103341572Y-90449690D02*
X103913000Y-91021119D01*
X103913000Y-91021119D02*
X103293953Y-91021119D01*
D12*
X173132843Y-51650000D02*
X173331281Y-51650000D01*
X173331281Y-51054686D02*
X173331281Y-52245314D01*
X173331281Y-52245314D02*
X174918785Y-52245314D01*
X173728157Y-52245314D02*
X173728157Y-51054686D01*
X174918785Y-51054686D02*
X173331281Y-51054686D01*
X174918785Y-51650000D02*
X175117223Y-51650000D01*
X174918785Y-52245314D02*
X174918785Y-51054686D01*
X142582843Y-27900000D02*
X142781281Y-27900000D01*
X142781281Y-27304686D02*
X142781281Y-28495314D01*
X142781281Y-28495314D02*
X144368785Y-28495314D01*
X143178157Y-28495314D02*
X143178157Y-27304686D01*
X144368785Y-27304686D02*
X142781281Y-27304686D01*
X144368785Y-27900000D02*
X144567223Y-27900000D01*
X144368785Y-28495314D02*
X144368785Y-27304686D01*
X145485943Y-54050000D02*
X145684381Y-54050000D01*
X145684381Y-53454686D02*
X145684381Y-54645314D01*
X145684381Y-54645314D02*
X147271885Y-54645314D01*
X146081257Y-54645314D02*
X146081257Y-53454686D01*
X147271885Y-53454686D02*
X145684381Y-53454686D01*
X147271885Y-54050000D02*
X147470323Y-54050000D01*
X147271885Y-54645314D02*
X147271885Y-53454686D01*
D13*
X124300000Y-53675000D02*
X125300000Y-52675000D01*
X124300000Y-56325000D02*
X124300000Y-53675000D01*
X124300000Y-56325000D02*
X125300000Y-57325000D01*
X124450000Y-53530000D02*
X124450000Y-56460000D01*
X124550000Y-53450000D02*
X124550000Y-56570000D01*
X124650000Y-53340000D02*
X124650000Y-56670000D01*
X124750000Y-53240000D02*
X124750000Y-56770000D01*
X124900000Y-53080000D02*
X124900000Y-56910000D01*
X125050000Y-52950000D02*
X125050000Y-57070000D01*
X125200000Y-52810000D02*
X125200000Y-57200000D01*
X125300000Y-52675000D02*
X127625000Y-52675000D01*
X125300000Y-57325000D02*
X127875000Y-57325000D01*
X125350000Y-52700000D02*
X125350000Y-57300000D01*
X125500000Y-52700000D02*
X125500000Y-57300000D01*
X125650000Y-52700000D02*
X125650000Y-57300000D01*
X125800000Y-52700000D02*
X125800000Y-57300000D01*
X125950000Y-52700000D02*
X125950000Y-57300000D01*
X126100000Y-52700000D02*
X126100000Y-57300000D01*
X126250000Y-52700000D02*
X126250000Y-57300000D01*
X126400000Y-52700000D02*
X126400000Y-57300000D01*
X126550000Y-52700000D02*
X126550000Y-57300000D01*
X126700000Y-52700000D02*
X126700000Y-57300000D01*
X126850000Y-52700000D02*
X126850000Y-57300000D01*
X127000000Y-52700000D02*
X127000000Y-57300000D01*
X127150000Y-52700000D02*
X127150000Y-57300000D01*
X127300000Y-52700000D02*
X127300000Y-57300000D01*
X127450000Y-52700000D02*
X127450000Y-57300000D01*
X127600000Y-52700000D02*
X127600000Y-57300000D01*
X127750000Y-52790000D02*
X127750000Y-57250000D01*
X127900000Y-52910000D02*
X127900000Y-57300000D01*
X128050000Y-53020000D02*
X128050000Y-57300000D01*
X128200000Y-53140000D02*
X128200000Y-57300000D01*
X128350000Y-53280000D02*
X128350000Y-57400000D01*
X128490000Y-53380000D02*
X128500000Y-57450000D01*
X128600000Y-53470000D02*
X128600000Y-57500000D01*
X128700000Y-53550000D02*
X128700000Y-57550000D01*
X128800000Y-53630000D02*
X128800000Y-57650000D01*
X128900000Y-53700000D02*
X127625000Y-52675000D01*
X128900000Y-53700000D02*
X128900000Y-57850000D01*
X129000000Y-53880000D02*
X129000000Y-58000000D01*
X129050000Y-58500000D02*
X129050000Y-58823113D01*
X129100000Y-54050000D02*
X129100000Y-58950000D01*
X129250000Y-54200000D02*
X129250000Y-59150000D01*
X129400000Y-54350000D02*
X129400000Y-59340000D01*
X129550000Y-54450000D02*
X129550000Y-59420000D01*
X129700000Y-54550000D02*
X129700000Y-59470000D01*
X129850000Y-54650000D02*
X129850000Y-59500000D01*
X129911204Y-59525000D02*
X132875000Y-59525000D01*
X130000000Y-54700000D02*
X130000000Y-59520000D01*
X130150000Y-54800000D02*
X130150000Y-59510000D01*
X130300000Y-54850000D02*
X130300000Y-59450000D01*
X130450000Y-54850000D02*
X130450000Y-59500000D01*
X130600000Y-54860000D02*
X130600000Y-59500000D01*
X130750000Y-54900000D02*
X130750000Y-59450000D01*
X130900000Y-54875000D02*
X132875000Y-54875000D01*
X130900000Y-54900000D02*
X130900000Y-59500000D01*
X131050000Y-54900000D02*
X131050000Y-59500000D01*
X131200000Y-54900000D02*
X131200000Y-59500000D01*
X131350000Y-54900000D02*
X131350000Y-59500000D01*
X131500000Y-54900000D02*
X131500000Y-59500000D01*
X131650000Y-54900000D02*
X131650000Y-59500000D01*
X131800000Y-54900000D02*
X131800000Y-59500000D01*
X131950000Y-54900000D02*
X131950000Y-59500000D01*
X132100000Y-54900000D02*
X132100000Y-59500000D01*
X132250000Y-54900000D02*
X132250000Y-59500000D01*
X132400000Y-54900000D02*
X132400000Y-59500000D01*
D14*
X132400000Y-59345000D02*
X134950000Y-59345000D01*
D13*
X132550000Y-54900000D02*
X132550000Y-59500000D01*
X132700000Y-54900000D02*
X132700000Y-59500000D01*
X132850000Y-54900000D02*
X132850000Y-59500000D01*
X133000000Y-54890000D02*
X133000000Y-59400000D01*
X133150000Y-54930000D02*
X133150000Y-59250000D01*
X133300000Y-54980000D02*
X133300000Y-59100000D01*
X133450000Y-55060000D02*
X133450000Y-59200000D01*
X133600000Y-55200000D02*
X133600000Y-59170000D01*
X133750000Y-55370000D02*
X133750000Y-59050000D01*
X133905000Y-58525000D02*
X133905000Y-55875000D01*
X127875000Y-57325000D02*
G75*
G02*
X129050000Y-58500000I-2J-1175002D01*
G01*
X129911204Y-59525000D02*
G75*
G02*
X129050000Y-58823113I38796J926887D01*
G01*
X130900000Y-54882542D02*
G75*
G02*
X128900000Y-53700000I2J2282546D01*
G01*
X132905000Y-54875000D02*
G75*
G02*
X133905000Y-55875000I1J-999999D01*
G01*
X133905000Y-58525000D02*
G75*
G02*
X132905000Y-59525000I-999999J-1D01*
G01*
X158300000Y-48175000D02*
X159300000Y-47175000D01*
X158300000Y-50825000D02*
X158300000Y-48175000D01*
X158300000Y-50825000D02*
X159300000Y-51825000D01*
X158450000Y-48030000D02*
X158450000Y-50960000D01*
X158550000Y-47950000D02*
X158550000Y-51070000D01*
X158650000Y-47840000D02*
X158650000Y-51170000D01*
X158750000Y-47740000D02*
X158750000Y-51270000D01*
X158900000Y-47580000D02*
X158900000Y-51410000D01*
X159050000Y-47450000D02*
X159050000Y-51570000D01*
X159200000Y-47310000D02*
X159200000Y-51700000D01*
X159300000Y-47175000D02*
X161625000Y-47175000D01*
X159300000Y-51825000D02*
X161875000Y-51825000D01*
X159350000Y-47200000D02*
X159350000Y-51800000D01*
X159500000Y-47200000D02*
X159500000Y-51800000D01*
X159650000Y-47200000D02*
X159650000Y-51800000D01*
X159800000Y-47200000D02*
X159800000Y-51800000D01*
X159950000Y-47200000D02*
X159950000Y-51800000D01*
X160100000Y-47200000D02*
X160100000Y-51800000D01*
X160250000Y-47200000D02*
X160250000Y-51800000D01*
X160400000Y-47200000D02*
X160400000Y-51800000D01*
X160550000Y-47200000D02*
X160550000Y-51800000D01*
X160700000Y-47200000D02*
X160700000Y-51800000D01*
X160850000Y-47200000D02*
X160850000Y-51800000D01*
X161000000Y-47200000D02*
X161000000Y-51800000D01*
X161150000Y-47200000D02*
X161150000Y-51800000D01*
X161300000Y-47200000D02*
X161300000Y-51800000D01*
X161450000Y-47200000D02*
X161450000Y-51800000D01*
X161600000Y-47200000D02*
X161600000Y-51800000D01*
X161750000Y-47290000D02*
X161750000Y-51750000D01*
X161900000Y-47410000D02*
X161900000Y-51800000D01*
X162050000Y-47520000D02*
X162050000Y-51800000D01*
X162200000Y-47640000D02*
X162200000Y-51800000D01*
X162350000Y-47780000D02*
X162350000Y-51900000D01*
X162490000Y-47880000D02*
X162500000Y-51950000D01*
X162600000Y-47970000D02*
X162600000Y-52000000D01*
X162700000Y-48050000D02*
X162700000Y-52050000D01*
X162800000Y-48130000D02*
X162800000Y-52150000D01*
X162900000Y-48200000D02*
X161625000Y-47175000D01*
X162900000Y-48200000D02*
X162900000Y-52350000D01*
X163000000Y-48380000D02*
X163000000Y-52500000D01*
X163050000Y-53000000D02*
X163050000Y-53323113D01*
X163100000Y-48550000D02*
X163100000Y-53450000D01*
X163250000Y-48700000D02*
X163250000Y-53650000D01*
X163400000Y-48850000D02*
X163400000Y-53840000D01*
X163550000Y-48950000D02*
X163550000Y-53920000D01*
X163700000Y-49050000D02*
X163700000Y-53970000D01*
X163850000Y-49150000D02*
X163850000Y-54000000D01*
X163911204Y-54025000D02*
X166875000Y-54025000D01*
X164000000Y-49200000D02*
X164000000Y-54020000D01*
X164150000Y-49300000D02*
X164150000Y-54010000D01*
X164300000Y-49350000D02*
X164300000Y-53950000D01*
X164450000Y-49350000D02*
X164450000Y-54000000D01*
X164600000Y-49360000D02*
X164600000Y-54000000D01*
X164750000Y-49400000D02*
X164750000Y-53950000D01*
X164900000Y-49375000D02*
X166875000Y-49375000D01*
X164900000Y-49400000D02*
X164900000Y-54000000D01*
X165050000Y-49400000D02*
X165050000Y-54000000D01*
X165200000Y-49400000D02*
X165200000Y-54000000D01*
X165350000Y-49400000D02*
X165350000Y-54000000D01*
X165500000Y-49400000D02*
X165500000Y-54000000D01*
X165650000Y-49400000D02*
X165650000Y-54000000D01*
X165800000Y-49400000D02*
X165800000Y-54000000D01*
X165950000Y-49400000D02*
X165950000Y-54000000D01*
X166100000Y-49400000D02*
X166100000Y-54000000D01*
X166250000Y-49400000D02*
X166250000Y-54000000D01*
X166400000Y-49400000D02*
X166400000Y-54000000D01*
D14*
X166400000Y-53845000D02*
X168950000Y-53845000D01*
D13*
X166550000Y-49400000D02*
X166550000Y-54000000D01*
X166700000Y-49400000D02*
X166700000Y-54000000D01*
X166850000Y-49400000D02*
X166850000Y-54000000D01*
X167000000Y-49390000D02*
X167000000Y-53900000D01*
X167150000Y-49430000D02*
X167150000Y-53750000D01*
X167300000Y-49480000D02*
X167300000Y-53600000D01*
X167450000Y-49560000D02*
X167450000Y-53700000D01*
X167600000Y-49700000D02*
X167600000Y-53670000D01*
X167750000Y-49870000D02*
X167750000Y-53550000D01*
X167905000Y-53025000D02*
X167905000Y-50375000D01*
X161875000Y-51825000D02*
G75*
G02*
X163050000Y-53000000I-2J-1175002D01*
G01*
X163911204Y-54025000D02*
G75*
G02*
X163050000Y-53323113I38796J926887D01*
G01*
X164900000Y-49382542D02*
G75*
G02*
X162900000Y-48200000I2J2282546D01*
G01*
X166905000Y-49375000D02*
G75*
G02*
X167905000Y-50375000I1J-999999D01*
G01*
X167905000Y-53025000D02*
G75*
G02*
X166905000Y-54025000I-999999J-1D01*
G01*
X170295000Y-43875000D02*
X170295000Y-46525000D01*
X170450000Y-47030000D02*
X170450000Y-43350000D01*
X170600000Y-47200000D02*
X170600000Y-43230000D01*
X170750000Y-47340000D02*
X170750000Y-43200000D01*
X170900000Y-47420000D02*
X170900000Y-43300000D01*
X171050000Y-47470000D02*
X171050000Y-43150000D01*
X171200000Y-47510000D02*
X171200000Y-43000000D01*
X171350000Y-47500000D02*
X171350000Y-42900000D01*
X171500000Y-47500000D02*
X171500000Y-42900000D01*
X171650000Y-47500000D02*
X171650000Y-42900000D01*
D14*
X171800000Y-43055000D02*
X169250000Y-43055000D01*
D13*
X171800000Y-47500000D02*
X171800000Y-42900000D01*
X171950000Y-47500000D02*
X171950000Y-42900000D01*
X172100000Y-47500000D02*
X172100000Y-42900000D01*
X172250000Y-47500000D02*
X172250000Y-42900000D01*
X172400000Y-47500000D02*
X172400000Y-42900000D01*
X172550000Y-47500000D02*
X172550000Y-42900000D01*
X172700000Y-47500000D02*
X172700000Y-42900000D01*
X172850000Y-47500000D02*
X172850000Y-42900000D01*
X173000000Y-47500000D02*
X173000000Y-42900000D01*
X173150000Y-47500000D02*
X173150000Y-42900000D01*
X173300000Y-47500000D02*
X173300000Y-42900000D01*
X173300000Y-47525000D02*
X171325000Y-47525000D01*
X173450000Y-47500000D02*
X173450000Y-42950000D01*
X173600000Y-47540000D02*
X173600000Y-42900000D01*
X173750000Y-47550000D02*
X173750000Y-42900000D01*
X173900000Y-47550000D02*
X173900000Y-42950000D01*
X174050000Y-47600000D02*
X174050000Y-42890000D01*
X174200000Y-47700000D02*
X174200000Y-42880000D01*
X174288796Y-42875000D02*
X171325000Y-42875000D01*
X174350000Y-47750000D02*
X174350000Y-42900000D01*
X174500000Y-47850000D02*
X174500000Y-42930000D01*
X174650000Y-47950000D02*
X174650000Y-42980000D01*
X174800000Y-48050000D02*
X174800000Y-43060000D01*
X174950000Y-48200000D02*
X174950000Y-43250000D01*
X175100000Y-48350000D02*
X175100000Y-43450000D01*
X175150000Y-43900000D02*
X175150000Y-43576887D01*
X175200000Y-48520000D02*
X175200000Y-44400000D01*
X175300000Y-48700000D02*
X175300000Y-44550000D01*
X175300000Y-48700000D02*
X176575000Y-49725000D01*
X175400000Y-48770000D02*
X175400000Y-44750000D01*
X175500000Y-48850000D02*
X175500000Y-44850000D01*
X175600000Y-48930000D02*
X175600000Y-44900000D01*
X175710000Y-49020000D02*
X175700000Y-44950000D01*
X175850000Y-49120000D02*
X175850000Y-45000000D01*
X176000000Y-49260000D02*
X176000000Y-45100000D01*
X176150000Y-49380000D02*
X176150000Y-45100000D01*
X176300000Y-49490000D02*
X176300000Y-45100000D01*
X176450000Y-49610000D02*
X176450000Y-45150000D01*
X176600000Y-49700000D02*
X176600000Y-45100000D01*
X176750000Y-49700000D02*
X176750000Y-45100000D01*
X176900000Y-49700000D02*
X176900000Y-45100000D01*
X177050000Y-49700000D02*
X177050000Y-45100000D01*
X177200000Y-49700000D02*
X177200000Y-45100000D01*
X177350000Y-49700000D02*
X177350000Y-45100000D01*
X177500000Y-49700000D02*
X177500000Y-45100000D01*
X177650000Y-49700000D02*
X177650000Y-45100000D01*
X177800000Y-49700000D02*
X177800000Y-45100000D01*
X177950000Y-49700000D02*
X177950000Y-45100000D01*
X178100000Y-49700000D02*
X178100000Y-45100000D01*
X178250000Y-49700000D02*
X178250000Y-45100000D01*
X178400000Y-49700000D02*
X178400000Y-45100000D01*
X178550000Y-49700000D02*
X178550000Y-45100000D01*
X178700000Y-49700000D02*
X178700000Y-45100000D01*
X178850000Y-49700000D02*
X178850000Y-45100000D01*
X178900000Y-45075000D02*
X176325000Y-45075000D01*
X178900000Y-49725000D02*
X176575000Y-49725000D01*
X179000000Y-49590000D02*
X179000000Y-45200000D01*
X179150000Y-49450000D02*
X179150000Y-45330000D01*
X179300000Y-49320000D02*
X179300000Y-45490000D01*
X179450000Y-49160000D02*
X179450000Y-45630000D01*
X179550000Y-49060000D02*
X179550000Y-45730000D01*
X179650000Y-48950000D02*
X179650000Y-45830000D01*
X179750000Y-48870000D02*
X179750000Y-45940000D01*
X179900000Y-46075000D02*
X178900000Y-45075000D01*
X179900000Y-46075000D02*
X179900000Y-48725000D01*
X179900000Y-48725000D02*
X178900000Y-49725000D01*
X170295000Y-43875000D02*
G75*
G02*
X171295000Y-42875000I999999J1D01*
G01*
X171295000Y-47525000D02*
G75*
G02*
X170295000Y-46525000I-1J999999D01*
G01*
X173300000Y-47517458D02*
G75*
G02*
X175300000Y-48700000I-2J-2282546D01*
G01*
X174288796Y-42875000D02*
G75*
G02*
X175150000Y-43576887I-38796J-926887D01*
G01*
X176325000Y-45075000D02*
G75*
G02*
X175150000Y-43900000I2J1175002D01*
G01*
D12*
X151132843Y-37550000D02*
X151331281Y-37550000D01*
X151331281Y-36954686D02*
X151331281Y-38145314D01*
X151331281Y-38145314D02*
X152918785Y-38145314D01*
X151728157Y-38145314D02*
X151728157Y-36954686D01*
X152918785Y-36954686D02*
X151331281Y-36954686D01*
X152918785Y-37550000D02*
X153117223Y-37550000D01*
X152918785Y-38145314D02*
X152918785Y-36954686D01*
D13*
X107300000Y-59475000D02*
X108300000Y-58475000D01*
X107300000Y-62125000D02*
X107300000Y-59475000D01*
X107300000Y-62125000D02*
X108300000Y-63125000D01*
X107450000Y-59330000D02*
X107450000Y-62260000D01*
X107550000Y-59250000D02*
X107550000Y-62370000D01*
X107650000Y-59140000D02*
X107650000Y-62470000D01*
X107750000Y-59040000D02*
X107750000Y-62570000D01*
X107900000Y-58880000D02*
X107900000Y-62710000D01*
X108050000Y-58750000D02*
X108050000Y-62870000D01*
X108200000Y-58610000D02*
X108200000Y-63000000D01*
X108300000Y-58475000D02*
X110625000Y-58475000D01*
X108300000Y-63125000D02*
X110875000Y-63125000D01*
X108350000Y-58500000D02*
X108350000Y-63100000D01*
X108500000Y-58500000D02*
X108500000Y-63100000D01*
X108650000Y-58500000D02*
X108650000Y-63100000D01*
X108800000Y-58500000D02*
X108800000Y-63100000D01*
X108950000Y-58500000D02*
X108950000Y-63100000D01*
X109100000Y-58500000D02*
X109100000Y-63100000D01*
X109250000Y-58500000D02*
X109250000Y-63100000D01*
X109400000Y-58500000D02*
X109400000Y-63100000D01*
X109550000Y-58500000D02*
X109550000Y-63100000D01*
X109700000Y-58500000D02*
X109700000Y-63100000D01*
X109850000Y-58500000D02*
X109850000Y-63100000D01*
X110000000Y-58500000D02*
X110000000Y-63100000D01*
X110150000Y-58500000D02*
X110150000Y-63100000D01*
X110300000Y-58500000D02*
X110300000Y-63100000D01*
X110450000Y-58500000D02*
X110450000Y-63100000D01*
X110600000Y-58500000D02*
X110600000Y-63100000D01*
X110750000Y-58590000D02*
X110750000Y-63050000D01*
X110900000Y-58710000D02*
X110900000Y-63100000D01*
X111050000Y-58820000D02*
X111050000Y-63100000D01*
X111200000Y-58940000D02*
X111200000Y-63100000D01*
X111350000Y-59080000D02*
X111350000Y-63200000D01*
X111490000Y-59180000D02*
X111500000Y-63250000D01*
X111600000Y-59270000D02*
X111600000Y-63300000D01*
X111700000Y-59350000D02*
X111700000Y-63350000D01*
X111800000Y-59430000D02*
X111800000Y-63450000D01*
X111900000Y-59500000D02*
X110625000Y-58475000D01*
X111900000Y-59500000D02*
X111900000Y-63650000D01*
X112000000Y-59680000D02*
X112000000Y-63800000D01*
X112050000Y-64300000D02*
X112050000Y-64623113D01*
X112100000Y-59850000D02*
X112100000Y-64750000D01*
X112250000Y-60000000D02*
X112250000Y-64950000D01*
X112400000Y-60150000D02*
X112400000Y-65140000D01*
X112550000Y-60250000D02*
X112550000Y-65220000D01*
X112700000Y-60350000D02*
X112700000Y-65270000D01*
X112850000Y-60450000D02*
X112850000Y-65300000D01*
X112911204Y-65325000D02*
X115875000Y-65325000D01*
X113000000Y-60500000D02*
X113000000Y-65320000D01*
X113150000Y-60600000D02*
X113150000Y-65310000D01*
X113300000Y-60650000D02*
X113300000Y-65250000D01*
X113450000Y-60650000D02*
X113450000Y-65300000D01*
X113600000Y-60660000D02*
X113600000Y-65300000D01*
X113750000Y-60700000D02*
X113750000Y-65250000D01*
X113900000Y-60675000D02*
X115875000Y-60675000D01*
X113900000Y-60700000D02*
X113900000Y-65300000D01*
X114050000Y-60700000D02*
X114050000Y-65300000D01*
X114200000Y-60700000D02*
X114200000Y-65300000D01*
X114350000Y-60700000D02*
X114350000Y-65300000D01*
X114500000Y-60700000D02*
X114500000Y-65300000D01*
X114650000Y-60700000D02*
X114650000Y-65300000D01*
X114800000Y-60700000D02*
X114800000Y-65300000D01*
X114950000Y-60700000D02*
X114950000Y-65300000D01*
X115100000Y-60700000D02*
X115100000Y-65300000D01*
X115250000Y-60700000D02*
X115250000Y-65300000D01*
X115400000Y-60700000D02*
X115400000Y-65300000D01*
D14*
X115400000Y-65145000D02*
X117950000Y-65145000D01*
D13*
X115550000Y-60700000D02*
X115550000Y-65300000D01*
X115700000Y-60700000D02*
X115700000Y-65300000D01*
X115850000Y-60700000D02*
X115850000Y-65300000D01*
X116000000Y-60690000D02*
X116000000Y-65200000D01*
X116150000Y-60730000D02*
X116150000Y-65050000D01*
X116300000Y-60780000D02*
X116300000Y-64900000D01*
X116450000Y-60860000D02*
X116450000Y-65000000D01*
X116600000Y-61000000D02*
X116600000Y-64970000D01*
X116750000Y-61170000D02*
X116750000Y-64850000D01*
X116905000Y-64325000D02*
X116905000Y-61675000D01*
X110875000Y-63125000D02*
G75*
G02*
X112050000Y-64300000I-2J-1175002D01*
G01*
X112911204Y-65325000D02*
G75*
G02*
X112050000Y-64623113I38796J926887D01*
G01*
X113900000Y-60682542D02*
G75*
G02*
X111900000Y-59500000I2J2282546D01*
G01*
X115905000Y-60675000D02*
G75*
G02*
X116905000Y-61675000I1J-999999D01*
G01*
X116905000Y-64325000D02*
G75*
G02*
X115905000Y-65325000I-999999J-1D01*
G01*
D12*
X112932843Y-70550000D02*
X113131281Y-70550000D01*
X113131281Y-69954686D02*
X113131281Y-71145314D01*
X113131281Y-71145314D02*
X114718785Y-71145314D01*
X113528157Y-71145314D02*
X113528157Y-69954686D01*
X114718785Y-69954686D02*
X113131281Y-69954686D01*
X114718785Y-70550000D02*
X114917223Y-70550000D01*
X114718785Y-71145314D02*
X114718785Y-69954686D01*
X186382843Y-49250000D02*
X186581281Y-49250000D01*
X186581281Y-48654686D02*
X186581281Y-49845314D01*
X186581281Y-49845314D02*
X188168785Y-49845314D01*
X186978157Y-49845314D02*
X186978157Y-48654686D01*
X188168785Y-48654686D02*
X186581281Y-48654686D01*
X188168785Y-49250000D02*
X188367223Y-49250000D01*
X188168785Y-49845314D02*
X188168785Y-48654686D01*
D13*
X158300000Y-31175000D02*
X159300000Y-30175000D01*
X158300000Y-33825000D02*
X158300000Y-31175000D01*
X158300000Y-33825000D02*
X159300000Y-34825000D01*
X158450000Y-31030000D02*
X158450000Y-33960000D01*
X158550000Y-30950000D02*
X158550000Y-34070000D01*
X158650000Y-30840000D02*
X158650000Y-34170000D01*
X158750000Y-30740000D02*
X158750000Y-34270000D01*
X158900000Y-30580000D02*
X158900000Y-34410000D01*
X159050000Y-30450000D02*
X159050000Y-34570000D01*
X159200000Y-30310000D02*
X159200000Y-34700000D01*
X159300000Y-30175000D02*
X161625000Y-30175000D01*
X159300000Y-34825000D02*
X161875000Y-34825000D01*
X159350000Y-30200000D02*
X159350000Y-34800000D01*
X159500000Y-30200000D02*
X159500000Y-34800000D01*
X159650000Y-30200000D02*
X159650000Y-34800000D01*
X159800000Y-30200000D02*
X159800000Y-34800000D01*
X159950000Y-30200000D02*
X159950000Y-34800000D01*
X160100000Y-30200000D02*
X160100000Y-34800000D01*
X160250000Y-30200000D02*
X160250000Y-34800000D01*
X160400000Y-30200000D02*
X160400000Y-34800000D01*
X160550000Y-30200000D02*
X160550000Y-34800000D01*
X160700000Y-30200000D02*
X160700000Y-34800000D01*
X160850000Y-30200000D02*
X160850000Y-34800000D01*
X161000000Y-30200000D02*
X161000000Y-34800000D01*
X161150000Y-30200000D02*
X161150000Y-34800000D01*
X161300000Y-30200000D02*
X161300000Y-34800000D01*
X161450000Y-30200000D02*
X161450000Y-34800000D01*
X161600000Y-30200000D02*
X161600000Y-34800000D01*
X161750000Y-30290000D02*
X161750000Y-34750000D01*
X161900000Y-30410000D02*
X161900000Y-34800000D01*
X162050000Y-30520000D02*
X162050000Y-34800000D01*
X162200000Y-30640000D02*
X162200000Y-34800000D01*
X162350000Y-30780000D02*
X162350000Y-34900000D01*
X162490000Y-30880000D02*
X162500000Y-34950000D01*
X162600000Y-30970000D02*
X162600000Y-35000000D01*
X162700000Y-31050000D02*
X162700000Y-35050000D01*
X162800000Y-31130000D02*
X162800000Y-35150000D01*
X162900000Y-31200000D02*
X161625000Y-30175000D01*
X162900000Y-31200000D02*
X162900000Y-35350000D01*
X163000000Y-31380000D02*
X163000000Y-35500000D01*
X163050000Y-36000000D02*
X163050000Y-36323113D01*
X163100000Y-31550000D02*
X163100000Y-36450000D01*
X163250000Y-31700000D02*
X163250000Y-36650000D01*
X163400000Y-31850000D02*
X163400000Y-36840000D01*
X163550000Y-31950000D02*
X163550000Y-36920000D01*
X163700000Y-32050000D02*
X163700000Y-36970000D01*
X163850000Y-32150000D02*
X163850000Y-37000000D01*
X163911204Y-37025000D02*
X166875000Y-37025000D01*
X164000000Y-32200000D02*
X164000000Y-37020000D01*
X164150000Y-32300000D02*
X164150000Y-37010000D01*
X164300000Y-32350000D02*
X164300000Y-36950000D01*
X164450000Y-32350000D02*
X164450000Y-37000000D01*
X164600000Y-32360000D02*
X164600000Y-37000000D01*
X164750000Y-32400000D02*
X164750000Y-36950000D01*
X164900000Y-32375000D02*
X166875000Y-32375000D01*
X164900000Y-32400000D02*
X164900000Y-37000000D01*
X165050000Y-32400000D02*
X165050000Y-37000000D01*
X165200000Y-32400000D02*
X165200000Y-37000000D01*
X165350000Y-32400000D02*
X165350000Y-37000000D01*
X165500000Y-32400000D02*
X165500000Y-37000000D01*
X165650000Y-32400000D02*
X165650000Y-37000000D01*
X165800000Y-32400000D02*
X165800000Y-37000000D01*
X165950000Y-32400000D02*
X165950000Y-37000000D01*
X166100000Y-32400000D02*
X166100000Y-37000000D01*
X166250000Y-32400000D02*
X166250000Y-37000000D01*
X166400000Y-32400000D02*
X166400000Y-37000000D01*
D14*
X166400000Y-36845000D02*
X168950000Y-36845000D01*
D13*
X166550000Y-32400000D02*
X166550000Y-37000000D01*
X166700000Y-32400000D02*
X166700000Y-37000000D01*
X166850000Y-32400000D02*
X166850000Y-37000000D01*
X167000000Y-32390000D02*
X167000000Y-36900000D01*
X167150000Y-32430000D02*
X167150000Y-36750000D01*
X167300000Y-32480000D02*
X167300000Y-36600000D01*
X167450000Y-32560000D02*
X167450000Y-36700000D01*
X167600000Y-32700000D02*
X167600000Y-36670000D01*
X167750000Y-32870000D02*
X167750000Y-36550000D01*
X167905000Y-36025000D02*
X167905000Y-33375000D01*
X161875000Y-34825000D02*
G75*
G02*
X163050000Y-36000000I-2J-1175002D01*
G01*
X163911204Y-37025000D02*
G75*
G02*
X163050000Y-36323113I38796J926887D01*
G01*
X164900000Y-32382542D02*
G75*
G02*
X162900000Y-31200000I2J2282546D01*
G01*
X166905000Y-32375000D02*
G75*
G02*
X167905000Y-33375000I1J-999999D01*
G01*
X167905000Y-36025000D02*
G75*
G02*
X166905000Y-37025000I-999999J-1D01*
G01*
X136295000Y-43875000D02*
X136295000Y-46525000D01*
X136450000Y-47030000D02*
X136450000Y-43350000D01*
X136600000Y-47200000D02*
X136600000Y-43230000D01*
X136750000Y-47340000D02*
X136750000Y-43200000D01*
X136900000Y-47420000D02*
X136900000Y-43300000D01*
X137050000Y-47470000D02*
X137050000Y-43150000D01*
X137200000Y-47510000D02*
X137200000Y-43000000D01*
X137350000Y-47500000D02*
X137350000Y-42900000D01*
X137500000Y-47500000D02*
X137500000Y-42900000D01*
X137650000Y-47500000D02*
X137650000Y-42900000D01*
D14*
X137800000Y-43055000D02*
X135250000Y-43055000D01*
D13*
X137800000Y-47500000D02*
X137800000Y-42900000D01*
X137950000Y-47500000D02*
X137950000Y-42900000D01*
X138100000Y-47500000D02*
X138100000Y-42900000D01*
X138250000Y-47500000D02*
X138250000Y-42900000D01*
X138400000Y-47500000D02*
X138400000Y-42900000D01*
X138550000Y-47500000D02*
X138550000Y-42900000D01*
X138700000Y-47500000D02*
X138700000Y-42900000D01*
X138850000Y-47500000D02*
X138850000Y-42900000D01*
X139000000Y-47500000D02*
X139000000Y-42900000D01*
X139150000Y-47500000D02*
X139150000Y-42900000D01*
X139300000Y-47500000D02*
X139300000Y-42900000D01*
X139300000Y-47525000D02*
X137325000Y-47525000D01*
X139450000Y-47500000D02*
X139450000Y-42950000D01*
X139600000Y-47540000D02*
X139600000Y-42900000D01*
X139750000Y-47550000D02*
X139750000Y-42900000D01*
X139900000Y-47550000D02*
X139900000Y-42950000D01*
X140050000Y-47600000D02*
X140050000Y-42890000D01*
X140200000Y-47700000D02*
X140200000Y-42880000D01*
X140288796Y-42875000D02*
X137325000Y-42875000D01*
X140350000Y-47750000D02*
X140350000Y-42900000D01*
X140500000Y-47850000D02*
X140500000Y-42930000D01*
X140650000Y-47950000D02*
X140650000Y-42980000D01*
X140800000Y-48050000D02*
X140800000Y-43060000D01*
X140950000Y-48200000D02*
X140950000Y-43250000D01*
X141100000Y-48350000D02*
X141100000Y-43450000D01*
X141150000Y-43900000D02*
X141150000Y-43576887D01*
X141200000Y-48520000D02*
X141200000Y-44400000D01*
X141300000Y-48700000D02*
X141300000Y-44550000D01*
X141300000Y-48700000D02*
X142575000Y-49725000D01*
X141400000Y-48770000D02*
X141400000Y-44750000D01*
X141500000Y-48850000D02*
X141500000Y-44850000D01*
X141600000Y-48930000D02*
X141600000Y-44900000D01*
X141710000Y-49020000D02*
X141700000Y-44950000D01*
X141850000Y-49120000D02*
X141850000Y-45000000D01*
X142000000Y-49260000D02*
X142000000Y-45100000D01*
X142150000Y-49380000D02*
X142150000Y-45100000D01*
X142300000Y-49490000D02*
X142300000Y-45100000D01*
X142450000Y-49610000D02*
X142450000Y-45150000D01*
X142600000Y-49700000D02*
X142600000Y-45100000D01*
X142750000Y-49700000D02*
X142750000Y-45100000D01*
X142900000Y-49700000D02*
X142900000Y-45100000D01*
X143050000Y-49700000D02*
X143050000Y-45100000D01*
X143200000Y-49700000D02*
X143200000Y-45100000D01*
X143350000Y-49700000D02*
X143350000Y-45100000D01*
X143500000Y-49700000D02*
X143500000Y-45100000D01*
X143650000Y-49700000D02*
X143650000Y-45100000D01*
X143800000Y-49700000D02*
X143800000Y-45100000D01*
X143950000Y-49700000D02*
X143950000Y-45100000D01*
X144100000Y-49700000D02*
X144100000Y-45100000D01*
X144250000Y-49700000D02*
X144250000Y-45100000D01*
X144400000Y-49700000D02*
X144400000Y-45100000D01*
X144550000Y-49700000D02*
X144550000Y-45100000D01*
X144700000Y-49700000D02*
X144700000Y-45100000D01*
X144850000Y-49700000D02*
X144850000Y-45100000D01*
X144900000Y-45075000D02*
X142325000Y-45075000D01*
X144900000Y-49725000D02*
X142575000Y-49725000D01*
X145000000Y-49590000D02*
X145000000Y-45200000D01*
X145150000Y-49450000D02*
X145150000Y-45330000D01*
X145300000Y-49320000D02*
X145300000Y-45490000D01*
X145450000Y-49160000D02*
X145450000Y-45630000D01*
X145550000Y-49060000D02*
X145550000Y-45730000D01*
X145650000Y-48950000D02*
X145650000Y-45830000D01*
X145750000Y-48870000D02*
X145750000Y-45940000D01*
X145900000Y-46075000D02*
X144900000Y-45075000D01*
X145900000Y-46075000D02*
X145900000Y-48725000D01*
X145900000Y-48725000D02*
X144900000Y-49725000D01*
X136295000Y-43875000D02*
G75*
G02*
X137295000Y-42875000I999999J1D01*
G01*
X137295000Y-47525000D02*
G75*
G02*
X136295000Y-46525000I-1J999999D01*
G01*
X139300000Y-47517458D02*
G75*
G02*
X141300000Y-48700000I-2J-2282546D01*
G01*
X140288796Y-42875000D02*
G75*
G02*
X141150000Y-43576887I-38796J-926887D01*
G01*
X142325000Y-45075000D02*
G75*
G02*
X141150000Y-43900000I2J1175002D01*
G01*
D12*
X151132843Y-39700000D02*
X151331281Y-39700000D01*
X151331281Y-39104686D02*
X151331281Y-40295314D01*
X151331281Y-40295314D02*
X152918785Y-40295314D01*
X151728157Y-40295314D02*
X151728157Y-39104686D01*
X152918785Y-39104686D02*
X151331281Y-39104686D01*
X152918785Y-39700000D02*
X153117223Y-39700000D01*
X152918785Y-40295314D02*
X152918785Y-39104686D01*
X133381215Y-34154686D02*
X133381215Y-35345314D01*
X133381215Y-34750000D02*
X133182777Y-34750000D01*
X133381215Y-35345314D02*
X134968719Y-35345314D01*
X134571843Y-34154686D02*
X134571843Y-35345314D01*
X134968719Y-34154686D02*
X133381215Y-34154686D01*
X134968719Y-35345314D02*
X134968719Y-34154686D01*
X135167157Y-34750000D02*
X134968719Y-34750000D01*
D13*
X158300000Y-14175000D02*
X159300000Y-13175000D01*
X158300000Y-16825000D02*
X158300000Y-14175000D01*
X158300000Y-16825000D02*
X159300000Y-17825000D01*
X158450000Y-14030000D02*
X158450000Y-16960000D01*
X158550000Y-13950000D02*
X158550000Y-17070000D01*
X158650000Y-13840000D02*
X158650000Y-17170000D01*
X158750000Y-13740000D02*
X158750000Y-17270000D01*
X158900000Y-13580000D02*
X158900000Y-17410000D01*
X159050000Y-13450000D02*
X159050000Y-17570000D01*
X159200000Y-13310000D02*
X159200000Y-17700000D01*
X159300000Y-13175000D02*
X161625000Y-13175000D01*
X159300000Y-17825000D02*
X161875000Y-17825000D01*
X159350000Y-13200000D02*
X159350000Y-17800000D01*
X159500000Y-13200000D02*
X159500000Y-17800000D01*
X159650000Y-13200000D02*
X159650000Y-17800000D01*
X159800000Y-13200000D02*
X159800000Y-17800000D01*
X159950000Y-13200000D02*
X159950000Y-17800000D01*
X160100000Y-13200000D02*
X160100000Y-17800000D01*
X160250000Y-13200000D02*
X160250000Y-17800000D01*
X160400000Y-13200000D02*
X160400000Y-17800000D01*
X160550000Y-13200000D02*
X160550000Y-17800000D01*
X160700000Y-13200000D02*
X160700000Y-17800000D01*
X160850000Y-13200000D02*
X160850000Y-17800000D01*
X161000000Y-13200000D02*
X161000000Y-17800000D01*
X161150000Y-13200000D02*
X161150000Y-17800000D01*
X161300000Y-13200000D02*
X161300000Y-17800000D01*
X161450000Y-13200000D02*
X161450000Y-17800000D01*
X161600000Y-13200000D02*
X161600000Y-17800000D01*
X161750000Y-13290000D02*
X161750000Y-17750000D01*
X161900000Y-13410000D02*
X161900000Y-17800000D01*
X162050000Y-13520000D02*
X162050000Y-17800000D01*
X162200000Y-13640000D02*
X162200000Y-17800000D01*
X162350000Y-13780000D02*
X162350000Y-17900000D01*
X162490000Y-13880000D02*
X162500000Y-17950000D01*
X162600000Y-13970000D02*
X162600000Y-18000000D01*
X162700000Y-14050000D02*
X162700000Y-18050000D01*
X162800000Y-14130000D02*
X162800000Y-18150000D01*
X162900000Y-14200000D02*
X161625000Y-13175000D01*
X162900000Y-14200000D02*
X162900000Y-18350000D01*
X163000000Y-14380000D02*
X163000000Y-18500000D01*
X163050000Y-19000000D02*
X163050000Y-19323113D01*
X163100000Y-14550000D02*
X163100000Y-19450000D01*
X163250000Y-14700000D02*
X163250000Y-19650000D01*
X163400000Y-14850000D02*
X163400000Y-19840000D01*
X163550000Y-14950000D02*
X163550000Y-19920000D01*
X163700000Y-15050000D02*
X163700000Y-19970000D01*
X163850000Y-15150000D02*
X163850000Y-20000000D01*
X163911204Y-20025000D02*
X166875000Y-20025000D01*
X164000000Y-15200000D02*
X164000000Y-20020000D01*
X164150000Y-15300000D02*
X164150000Y-20010000D01*
X164300000Y-15350000D02*
X164300000Y-19950000D01*
X164450000Y-15350000D02*
X164450000Y-20000000D01*
X164600000Y-15360000D02*
X164600000Y-20000000D01*
X164750000Y-15400000D02*
X164750000Y-19950000D01*
X164900000Y-15375000D02*
X166875000Y-15375000D01*
X164900000Y-15400000D02*
X164900000Y-20000000D01*
X165050000Y-15400000D02*
X165050000Y-20000000D01*
X165200000Y-15400000D02*
X165200000Y-20000000D01*
X165350000Y-15400000D02*
X165350000Y-20000000D01*
X165500000Y-15400000D02*
X165500000Y-20000000D01*
X165650000Y-15400000D02*
X165650000Y-20000000D01*
X165800000Y-15400000D02*
X165800000Y-20000000D01*
X165950000Y-15400000D02*
X165950000Y-20000000D01*
X166100000Y-15400000D02*
X166100000Y-20000000D01*
X166250000Y-15400000D02*
X166250000Y-20000000D01*
X166400000Y-15400000D02*
X166400000Y-20000000D01*
D14*
X166400000Y-19845000D02*
X168950000Y-19845000D01*
D13*
X166550000Y-15400000D02*
X166550000Y-20000000D01*
X166700000Y-15400000D02*
X166700000Y-20000000D01*
X166850000Y-15400000D02*
X166850000Y-20000000D01*
X167000000Y-15390000D02*
X167000000Y-19900000D01*
X167150000Y-15430000D02*
X167150000Y-19750000D01*
X167300000Y-15480000D02*
X167300000Y-19600000D01*
X167450000Y-15560000D02*
X167450000Y-19700000D01*
X167600000Y-15700000D02*
X167600000Y-19670000D01*
X167750000Y-15870000D02*
X167750000Y-19550000D01*
X167905000Y-19025000D02*
X167905000Y-16375000D01*
X161875000Y-17825000D02*
G75*
G02*
X163050000Y-19000000I-2J-1175002D01*
G01*
X163911204Y-20025000D02*
G75*
G02*
X163050000Y-19323113I38796J926887D01*
G01*
X164900000Y-15382542D02*
G75*
G02*
X162900000Y-14200000I2J2282546D01*
G01*
X166905000Y-15375000D02*
G75*
G02*
X167905000Y-16375000I1J-999999D01*
G01*
X167905000Y-19025000D02*
G75*
G02*
X166905000Y-20025000I-999999J-1D01*
G01*
D12*
X142582843Y-31750000D02*
X142781281Y-31750000D01*
X142781281Y-31154686D02*
X142781281Y-32345314D01*
X142781281Y-32345314D02*
X144368785Y-32345314D01*
X143178157Y-32345314D02*
X143178157Y-31154686D01*
X144368785Y-31154686D02*
X142781281Y-31154686D01*
X144368785Y-31750000D02*
X144567223Y-31750000D01*
X144368785Y-32345314D02*
X144368785Y-31154686D01*
X133381215Y-29654686D02*
X133381215Y-30845314D01*
X133381215Y-30250000D02*
X133182777Y-30250000D01*
X133381215Y-30845314D02*
X134968719Y-30845314D01*
X134571843Y-29654686D02*
X134571843Y-30845314D01*
X134968719Y-29654686D02*
X133381215Y-29654686D01*
X134968719Y-30845314D02*
X134968719Y-29654686D01*
X135167157Y-30250000D02*
X134968719Y-30250000D01*
X188932843Y-79250000D02*
X189131281Y-79250000D01*
X189131281Y-78654686D02*
X189131281Y-79845314D01*
X189131281Y-79845314D02*
X190718785Y-79845314D01*
X189528157Y-79845314D02*
X189528157Y-78654686D01*
X190718785Y-78654686D02*
X189131281Y-78654686D01*
X190718785Y-79250000D02*
X190917223Y-79250000D01*
X190718785Y-79845314D02*
X190718785Y-78654686D01*
X186382743Y-47250000D02*
X186581181Y-47250000D01*
X186581181Y-46654686D02*
X186581181Y-47845314D01*
X186581181Y-47845314D02*
X188168685Y-47845314D01*
X186978057Y-47845314D02*
X186978057Y-46654686D01*
X188168685Y-46654686D02*
X186581181Y-46654686D01*
X188168685Y-47250000D02*
X188367123Y-47250000D01*
X188168685Y-47845314D02*
X188168685Y-46654686D01*
X156482843Y-29250000D02*
X156681281Y-29250000D01*
X156681281Y-28654686D02*
X156681281Y-29845314D01*
X156681281Y-29845314D02*
X158268785Y-29845314D01*
X157078157Y-29845314D02*
X157078157Y-28654686D01*
X158268785Y-28654686D02*
X156681281Y-28654686D01*
X158268785Y-29250000D02*
X158467223Y-29250000D01*
X158268785Y-29845314D02*
X158268785Y-28654686D01*
X133381315Y-27304686D02*
X133381315Y-28495314D01*
X133381315Y-27900000D02*
X133182877Y-27900000D01*
X133381315Y-28495314D02*
X134968819Y-28495314D01*
X134571943Y-27304686D02*
X134571943Y-28495314D01*
X134968819Y-27304686D02*
X133381315Y-27304686D01*
X134968819Y-28495314D02*
X134968819Y-27304686D01*
X135167257Y-27900000D02*
X134968819Y-27900000D01*
X159659343Y-45400000D02*
X159857781Y-45400000D01*
X159857781Y-44804686D02*
X159857781Y-45995314D01*
X159857781Y-45995314D02*
X161445285Y-45995314D01*
X160254657Y-45995314D02*
X160254657Y-44804686D01*
X161445285Y-44804686D02*
X159857781Y-44804686D01*
X161445285Y-45400000D02*
X161643723Y-45400000D01*
X161445285Y-45995314D02*
X161445285Y-44804686D01*
D13*
X107300000Y-42475000D02*
X108300000Y-41475000D01*
X107300000Y-45125000D02*
X107300000Y-42475000D01*
X107300000Y-45125000D02*
X108300000Y-46125000D01*
X107450000Y-42330000D02*
X107450000Y-45260000D01*
X107550000Y-42250000D02*
X107550000Y-45370000D01*
X107650000Y-42140000D02*
X107650000Y-45470000D01*
X107750000Y-42040000D02*
X107750000Y-45570000D01*
X107900000Y-41880000D02*
X107900000Y-45710000D01*
X108050000Y-41750000D02*
X108050000Y-45870000D01*
X108200000Y-41610000D02*
X108200000Y-46000000D01*
X108300000Y-41475000D02*
X110625000Y-41475000D01*
X108300000Y-46125000D02*
X110875000Y-46125000D01*
X108350000Y-41500000D02*
X108350000Y-46100000D01*
X108500000Y-41500000D02*
X108500000Y-46100000D01*
X108650000Y-41500000D02*
X108650000Y-46100000D01*
X108800000Y-41500000D02*
X108800000Y-46100000D01*
X108950000Y-41500000D02*
X108950000Y-46100000D01*
X109100000Y-41500000D02*
X109100000Y-46100000D01*
X109250000Y-41500000D02*
X109250000Y-46100000D01*
X109400000Y-41500000D02*
X109400000Y-46100000D01*
X109550000Y-41500000D02*
X109550000Y-46100000D01*
X109700000Y-41500000D02*
X109700000Y-46100000D01*
X109850000Y-41500000D02*
X109850000Y-46100000D01*
X110000000Y-41500000D02*
X110000000Y-46100000D01*
X110150000Y-41500000D02*
X110150000Y-46100000D01*
X110300000Y-41500000D02*
X110300000Y-46100000D01*
X110450000Y-41500000D02*
X110450000Y-46100000D01*
X110600000Y-41500000D02*
X110600000Y-46100000D01*
X110750000Y-41590000D02*
X110750000Y-46050000D01*
X110900000Y-41710000D02*
X110900000Y-46100000D01*
X111050000Y-41820000D02*
X111050000Y-46100000D01*
X111200000Y-41940000D02*
X111200000Y-46100000D01*
X111350000Y-42080000D02*
X111350000Y-46200000D01*
X111490000Y-42180000D02*
X111500000Y-46250000D01*
X111600000Y-42270000D02*
X111600000Y-46300000D01*
X111700000Y-42350000D02*
X111700000Y-46350000D01*
X111800000Y-42430000D02*
X111800000Y-46450000D01*
X111900000Y-42500000D02*
X110625000Y-41475000D01*
X111900000Y-42500000D02*
X111900000Y-46650000D01*
X112000000Y-42680000D02*
X112000000Y-46800000D01*
X112050000Y-47300000D02*
X112050000Y-47623113D01*
X112100000Y-42850000D02*
X112100000Y-47750000D01*
X112250000Y-43000000D02*
X112250000Y-47950000D01*
X112400000Y-43150000D02*
X112400000Y-48140000D01*
X112550000Y-43250000D02*
X112550000Y-48220000D01*
X112700000Y-43350000D02*
X112700000Y-48270000D01*
X112850000Y-43450000D02*
X112850000Y-48300000D01*
X112911204Y-48325000D02*
X115875000Y-48325000D01*
X113000000Y-43500000D02*
X113000000Y-48320000D01*
X113150000Y-43600000D02*
X113150000Y-48310000D01*
X113300000Y-43650000D02*
X113300000Y-48250000D01*
X113450000Y-43650000D02*
X113450000Y-48300000D01*
X113600000Y-43660000D02*
X113600000Y-48300000D01*
X113750000Y-43700000D02*
X113750000Y-48250000D01*
X113900000Y-43675000D02*
X115875000Y-43675000D01*
X113900000Y-43700000D02*
X113900000Y-48300000D01*
X114050000Y-43700000D02*
X114050000Y-48300000D01*
X114200000Y-43700000D02*
X114200000Y-48300000D01*
X114350000Y-43700000D02*
X114350000Y-48300000D01*
X114500000Y-43700000D02*
X114500000Y-48300000D01*
X114650000Y-43700000D02*
X114650000Y-48300000D01*
X114800000Y-43700000D02*
X114800000Y-48300000D01*
X114950000Y-43700000D02*
X114950000Y-48300000D01*
X115100000Y-43700000D02*
X115100000Y-48300000D01*
X115250000Y-43700000D02*
X115250000Y-48300000D01*
X115400000Y-43700000D02*
X115400000Y-48300000D01*
D14*
X115400000Y-48145000D02*
X117950000Y-48145000D01*
D13*
X115550000Y-43700000D02*
X115550000Y-48300000D01*
X115700000Y-43700000D02*
X115700000Y-48300000D01*
X115850000Y-43700000D02*
X115850000Y-48300000D01*
X116000000Y-43690000D02*
X116000000Y-48200000D01*
X116150000Y-43730000D02*
X116150000Y-48050000D01*
X116300000Y-43780000D02*
X116300000Y-47900000D01*
X116450000Y-43860000D02*
X116450000Y-48000000D01*
X116600000Y-44000000D02*
X116600000Y-47970000D01*
X116750000Y-44170000D02*
X116750000Y-47850000D01*
X116905000Y-47325000D02*
X116905000Y-44675000D01*
X110875000Y-46125000D02*
G75*
G02*
X112050000Y-47300000I-2J-1175002D01*
G01*
X112911204Y-48325000D02*
G75*
G02*
X112050000Y-47623113I38796J926887D01*
G01*
X113900000Y-43682542D02*
G75*
G02*
X111900000Y-42500000I2J2282546D01*
G01*
X115905000Y-43675000D02*
G75*
G02*
X116905000Y-44675000I1J-999999D01*
G01*
X116905000Y-47325000D02*
G75*
G02*
X115905000Y-48325000I-999999J-1D01*
G01*
X107300000Y-25475000D02*
X108300000Y-24475000D01*
X107300000Y-28125000D02*
X107300000Y-25475000D01*
X107300000Y-28125000D02*
X108300000Y-29125000D01*
X107450000Y-25330000D02*
X107450000Y-28260000D01*
X107550000Y-25250000D02*
X107550000Y-28370000D01*
X107650000Y-25140000D02*
X107650000Y-28470000D01*
X107750000Y-25040000D02*
X107750000Y-28570000D01*
X107900000Y-24880000D02*
X107900000Y-28710000D01*
X108050000Y-24750000D02*
X108050000Y-28870000D01*
X108200000Y-24610000D02*
X108200000Y-29000000D01*
X108300000Y-24475000D02*
X110625000Y-24475000D01*
X108300000Y-29125000D02*
X110875000Y-29125000D01*
X108350000Y-24500000D02*
X108350000Y-29100000D01*
X108500000Y-24500000D02*
X108500000Y-29100000D01*
X108650000Y-24500000D02*
X108650000Y-29100000D01*
X108800000Y-24500000D02*
X108800000Y-29100000D01*
X108950000Y-24500000D02*
X108950000Y-29100000D01*
X109100000Y-24500000D02*
X109100000Y-29100000D01*
X109250000Y-24500000D02*
X109250000Y-29100000D01*
X109400000Y-24500000D02*
X109400000Y-29100000D01*
X109550000Y-24500000D02*
X109550000Y-29100000D01*
X109700000Y-24500000D02*
X109700000Y-29100000D01*
X109850000Y-24500000D02*
X109850000Y-29100000D01*
X110000000Y-24500000D02*
X110000000Y-29100000D01*
X110150000Y-24500000D02*
X110150000Y-29100000D01*
X110300000Y-24500000D02*
X110300000Y-29100000D01*
X110450000Y-24500000D02*
X110450000Y-29100000D01*
X110600000Y-24500000D02*
X110600000Y-29100000D01*
X110750000Y-24590000D02*
X110750000Y-29050000D01*
X110900000Y-24710000D02*
X110900000Y-29100000D01*
X111050000Y-24820000D02*
X111050000Y-29100000D01*
X111200000Y-24940000D02*
X111200000Y-29100000D01*
X111350000Y-25080000D02*
X111350000Y-29200000D01*
X111490000Y-25180000D02*
X111500000Y-29250000D01*
X111600000Y-25270000D02*
X111600000Y-29300000D01*
X111700000Y-25350000D02*
X111700000Y-29350000D01*
X111800000Y-25430000D02*
X111800000Y-29450000D01*
X111900000Y-25500000D02*
X110625000Y-24475000D01*
X111900000Y-25500000D02*
X111900000Y-29650000D01*
X112000000Y-25680000D02*
X112000000Y-29800000D01*
X112050000Y-30300000D02*
X112050000Y-30623113D01*
X112100000Y-25850000D02*
X112100000Y-30750000D01*
X112250000Y-26000000D02*
X112250000Y-30950000D01*
X112400000Y-26150000D02*
X112400000Y-31140000D01*
X112550000Y-26250000D02*
X112550000Y-31220000D01*
X112700000Y-26350000D02*
X112700000Y-31270000D01*
X112850000Y-26450000D02*
X112850000Y-31300000D01*
X112911204Y-31325000D02*
X115875000Y-31325000D01*
X113000000Y-26500000D02*
X113000000Y-31320000D01*
X113150000Y-26600000D02*
X113150000Y-31310000D01*
X113300000Y-26650000D02*
X113300000Y-31250000D01*
X113450000Y-26650000D02*
X113450000Y-31300000D01*
X113600000Y-26660000D02*
X113600000Y-31300000D01*
X113750000Y-26700000D02*
X113750000Y-31250000D01*
X113900000Y-26675000D02*
X115875000Y-26675000D01*
X113900000Y-26700000D02*
X113900000Y-31300000D01*
X114050000Y-26700000D02*
X114050000Y-31300000D01*
X114200000Y-26700000D02*
X114200000Y-31300000D01*
X114350000Y-26700000D02*
X114350000Y-31300000D01*
X114500000Y-26700000D02*
X114500000Y-31300000D01*
X114650000Y-26700000D02*
X114650000Y-31300000D01*
X114800000Y-26700000D02*
X114800000Y-31300000D01*
X114950000Y-26700000D02*
X114950000Y-31300000D01*
X115100000Y-26700000D02*
X115100000Y-31300000D01*
X115250000Y-26700000D02*
X115250000Y-31300000D01*
X115400000Y-26700000D02*
X115400000Y-31300000D01*
D14*
X115400000Y-31145000D02*
X117950000Y-31145000D01*
D13*
X115550000Y-26700000D02*
X115550000Y-31300000D01*
X115700000Y-26700000D02*
X115700000Y-31300000D01*
X115850000Y-26700000D02*
X115850000Y-31300000D01*
X116000000Y-26690000D02*
X116000000Y-31200000D01*
X116150000Y-26730000D02*
X116150000Y-31050000D01*
X116300000Y-26780000D02*
X116300000Y-30900000D01*
X116450000Y-26860000D02*
X116450000Y-31000000D01*
X116600000Y-27000000D02*
X116600000Y-30970000D01*
X116750000Y-27170000D02*
X116750000Y-30850000D01*
X116905000Y-30325000D02*
X116905000Y-27675000D01*
X110875000Y-29125000D02*
G75*
G02*
X112050000Y-30300000I-2J-1175002D01*
G01*
X112911204Y-31325000D02*
G75*
G02*
X112050000Y-30623113I38796J926887D01*
G01*
X113900000Y-26682542D02*
G75*
G02*
X111900000Y-25500000I2J2282546D01*
G01*
X115905000Y-26675000D02*
G75*
G02*
X116905000Y-27675000I1J-999999D01*
G01*
X116905000Y-30325000D02*
G75*
G02*
X115905000Y-31325000I-999999J-1D01*
G01*
X187295000Y-35075000D02*
X187295000Y-37725000D01*
X187450000Y-38230000D02*
X187450000Y-34550000D01*
X187600000Y-38400000D02*
X187600000Y-34430000D01*
X187750000Y-38540000D02*
X187750000Y-34400000D01*
X187900000Y-38620000D02*
X187900000Y-34500000D01*
X188050000Y-38670000D02*
X188050000Y-34350000D01*
X188200000Y-38710000D02*
X188200000Y-34200000D01*
X188350000Y-38700000D02*
X188350000Y-34100000D01*
X188500000Y-38700000D02*
X188500000Y-34100000D01*
X188650000Y-38700000D02*
X188650000Y-34100000D01*
D14*
X188800000Y-34255000D02*
X186250000Y-34255000D01*
D13*
X188800000Y-38700000D02*
X188800000Y-34100000D01*
X188950000Y-38700000D02*
X188950000Y-34100000D01*
X189100000Y-38700000D02*
X189100000Y-34100000D01*
X189250000Y-38700000D02*
X189250000Y-34100000D01*
X189400000Y-38700000D02*
X189400000Y-34100000D01*
X189550000Y-38700000D02*
X189550000Y-34100000D01*
X189700000Y-38700000D02*
X189700000Y-34100000D01*
X189850000Y-38700000D02*
X189850000Y-34100000D01*
X190000000Y-38700000D02*
X190000000Y-34100000D01*
X190150000Y-38700000D02*
X190150000Y-34100000D01*
X190300000Y-38700000D02*
X190300000Y-34100000D01*
X190300000Y-38725000D02*
X188325000Y-38725000D01*
X190450000Y-38700000D02*
X190450000Y-34150000D01*
X190600000Y-38740000D02*
X190600000Y-34100000D01*
X190750000Y-38750000D02*
X190750000Y-34100000D01*
X190900000Y-38750000D02*
X190900000Y-34150000D01*
X191050000Y-38800000D02*
X191050000Y-34090000D01*
X191200000Y-38900000D02*
X191200000Y-34080000D01*
X191288796Y-34075000D02*
X188325000Y-34075000D01*
X191350000Y-38950000D02*
X191350000Y-34100000D01*
X191500000Y-39050000D02*
X191500000Y-34130000D01*
X191650000Y-39150000D02*
X191650000Y-34180000D01*
X191800000Y-39250000D02*
X191800000Y-34260000D01*
X191950000Y-39400000D02*
X191950000Y-34450000D01*
X192100000Y-39550000D02*
X192100000Y-34650000D01*
X192150000Y-35100000D02*
X192150000Y-34776887D01*
X192200000Y-39720000D02*
X192200000Y-35600000D01*
X192300000Y-39900000D02*
X192300000Y-35750000D01*
X192300000Y-39900000D02*
X193575000Y-40925000D01*
X192400000Y-39970000D02*
X192400000Y-35950000D01*
X192500000Y-40050000D02*
X192500000Y-36050000D01*
X192600000Y-40130000D02*
X192600000Y-36100000D01*
X192710000Y-40220000D02*
X192700000Y-36150000D01*
X192850000Y-40320000D02*
X192850000Y-36200000D01*
X193000000Y-40460000D02*
X193000000Y-36300000D01*
X193150000Y-40580000D02*
X193150000Y-36300000D01*
X193300000Y-40690000D02*
X193300000Y-36300000D01*
X193450000Y-40810000D02*
X193450000Y-36350000D01*
X193600000Y-40900000D02*
X193600000Y-36300000D01*
X193750000Y-40900000D02*
X193750000Y-36300000D01*
X193900000Y-40900000D02*
X193900000Y-36300000D01*
X194050000Y-40900000D02*
X194050000Y-36300000D01*
X194200000Y-40900000D02*
X194200000Y-36300000D01*
X194350000Y-40900000D02*
X194350000Y-36300000D01*
X194500000Y-40900000D02*
X194500000Y-36300000D01*
X194650000Y-40900000D02*
X194650000Y-36300000D01*
X194800000Y-40900000D02*
X194800000Y-36300000D01*
X194950000Y-40900000D02*
X194950000Y-36300000D01*
X195100000Y-40900000D02*
X195100000Y-36300000D01*
X195250000Y-40900000D02*
X195250000Y-36300000D01*
X195400000Y-40900000D02*
X195400000Y-36300000D01*
X195550000Y-40900000D02*
X195550000Y-36300000D01*
X195700000Y-40900000D02*
X195700000Y-36300000D01*
X195850000Y-40900000D02*
X195850000Y-36300000D01*
X195900000Y-36275000D02*
X193325000Y-36275000D01*
X195900000Y-40925000D02*
X193575000Y-40925000D01*
X196000000Y-40790000D02*
X196000000Y-36400000D01*
X196150000Y-40650000D02*
X196150000Y-36530000D01*
X196300000Y-40520000D02*
X196300000Y-36690000D01*
X196450000Y-40360000D02*
X196450000Y-36830000D01*
X196550000Y-40260000D02*
X196550000Y-36930000D01*
X196650000Y-40150000D02*
X196650000Y-37030000D01*
X196750000Y-40070000D02*
X196750000Y-37140000D01*
X196900000Y-37275000D02*
X195900000Y-36275000D01*
X196900000Y-37275000D02*
X196900000Y-39925000D01*
X196900000Y-39925000D02*
X195900000Y-40925000D01*
X187295000Y-35075000D02*
G75*
G02*
X188295000Y-34075000I999999J1D01*
G01*
X188295000Y-38725000D02*
G75*
G02*
X187295000Y-37725000I-1J999999D01*
G01*
X190300000Y-38717458D02*
G75*
G02*
X192300000Y-39900000I-2J-2282546D01*
G01*
X191288796Y-34075000D02*
G75*
G02*
X192150000Y-34776887I-38796J-926887D01*
G01*
X193325000Y-36275000D02*
G75*
G02*
X192150000Y-35100000I2J1175002D01*
G01*
D12*
X154582843Y-35700000D02*
X154781281Y-35700000D01*
X154781281Y-35104686D02*
X154781281Y-36295314D01*
X154781281Y-36295314D02*
X156368785Y-36295314D01*
X155178157Y-36295314D02*
X155178157Y-35104686D01*
X156368785Y-35104686D02*
X154781281Y-35104686D01*
X156368785Y-35700000D02*
X156567223Y-35700000D01*
X156368785Y-36295314D02*
X156368785Y-35104686D01*
X142582843Y-33750000D02*
X142781281Y-33750000D01*
X142781281Y-33154686D02*
X142781281Y-34345314D01*
X142781281Y-34345314D02*
X144368785Y-34345314D01*
X143178157Y-34345314D02*
X143178157Y-33154686D01*
X144368785Y-33154686D02*
X142781281Y-33154686D01*
X144368785Y-33750000D02*
X144567223Y-33750000D01*
X144368785Y-34345314D02*
X144368785Y-33154686D01*
X142582843Y-35700000D02*
X142781281Y-35700000D01*
X142781281Y-35104686D02*
X142781281Y-36295314D01*
X142781281Y-36295314D02*
X144368785Y-36295314D01*
X143178157Y-36295314D02*
X143178157Y-35104686D01*
X144368785Y-35104686D02*
X142781281Y-35104686D01*
X144368785Y-35700000D02*
X144567223Y-35700000D01*
X144368785Y-36295314D02*
X144368785Y-35104686D01*
X187532843Y-30850000D02*
X187731281Y-30850000D01*
X187731281Y-30254686D02*
X187731281Y-31445314D01*
X187731281Y-31445314D02*
X189318785Y-31445314D01*
X188128157Y-31445314D02*
X188128157Y-30254686D01*
X189318785Y-30254686D02*
X187731281Y-30254686D01*
X189318785Y-30850000D02*
X189517223Y-30850000D01*
X189318785Y-31445314D02*
X189318785Y-30254686D01*
D13*
X124300000Y-19650000D02*
X125300000Y-18650000D01*
X124300000Y-22300000D02*
X124300000Y-19650000D01*
X124300000Y-22300000D02*
X125300000Y-23300000D01*
X124450000Y-19505000D02*
X124450000Y-22435000D01*
X124550000Y-19425000D02*
X124550000Y-22545000D01*
X124650000Y-19315000D02*
X124650000Y-22645000D01*
X124750000Y-19215000D02*
X124750000Y-22745000D01*
X124900000Y-19055000D02*
X124900000Y-22885000D01*
X125050000Y-18925000D02*
X125050000Y-23045000D01*
X125200000Y-18785000D02*
X125200000Y-23175000D01*
X125300000Y-18650000D02*
X127625000Y-18650000D01*
X125300000Y-23300000D02*
X127875000Y-23300000D01*
X125350000Y-18675000D02*
X125350000Y-23275000D01*
X125500000Y-18675000D02*
X125500000Y-23275000D01*
X125650000Y-18675000D02*
X125650000Y-23275000D01*
X125800000Y-18675000D02*
X125800000Y-23275000D01*
X125950000Y-18675000D02*
X125950000Y-23275000D01*
X126100000Y-18675000D02*
X126100000Y-23275000D01*
X126250000Y-18675000D02*
X126250000Y-23275000D01*
X126400000Y-18675000D02*
X126400000Y-23275000D01*
X126550000Y-18675000D02*
X126550000Y-23275000D01*
X126700000Y-18675000D02*
X126700000Y-23275000D01*
X126850000Y-18675000D02*
X126850000Y-23275000D01*
X127000000Y-18675000D02*
X127000000Y-23275000D01*
X127150000Y-18675000D02*
X127150000Y-23275000D01*
X127300000Y-18675000D02*
X127300000Y-23275000D01*
X127450000Y-18675000D02*
X127450000Y-23275000D01*
X127600000Y-18675000D02*
X127600000Y-23275000D01*
X127750000Y-18765000D02*
X127750000Y-23225000D01*
X127900000Y-18885000D02*
X127900000Y-23275000D01*
X128050000Y-18995000D02*
X128050000Y-23275000D01*
X128200000Y-19115000D02*
X128200000Y-23275000D01*
X128350000Y-19255000D02*
X128350000Y-23375000D01*
X128490000Y-19355000D02*
X128500000Y-23425000D01*
X128600000Y-19445000D02*
X128600000Y-23475000D01*
X128700000Y-19525000D02*
X128700000Y-23525000D01*
X128800000Y-19605000D02*
X128800000Y-23625000D01*
X128900000Y-19675000D02*
X127625000Y-18650000D01*
X128900000Y-19675000D02*
X128900000Y-23825000D01*
X129000000Y-19855000D02*
X129000000Y-23975000D01*
X129050000Y-24475000D02*
X129050000Y-24798113D01*
X129100000Y-20025000D02*
X129100000Y-24925000D01*
X129250000Y-20175000D02*
X129250000Y-25125000D01*
X129400000Y-20325000D02*
X129400000Y-25315000D01*
X129550000Y-20425000D02*
X129550000Y-25395000D01*
X129700000Y-20525000D02*
X129700000Y-25445000D01*
X129850000Y-20625000D02*
X129850000Y-25475000D01*
X129911204Y-25500000D02*
X132875000Y-25500000D01*
X130000000Y-20675000D02*
X130000000Y-25495000D01*
X130150000Y-20775000D02*
X130150000Y-25485000D01*
X130300000Y-20825000D02*
X130300000Y-25425000D01*
X130450000Y-20825000D02*
X130450000Y-25475000D01*
X130600000Y-20835000D02*
X130600000Y-25475000D01*
X130750000Y-20875000D02*
X130750000Y-25425000D01*
X130900000Y-20850000D02*
X132875000Y-20850000D01*
X130900000Y-20875000D02*
X130900000Y-25475000D01*
X131050000Y-20875000D02*
X131050000Y-25475000D01*
X131200000Y-20875000D02*
X131200000Y-25475000D01*
X131350000Y-20875000D02*
X131350000Y-25475000D01*
X131500000Y-20875000D02*
X131500000Y-25475000D01*
X131650000Y-20875000D02*
X131650000Y-25475000D01*
X131800000Y-20875000D02*
X131800000Y-25475000D01*
X131950000Y-20875000D02*
X131950000Y-25475000D01*
X132100000Y-20875000D02*
X132100000Y-25475000D01*
X132250000Y-20875000D02*
X132250000Y-25475000D01*
X132400000Y-20875000D02*
X132400000Y-25475000D01*
D14*
X132400000Y-25320000D02*
X134950000Y-25320000D01*
D13*
X132550000Y-20875000D02*
X132550000Y-25475000D01*
X132700000Y-20875000D02*
X132700000Y-25475000D01*
X132850000Y-20875000D02*
X132850000Y-25475000D01*
X133000000Y-20865000D02*
X133000000Y-25375000D01*
X133150000Y-20905000D02*
X133150000Y-25225000D01*
X133300000Y-20955000D02*
X133300000Y-25075000D01*
X133450000Y-21035000D02*
X133450000Y-25175000D01*
X133600000Y-21175000D02*
X133600000Y-25145000D01*
X133750000Y-21345000D02*
X133750000Y-25025000D01*
X133905000Y-24500000D02*
X133905000Y-21850000D01*
X127875000Y-23300000D02*
G75*
G02*
X129050000Y-24475000I-2J-1175002D01*
G01*
X129911204Y-25500000D02*
G75*
G02*
X129050000Y-24798113I38796J926887D01*
G01*
X130900000Y-20857542D02*
G75*
G02*
X128900000Y-19675000I2J2282546D01*
G01*
X132905000Y-20850000D02*
G75*
G02*
X133905000Y-21850000I1J-999999D01*
G01*
X133905000Y-24500000D02*
G75*
G02*
X132905000Y-25500000I-999999J-1D01*
G01*
X187295000Y-52075000D02*
X187295000Y-54725000D01*
X187450000Y-55230000D02*
X187450000Y-51550000D01*
X187600000Y-55400000D02*
X187600000Y-51430000D01*
X187750000Y-55540000D02*
X187750000Y-51400000D01*
X187900000Y-55620000D02*
X187900000Y-51500000D01*
X188050000Y-55670000D02*
X188050000Y-51350000D01*
X188200000Y-55710000D02*
X188200000Y-51200000D01*
X188350000Y-55700000D02*
X188350000Y-51100000D01*
X188500000Y-55700000D02*
X188500000Y-51100000D01*
X188650000Y-55700000D02*
X188650000Y-51100000D01*
D14*
X188800000Y-51255000D02*
X186250000Y-51255000D01*
D13*
X188800000Y-55700000D02*
X188800000Y-51100000D01*
X188950000Y-55700000D02*
X188950000Y-51100000D01*
X189100000Y-55700000D02*
X189100000Y-51100000D01*
X189250000Y-55700000D02*
X189250000Y-51100000D01*
X189400000Y-55700000D02*
X189400000Y-51100000D01*
X189550000Y-55700000D02*
X189550000Y-51100000D01*
X189700000Y-55700000D02*
X189700000Y-51100000D01*
X189850000Y-55700000D02*
X189850000Y-51100000D01*
X190000000Y-55700000D02*
X190000000Y-51100000D01*
X190150000Y-55700000D02*
X190150000Y-51100000D01*
X190300000Y-55700000D02*
X190300000Y-51100000D01*
X190300000Y-55725000D02*
X188325000Y-55725000D01*
X190450000Y-55700000D02*
X190450000Y-51150000D01*
X190600000Y-55740000D02*
X190600000Y-51100000D01*
X190750000Y-55750000D02*
X190750000Y-51100000D01*
X190900000Y-55750000D02*
X190900000Y-51150000D01*
X191050000Y-55800000D02*
X191050000Y-51090000D01*
X191200000Y-55900000D02*
X191200000Y-51080000D01*
X191288796Y-51075000D02*
X188325000Y-51075000D01*
X191350000Y-55950000D02*
X191350000Y-51100000D01*
X191500000Y-56050000D02*
X191500000Y-51130000D01*
X191650000Y-56150000D02*
X191650000Y-51180000D01*
X191800000Y-56250000D02*
X191800000Y-51260000D01*
X191950000Y-56400000D02*
X191950000Y-51450000D01*
X192100000Y-56550000D02*
X192100000Y-51650000D01*
X192150000Y-52100000D02*
X192150000Y-51776887D01*
X192200000Y-56720000D02*
X192200000Y-52600000D01*
X192300000Y-56900000D02*
X192300000Y-52750000D01*
X192300000Y-56900000D02*
X193575000Y-57925000D01*
X192400000Y-56970000D02*
X192400000Y-52950000D01*
X192500000Y-57050000D02*
X192500000Y-53050000D01*
X192600000Y-57130000D02*
X192600000Y-53100000D01*
X192710000Y-57220000D02*
X192700000Y-53150000D01*
X192850000Y-57320000D02*
X192850000Y-53200000D01*
X193000000Y-57460000D02*
X193000000Y-53300000D01*
X193150000Y-57580000D02*
X193150000Y-53300000D01*
X193300000Y-57690000D02*
X193300000Y-53300000D01*
X193450000Y-57810000D02*
X193450000Y-53350000D01*
X193600000Y-57900000D02*
X193600000Y-53300000D01*
X193750000Y-57900000D02*
X193750000Y-53300000D01*
X193900000Y-57900000D02*
X193900000Y-53300000D01*
X194050000Y-57900000D02*
X194050000Y-53300000D01*
X194200000Y-57900000D02*
X194200000Y-53300000D01*
X194350000Y-57900000D02*
X194350000Y-53300000D01*
X194500000Y-57900000D02*
X194500000Y-53300000D01*
X194650000Y-57900000D02*
X194650000Y-53300000D01*
X194800000Y-57900000D02*
X194800000Y-53300000D01*
X194950000Y-57900000D02*
X194950000Y-53300000D01*
X195100000Y-57900000D02*
X195100000Y-53300000D01*
X195250000Y-57900000D02*
X195250000Y-53300000D01*
X195400000Y-57900000D02*
X195400000Y-53300000D01*
X195550000Y-57900000D02*
X195550000Y-53300000D01*
X195700000Y-57900000D02*
X195700000Y-53300000D01*
X195850000Y-57900000D02*
X195850000Y-53300000D01*
X195900000Y-53275000D02*
X193325000Y-53275000D01*
X195900000Y-57925000D02*
X193575000Y-57925000D01*
X196000000Y-57790000D02*
X196000000Y-53400000D01*
X196150000Y-57650000D02*
X196150000Y-53530000D01*
X196300000Y-57520000D02*
X196300000Y-53690000D01*
X196450000Y-57360000D02*
X196450000Y-53830000D01*
X196550000Y-57260000D02*
X196550000Y-53930000D01*
X196650000Y-57150000D02*
X196650000Y-54030000D01*
X196750000Y-57070000D02*
X196750000Y-54140000D01*
X196900000Y-54275000D02*
X195900000Y-53275000D01*
X196900000Y-54275000D02*
X196900000Y-56925000D01*
X196900000Y-56925000D02*
X195900000Y-57925000D01*
X187295000Y-52075000D02*
G75*
G02*
X188295000Y-51075000I999999J1D01*
G01*
X188295000Y-55725000D02*
G75*
G02*
X187295000Y-54725000I-1J999999D01*
G01*
X190300000Y-55717458D02*
G75*
G02*
X192300000Y-56900000I-2J-2282546D01*
G01*
X191288796Y-51075000D02*
G75*
G02*
X192150000Y-51776887I-38796J-926887D01*
G01*
X193325000Y-53275000D02*
G75*
G02*
X192150000Y-52100000I2J1175002D01*
G01*
D12*
X113032843Y-79400000D02*
X113231281Y-79400000D01*
X113231281Y-78804686D02*
X113231281Y-79995314D01*
X113231281Y-79995314D02*
X114818785Y-79995314D01*
X113628157Y-79995314D02*
X113628157Y-78804686D01*
X114818785Y-78804686D02*
X113231281Y-78804686D01*
X114818785Y-79400000D02*
X115017223Y-79400000D01*
X114818785Y-79995314D02*
X114818785Y-78804686D01*
D13*
X119250000Y-75800000D02*
X123250000Y-75800000D01*
X119250000Y-76010000D02*
X123150000Y-76000000D01*
X119250000Y-76150000D02*
X123100000Y-76150000D01*
X119250000Y-76300000D02*
X123000000Y-76300000D01*
X119250000Y-76450000D02*
X123000000Y-76450000D01*
X119250000Y-76600000D02*
X123000000Y-76600000D01*
X119250000Y-76750000D02*
X122950000Y-76750000D01*
X119250000Y-76900000D02*
X123000000Y-76900000D01*
X119250000Y-77050000D02*
X123000000Y-77050000D01*
X119250000Y-77200000D02*
X123000000Y-77200000D01*
X119250000Y-77350000D02*
X123000000Y-77350000D01*
X119250000Y-77500000D02*
X123000000Y-77500000D01*
X119250000Y-77650000D02*
X123000000Y-77650000D01*
X119250000Y-77800000D02*
X123000000Y-77800000D01*
X119250000Y-77950000D02*
X123000000Y-77950000D01*
X119250000Y-78100000D02*
X123000000Y-78100000D01*
X119250000Y-78250000D02*
X123000000Y-78250000D01*
X119250000Y-80000000D02*
X119250000Y-75800000D01*
X119300000Y-75900000D02*
X123200000Y-75900000D01*
X119300000Y-78400000D02*
X123000000Y-78400000D01*
X119300000Y-78550000D02*
X123000000Y-78550000D01*
X119300000Y-78700000D02*
X123000000Y-78700000D01*
X119300000Y-78850000D02*
X123000000Y-78850000D01*
X119300000Y-79000000D02*
X123000000Y-79000000D01*
X119300000Y-79150000D02*
X123000000Y-79150000D01*
X119300000Y-79300000D02*
X122900000Y-79300000D01*
X119300000Y-79450000D02*
X122770000Y-79450000D01*
X119300000Y-79600000D02*
X122610000Y-79600000D01*
X119300000Y-79750000D02*
X122470000Y-79750000D01*
X119300000Y-79850000D02*
X122370000Y-79850000D01*
X119300000Y-79950000D02*
X122270000Y-79950000D01*
X119300000Y-80050000D02*
X122160000Y-80050000D01*
X119300000Y-80200000D02*
X119250000Y-80050000D01*
X119330000Y-75700000D02*
X123350000Y-75700000D01*
X119400000Y-75600000D02*
X119239216Y-75800000D01*
X119400000Y-75600000D02*
X123550000Y-75600000D01*
X119580000Y-75500000D02*
X123700000Y-75500000D01*
X119750000Y-75400000D02*
X124650000Y-75400000D01*
X119900000Y-75250000D02*
X124850000Y-75250000D01*
X120050000Y-75100000D02*
X125040000Y-75100000D01*
X120150000Y-74950000D02*
X125120000Y-74950000D01*
X120250000Y-74800000D02*
X125170000Y-74800000D01*
X120350000Y-74650000D02*
X125200000Y-74650000D01*
X120400000Y-74500000D02*
X125220000Y-74500000D01*
X120500000Y-74350000D02*
X125210000Y-74350000D01*
X120550000Y-74050000D02*
X125200000Y-74050000D01*
X120550000Y-74200000D02*
X125150000Y-74200000D01*
X120560000Y-73900000D02*
X125200000Y-73900000D01*
X120575000Y-73600000D02*
X120575000Y-71625000D01*
X120590000Y-71500000D02*
X125100000Y-71500000D01*
X120600000Y-71650000D02*
X125200000Y-71650000D01*
X120600000Y-71800000D02*
X125200000Y-71800000D01*
X120600000Y-71950000D02*
X125200000Y-71950000D01*
X120600000Y-72100000D02*
X125200000Y-72100000D01*
X120600000Y-72250000D02*
X125200000Y-72250000D01*
X120600000Y-72400000D02*
X125200000Y-72400000D01*
X120600000Y-72550000D02*
X125200000Y-72550000D01*
X120600000Y-72700000D02*
X125200000Y-72700000D01*
X120600000Y-72850000D02*
X125200000Y-72850000D01*
X120600000Y-73000000D02*
X125200000Y-73000000D01*
X120600000Y-73150000D02*
X125200000Y-73150000D01*
X120600000Y-73300000D02*
X125200000Y-73300000D01*
X120600000Y-73450000D02*
X125200000Y-73450000D01*
X120600000Y-73600000D02*
X125200000Y-73600000D01*
X120600000Y-73750000D02*
X125150000Y-73750000D01*
X120630000Y-71350000D02*
X124950000Y-71350000D01*
X120680000Y-71200000D02*
X124800000Y-71200000D01*
X120760000Y-71050000D02*
X124900000Y-71050000D01*
X120900000Y-70900000D02*
X124870000Y-70900000D01*
X121070000Y-70750000D02*
X124750000Y-70750000D01*
X122025000Y-80200000D02*
X119375000Y-80200000D01*
X122025000Y-80200000D02*
X123025000Y-79200000D01*
X123025000Y-79200000D02*
X123025000Y-76625000D01*
X124200000Y-75450000D02*
X124523113Y-75450000D01*
X124225000Y-70595000D02*
X121575000Y-70595000D01*
D14*
X125045000Y-72100000D02*
X125045000Y-69550000D01*
D13*
X125225000Y-74588796D02*
X125225000Y-71625000D01*
X120575000Y-71595000D02*
G75*
G02*
X121575000Y-70595000I999999J1D01*
G01*
X120582542Y-73600000D02*
G75*
G02*
X119400000Y-75600000I-2282546J2D01*
G01*
X123025000Y-76625000D02*
G75*
G02*
X124200000Y-75450000I1175002J-2D01*
G01*
X124225000Y-70595000D02*
G75*
G02*
X125225000Y-71595000I1J-999999D01*
G01*
X125225000Y-74588796D02*
G75*
G02*
X124523113Y-75450000I-926887J38796D01*
G01*
X124300000Y-36675000D02*
X125300000Y-35675000D01*
X124300000Y-39325000D02*
X124300000Y-36675000D01*
X124300000Y-39325000D02*
X125300000Y-40325000D01*
X124450000Y-36530000D02*
X124450000Y-39460000D01*
X124550000Y-36450000D02*
X124550000Y-39570000D01*
X124650000Y-36340000D02*
X124650000Y-39670000D01*
X124750000Y-36240000D02*
X124750000Y-39770000D01*
X124900000Y-36080000D02*
X124900000Y-39910000D01*
X125050000Y-35950000D02*
X125050000Y-40070000D01*
X125200000Y-35810000D02*
X125200000Y-40200000D01*
X125300000Y-35675000D02*
X127625000Y-35675000D01*
X125300000Y-40325000D02*
X127875000Y-40325000D01*
X125350000Y-35700000D02*
X125350000Y-40300000D01*
X125500000Y-35700000D02*
X125500000Y-40300000D01*
X125650000Y-35700000D02*
X125650000Y-40300000D01*
X125800000Y-35700000D02*
X125800000Y-40300000D01*
X125950000Y-35700000D02*
X125950000Y-40300000D01*
X126100000Y-35700000D02*
X126100000Y-40300000D01*
X126250000Y-35700000D02*
X126250000Y-40300000D01*
X126400000Y-35700000D02*
X126400000Y-40300000D01*
X126550000Y-35700000D02*
X126550000Y-40300000D01*
X126700000Y-35700000D02*
X126700000Y-40300000D01*
X126850000Y-35700000D02*
X126850000Y-40300000D01*
X127000000Y-35700000D02*
X127000000Y-40300000D01*
X127150000Y-35700000D02*
X127150000Y-40300000D01*
X127300000Y-35700000D02*
X127300000Y-40300000D01*
X127450000Y-35700000D02*
X127450000Y-40300000D01*
X127600000Y-35700000D02*
X127600000Y-40300000D01*
X127750000Y-35790000D02*
X127750000Y-40250000D01*
X127900000Y-35910000D02*
X127900000Y-40300000D01*
X128050000Y-36020000D02*
X128050000Y-40300000D01*
X128200000Y-36140000D02*
X128200000Y-40300000D01*
X128350000Y-36280000D02*
X128350000Y-40400000D01*
X128490000Y-36380000D02*
X128500000Y-40450000D01*
X128600000Y-36470000D02*
X128600000Y-40500000D01*
X128700000Y-36550000D02*
X128700000Y-40550000D01*
X128800000Y-36630000D02*
X128800000Y-40650000D01*
X128900000Y-36700000D02*
X127625000Y-35675000D01*
X128900000Y-36700000D02*
X128900000Y-40850000D01*
X129000000Y-36880000D02*
X129000000Y-41000000D01*
X129050000Y-41500000D02*
X129050000Y-41823113D01*
X129100000Y-37050000D02*
X129100000Y-41950000D01*
X129250000Y-37200000D02*
X129250000Y-42150000D01*
X129400000Y-37350000D02*
X129400000Y-42340000D01*
X129550000Y-37450000D02*
X129550000Y-42420000D01*
X129700000Y-37550000D02*
X129700000Y-42470000D01*
X129850000Y-37650000D02*
X129850000Y-42500000D01*
X129911204Y-42525000D02*
X132875000Y-42525000D01*
X130000000Y-37700000D02*
X130000000Y-42520000D01*
X130150000Y-37800000D02*
X130150000Y-42510000D01*
X130300000Y-37850000D02*
X130300000Y-42450000D01*
X130450000Y-37850000D02*
X130450000Y-42500000D01*
X130600000Y-37860000D02*
X130600000Y-42500000D01*
X130750000Y-37900000D02*
X130750000Y-42450000D01*
X130900000Y-37875000D02*
X132875000Y-37875000D01*
X130900000Y-37900000D02*
X130900000Y-42500000D01*
X131050000Y-37900000D02*
X131050000Y-42500000D01*
X131200000Y-37900000D02*
X131200000Y-42500000D01*
X131350000Y-37900000D02*
X131350000Y-42500000D01*
X131500000Y-37900000D02*
X131500000Y-42500000D01*
X131650000Y-37900000D02*
X131650000Y-42500000D01*
X131800000Y-37900000D02*
X131800000Y-42500000D01*
X131950000Y-37900000D02*
X131950000Y-42500000D01*
X132100000Y-37900000D02*
X132100000Y-42500000D01*
X132250000Y-37900000D02*
X132250000Y-42500000D01*
X132400000Y-37900000D02*
X132400000Y-42500000D01*
D14*
X132400000Y-42345000D02*
X134950000Y-42345000D01*
D13*
X132550000Y-37900000D02*
X132550000Y-42500000D01*
X132700000Y-37900000D02*
X132700000Y-42500000D01*
X132850000Y-37900000D02*
X132850000Y-42500000D01*
X133000000Y-37890000D02*
X133000000Y-42400000D01*
X133150000Y-37930000D02*
X133150000Y-42250000D01*
X133300000Y-37980000D02*
X133300000Y-42100000D01*
X133450000Y-38060000D02*
X133450000Y-42200000D01*
X133600000Y-38200000D02*
X133600000Y-42170000D01*
X133750000Y-38370000D02*
X133750000Y-42050000D01*
X133905000Y-41525000D02*
X133905000Y-38875000D01*
X127875000Y-40325000D02*
G75*
G02*
X129050000Y-41500000I-2J-1175002D01*
G01*
X129911204Y-42525000D02*
G75*
G02*
X129050000Y-41823113I38796J926887D01*
G01*
X130900000Y-37882542D02*
G75*
G02*
X128900000Y-36700000I2J2282546D01*
G01*
X132905000Y-37875000D02*
G75*
G02*
X133905000Y-38875000I1J-999999D01*
G01*
X133905000Y-41525000D02*
G75*
G02*
X132905000Y-42525000I-999999J-1D01*
G01*
X187295000Y-69075000D02*
X187295000Y-71725000D01*
X187450000Y-72230000D02*
X187450000Y-68550000D01*
X187600000Y-72400000D02*
X187600000Y-68430000D01*
X187750000Y-72540000D02*
X187750000Y-68400000D01*
X187900000Y-72620000D02*
X187900000Y-68500000D01*
X188050000Y-72670000D02*
X188050000Y-68350000D01*
X188200000Y-72710000D02*
X188200000Y-68200000D01*
X188350000Y-72700000D02*
X188350000Y-68100000D01*
X188500000Y-72700000D02*
X188500000Y-68100000D01*
X188650000Y-72700000D02*
X188650000Y-68100000D01*
D14*
X188800000Y-68255000D02*
X186250000Y-68255000D01*
D13*
X188800000Y-72700000D02*
X188800000Y-68100000D01*
X188950000Y-72700000D02*
X188950000Y-68100000D01*
X189100000Y-72700000D02*
X189100000Y-68100000D01*
X189250000Y-72700000D02*
X189250000Y-68100000D01*
X189400000Y-72700000D02*
X189400000Y-68100000D01*
X189550000Y-72700000D02*
X189550000Y-68100000D01*
X189700000Y-72700000D02*
X189700000Y-68100000D01*
X189850000Y-72700000D02*
X189850000Y-68100000D01*
X190000000Y-72700000D02*
X190000000Y-68100000D01*
X190150000Y-72700000D02*
X190150000Y-68100000D01*
X190300000Y-72700000D02*
X190300000Y-68100000D01*
X190300000Y-72725000D02*
X188325000Y-72725000D01*
X190450000Y-72700000D02*
X190450000Y-68150000D01*
X190600000Y-72740000D02*
X190600000Y-68100000D01*
X190750000Y-72750000D02*
X190750000Y-68100000D01*
X190900000Y-72750000D02*
X190900000Y-68150000D01*
X191050000Y-72800000D02*
X191050000Y-68090000D01*
X191200000Y-72900000D02*
X191200000Y-68080000D01*
X191288796Y-68075000D02*
X188325000Y-68075000D01*
X191350000Y-72950000D02*
X191350000Y-68100000D01*
X191500000Y-73050000D02*
X191500000Y-68130000D01*
X191650000Y-73150000D02*
X191650000Y-68180000D01*
X191800000Y-73250000D02*
X191800000Y-68260000D01*
X191950000Y-73400000D02*
X191950000Y-68450000D01*
X192100000Y-73550000D02*
X192100000Y-68650000D01*
X192150000Y-69100000D02*
X192150000Y-68776887D01*
X192200000Y-73720000D02*
X192200000Y-69600000D01*
X192300000Y-73900000D02*
X192300000Y-69750000D01*
X192300000Y-73900000D02*
X193575000Y-74925000D01*
X192400000Y-73970000D02*
X192400000Y-69950000D01*
X192500000Y-74050000D02*
X192500000Y-70050000D01*
X192600000Y-74130000D02*
X192600000Y-70100000D01*
X192710000Y-74220000D02*
X192700000Y-70150000D01*
X192850000Y-74320000D02*
X192850000Y-70200000D01*
X193000000Y-74460000D02*
X193000000Y-70300000D01*
X193150000Y-74580000D02*
X193150000Y-70300000D01*
X193300000Y-74690000D02*
X193300000Y-70300000D01*
X193450000Y-74810000D02*
X193450000Y-70350000D01*
X193600000Y-74900000D02*
X193600000Y-70300000D01*
X193750000Y-74900000D02*
X193750000Y-70300000D01*
X193900000Y-74900000D02*
X193900000Y-70300000D01*
X194050000Y-74900000D02*
X194050000Y-70300000D01*
X194200000Y-74900000D02*
X194200000Y-70300000D01*
X194350000Y-74900000D02*
X194350000Y-70300000D01*
X194500000Y-74900000D02*
X194500000Y-70300000D01*
X194650000Y-74900000D02*
X194650000Y-70300000D01*
X194800000Y-74900000D02*
X194800000Y-70300000D01*
X194950000Y-74900000D02*
X194950000Y-70300000D01*
X195100000Y-74900000D02*
X195100000Y-70300000D01*
X195250000Y-74900000D02*
X195250000Y-70300000D01*
X195400000Y-74900000D02*
X195400000Y-70300000D01*
X195550000Y-74900000D02*
X195550000Y-70300000D01*
X195700000Y-74900000D02*
X195700000Y-70300000D01*
X195850000Y-74900000D02*
X195850000Y-70300000D01*
X195900000Y-70275000D02*
X193325000Y-70275000D01*
X195900000Y-74925000D02*
X193575000Y-74925000D01*
X196000000Y-74790000D02*
X196000000Y-70400000D01*
X196150000Y-74650000D02*
X196150000Y-70530000D01*
X196300000Y-74520000D02*
X196300000Y-70690000D01*
X196450000Y-74360000D02*
X196450000Y-70830000D01*
X196550000Y-74260000D02*
X196550000Y-70930000D01*
X196650000Y-74150000D02*
X196650000Y-71030000D01*
X196750000Y-74070000D02*
X196750000Y-71140000D01*
X196900000Y-71275000D02*
X195900000Y-70275000D01*
X196900000Y-71275000D02*
X196900000Y-73925000D01*
X196900000Y-73925000D02*
X195900000Y-74925000D01*
X187295000Y-69075000D02*
G75*
G02*
X188295000Y-68075000I999999J1D01*
G01*
X188295000Y-72725000D02*
G75*
G02*
X187295000Y-71725000I-1J999999D01*
G01*
X190300000Y-72717458D02*
G75*
G02*
X192300000Y-73900000I-2J-2282546D01*
G01*
X191288796Y-68075000D02*
G75*
G02*
X192150000Y-68776887I-38796J-926887D01*
G01*
X193325000Y-70275000D02*
G75*
G02*
X192150000Y-69100000I2J1175002D01*
G01*
D12*
X186382843Y-45400000D02*
X186581281Y-45400000D01*
X186581281Y-44804686D02*
X186581281Y-45995314D01*
X186581281Y-45995314D02*
X188168785Y-45995314D01*
X186978157Y-45995314D02*
X186978157Y-44804686D01*
X188168785Y-44804686D02*
X186581281Y-44804686D01*
X188168785Y-45400000D02*
X188367223Y-45400000D01*
X188168785Y-45995314D02*
X188168785Y-44804686D01*
D13*
X170295000Y-26875000D02*
X170295000Y-29525000D01*
X170450000Y-30030000D02*
X170450000Y-26350000D01*
X170600000Y-30200000D02*
X170600000Y-26230000D01*
X170750000Y-30340000D02*
X170750000Y-26200000D01*
X170900000Y-30420000D02*
X170900000Y-26300000D01*
X171050000Y-30470000D02*
X171050000Y-26150000D01*
X171200000Y-30510000D02*
X171200000Y-26000000D01*
X171350000Y-30500000D02*
X171350000Y-25900000D01*
X171500000Y-30500000D02*
X171500000Y-25900000D01*
X171650000Y-30500000D02*
X171650000Y-25900000D01*
D14*
X171800000Y-26055000D02*
X169250000Y-26055000D01*
D13*
X171800000Y-30500000D02*
X171800000Y-25900000D01*
X171950000Y-30500000D02*
X171950000Y-25900000D01*
X172100000Y-30500000D02*
X172100000Y-25900000D01*
X172250000Y-30500000D02*
X172250000Y-25900000D01*
X172400000Y-30500000D02*
X172400000Y-25900000D01*
X172550000Y-30500000D02*
X172550000Y-25900000D01*
X172700000Y-30500000D02*
X172700000Y-25900000D01*
X172850000Y-30500000D02*
X172850000Y-25900000D01*
X173000000Y-30500000D02*
X173000000Y-25900000D01*
X173150000Y-30500000D02*
X173150000Y-25900000D01*
X173300000Y-30500000D02*
X173300000Y-25900000D01*
X173300000Y-30525000D02*
X171325000Y-30525000D01*
X173450000Y-30500000D02*
X173450000Y-25950000D01*
X173600000Y-30540000D02*
X173600000Y-25900000D01*
X173750000Y-30550000D02*
X173750000Y-25900000D01*
X173900000Y-30550000D02*
X173900000Y-25950000D01*
X174050000Y-30600000D02*
X174050000Y-25890000D01*
X174200000Y-30700000D02*
X174200000Y-25880000D01*
X174288796Y-25875000D02*
X171325000Y-25875000D01*
X174350000Y-30750000D02*
X174350000Y-25900000D01*
X174500000Y-30850000D02*
X174500000Y-25930000D01*
X174650000Y-30950000D02*
X174650000Y-25980000D01*
X174800000Y-31050000D02*
X174800000Y-26060000D01*
X174950000Y-31200000D02*
X174950000Y-26250000D01*
X175100000Y-31350000D02*
X175100000Y-26450000D01*
X175150000Y-26900000D02*
X175150000Y-26576887D01*
X175200000Y-31520000D02*
X175200000Y-27400000D01*
X175300000Y-31700000D02*
X175300000Y-27550000D01*
X175300000Y-31700000D02*
X176575000Y-32725000D01*
X175400000Y-31770000D02*
X175400000Y-27750000D01*
X175500000Y-31850000D02*
X175500000Y-27850000D01*
X175600000Y-31930000D02*
X175600000Y-27900000D01*
X175710000Y-32020000D02*
X175700000Y-27950000D01*
X175850000Y-32120000D02*
X175850000Y-28000000D01*
X176000000Y-32260000D02*
X176000000Y-28100000D01*
X176150000Y-32380000D02*
X176150000Y-28100000D01*
X176300000Y-32490000D02*
X176300000Y-28100000D01*
X176450000Y-32610000D02*
X176450000Y-28150000D01*
X176600000Y-32700000D02*
X176600000Y-28100000D01*
X176750000Y-32700000D02*
X176750000Y-28100000D01*
X176900000Y-32700000D02*
X176900000Y-28100000D01*
X177050000Y-32700000D02*
X177050000Y-28100000D01*
X177200000Y-32700000D02*
X177200000Y-28100000D01*
X177350000Y-32700000D02*
X177350000Y-28100000D01*
X177500000Y-32700000D02*
X177500000Y-28100000D01*
X177650000Y-32700000D02*
X177650000Y-28100000D01*
X177800000Y-32700000D02*
X177800000Y-28100000D01*
X177950000Y-32700000D02*
X177950000Y-28100000D01*
X178100000Y-32700000D02*
X178100000Y-28100000D01*
X178250000Y-32700000D02*
X178250000Y-28100000D01*
X178400000Y-32700000D02*
X178400000Y-28100000D01*
X178550000Y-32700000D02*
X178550000Y-28100000D01*
X178700000Y-32700000D02*
X178700000Y-28100000D01*
X178850000Y-32700000D02*
X178850000Y-28100000D01*
X178900000Y-28075000D02*
X176325000Y-28075000D01*
X178900000Y-32725000D02*
X176575000Y-32725000D01*
X179000000Y-32590000D02*
X179000000Y-28200000D01*
X179150000Y-32450000D02*
X179150000Y-28330000D01*
X179300000Y-32320000D02*
X179300000Y-28490000D01*
X179450000Y-32160000D02*
X179450000Y-28630000D01*
X179550000Y-32060000D02*
X179550000Y-28730000D01*
X179650000Y-31950000D02*
X179650000Y-28830000D01*
X179750000Y-31870000D02*
X179750000Y-28940000D01*
X179900000Y-29075000D02*
X178900000Y-28075000D01*
X179900000Y-29075000D02*
X179900000Y-31725000D01*
X179900000Y-31725000D02*
X178900000Y-32725000D01*
X170295000Y-26875000D02*
G75*
G02*
X171295000Y-25875000I999999J1D01*
G01*
X171295000Y-30525000D02*
G75*
G02*
X170295000Y-29525000I-1J999999D01*
G01*
X173300000Y-30517458D02*
G75*
G02*
X175300000Y-31700000I-2J-2282546D01*
G01*
X174288796Y-25875000D02*
G75*
G02*
X175150000Y-26576887I-38796J-926887D01*
G01*
X176325000Y-28075000D02*
G75*
G02*
X175150000Y-26900000I2J1175002D01*
G01*
X170295000Y-60875000D02*
X170295000Y-63525000D01*
X170450000Y-64030000D02*
X170450000Y-60350000D01*
X170600000Y-64200000D02*
X170600000Y-60230000D01*
X170750000Y-64340000D02*
X170750000Y-60200000D01*
X170900000Y-64420000D02*
X170900000Y-60300000D01*
X171050000Y-64470000D02*
X171050000Y-60150000D01*
X171200000Y-64510000D02*
X171200000Y-60000000D01*
X171350000Y-64500000D02*
X171350000Y-59900000D01*
X171500000Y-64500000D02*
X171500000Y-59900000D01*
X171650000Y-64500000D02*
X171650000Y-59900000D01*
D14*
X171800000Y-60055000D02*
X169250000Y-60055000D01*
D13*
X171800000Y-64500000D02*
X171800000Y-59900000D01*
X171950000Y-64500000D02*
X171950000Y-59900000D01*
X172100000Y-64500000D02*
X172100000Y-59900000D01*
X172250000Y-64500000D02*
X172250000Y-59900000D01*
X172400000Y-64500000D02*
X172400000Y-59900000D01*
X172550000Y-64500000D02*
X172550000Y-59900000D01*
X172700000Y-64500000D02*
X172700000Y-59900000D01*
X172850000Y-64500000D02*
X172850000Y-59900000D01*
X173000000Y-64500000D02*
X173000000Y-59900000D01*
X173150000Y-64500000D02*
X173150000Y-59900000D01*
X173300000Y-64500000D02*
X173300000Y-59900000D01*
X173300000Y-64525000D02*
X171325000Y-64525000D01*
X173450000Y-64500000D02*
X173450000Y-59950000D01*
X173600000Y-64540000D02*
X173600000Y-59900000D01*
X173750000Y-64550000D02*
X173750000Y-59900000D01*
X173900000Y-64550000D02*
X173900000Y-59950000D01*
X174050000Y-64600000D02*
X174050000Y-59890000D01*
X174200000Y-64700000D02*
X174200000Y-59880000D01*
X174288796Y-59875000D02*
X171325000Y-59875000D01*
X174350000Y-64750000D02*
X174350000Y-59900000D01*
X174500000Y-64850000D02*
X174500000Y-59930000D01*
X174650000Y-64950000D02*
X174650000Y-59980000D01*
X174800000Y-65050000D02*
X174800000Y-60060000D01*
X174950000Y-65200000D02*
X174950000Y-60250000D01*
X175100000Y-65350000D02*
X175100000Y-60450000D01*
X175150000Y-60900000D02*
X175150000Y-60576887D01*
X175200000Y-65520000D02*
X175200000Y-61400000D01*
X175300000Y-65700000D02*
X175300000Y-61550000D01*
X175300000Y-65700000D02*
X176575000Y-66725000D01*
X175400000Y-65770000D02*
X175400000Y-61750000D01*
X175500000Y-65850000D02*
X175500000Y-61850000D01*
X175600000Y-65930000D02*
X175600000Y-61900000D01*
X175710000Y-66020000D02*
X175700000Y-61950000D01*
X175850000Y-66120000D02*
X175850000Y-62000000D01*
X176000000Y-66260000D02*
X176000000Y-62100000D01*
X176150000Y-66380000D02*
X176150000Y-62100000D01*
X176300000Y-66490000D02*
X176300000Y-62100000D01*
X176450000Y-66610000D02*
X176450000Y-62150000D01*
X176600000Y-66700000D02*
X176600000Y-62100000D01*
X176750000Y-66700000D02*
X176750000Y-62100000D01*
X176900000Y-66700000D02*
X176900000Y-62100000D01*
X177050000Y-66700000D02*
X177050000Y-62100000D01*
X177200000Y-66700000D02*
X177200000Y-62100000D01*
X177350000Y-66700000D02*
X177350000Y-62100000D01*
X177500000Y-66700000D02*
X177500000Y-62100000D01*
X177650000Y-66700000D02*
X177650000Y-62100000D01*
X177800000Y-66700000D02*
X177800000Y-62100000D01*
X177950000Y-66700000D02*
X177950000Y-62100000D01*
X178100000Y-66700000D02*
X178100000Y-62100000D01*
X178250000Y-66700000D02*
X178250000Y-62100000D01*
X178400000Y-66700000D02*
X178400000Y-62100000D01*
X178550000Y-66700000D02*
X178550000Y-62100000D01*
X178700000Y-66700000D02*
X178700000Y-62100000D01*
X178850000Y-66700000D02*
X178850000Y-62100000D01*
X178900000Y-62075000D02*
X176325000Y-62075000D01*
X178900000Y-66725000D02*
X176575000Y-66725000D01*
X179000000Y-66590000D02*
X179000000Y-62200000D01*
X179150000Y-66450000D02*
X179150000Y-62330000D01*
X179300000Y-66320000D02*
X179300000Y-62490000D01*
X179450000Y-66160000D02*
X179450000Y-62630000D01*
X179550000Y-66060000D02*
X179550000Y-62730000D01*
X179650000Y-65950000D02*
X179650000Y-62830000D01*
X179750000Y-65870000D02*
X179750000Y-62940000D01*
X179900000Y-63075000D02*
X178900000Y-62075000D01*
X179900000Y-63075000D02*
X179900000Y-65725000D01*
X179900000Y-65725000D02*
X178900000Y-66725000D01*
X170295000Y-60875000D02*
G75*
G02*
X171295000Y-59875000I999999J1D01*
G01*
X171295000Y-64525000D02*
G75*
G02*
X170295000Y-63525000I-1J999999D01*
G01*
X173300000Y-64517458D02*
G75*
G02*
X175300000Y-65700000I-2J-2282546D01*
G01*
X174288796Y-59875000D02*
G75*
G02*
X175150000Y-60576887I-38796J-926887D01*
G01*
X176325000Y-62075000D02*
G75*
G02*
X175150000Y-60900000I2J1175002D01*
G01*
D12*
X179082843Y-51650000D02*
X179281281Y-51650000D01*
X179281281Y-51054686D02*
X179281281Y-52245314D01*
X179281281Y-52245314D02*
X180868785Y-52245314D01*
X179678157Y-52245314D02*
X179678157Y-51054686D01*
X180868785Y-51054686D02*
X179281281Y-51054686D01*
X180868785Y-51650000D02*
X181067223Y-51650000D01*
X180868785Y-52245314D02*
X180868785Y-51054686D01*
X112932843Y-72950000D02*
X113131281Y-72950000D01*
X113131281Y-72354686D02*
X113131281Y-73545314D01*
X113131281Y-73545314D02*
X114718785Y-73545314D01*
X113528157Y-73545314D02*
X113528157Y-72354686D01*
X114718785Y-72354686D02*
X113131281Y-72354686D01*
X114718785Y-72950000D02*
X114917223Y-72950000D01*
X114718785Y-73545314D02*
X114718785Y-72354686D01*
X156482843Y-26850000D02*
X156681281Y-26850000D01*
X156681281Y-26254686D02*
X156681281Y-27445314D01*
X156681281Y-27445314D02*
X158268785Y-27445314D01*
X157078157Y-27445314D02*
X157078157Y-26254686D01*
X158268785Y-26254686D02*
X156681281Y-26254686D01*
X158268785Y-26850000D02*
X158467223Y-26850000D01*
X158268785Y-27445314D02*
X158268785Y-26254686D01*
X187532843Y-28750000D02*
X187731281Y-28750000D01*
X187731281Y-28154686D02*
X187731281Y-29345314D01*
X187731281Y-29345314D02*
X189318785Y-29345314D01*
X188128157Y-29345314D02*
X188128157Y-28154686D01*
X189318785Y-28154686D02*
X187731281Y-28154686D01*
X189318785Y-28750000D02*
X189517223Y-28750000D01*
X189318785Y-29345314D02*
X189318785Y-28154686D01*
X133381215Y-32004686D02*
X133381215Y-33195314D01*
X133381215Y-32600000D02*
X133182777Y-32600000D01*
X133381215Y-33195314D02*
X134968719Y-33195314D01*
X134571843Y-32004686D02*
X134571843Y-33195314D01*
X134968719Y-32004686D02*
X133381215Y-32004686D01*
X134968719Y-33195314D02*
X134968719Y-32004686D01*
X135167157Y-32600000D02*
X134968719Y-32600000D01*
D13*
X141300000Y-17275000D02*
X142300000Y-16275000D01*
X141300000Y-19925000D02*
X141300000Y-17275000D01*
X141300000Y-19925000D02*
X142300000Y-20925000D01*
X141450000Y-17130000D02*
X141450000Y-20060000D01*
X141550000Y-17050000D02*
X141550000Y-20170000D01*
X141650000Y-16940000D02*
X141650000Y-20270000D01*
X141750000Y-16840000D02*
X141750000Y-20370000D01*
X141900000Y-16680000D02*
X141900000Y-20510000D01*
X142050000Y-16550000D02*
X142050000Y-20670000D01*
X142200000Y-16410000D02*
X142200000Y-20800000D01*
X142300000Y-16275000D02*
X144625000Y-16275000D01*
X142300000Y-20925000D02*
X144875000Y-20925000D01*
X142350000Y-16300000D02*
X142350000Y-20900000D01*
X142500000Y-16300000D02*
X142500000Y-20900000D01*
X142650000Y-16300000D02*
X142650000Y-20900000D01*
X142800000Y-16300000D02*
X142800000Y-20900000D01*
X142950000Y-16300000D02*
X142950000Y-20900000D01*
X143100000Y-16300000D02*
X143100000Y-20900000D01*
X143250000Y-16300000D02*
X143250000Y-20900000D01*
X143400000Y-16300000D02*
X143400000Y-20900000D01*
X143550000Y-16300000D02*
X143550000Y-20900000D01*
X143700000Y-16300000D02*
X143700000Y-20900000D01*
X143850000Y-16300000D02*
X143850000Y-20900000D01*
X144000000Y-16300000D02*
X144000000Y-20900000D01*
X144150000Y-16300000D02*
X144150000Y-20900000D01*
X144300000Y-16300000D02*
X144300000Y-20900000D01*
X144450000Y-16300000D02*
X144450000Y-20900000D01*
X144600000Y-16300000D02*
X144600000Y-20900000D01*
X144750000Y-16390000D02*
X144750000Y-20850000D01*
X144900000Y-16510000D02*
X144900000Y-20900000D01*
X145050000Y-16620000D02*
X145050000Y-20900000D01*
X145200000Y-16740000D02*
X145200000Y-20900000D01*
X145350000Y-16880000D02*
X145350000Y-21000000D01*
X145490000Y-16980000D02*
X145500000Y-21050000D01*
X145600000Y-17070000D02*
X145600000Y-21100000D01*
X145700000Y-17150000D02*
X145700000Y-21150000D01*
X145800000Y-17230000D02*
X145800000Y-21250000D01*
X145900000Y-17300000D02*
X144625000Y-16275000D01*
X145900000Y-17300000D02*
X145900000Y-21450000D01*
X146000000Y-17480000D02*
X146000000Y-21600000D01*
X146050000Y-22100000D02*
X146050000Y-22423113D01*
X146100000Y-17650000D02*
X146100000Y-22550000D01*
X146250000Y-17800000D02*
X146250000Y-22750000D01*
X146400000Y-17950000D02*
X146400000Y-22940000D01*
X146550000Y-18050000D02*
X146550000Y-23020000D01*
X146700000Y-18150000D02*
X146700000Y-23070000D01*
X146850000Y-18250000D02*
X146850000Y-23100000D01*
X146911204Y-23125000D02*
X149875000Y-23125000D01*
X147000000Y-18300000D02*
X147000000Y-23120000D01*
X147150000Y-18400000D02*
X147150000Y-23110000D01*
X147300000Y-18450000D02*
X147300000Y-23050000D01*
X147450000Y-18450000D02*
X147450000Y-23100000D01*
X147600000Y-18460000D02*
X147600000Y-23100000D01*
X147750000Y-18500000D02*
X147750000Y-23050000D01*
X147900000Y-18475000D02*
X149875000Y-18475000D01*
X147900000Y-18500000D02*
X147900000Y-23100000D01*
X148050000Y-18500000D02*
X148050000Y-23100000D01*
X148200000Y-18500000D02*
X148200000Y-23100000D01*
X148350000Y-18500000D02*
X148350000Y-23100000D01*
X148500000Y-18500000D02*
X148500000Y-23100000D01*
X148650000Y-18500000D02*
X148650000Y-23100000D01*
X148800000Y-18500000D02*
X148800000Y-23100000D01*
X148950000Y-18500000D02*
X148950000Y-23100000D01*
X149100000Y-18500000D02*
X149100000Y-23100000D01*
X149250000Y-18500000D02*
X149250000Y-23100000D01*
X149400000Y-18500000D02*
X149400000Y-23100000D01*
D14*
X149400000Y-22945000D02*
X151950000Y-22945000D01*
D13*
X149550000Y-18500000D02*
X149550000Y-23100000D01*
X149700000Y-18500000D02*
X149700000Y-23100000D01*
X149850000Y-18500000D02*
X149850000Y-23100000D01*
X150000000Y-18490000D02*
X150000000Y-23000000D01*
X150150000Y-18530000D02*
X150150000Y-22850000D01*
X150300000Y-18580000D02*
X150300000Y-22700000D01*
X150450000Y-18660000D02*
X150450000Y-22800000D01*
X150600000Y-18800000D02*
X150600000Y-22770000D01*
X150750000Y-18970000D02*
X150750000Y-22650000D01*
X150905000Y-22125000D02*
X150905000Y-19475000D01*
X144875000Y-20925000D02*
G75*
G02*
X146050000Y-22100000I-2J-1175002D01*
G01*
X146911204Y-23125000D02*
G75*
G02*
X146050000Y-22423113I38796J926887D01*
G01*
X147900000Y-18482542D02*
G75*
G02*
X145900000Y-17300000I2J2282546D01*
G01*
X149905000Y-18475000D02*
G75*
G02*
X150905000Y-19475000I1J-999999D01*
G01*
X150905000Y-22125000D02*
G75*
G02*
X149905000Y-23125000I-999999J-1D01*
G01*
X136295000Y-60875000D02*
X136295000Y-63525000D01*
X136450000Y-64030000D02*
X136450000Y-60350000D01*
X136600000Y-64200000D02*
X136600000Y-60230000D01*
X136750000Y-64340000D02*
X136750000Y-60200000D01*
X136900000Y-64420000D02*
X136900000Y-60300000D01*
X137050000Y-64470000D02*
X137050000Y-60150000D01*
X137200000Y-64510000D02*
X137200000Y-60000000D01*
X137350000Y-64500000D02*
X137350000Y-59900000D01*
X137500000Y-64500000D02*
X137500000Y-59900000D01*
X137650000Y-64500000D02*
X137650000Y-59900000D01*
D14*
X137800000Y-60055000D02*
X135250000Y-60055000D01*
D13*
X137800000Y-64500000D02*
X137800000Y-59900000D01*
X137950000Y-64500000D02*
X137950000Y-59900000D01*
X138100000Y-64500000D02*
X138100000Y-59900000D01*
X138250000Y-64500000D02*
X138250000Y-59900000D01*
X138400000Y-64500000D02*
X138400000Y-59900000D01*
X138550000Y-64500000D02*
X138550000Y-59900000D01*
X138700000Y-64500000D02*
X138700000Y-59900000D01*
X138850000Y-64500000D02*
X138850000Y-59900000D01*
X139000000Y-64500000D02*
X139000000Y-59900000D01*
X139150000Y-64500000D02*
X139150000Y-59900000D01*
X139300000Y-64500000D02*
X139300000Y-59900000D01*
X139300000Y-64525000D02*
X137325000Y-64525000D01*
X139450000Y-64500000D02*
X139450000Y-59950000D01*
X139600000Y-64540000D02*
X139600000Y-59900000D01*
X139750000Y-64550000D02*
X139750000Y-59900000D01*
X139900000Y-64550000D02*
X139900000Y-59950000D01*
X140050000Y-64600000D02*
X140050000Y-59890000D01*
X140200000Y-64700000D02*
X140200000Y-59880000D01*
X140288796Y-59875000D02*
X137325000Y-59875000D01*
X140350000Y-64750000D02*
X140350000Y-59900000D01*
X140500000Y-64850000D02*
X140500000Y-59930000D01*
X140650000Y-64950000D02*
X140650000Y-59980000D01*
X140800000Y-65050000D02*
X140800000Y-60060000D01*
X140950000Y-65200000D02*
X140950000Y-60250000D01*
X141100000Y-65350000D02*
X141100000Y-60450000D01*
X141150000Y-60900000D02*
X141150000Y-60576887D01*
X141200000Y-65520000D02*
X141200000Y-61400000D01*
X141300000Y-65700000D02*
X141300000Y-61550000D01*
X141300000Y-65700000D02*
X142575000Y-66725000D01*
X141400000Y-65770000D02*
X141400000Y-61750000D01*
X141500000Y-65850000D02*
X141500000Y-61850000D01*
X141600000Y-65930000D02*
X141600000Y-61900000D01*
X141710000Y-66020000D02*
X141700000Y-61950000D01*
X141850000Y-66120000D02*
X141850000Y-62000000D01*
X142000000Y-66260000D02*
X142000000Y-62100000D01*
X142150000Y-66380000D02*
X142150000Y-62100000D01*
X142300000Y-66490000D02*
X142300000Y-62100000D01*
X142450000Y-66610000D02*
X142450000Y-62150000D01*
X142600000Y-66700000D02*
X142600000Y-62100000D01*
X142750000Y-66700000D02*
X142750000Y-62100000D01*
X142900000Y-66700000D02*
X142900000Y-62100000D01*
X143050000Y-66700000D02*
X143050000Y-62100000D01*
X143200000Y-66700000D02*
X143200000Y-62100000D01*
X143350000Y-66700000D02*
X143350000Y-62100000D01*
X143500000Y-66700000D02*
X143500000Y-62100000D01*
X143650000Y-66700000D02*
X143650000Y-62100000D01*
X143800000Y-66700000D02*
X143800000Y-62100000D01*
X143950000Y-66700000D02*
X143950000Y-62100000D01*
X144100000Y-66700000D02*
X144100000Y-62100000D01*
X144250000Y-66700000D02*
X144250000Y-62100000D01*
X144400000Y-66700000D02*
X144400000Y-62100000D01*
X144550000Y-66700000D02*
X144550000Y-62100000D01*
X144700000Y-66700000D02*
X144700000Y-62100000D01*
X144850000Y-66700000D02*
X144850000Y-62100000D01*
X144900000Y-62075000D02*
X142325000Y-62075000D01*
X144900000Y-66725000D02*
X142575000Y-66725000D01*
X145000000Y-66590000D02*
X145000000Y-62200000D01*
X145150000Y-66450000D02*
X145150000Y-62330000D01*
X145300000Y-66320000D02*
X145300000Y-62490000D01*
X145450000Y-66160000D02*
X145450000Y-62630000D01*
X145550000Y-66060000D02*
X145550000Y-62730000D01*
X145650000Y-65950000D02*
X145650000Y-62830000D01*
X145750000Y-65870000D02*
X145750000Y-62940000D01*
X145900000Y-63075000D02*
X144900000Y-62075000D01*
X145900000Y-63075000D02*
X145900000Y-65725000D01*
X145900000Y-65725000D02*
X144900000Y-66725000D01*
X136295000Y-60875000D02*
G75*
G02*
X137295000Y-59875000I999999J1D01*
G01*
X137295000Y-64525000D02*
G75*
G02*
X136295000Y-63525000I-1J999999D01*
G01*
X139300000Y-64517458D02*
G75*
G02*
X141300000Y-65700000I-2J-2282546D01*
G01*
X140288796Y-59875000D02*
G75*
G02*
X141150000Y-60576887I-38796J-926887D01*
G01*
X142325000Y-62075000D02*
G75*
G02*
X141150000Y-60900000I2J1175002D01*
G01*
D12*
X113032843Y-81500000D02*
X113231281Y-81500000D01*
X113231281Y-80904686D02*
X113231281Y-82095314D01*
X113231281Y-82095314D02*
X114818785Y-82095314D01*
X113628157Y-82095314D02*
X113628157Y-80904686D01*
X114818785Y-80904686D02*
X113231281Y-80904686D01*
X114818785Y-81500000D02*
X115017223Y-81500000D01*
X114818785Y-82095314D02*
X114818785Y-80904686D01*
D13*
X187295000Y-86075000D02*
X187295000Y-88725000D01*
X187450000Y-89230000D02*
X187450000Y-85550000D01*
X187600000Y-89400000D02*
X187600000Y-85430000D01*
X187750000Y-89540000D02*
X187750000Y-85400000D01*
X187900000Y-89620000D02*
X187900000Y-85500000D01*
X188050000Y-89670000D02*
X188050000Y-85350000D01*
X188200000Y-89710000D02*
X188200000Y-85200000D01*
X188350000Y-89700000D02*
X188350000Y-85100000D01*
X188500000Y-89700000D02*
X188500000Y-85100000D01*
X188650000Y-89700000D02*
X188650000Y-85100000D01*
D14*
X188800000Y-85255000D02*
X186250000Y-85255000D01*
D13*
X188800000Y-89700000D02*
X188800000Y-85100000D01*
X188950000Y-89700000D02*
X188950000Y-85100000D01*
X189100000Y-89700000D02*
X189100000Y-85100000D01*
X189250000Y-89700000D02*
X189250000Y-85100000D01*
X189400000Y-89700000D02*
X189400000Y-85100000D01*
X189550000Y-89700000D02*
X189550000Y-85100000D01*
X189700000Y-89700000D02*
X189700000Y-85100000D01*
X189850000Y-89700000D02*
X189850000Y-85100000D01*
X190000000Y-89700000D02*
X190000000Y-85100000D01*
X190150000Y-89700000D02*
X190150000Y-85100000D01*
X190300000Y-89700000D02*
X190300000Y-85100000D01*
X190300000Y-89725000D02*
X188325000Y-89725000D01*
X190450000Y-89700000D02*
X190450000Y-85150000D01*
X190600000Y-89740000D02*
X190600000Y-85100000D01*
X190750000Y-89750000D02*
X190750000Y-85100000D01*
X190900000Y-89750000D02*
X190900000Y-85150000D01*
X191050000Y-89800000D02*
X191050000Y-85090000D01*
X191200000Y-89900000D02*
X191200000Y-85080000D01*
X191288796Y-85075000D02*
X188325000Y-85075000D01*
X191350000Y-89950000D02*
X191350000Y-85100000D01*
X191500000Y-90050000D02*
X191500000Y-85130000D01*
X191650000Y-90150000D02*
X191650000Y-85180000D01*
X191800000Y-90250000D02*
X191800000Y-85260000D01*
X191950000Y-90400000D02*
X191950000Y-85450000D01*
X192100000Y-90550000D02*
X192100000Y-85650000D01*
X192150000Y-86100000D02*
X192150000Y-85776887D01*
X192200000Y-90720000D02*
X192200000Y-86600000D01*
X192300000Y-90900000D02*
X192300000Y-86750000D01*
X192300000Y-90900000D02*
X193575000Y-91925000D01*
X192400000Y-90970000D02*
X192400000Y-86950000D01*
X192500000Y-91050000D02*
X192500000Y-87050000D01*
X192600000Y-91130000D02*
X192600000Y-87100000D01*
X192710000Y-91220000D02*
X192700000Y-87150000D01*
X192850000Y-91320000D02*
X192850000Y-87200000D01*
X193000000Y-91460000D02*
X193000000Y-87300000D01*
X193150000Y-91580000D02*
X193150000Y-87300000D01*
X193300000Y-91690000D02*
X193300000Y-87300000D01*
X193450000Y-91810000D02*
X193450000Y-87350000D01*
X193600000Y-91900000D02*
X193600000Y-87300000D01*
X193750000Y-91900000D02*
X193750000Y-87300000D01*
X193900000Y-91900000D02*
X193900000Y-87300000D01*
X194050000Y-91900000D02*
X194050000Y-87300000D01*
X194200000Y-91900000D02*
X194200000Y-87300000D01*
X194350000Y-91900000D02*
X194350000Y-87300000D01*
X194500000Y-91900000D02*
X194500000Y-87300000D01*
X194650000Y-91900000D02*
X194650000Y-87300000D01*
X194800000Y-91900000D02*
X194800000Y-87300000D01*
X194950000Y-91900000D02*
X194950000Y-87300000D01*
X195100000Y-91900000D02*
X195100000Y-87300000D01*
X195250000Y-91900000D02*
X195250000Y-87300000D01*
X195400000Y-91900000D02*
X195400000Y-87300000D01*
X195550000Y-91900000D02*
X195550000Y-87300000D01*
X195700000Y-91900000D02*
X195700000Y-87300000D01*
X195850000Y-91900000D02*
X195850000Y-87300000D01*
X195900000Y-87275000D02*
X193325000Y-87275000D01*
X195900000Y-91925000D02*
X193575000Y-91925000D01*
X196000000Y-91790000D02*
X196000000Y-87400000D01*
X196150000Y-91650000D02*
X196150000Y-87530000D01*
X196300000Y-91520000D02*
X196300000Y-87690000D01*
X196450000Y-91360000D02*
X196450000Y-87830000D01*
X196550000Y-91260000D02*
X196550000Y-87930000D01*
X196650000Y-91150000D02*
X196650000Y-88030000D01*
X196750000Y-91070000D02*
X196750000Y-88140000D01*
X196900000Y-88275000D02*
X195900000Y-87275000D01*
X196900000Y-88275000D02*
X196900000Y-90925000D01*
X196900000Y-90925000D02*
X195900000Y-91925000D01*
X187295000Y-86075000D02*
G75*
G02*
X188295000Y-85075000I999999J1D01*
G01*
X188295000Y-89725000D02*
G75*
G02*
X187295000Y-88725000I-1J999999D01*
G01*
X190300000Y-89717458D02*
G75*
G02*
X192300000Y-90900000I-2J-2282546D01*
G01*
X191288796Y-85075000D02*
G75*
G02*
X192150000Y-85776887I-38796J-926887D01*
G01*
X193325000Y-87275000D02*
G75*
G02*
X192150000Y-86100000I2J1175002D01*
G01*
D12*
X142582843Y-29850000D02*
X142781281Y-29850000D01*
X142781281Y-29254686D02*
X142781281Y-30445314D01*
X142781281Y-30445314D02*
X144368785Y-30445314D01*
X143178157Y-30445314D02*
X143178157Y-29254686D01*
X144368785Y-29254686D02*
X142781281Y-29254686D01*
X144368785Y-29850000D02*
X144567223Y-29850000D01*
X144368785Y-30445314D02*
X144368785Y-29254686D01*
X179082843Y-53850000D02*
X179281281Y-53850000D01*
X179281281Y-53254686D02*
X179281281Y-54445314D01*
X179281281Y-54445314D02*
X180868785Y-54445314D01*
X179678157Y-54445314D02*
X179678157Y-53254686D01*
X180868785Y-53254686D02*
X179281281Y-53254686D01*
X180868785Y-53850000D02*
X181067223Y-53850000D01*
X180868785Y-54445314D02*
X180868785Y-53254686D01*
X145485943Y-51600000D02*
X145684381Y-51600000D01*
X145684381Y-51004686D02*
X145684381Y-52195314D01*
X145684381Y-52195314D02*
X147271885Y-52195314D01*
X146081257Y-52195314D02*
X146081257Y-51004686D01*
X147271885Y-51004686D02*
X145684381Y-51004686D01*
X147271885Y-51600000D02*
X147470323Y-51600000D01*
X147271885Y-52195314D02*
X147271885Y-51004686D01*
D13*
X102080000Y-81810000D02*
X106150000Y-81800000D01*
X102100000Y-81950000D02*
X106100000Y-81950000D01*
X102100000Y-82100000D02*
X106000000Y-82100000D01*
X102100000Y-82250000D02*
X106000000Y-82250000D01*
X102100000Y-82400000D02*
X106000000Y-82400000D01*
X102100000Y-82550000D02*
X105950000Y-82550000D01*
X102100000Y-82700000D02*
X106000000Y-82700000D01*
X102100000Y-82850000D02*
X106000000Y-82850000D01*
X102100000Y-83000000D02*
X106000000Y-83000000D01*
X102100000Y-83150000D02*
X106000000Y-83150000D01*
X102100000Y-83300000D02*
X106000000Y-83300000D01*
X102100000Y-85700000D02*
X102100000Y-81850000D01*
X102170000Y-81700000D02*
X106200000Y-81700000D01*
X102200000Y-83450000D02*
X106000000Y-83450000D01*
X102200000Y-83600000D02*
X106000000Y-83600000D01*
X102200000Y-83750000D02*
X106000000Y-83750000D01*
X102200000Y-83900000D02*
X106000000Y-83900000D01*
X102200000Y-84050000D02*
X106000000Y-84050000D01*
X102200000Y-84200000D02*
X106000000Y-84200000D01*
X102200000Y-84350000D02*
X106000000Y-84350000D01*
X102200000Y-84500000D02*
X106000000Y-84500000D01*
X102200000Y-84650000D02*
X106000000Y-84650000D01*
X102200000Y-84800000D02*
X106000000Y-84800000D01*
X102200000Y-84950000D02*
X106000000Y-84950000D01*
X102200000Y-85100000D02*
X105900000Y-85100000D01*
X102200000Y-85250000D02*
X105770000Y-85250000D01*
X102200000Y-85400000D02*
X105610000Y-85400000D01*
X102200000Y-85550000D02*
X105470000Y-85550000D01*
X102200000Y-85650000D02*
X105370000Y-85650000D01*
X102200000Y-85750000D02*
X105270000Y-85750000D01*
X102230000Y-85850000D02*
X105160000Y-85850000D01*
X102250000Y-81600000D02*
X106250000Y-81600000D01*
X102330000Y-81500000D02*
X106350000Y-81500000D01*
X102375000Y-86000000D02*
X102125000Y-85750000D01*
X102400000Y-81400000D02*
X102050000Y-81850000D01*
X102400000Y-81400000D02*
X106550000Y-81400000D01*
X102580000Y-81300000D02*
X106700000Y-81300000D01*
X102750000Y-81200000D02*
X107650000Y-81200000D01*
X102900000Y-81050000D02*
X107850000Y-81050000D01*
X103050000Y-80900000D02*
X108040000Y-80900000D01*
X103150000Y-80750000D02*
X108120000Y-80750000D01*
X103250000Y-80600000D02*
X108170000Y-80600000D01*
X103350000Y-80450000D02*
X108200000Y-80450000D01*
X103400000Y-80300000D02*
X108220000Y-80300000D01*
X103500000Y-80150000D02*
X108210000Y-80150000D01*
X103550000Y-79850000D02*
X108200000Y-79850000D01*
X103550000Y-80000000D02*
X108150000Y-80000000D01*
X103560000Y-79700000D02*
X108200000Y-79700000D01*
X103575000Y-79400000D02*
X103575000Y-77425000D01*
X103590000Y-77300000D02*
X108100000Y-77300000D01*
X103600000Y-77450000D02*
X108200000Y-77450000D01*
X103600000Y-77600000D02*
X108200000Y-77600000D01*
X103600000Y-77750000D02*
X108200000Y-77750000D01*
X103600000Y-77900000D02*
X108200000Y-77900000D01*
X103600000Y-78050000D02*
X108200000Y-78050000D01*
X103600000Y-78200000D02*
X108200000Y-78200000D01*
X103600000Y-78350000D02*
X108200000Y-78350000D01*
X103600000Y-78500000D02*
X108200000Y-78500000D01*
X103600000Y-78650000D02*
X108200000Y-78650000D01*
X103600000Y-78800000D02*
X108200000Y-78800000D01*
X103600000Y-78950000D02*
X108200000Y-78950000D01*
X103600000Y-79100000D02*
X108200000Y-79100000D01*
X103600000Y-79250000D02*
X108200000Y-79250000D01*
X103600000Y-79400000D02*
X108200000Y-79400000D01*
X103600000Y-79550000D02*
X108150000Y-79550000D01*
X103630000Y-77150000D02*
X107950000Y-77150000D01*
X103680000Y-77000000D02*
X107800000Y-77000000D01*
X103760000Y-76850000D02*
X107900000Y-76850000D01*
X103900000Y-76700000D02*
X107870000Y-76700000D01*
X104070000Y-76550000D02*
X107750000Y-76550000D01*
X105025000Y-86000000D02*
X102375000Y-86000000D01*
X105025000Y-86000000D02*
X106025000Y-85000000D01*
X106025000Y-85000000D02*
X106025000Y-82425000D01*
X107200000Y-81250000D02*
X107523113Y-81250000D01*
X107225000Y-76395000D02*
X104575000Y-76395000D01*
D14*
X108045000Y-77900000D02*
X108045000Y-75350000D01*
D13*
X108225000Y-80388796D02*
X108225000Y-77425000D01*
X103575000Y-77395000D02*
G75*
G02*
X104575000Y-76395000I999999J1D01*
G01*
X103582542Y-79400000D02*
G75*
G02*
X102400000Y-81400000I-2282546J2D01*
G01*
X106025000Y-82425000D02*
G75*
G02*
X107200000Y-81250000I1175002J-2D01*
G01*
X107225000Y-76395000D02*
G75*
G02*
X108225000Y-77395000I1J-999999D01*
G01*
X108225000Y-80388796D02*
G75*
G02*
X107523113Y-81250000I-926887J38796D01*
G01*
D12*
X142582843Y-37700000D02*
X142781281Y-37700000D01*
X142781281Y-37104686D02*
X142781281Y-38295314D01*
X142781281Y-38295314D02*
X144368785Y-38295314D01*
X143178157Y-38295314D02*
X143178157Y-37104686D01*
X144368785Y-37104686D02*
X142781281Y-37104686D01*
X144368785Y-37700000D02*
X144567223Y-37700000D01*
X144368785Y-38295314D02*
X144368785Y-37104686D01*
D13*
X119943750Y-74143750D02*
X119943750Y-74937500D01*
X119943750Y-84462500D02*
X119943750Y-85256250D01*
X119943750Y-85256250D02*
X120737500Y-85256250D01*
X120737500Y-74143750D02*
X119943750Y-74143750D01*
X131056250Y-74143750D02*
X130262500Y-74143750D01*
X131056250Y-74937500D02*
X131056250Y-74143750D01*
X131056250Y-84462500D02*
X131056250Y-85256250D01*
X131056250Y-85256250D02*
X130262500Y-85256250D01*
M02*
