G04 #@! TF.GenerationSoftware,KiCad,Pcbnew,9.0.0*
G04 #@! TF.CreationDate,2025-04-21T18:55:09+09:00*
G04 #@! TF.ProjectId,nofy_V2_R,6e6f6679-5f56-4325-9f52-2e6b69636164,rev?*
G04 #@! TF.SameCoordinates,Original*
G04 #@! TF.FileFunction,Copper,L1,Top*
G04 #@! TF.FilePolarity,Positive*
%FSLAX46Y46*%
G04 Gerber Fmt 4.6, Leading zero omitted, Abs format (unit mm)*
G04 Created by KiCad (PCBNEW 9.0.0) date 2025-04-21 18:55:09*
%MOMM*%
%LPD*%
G01*
G04 APERTURE LIST*
G04 #@! TA.AperFunction,ComponentPad*
%ADD10C,1.700000*%
G04 #@! TD*
G04 #@! TA.AperFunction,ComponentPad*
%ADD11O,1.700000X1.700000*%
G04 #@! TD*
G04 #@! TA.AperFunction,ComponentPad*
%ADD12R,1.700000X1.700000*%
G04 #@! TD*
G04 #@! TA.AperFunction,ComponentPad*
%ADD13C,2.000000*%
G04 #@! TD*
G04 #@! TA.AperFunction,ViaPad*
%ADD14C,0.600000*%
G04 #@! TD*
G04 #@! TA.AperFunction,Conductor*
%ADD15C,0.200000*%
G04 #@! TD*
G04 #@! TA.AperFunction,Conductor*
%ADD16C,0.330000*%
G04 #@! TD*
G04 APERTURE END LIST*
D10*
X186100000Y-56900000D03*
D11*
X186100000Y-59440000D03*
X186100000Y-61980000D03*
X186100000Y-64520000D03*
D10*
X152100000Y-25800000D03*
D11*
X152100000Y-28340000D03*
X152100000Y-30880000D03*
X152100000Y-33420000D03*
D10*
X118100000Y-33905000D03*
D11*
X118100000Y-36445000D03*
X118100000Y-38985000D03*
X118100000Y-41525000D03*
D10*
X118100000Y-50600000D03*
D11*
X118100000Y-53140000D03*
X118100000Y-55680000D03*
X118100000Y-58220000D03*
D12*
X180500000Y-71440000D03*
D11*
X180500000Y-73980000D03*
X180500000Y-76520000D03*
X180500000Y-79060000D03*
X180500000Y-81600000D03*
X180500000Y-84140000D03*
X180500000Y-86680000D03*
D10*
X152100000Y-42860000D03*
D11*
X152100000Y-45400000D03*
X152100000Y-47940000D03*
X152100000Y-50480000D03*
D13*
X118000000Y-82200000D03*
X118000000Y-77200000D03*
X118000000Y-79700000D03*
D14*
X155651000Y-62673900D03*
X181655700Y-66324400D03*
X164648300Y-55943600D03*
X162317200Y-52083200D03*
X174531400Y-55943600D03*
X180359500Y-54933900D03*
X165720200Y-54881000D03*
X184811600Y-60944800D03*
X180471400Y-60944800D03*
X162215200Y-35698300D03*
X171509100Y-35211700D03*
X183399900Y-35211700D03*
X171254500Y-29857200D03*
X156450800Y-60398300D03*
X184443400Y-84140000D03*
X184638765Y-65803765D03*
X156450800Y-51688000D03*
X120008600Y-57001600D03*
X154304000Y-30523900D03*
X129100000Y-57001600D03*
X129665100Y-29572100D03*
X179701100Y-32759200D03*
X120691000Y-58100000D03*
X122731300Y-82200000D03*
X129306500Y-73713800D03*
X138103800Y-59032100D03*
X129306500Y-59032100D03*
X150019800Y-50020200D03*
X138103800Y-50020200D03*
X187997400Y-45251300D03*
X181023300Y-45251300D03*
X112464800Y-47834400D03*
X138259600Y-47834400D03*
X147011100Y-51359400D03*
X137427800Y-50910600D03*
X147075000Y-44187400D03*
X153850000Y-44187400D03*
X115650000Y-71800000D03*
X106100000Y-71750000D03*
X123125000Y-35750000D03*
X132450000Y-35748600D03*
X123589300Y-65653300D03*
X115650000Y-65653300D03*
X132950000Y-26657000D03*
X140196700Y-26657000D03*
X164648300Y-46702000D03*
X156130900Y-46702000D03*
X164648300Y-49535900D03*
X187583300Y-49369700D03*
X123050000Y-30350000D03*
X130330100Y-30350000D03*
X132450000Y-31300000D03*
X106125000Y-29425900D03*
X181800000Y-58288300D03*
X198075000Y-58288300D03*
X186800000Y-33366400D03*
X154744700Y-34141700D03*
X147862300Y-41757300D03*
X141148000Y-45032500D03*
X141148000Y-48646400D03*
X185650000Y-44359600D03*
X175341100Y-44359600D03*
X116005700Y-48646400D03*
X173025800Y-41755000D03*
X162376500Y-41755000D03*
X147862300Y-45032500D03*
X175829015Y-54108885D03*
X140546300Y-55281400D03*
X140546300Y-65004800D03*
X113273100Y-67790400D03*
X144753100Y-52950000D03*
X144753100Y-55281400D03*
X137100000Y-27900000D03*
X154412600Y-26850000D03*
X146193200Y-26962600D03*
X147076600Y-41135100D03*
X166922700Y-50173100D03*
X166147500Y-41135100D03*
X184123700Y-64520000D03*
X191522700Y-64550000D03*
X184123700Y-50173100D03*
X120356500Y-33052400D03*
X141850000Y-32751500D03*
X105850000Y-73041500D03*
X154382700Y-28750000D03*
X121235200Y-31955100D03*
X117950000Y-73041500D03*
X179757800Y-56349200D03*
X150400000Y-38679400D03*
X154644500Y-38679400D03*
X165497900Y-42679500D03*
X154773000Y-42679500D03*
X135166300Y-38230300D03*
X178879700Y-49140800D03*
X165497900Y-48904500D03*
X122850000Y-64828700D03*
X131658200Y-64828700D03*
X158926500Y-47772400D03*
X136751700Y-49248600D03*
X120671800Y-50020200D03*
X136751700Y-49248600D03*
X184734200Y-55535600D03*
X176407200Y-55535600D03*
X174279700Y-47303700D03*
X167913400Y-53564600D03*
X172400000Y-59530300D03*
X172400000Y-53284900D03*
X166948900Y-46113800D03*
X169963400Y-43214200D03*
X139200000Y-32000000D03*
X143066085Y-37931485D03*
X152100000Y-37958800D03*
X119050000Y-32500000D03*
X134500000Y-33700000D03*
X185642000Y-38752100D03*
D15*
X155651000Y-62673900D02*
X168698800Y-62673900D01*
X172349300Y-66324400D02*
X181655700Y-66324400D01*
X168698800Y-62673900D02*
X172349300Y-66324400D01*
X147499700Y-52289700D02*
X162110700Y-52289700D01*
X145015143Y-52362100D02*
X147426400Y-52362100D01*
X147426400Y-52362100D02*
X147499250Y-52289250D01*
X147499250Y-52289250D02*
X147499700Y-52289700D01*
X126874400Y-50972600D02*
X135340900Y-50972600D01*
X124707000Y-53140000D02*
X126874400Y-50972600D01*
X135340900Y-50972600D02*
X136730400Y-52362100D01*
X145002043Y-52349000D02*
X145015143Y-52362100D01*
X144491057Y-52362100D02*
X144504157Y-52349000D01*
X144504157Y-52349000D02*
X145002043Y-52349000D01*
X118100000Y-53140000D02*
X124707000Y-53140000D01*
X136730400Y-52362100D02*
X144491057Y-52362100D01*
X164648300Y-55943600D02*
X174531400Y-55943600D01*
X162110700Y-52289700D02*
X162317200Y-52083200D01*
X180359500Y-54933900D02*
X180306600Y-54881000D01*
X184811600Y-60944800D02*
X180471400Y-60944800D01*
X162215200Y-35698300D02*
X134749500Y-35698300D01*
X134749500Y-35698300D02*
X132956200Y-33905000D01*
X132956200Y-33905000D02*
X118100000Y-33905000D01*
X180306600Y-54881000D02*
X165720200Y-54881000D01*
D16*
X154028000Y-29857200D02*
X171254500Y-29857200D01*
X152411500Y-30568500D02*
X153316700Y-30568500D01*
X171509100Y-35211700D02*
X183399900Y-35211700D01*
X153316700Y-30568500D02*
X154028000Y-29857200D01*
X152100000Y-30880000D02*
X152411500Y-30568500D01*
D15*
X173980200Y-60398300D02*
X156450800Y-60398300D01*
X146762000Y-51961100D02*
X147260300Y-51961100D01*
X135560800Y-50568600D02*
X136680200Y-51688000D01*
X147260300Y-51961100D02*
X147533400Y-51688000D01*
X180674600Y-62598300D02*
X176180200Y-62598300D01*
X147533400Y-51688000D02*
X156450800Y-51688000D01*
X118184300Y-50684300D02*
X126310100Y-50684300D01*
X126425800Y-50568600D02*
X135560800Y-50568600D01*
X183876400Y-65800100D02*
X180674600Y-62598300D01*
X136680200Y-51688000D02*
X146488900Y-51688000D01*
X184638765Y-65803765D02*
X184635100Y-65800100D01*
X180500000Y-84140000D02*
X184443400Y-84140000D01*
X126310100Y-50684300D02*
X126425800Y-50568600D01*
X184635100Y-65800100D02*
X183876400Y-65800100D01*
X146488900Y-51688000D02*
X146762000Y-51961100D01*
X118100000Y-50600000D02*
X118184300Y-50684300D01*
X176180200Y-62598300D02*
X173980200Y-60398300D01*
D16*
X170372600Y-30523900D02*
X154304000Y-30523900D01*
X149651200Y-29572100D02*
X129665100Y-29572100D01*
X179701100Y-32759200D02*
X172607900Y-32759200D01*
X172607900Y-32759200D02*
X170372600Y-30523900D01*
X129100000Y-57001600D02*
X120008600Y-57001600D01*
X150883300Y-28340000D02*
X149651200Y-29572100D01*
X152100000Y-28340000D02*
X150883300Y-28340000D01*
D15*
X120571000Y-58220000D02*
X118100000Y-58220000D01*
X120691000Y-58100000D02*
X120571000Y-58220000D01*
X118000000Y-82200000D02*
X122731300Y-82200000D01*
X129306500Y-59032100D02*
X138103800Y-59032100D01*
X118000000Y-77200000D02*
X119502700Y-75697300D01*
X138103800Y-50020200D02*
X150019800Y-50020200D01*
X119502700Y-75697300D02*
X124510000Y-75697300D01*
X126493500Y-73713800D02*
X129306500Y-73713800D01*
X124510000Y-75697300D02*
X126493500Y-73713800D01*
X181023300Y-45251300D02*
X187997400Y-45251300D01*
X137427800Y-50910600D02*
X146562300Y-50910600D01*
X112464800Y-47834400D02*
X138259600Y-47834400D01*
X146562300Y-50910600D02*
X147011100Y-51359400D01*
X153850000Y-44187400D02*
X147075000Y-44187400D01*
X106100000Y-71750000D02*
X115600000Y-71750000D01*
X115600000Y-71750000D02*
X115650000Y-71800000D01*
X132448600Y-35750000D02*
X132450000Y-35748600D01*
X123125000Y-35750000D02*
X132448600Y-35750000D01*
X123589300Y-65653300D02*
X115650000Y-65653300D01*
X132950000Y-26657000D02*
X140196700Y-26657000D01*
X173283900Y-49535900D02*
X164648300Y-49535900D01*
X173519400Y-49771400D02*
X173283900Y-49535900D01*
X179533700Y-49369700D02*
X179132000Y-49771400D01*
X156130900Y-46702000D02*
X164648300Y-46702000D01*
X187583300Y-49369700D02*
X179533700Y-49369700D01*
X179132000Y-49771400D02*
X173519400Y-49771400D01*
X123050000Y-30350000D02*
X130330100Y-30350000D01*
X132250000Y-31353400D02*
X113390700Y-31353400D01*
X113390700Y-31353400D02*
X111463200Y-29425900D01*
X132450000Y-31300000D02*
X132303400Y-31300000D01*
X132303400Y-31300000D02*
X132250000Y-31353400D01*
X111463200Y-29425900D02*
X106125000Y-29425900D01*
X181800000Y-58288300D02*
X198075000Y-58288300D01*
X167515000Y-33366400D02*
X186800000Y-33366400D01*
X161593400Y-34379700D02*
X163173100Y-32800000D01*
X163173100Y-32800000D02*
X166948600Y-32800000D01*
X154744700Y-34141700D02*
X154982700Y-34379700D01*
X166948600Y-32800000D02*
X167515000Y-33366400D01*
X154982700Y-34379700D02*
X161593400Y-34379700D01*
X162376500Y-41755000D02*
X162301700Y-41680200D01*
X175341100Y-44359600D02*
X185650000Y-44359600D01*
X116005700Y-48646400D02*
X141148000Y-48646400D01*
X162301700Y-41680200D02*
X147939400Y-41680200D01*
X141148000Y-45032500D02*
X147862300Y-45032500D01*
X147939400Y-41680200D02*
X147862300Y-41757300D01*
X162376500Y-41755000D02*
X173025800Y-41755000D01*
X130893500Y-67790400D02*
X113273100Y-67790400D01*
X165372300Y-54196100D02*
X175741800Y-54196100D01*
X163867600Y-52691400D02*
X165372300Y-54196100D01*
X140546300Y-65004800D02*
X133679100Y-65004800D01*
X175741800Y-54196100D02*
X175829015Y-54108885D01*
X147666000Y-52691400D02*
X163867600Y-52691400D01*
X144753100Y-55281400D02*
X140546300Y-55281400D01*
X133679100Y-65004800D02*
X130893500Y-67790400D01*
X147592900Y-52764500D02*
X147666000Y-52691400D01*
X144753100Y-52950000D02*
X144938600Y-52764500D01*
X144938600Y-52764500D02*
X147592900Y-52764500D01*
X154412600Y-26850000D02*
X154300000Y-26962600D01*
X144548500Y-28607300D02*
X146193200Y-26962600D01*
X154300000Y-26962600D02*
X146193200Y-26962600D01*
X137807300Y-28607300D02*
X144548500Y-28607300D01*
X137100000Y-27900000D02*
X137807300Y-28607300D01*
X166147500Y-41135100D02*
X147076600Y-41135100D01*
X191522700Y-64550000D02*
X191442100Y-64550000D01*
X166922700Y-50173100D02*
X184123700Y-50173100D01*
X184948300Y-64520000D02*
X184123700Y-64520000D01*
X186100000Y-64520000D02*
X184948300Y-64520000D01*
X191412100Y-64520000D02*
X186100000Y-64520000D01*
X191442100Y-64550000D02*
X191412100Y-64520000D01*
X121557343Y-33050000D02*
X120358900Y-33050000D01*
X141751500Y-32850000D02*
X121757343Y-32850000D01*
X121757343Y-32850000D02*
X121557343Y-33050000D01*
X141850000Y-32751500D02*
X141751500Y-32850000D01*
X120358900Y-33050000D02*
X120356500Y-33052400D01*
X117950000Y-73041500D02*
X105850000Y-73041500D01*
X154274500Y-28749800D02*
X153545500Y-28749800D01*
X154274700Y-28750000D02*
X154274500Y-28749800D01*
X133547800Y-31950000D02*
X121240300Y-31950000D01*
X149770300Y-30253100D02*
X135244700Y-30253100D01*
X135244700Y-30253100D02*
X133547800Y-31950000D01*
X153545500Y-28749800D02*
X152692100Y-29603200D01*
X154382700Y-28750000D02*
X154274700Y-28750000D01*
X121240300Y-31950000D02*
X121235200Y-31955100D01*
X150420200Y-29603200D02*
X149770300Y-30253100D01*
X152692100Y-29603200D02*
X150420200Y-29603200D01*
X135166300Y-38230300D02*
X135615400Y-38679400D01*
X154773000Y-42679500D02*
X165497900Y-42679500D01*
X165497900Y-48904500D02*
X173420300Y-48904500D01*
X173420300Y-48904500D02*
X173735400Y-49219600D01*
X185549200Y-56349200D02*
X179757800Y-56349200D01*
X150400000Y-38679400D02*
X154644500Y-38679400D01*
X135615400Y-38679400D02*
X150400000Y-38679400D01*
X173735400Y-49219600D02*
X178800900Y-49219600D01*
X186100000Y-56900000D02*
X185549200Y-56349200D01*
X178800900Y-49219600D02*
X178879700Y-49140800D01*
X131658200Y-64828700D02*
X122850000Y-64828700D01*
X136751700Y-49248600D02*
X157450300Y-49248600D01*
X136751700Y-49248600D02*
X135980100Y-50020200D01*
X159395200Y-47303700D02*
X174279700Y-47303700D01*
X176407200Y-55535600D02*
X184734200Y-55535600D01*
X135980100Y-50020200D02*
X120671800Y-50020200D01*
X157450300Y-49248600D02*
X158926500Y-47772400D01*
X158926500Y-47772400D02*
X159395200Y-47303700D01*
X166948900Y-46113800D02*
X166235100Y-45400000D01*
X166235100Y-45400000D02*
X153251700Y-45400000D01*
X186100000Y-61980000D02*
X176363400Y-61980000D01*
X168193100Y-53284900D02*
X172400000Y-53284900D01*
X152100000Y-45400000D02*
X153251700Y-45400000D01*
X176363400Y-61980000D02*
X173913700Y-59530300D01*
X173913700Y-59530300D02*
X172400000Y-59530300D01*
X167913400Y-53564600D02*
X168193100Y-53284900D01*
X143093400Y-37958800D02*
X143066085Y-37931485D01*
X119100000Y-32450000D02*
X120880157Y-32450000D01*
X137200000Y-32000000D02*
X139200000Y-32000000D01*
X152580500Y-43340500D02*
X169837100Y-43340500D01*
X169837100Y-43340500D02*
X169963400Y-43214200D01*
X136774800Y-32425200D02*
X137200000Y-32000000D01*
X152100000Y-37958800D02*
X143093400Y-37958800D01*
X120880157Y-32450000D02*
X120986257Y-32556100D01*
X121484143Y-32556100D02*
X121615043Y-32425200D01*
X119050000Y-32500000D02*
X119100000Y-32450000D01*
X120986257Y-32556100D02*
X121484143Y-32556100D01*
X152100000Y-42860000D02*
X152580500Y-43340500D01*
X121615043Y-32425200D02*
X136774800Y-32425200D01*
X185642000Y-38752100D02*
X166119900Y-38752100D01*
X134637300Y-33700000D02*
X134687300Y-33650000D01*
X151870000Y-33650000D02*
X152100000Y-33420000D01*
X152675900Y-33420000D02*
X152100000Y-33420000D01*
X153251700Y-33499500D02*
X153251700Y-33420000D01*
X162311400Y-34943600D02*
X154695800Y-34943600D01*
X166119900Y-38752100D02*
X162311400Y-34943600D01*
X134500000Y-33700000D02*
X134637300Y-33700000D01*
X152675900Y-33420000D02*
X153251700Y-33420000D01*
X134687300Y-33650000D02*
X151870000Y-33650000D01*
X154695800Y-34943600D02*
X153251700Y-33499500D01*
M02*
