M48
; DRILL file {KiCad 9.0.0} date 2025-04-19T15:35:50+0900
; FORMAT={-:-/ absolute / metric / decimal}
; #@! TF.CreationDate,2025-04-19T15:35:50+09:00
; #@! TF.GenerationSoftware,Kicad,Pcbnew,9.0.0
; #@! TF.FileFunction,Plated,1,2,PTH
FMAT,2
METRIC
; #@! TA.AperFunction,Plated,PTH,ViaDrill
T1C0.300
; #@! TA.AperFunction,Plated,PTH,ComponentDrill
T2C1.000
%
G90
G05
T1
X26.523Y-59.483
X32.012Y-31.726
X32.346Y-54.928
X39.18Y-36.606
X39.362Y-55.876
X39.806Y-36.003
X39.988Y-77.178
X41.198Y-40.74
X41.873Y-38.676
X42.242Y-73.974
X42.337Y-56.501
X44.872Y-71.255
X48.199Y-44.532
X48.199Y-47.421
X49.671Y-33.632
X50.867Y-74.225
X50.871Y-65.969
X53.67Y-35.918
X54.162Y-43.775
X55.162Y-31.653
X55.967Y-59.361
X56.991Y-60.048
X58.312Y-54.928
X58.312Y-65.969
X59.119Y-32.776
X59.581Y-41.75
X59.912Y-36.606
X60.037Y-60.036
X60.332Y-68.301
X60.332Y-71.255
X60.574Y-32.82
X60.657Y-58.237
X60.982Y-45.372
X62.773Y-34.767
X62.774Y-38.676
X62.799Y-41.626
X64.486Y-33.491
X65.67Y-46.585
X66.287Y-44.6
X66.71Y-68.301
X66.918Y-48.181
X67.1Y-51.681
X67.761Y-50.603
X67.788Y-41.017
X67.824Y-42.227
X68.579Y-59.458
X69.212Y-43.775
X69.38Y-56.647
X70.988Y-42.227
X71.312Y-69.114
X72.216Y-38.389
X72.483Y-41.017
X72.701Y-39.846
X73.133Y-32.752
X73.348Y-58.237
X73.419Y-38.193
X74.021Y-41.017
X74.767Y-60.65
X74.767Y-65.519
X75.005Y-58.333
X75.228Y-36.753
X75.715Y-59.71
X75.715Y-66.215
X76.062Y-41.626
X76.062Y-45.407
X76.337Y-35.025
X76.337Y-49.732
X76.888Y-61.797
X76.888Y-64.635
X77.006Y-51.826
X77.796Y-53.42
X79.364Y-36.753
X80.005Y-51.142
X82.144Y-58.355
X82.551Y-32.752
X83.039Y-60.787
X83.166Y-50.521
X83.166Y-56.324
X83.861Y-44.599
X86.002Y-54.618
X88.162Y-64.635
X89.859Y-47.561
X90.289Y-54.618
X90.469Y-49.732
X90.711Y-62.476
X91.862Y-36.633
X93.281Y-65.519
X93.552Y-48.225
X93.869Y-64.635
X94.004Y-42.934
X94.153Y-49.476
X95.112Y-59.085
X95.857Y-61.707
X96.246Y-68.406
X96.262Y-44.676
X98.505Y-58.929
X100.864Y-72.758
X101.229Y-56.078
X101.313Y-87.23
X101.658Y-72.856
X101.976Y-59.633
X102.582Y-62.194
X102.9Y-75.107
X102.9Y-87.979
X102.948Y-74.216
X103.201Y-67.703
X103.477Y-65.866
X103.631Y-56.68
X103.954Y-44.787
X104.433Y-56.868
X105.312Y-73.626
X105.462Y-40.965
X107.254Y-61.756
X107.254Y-74.979
X108.378Y-62.884
X108.378Y-72.87
X110.63Y-73.77
T2
X37.212Y-83.626
X37.212Y-86.126
X37.212Y-88.626
X37.312Y-40.331
X37.312Y-42.871
X37.312Y-45.411
X37.312Y-47.951
X37.312Y-57.026
X37.312Y-59.566
X37.312Y-62.106
X37.312Y-64.646
X71.312Y-32.226
X71.312Y-34.766
X71.312Y-37.306
X71.312Y-39.846
X71.312Y-49.286
X71.312Y-51.826
X71.312Y-54.366
X71.312Y-56.906
X99.712Y-77.866
X99.712Y-80.406
X99.712Y-82.946
X99.712Y-85.486
X99.712Y-88.026
X99.712Y-90.566
X99.712Y-93.106
X105.312Y-63.326
X105.312Y-65.866
X105.312Y-68.406
X105.312Y-70.946
M30
