G04 #@! TF.GenerationSoftware,KiCad,Pcbnew,9.0.0*
G04 #@! TF.CreationDate,2025-04-19T15:35:46+09:00*
G04 #@! TF.ProjectId,nofy_V2_R,6e6f6679-5f56-4325-9f52-2e6b69636164,rev?*
G04 #@! TF.SameCoordinates,Original*
G04 #@! TF.FileFunction,Copper,L1,Top*
G04 #@! TF.FilePolarity,Positive*
%FSLAX46Y46*%
G04 Gerber Fmt 4.6, Leading zero omitted, Abs format (unit mm)*
G04 Created by KiCad (PCBNEW 9.0.0) date 2025-04-19 15:35:46*
%MOMM*%
%LPD*%
G01*
G04 APERTURE LIST*
G04 #@! TA.AperFunction,ComponentPad*
%ADD10C,1.700000*%
G04 #@! TD*
G04 #@! TA.AperFunction,ComponentPad*
%ADD11O,1.700000X1.700000*%
G04 #@! TD*
G04 #@! TA.AperFunction,ComponentPad*
%ADD12R,1.700000X1.700000*%
G04 #@! TD*
G04 #@! TA.AperFunction,ComponentPad*
%ADD13C,2.000000*%
G04 #@! TD*
G04 #@! TA.AperFunction,ViaPad*
%ADD14C,0.600000*%
G04 #@! TD*
G04 #@! TA.AperFunction,Conductor*
%ADD15C,0.200000*%
G04 #@! TD*
G04 #@! TA.AperFunction,Conductor*
%ADD16C,0.300000*%
G04 #@! TD*
G04 APERTURE END LIST*
D10*
X105312500Y-63325850D03*
D11*
X105312500Y-65865850D03*
X105312500Y-68405850D03*
X105312500Y-70945850D03*
D10*
X71312500Y-32225850D03*
D11*
X71312500Y-34765850D03*
X71312500Y-37305850D03*
X71312500Y-39845850D03*
D10*
X37312500Y-40330850D03*
D11*
X37312500Y-42870850D03*
X37312500Y-45410850D03*
X37312500Y-47950850D03*
D10*
X37312500Y-57025850D03*
D11*
X37312500Y-59565850D03*
X37312500Y-62105850D03*
X37312500Y-64645850D03*
D12*
X99712500Y-77865850D03*
D11*
X99712500Y-80405850D03*
X99712500Y-82945850D03*
X99712500Y-85485850D03*
X99712500Y-88025850D03*
X99712500Y-90565850D03*
X99712500Y-93105850D03*
D10*
X71312500Y-49285850D03*
D11*
X71312500Y-51825850D03*
X71312500Y-54365850D03*
X71312500Y-56905850D03*
D13*
X37212500Y-88625850D03*
X37212500Y-83625850D03*
X37212500Y-86125850D03*
D14*
X100864200Y-72757550D03*
X71312500Y-69114150D03*
X93281100Y-65518950D03*
X74767100Y-60650450D03*
X74767100Y-65518950D03*
X75715100Y-66215450D03*
X60037500Y-60036150D03*
X59580900Y-41750150D03*
X103201300Y-67703050D03*
X75715100Y-59710350D03*
X107253900Y-61755950D03*
X73419200Y-38192850D03*
X101313400Y-87230450D03*
X102900400Y-75106650D03*
X83038800Y-60786850D03*
X75005400Y-58332750D03*
X107253900Y-74979350D03*
X102900400Y-87979450D03*
X82143500Y-58354750D03*
X72215800Y-38389150D03*
X101976200Y-59633350D03*
X101658180Y-72855526D03*
X41873400Y-38675850D03*
X73133200Y-32752450D03*
X90289300Y-54618150D03*
X82550600Y-32752450D03*
X108378500Y-72869650D03*
X39988500Y-77177950D03*
X62773100Y-34766950D03*
X90710800Y-62475550D03*
X108378500Y-62884050D03*
X62774200Y-38675850D03*
X86002200Y-54618150D03*
X39362500Y-55875850D03*
X32345500Y-54928450D03*
X58312500Y-54928450D03*
X66287500Y-44600450D03*
X76062500Y-45406850D03*
X76337500Y-35025450D03*
X91862500Y-36632750D03*
X26523500Y-59482650D03*
X56991000Y-60048050D03*
X50870700Y-65968950D03*
X58312500Y-65968950D03*
X42337500Y-56501450D03*
X69379600Y-56646950D03*
X60332100Y-71254550D03*
X66710300Y-68300750D03*
X44872500Y-71254550D03*
X60332100Y-68300750D03*
X62799500Y-41625550D03*
X76062500Y-41625550D03*
X76337500Y-49732250D03*
X90469200Y-49732250D03*
X64485900Y-33490950D03*
X49671200Y-33631850D03*
X32012500Y-31725850D03*
X55162500Y-31653150D03*
X94003600Y-42934250D03*
X70988000Y-42227250D03*
X73347700Y-58236850D03*
X67823900Y-42227250D03*
X60656800Y-58236850D03*
X103953700Y-44786950D03*
X80004900Y-51142350D03*
X96262500Y-44675850D03*
X83860800Y-44599250D03*
X67099600Y-51680550D03*
X67760600Y-50602850D03*
X66917700Y-48181250D03*
X98504800Y-58928750D03*
X94153300Y-49475550D03*
X95112500Y-59084750D03*
X104433000Y-56868450D03*
X74021000Y-41017250D03*
X67788500Y-41017250D03*
X75228200Y-36753450D03*
X72483300Y-41017250D03*
X60573900Y-32819550D03*
X79364200Y-36753450D03*
X59119400Y-32775850D03*
X93551600Y-48225050D03*
X95857200Y-61707250D03*
X65669700Y-46584650D03*
X102947600Y-74216250D03*
X102582100Y-62193750D03*
X105312250Y-73626100D03*
X110629900Y-73769850D03*
X59912500Y-36606250D03*
X39180100Y-36606250D03*
X41198500Y-40739850D03*
X72700600Y-39845850D03*
X50867400Y-74224550D03*
X54162500Y-43775250D03*
X103631300Y-56679550D03*
X83166400Y-50521150D03*
X42241900Y-73974050D03*
X83166400Y-56324150D03*
X69212500Y-43775250D03*
X55966700Y-59360850D03*
X103476500Y-65865850D03*
X77006100Y-51825850D03*
X101229100Y-56077850D03*
X77795600Y-53419550D03*
X68578900Y-59457950D03*
X76887800Y-64634650D03*
X96245600Y-68405850D03*
X76887800Y-61796550D03*
X88162500Y-64634650D03*
X93869400Y-64634650D03*
X60982300Y-45372350D03*
X48199100Y-44532150D03*
X48199100Y-47421450D03*
X89859000Y-47560950D03*
X53669800Y-35917550D03*
X39806500Y-36002550D03*
X105462500Y-40964650D03*
D15*
X87923200Y-69114150D02*
X91566600Y-72757550D01*
X71312500Y-69114150D02*
X87923200Y-69114150D01*
X91566600Y-72757550D02*
X100864200Y-72757550D01*
X38865900Y-59164150D02*
X47088200Y-59164150D01*
X51832500Y-60650450D02*
X74767100Y-60650450D01*
X93281100Y-65518950D02*
X74767100Y-65518950D01*
X48172800Y-60248750D02*
X51430800Y-60248750D01*
X51430800Y-60248750D02*
X51832500Y-60650450D01*
X47088200Y-59164150D02*
X48172800Y-60248750D01*
X38464200Y-59565850D02*
X38865900Y-59164150D01*
X37312500Y-59565850D02*
X38464200Y-59565850D01*
X73601600Y-60066750D02*
X73958000Y-59710350D01*
X73958000Y-59710350D02*
X75715100Y-59710350D01*
X38731800Y-41750150D02*
X59580900Y-41750150D01*
X93971800Y-67703050D02*
X92484200Y-66215450D01*
X60037500Y-60036150D02*
X60068100Y-60066750D01*
X103201300Y-67703050D02*
X93971800Y-67703050D01*
X37312500Y-40330850D02*
X38731800Y-41750150D01*
X92484200Y-66215450D02*
X75715100Y-66215450D01*
X60068100Y-60066750D02*
X73601600Y-60066750D01*
D16*
X107253900Y-61755950D02*
X105783100Y-60285150D01*
X105783100Y-60285150D02*
X94413300Y-60285150D01*
X72412100Y-38192850D02*
X73419200Y-38192850D01*
X93911600Y-60786850D02*
X83038800Y-60786850D01*
X102062400Y-87979450D02*
X102900400Y-87979450D01*
X82143500Y-58354750D02*
X75027400Y-58354750D01*
X101313400Y-87230450D02*
X102062400Y-87979450D01*
X102900400Y-75106650D02*
X107126600Y-75106650D01*
X94413300Y-60285150D02*
X93911600Y-60786850D01*
X75027400Y-58354750D02*
X75005400Y-58332750D01*
X72215800Y-38389150D02*
X72412100Y-38192850D01*
X107126600Y-75106650D02*
X107253900Y-74979350D01*
D15*
X101976200Y-59633350D02*
X101776100Y-59833450D01*
X37389800Y-57103150D02*
X37312500Y-57025850D01*
X56834100Y-58838550D02*
X55098700Y-57103150D01*
X55098700Y-57103150D02*
X37389800Y-57103150D01*
X94091700Y-59968050D02*
X82906000Y-59968050D01*
X82906000Y-59968050D02*
X81776500Y-58838550D01*
X94226300Y-59833450D02*
X94091700Y-59968050D01*
X101776100Y-59833450D02*
X94226300Y-59833450D01*
X74660400Y-58838550D02*
X56834100Y-58838550D01*
X75350500Y-58838550D02*
X75254600Y-58934450D01*
X81776500Y-58838550D02*
X75350500Y-58838550D01*
X74756300Y-58934450D02*
X74660400Y-58838550D01*
X75254600Y-58934450D02*
X74756300Y-58934450D01*
D16*
X37149700Y-86063050D02*
X37212500Y-86125850D01*
X107288800Y-62884050D02*
X108378500Y-62884050D01*
X101672304Y-72869650D02*
X108378500Y-72869650D01*
X73133200Y-32752450D02*
X82550600Y-32752450D01*
X35612500Y-83936453D02*
X37149700Y-85473653D01*
X105441700Y-61036950D02*
X107288800Y-62884050D01*
X94621100Y-61036950D02*
X105441700Y-61036950D01*
X41873400Y-38675850D02*
X62774200Y-38675850D01*
X71312500Y-34765850D02*
X62774200Y-34765850D01*
X35612500Y-81575850D02*
X35612500Y-83936453D01*
X62774200Y-34765850D02*
X62773100Y-34766950D01*
X39988500Y-77177950D02*
X39988500Y-77199850D01*
X37149700Y-85473653D02*
X37149700Y-86063050D01*
X90710800Y-62475550D02*
X93182500Y-62475550D01*
X93182500Y-62475550D02*
X94621100Y-61036950D01*
X90289300Y-54618150D02*
X86002200Y-54618150D01*
X101658180Y-72855526D02*
X101672304Y-72869650D01*
X39988500Y-77199850D02*
X35612500Y-81575850D01*
D15*
X68626900Y-55899750D02*
X70160800Y-54365850D01*
X39362500Y-55875850D02*
X39386400Y-55899750D01*
X70160800Y-54365850D02*
X71312500Y-54365850D01*
X39386400Y-55899750D02*
X68626900Y-55899750D01*
X32345500Y-54928450D02*
X58312500Y-54928450D01*
X73487100Y-44600450D02*
X66287500Y-44600450D01*
X76062500Y-45406850D02*
X74293500Y-45406850D01*
X74293500Y-45406850D02*
X73487100Y-44600450D01*
X82873800Y-36632750D02*
X91862500Y-36632750D01*
X76337500Y-35025450D02*
X81266500Y-35025450D01*
X81266500Y-35025450D02*
X82873800Y-36632750D01*
X56991000Y-60048050D02*
X56790300Y-60248750D01*
X51998800Y-60248750D02*
X50164200Y-58414150D01*
X50164200Y-58414150D02*
X33390100Y-58414150D01*
X56790300Y-60248750D02*
X51998800Y-60248750D01*
X32321600Y-59482650D02*
X26523500Y-59482650D01*
X33390100Y-58414150D02*
X32321600Y-59482650D01*
X50870700Y-65968950D02*
X58312500Y-65968950D01*
X69234100Y-56501450D02*
X69379600Y-56646950D01*
X42337500Y-56501450D02*
X69234100Y-56501450D01*
X60332100Y-68300750D02*
X66710300Y-68300750D01*
X44872500Y-71254550D02*
X60332100Y-71254550D01*
X62799500Y-41625550D02*
X76062500Y-41625550D01*
X90469200Y-49732250D02*
X76337500Y-49732250D01*
X64345000Y-33631850D02*
X64485900Y-33490950D01*
X49671200Y-33631850D02*
X64345000Y-33631850D01*
X43609400Y-30596250D02*
X47366500Y-30596250D01*
X42529800Y-31675850D02*
X43609400Y-30596250D01*
X32062500Y-31675850D02*
X42529800Y-31675850D01*
X32012500Y-31725850D02*
X32062500Y-31675850D01*
X48423400Y-31653150D02*
X55162500Y-31653150D01*
X47366500Y-30596250D02*
X48423400Y-31653150D01*
X78227700Y-42227250D02*
X78330800Y-42124150D01*
X70988000Y-42227250D02*
X78227700Y-42227250D01*
X81741800Y-42934250D02*
X94003600Y-42934250D01*
X67823900Y-42227250D02*
X70988000Y-42227250D01*
X80931700Y-42124150D02*
X81741800Y-42934250D01*
X60656800Y-58236850D02*
X73347700Y-58236850D01*
X78330800Y-42124150D02*
X80931700Y-42124150D01*
X80004900Y-51142350D02*
X72586100Y-51142350D01*
X96237000Y-44675850D02*
X96160400Y-44599250D01*
X96160400Y-44599250D02*
X83860800Y-44599250D01*
X67760600Y-50777750D02*
X67099600Y-51438750D01*
X72586100Y-51142350D02*
X72046600Y-50602850D01*
X67760600Y-50602850D02*
X67760600Y-50777750D01*
X72046600Y-50602850D02*
X67760600Y-50602850D01*
X103842600Y-44675850D02*
X103953700Y-44786950D01*
X67099600Y-51438750D02*
X67099600Y-51680550D01*
X96262500Y-44675850D02*
X103842600Y-44675850D01*
X96262500Y-44675850D02*
X96237000Y-44675850D01*
X98504800Y-58928750D02*
X95268500Y-58928750D01*
X72219500Y-48118150D02*
X66980800Y-48118150D01*
X66980800Y-48118150D02*
X66917700Y-48181250D01*
X73197100Y-49095750D02*
X72219500Y-48118150D01*
X102372700Y-58928750D02*
X98504800Y-58928750D01*
X104433000Y-56868450D02*
X102372700Y-58928750D01*
X94153300Y-49475550D02*
X93773500Y-49095750D01*
X95268500Y-58928750D02*
X95112500Y-59084750D01*
X93773500Y-49095750D02*
X73197100Y-49095750D01*
X60567600Y-32825850D02*
X60573900Y-32819550D01*
X72483300Y-41017250D02*
X74021000Y-41017250D01*
X72483300Y-41017250D02*
X67788500Y-41017250D01*
X59119400Y-32775850D02*
X59169400Y-32825850D01*
X59169400Y-32825850D02*
X60567600Y-32825850D01*
X75228200Y-36753450D02*
X79364200Y-36753450D01*
X105475200Y-73769850D02*
X110629900Y-73769850D01*
X73094600Y-48225050D02*
X93551600Y-48225050D01*
X105262250Y-73626100D02*
X105312250Y-73626100D01*
X66644500Y-47559450D02*
X72429000Y-47559450D01*
X105312250Y-73626100D02*
X105331450Y-73626100D01*
X72429000Y-47559450D02*
X73094600Y-48225050D01*
X102095600Y-61707250D02*
X102582100Y-62193750D01*
X65669700Y-46584650D02*
X66644500Y-47559450D01*
X105331450Y-73626100D02*
X105475200Y-73769850D01*
X104672100Y-74216250D02*
X105262250Y-73626100D01*
X95857200Y-61707250D02*
X102095600Y-61707250D01*
X102947600Y-74216250D02*
X104672100Y-74216250D01*
X39180100Y-36606250D02*
X59912500Y-36606250D01*
X70160800Y-39845850D02*
X71312500Y-39845850D01*
X69724700Y-40281950D02*
X70160800Y-39845850D01*
X41198500Y-40739850D02*
X41656400Y-40281950D01*
X72700600Y-39845850D02*
X71312500Y-39845850D01*
X41656400Y-40281950D02*
X69724700Y-40281950D01*
X83166400Y-56324150D02*
X86179600Y-56324150D01*
X86535000Y-56679550D02*
X103631300Y-56679550D01*
X42492400Y-74224550D02*
X50867400Y-74224550D01*
X42241900Y-73974050D02*
X42492400Y-74224550D01*
X72547800Y-50521150D02*
X83166400Y-50521150D01*
X71312500Y-49285850D02*
X72547800Y-50521150D01*
X69212500Y-43775250D02*
X54162500Y-43775250D01*
X86179600Y-56324150D02*
X86535000Y-56679550D01*
X71312500Y-51825850D02*
X77006100Y-51825850D01*
X104160800Y-65865850D02*
X103476500Y-65865850D01*
X68481800Y-59360850D02*
X68578900Y-59457950D01*
X92599900Y-56077850D02*
X89941600Y-53419550D01*
X55966700Y-59360850D02*
X68481800Y-59360850D01*
X89941600Y-53419550D02*
X77795600Y-53419550D01*
X101229100Y-56077850D02*
X92599900Y-56077850D01*
X105312500Y-65865850D02*
X104160800Y-65865850D01*
X88162500Y-64634650D02*
X76887800Y-64634650D01*
X37312500Y-61747650D02*
X39494300Y-59565850D01*
X39494300Y-59565850D02*
X46921900Y-59565850D01*
X37312500Y-62105850D02*
X37312500Y-61747650D01*
X105312500Y-68405850D02*
X96245600Y-68405850D01*
X93869400Y-64634650D02*
X88162500Y-64634650D01*
X49152600Y-61796550D02*
X76887800Y-61796550D01*
X46921900Y-59565850D02*
X49152600Y-61796550D01*
X60142100Y-44532150D02*
X48199100Y-44532150D01*
X37312500Y-47950850D02*
X38464200Y-47950850D01*
X38993600Y-47421450D02*
X48199100Y-47421450D01*
X72995500Y-47557950D02*
X70656700Y-45219150D01*
X70656700Y-45219150D02*
X61135500Y-45219150D01*
X61135500Y-45219150D02*
X60982300Y-45372350D01*
X89856000Y-47557950D02*
X72995500Y-47557950D01*
X89859000Y-47560950D02*
X89856000Y-47557950D01*
X38464200Y-47950850D02*
X38993600Y-47421450D01*
X60982300Y-45372350D02*
X60142100Y-44532150D01*
X97306600Y-41053750D02*
X105373400Y-41053750D01*
X53669800Y-35917550D02*
X80061700Y-35917550D01*
X53584800Y-36002550D02*
X39806500Y-36002550D01*
X95164600Y-38911750D02*
X97306600Y-41053750D01*
X53669800Y-35917550D02*
X53584800Y-36002550D01*
X105373400Y-41053750D02*
X105462500Y-40964650D01*
X80061700Y-35917550D02*
X83055900Y-38911750D01*
X83055900Y-38911750D02*
X95164600Y-38911750D01*
M02*
