G04 #@! TF.GenerationSoftware,KiCad,Pcbnew,9.0.0*
G04 #@! TF.CreationDate,2025-04-21T18:55:09+09:00*
G04 #@! TF.ProjectId,nofy_V2_R,6e6f6679-5f56-4325-9f52-2e6b69636164,rev?*
G04 #@! TF.SameCoordinates,Original*
G04 #@! TF.FileFunction,Soldermask,Top*
G04 #@! TF.FilePolarity,Negative*
%FSLAX46Y46*%
G04 Gerber Fmt 4.6, Leading zero omitted, Abs format (unit mm)*
G04 Created by KiCad (PCBNEW 9.0.0) date 2025-04-21 18:55:09*
%MOMM*%
%LPD*%
G01*
G04 APERTURE LIST*
%ADD10C,3.000000*%
%ADD11C,4.800000*%
%ADD12C,1.700000*%
%ADD13O,1.700000X1.700000*%
%ADD14C,2.200000*%
%ADD15R,1.700000X1.700000*%
%ADD16C,2.000000*%
%ADD17C,0.600000*%
G04 APERTURE END LIST*
D10*
X131600000Y-57200000D03*
D11*
X126600000Y-60900000D03*
D10*
X126600000Y-55000000D03*
X165600000Y-51700000D03*
D11*
X160600000Y-55400000D03*
D10*
X160600000Y-49500000D03*
X172600000Y-45200000D03*
D11*
X177600000Y-41500000D03*
D10*
X177600000Y-47400000D03*
D12*
X186100000Y-56900000D03*
D13*
X186100000Y-59440000D03*
X186100000Y-61980000D03*
X186100000Y-64520000D03*
D10*
X114600000Y-63000000D03*
D11*
X109600000Y-66700000D03*
D10*
X109600000Y-60800000D03*
D14*
X134700000Y-52400000D03*
D10*
X165600000Y-34700000D03*
D11*
X160600000Y-38400000D03*
D10*
X160600000Y-32500000D03*
X138600000Y-45200000D03*
D11*
X143600000Y-41500000D03*
D10*
X143600000Y-47400000D03*
D12*
X152100000Y-25800000D03*
D13*
X152100000Y-28340000D03*
X152100000Y-30880000D03*
X152100000Y-33420000D03*
D14*
X186200000Y-75200000D03*
D10*
X165600000Y-17700000D03*
D11*
X160600000Y-21400000D03*
D10*
X160600000Y-15500000D03*
D12*
X118100000Y-33905000D03*
D13*
X118100000Y-36445000D03*
X118100000Y-38985000D03*
X118100000Y-41525000D03*
D10*
X114600000Y-46000000D03*
D11*
X109600000Y-49700000D03*
D10*
X109600000Y-43800000D03*
X114600000Y-29000000D03*
D11*
X109600000Y-32700000D03*
D10*
X109600000Y-26800000D03*
X189600000Y-36400000D03*
D11*
X194600000Y-32700000D03*
D10*
X194600000Y-38600000D03*
D12*
X118100000Y-50600000D03*
D13*
X118100000Y-53140000D03*
X118100000Y-55680000D03*
X118100000Y-58220000D03*
D10*
X131600000Y-23175000D03*
D11*
X126600000Y-26875000D03*
D10*
X126600000Y-20975000D03*
X189600000Y-53400000D03*
D11*
X194600000Y-49700000D03*
D10*
X194600000Y-55600000D03*
D15*
X180500000Y-71440000D03*
D13*
X180500000Y-73980000D03*
X180500000Y-76520000D03*
X180500000Y-79060000D03*
X180500000Y-81600000D03*
X180500000Y-84140000D03*
X180500000Y-86680000D03*
D12*
X152100000Y-42860000D03*
D13*
X152100000Y-45400000D03*
X152100000Y-47940000D03*
X152100000Y-50480000D03*
D10*
X122900000Y-72900000D03*
D11*
X126600000Y-77900000D03*
D10*
X120700000Y-77900000D03*
X131600000Y-40200000D03*
D11*
X126600000Y-43900000D03*
D10*
X126600000Y-38000000D03*
X189600000Y-70400000D03*
D11*
X194600000Y-66700000D03*
D10*
X194600000Y-72600000D03*
X172600000Y-28200000D03*
D11*
X177600000Y-24500000D03*
D10*
X177600000Y-30400000D03*
D14*
X186600000Y-41200000D03*
D10*
X172600000Y-62200000D03*
D11*
X177600000Y-58500000D03*
D10*
X177600000Y-64400000D03*
X148600000Y-20800000D03*
D11*
X143600000Y-24500000D03*
D10*
X143600000Y-18600000D03*
X138600000Y-62200000D03*
D11*
X143600000Y-58500000D03*
D10*
X143600000Y-64400000D03*
X189600000Y-87400000D03*
D11*
X194600000Y-83700000D03*
D10*
X194600000Y-89600000D03*
X105900000Y-78700000D03*
D11*
X109600000Y-83700000D03*
D10*
X103700000Y-83700000D03*
D16*
X118000000Y-82200000D03*
X118000000Y-77200000D03*
X118000000Y-79700000D03*
D17*
X155651000Y-62673900D03*
X181655700Y-66324400D03*
X164648300Y-55943600D03*
X162317200Y-52083200D03*
X174531400Y-55943600D03*
X180359500Y-54933900D03*
X165720200Y-54881000D03*
X184811600Y-60944800D03*
X180471400Y-60944800D03*
X162215200Y-35698300D03*
X171509100Y-35211700D03*
X183399900Y-35211700D03*
X171254500Y-29857200D03*
X156450800Y-60398300D03*
X184443400Y-84140000D03*
X184638765Y-65803765D03*
X156450800Y-51688000D03*
X120008600Y-57001600D03*
X154304000Y-30523900D03*
X129100000Y-57001600D03*
X129665100Y-29572100D03*
X179701100Y-32759200D03*
X120691000Y-58100000D03*
X122731300Y-82200000D03*
X129306500Y-73713800D03*
X138103800Y-59032100D03*
X129306500Y-59032100D03*
X150019800Y-50020200D03*
X138103800Y-50020200D03*
X187997400Y-45251300D03*
X181023300Y-45251300D03*
X112464800Y-47834400D03*
X138259600Y-47834400D03*
X147011100Y-51359400D03*
X137427800Y-50910600D03*
X147075000Y-44187400D03*
X153850000Y-44187400D03*
X115650000Y-71800000D03*
X106100000Y-71750000D03*
X123125000Y-35750000D03*
X132450000Y-35748600D03*
X123589300Y-65653300D03*
X115650000Y-65653300D03*
X132950000Y-26657000D03*
X140196700Y-26657000D03*
X164648300Y-46702000D03*
X156130900Y-46702000D03*
X164648300Y-49535900D03*
X187583300Y-49369700D03*
X123050000Y-30350000D03*
X130330100Y-30350000D03*
X132450000Y-31300000D03*
X106125000Y-29425900D03*
X181800000Y-58288300D03*
X198075000Y-58288300D03*
X186800000Y-33366400D03*
X154744700Y-34141700D03*
X147862300Y-41757300D03*
X141148000Y-45032500D03*
X141148000Y-48646400D03*
X185650000Y-44359600D03*
X175341100Y-44359600D03*
X116005700Y-48646400D03*
X173025800Y-41755000D03*
X162376500Y-41755000D03*
X147862300Y-45032500D03*
X175829015Y-54108885D03*
X140546300Y-55281400D03*
X140546300Y-65004800D03*
X113273100Y-67790400D03*
X144753100Y-52950000D03*
X144753100Y-55281400D03*
X137100000Y-27900000D03*
X154412600Y-26850000D03*
X146193200Y-26962600D03*
X147076600Y-41135100D03*
X166922700Y-50173100D03*
X166147500Y-41135100D03*
X184123700Y-64520000D03*
X191522700Y-64550000D03*
X184123700Y-50173100D03*
X120356500Y-33052400D03*
X141850000Y-32751500D03*
X105850000Y-73041500D03*
X154382700Y-28750000D03*
X121235200Y-31955100D03*
X117950000Y-73041500D03*
X179757800Y-56349200D03*
X150400000Y-38679400D03*
X154644500Y-38679400D03*
X165497900Y-42679500D03*
X154773000Y-42679500D03*
X135166300Y-38230300D03*
X178879700Y-49140800D03*
X165497900Y-48904500D03*
X122850000Y-64828700D03*
X131658200Y-64828700D03*
X158926500Y-47772400D03*
X136751700Y-49248600D03*
X120671800Y-50020200D03*
X136751700Y-49248600D03*
X184734200Y-55535600D03*
X176407200Y-55535600D03*
X174279700Y-47303700D03*
X167913400Y-53564600D03*
X172400000Y-59530300D03*
X172400000Y-53284900D03*
X166948900Y-46113800D03*
X169963400Y-43214200D03*
X139200000Y-32000000D03*
X143066085Y-37931485D03*
X152100000Y-37958800D03*
X119050000Y-32500000D03*
X134500000Y-33700000D03*
X185642000Y-38752100D03*
M02*
