G04 #@! TF.GenerationSoftware,KiCad,Pcbnew,8.0.7*
G04 #@! TF.CreationDate,2025-02-22T11:32:46+09:00*
G04 #@! TF.ProjectId,pmw3610_breakout_for_roBa,706d7733-3631-4305-9f62-7265616b6f75,rev?*
G04 #@! TF.SameCoordinates,Original*
G04 #@! TF.FileFunction,Soldermask,Top*
G04 #@! TF.FilePolarity,Negative*
%FSLAX46Y46*%
G04 Gerber Fmt 4.6, Leading zero omitted, Abs format (unit mm)*
G04 Created by KiCad (PCBNEW 8.0.7) date 2025-02-22 11:32:46*
%MOMM*%
%LPD*%
G01*
G04 APERTURE LIST*
G04 Aperture macros list*
%AMRoundRect*
0 Rectangle with rounded corners*
0 $1 Rounding radius*
0 $2 $3 $4 $5 $6 $7 $8 $9 X,Y pos of 4 corners*
0 Add a 4 corners polygon primitive as box body*
4,1,4,$2,$3,$4,$5,$6,$7,$8,$9,$2,$3,0*
0 Add four circle primitives for the rounded corners*
1,1,$1+$1,$2,$3*
1,1,$1+$1,$4,$5*
1,1,$1+$1,$6,$7*
1,1,$1+$1,$8,$9*
0 Add four rect primitives between the rounded corners*
20,1,$1+$1,$2,$3,$4,$5,0*
20,1,$1+$1,$4,$5,$6,$7,0*
20,1,$1+$1,$6,$7,$8,$9,0*
20,1,$1+$1,$8,$9,$2,$3,0*%
G04 Aperture macros list end*
%ADD10RoundRect,0.187500X-0.437500X0.437500X-0.437500X-0.437500X0.437500X-0.437500X0.437500X0.437500X0*%
%ADD11O,1.250000X1.250000*%
%ADD12R,1.300000X1.300000*%
%ADD13O,1.300000X1.300000*%
%ADD14C,0.600000*%
G04 APERTURE END LIST*
D10*
X130650000Y-81100000D03*
D11*
X130650000Y-82880000D03*
X130650000Y-84660000D03*
X130650000Y-86440000D03*
X130650000Y-88220000D03*
X130650000Y-90000000D03*
X130650000Y-91780000D03*
X130650000Y-93560000D03*
X141350000Y-94450000D03*
X141350000Y-92670000D03*
X141350000Y-90890000D03*
X141350000Y-89110000D03*
X141350000Y-87330000D03*
X141350000Y-85550000D03*
X141350000Y-83770000D03*
X141350000Y-81990000D03*
D12*
X143620000Y-98500000D03*
D13*
X141080000Y-98500000D03*
X138540000Y-98500000D03*
X136000000Y-98500000D03*
X133460000Y-98500000D03*
X130920000Y-98500000D03*
X128380000Y-98500000D03*
D14*
X139897300Y-102005500D03*
X143571500Y-99996600D03*
X144786300Y-94126600D03*
X128165200Y-95839900D03*
X134225700Y-100246100D03*
X126416900Y-91894700D03*
X142725100Y-96595900D03*
X145681100Y-94000000D03*
X130935400Y-102884900D03*
X141444700Y-101864200D03*
X143492800Y-92441900D03*
X134112300Y-101787300D03*
X129686600Y-102965600D03*
X129928300Y-97201600D03*
X141882400Y-95840600D03*
X144153500Y-96412300D03*
X131224900Y-96031200D03*
X139884000Y-99625400D03*
X129248700Y-83567000D03*
M02*
