M48
; DRILL file {KiCad 9.0.0} date 2025-04-19T15:35:31+0900
; FORMAT={-:-/ absolute / inch / decimal}
; #@! TF.CreationDate,2025-04-19T15:35:31+09:00
; #@! TF.GenerationSoftware,Kicad,Pcbnew,9.0.0
; #@! TF.FileFunction,NonPlated,1,2,NPTH
FMAT,2
INCH
; #@! TA.AperFunction,NonPlated,NPTH,ComponentDrill
T1C0.0866
; #@! TA.AperFunction,NonPlated,NPTH,ComponentDrill
T2C0.1181
; #@! TA.AperFunction,NonPlated,NPTH,ComponentDrill
T3C0.1890
%
G90
G05
T1
X2.1225Y-2.316
X4.1501Y-3.2136
X4.1658Y-1.875
T2
X0.9021Y-3.5483
X0.9887Y-3.3514
X1.1344Y-1.3081
X1.1344Y-1.9774
X1.1344Y-2.6467
X1.3312Y-1.3947
X1.3312Y-2.064
X1.3312Y-2.7333
X1.5714Y-3.3199
X1.658Y-3.1231
X1.8036Y-1.0788
X1.8036Y-1.749
X1.8036Y-2.4183
X2.0005Y-1.1654
X2.0005Y-1.8357
X2.0005Y-2.505
X2.2761Y-2.0325
X2.2761Y-2.7018
X2.4729Y-0.9853
X2.4729Y-2.1191
X2.4729Y-2.7884
X2.6698Y-1.0719
X3.1422Y-0.8632
X3.1422Y-1.5325
X3.1422Y-2.2018
X3.3391Y-0.9498
X3.3391Y-1.6191
X3.3391Y-2.2884
X3.6147Y-1.3632
X3.6147Y-2.0325
X3.6147Y-2.7018
X3.8115Y-1.4498
X3.8115Y-2.1191
X3.8115Y-2.7884
X4.284Y-1.6861
X4.284Y-2.3553
X4.284Y-3.0246
X4.284Y-3.6939
X4.4808Y-1.7727
X4.4808Y-2.442
X4.4808Y-3.1113
X4.4808Y-3.7805
T3
X1.1344Y-1.5404
X1.1344Y-2.2097
X1.1344Y-2.879
X1.1344Y-3.5483
X1.8036Y-1.3111
X1.8036Y-1.9813
X1.8036Y-2.6506
X1.8036Y-3.3199
X2.4729Y-1.2176
X2.4729Y-1.8868
X2.4729Y-2.5561
X3.1422Y-1.0955
X3.1422Y-1.7648
X3.1422Y-2.4341
X3.8115Y-1.2176
X3.8115Y-1.8868
X3.8115Y-2.5561
X4.4808Y-1.5404
X4.4808Y-2.2097
X4.4808Y-2.879
X4.4808Y-3.5483
M30
