M48
; DRILL file {KiCad 9.0.0} date 2025-04-19T15:35:31+0900
; FORMAT={-:-/ absolute / inch / decimal}
; #@! TF.CreationDate,2025-04-19T15:35:31+09:00
; #@! TF.GenerationSoftware,Kicad,Pcbnew,9.0.0
; #@! TF.FileFunction,Plated,1,2,PTH
FMAT,2
INCH
; #@! TA.AperFunction,Plated,PTH,ViaDrill
T1C0.0118
; #@! TA.AperFunction,Plated,PTH,ComponentDrill
T2C0.0394
%
G90
G05
T1
X1.0442Y-2.3418
X1.2603Y-1.249
X1.2734Y-2.1625
X1.5425Y-1.4412
X1.5497Y-2.1998
X1.5672Y-1.4174
X1.5744Y-3.0385
X1.622Y-1.6039
X1.6486Y-1.5227
X1.6631Y-2.9124
X1.6668Y-2.2245
X1.7666Y-2.8053
X1.8976Y-1.7532
X1.8976Y-1.867
X1.9556Y-1.3241
X2.0027Y-2.9222
X2.0028Y-2.5972
X2.113Y-1.4141
X2.1324Y-1.7234
X2.1718Y-1.2462
X2.2034Y-2.337
X2.2437Y-2.3641
X2.2958Y-2.1625
X2.2958Y-2.5972
X2.3275Y-1.2904
X2.3457Y-1.6437
X2.3588Y-1.4412
X2.3637Y-2.3636
X2.3753Y-2.689
X2.3753Y-2.8053
X2.3848Y-1.2921
X2.3881Y-2.2928
X2.4009Y-1.7863
X2.4714Y-1.3688
X2.4714Y-1.5227
X2.4724Y-1.6388
X2.5388Y-1.3185
X2.5854Y-1.834
X2.6097Y-1.7559
X2.6264Y-2.689
X2.6346Y-1.8969
X2.6417Y-2.0347
X2.6677Y-1.9922
X2.6688Y-1.6149
X2.6702Y-1.6625
X2.7Y-2.3409
X2.7249Y-1.7234
X2.7315Y-2.2302
X2.7948Y-1.6625
X2.8076Y-2.721
X2.8431Y-1.5114
X2.8537Y-1.6149
X2.8622Y-1.5687
X2.8793Y-1.2895
X2.8877Y-2.2928
X2.8905Y-1.5037
X2.9142Y-1.6149
X2.9436Y-2.3878
X2.9436Y-2.5795
X2.953Y-2.2966
X2.9617Y-1.447
X2.9809Y-2.3508
X2.9809Y-2.6069
X2.9946Y-1.6388
X2.9946Y-1.7877
X3.0054Y-1.379
X3.0054Y-1.958
X3.0271Y-2.4329
X3.0271Y-2.5447
X3.0317Y-2.0404
X3.0628Y-2.1031
X3.1246Y-1.447
X3.1498Y-2.0135
X3.234Y-2.2974
X3.25Y-1.2895
X3.2692Y-2.3932
X3.2743Y-1.989
X3.2743Y-2.2175
X3.3016Y-1.7559
X3.3859Y-2.1503
X3.471Y-2.5447
X3.5378Y-1.8725
X3.5547Y-2.1503
X3.5618Y-1.958
X3.5713Y-2.4597
X3.6166Y-1.4422
X3.6725Y-2.5795
X3.6831Y-1.8986
X3.6956Y-2.5447
X3.7009Y-1.6903
X3.7068Y-1.9479
X3.7446Y-2.3262
X3.7739Y-2.4294
X3.7892Y-2.6931
X3.7899Y-1.7589
X3.8781Y-2.32
X3.971Y-2.8645
X3.9854Y-2.2078
X3.9887Y-3.4343
X4.0023Y-2.8683
X4.0148Y-2.3478
X4.0387Y-2.4486
X4.0512Y-2.957
X4.0512Y-3.4638
X4.0531Y-2.9219
X4.063Y-2.6655
X4.0739Y-2.5931
X4.08Y-2.2315
X4.0927Y-1.7633
X4.1115Y-2.2389
X4.1462Y-2.8987
X4.1521Y-1.6128
X4.2226Y-2.4313
X4.2226Y-2.9519
X4.2669Y-2.4758
X4.2669Y-2.8689
X4.3555Y-2.9043
T2
X1.4651Y-3.2924
X1.4651Y-3.3908
X1.4651Y-3.4892
X1.469Y-1.5878
X1.469Y-1.6878
X1.469Y-1.7878
X1.469Y-1.8878
X1.469Y-2.2451
X1.469Y-2.3451
X1.469Y-2.4451
X1.469Y-2.5451
X2.8076Y-1.2687
X2.8076Y-1.3687
X2.8076Y-1.4687
X2.8076Y-1.5687
X2.8076Y-1.9404
X2.8076Y-2.0404
X2.8076Y-2.1404
X2.8076Y-2.2404
X3.9257Y-3.0656
X3.9257Y-3.1656
X3.9257Y-3.2656
X3.9257Y-3.3656
X3.9257Y-3.4656
X3.9257Y-3.5656
X3.9257Y-3.6656
X4.1462Y-2.4931
X4.1462Y-2.5931
X4.1462Y-2.6931
X4.1462Y-2.7931
M30
