%TF.GenerationSoftware,KiCad,Pcbnew,9.0.0*%
%TF.CreationDate,2025-04-19T15:35:31+09:00*%
%TF.ProjectId,nofy_V2_R,6e6f6679-5f56-4325-9f52-2e6b69636164,rev?*%
%TF.SameCoordinates,Original*%
%TF.FileFunction,Soldermask,Top*%
%TF.FilePolarity,Negative*%
%FSLAX46Y46*%
G04 Gerber Fmt 4.6, Leading zero omitted, Abs format (unit mm)*
G04 Created by KiCad (PCBNEW 9.0.0) date 2025-04-19 15:35:31*
%MOMM*%
%LPD*%
G01*
G04 APERTURE LIST*
%ADD10C,1.700000*%
%ADD11O,1.700000X1.700000*%
%ADD12R,1.700000X1.700000*%
%ADD13C,2.000000*%
%ADD14C,0.600000*%
G04 APERTURE END LIST*
D10*
%TO.C,J32*%
X105312500Y-63325850D03*
D11*
X105312500Y-65865850D03*
X105312500Y-68405850D03*
X105312500Y-70945850D03*
%TD*%
D10*
%TO.C,Con_L_12*%
X71312500Y-32225850D03*
D11*
X71312500Y-34765850D03*
X71312500Y-37305850D03*
X71312500Y-39845850D03*
%TD*%
D10*
%TO.C,Con_L_8*%
X37312500Y-40330850D03*
D11*
X37312500Y-42870850D03*
X37312500Y-45410850D03*
X37312500Y-47950850D03*
%TD*%
D10*
%TO.C,Con_L_10*%
X37312500Y-57025850D03*
D11*
X37312500Y-59565850D03*
X37312500Y-62105850D03*
X37312500Y-64645850D03*
%TD*%
D12*
%TO.C,J9*%
X99712500Y-77865850D03*
D11*
X99712500Y-80405850D03*
X99712500Y-82945850D03*
X99712500Y-85485850D03*
X99712500Y-88025850D03*
X99712500Y-90565850D03*
X99712500Y-93105850D03*
%TD*%
D10*
%TO.C,Con_L_14*%
X71312500Y-49285850D03*
D11*
X71312500Y-51825850D03*
X71312500Y-54365850D03*
X71312500Y-56905850D03*
%TD*%
D13*
%TO.C,SW4*%
X37212500Y-88625850D03*
X37212500Y-83625850D03*
X37212500Y-86125850D03*
%TD*%
D14*
X100864200Y-72757550D03*
X71312500Y-69114150D03*
X93281100Y-65518950D03*
X74767100Y-60650450D03*
X74767100Y-65518950D03*
X75715100Y-66215450D03*
X60037500Y-60036150D03*
X59580900Y-41750150D03*
X103201300Y-67703050D03*
X75715100Y-59710350D03*
X107253900Y-61755950D03*
X73419200Y-38192850D03*
X101313400Y-87230450D03*
X102900400Y-75106650D03*
X83038800Y-60786850D03*
X75005400Y-58332750D03*
X107253900Y-74979350D03*
X102900400Y-87979450D03*
X82143500Y-58354750D03*
X72215800Y-38389150D03*
X101976200Y-59633350D03*
X101658180Y-72855526D03*
X41873400Y-38675850D03*
X73133200Y-32752450D03*
X90289300Y-54618150D03*
X82550600Y-32752450D03*
X108378500Y-72869650D03*
X39988500Y-77177950D03*
X62773100Y-34766950D03*
X90710800Y-62475550D03*
X108378500Y-62884050D03*
X62774200Y-38675850D03*
X86002200Y-54618150D03*
X39362500Y-55875850D03*
X32345500Y-54928450D03*
X58312500Y-54928450D03*
X66287500Y-44600450D03*
X76062500Y-45406850D03*
X76337500Y-35025450D03*
X91862500Y-36632750D03*
X26523500Y-59482650D03*
X56991000Y-60048050D03*
X50870700Y-65968950D03*
X58312500Y-65968950D03*
X42337500Y-56501450D03*
X69379600Y-56646950D03*
X60332100Y-71254550D03*
X66710300Y-68300750D03*
X44872500Y-71254550D03*
X60332100Y-68300750D03*
X62799500Y-41625550D03*
X76062500Y-41625550D03*
X76337500Y-49732250D03*
X90469200Y-49732250D03*
X64485900Y-33490950D03*
X49671200Y-33631850D03*
X32012500Y-31725850D03*
X55162500Y-31653150D03*
X94003600Y-42934250D03*
X70988000Y-42227250D03*
X73347700Y-58236850D03*
X67823900Y-42227250D03*
X60656800Y-58236850D03*
X103953700Y-44786950D03*
X80004900Y-51142350D03*
X96262500Y-44675850D03*
X83860800Y-44599250D03*
X67099600Y-51680550D03*
X67760600Y-50602850D03*
X66917700Y-48181250D03*
X98504800Y-58928750D03*
X94153300Y-49475550D03*
X95112500Y-59084750D03*
X104433000Y-56868450D03*
X74021000Y-41017250D03*
X67788500Y-41017250D03*
X75228200Y-36753450D03*
X72483300Y-41017250D03*
X60573900Y-32819550D03*
X79364200Y-36753450D03*
X59119400Y-32775850D03*
X93551600Y-48225050D03*
X95857200Y-61707250D03*
X65669700Y-46584650D03*
X102947600Y-74216250D03*
X102582100Y-62193750D03*
X105312250Y-73626100D03*
X110629900Y-73769850D03*
X59912500Y-36606250D03*
X39180100Y-36606250D03*
X41198500Y-40739850D03*
X72700600Y-39845850D03*
X50867400Y-74224550D03*
X54162500Y-43775250D03*
X103631300Y-56679550D03*
X83166400Y-50521150D03*
X42241900Y-73974050D03*
X83166400Y-56324150D03*
X69212500Y-43775250D03*
X55966700Y-59360850D03*
X103476500Y-65865850D03*
X77006100Y-51825850D03*
X101229100Y-56077850D03*
X77795600Y-53419550D03*
X68578900Y-59457950D03*
X76887800Y-64634650D03*
X96245600Y-68405850D03*
X76887800Y-61796550D03*
X88162500Y-64634650D03*
X93869400Y-64634650D03*
X60982300Y-45372350D03*
X48199100Y-44532150D03*
X48199100Y-47421450D03*
X89859000Y-47560950D03*
X53669800Y-35917550D03*
X39806500Y-36002550D03*
X105462500Y-40964650D03*
M02*
