%TF.GenerationSoftware,KiCad,Pcbnew,9.0.0*%
%TF.CreationDate,2025-04-19T15:35:31+09:00*%
%TF.ProjectId,nofy_V2_R,6e6f6679-5f56-4325-9f52-2e6b69636164,rev?*%
%TF.SameCoordinates,Original*%
%TF.FileFunction,Legend,Bot*%
%TF.FilePolarity,Positive*%
%FSLAX46Y46*%
G04 Gerber Fmt 4.6, Leading zero omitted, Abs format (unit mm)*
G04 Created by KiCad (PCBNEW 9.0.0) date 2025-04-19 15:35:31*
%MOMM*%
%LPD*%
G01*
G04 APERTURE LIST*
%ADD10C,0.125000*%
%ADD11C,0.200000*%
%ADD12C,0.150000*%
%ADD13C,0.500000*%
%ADD14R,1.200000X0.950000*%
%ADD15C,3.000000*%
%ADD16C,4.800000*%
%ADD17R,3.000000X2.800000*%
%ADD18R,2.850000X2.750000*%
%ADD19C,1.700000*%
%ADD20O,1.700000X1.700000*%
%ADD21C,2.200000*%
%ADD22R,1.700000X1.700000*%
%ADD23R,2.800000X3.000000*%
%ADD24R,2.750000X2.850000*%
%ADD25C,2.000000*%
%ADD26C,0.600000*%
G04 APERTURE END LIST*
D10*
X27792168Y-96780302D02*
X27792168Y-97446969D01*
X27792168Y-96875540D02*
X27744549Y-96827921D01*
X27744549Y-96827921D02*
X27649311Y-96780302D01*
X27649311Y-96780302D02*
X27506454Y-96780302D01*
X27506454Y-96780302D02*
X27411216Y-96827921D01*
X27411216Y-96827921D02*
X27363597Y-96923159D01*
X27363597Y-96923159D02*
X27363597Y-97446969D01*
X26744549Y-97446969D02*
X26839787Y-97399350D01*
X26839787Y-97399350D02*
X26887406Y-97351730D01*
X26887406Y-97351730D02*
X26935025Y-97256492D01*
X26935025Y-97256492D02*
X26935025Y-96970778D01*
X26935025Y-96970778D02*
X26887406Y-96875540D01*
X26887406Y-96875540D02*
X26839787Y-96827921D01*
X26839787Y-96827921D02*
X26744549Y-96780302D01*
X26744549Y-96780302D02*
X26601692Y-96780302D01*
X26601692Y-96780302D02*
X26506454Y-96827921D01*
X26506454Y-96827921D02*
X26458835Y-96875540D01*
X26458835Y-96875540D02*
X26411216Y-96970778D01*
X26411216Y-96970778D02*
X26411216Y-97256492D01*
X26411216Y-97256492D02*
X26458835Y-97351730D01*
X26458835Y-97351730D02*
X26506454Y-97399350D01*
X26506454Y-97399350D02*
X26601692Y-97446969D01*
X26601692Y-97446969D02*
X26744549Y-97446969D01*
X26125501Y-96780302D02*
X25744549Y-96780302D01*
X25982644Y-97446969D02*
X25982644Y-96589826D01*
X25982644Y-96589826D02*
X25935025Y-96494588D01*
X25935025Y-96494588D02*
X25839787Y-96446969D01*
X25839787Y-96446969D02*
X25744549Y-96446969D01*
X25506453Y-96780302D02*
X25268358Y-97446969D01*
X25030263Y-96780302D02*
X25268358Y-97446969D01*
X25268358Y-97446969D02*
X25363596Y-97685064D01*
X25363596Y-97685064D02*
X25411215Y-97732683D01*
X25411215Y-97732683D02*
X25506453Y-97780302D01*
X24030262Y-96446969D02*
X23696929Y-97446969D01*
X23696929Y-97446969D02*
X23363596Y-96446969D01*
X23077881Y-96542207D02*
X23030262Y-96494588D01*
X23030262Y-96494588D02*
X22935024Y-96446969D01*
X22935024Y-96446969D02*
X22696929Y-96446969D01*
X22696929Y-96446969D02*
X22601691Y-96494588D01*
X22601691Y-96494588D02*
X22554072Y-96542207D01*
X22554072Y-96542207D02*
X22506453Y-96637445D01*
X22506453Y-96637445D02*
X22506453Y-96732683D01*
X22506453Y-96732683D02*
X22554072Y-96875540D01*
X22554072Y-96875540D02*
X23125500Y-97446969D01*
X23125500Y-97446969D02*
X22506453Y-97446969D01*
D11*
%TO.C,DS10*%
X92395343Y-58075850D02*
X92593781Y-58075850D01*
X92593781Y-58671164D02*
X94181285Y-58671164D01*
X92593781Y-57480536D02*
X92593781Y-58671164D01*
X92990657Y-58671164D02*
X92990657Y-57480536D01*
X94181285Y-58671164D02*
X94181285Y-57480536D01*
X94181285Y-58075850D02*
X94379723Y-58075850D01*
X94181285Y-57480536D02*
X92593781Y-57480536D01*
%TO.C,DI7*%
X61795343Y-36175850D02*
X61993781Y-36175850D01*
X61993781Y-36771164D02*
X63581285Y-36771164D01*
X61993781Y-35580536D02*
X61993781Y-36771164D01*
X62390657Y-36771164D02*
X62390657Y-35580536D01*
X63581285Y-36771164D02*
X63581285Y-35580536D01*
X63581285Y-36175850D02*
X63779723Y-36175850D01*
X63581285Y-35580536D02*
X61993781Y-35580536D01*
%TO.C,D37*%
X67145343Y-64925850D02*
X67343781Y-64925850D01*
X67343781Y-65521164D02*
X68931285Y-65521164D01*
X67343781Y-64330536D02*
X67343781Y-65521164D01*
X67740657Y-65521164D02*
X67740657Y-64330536D01*
X68931285Y-65521164D02*
X68931285Y-64330536D01*
X68931285Y-64925850D02*
X69129723Y-64925850D01*
X68931285Y-64330536D02*
X67343781Y-64330536D01*
%TO.C,DS8*%
X69945343Y-45825850D02*
X70143781Y-45825850D01*
X70143781Y-46421164D02*
X71731285Y-46421164D01*
X70143781Y-45230536D02*
X70143781Y-46421164D01*
X70540657Y-46421164D02*
X70540657Y-45230536D01*
X71731285Y-46421164D02*
X71731285Y-45230536D01*
X71731285Y-45825850D02*
X71929723Y-45825850D01*
X71731285Y-45230536D02*
X70143781Y-45230536D01*
%TO.C,D32*%
X67145343Y-61425850D02*
X67343781Y-61425850D01*
X67343781Y-62021164D02*
X68931285Y-62021164D01*
X67343781Y-60830536D02*
X67343781Y-62021164D01*
X67740657Y-62021164D02*
X67740657Y-60830536D01*
X68931285Y-62021164D02*
X68931285Y-60830536D01*
X68931285Y-61425850D02*
X69129723Y-61425850D01*
X68931285Y-60830536D02*
X67343781Y-60830536D01*
%TO.C,D49*%
X104745343Y-53325850D02*
X104943781Y-53325850D01*
X104943781Y-53921164D02*
X106531285Y-53921164D01*
X104943781Y-52730536D02*
X104943781Y-53921164D01*
X105340657Y-53921164D02*
X105340657Y-52730536D01*
X106531285Y-53921164D02*
X106531285Y-52730536D01*
X106531285Y-53325850D02*
X106729723Y-53325850D01*
X106531285Y-52730536D02*
X104943781Y-52730536D01*
%TO.C,D36*%
X73345343Y-44425850D02*
X73543781Y-44425850D01*
X73543781Y-45021164D02*
X75131285Y-45021164D01*
X73543781Y-43830536D02*
X73543781Y-45021164D01*
X73940657Y-45021164D02*
X73940657Y-43830536D01*
X75131285Y-45021164D02*
X75131285Y-43830536D01*
X75131285Y-44425850D02*
X75329723Y-44425850D01*
X75131285Y-43830536D02*
X73543781Y-43830536D01*
%TO.C,D31*%
X57879657Y-36175850D02*
X57681219Y-36175850D01*
X57681219Y-35580536D02*
X56093715Y-35580536D01*
X57681219Y-36771164D02*
X57681219Y-35580536D01*
X57284343Y-35580536D02*
X57284343Y-36771164D01*
X56093715Y-35580536D02*
X56093715Y-36771164D01*
X56093715Y-36175850D02*
X55895277Y-36175850D01*
X56093715Y-36771164D02*
X57681219Y-36771164D01*
%TO.C,DI9*%
X61795343Y-39557150D02*
X61993781Y-39557150D01*
X61993781Y-40152464D02*
X63581285Y-40152464D01*
X61993781Y-38961836D02*
X61993781Y-40152464D01*
X62390657Y-40152464D02*
X62390657Y-38961836D01*
X63581285Y-40152464D02*
X63581285Y-38961836D01*
X63581285Y-39557150D02*
X63779723Y-39557150D01*
X63581285Y-38961836D02*
X61993781Y-38961836D01*
%TO.C,D47*%
X61768743Y-34475850D02*
X61967181Y-34475850D01*
X61967181Y-35071164D02*
X63554685Y-35071164D01*
X61967181Y-33880536D02*
X61967181Y-35071164D01*
X62364057Y-35071164D02*
X62364057Y-33880536D01*
X63554685Y-35071164D02*
X63554685Y-33880536D01*
X63554685Y-34475850D02*
X63753123Y-34475850D01*
X63554685Y-33880536D02*
X61967181Y-33880536D01*
%TO.C,D51*%
X108745343Y-83925850D02*
X108943781Y-83925850D01*
X108943781Y-84521164D02*
X110531285Y-84521164D01*
X108943781Y-83330536D02*
X108943781Y-84521164D01*
X109340657Y-84521164D02*
X109340657Y-83330536D01*
X110531285Y-84521164D02*
X110531285Y-83330536D01*
X110531285Y-83925850D02*
X110729723Y-83925850D01*
X110531285Y-83330536D02*
X108943781Y-83330536D01*
%TO.C,D41*%
X94579657Y-44025850D02*
X94381219Y-44025850D01*
X94381219Y-43430536D02*
X92793715Y-43430536D01*
X94381219Y-44621164D02*
X94381219Y-43430536D01*
X93984343Y-43430536D02*
X93984343Y-44621164D01*
X92793715Y-43430536D02*
X92793715Y-44621164D01*
X92793715Y-44025850D02*
X92595277Y-44025850D01*
X92793715Y-44621164D02*
X94381219Y-44621164D01*
%TO.C,DS7*%
X75745343Y-35325850D02*
X75943781Y-35325850D01*
X75943781Y-35921164D02*
X77531285Y-35921164D01*
X75943781Y-34730536D02*
X75943781Y-35921164D01*
X76340657Y-35921164D02*
X76340657Y-34730536D01*
X77531285Y-35921164D02*
X77531285Y-34730536D01*
X77531285Y-35325850D02*
X77729723Y-35325850D01*
X77531285Y-34730536D02*
X75943781Y-34730536D01*
%TO.C,D35*%
X73345343Y-42825850D02*
X73543781Y-42825850D01*
X73543781Y-43421164D02*
X75131285Y-43421164D01*
X73543781Y-42230536D02*
X73543781Y-43421164D01*
X73940657Y-43421164D02*
X73940657Y-42230536D01*
X75131285Y-43421164D02*
X75131285Y-42230536D01*
X75131285Y-42825850D02*
X75329723Y-42825850D01*
X75131285Y-42230536D02*
X73543781Y-42230536D01*
%TO.C,DS9*%
X78871843Y-51825850D02*
X79070281Y-51825850D01*
X79070281Y-52421164D02*
X80657785Y-52421164D01*
X79070281Y-51230536D02*
X79070281Y-52421164D01*
X79467157Y-52421164D02*
X79467157Y-51230536D01*
X80657785Y-52421164D02*
X80657785Y-51230536D01*
X80657785Y-51825850D02*
X80856223Y-51825850D01*
X80657785Y-51230536D02*
X79070281Y-51230536D01*
%TO.C,D40*%
X94579657Y-42425850D02*
X94381219Y-42425850D01*
X94381219Y-41830536D02*
X92793715Y-41830536D01*
X94381219Y-43021164D02*
X94381219Y-41830536D01*
X93984343Y-41830536D02*
X93984343Y-43021164D01*
X92793715Y-41830536D02*
X92793715Y-43021164D01*
X92793715Y-42425850D02*
X92595277Y-42425850D01*
X92793715Y-43021164D02*
X94381219Y-43021164D01*
%TO.C,DI10*%
X61795343Y-41175850D02*
X61993781Y-41175850D01*
X61993781Y-41771164D02*
X63581285Y-41771164D01*
X61993781Y-40580536D02*
X61993781Y-41771164D01*
X62390657Y-41771164D02*
X62390657Y-40580536D01*
X63581285Y-41771164D02*
X63581285Y-40580536D01*
X63581285Y-41175850D02*
X63779723Y-41175850D01*
X63581285Y-40580536D02*
X61993781Y-40580536D01*
%TO.C,DI11*%
X61795343Y-42775850D02*
X61993781Y-42775850D01*
X61993781Y-43371164D02*
X63581285Y-43371164D01*
X61993781Y-42180536D02*
X61993781Y-43371164D01*
X62390657Y-43371164D02*
X62390657Y-42180536D01*
X63581285Y-43371164D02*
X63581285Y-42180536D01*
X63581285Y-42775850D02*
X63779723Y-42775850D01*
X63581285Y-42180536D02*
X61993781Y-42180536D01*
%TO.C,D48*%
X104745343Y-51716450D02*
X104943781Y-51716450D01*
X104943781Y-52311764D02*
X106531285Y-52311764D01*
X104943781Y-51121136D02*
X104943781Y-52311764D01*
X105340657Y-52311764D02*
X105340657Y-51121136D01*
X106531285Y-52311764D02*
X106531285Y-51121136D01*
X106531285Y-51716450D02*
X106729723Y-51716450D01*
X106531285Y-51121136D02*
X104943781Y-51121136D01*
%TO.C,D33*%
X67145343Y-63225850D02*
X67343781Y-63225850D01*
X67343781Y-63821164D02*
X68931285Y-63821164D01*
X67343781Y-62630536D02*
X67343781Y-63821164D01*
X67740657Y-63821164D02*
X67740657Y-62630536D01*
X68931285Y-63821164D02*
X68931285Y-62630536D01*
X68931285Y-63225850D02*
X69129723Y-63225850D01*
X68931285Y-62630536D02*
X67343781Y-62630536D01*
%TO.C,D45*%
X98295343Y-44025850D02*
X98493781Y-44025850D01*
X98493781Y-44621164D02*
X100081285Y-44621164D01*
X98493781Y-43430536D02*
X98493781Y-44621164D01*
X98890657Y-44621164D02*
X98890657Y-43430536D01*
X100081285Y-44621164D02*
X100081285Y-43430536D01*
X100081285Y-44025850D02*
X100279723Y-44025850D01*
X100081285Y-43430536D02*
X98493781Y-43430536D01*
%TO.C,D46*%
X98295343Y-58075850D02*
X98493781Y-58075850D01*
X98493781Y-58671164D02*
X100081285Y-58671164D01*
X98493781Y-57480536D02*
X98493781Y-58671164D01*
X98890657Y-58671164D02*
X98890657Y-57480536D01*
X100081285Y-58671164D02*
X100081285Y-57480536D01*
X100081285Y-58075850D02*
X100279723Y-58075850D01*
X100081285Y-57480536D02*
X98493781Y-57480536D01*
%TO.C,D29*%
X61029657Y-59625850D02*
X60831219Y-59625850D01*
X60831219Y-59030536D02*
X59243715Y-59030536D01*
X60831219Y-60221164D02*
X60831219Y-59030536D01*
X60434343Y-59030536D02*
X60434343Y-60221164D01*
X59243715Y-59030536D02*
X59243715Y-60221164D01*
X59243715Y-59625850D02*
X59045277Y-59625850D01*
X59243715Y-60221164D02*
X60831219Y-60221164D01*
%TO.C,D39*%
X77729657Y-33675850D02*
X77531219Y-33675850D01*
X77531219Y-33080536D02*
X75943715Y-33080536D01*
X77531219Y-34271164D02*
X77531219Y-33080536D01*
X77134343Y-33080536D02*
X77134343Y-34271164D01*
X75943715Y-33080536D02*
X75943715Y-34271164D01*
X75943715Y-33675850D02*
X75745277Y-33675850D01*
X75943715Y-34271164D02*
X77531219Y-34271164D01*
%TO.C,D44*%
X98295343Y-42425850D02*
X98493781Y-42425850D01*
X98493781Y-43021164D02*
X100081285Y-43021164D01*
X98493781Y-41830536D02*
X98493781Y-43021164D01*
X98890657Y-43021164D02*
X98890657Y-41830536D01*
X100081285Y-43021164D02*
X100081285Y-41830536D01*
X100081285Y-42425850D02*
X100279723Y-42425850D01*
X100081285Y-41830536D02*
X98493781Y-41830536D01*
%TO.C,D43*%
X57879657Y-34475850D02*
X57681219Y-34475850D01*
X57681219Y-33880536D02*
X56093715Y-33880536D01*
X57681219Y-35071164D02*
X57681219Y-33880536D01*
X57284343Y-33880536D02*
X57284343Y-35071164D01*
X56093715Y-33880536D02*
X56093715Y-35071164D01*
X56093715Y-34475850D02*
X55895277Y-34475850D01*
X56093715Y-35071164D02*
X57681219Y-35071164D01*
%TO.C,D30*%
X61029657Y-61425850D02*
X60831219Y-61425850D01*
X60831219Y-60830536D02*
X59243715Y-60830536D01*
X60831219Y-62021164D02*
X60831219Y-60830536D01*
X60434343Y-60830536D02*
X60434343Y-62021164D01*
X59243715Y-60830536D02*
X59243715Y-62021164D01*
X59243715Y-61425850D02*
X59045277Y-61425850D01*
X59243715Y-62021164D02*
X60831219Y-62021164D01*
%TO.C,DI8*%
X61795343Y-37857150D02*
X61993781Y-37857150D01*
X61993781Y-38452464D02*
X63581285Y-38452464D01*
X61993781Y-37261836D02*
X61993781Y-38452464D01*
X62390657Y-38452464D02*
X62390657Y-37261836D01*
X63581285Y-38452464D02*
X63581285Y-37261836D01*
X63581285Y-37857150D02*
X63779723Y-37857150D01*
X63581285Y-37261836D02*
X61993781Y-37261836D01*
%TO.C,D50*%
X104745343Y-54907150D02*
X104943781Y-54907150D01*
X104943781Y-55502464D02*
X106531285Y-55502464D01*
X104943781Y-54311836D02*
X104943781Y-55502464D01*
X105340657Y-55502464D02*
X105340657Y-54311836D01*
X106531285Y-55502464D02*
X106531285Y-54311836D01*
X106531285Y-54907150D02*
X106729723Y-54907150D01*
X106531285Y-54311836D02*
X104943781Y-54311836D01*
%TO.C,D28*%
X61029657Y-57825850D02*
X60831219Y-57825850D01*
X60831219Y-57230536D02*
X59243715Y-57230536D01*
X60831219Y-58421164D02*
X60831219Y-57230536D01*
X60434343Y-57230536D02*
X60434343Y-58421164D01*
X59243715Y-57230536D02*
X59243715Y-58421164D01*
X59243715Y-57825850D02*
X59045277Y-57825850D01*
X59243715Y-58421164D02*
X60831219Y-58421164D01*
%TO.C,DS11*%
X61795343Y-44375850D02*
X61993781Y-44375850D01*
X61993781Y-44971164D02*
X63581285Y-44971164D01*
X61993781Y-43780536D02*
X61993781Y-44971164D01*
X62390657Y-44971164D02*
X62390657Y-43780536D01*
X63581285Y-44971164D02*
X63581285Y-43780536D01*
X63581285Y-44375850D02*
X63779723Y-44375850D01*
X63581285Y-43780536D02*
X61993781Y-43780536D01*
D12*
%TO.C,SW36*%
X43512500Y-60100850D02*
X44512500Y-59100850D01*
X43512500Y-62750850D02*
X43512500Y-60100850D01*
X43512500Y-62750850D02*
X44512500Y-63750850D01*
X43662500Y-59955850D02*
X43662500Y-62885850D01*
X43762500Y-59875850D02*
X43762500Y-62995850D01*
X43862500Y-59765850D02*
X43862500Y-63095850D01*
X43962500Y-59665850D02*
X43962500Y-63195850D01*
X44112500Y-59505850D02*
X44112500Y-63335850D01*
X44262500Y-59375850D02*
X44262500Y-63495850D01*
X44412500Y-59235850D02*
X44412500Y-63625850D01*
X44512500Y-59100850D02*
X46837500Y-59100850D01*
X44512500Y-63750850D02*
X47087500Y-63750850D01*
X44562500Y-59125850D02*
X44562500Y-63725850D01*
X44712500Y-59125850D02*
X44712500Y-63725850D01*
X44862500Y-59125850D02*
X44862500Y-63725850D01*
X45012500Y-59125850D02*
X45012500Y-63725850D01*
X45162500Y-59125850D02*
X45162500Y-63725850D01*
X45312500Y-59125850D02*
X45312500Y-63725850D01*
X45462500Y-59125850D02*
X45462500Y-63725850D01*
X45612500Y-59125850D02*
X45612500Y-63725850D01*
X45762500Y-59125850D02*
X45762500Y-63725850D01*
X45912500Y-59125850D02*
X45912500Y-63725850D01*
X46062500Y-59125850D02*
X46062500Y-63725850D01*
X46212500Y-59125850D02*
X46212500Y-63725850D01*
X46362500Y-59125850D02*
X46362500Y-63725850D01*
X46512500Y-59125850D02*
X46512500Y-63725850D01*
X46662500Y-59125850D02*
X46662500Y-63725850D01*
X46812500Y-59125850D02*
X46812500Y-63725850D01*
X46962500Y-59215850D02*
X46962500Y-63675850D01*
X47112500Y-59335850D02*
X47112500Y-63725850D01*
X47262500Y-59445850D02*
X47262500Y-63725850D01*
X47412500Y-59565850D02*
X47412500Y-63725850D01*
X47562500Y-59705850D02*
X47562500Y-63825850D01*
X47702500Y-59805850D02*
X47712500Y-63875850D01*
X47812500Y-59895850D02*
X47812500Y-63925850D01*
X47912500Y-59975850D02*
X47912500Y-63975850D01*
X48012500Y-60055850D02*
X48012500Y-64075850D01*
X48112500Y-60125850D02*
X46837500Y-59100850D01*
X48112500Y-60125850D02*
X48112500Y-64275850D01*
X48212500Y-60305850D02*
X48212500Y-64425850D01*
X48262500Y-64925850D02*
X48262500Y-65248963D01*
X48312500Y-60475850D02*
X48312500Y-65375850D01*
X48462500Y-60625850D02*
X48462500Y-65575850D01*
X48612500Y-60775850D02*
X48612500Y-65765850D01*
X48762500Y-60875850D02*
X48762500Y-65845850D01*
X48912500Y-60975850D02*
X48912500Y-65895850D01*
X49062500Y-61075850D02*
X49062500Y-65925850D01*
X49123704Y-65950850D02*
X52087500Y-65950850D01*
X49212500Y-61125850D02*
X49212500Y-65945850D01*
X49362500Y-61225850D02*
X49362500Y-65935850D01*
X49512500Y-61275850D02*
X49512500Y-65875850D01*
X49662500Y-61275850D02*
X49662500Y-65925850D01*
X49812500Y-61285850D02*
X49812500Y-65925850D01*
X49962500Y-61325850D02*
X49962500Y-65875850D01*
X50112500Y-61300850D02*
X52087500Y-61300850D01*
X50112500Y-61325850D02*
X50112500Y-65925850D01*
X50262500Y-61325850D02*
X50262500Y-65925850D01*
X50412500Y-61325850D02*
X50412500Y-65925850D01*
X50562500Y-61325850D02*
X50562500Y-65925850D01*
X50712500Y-61325850D02*
X50712500Y-65925850D01*
X50862500Y-61325850D02*
X50862500Y-65925850D01*
X51012500Y-61325850D02*
X51012500Y-65925850D01*
X51162500Y-61325850D02*
X51162500Y-65925850D01*
X51312500Y-61325850D02*
X51312500Y-65925850D01*
X51462500Y-61325850D02*
X51462500Y-65925850D01*
X51612500Y-61325850D02*
X51612500Y-65925850D01*
D13*
X51612500Y-65770850D02*
X54162500Y-65770850D01*
D12*
X51762500Y-61325850D02*
X51762500Y-65925850D01*
X51912500Y-61325850D02*
X51912500Y-65925850D01*
X52062500Y-61325850D02*
X52062500Y-65925850D01*
X52212500Y-61315850D02*
X52212500Y-65825850D01*
X52362500Y-61355850D02*
X52362500Y-65675850D01*
X52512500Y-61405850D02*
X52512500Y-65525850D01*
X52662500Y-61485850D02*
X52662500Y-65625850D01*
X52812500Y-61625850D02*
X52812500Y-65595850D01*
X52962500Y-61795850D02*
X52962500Y-65475850D01*
X53117500Y-64950850D02*
X53117500Y-62300850D01*
X47087500Y-63750850D02*
G75*
G02*
X48262500Y-64925850I-2J-1175002D01*
G01*
X49123704Y-65950850D02*
G75*
G02*
X48262500Y-65248963I38796J926887D01*
G01*
X50112500Y-61308392D02*
G75*
G02*
X48112500Y-60125850I2J2282546D01*
G01*
X52117500Y-61300850D02*
G75*
G02*
X53117500Y-62300850I1J-999999D01*
G01*
X53117500Y-64950850D02*
G75*
G02*
X52117500Y-65950850I-999999J-1D01*
G01*
%TO.C,SW45*%
X77512500Y-54600850D02*
X78512500Y-53600850D01*
X77512500Y-57250850D02*
X77512500Y-54600850D01*
X77512500Y-57250850D02*
X78512500Y-58250850D01*
X77662500Y-54455850D02*
X77662500Y-57385850D01*
X77762500Y-54375850D02*
X77762500Y-57495850D01*
X77862500Y-54265850D02*
X77862500Y-57595850D01*
X77962500Y-54165850D02*
X77962500Y-57695850D01*
X78112500Y-54005850D02*
X78112500Y-57835850D01*
X78262500Y-53875850D02*
X78262500Y-57995850D01*
X78412500Y-53735850D02*
X78412500Y-58125850D01*
X78512500Y-53600850D02*
X80837500Y-53600850D01*
X78512500Y-58250850D02*
X81087500Y-58250850D01*
X78562500Y-53625850D02*
X78562500Y-58225850D01*
X78712500Y-53625850D02*
X78712500Y-58225850D01*
X78862500Y-53625850D02*
X78862500Y-58225850D01*
X79012500Y-53625850D02*
X79012500Y-58225850D01*
X79162500Y-53625850D02*
X79162500Y-58225850D01*
X79312500Y-53625850D02*
X79312500Y-58225850D01*
X79462500Y-53625850D02*
X79462500Y-58225850D01*
X79612500Y-53625850D02*
X79612500Y-58225850D01*
X79762500Y-53625850D02*
X79762500Y-58225850D01*
X79912500Y-53625850D02*
X79912500Y-58225850D01*
X80062500Y-53625850D02*
X80062500Y-58225850D01*
X80212500Y-53625850D02*
X80212500Y-58225850D01*
X80362500Y-53625850D02*
X80362500Y-58225850D01*
X80512500Y-53625850D02*
X80512500Y-58225850D01*
X80662500Y-53625850D02*
X80662500Y-58225850D01*
X80812500Y-53625850D02*
X80812500Y-58225850D01*
X80962500Y-53715850D02*
X80962500Y-58175850D01*
X81112500Y-53835850D02*
X81112500Y-58225850D01*
X81262500Y-53945850D02*
X81262500Y-58225850D01*
X81412500Y-54065850D02*
X81412500Y-58225850D01*
X81562500Y-54205850D02*
X81562500Y-58325850D01*
X81702500Y-54305850D02*
X81712500Y-58375850D01*
X81812500Y-54395850D02*
X81812500Y-58425850D01*
X81912500Y-54475850D02*
X81912500Y-58475850D01*
X82012500Y-54555850D02*
X82012500Y-58575850D01*
X82112500Y-54625850D02*
X80837500Y-53600850D01*
X82112500Y-54625850D02*
X82112500Y-58775850D01*
X82212500Y-54805850D02*
X82212500Y-58925850D01*
X82262500Y-59425850D02*
X82262500Y-59748963D01*
X82312500Y-54975850D02*
X82312500Y-59875850D01*
X82462500Y-55125850D02*
X82462500Y-60075850D01*
X82612500Y-55275850D02*
X82612500Y-60265850D01*
X82762500Y-55375850D02*
X82762500Y-60345850D01*
X82912500Y-55475850D02*
X82912500Y-60395850D01*
X83062500Y-55575850D02*
X83062500Y-60425850D01*
X83123704Y-60450850D02*
X86087500Y-60450850D01*
X83212500Y-55625850D02*
X83212500Y-60445850D01*
X83362500Y-55725850D02*
X83362500Y-60435850D01*
X83512500Y-55775850D02*
X83512500Y-60375850D01*
X83662500Y-55775850D02*
X83662500Y-60425850D01*
X83812500Y-55785850D02*
X83812500Y-60425850D01*
X83962500Y-55825850D02*
X83962500Y-60375850D01*
X84112500Y-55800850D02*
X86087500Y-55800850D01*
X84112500Y-55825850D02*
X84112500Y-60425850D01*
X84262500Y-55825850D02*
X84262500Y-60425850D01*
X84412500Y-55825850D02*
X84412500Y-60425850D01*
X84562500Y-55825850D02*
X84562500Y-60425850D01*
X84712500Y-55825850D02*
X84712500Y-60425850D01*
X84862500Y-55825850D02*
X84862500Y-60425850D01*
X85012500Y-55825850D02*
X85012500Y-60425850D01*
X85162500Y-55825850D02*
X85162500Y-60425850D01*
X85312500Y-55825850D02*
X85312500Y-60425850D01*
X85462500Y-55825850D02*
X85462500Y-60425850D01*
X85612500Y-55825850D02*
X85612500Y-60425850D01*
D13*
X85612500Y-60270850D02*
X88162500Y-60270850D01*
D12*
X85762500Y-55825850D02*
X85762500Y-60425850D01*
X85912500Y-55825850D02*
X85912500Y-60425850D01*
X86062500Y-55825850D02*
X86062500Y-60425850D01*
X86212500Y-55815850D02*
X86212500Y-60325850D01*
X86362500Y-55855850D02*
X86362500Y-60175850D01*
X86512500Y-55905850D02*
X86512500Y-60025850D01*
X86662500Y-55985850D02*
X86662500Y-60125850D01*
X86812500Y-56125850D02*
X86812500Y-60095850D01*
X86962500Y-56295850D02*
X86962500Y-59975850D01*
X87117500Y-59450850D02*
X87117500Y-56800850D01*
X81087500Y-58250850D02*
G75*
G02*
X82262500Y-59425850I-2J-1175002D01*
G01*
X83123704Y-60450850D02*
G75*
G02*
X82262500Y-59748963I38796J926887D01*
G01*
X84112500Y-55808392D02*
G75*
G02*
X82112500Y-54625850I2J2282546D01*
G01*
X86117500Y-55800850D02*
G75*
G02*
X87117500Y-56800850I1J-999999D01*
G01*
X87117500Y-59450850D02*
G75*
G02*
X86117500Y-60450850I-999999J-1D01*
G01*
%TO.C,SW49*%
X89507500Y-50300850D02*
X89507500Y-52950850D01*
X89662500Y-53455850D02*
X89662500Y-49775850D01*
X89812500Y-53625850D02*
X89812500Y-49655850D01*
X89962500Y-53765850D02*
X89962500Y-49625850D01*
X90112500Y-53845850D02*
X90112500Y-49725850D01*
X90262500Y-53895850D02*
X90262500Y-49575850D01*
X90412500Y-53935850D02*
X90412500Y-49425850D01*
X90562500Y-53925850D02*
X90562500Y-49325850D01*
X90712500Y-53925850D02*
X90712500Y-49325850D01*
X90862500Y-53925850D02*
X90862500Y-49325850D01*
D13*
X91012500Y-49480850D02*
X88462500Y-49480850D01*
D12*
X91012500Y-53925850D02*
X91012500Y-49325850D01*
X91162500Y-53925850D02*
X91162500Y-49325850D01*
X91312500Y-53925850D02*
X91312500Y-49325850D01*
X91462500Y-53925850D02*
X91462500Y-49325850D01*
X91612500Y-53925850D02*
X91612500Y-49325850D01*
X91762500Y-53925850D02*
X91762500Y-49325850D01*
X91912500Y-53925850D02*
X91912500Y-49325850D01*
X92062500Y-53925850D02*
X92062500Y-49325850D01*
X92212500Y-53925850D02*
X92212500Y-49325850D01*
X92362500Y-53925850D02*
X92362500Y-49325850D01*
X92512500Y-53925850D02*
X92512500Y-49325850D01*
X92512500Y-53950850D02*
X90537500Y-53950850D01*
X92662500Y-53925850D02*
X92662500Y-49375850D01*
X92812500Y-53965850D02*
X92812500Y-49325850D01*
X92962500Y-53975850D02*
X92962500Y-49325850D01*
X93112500Y-53975850D02*
X93112500Y-49375850D01*
X93262500Y-54025850D02*
X93262500Y-49315850D01*
X93412500Y-54125850D02*
X93412500Y-49305850D01*
X93501296Y-49300850D02*
X90537500Y-49300850D01*
X93562500Y-54175850D02*
X93562500Y-49325850D01*
X93712500Y-54275850D02*
X93712500Y-49355850D01*
X93862500Y-54375850D02*
X93862500Y-49405850D01*
X94012500Y-54475850D02*
X94012500Y-49485850D01*
X94162500Y-54625850D02*
X94162500Y-49675850D01*
X94312500Y-54775850D02*
X94312500Y-49875850D01*
X94362500Y-50325850D02*
X94362500Y-50002737D01*
X94412500Y-54945850D02*
X94412500Y-50825850D01*
X94512500Y-55125850D02*
X94512500Y-50975850D01*
X94512500Y-55125850D02*
X95787500Y-56150850D01*
X94612500Y-55195850D02*
X94612500Y-51175850D01*
X94712500Y-55275850D02*
X94712500Y-51275850D01*
X94812500Y-55355850D02*
X94812500Y-51325850D01*
X94922500Y-55445850D02*
X94912500Y-51375850D01*
X95062500Y-55545850D02*
X95062500Y-51425850D01*
X95212500Y-55685850D02*
X95212500Y-51525850D01*
X95362500Y-55805850D02*
X95362500Y-51525850D01*
X95512500Y-55915850D02*
X95512500Y-51525850D01*
X95662500Y-56035850D02*
X95662500Y-51575850D01*
X95812500Y-56125850D02*
X95812500Y-51525850D01*
X95962500Y-56125850D02*
X95962500Y-51525850D01*
X96112500Y-56125850D02*
X96112500Y-51525850D01*
X96262500Y-56125850D02*
X96262500Y-51525850D01*
X96412500Y-56125850D02*
X96412500Y-51525850D01*
X96562500Y-56125850D02*
X96562500Y-51525850D01*
X96712500Y-56125850D02*
X96712500Y-51525850D01*
X96862500Y-56125850D02*
X96862500Y-51525850D01*
X97012500Y-56125850D02*
X97012500Y-51525850D01*
X97162500Y-56125850D02*
X97162500Y-51525850D01*
X97312500Y-56125850D02*
X97312500Y-51525850D01*
X97462500Y-56125850D02*
X97462500Y-51525850D01*
X97612500Y-56125850D02*
X97612500Y-51525850D01*
X97762500Y-56125850D02*
X97762500Y-51525850D01*
X97912500Y-56125850D02*
X97912500Y-51525850D01*
X98062500Y-56125850D02*
X98062500Y-51525850D01*
X98112500Y-51500850D02*
X95537500Y-51500850D01*
X98112500Y-56150850D02*
X95787500Y-56150850D01*
X98212500Y-56015850D02*
X98212500Y-51625850D01*
X98362500Y-55875850D02*
X98362500Y-51755850D01*
X98512500Y-55745850D02*
X98512500Y-51915850D01*
X98662500Y-55585850D02*
X98662500Y-52055850D01*
X98762500Y-55485850D02*
X98762500Y-52155850D01*
X98862500Y-55375850D02*
X98862500Y-52255850D01*
X98962500Y-55295850D02*
X98962500Y-52365850D01*
X99112500Y-52500850D02*
X98112500Y-51500850D01*
X99112500Y-52500850D02*
X99112500Y-55150850D01*
X99112500Y-55150850D02*
X98112500Y-56150850D01*
X89507500Y-50300850D02*
G75*
G02*
X90507500Y-49300850I999999J1D01*
G01*
X90507500Y-53950850D02*
G75*
G02*
X89507500Y-52950850I-1J999999D01*
G01*
X92512500Y-53943308D02*
G75*
G02*
X94512500Y-55125850I-2J-2282546D01*
G01*
X93501296Y-49300850D02*
G75*
G02*
X94362500Y-50002737I-38796J-926887D01*
G01*
X95537500Y-51500850D02*
G75*
G02*
X94362500Y-50325850I2J1175002D01*
G01*
%TO.C,SW33*%
X26512500Y-65900850D02*
X27512500Y-64900850D01*
X26512500Y-68550850D02*
X26512500Y-65900850D01*
X26512500Y-68550850D02*
X27512500Y-69550850D01*
X26662500Y-65755850D02*
X26662500Y-68685850D01*
X26762500Y-65675850D02*
X26762500Y-68795850D01*
X26862500Y-65565850D02*
X26862500Y-68895850D01*
X26962500Y-65465850D02*
X26962500Y-68995850D01*
X27112500Y-65305850D02*
X27112500Y-69135850D01*
X27262500Y-65175850D02*
X27262500Y-69295850D01*
X27412500Y-65035850D02*
X27412500Y-69425850D01*
X27512500Y-64900850D02*
X29837500Y-64900850D01*
X27512500Y-69550850D02*
X30087500Y-69550850D01*
X27562500Y-64925850D02*
X27562500Y-69525850D01*
X27712500Y-64925850D02*
X27712500Y-69525850D01*
X27862500Y-64925850D02*
X27862500Y-69525850D01*
X28012500Y-64925850D02*
X28012500Y-69525850D01*
X28162500Y-64925850D02*
X28162500Y-69525850D01*
X28312500Y-64925850D02*
X28312500Y-69525850D01*
X28462500Y-64925850D02*
X28462500Y-69525850D01*
X28612500Y-64925850D02*
X28612500Y-69525850D01*
X28762500Y-64925850D02*
X28762500Y-69525850D01*
X28912500Y-64925850D02*
X28912500Y-69525850D01*
X29062500Y-64925850D02*
X29062500Y-69525850D01*
X29212500Y-64925850D02*
X29212500Y-69525850D01*
X29362500Y-64925850D02*
X29362500Y-69525850D01*
X29512500Y-64925850D02*
X29512500Y-69525850D01*
X29662500Y-64925850D02*
X29662500Y-69525850D01*
X29812500Y-64925850D02*
X29812500Y-69525850D01*
X29962500Y-65015850D02*
X29962500Y-69475850D01*
X30112500Y-65135850D02*
X30112500Y-69525850D01*
X30262500Y-65245850D02*
X30262500Y-69525850D01*
X30412500Y-65365850D02*
X30412500Y-69525850D01*
X30562500Y-65505850D02*
X30562500Y-69625850D01*
X30702500Y-65605850D02*
X30712500Y-69675850D01*
X30812500Y-65695850D02*
X30812500Y-69725850D01*
X30912500Y-65775850D02*
X30912500Y-69775850D01*
X31012500Y-65855850D02*
X31012500Y-69875850D01*
X31112500Y-65925850D02*
X29837500Y-64900850D01*
X31112500Y-65925850D02*
X31112500Y-70075850D01*
X31212500Y-66105850D02*
X31212500Y-70225850D01*
X31262500Y-70725850D02*
X31262500Y-71048963D01*
X31312500Y-66275850D02*
X31312500Y-71175850D01*
X31462500Y-66425850D02*
X31462500Y-71375850D01*
X31612500Y-66575850D02*
X31612500Y-71565850D01*
X31762500Y-66675850D02*
X31762500Y-71645850D01*
X31912500Y-66775850D02*
X31912500Y-71695850D01*
X32062500Y-66875850D02*
X32062500Y-71725850D01*
X32123704Y-71750850D02*
X35087500Y-71750850D01*
X32212500Y-66925850D02*
X32212500Y-71745850D01*
X32362500Y-67025850D02*
X32362500Y-71735850D01*
X32512500Y-67075850D02*
X32512500Y-71675850D01*
X32662500Y-67075850D02*
X32662500Y-71725850D01*
X32812500Y-67085850D02*
X32812500Y-71725850D01*
X32962500Y-67125850D02*
X32962500Y-71675850D01*
X33112500Y-67100850D02*
X35087500Y-67100850D01*
X33112500Y-67125850D02*
X33112500Y-71725850D01*
X33262500Y-67125850D02*
X33262500Y-71725850D01*
X33412500Y-67125850D02*
X33412500Y-71725850D01*
X33562500Y-67125850D02*
X33562500Y-71725850D01*
X33712500Y-67125850D02*
X33712500Y-71725850D01*
X33862500Y-67125850D02*
X33862500Y-71725850D01*
X34012500Y-67125850D02*
X34012500Y-71725850D01*
X34162500Y-67125850D02*
X34162500Y-71725850D01*
X34312500Y-67125850D02*
X34312500Y-71725850D01*
X34462500Y-67125850D02*
X34462500Y-71725850D01*
X34612500Y-67125850D02*
X34612500Y-71725850D01*
D13*
X34612500Y-71570850D02*
X37162500Y-71570850D01*
D12*
X34762500Y-67125850D02*
X34762500Y-71725850D01*
X34912500Y-67125850D02*
X34912500Y-71725850D01*
X35062500Y-67125850D02*
X35062500Y-71725850D01*
X35212500Y-67115850D02*
X35212500Y-71625850D01*
X35362500Y-67155850D02*
X35362500Y-71475850D01*
X35512500Y-67205850D02*
X35512500Y-71325850D01*
X35662500Y-67285850D02*
X35662500Y-71425850D01*
X35812500Y-67425850D02*
X35812500Y-71395850D01*
X35962500Y-67595850D02*
X35962500Y-71275850D01*
X36117500Y-70750850D02*
X36117500Y-68100850D01*
X30087500Y-69550850D02*
G75*
G02*
X31262500Y-70725850I-2J-1175002D01*
G01*
X32123704Y-71750850D02*
G75*
G02*
X31262500Y-71048963I38796J926887D01*
G01*
X33112500Y-67108392D02*
G75*
G02*
X31112500Y-65925850I2J2282546D01*
G01*
X35117500Y-67100850D02*
G75*
G02*
X36117500Y-68100850I1J-999999D01*
G01*
X36117500Y-70750850D02*
G75*
G02*
X35117500Y-71750850I-999999J-1D01*
G01*
%TO.C,SW44*%
X77512500Y-37600850D02*
X78512500Y-36600850D01*
X77512500Y-40250850D02*
X77512500Y-37600850D01*
X77512500Y-40250850D02*
X78512500Y-41250850D01*
X77662500Y-37455850D02*
X77662500Y-40385850D01*
X77762500Y-37375850D02*
X77762500Y-40495850D01*
X77862500Y-37265850D02*
X77862500Y-40595850D01*
X77962500Y-37165850D02*
X77962500Y-40695850D01*
X78112500Y-37005850D02*
X78112500Y-40835850D01*
X78262500Y-36875850D02*
X78262500Y-40995850D01*
X78412500Y-36735850D02*
X78412500Y-41125850D01*
X78512500Y-36600850D02*
X80837500Y-36600850D01*
X78512500Y-41250850D02*
X81087500Y-41250850D01*
X78562500Y-36625850D02*
X78562500Y-41225850D01*
X78712500Y-36625850D02*
X78712500Y-41225850D01*
X78862500Y-36625850D02*
X78862500Y-41225850D01*
X79012500Y-36625850D02*
X79012500Y-41225850D01*
X79162500Y-36625850D02*
X79162500Y-41225850D01*
X79312500Y-36625850D02*
X79312500Y-41225850D01*
X79462500Y-36625850D02*
X79462500Y-41225850D01*
X79612500Y-36625850D02*
X79612500Y-41225850D01*
X79762500Y-36625850D02*
X79762500Y-41225850D01*
X79912500Y-36625850D02*
X79912500Y-41225850D01*
X80062500Y-36625850D02*
X80062500Y-41225850D01*
X80212500Y-36625850D02*
X80212500Y-41225850D01*
X80362500Y-36625850D02*
X80362500Y-41225850D01*
X80512500Y-36625850D02*
X80512500Y-41225850D01*
X80662500Y-36625850D02*
X80662500Y-41225850D01*
X80812500Y-36625850D02*
X80812500Y-41225850D01*
X80962500Y-36715850D02*
X80962500Y-41175850D01*
X81112500Y-36835850D02*
X81112500Y-41225850D01*
X81262500Y-36945850D02*
X81262500Y-41225850D01*
X81412500Y-37065850D02*
X81412500Y-41225850D01*
X81562500Y-37205850D02*
X81562500Y-41325850D01*
X81702500Y-37305850D02*
X81712500Y-41375850D01*
X81812500Y-37395850D02*
X81812500Y-41425850D01*
X81912500Y-37475850D02*
X81912500Y-41475850D01*
X82012500Y-37555850D02*
X82012500Y-41575850D01*
X82112500Y-37625850D02*
X80837500Y-36600850D01*
X82112500Y-37625850D02*
X82112500Y-41775850D01*
X82212500Y-37805850D02*
X82212500Y-41925850D01*
X82262500Y-42425850D02*
X82262500Y-42748963D01*
X82312500Y-37975850D02*
X82312500Y-42875850D01*
X82462500Y-38125850D02*
X82462500Y-43075850D01*
X82612500Y-38275850D02*
X82612500Y-43265850D01*
X82762500Y-38375850D02*
X82762500Y-43345850D01*
X82912500Y-38475850D02*
X82912500Y-43395850D01*
X83062500Y-38575850D02*
X83062500Y-43425850D01*
X83123704Y-43450850D02*
X86087500Y-43450850D01*
X83212500Y-38625850D02*
X83212500Y-43445850D01*
X83362500Y-38725850D02*
X83362500Y-43435850D01*
X83512500Y-38775850D02*
X83512500Y-43375850D01*
X83662500Y-38775850D02*
X83662500Y-43425850D01*
X83812500Y-38785850D02*
X83812500Y-43425850D01*
X83962500Y-38825850D02*
X83962500Y-43375850D01*
X84112500Y-38800850D02*
X86087500Y-38800850D01*
X84112500Y-38825850D02*
X84112500Y-43425850D01*
X84262500Y-38825850D02*
X84262500Y-43425850D01*
X84412500Y-38825850D02*
X84412500Y-43425850D01*
X84562500Y-38825850D02*
X84562500Y-43425850D01*
X84712500Y-38825850D02*
X84712500Y-43425850D01*
X84862500Y-38825850D02*
X84862500Y-43425850D01*
X85012500Y-38825850D02*
X85012500Y-43425850D01*
X85162500Y-38825850D02*
X85162500Y-43425850D01*
X85312500Y-38825850D02*
X85312500Y-43425850D01*
X85462500Y-38825850D02*
X85462500Y-43425850D01*
X85612500Y-38825850D02*
X85612500Y-43425850D01*
D13*
X85612500Y-43270850D02*
X88162500Y-43270850D01*
D12*
X85762500Y-38825850D02*
X85762500Y-43425850D01*
X85912500Y-38825850D02*
X85912500Y-43425850D01*
X86062500Y-38825850D02*
X86062500Y-43425850D01*
X86212500Y-38815850D02*
X86212500Y-43325850D01*
X86362500Y-38855850D02*
X86362500Y-43175850D01*
X86512500Y-38905850D02*
X86512500Y-43025850D01*
X86662500Y-38985850D02*
X86662500Y-43125850D01*
X86812500Y-39125850D02*
X86812500Y-43095850D01*
X86962500Y-39295850D02*
X86962500Y-42975850D01*
X87117500Y-42450850D02*
X87117500Y-39800850D01*
X81087500Y-41250850D02*
G75*
G02*
X82262500Y-42425850I-2J-1175002D01*
G01*
X83123704Y-43450850D02*
G75*
G02*
X82262500Y-42748963I38796J926887D01*
G01*
X84112500Y-38808392D02*
G75*
G02*
X82112500Y-37625850I2J2282546D01*
G01*
X86117500Y-38800850D02*
G75*
G02*
X87117500Y-39800850I1J-999999D01*
G01*
X87117500Y-42450850D02*
G75*
G02*
X86117500Y-43450850I-999999J-1D01*
G01*
%TO.C,SW40*%
X55507500Y-50300850D02*
X55507500Y-52950850D01*
X55662500Y-53455850D02*
X55662500Y-49775850D01*
X55812500Y-53625850D02*
X55812500Y-49655850D01*
X55962500Y-53765850D02*
X55962500Y-49625850D01*
X56112500Y-53845850D02*
X56112500Y-49725850D01*
X56262500Y-53895850D02*
X56262500Y-49575850D01*
X56412500Y-53935850D02*
X56412500Y-49425850D01*
X56562500Y-53925850D02*
X56562500Y-49325850D01*
X56712500Y-53925850D02*
X56712500Y-49325850D01*
X56862500Y-53925850D02*
X56862500Y-49325850D01*
D13*
X57012500Y-49480850D02*
X54462500Y-49480850D01*
D12*
X57012500Y-53925850D02*
X57012500Y-49325850D01*
X57162500Y-53925850D02*
X57162500Y-49325850D01*
X57312500Y-53925850D02*
X57312500Y-49325850D01*
X57462500Y-53925850D02*
X57462500Y-49325850D01*
X57612500Y-53925850D02*
X57612500Y-49325850D01*
X57762500Y-53925850D02*
X57762500Y-49325850D01*
X57912500Y-53925850D02*
X57912500Y-49325850D01*
X58062500Y-53925850D02*
X58062500Y-49325850D01*
X58212500Y-53925850D02*
X58212500Y-49325850D01*
X58362500Y-53925850D02*
X58362500Y-49325850D01*
X58512500Y-53925850D02*
X58512500Y-49325850D01*
X58512500Y-53950850D02*
X56537500Y-53950850D01*
X58662500Y-53925850D02*
X58662500Y-49375850D01*
X58812500Y-53965850D02*
X58812500Y-49325850D01*
X58962500Y-53975850D02*
X58962500Y-49325850D01*
X59112500Y-53975850D02*
X59112500Y-49375850D01*
X59262500Y-54025850D02*
X59262500Y-49315850D01*
X59412500Y-54125850D02*
X59412500Y-49305850D01*
X59501296Y-49300850D02*
X56537500Y-49300850D01*
X59562500Y-54175850D02*
X59562500Y-49325850D01*
X59712500Y-54275850D02*
X59712500Y-49355850D01*
X59862500Y-54375850D02*
X59862500Y-49405850D01*
X60012500Y-54475850D02*
X60012500Y-49485850D01*
X60162500Y-54625850D02*
X60162500Y-49675850D01*
X60312500Y-54775850D02*
X60312500Y-49875850D01*
X60362500Y-50325850D02*
X60362500Y-50002737D01*
X60412500Y-54945850D02*
X60412500Y-50825850D01*
X60512500Y-55125850D02*
X60512500Y-50975850D01*
X60512500Y-55125850D02*
X61787500Y-56150850D01*
X60612500Y-55195850D02*
X60612500Y-51175850D01*
X60712500Y-55275850D02*
X60712500Y-51275850D01*
X60812500Y-55355850D02*
X60812500Y-51325850D01*
X60922500Y-55445850D02*
X60912500Y-51375850D01*
X61062500Y-55545850D02*
X61062500Y-51425850D01*
X61212500Y-55685850D02*
X61212500Y-51525850D01*
X61362500Y-55805850D02*
X61362500Y-51525850D01*
X61512500Y-55915850D02*
X61512500Y-51525850D01*
X61662500Y-56035850D02*
X61662500Y-51575850D01*
X61812500Y-56125850D02*
X61812500Y-51525850D01*
X61962500Y-56125850D02*
X61962500Y-51525850D01*
X62112500Y-56125850D02*
X62112500Y-51525850D01*
X62262500Y-56125850D02*
X62262500Y-51525850D01*
X62412500Y-56125850D02*
X62412500Y-51525850D01*
X62562500Y-56125850D02*
X62562500Y-51525850D01*
X62712500Y-56125850D02*
X62712500Y-51525850D01*
X62862500Y-56125850D02*
X62862500Y-51525850D01*
X63012500Y-56125850D02*
X63012500Y-51525850D01*
X63162500Y-56125850D02*
X63162500Y-51525850D01*
X63312500Y-56125850D02*
X63312500Y-51525850D01*
X63462500Y-56125850D02*
X63462500Y-51525850D01*
X63612500Y-56125850D02*
X63612500Y-51525850D01*
X63762500Y-56125850D02*
X63762500Y-51525850D01*
X63912500Y-56125850D02*
X63912500Y-51525850D01*
X64062500Y-56125850D02*
X64062500Y-51525850D01*
X64112500Y-51500850D02*
X61537500Y-51500850D01*
X64112500Y-56150850D02*
X61787500Y-56150850D01*
X64212500Y-56015850D02*
X64212500Y-51625850D01*
X64362500Y-55875850D02*
X64362500Y-51755850D01*
X64512500Y-55745850D02*
X64512500Y-51915850D01*
X64662500Y-55585850D02*
X64662500Y-52055850D01*
X64762500Y-55485850D02*
X64762500Y-52155850D01*
X64862500Y-55375850D02*
X64862500Y-52255850D01*
X64962500Y-55295850D02*
X64962500Y-52365850D01*
X65112500Y-52500850D02*
X64112500Y-51500850D01*
X65112500Y-52500850D02*
X65112500Y-55150850D01*
X65112500Y-55150850D02*
X64112500Y-56150850D01*
X55507500Y-50300850D02*
G75*
G02*
X56507500Y-49300850I999999J1D01*
G01*
X56507500Y-53950850D02*
G75*
G02*
X55507500Y-52950850I-1J999999D01*
G01*
X58512500Y-53943308D02*
G75*
G02*
X60512500Y-55125850I-2J-2282546D01*
G01*
X59501296Y-49300850D02*
G75*
G02*
X60362500Y-50002737I-38796J-926887D01*
G01*
X61537500Y-51500850D02*
G75*
G02*
X60362500Y-50325850I2J1175002D01*
G01*
%TO.C,SW43*%
X77512500Y-20600850D02*
X78512500Y-19600850D01*
X77512500Y-23250850D02*
X77512500Y-20600850D01*
X77512500Y-23250850D02*
X78512500Y-24250850D01*
X77662500Y-20455850D02*
X77662500Y-23385850D01*
X77762500Y-20375850D02*
X77762500Y-23495850D01*
X77862500Y-20265850D02*
X77862500Y-23595850D01*
X77962500Y-20165850D02*
X77962500Y-23695850D01*
X78112500Y-20005850D02*
X78112500Y-23835850D01*
X78262500Y-19875850D02*
X78262500Y-23995850D01*
X78412500Y-19735850D02*
X78412500Y-24125850D01*
X78512500Y-19600850D02*
X80837500Y-19600850D01*
X78512500Y-24250850D02*
X81087500Y-24250850D01*
X78562500Y-19625850D02*
X78562500Y-24225850D01*
X78712500Y-19625850D02*
X78712500Y-24225850D01*
X78862500Y-19625850D02*
X78862500Y-24225850D01*
X79012500Y-19625850D02*
X79012500Y-24225850D01*
X79162500Y-19625850D02*
X79162500Y-24225850D01*
X79312500Y-19625850D02*
X79312500Y-24225850D01*
X79462500Y-19625850D02*
X79462500Y-24225850D01*
X79612500Y-19625850D02*
X79612500Y-24225850D01*
X79762500Y-19625850D02*
X79762500Y-24225850D01*
X79912500Y-19625850D02*
X79912500Y-24225850D01*
X80062500Y-19625850D02*
X80062500Y-24225850D01*
X80212500Y-19625850D02*
X80212500Y-24225850D01*
X80362500Y-19625850D02*
X80362500Y-24225850D01*
X80512500Y-19625850D02*
X80512500Y-24225850D01*
X80662500Y-19625850D02*
X80662500Y-24225850D01*
X80812500Y-19625850D02*
X80812500Y-24225850D01*
X80962500Y-19715850D02*
X80962500Y-24175850D01*
X81112500Y-19835850D02*
X81112500Y-24225850D01*
X81262500Y-19945850D02*
X81262500Y-24225850D01*
X81412500Y-20065850D02*
X81412500Y-24225850D01*
X81562500Y-20205850D02*
X81562500Y-24325850D01*
X81702500Y-20305850D02*
X81712500Y-24375850D01*
X81812500Y-20395850D02*
X81812500Y-24425850D01*
X81912500Y-20475850D02*
X81912500Y-24475850D01*
X82012500Y-20555850D02*
X82012500Y-24575850D01*
X82112500Y-20625850D02*
X80837500Y-19600850D01*
X82112500Y-20625850D02*
X82112500Y-24775850D01*
X82212500Y-20805850D02*
X82212500Y-24925850D01*
X82262500Y-25425850D02*
X82262500Y-25748963D01*
X82312500Y-20975850D02*
X82312500Y-25875850D01*
X82462500Y-21125850D02*
X82462500Y-26075850D01*
X82612500Y-21275850D02*
X82612500Y-26265850D01*
X82762500Y-21375850D02*
X82762500Y-26345850D01*
X82912500Y-21475850D02*
X82912500Y-26395850D01*
X83062500Y-21575850D02*
X83062500Y-26425850D01*
X83123704Y-26450850D02*
X86087500Y-26450850D01*
X83212500Y-21625850D02*
X83212500Y-26445850D01*
X83362500Y-21725850D02*
X83362500Y-26435850D01*
X83512500Y-21775850D02*
X83512500Y-26375850D01*
X83662500Y-21775850D02*
X83662500Y-26425850D01*
X83812500Y-21785850D02*
X83812500Y-26425850D01*
X83962500Y-21825850D02*
X83962500Y-26375850D01*
X84112500Y-21800850D02*
X86087500Y-21800850D01*
X84112500Y-21825850D02*
X84112500Y-26425850D01*
X84262500Y-21825850D02*
X84262500Y-26425850D01*
X84412500Y-21825850D02*
X84412500Y-26425850D01*
X84562500Y-21825850D02*
X84562500Y-26425850D01*
X84712500Y-21825850D02*
X84712500Y-26425850D01*
X84862500Y-21825850D02*
X84862500Y-26425850D01*
X85012500Y-21825850D02*
X85012500Y-26425850D01*
X85162500Y-21825850D02*
X85162500Y-26425850D01*
X85312500Y-21825850D02*
X85312500Y-26425850D01*
X85462500Y-21825850D02*
X85462500Y-26425850D01*
X85612500Y-21825850D02*
X85612500Y-26425850D01*
D13*
X85612500Y-26270850D02*
X88162500Y-26270850D01*
D12*
X85762500Y-21825850D02*
X85762500Y-26425850D01*
X85912500Y-21825850D02*
X85912500Y-26425850D01*
X86062500Y-21825850D02*
X86062500Y-26425850D01*
X86212500Y-21815850D02*
X86212500Y-26325850D01*
X86362500Y-21855850D02*
X86362500Y-26175850D01*
X86512500Y-21905850D02*
X86512500Y-26025850D01*
X86662500Y-21985850D02*
X86662500Y-26125850D01*
X86812500Y-22125850D02*
X86812500Y-26095850D01*
X86962500Y-22295850D02*
X86962500Y-25975850D01*
X87117500Y-25450850D02*
X87117500Y-22800850D01*
X81087500Y-24250850D02*
G75*
G02*
X82262500Y-25425850I-2J-1175002D01*
G01*
X83123704Y-26450850D02*
G75*
G02*
X82262500Y-25748963I38796J926887D01*
G01*
X84112500Y-21808392D02*
G75*
G02*
X82112500Y-20625850I2J2282546D01*
G01*
X86117500Y-21800850D02*
G75*
G02*
X87117500Y-22800850I1J-999999D01*
G01*
X87117500Y-25450850D02*
G75*
G02*
X86117500Y-26450850I-999999J-1D01*
G01*
%TO.C,SW32*%
X26512500Y-48900850D02*
X27512500Y-47900850D01*
X26512500Y-51550850D02*
X26512500Y-48900850D01*
X26512500Y-51550850D02*
X27512500Y-52550850D01*
X26662500Y-48755850D02*
X26662500Y-51685850D01*
X26762500Y-48675850D02*
X26762500Y-51795850D01*
X26862500Y-48565850D02*
X26862500Y-51895850D01*
X26962500Y-48465850D02*
X26962500Y-51995850D01*
X27112500Y-48305850D02*
X27112500Y-52135850D01*
X27262500Y-48175850D02*
X27262500Y-52295850D01*
X27412500Y-48035850D02*
X27412500Y-52425850D01*
X27512500Y-47900850D02*
X29837500Y-47900850D01*
X27512500Y-52550850D02*
X30087500Y-52550850D01*
X27562500Y-47925850D02*
X27562500Y-52525850D01*
X27712500Y-47925850D02*
X27712500Y-52525850D01*
X27862500Y-47925850D02*
X27862500Y-52525850D01*
X28012500Y-47925850D02*
X28012500Y-52525850D01*
X28162500Y-47925850D02*
X28162500Y-52525850D01*
X28312500Y-47925850D02*
X28312500Y-52525850D01*
X28462500Y-47925850D02*
X28462500Y-52525850D01*
X28612500Y-47925850D02*
X28612500Y-52525850D01*
X28762500Y-47925850D02*
X28762500Y-52525850D01*
X28912500Y-47925850D02*
X28912500Y-52525850D01*
X29062500Y-47925850D02*
X29062500Y-52525850D01*
X29212500Y-47925850D02*
X29212500Y-52525850D01*
X29362500Y-47925850D02*
X29362500Y-52525850D01*
X29512500Y-47925850D02*
X29512500Y-52525850D01*
X29662500Y-47925850D02*
X29662500Y-52525850D01*
X29812500Y-47925850D02*
X29812500Y-52525850D01*
X29962500Y-48015850D02*
X29962500Y-52475850D01*
X30112500Y-48135850D02*
X30112500Y-52525850D01*
X30262500Y-48245850D02*
X30262500Y-52525850D01*
X30412500Y-48365850D02*
X30412500Y-52525850D01*
X30562500Y-48505850D02*
X30562500Y-52625850D01*
X30702500Y-48605850D02*
X30712500Y-52675850D01*
X30812500Y-48695850D02*
X30812500Y-52725850D01*
X30912500Y-48775850D02*
X30912500Y-52775850D01*
X31012500Y-48855850D02*
X31012500Y-52875850D01*
X31112500Y-48925850D02*
X29837500Y-47900850D01*
X31112500Y-48925850D02*
X31112500Y-53075850D01*
X31212500Y-49105850D02*
X31212500Y-53225850D01*
X31262500Y-53725850D02*
X31262500Y-54048963D01*
X31312500Y-49275850D02*
X31312500Y-54175850D01*
X31462500Y-49425850D02*
X31462500Y-54375850D01*
X31612500Y-49575850D02*
X31612500Y-54565850D01*
X31762500Y-49675850D02*
X31762500Y-54645850D01*
X31912500Y-49775850D02*
X31912500Y-54695850D01*
X32062500Y-49875850D02*
X32062500Y-54725850D01*
X32123704Y-54750850D02*
X35087500Y-54750850D01*
X32212500Y-49925850D02*
X32212500Y-54745850D01*
X32362500Y-50025850D02*
X32362500Y-54735850D01*
X32512500Y-50075850D02*
X32512500Y-54675850D01*
X32662500Y-50075850D02*
X32662500Y-54725850D01*
X32812500Y-50085850D02*
X32812500Y-54725850D01*
X32962500Y-50125850D02*
X32962500Y-54675850D01*
X33112500Y-50100850D02*
X35087500Y-50100850D01*
X33112500Y-50125850D02*
X33112500Y-54725850D01*
X33262500Y-50125850D02*
X33262500Y-54725850D01*
X33412500Y-50125850D02*
X33412500Y-54725850D01*
X33562500Y-50125850D02*
X33562500Y-54725850D01*
X33712500Y-50125850D02*
X33712500Y-54725850D01*
X33862500Y-50125850D02*
X33862500Y-54725850D01*
X34012500Y-50125850D02*
X34012500Y-54725850D01*
X34162500Y-50125850D02*
X34162500Y-54725850D01*
X34312500Y-50125850D02*
X34312500Y-54725850D01*
X34462500Y-50125850D02*
X34462500Y-54725850D01*
X34612500Y-50125850D02*
X34612500Y-54725850D01*
D13*
X34612500Y-54570850D02*
X37162500Y-54570850D01*
D12*
X34762500Y-50125850D02*
X34762500Y-54725850D01*
X34912500Y-50125850D02*
X34912500Y-54725850D01*
X35062500Y-50125850D02*
X35062500Y-54725850D01*
X35212500Y-50115850D02*
X35212500Y-54625850D01*
X35362500Y-50155850D02*
X35362500Y-54475850D01*
X35512500Y-50205850D02*
X35512500Y-54325850D01*
X35662500Y-50285850D02*
X35662500Y-54425850D01*
X35812500Y-50425850D02*
X35812500Y-54395850D01*
X35962500Y-50595850D02*
X35962500Y-54275850D01*
X36117500Y-53750850D02*
X36117500Y-51100850D01*
X30087500Y-52550850D02*
G75*
G02*
X31262500Y-53725850I-2J-1175002D01*
G01*
X32123704Y-54750850D02*
G75*
G02*
X31262500Y-54048963I38796J926887D01*
G01*
X33112500Y-50108392D02*
G75*
G02*
X31112500Y-48925850I2J2282546D01*
G01*
X35117500Y-50100850D02*
G75*
G02*
X36117500Y-51100850I1J-999999D01*
G01*
X36117500Y-53750850D02*
G75*
G02*
X35117500Y-54750850I-999999J-1D01*
G01*
%TO.C,SW47*%
X26512500Y-31900850D02*
X27512500Y-30900850D01*
X26512500Y-34550850D02*
X26512500Y-31900850D01*
X26512500Y-34550850D02*
X27512500Y-35550850D01*
X26662500Y-31755850D02*
X26662500Y-34685850D01*
X26762500Y-31675850D02*
X26762500Y-34795850D01*
X26862500Y-31565850D02*
X26862500Y-34895850D01*
X26962500Y-31465850D02*
X26962500Y-34995850D01*
X27112500Y-31305850D02*
X27112500Y-35135850D01*
X27262500Y-31175850D02*
X27262500Y-35295850D01*
X27412500Y-31035850D02*
X27412500Y-35425850D01*
X27512500Y-30900850D02*
X29837500Y-30900850D01*
X27512500Y-35550850D02*
X30087500Y-35550850D01*
X27562500Y-30925850D02*
X27562500Y-35525850D01*
X27712500Y-30925850D02*
X27712500Y-35525850D01*
X27862500Y-30925850D02*
X27862500Y-35525850D01*
X28012500Y-30925850D02*
X28012500Y-35525850D01*
X28162500Y-30925850D02*
X28162500Y-35525850D01*
X28312500Y-30925850D02*
X28312500Y-35525850D01*
X28462500Y-30925850D02*
X28462500Y-35525850D01*
X28612500Y-30925850D02*
X28612500Y-35525850D01*
X28762500Y-30925850D02*
X28762500Y-35525850D01*
X28912500Y-30925850D02*
X28912500Y-35525850D01*
X29062500Y-30925850D02*
X29062500Y-35525850D01*
X29212500Y-30925850D02*
X29212500Y-35525850D01*
X29362500Y-30925850D02*
X29362500Y-35525850D01*
X29512500Y-30925850D02*
X29512500Y-35525850D01*
X29662500Y-30925850D02*
X29662500Y-35525850D01*
X29812500Y-30925850D02*
X29812500Y-35525850D01*
X29962500Y-31015850D02*
X29962500Y-35475850D01*
X30112500Y-31135850D02*
X30112500Y-35525850D01*
X30262500Y-31245850D02*
X30262500Y-35525850D01*
X30412500Y-31365850D02*
X30412500Y-35525850D01*
X30562500Y-31505850D02*
X30562500Y-35625850D01*
X30702500Y-31605850D02*
X30712500Y-35675850D01*
X30812500Y-31695850D02*
X30812500Y-35725850D01*
X30912500Y-31775850D02*
X30912500Y-35775850D01*
X31012500Y-31855850D02*
X31012500Y-35875850D01*
X31112500Y-31925850D02*
X29837500Y-30900850D01*
X31112500Y-31925850D02*
X31112500Y-36075850D01*
X31212500Y-32105850D02*
X31212500Y-36225850D01*
X31262500Y-36725850D02*
X31262500Y-37048963D01*
X31312500Y-32275850D02*
X31312500Y-37175850D01*
X31462500Y-32425850D02*
X31462500Y-37375850D01*
X31612500Y-32575850D02*
X31612500Y-37565850D01*
X31762500Y-32675850D02*
X31762500Y-37645850D01*
X31912500Y-32775850D02*
X31912500Y-37695850D01*
X32062500Y-32875850D02*
X32062500Y-37725850D01*
X32123704Y-37750850D02*
X35087500Y-37750850D01*
X32212500Y-32925850D02*
X32212500Y-37745850D01*
X32362500Y-33025850D02*
X32362500Y-37735850D01*
X32512500Y-33075850D02*
X32512500Y-37675850D01*
X32662500Y-33075850D02*
X32662500Y-37725850D01*
X32812500Y-33085850D02*
X32812500Y-37725850D01*
X32962500Y-33125850D02*
X32962500Y-37675850D01*
X33112500Y-33100850D02*
X35087500Y-33100850D01*
X33112500Y-33125850D02*
X33112500Y-37725850D01*
X33262500Y-33125850D02*
X33262500Y-37725850D01*
X33412500Y-33125850D02*
X33412500Y-37725850D01*
X33562500Y-33125850D02*
X33562500Y-37725850D01*
X33712500Y-33125850D02*
X33712500Y-37725850D01*
X33862500Y-33125850D02*
X33862500Y-37725850D01*
X34012500Y-33125850D02*
X34012500Y-37725850D01*
X34162500Y-33125850D02*
X34162500Y-37725850D01*
X34312500Y-33125850D02*
X34312500Y-37725850D01*
X34462500Y-33125850D02*
X34462500Y-37725850D01*
X34612500Y-33125850D02*
X34612500Y-37725850D01*
D13*
X34612500Y-37570850D02*
X37162500Y-37570850D01*
D12*
X34762500Y-33125850D02*
X34762500Y-37725850D01*
X34912500Y-33125850D02*
X34912500Y-37725850D01*
X35062500Y-33125850D02*
X35062500Y-37725850D01*
X35212500Y-33115850D02*
X35212500Y-37625850D01*
X35362500Y-33155850D02*
X35362500Y-37475850D01*
X35512500Y-33205850D02*
X35512500Y-37325850D01*
X35662500Y-33285850D02*
X35662500Y-37425850D01*
X35812500Y-33425850D02*
X35812500Y-37395850D01*
X35962500Y-33595850D02*
X35962500Y-37275850D01*
X36117500Y-36750850D02*
X36117500Y-34100850D01*
X30087500Y-35550850D02*
G75*
G02*
X31262500Y-36725850I-2J-1175002D01*
G01*
X32123704Y-37750850D02*
G75*
G02*
X31262500Y-37048963I38796J926887D01*
G01*
X33112500Y-33108392D02*
G75*
G02*
X31112500Y-31925850I2J2282546D01*
G01*
X35117500Y-33100850D02*
G75*
G02*
X36117500Y-34100850I1J-999999D01*
G01*
X36117500Y-36750850D02*
G75*
G02*
X35117500Y-37750850I-999999J-1D01*
G01*
%TO.C,SW52*%
X106507500Y-41500850D02*
X106507500Y-44150850D01*
X106662500Y-44655850D02*
X106662500Y-40975850D01*
X106812500Y-44825850D02*
X106812500Y-40855850D01*
X106962500Y-44965850D02*
X106962500Y-40825850D01*
X107112500Y-45045850D02*
X107112500Y-40925850D01*
X107262500Y-45095850D02*
X107262500Y-40775850D01*
X107412500Y-45135850D02*
X107412500Y-40625850D01*
X107562500Y-45125850D02*
X107562500Y-40525850D01*
X107712500Y-45125850D02*
X107712500Y-40525850D01*
X107862500Y-45125850D02*
X107862500Y-40525850D01*
D13*
X108012500Y-40680850D02*
X105462500Y-40680850D01*
D12*
X108012500Y-45125850D02*
X108012500Y-40525850D01*
X108162500Y-45125850D02*
X108162500Y-40525850D01*
X108312500Y-45125850D02*
X108312500Y-40525850D01*
X108462500Y-45125850D02*
X108462500Y-40525850D01*
X108612500Y-45125850D02*
X108612500Y-40525850D01*
X108762500Y-45125850D02*
X108762500Y-40525850D01*
X108912500Y-45125850D02*
X108912500Y-40525850D01*
X109062500Y-45125850D02*
X109062500Y-40525850D01*
X109212500Y-45125850D02*
X109212500Y-40525850D01*
X109362500Y-45125850D02*
X109362500Y-40525850D01*
X109512500Y-45125850D02*
X109512500Y-40525850D01*
X109512500Y-45150850D02*
X107537500Y-45150850D01*
X109662500Y-45125850D02*
X109662500Y-40575850D01*
X109812500Y-45165850D02*
X109812500Y-40525850D01*
X109962500Y-45175850D02*
X109962500Y-40525850D01*
X110112500Y-45175850D02*
X110112500Y-40575850D01*
X110262500Y-45225850D02*
X110262500Y-40515850D01*
X110412500Y-45325850D02*
X110412500Y-40505850D01*
X110501296Y-40500850D02*
X107537500Y-40500850D01*
X110562500Y-45375850D02*
X110562500Y-40525850D01*
X110712500Y-45475850D02*
X110712500Y-40555850D01*
X110862500Y-45575850D02*
X110862500Y-40605850D01*
X111012500Y-45675850D02*
X111012500Y-40685850D01*
X111162500Y-45825850D02*
X111162500Y-40875850D01*
X111312500Y-45975850D02*
X111312500Y-41075850D01*
X111362500Y-41525850D02*
X111362500Y-41202737D01*
X111412500Y-46145850D02*
X111412500Y-42025850D01*
X111512500Y-46325850D02*
X111512500Y-42175850D01*
X111512500Y-46325850D02*
X112787500Y-47350850D01*
X111612500Y-46395850D02*
X111612500Y-42375850D01*
X111712500Y-46475850D02*
X111712500Y-42475850D01*
X111812500Y-46555850D02*
X111812500Y-42525850D01*
X111922500Y-46645850D02*
X111912500Y-42575850D01*
X112062500Y-46745850D02*
X112062500Y-42625850D01*
X112212500Y-46885850D02*
X112212500Y-42725850D01*
X112362500Y-47005850D02*
X112362500Y-42725850D01*
X112512500Y-47115850D02*
X112512500Y-42725850D01*
X112662500Y-47235850D02*
X112662500Y-42775850D01*
X112812500Y-47325850D02*
X112812500Y-42725850D01*
X112962500Y-47325850D02*
X112962500Y-42725850D01*
X113112500Y-47325850D02*
X113112500Y-42725850D01*
X113262500Y-47325850D02*
X113262500Y-42725850D01*
X113412500Y-47325850D02*
X113412500Y-42725850D01*
X113562500Y-47325850D02*
X113562500Y-42725850D01*
X113712500Y-47325850D02*
X113712500Y-42725850D01*
X113862500Y-47325850D02*
X113862500Y-42725850D01*
X114012500Y-47325850D02*
X114012500Y-42725850D01*
X114162500Y-47325850D02*
X114162500Y-42725850D01*
X114312500Y-47325850D02*
X114312500Y-42725850D01*
X114462500Y-47325850D02*
X114462500Y-42725850D01*
X114612500Y-47325850D02*
X114612500Y-42725850D01*
X114762500Y-47325850D02*
X114762500Y-42725850D01*
X114912500Y-47325850D02*
X114912500Y-42725850D01*
X115062500Y-47325850D02*
X115062500Y-42725850D01*
X115112500Y-42700850D02*
X112537500Y-42700850D01*
X115112500Y-47350850D02*
X112787500Y-47350850D01*
X115212500Y-47215850D02*
X115212500Y-42825850D01*
X115362500Y-47075850D02*
X115362500Y-42955850D01*
X115512500Y-46945850D02*
X115512500Y-43115850D01*
X115662500Y-46785850D02*
X115662500Y-43255850D01*
X115762500Y-46685850D02*
X115762500Y-43355850D01*
X115862500Y-46575850D02*
X115862500Y-43455850D01*
X115962500Y-46495850D02*
X115962500Y-43565850D01*
X116112500Y-43700850D02*
X115112500Y-42700850D01*
X116112500Y-43700850D02*
X116112500Y-46350850D01*
X116112500Y-46350850D02*
X115112500Y-47350850D01*
X106507500Y-41500850D02*
G75*
G02*
X107507500Y-40500850I999999J1D01*
G01*
X107507500Y-45150850D02*
G75*
G02*
X106507500Y-44150850I-1J999999D01*
G01*
X109512500Y-45143308D02*
G75*
G02*
X111512500Y-46325850I-2J-2282546D01*
G01*
X110501296Y-40500850D02*
G75*
G02*
X111362500Y-41202737I-38796J-926887D01*
G01*
X112537500Y-42700850D02*
G75*
G02*
X111362500Y-41525850I2J1175002D01*
G01*
%TO.C,SW51*%
X43512500Y-26075850D02*
X44512500Y-25075850D01*
X43512500Y-28725850D02*
X43512500Y-26075850D01*
X43512500Y-28725850D02*
X44512500Y-29725850D01*
X43662500Y-25930850D02*
X43662500Y-28860850D01*
X43762500Y-25850850D02*
X43762500Y-28970850D01*
X43862500Y-25740850D02*
X43862500Y-29070850D01*
X43962500Y-25640850D02*
X43962500Y-29170850D01*
X44112500Y-25480850D02*
X44112500Y-29310850D01*
X44262500Y-25350850D02*
X44262500Y-29470850D01*
X44412500Y-25210850D02*
X44412500Y-29600850D01*
X44512500Y-25075850D02*
X46837500Y-25075850D01*
X44512500Y-29725850D02*
X47087500Y-29725850D01*
X44562500Y-25100850D02*
X44562500Y-29700850D01*
X44712500Y-25100850D02*
X44712500Y-29700850D01*
X44862500Y-25100850D02*
X44862500Y-29700850D01*
X45012500Y-25100850D02*
X45012500Y-29700850D01*
X45162500Y-25100850D02*
X45162500Y-29700850D01*
X45312500Y-25100850D02*
X45312500Y-29700850D01*
X45462500Y-25100850D02*
X45462500Y-29700850D01*
X45612500Y-25100850D02*
X45612500Y-29700850D01*
X45762500Y-25100850D02*
X45762500Y-29700850D01*
X45912500Y-25100850D02*
X45912500Y-29700850D01*
X46062500Y-25100850D02*
X46062500Y-29700850D01*
X46212500Y-25100850D02*
X46212500Y-29700850D01*
X46362500Y-25100850D02*
X46362500Y-29700850D01*
X46512500Y-25100850D02*
X46512500Y-29700850D01*
X46662500Y-25100850D02*
X46662500Y-29700850D01*
X46812500Y-25100850D02*
X46812500Y-29700850D01*
X46962500Y-25190850D02*
X46962500Y-29650850D01*
X47112500Y-25310850D02*
X47112500Y-29700850D01*
X47262500Y-25420850D02*
X47262500Y-29700850D01*
X47412500Y-25540850D02*
X47412500Y-29700850D01*
X47562500Y-25680850D02*
X47562500Y-29800850D01*
X47702500Y-25780850D02*
X47712500Y-29850850D01*
X47812500Y-25870850D02*
X47812500Y-29900850D01*
X47912500Y-25950850D02*
X47912500Y-29950850D01*
X48012500Y-26030850D02*
X48012500Y-30050850D01*
X48112500Y-26100850D02*
X46837500Y-25075850D01*
X48112500Y-26100850D02*
X48112500Y-30250850D01*
X48212500Y-26280850D02*
X48212500Y-30400850D01*
X48262500Y-30900850D02*
X48262500Y-31223963D01*
X48312500Y-26450850D02*
X48312500Y-31350850D01*
X48462500Y-26600850D02*
X48462500Y-31550850D01*
X48612500Y-26750850D02*
X48612500Y-31740850D01*
X48762500Y-26850850D02*
X48762500Y-31820850D01*
X48912500Y-26950850D02*
X48912500Y-31870850D01*
X49062500Y-27050850D02*
X49062500Y-31900850D01*
X49123704Y-31925850D02*
X52087500Y-31925850D01*
X49212500Y-27100850D02*
X49212500Y-31920850D01*
X49362500Y-27200850D02*
X49362500Y-31910850D01*
X49512500Y-27250850D02*
X49512500Y-31850850D01*
X49662500Y-27250850D02*
X49662500Y-31900850D01*
X49812500Y-27260850D02*
X49812500Y-31900850D01*
X49962500Y-27300850D02*
X49962500Y-31850850D01*
X50112500Y-27275850D02*
X52087500Y-27275850D01*
X50112500Y-27300850D02*
X50112500Y-31900850D01*
X50262500Y-27300850D02*
X50262500Y-31900850D01*
X50412500Y-27300850D02*
X50412500Y-31900850D01*
X50562500Y-27300850D02*
X50562500Y-31900850D01*
X50712500Y-27300850D02*
X50712500Y-31900850D01*
X50862500Y-27300850D02*
X50862500Y-31900850D01*
X51012500Y-27300850D02*
X51012500Y-31900850D01*
X51162500Y-27300850D02*
X51162500Y-31900850D01*
X51312500Y-27300850D02*
X51312500Y-31900850D01*
X51462500Y-27300850D02*
X51462500Y-31900850D01*
X51612500Y-27300850D02*
X51612500Y-31900850D01*
D13*
X51612500Y-31745850D02*
X54162500Y-31745850D01*
D12*
X51762500Y-27300850D02*
X51762500Y-31900850D01*
X51912500Y-27300850D02*
X51912500Y-31900850D01*
X52062500Y-27300850D02*
X52062500Y-31900850D01*
X52212500Y-27290850D02*
X52212500Y-31800850D01*
X52362500Y-27330850D02*
X52362500Y-31650850D01*
X52512500Y-27380850D02*
X52512500Y-31500850D01*
X52662500Y-27460850D02*
X52662500Y-31600850D01*
X52812500Y-27600850D02*
X52812500Y-31570850D01*
X52962500Y-27770850D02*
X52962500Y-31450850D01*
X53117500Y-30925850D02*
X53117500Y-28275850D01*
X47087500Y-29725850D02*
G75*
G02*
X48262500Y-30900850I-2J-1175002D01*
G01*
X49123704Y-31925850D02*
G75*
G02*
X48262500Y-31223963I38796J926887D01*
G01*
X50112500Y-27283392D02*
G75*
G02*
X48112500Y-26100850I2J2282546D01*
G01*
X52117500Y-27275850D02*
G75*
G02*
X53117500Y-28275850I1J-999999D01*
G01*
X53117500Y-30925850D02*
G75*
G02*
X52117500Y-31925850I-999999J-1D01*
G01*
%TO.C,SW53*%
X106507500Y-58500850D02*
X106507500Y-61150850D01*
X106662500Y-61655850D02*
X106662500Y-57975850D01*
X106812500Y-61825850D02*
X106812500Y-57855850D01*
X106962500Y-61965850D02*
X106962500Y-57825850D01*
X107112500Y-62045850D02*
X107112500Y-57925850D01*
X107262500Y-62095850D02*
X107262500Y-57775850D01*
X107412500Y-62135850D02*
X107412500Y-57625850D01*
X107562500Y-62125850D02*
X107562500Y-57525850D01*
X107712500Y-62125850D02*
X107712500Y-57525850D01*
X107862500Y-62125850D02*
X107862500Y-57525850D01*
D13*
X108012500Y-57680850D02*
X105462500Y-57680850D01*
D12*
X108012500Y-62125850D02*
X108012500Y-57525850D01*
X108162500Y-62125850D02*
X108162500Y-57525850D01*
X108312500Y-62125850D02*
X108312500Y-57525850D01*
X108462500Y-62125850D02*
X108462500Y-57525850D01*
X108612500Y-62125850D02*
X108612500Y-57525850D01*
X108762500Y-62125850D02*
X108762500Y-57525850D01*
X108912500Y-62125850D02*
X108912500Y-57525850D01*
X109062500Y-62125850D02*
X109062500Y-57525850D01*
X109212500Y-62125850D02*
X109212500Y-57525850D01*
X109362500Y-62125850D02*
X109362500Y-57525850D01*
X109512500Y-62125850D02*
X109512500Y-57525850D01*
X109512500Y-62150850D02*
X107537500Y-62150850D01*
X109662500Y-62125850D02*
X109662500Y-57575850D01*
X109812500Y-62165850D02*
X109812500Y-57525850D01*
X109962500Y-62175850D02*
X109962500Y-57525850D01*
X110112500Y-62175850D02*
X110112500Y-57575850D01*
X110262500Y-62225850D02*
X110262500Y-57515850D01*
X110412500Y-62325850D02*
X110412500Y-57505850D01*
X110501296Y-57500850D02*
X107537500Y-57500850D01*
X110562500Y-62375850D02*
X110562500Y-57525850D01*
X110712500Y-62475850D02*
X110712500Y-57555850D01*
X110862500Y-62575850D02*
X110862500Y-57605850D01*
X111012500Y-62675850D02*
X111012500Y-57685850D01*
X111162500Y-62825850D02*
X111162500Y-57875850D01*
X111312500Y-62975850D02*
X111312500Y-58075850D01*
X111362500Y-58525850D02*
X111362500Y-58202737D01*
X111412500Y-63145850D02*
X111412500Y-59025850D01*
X111512500Y-63325850D02*
X111512500Y-59175850D01*
X111512500Y-63325850D02*
X112787500Y-64350850D01*
X111612500Y-63395850D02*
X111612500Y-59375850D01*
X111712500Y-63475850D02*
X111712500Y-59475850D01*
X111812500Y-63555850D02*
X111812500Y-59525850D01*
X111922500Y-63645850D02*
X111912500Y-59575850D01*
X112062500Y-63745850D02*
X112062500Y-59625850D01*
X112212500Y-63885850D02*
X112212500Y-59725850D01*
X112362500Y-64005850D02*
X112362500Y-59725850D01*
X112512500Y-64115850D02*
X112512500Y-59725850D01*
X112662500Y-64235850D02*
X112662500Y-59775850D01*
X112812500Y-64325850D02*
X112812500Y-59725850D01*
X112962500Y-64325850D02*
X112962500Y-59725850D01*
X113112500Y-64325850D02*
X113112500Y-59725850D01*
X113262500Y-64325850D02*
X113262500Y-59725850D01*
X113412500Y-64325850D02*
X113412500Y-59725850D01*
X113562500Y-64325850D02*
X113562500Y-59725850D01*
X113712500Y-64325850D02*
X113712500Y-59725850D01*
X113862500Y-64325850D02*
X113862500Y-59725850D01*
X114012500Y-64325850D02*
X114012500Y-59725850D01*
X114162500Y-64325850D02*
X114162500Y-59725850D01*
X114312500Y-64325850D02*
X114312500Y-59725850D01*
X114462500Y-64325850D02*
X114462500Y-59725850D01*
X114612500Y-64325850D02*
X114612500Y-59725850D01*
X114762500Y-64325850D02*
X114762500Y-59725850D01*
X114912500Y-64325850D02*
X114912500Y-59725850D01*
X115062500Y-64325850D02*
X115062500Y-59725850D01*
X115112500Y-59700850D02*
X112537500Y-59700850D01*
X115112500Y-64350850D02*
X112787500Y-64350850D01*
X115212500Y-64215850D02*
X115212500Y-59825850D01*
X115362500Y-64075850D02*
X115362500Y-59955850D01*
X115512500Y-63945850D02*
X115512500Y-60115850D01*
X115662500Y-63785850D02*
X115662500Y-60255850D01*
X115762500Y-63685850D02*
X115762500Y-60355850D01*
X115862500Y-63575850D02*
X115862500Y-60455850D01*
X115962500Y-63495850D02*
X115962500Y-60565850D01*
X116112500Y-60700850D02*
X115112500Y-59700850D01*
X116112500Y-60700850D02*
X116112500Y-63350850D01*
X116112500Y-63350850D02*
X115112500Y-64350850D01*
X106507500Y-58500850D02*
G75*
G02*
X107507500Y-57500850I999999J1D01*
G01*
X107507500Y-62150850D02*
G75*
G02*
X106507500Y-61150850I-1J999999D01*
G01*
X109512500Y-62143308D02*
G75*
G02*
X111512500Y-63325850I-2J-2282546D01*
G01*
X110501296Y-57500850D02*
G75*
G02*
X111362500Y-58202737I-38796J-926887D01*
G01*
X112537500Y-59700850D02*
G75*
G02*
X111362500Y-58525850I2J1175002D01*
G01*
%TO.C,SW37*%
X38462500Y-82225850D02*
X42462500Y-82225850D01*
X38462500Y-82435850D02*
X42362500Y-82425850D01*
X38462500Y-82575850D02*
X42312500Y-82575850D01*
X38462500Y-82725850D02*
X42212500Y-82725850D01*
X38462500Y-82875850D02*
X42212500Y-82875850D01*
X38462500Y-83025850D02*
X42212500Y-83025850D01*
X38462500Y-83175850D02*
X42162500Y-83175850D01*
X38462500Y-83325850D02*
X42212500Y-83325850D01*
X38462500Y-83475850D02*
X42212500Y-83475850D01*
X38462500Y-83625850D02*
X42212500Y-83625850D01*
X38462500Y-83775850D02*
X42212500Y-83775850D01*
X38462500Y-83925850D02*
X42212500Y-83925850D01*
X38462500Y-84075850D02*
X42212500Y-84075850D01*
X38462500Y-84225850D02*
X42212500Y-84225850D01*
X38462500Y-84375850D02*
X42212500Y-84375850D01*
X38462500Y-84525850D02*
X42212500Y-84525850D01*
X38462500Y-84675850D02*
X42212500Y-84675850D01*
X38462500Y-86425850D02*
X38462500Y-82225850D01*
X38512500Y-82325850D02*
X42412500Y-82325850D01*
X38512500Y-84825850D02*
X42212500Y-84825850D01*
X38512500Y-84975850D02*
X42212500Y-84975850D01*
X38512500Y-85125850D02*
X42212500Y-85125850D01*
X38512500Y-85275850D02*
X42212500Y-85275850D01*
X38512500Y-85425850D02*
X42212500Y-85425850D01*
X38512500Y-85575850D02*
X42212500Y-85575850D01*
X38512500Y-85725850D02*
X42112500Y-85725850D01*
X38512500Y-85875850D02*
X41982500Y-85875850D01*
X38512500Y-86025850D02*
X41822500Y-86025850D01*
X38512500Y-86175850D02*
X41682500Y-86175850D01*
X38512500Y-86275850D02*
X41582500Y-86275850D01*
X38512500Y-86375850D02*
X41482500Y-86375850D01*
X38512500Y-86475850D02*
X41372500Y-86475850D01*
X38512500Y-86625850D02*
X38462500Y-86475850D01*
X38542500Y-82125850D02*
X42562500Y-82125850D01*
X38612500Y-82025850D02*
X38451716Y-82225850D01*
X38612500Y-82025850D02*
X42762500Y-82025850D01*
X38792500Y-81925850D02*
X42912500Y-81925850D01*
X38962500Y-81825850D02*
X43862500Y-81825850D01*
X39112500Y-81675850D02*
X44062500Y-81675850D01*
X39262500Y-81525850D02*
X44252500Y-81525850D01*
X39362500Y-81375850D02*
X44332500Y-81375850D01*
X39462500Y-81225850D02*
X44382500Y-81225850D01*
X39562500Y-81075850D02*
X44412500Y-81075850D01*
X39612500Y-80925850D02*
X44432500Y-80925850D01*
X39712500Y-80775850D02*
X44422500Y-80775850D01*
X39762500Y-80475850D02*
X44412500Y-80475850D01*
X39762500Y-80625850D02*
X44362500Y-80625850D01*
X39772500Y-80325850D02*
X44412500Y-80325850D01*
X39787500Y-80025850D02*
X39787500Y-78050850D01*
X39802500Y-77925850D02*
X44312500Y-77925850D01*
X39812500Y-78075850D02*
X44412500Y-78075850D01*
X39812500Y-78225850D02*
X44412500Y-78225850D01*
X39812500Y-78375850D02*
X44412500Y-78375850D01*
X39812500Y-78525850D02*
X44412500Y-78525850D01*
X39812500Y-78675850D02*
X44412500Y-78675850D01*
X39812500Y-78825850D02*
X44412500Y-78825850D01*
X39812500Y-78975850D02*
X44412500Y-78975850D01*
X39812500Y-79125850D02*
X44412500Y-79125850D01*
X39812500Y-79275850D02*
X44412500Y-79275850D01*
X39812500Y-79425850D02*
X44412500Y-79425850D01*
X39812500Y-79575850D02*
X44412500Y-79575850D01*
X39812500Y-79725850D02*
X44412500Y-79725850D01*
X39812500Y-79875850D02*
X44412500Y-79875850D01*
X39812500Y-80025850D02*
X44412500Y-80025850D01*
X39812500Y-80175850D02*
X44362500Y-80175850D01*
X39842500Y-77775850D02*
X44162500Y-77775850D01*
X39892500Y-77625850D02*
X44012500Y-77625850D01*
X39972500Y-77475850D02*
X44112500Y-77475850D01*
X40112500Y-77325850D02*
X44082500Y-77325850D01*
X40282500Y-77175850D02*
X43962500Y-77175850D01*
X41237500Y-86625850D02*
X38587500Y-86625850D01*
X41237500Y-86625850D02*
X42237500Y-85625850D01*
X42237500Y-85625850D02*
X42237500Y-83050850D01*
X43412500Y-81875850D02*
X43735613Y-81875850D01*
X43437500Y-77020850D02*
X40787500Y-77020850D01*
D13*
X44257500Y-78525850D02*
X44257500Y-75975850D01*
D12*
X44437500Y-81014646D02*
X44437500Y-78050850D01*
X39787500Y-78020850D02*
G75*
G02*
X40787500Y-77020850I999999J1D01*
G01*
X39795042Y-80025850D02*
G75*
G02*
X38612500Y-82025850I-2282546J2D01*
G01*
X42237500Y-83050850D02*
G75*
G02*
X43412500Y-81875850I1175002J-2D01*
G01*
X43437500Y-77020850D02*
G75*
G02*
X44437500Y-78020850I1J-999999D01*
G01*
X44437500Y-81014646D02*
G75*
G02*
X43735613Y-81875850I-926887J38796D01*
G01*
%TO.C,SW35*%
X43512500Y-43100850D02*
X44512500Y-42100850D01*
X43512500Y-45750850D02*
X43512500Y-43100850D01*
X43512500Y-45750850D02*
X44512500Y-46750850D01*
X43662500Y-42955850D02*
X43662500Y-45885850D01*
X43762500Y-42875850D02*
X43762500Y-45995850D01*
X43862500Y-42765850D02*
X43862500Y-46095850D01*
X43962500Y-42665850D02*
X43962500Y-46195850D01*
X44112500Y-42505850D02*
X44112500Y-46335850D01*
X44262500Y-42375850D02*
X44262500Y-46495850D01*
X44412500Y-42235850D02*
X44412500Y-46625850D01*
X44512500Y-42100850D02*
X46837500Y-42100850D01*
X44512500Y-46750850D02*
X47087500Y-46750850D01*
X44562500Y-42125850D02*
X44562500Y-46725850D01*
X44712500Y-42125850D02*
X44712500Y-46725850D01*
X44862500Y-42125850D02*
X44862500Y-46725850D01*
X45012500Y-42125850D02*
X45012500Y-46725850D01*
X45162500Y-42125850D02*
X45162500Y-46725850D01*
X45312500Y-42125850D02*
X45312500Y-46725850D01*
X45462500Y-42125850D02*
X45462500Y-46725850D01*
X45612500Y-42125850D02*
X45612500Y-46725850D01*
X45762500Y-42125850D02*
X45762500Y-46725850D01*
X45912500Y-42125850D02*
X45912500Y-46725850D01*
X46062500Y-42125850D02*
X46062500Y-46725850D01*
X46212500Y-42125850D02*
X46212500Y-46725850D01*
X46362500Y-42125850D02*
X46362500Y-46725850D01*
X46512500Y-42125850D02*
X46512500Y-46725850D01*
X46662500Y-42125850D02*
X46662500Y-46725850D01*
X46812500Y-42125850D02*
X46812500Y-46725850D01*
X46962500Y-42215850D02*
X46962500Y-46675850D01*
X47112500Y-42335850D02*
X47112500Y-46725850D01*
X47262500Y-42445850D02*
X47262500Y-46725850D01*
X47412500Y-42565850D02*
X47412500Y-46725850D01*
X47562500Y-42705850D02*
X47562500Y-46825850D01*
X47702500Y-42805850D02*
X47712500Y-46875850D01*
X47812500Y-42895850D02*
X47812500Y-46925850D01*
X47912500Y-42975850D02*
X47912500Y-46975850D01*
X48012500Y-43055850D02*
X48012500Y-47075850D01*
X48112500Y-43125850D02*
X46837500Y-42100850D01*
X48112500Y-43125850D02*
X48112500Y-47275850D01*
X48212500Y-43305850D02*
X48212500Y-47425850D01*
X48262500Y-47925850D02*
X48262500Y-48248963D01*
X48312500Y-43475850D02*
X48312500Y-48375850D01*
X48462500Y-43625850D02*
X48462500Y-48575850D01*
X48612500Y-43775850D02*
X48612500Y-48765850D01*
X48762500Y-43875850D02*
X48762500Y-48845850D01*
X48912500Y-43975850D02*
X48912500Y-48895850D01*
X49062500Y-44075850D02*
X49062500Y-48925850D01*
X49123704Y-48950850D02*
X52087500Y-48950850D01*
X49212500Y-44125850D02*
X49212500Y-48945850D01*
X49362500Y-44225850D02*
X49362500Y-48935850D01*
X49512500Y-44275850D02*
X49512500Y-48875850D01*
X49662500Y-44275850D02*
X49662500Y-48925850D01*
X49812500Y-44285850D02*
X49812500Y-48925850D01*
X49962500Y-44325850D02*
X49962500Y-48875850D01*
X50112500Y-44300850D02*
X52087500Y-44300850D01*
X50112500Y-44325850D02*
X50112500Y-48925850D01*
X50262500Y-44325850D02*
X50262500Y-48925850D01*
X50412500Y-44325850D02*
X50412500Y-48925850D01*
X50562500Y-44325850D02*
X50562500Y-48925850D01*
X50712500Y-44325850D02*
X50712500Y-48925850D01*
X50862500Y-44325850D02*
X50862500Y-48925850D01*
X51012500Y-44325850D02*
X51012500Y-48925850D01*
X51162500Y-44325850D02*
X51162500Y-48925850D01*
X51312500Y-44325850D02*
X51312500Y-48925850D01*
X51462500Y-44325850D02*
X51462500Y-48925850D01*
X51612500Y-44325850D02*
X51612500Y-48925850D01*
D13*
X51612500Y-48770850D02*
X54162500Y-48770850D01*
D12*
X51762500Y-44325850D02*
X51762500Y-48925850D01*
X51912500Y-44325850D02*
X51912500Y-48925850D01*
X52062500Y-44325850D02*
X52062500Y-48925850D01*
X52212500Y-44315850D02*
X52212500Y-48825850D01*
X52362500Y-44355850D02*
X52362500Y-48675850D01*
X52512500Y-44405850D02*
X52512500Y-48525850D01*
X52662500Y-44485850D02*
X52662500Y-48625850D01*
X52812500Y-44625850D02*
X52812500Y-48595850D01*
X52962500Y-44795850D02*
X52962500Y-48475850D01*
X53117500Y-47950850D02*
X53117500Y-45300850D01*
X47087500Y-46750850D02*
G75*
G02*
X48262500Y-47925850I-2J-1175002D01*
G01*
X49123704Y-48950850D02*
G75*
G02*
X48262500Y-48248963I38796J926887D01*
G01*
X50112500Y-44308392D02*
G75*
G02*
X48112500Y-43125850I2J2282546D01*
G01*
X52117500Y-44300850D02*
G75*
G02*
X53117500Y-45300850I1J-999999D01*
G01*
X53117500Y-47950850D02*
G75*
G02*
X52117500Y-48950850I-999999J-1D01*
G01*
%TO.C,SW54*%
X106507500Y-75500850D02*
X106507500Y-78150850D01*
X106662500Y-78655850D02*
X106662500Y-74975850D01*
X106812500Y-78825850D02*
X106812500Y-74855850D01*
X106962500Y-78965850D02*
X106962500Y-74825850D01*
X107112500Y-79045850D02*
X107112500Y-74925850D01*
X107262500Y-79095850D02*
X107262500Y-74775850D01*
X107412500Y-79135850D02*
X107412500Y-74625850D01*
X107562500Y-79125850D02*
X107562500Y-74525850D01*
X107712500Y-79125850D02*
X107712500Y-74525850D01*
X107862500Y-79125850D02*
X107862500Y-74525850D01*
D13*
X108012500Y-74680850D02*
X105462500Y-74680850D01*
D12*
X108012500Y-79125850D02*
X108012500Y-74525850D01*
X108162500Y-79125850D02*
X108162500Y-74525850D01*
X108312500Y-79125850D02*
X108312500Y-74525850D01*
X108462500Y-79125850D02*
X108462500Y-74525850D01*
X108612500Y-79125850D02*
X108612500Y-74525850D01*
X108762500Y-79125850D02*
X108762500Y-74525850D01*
X108912500Y-79125850D02*
X108912500Y-74525850D01*
X109062500Y-79125850D02*
X109062500Y-74525850D01*
X109212500Y-79125850D02*
X109212500Y-74525850D01*
X109362500Y-79125850D02*
X109362500Y-74525850D01*
X109512500Y-79125850D02*
X109512500Y-74525850D01*
X109512500Y-79150850D02*
X107537500Y-79150850D01*
X109662500Y-79125850D02*
X109662500Y-74575850D01*
X109812500Y-79165850D02*
X109812500Y-74525850D01*
X109962500Y-79175850D02*
X109962500Y-74525850D01*
X110112500Y-79175850D02*
X110112500Y-74575850D01*
X110262500Y-79225850D02*
X110262500Y-74515850D01*
X110412500Y-79325850D02*
X110412500Y-74505850D01*
X110501296Y-74500850D02*
X107537500Y-74500850D01*
X110562500Y-79375850D02*
X110562500Y-74525850D01*
X110712500Y-79475850D02*
X110712500Y-74555850D01*
X110862500Y-79575850D02*
X110862500Y-74605850D01*
X111012500Y-79675850D02*
X111012500Y-74685850D01*
X111162500Y-79825850D02*
X111162500Y-74875850D01*
X111312500Y-79975850D02*
X111312500Y-75075850D01*
X111362500Y-75525850D02*
X111362500Y-75202737D01*
X111412500Y-80145850D02*
X111412500Y-76025850D01*
X111512500Y-80325850D02*
X111512500Y-76175850D01*
X111512500Y-80325850D02*
X112787500Y-81350850D01*
X111612500Y-80395850D02*
X111612500Y-76375850D01*
X111712500Y-80475850D02*
X111712500Y-76475850D01*
X111812500Y-80555850D02*
X111812500Y-76525850D01*
X111922500Y-80645850D02*
X111912500Y-76575850D01*
X112062500Y-80745850D02*
X112062500Y-76625850D01*
X112212500Y-80885850D02*
X112212500Y-76725850D01*
X112362500Y-81005850D02*
X112362500Y-76725850D01*
X112512500Y-81115850D02*
X112512500Y-76725850D01*
X112662500Y-81235850D02*
X112662500Y-76775850D01*
X112812500Y-81325850D02*
X112812500Y-76725850D01*
X112962500Y-81325850D02*
X112962500Y-76725850D01*
X113112500Y-81325850D02*
X113112500Y-76725850D01*
X113262500Y-81325850D02*
X113262500Y-76725850D01*
X113412500Y-81325850D02*
X113412500Y-76725850D01*
X113562500Y-81325850D02*
X113562500Y-76725850D01*
X113712500Y-81325850D02*
X113712500Y-76725850D01*
X113862500Y-81325850D02*
X113862500Y-76725850D01*
X114012500Y-81325850D02*
X114012500Y-76725850D01*
X114162500Y-81325850D02*
X114162500Y-76725850D01*
X114312500Y-81325850D02*
X114312500Y-76725850D01*
X114462500Y-81325850D02*
X114462500Y-76725850D01*
X114612500Y-81325850D02*
X114612500Y-76725850D01*
X114762500Y-81325850D02*
X114762500Y-76725850D01*
X114912500Y-81325850D02*
X114912500Y-76725850D01*
X115062500Y-81325850D02*
X115062500Y-76725850D01*
X115112500Y-76700850D02*
X112537500Y-76700850D01*
X115112500Y-81350850D02*
X112787500Y-81350850D01*
X115212500Y-81215850D02*
X115212500Y-76825850D01*
X115362500Y-81075850D02*
X115362500Y-76955850D01*
X115512500Y-80945850D02*
X115512500Y-77115850D01*
X115662500Y-80785850D02*
X115662500Y-77255850D01*
X115762500Y-80685850D02*
X115762500Y-77355850D01*
X115862500Y-80575850D02*
X115862500Y-77455850D01*
X115962500Y-80495850D02*
X115962500Y-77565850D01*
X116112500Y-77700850D02*
X115112500Y-76700850D01*
X116112500Y-77700850D02*
X116112500Y-80350850D01*
X116112500Y-80350850D02*
X115112500Y-81350850D01*
X106507500Y-75500850D02*
G75*
G02*
X107507500Y-74500850I999999J1D01*
G01*
X107507500Y-79150850D02*
G75*
G02*
X106507500Y-78150850I-1J999999D01*
G01*
X109512500Y-79143308D02*
G75*
G02*
X111512500Y-80325850I-2J-2282546D01*
G01*
X110501296Y-74500850D02*
G75*
G02*
X111362500Y-75202737I-38796J-926887D01*
G01*
X112537500Y-76700850D02*
G75*
G02*
X111362500Y-75525850I2J1175002D01*
G01*
%TO.C,SW48*%
X89507500Y-33300850D02*
X89507500Y-35950850D01*
X89662500Y-36455850D02*
X89662500Y-32775850D01*
X89812500Y-36625850D02*
X89812500Y-32655850D01*
X89962500Y-36765850D02*
X89962500Y-32625850D01*
X90112500Y-36845850D02*
X90112500Y-32725850D01*
X90262500Y-36895850D02*
X90262500Y-32575850D01*
X90412500Y-36935850D02*
X90412500Y-32425850D01*
X90562500Y-36925850D02*
X90562500Y-32325850D01*
X90712500Y-36925850D02*
X90712500Y-32325850D01*
X90862500Y-36925850D02*
X90862500Y-32325850D01*
D13*
X91012500Y-32480850D02*
X88462500Y-32480850D01*
D12*
X91012500Y-36925850D02*
X91012500Y-32325850D01*
X91162500Y-36925850D02*
X91162500Y-32325850D01*
X91312500Y-36925850D02*
X91312500Y-32325850D01*
X91462500Y-36925850D02*
X91462500Y-32325850D01*
X91612500Y-36925850D02*
X91612500Y-32325850D01*
X91762500Y-36925850D02*
X91762500Y-32325850D01*
X91912500Y-36925850D02*
X91912500Y-32325850D01*
X92062500Y-36925850D02*
X92062500Y-32325850D01*
X92212500Y-36925850D02*
X92212500Y-32325850D01*
X92362500Y-36925850D02*
X92362500Y-32325850D01*
X92512500Y-36925850D02*
X92512500Y-32325850D01*
X92512500Y-36950850D02*
X90537500Y-36950850D01*
X92662500Y-36925850D02*
X92662500Y-32375850D01*
X92812500Y-36965850D02*
X92812500Y-32325850D01*
X92962500Y-36975850D02*
X92962500Y-32325850D01*
X93112500Y-36975850D02*
X93112500Y-32375850D01*
X93262500Y-37025850D02*
X93262500Y-32315850D01*
X93412500Y-37125850D02*
X93412500Y-32305850D01*
X93501296Y-32300850D02*
X90537500Y-32300850D01*
X93562500Y-37175850D02*
X93562500Y-32325850D01*
X93712500Y-37275850D02*
X93712500Y-32355850D01*
X93862500Y-37375850D02*
X93862500Y-32405850D01*
X94012500Y-37475850D02*
X94012500Y-32485850D01*
X94162500Y-37625850D02*
X94162500Y-32675850D01*
X94312500Y-37775850D02*
X94312500Y-32875850D01*
X94362500Y-33325850D02*
X94362500Y-33002737D01*
X94412500Y-37945850D02*
X94412500Y-33825850D01*
X94512500Y-38125850D02*
X94512500Y-33975850D01*
X94512500Y-38125850D02*
X95787500Y-39150850D01*
X94612500Y-38195850D02*
X94612500Y-34175850D01*
X94712500Y-38275850D02*
X94712500Y-34275850D01*
X94812500Y-38355850D02*
X94812500Y-34325850D01*
X94922500Y-38445850D02*
X94912500Y-34375850D01*
X95062500Y-38545850D02*
X95062500Y-34425850D01*
X95212500Y-38685850D02*
X95212500Y-34525850D01*
X95362500Y-38805850D02*
X95362500Y-34525850D01*
X95512500Y-38915850D02*
X95512500Y-34525850D01*
X95662500Y-39035850D02*
X95662500Y-34575850D01*
X95812500Y-39125850D02*
X95812500Y-34525850D01*
X95962500Y-39125850D02*
X95962500Y-34525850D01*
X96112500Y-39125850D02*
X96112500Y-34525850D01*
X96262500Y-39125850D02*
X96262500Y-34525850D01*
X96412500Y-39125850D02*
X96412500Y-34525850D01*
X96562500Y-39125850D02*
X96562500Y-34525850D01*
X96712500Y-39125850D02*
X96712500Y-34525850D01*
X96862500Y-39125850D02*
X96862500Y-34525850D01*
X97012500Y-39125850D02*
X97012500Y-34525850D01*
X97162500Y-39125850D02*
X97162500Y-34525850D01*
X97312500Y-39125850D02*
X97312500Y-34525850D01*
X97462500Y-39125850D02*
X97462500Y-34525850D01*
X97612500Y-39125850D02*
X97612500Y-34525850D01*
X97762500Y-39125850D02*
X97762500Y-34525850D01*
X97912500Y-39125850D02*
X97912500Y-34525850D01*
X98062500Y-39125850D02*
X98062500Y-34525850D01*
X98112500Y-34500850D02*
X95537500Y-34500850D01*
X98112500Y-39150850D02*
X95787500Y-39150850D01*
X98212500Y-39015850D02*
X98212500Y-34625850D01*
X98362500Y-38875850D02*
X98362500Y-34755850D01*
X98512500Y-38745850D02*
X98512500Y-34915850D01*
X98662500Y-38585850D02*
X98662500Y-35055850D01*
X98762500Y-38485850D02*
X98762500Y-35155850D01*
X98862500Y-38375850D02*
X98862500Y-35255850D01*
X98962500Y-38295850D02*
X98962500Y-35365850D01*
X99112500Y-35500850D02*
X98112500Y-34500850D01*
X99112500Y-35500850D02*
X99112500Y-38150850D01*
X99112500Y-38150850D02*
X98112500Y-39150850D01*
X89507500Y-33300850D02*
G75*
G02*
X90507500Y-32300850I999999J1D01*
G01*
X90507500Y-36950850D02*
G75*
G02*
X89507500Y-35950850I-1J999999D01*
G01*
X92512500Y-36943308D02*
G75*
G02*
X94512500Y-38125850I-2J-2282546D01*
G01*
X93501296Y-32300850D02*
G75*
G02*
X94362500Y-33002737I-38796J-926887D01*
G01*
X95537500Y-34500850D02*
G75*
G02*
X94362500Y-33325850I2J1175002D01*
G01*
%TO.C,SW50*%
X89507500Y-67300850D02*
X89507500Y-69950850D01*
X89662500Y-70455850D02*
X89662500Y-66775850D01*
X89812500Y-70625850D02*
X89812500Y-66655850D01*
X89962500Y-70765850D02*
X89962500Y-66625850D01*
X90112500Y-70845850D02*
X90112500Y-66725850D01*
X90262500Y-70895850D02*
X90262500Y-66575850D01*
X90412500Y-70935850D02*
X90412500Y-66425850D01*
X90562500Y-70925850D02*
X90562500Y-66325850D01*
X90712500Y-70925850D02*
X90712500Y-66325850D01*
X90862500Y-70925850D02*
X90862500Y-66325850D01*
D13*
X91012500Y-66480850D02*
X88462500Y-66480850D01*
D12*
X91012500Y-70925850D02*
X91012500Y-66325850D01*
X91162500Y-70925850D02*
X91162500Y-66325850D01*
X91312500Y-70925850D02*
X91312500Y-66325850D01*
X91462500Y-70925850D02*
X91462500Y-66325850D01*
X91612500Y-70925850D02*
X91612500Y-66325850D01*
X91762500Y-70925850D02*
X91762500Y-66325850D01*
X91912500Y-70925850D02*
X91912500Y-66325850D01*
X92062500Y-70925850D02*
X92062500Y-66325850D01*
X92212500Y-70925850D02*
X92212500Y-66325850D01*
X92362500Y-70925850D02*
X92362500Y-66325850D01*
X92512500Y-70925850D02*
X92512500Y-66325850D01*
X92512500Y-70950850D02*
X90537500Y-70950850D01*
X92662500Y-70925850D02*
X92662500Y-66375850D01*
X92812500Y-70965850D02*
X92812500Y-66325850D01*
X92962500Y-70975850D02*
X92962500Y-66325850D01*
X93112500Y-70975850D02*
X93112500Y-66375850D01*
X93262500Y-71025850D02*
X93262500Y-66315850D01*
X93412500Y-71125850D02*
X93412500Y-66305850D01*
X93501296Y-66300850D02*
X90537500Y-66300850D01*
X93562500Y-71175850D02*
X93562500Y-66325850D01*
X93712500Y-71275850D02*
X93712500Y-66355850D01*
X93862500Y-71375850D02*
X93862500Y-66405850D01*
X94012500Y-71475850D02*
X94012500Y-66485850D01*
X94162500Y-71625850D02*
X94162500Y-66675850D01*
X94312500Y-71775850D02*
X94312500Y-66875850D01*
X94362500Y-67325850D02*
X94362500Y-67002737D01*
X94412500Y-71945850D02*
X94412500Y-67825850D01*
X94512500Y-72125850D02*
X94512500Y-67975850D01*
X94512500Y-72125850D02*
X95787500Y-73150850D01*
X94612500Y-72195850D02*
X94612500Y-68175850D01*
X94712500Y-72275850D02*
X94712500Y-68275850D01*
X94812500Y-72355850D02*
X94812500Y-68325850D01*
X94922500Y-72445850D02*
X94912500Y-68375850D01*
X95062500Y-72545850D02*
X95062500Y-68425850D01*
X95212500Y-72685850D02*
X95212500Y-68525850D01*
X95362500Y-72805850D02*
X95362500Y-68525850D01*
X95512500Y-72915850D02*
X95512500Y-68525850D01*
X95662500Y-73035850D02*
X95662500Y-68575850D01*
X95812500Y-73125850D02*
X95812500Y-68525850D01*
X95962500Y-73125850D02*
X95962500Y-68525850D01*
X96112500Y-73125850D02*
X96112500Y-68525850D01*
X96262500Y-73125850D02*
X96262500Y-68525850D01*
X96412500Y-73125850D02*
X96412500Y-68525850D01*
X96562500Y-73125850D02*
X96562500Y-68525850D01*
X96712500Y-73125850D02*
X96712500Y-68525850D01*
X96862500Y-73125850D02*
X96862500Y-68525850D01*
X97012500Y-73125850D02*
X97012500Y-68525850D01*
X97162500Y-73125850D02*
X97162500Y-68525850D01*
X97312500Y-73125850D02*
X97312500Y-68525850D01*
X97462500Y-73125850D02*
X97462500Y-68525850D01*
X97612500Y-73125850D02*
X97612500Y-68525850D01*
X97762500Y-73125850D02*
X97762500Y-68525850D01*
X97912500Y-73125850D02*
X97912500Y-68525850D01*
X98062500Y-73125850D02*
X98062500Y-68525850D01*
X98112500Y-68500850D02*
X95537500Y-68500850D01*
X98112500Y-73150850D02*
X95787500Y-73150850D01*
X98212500Y-73015850D02*
X98212500Y-68625850D01*
X98362500Y-72875850D02*
X98362500Y-68755850D01*
X98512500Y-72745850D02*
X98512500Y-68915850D01*
X98662500Y-72585850D02*
X98662500Y-69055850D01*
X98762500Y-72485850D02*
X98762500Y-69155850D01*
X98862500Y-72375850D02*
X98862500Y-69255850D01*
X98962500Y-72295850D02*
X98962500Y-69365850D01*
X99112500Y-69500850D02*
X98112500Y-68500850D01*
X99112500Y-69500850D02*
X99112500Y-72150850D01*
X99112500Y-72150850D02*
X98112500Y-73150850D01*
X89507500Y-67300850D02*
G75*
G02*
X90507500Y-66300850I999999J1D01*
G01*
X90507500Y-70950850D02*
G75*
G02*
X89507500Y-69950850I-1J999999D01*
G01*
X92512500Y-70943308D02*
G75*
G02*
X94512500Y-72125850I-2J-2282546D01*
G01*
X93501296Y-66300850D02*
G75*
G02*
X94362500Y-67002737I-38796J-926887D01*
G01*
X95537500Y-68500850D02*
G75*
G02*
X94362500Y-67325850I2J1175002D01*
G01*
%TO.C,SW39*%
X60512500Y-23700850D02*
X61512500Y-22700850D01*
X60512500Y-26350850D02*
X60512500Y-23700850D01*
X60512500Y-26350850D02*
X61512500Y-27350850D01*
X60662500Y-23555850D02*
X60662500Y-26485850D01*
X60762500Y-23475850D02*
X60762500Y-26595850D01*
X60862500Y-23365850D02*
X60862500Y-26695850D01*
X60962500Y-23265850D02*
X60962500Y-26795850D01*
X61112500Y-23105850D02*
X61112500Y-26935850D01*
X61262500Y-22975850D02*
X61262500Y-27095850D01*
X61412500Y-22835850D02*
X61412500Y-27225850D01*
X61512500Y-22700850D02*
X63837500Y-22700850D01*
X61512500Y-27350850D02*
X64087500Y-27350850D01*
X61562500Y-22725850D02*
X61562500Y-27325850D01*
X61712500Y-22725850D02*
X61712500Y-27325850D01*
X61862500Y-22725850D02*
X61862500Y-27325850D01*
X62012500Y-22725850D02*
X62012500Y-27325850D01*
X62162500Y-22725850D02*
X62162500Y-27325850D01*
X62312500Y-22725850D02*
X62312500Y-27325850D01*
X62462500Y-22725850D02*
X62462500Y-27325850D01*
X62612500Y-22725850D02*
X62612500Y-27325850D01*
X62762500Y-22725850D02*
X62762500Y-27325850D01*
X62912500Y-22725850D02*
X62912500Y-27325850D01*
X63062500Y-22725850D02*
X63062500Y-27325850D01*
X63212500Y-22725850D02*
X63212500Y-27325850D01*
X63362500Y-22725850D02*
X63362500Y-27325850D01*
X63512500Y-22725850D02*
X63512500Y-27325850D01*
X63662500Y-22725850D02*
X63662500Y-27325850D01*
X63812500Y-22725850D02*
X63812500Y-27325850D01*
X63962500Y-22815850D02*
X63962500Y-27275850D01*
X64112500Y-22935850D02*
X64112500Y-27325850D01*
X64262500Y-23045850D02*
X64262500Y-27325850D01*
X64412500Y-23165850D02*
X64412500Y-27325850D01*
X64562500Y-23305850D02*
X64562500Y-27425850D01*
X64702500Y-23405850D02*
X64712500Y-27475850D01*
X64812500Y-23495850D02*
X64812500Y-27525850D01*
X64912500Y-23575850D02*
X64912500Y-27575850D01*
X65012500Y-23655850D02*
X65012500Y-27675850D01*
X65112500Y-23725850D02*
X63837500Y-22700850D01*
X65112500Y-23725850D02*
X65112500Y-27875850D01*
X65212500Y-23905850D02*
X65212500Y-28025850D01*
X65262500Y-28525850D02*
X65262500Y-28848963D01*
X65312500Y-24075850D02*
X65312500Y-28975850D01*
X65462500Y-24225850D02*
X65462500Y-29175850D01*
X65612500Y-24375850D02*
X65612500Y-29365850D01*
X65762500Y-24475850D02*
X65762500Y-29445850D01*
X65912500Y-24575850D02*
X65912500Y-29495850D01*
X66062500Y-24675850D02*
X66062500Y-29525850D01*
X66123704Y-29550850D02*
X69087500Y-29550850D01*
X66212500Y-24725850D02*
X66212500Y-29545850D01*
X66362500Y-24825850D02*
X66362500Y-29535850D01*
X66512500Y-24875850D02*
X66512500Y-29475850D01*
X66662500Y-24875850D02*
X66662500Y-29525850D01*
X66812500Y-24885850D02*
X66812500Y-29525850D01*
X66962500Y-24925850D02*
X66962500Y-29475850D01*
X67112500Y-24900850D02*
X69087500Y-24900850D01*
X67112500Y-24925850D02*
X67112500Y-29525850D01*
X67262500Y-24925850D02*
X67262500Y-29525850D01*
X67412500Y-24925850D02*
X67412500Y-29525850D01*
X67562500Y-24925850D02*
X67562500Y-29525850D01*
X67712500Y-24925850D02*
X67712500Y-29525850D01*
X67862500Y-24925850D02*
X67862500Y-29525850D01*
X68012500Y-24925850D02*
X68012500Y-29525850D01*
X68162500Y-24925850D02*
X68162500Y-29525850D01*
X68312500Y-24925850D02*
X68312500Y-29525850D01*
X68462500Y-24925850D02*
X68462500Y-29525850D01*
X68612500Y-24925850D02*
X68612500Y-29525850D01*
D13*
X68612500Y-29370850D02*
X71162500Y-29370850D01*
D12*
X68762500Y-24925850D02*
X68762500Y-29525850D01*
X68912500Y-24925850D02*
X68912500Y-29525850D01*
X69062500Y-24925850D02*
X69062500Y-29525850D01*
X69212500Y-24915850D02*
X69212500Y-29425850D01*
X69362500Y-24955850D02*
X69362500Y-29275850D01*
X69512500Y-25005850D02*
X69512500Y-29125850D01*
X69662500Y-25085850D02*
X69662500Y-29225850D01*
X69812500Y-25225850D02*
X69812500Y-29195850D01*
X69962500Y-25395850D02*
X69962500Y-29075850D01*
X70117500Y-28550850D02*
X70117500Y-25900850D01*
X64087500Y-27350850D02*
G75*
G02*
X65262500Y-28525850I-2J-1175002D01*
G01*
X66123704Y-29550850D02*
G75*
G02*
X65262500Y-28848963I38796J926887D01*
G01*
X67112500Y-24908392D02*
G75*
G02*
X65112500Y-23725850I2J2282546D01*
G01*
X69117500Y-24900850D02*
G75*
G02*
X70117500Y-25900850I1J-999999D01*
G01*
X70117500Y-28550850D02*
G75*
G02*
X69117500Y-29550850I-999999J-1D01*
G01*
%TO.C,SW41*%
X55507500Y-67300850D02*
X55507500Y-69950850D01*
X55662500Y-70455850D02*
X55662500Y-66775850D01*
X55812500Y-70625850D02*
X55812500Y-66655850D01*
X55962500Y-70765850D02*
X55962500Y-66625850D01*
X56112500Y-70845850D02*
X56112500Y-66725850D01*
X56262500Y-70895850D02*
X56262500Y-66575850D01*
X56412500Y-70935850D02*
X56412500Y-66425850D01*
X56562500Y-70925850D02*
X56562500Y-66325850D01*
X56712500Y-70925850D02*
X56712500Y-66325850D01*
X56862500Y-70925850D02*
X56862500Y-66325850D01*
D13*
X57012500Y-66480850D02*
X54462500Y-66480850D01*
D12*
X57012500Y-70925850D02*
X57012500Y-66325850D01*
X57162500Y-70925850D02*
X57162500Y-66325850D01*
X57312500Y-70925850D02*
X57312500Y-66325850D01*
X57462500Y-70925850D02*
X57462500Y-66325850D01*
X57612500Y-70925850D02*
X57612500Y-66325850D01*
X57762500Y-70925850D02*
X57762500Y-66325850D01*
X57912500Y-70925850D02*
X57912500Y-66325850D01*
X58062500Y-70925850D02*
X58062500Y-66325850D01*
X58212500Y-70925850D02*
X58212500Y-66325850D01*
X58362500Y-70925850D02*
X58362500Y-66325850D01*
X58512500Y-70925850D02*
X58512500Y-66325850D01*
X58512500Y-70950850D02*
X56537500Y-70950850D01*
X58662500Y-70925850D02*
X58662500Y-66375850D01*
X58812500Y-70965850D02*
X58812500Y-66325850D01*
X58962500Y-70975850D02*
X58962500Y-66325850D01*
X59112500Y-70975850D02*
X59112500Y-66375850D01*
X59262500Y-71025850D02*
X59262500Y-66315850D01*
X59412500Y-71125850D02*
X59412500Y-66305850D01*
X59501296Y-66300850D02*
X56537500Y-66300850D01*
X59562500Y-71175850D02*
X59562500Y-66325850D01*
X59712500Y-71275850D02*
X59712500Y-66355850D01*
X59862500Y-71375850D02*
X59862500Y-66405850D01*
X60012500Y-71475850D02*
X60012500Y-66485850D01*
X60162500Y-71625850D02*
X60162500Y-66675850D01*
X60312500Y-71775850D02*
X60312500Y-66875850D01*
X60362500Y-67325850D02*
X60362500Y-67002737D01*
X60412500Y-71945850D02*
X60412500Y-67825850D01*
X60512500Y-72125850D02*
X60512500Y-67975850D01*
X60512500Y-72125850D02*
X61787500Y-73150850D01*
X60612500Y-72195850D02*
X60612500Y-68175850D01*
X60712500Y-72275850D02*
X60712500Y-68275850D01*
X60812500Y-72355850D02*
X60812500Y-68325850D01*
X60922500Y-72445850D02*
X60912500Y-68375850D01*
X61062500Y-72545850D02*
X61062500Y-68425850D01*
X61212500Y-72685850D02*
X61212500Y-68525850D01*
X61362500Y-72805850D02*
X61362500Y-68525850D01*
X61512500Y-72915850D02*
X61512500Y-68525850D01*
X61662500Y-73035850D02*
X61662500Y-68575850D01*
X61812500Y-73125850D02*
X61812500Y-68525850D01*
X61962500Y-73125850D02*
X61962500Y-68525850D01*
X62112500Y-73125850D02*
X62112500Y-68525850D01*
X62262500Y-73125850D02*
X62262500Y-68525850D01*
X62412500Y-73125850D02*
X62412500Y-68525850D01*
X62562500Y-73125850D02*
X62562500Y-68525850D01*
X62712500Y-73125850D02*
X62712500Y-68525850D01*
X62862500Y-73125850D02*
X62862500Y-68525850D01*
X63012500Y-73125850D02*
X63012500Y-68525850D01*
X63162500Y-73125850D02*
X63162500Y-68525850D01*
X63312500Y-73125850D02*
X63312500Y-68525850D01*
X63462500Y-73125850D02*
X63462500Y-68525850D01*
X63612500Y-73125850D02*
X63612500Y-68525850D01*
X63762500Y-73125850D02*
X63762500Y-68525850D01*
X63912500Y-73125850D02*
X63912500Y-68525850D01*
X64062500Y-73125850D02*
X64062500Y-68525850D01*
X64112500Y-68500850D02*
X61537500Y-68500850D01*
X64112500Y-73150850D02*
X61787500Y-73150850D01*
X64212500Y-73015850D02*
X64212500Y-68625850D01*
X64362500Y-72875850D02*
X64362500Y-68755850D01*
X64512500Y-72745850D02*
X64512500Y-68915850D01*
X64662500Y-72585850D02*
X64662500Y-69055850D01*
X64762500Y-72485850D02*
X64762500Y-69155850D01*
X64862500Y-72375850D02*
X64862500Y-69255850D01*
X64962500Y-72295850D02*
X64962500Y-69365850D01*
X65112500Y-69500850D02*
X64112500Y-68500850D01*
X65112500Y-69500850D02*
X65112500Y-72150850D01*
X65112500Y-72150850D02*
X64112500Y-73150850D01*
X55507500Y-67300850D02*
G75*
G02*
X56507500Y-66300850I999999J1D01*
G01*
X56507500Y-70950850D02*
G75*
G02*
X55507500Y-69950850I-1J999999D01*
G01*
X58512500Y-70943308D02*
G75*
G02*
X60512500Y-72125850I-2J-2282546D01*
G01*
X59501296Y-66300850D02*
G75*
G02*
X60362500Y-67002737I-38796J-926887D01*
G01*
X61537500Y-68500850D02*
G75*
G02*
X60362500Y-67325850I2J1175002D01*
G01*
%TO.C,SW55*%
X106507500Y-92500850D02*
X106507500Y-95150850D01*
X106662500Y-95655850D02*
X106662500Y-91975850D01*
X106812500Y-95825850D02*
X106812500Y-91855850D01*
X106962500Y-95965850D02*
X106962500Y-91825850D01*
X107112500Y-96045850D02*
X107112500Y-91925850D01*
X107262500Y-96095850D02*
X107262500Y-91775850D01*
X107412500Y-96135850D02*
X107412500Y-91625850D01*
X107562500Y-96125850D02*
X107562500Y-91525850D01*
X107712500Y-96125850D02*
X107712500Y-91525850D01*
X107862500Y-96125850D02*
X107862500Y-91525850D01*
D13*
X108012500Y-91680850D02*
X105462500Y-91680850D01*
D12*
X108012500Y-96125850D02*
X108012500Y-91525850D01*
X108162500Y-96125850D02*
X108162500Y-91525850D01*
X108312500Y-96125850D02*
X108312500Y-91525850D01*
X108462500Y-96125850D02*
X108462500Y-91525850D01*
X108612500Y-96125850D02*
X108612500Y-91525850D01*
X108762500Y-96125850D02*
X108762500Y-91525850D01*
X108912500Y-96125850D02*
X108912500Y-91525850D01*
X109062500Y-96125850D02*
X109062500Y-91525850D01*
X109212500Y-96125850D02*
X109212500Y-91525850D01*
X109362500Y-96125850D02*
X109362500Y-91525850D01*
X109512500Y-96125850D02*
X109512500Y-91525850D01*
X109512500Y-96150850D02*
X107537500Y-96150850D01*
X109662500Y-96125850D02*
X109662500Y-91575850D01*
X109812500Y-96165850D02*
X109812500Y-91525850D01*
X109962500Y-96175850D02*
X109962500Y-91525850D01*
X110112500Y-96175850D02*
X110112500Y-91575850D01*
X110262500Y-96225850D02*
X110262500Y-91515850D01*
X110412500Y-96325850D02*
X110412500Y-91505850D01*
X110501296Y-91500850D02*
X107537500Y-91500850D01*
X110562500Y-96375850D02*
X110562500Y-91525850D01*
X110712500Y-96475850D02*
X110712500Y-91555850D01*
X110862500Y-96575850D02*
X110862500Y-91605850D01*
X111012500Y-96675850D02*
X111012500Y-91685850D01*
X111162500Y-96825850D02*
X111162500Y-91875850D01*
X111312500Y-96975850D02*
X111312500Y-92075850D01*
X111362500Y-92525850D02*
X111362500Y-92202737D01*
X111412500Y-97145850D02*
X111412500Y-93025850D01*
X111512500Y-97325850D02*
X111512500Y-93175850D01*
X111512500Y-97325850D02*
X112787500Y-98350850D01*
X111612500Y-97395850D02*
X111612500Y-93375850D01*
X111712500Y-97475850D02*
X111712500Y-93475850D01*
X111812500Y-97555850D02*
X111812500Y-93525850D01*
X111922500Y-97645850D02*
X111912500Y-93575850D01*
X112062500Y-97745850D02*
X112062500Y-93625850D01*
X112212500Y-97885850D02*
X112212500Y-93725850D01*
X112362500Y-98005850D02*
X112362500Y-93725850D01*
X112512500Y-98115850D02*
X112512500Y-93725850D01*
X112662500Y-98235850D02*
X112662500Y-93775850D01*
X112812500Y-98325850D02*
X112812500Y-93725850D01*
X112962500Y-98325850D02*
X112962500Y-93725850D01*
X113112500Y-98325850D02*
X113112500Y-93725850D01*
X113262500Y-98325850D02*
X113262500Y-93725850D01*
X113412500Y-98325850D02*
X113412500Y-93725850D01*
X113562500Y-98325850D02*
X113562500Y-93725850D01*
X113712500Y-98325850D02*
X113712500Y-93725850D01*
X113862500Y-98325850D02*
X113862500Y-93725850D01*
X114012500Y-98325850D02*
X114012500Y-93725850D01*
X114162500Y-98325850D02*
X114162500Y-93725850D01*
X114312500Y-98325850D02*
X114312500Y-93725850D01*
X114462500Y-98325850D02*
X114462500Y-93725850D01*
X114612500Y-98325850D02*
X114612500Y-93725850D01*
X114762500Y-98325850D02*
X114762500Y-93725850D01*
X114912500Y-98325850D02*
X114912500Y-93725850D01*
X115062500Y-98325850D02*
X115062500Y-93725850D01*
X115112500Y-93700850D02*
X112537500Y-93700850D01*
X115112500Y-98350850D02*
X112787500Y-98350850D01*
X115212500Y-98215850D02*
X115212500Y-93825850D01*
X115362500Y-98075850D02*
X115362500Y-93955850D01*
X115512500Y-97945850D02*
X115512500Y-94115850D01*
X115662500Y-97785850D02*
X115662500Y-94255850D01*
X115762500Y-97685850D02*
X115762500Y-94355850D01*
X115862500Y-97575850D02*
X115862500Y-94455850D01*
X115962500Y-97495850D02*
X115962500Y-94565850D01*
X116112500Y-94700850D02*
X115112500Y-93700850D01*
X116112500Y-94700850D02*
X116112500Y-97350850D01*
X116112500Y-97350850D02*
X115112500Y-98350850D01*
X106507500Y-92500850D02*
G75*
G02*
X107507500Y-91500850I999999J1D01*
G01*
X107507500Y-96150850D02*
G75*
G02*
X106507500Y-95150850I-1J999999D01*
G01*
X109512500Y-96143308D02*
G75*
G02*
X111512500Y-97325850I-2J-2282546D01*
G01*
X110501296Y-91500850D02*
G75*
G02*
X111362500Y-92202737I-38796J-926887D01*
G01*
X112537500Y-93700850D02*
G75*
G02*
X111362500Y-92525850I2J1175002D01*
G01*
%TO.C,SW34*%
X21292500Y-88235850D02*
X25362500Y-88225850D01*
X21312500Y-88375850D02*
X25312500Y-88375850D01*
X21312500Y-88525850D02*
X25212500Y-88525850D01*
X21312500Y-88675850D02*
X25212500Y-88675850D01*
X21312500Y-88825850D02*
X25212500Y-88825850D01*
X21312500Y-88975850D02*
X25162500Y-88975850D01*
X21312500Y-89125850D02*
X25212500Y-89125850D01*
X21312500Y-89275850D02*
X25212500Y-89275850D01*
X21312500Y-89425850D02*
X25212500Y-89425850D01*
X21312500Y-89575850D02*
X25212500Y-89575850D01*
X21312500Y-89725850D02*
X25212500Y-89725850D01*
X21312500Y-92125850D02*
X21312500Y-88275850D01*
X21382500Y-88125850D02*
X25412500Y-88125850D01*
X21412500Y-89875850D02*
X25212500Y-89875850D01*
X21412500Y-90025850D02*
X25212500Y-90025850D01*
X21412500Y-90175850D02*
X25212500Y-90175850D01*
X21412500Y-90325850D02*
X25212500Y-90325850D01*
X21412500Y-90475850D02*
X25212500Y-90475850D01*
X21412500Y-90625850D02*
X25212500Y-90625850D01*
X21412500Y-90775850D02*
X25212500Y-90775850D01*
X21412500Y-90925850D02*
X25212500Y-90925850D01*
X21412500Y-91075850D02*
X25212500Y-91075850D01*
X21412500Y-91225850D02*
X25212500Y-91225850D01*
X21412500Y-91375850D02*
X25212500Y-91375850D01*
X21412500Y-91525850D02*
X25112500Y-91525850D01*
X21412500Y-91675850D02*
X24982500Y-91675850D01*
X21412500Y-91825850D02*
X24822500Y-91825850D01*
X21412500Y-91975850D02*
X24682500Y-91975850D01*
X21412500Y-92075850D02*
X24582500Y-92075850D01*
X21412500Y-92175850D02*
X24482500Y-92175850D01*
X21442500Y-92275850D02*
X24372500Y-92275850D01*
X21462500Y-88025850D02*
X25462500Y-88025850D01*
X21542500Y-87925850D02*
X25562500Y-87925850D01*
X21587500Y-92425850D02*
X21337500Y-92175850D01*
X21612500Y-87825850D02*
X21262500Y-88275850D01*
X21612500Y-87825850D02*
X25762500Y-87825850D01*
X21792500Y-87725850D02*
X25912500Y-87725850D01*
X21962500Y-87625850D02*
X26862500Y-87625850D01*
X22112500Y-87475850D02*
X27062500Y-87475850D01*
X22262500Y-87325850D02*
X27252500Y-87325850D01*
X22362500Y-87175850D02*
X27332500Y-87175850D01*
X22462500Y-87025850D02*
X27382500Y-87025850D01*
X22562500Y-86875850D02*
X27412500Y-86875850D01*
X22612500Y-86725850D02*
X27432500Y-86725850D01*
X22712500Y-86575850D02*
X27422500Y-86575850D01*
X22762500Y-86275850D02*
X27412500Y-86275850D01*
X22762500Y-86425850D02*
X27362500Y-86425850D01*
X22772500Y-86125850D02*
X27412500Y-86125850D01*
X22787500Y-85825850D02*
X22787500Y-83850850D01*
X22802500Y-83725850D02*
X27312500Y-83725850D01*
X22812500Y-83875850D02*
X27412500Y-83875850D01*
X22812500Y-84025850D02*
X27412500Y-84025850D01*
X22812500Y-84175850D02*
X27412500Y-84175850D01*
X22812500Y-84325850D02*
X27412500Y-84325850D01*
X22812500Y-84475850D02*
X27412500Y-84475850D01*
X22812500Y-84625850D02*
X27412500Y-84625850D01*
X22812500Y-84775850D02*
X27412500Y-84775850D01*
X22812500Y-84925850D02*
X27412500Y-84925850D01*
X22812500Y-85075850D02*
X27412500Y-85075850D01*
X22812500Y-85225850D02*
X27412500Y-85225850D01*
X22812500Y-85375850D02*
X27412500Y-85375850D01*
X22812500Y-85525850D02*
X27412500Y-85525850D01*
X22812500Y-85675850D02*
X27412500Y-85675850D01*
X22812500Y-85825850D02*
X27412500Y-85825850D01*
X22812500Y-85975850D02*
X27362500Y-85975850D01*
X22842500Y-83575850D02*
X27162500Y-83575850D01*
X22892500Y-83425850D02*
X27012500Y-83425850D01*
X22972500Y-83275850D02*
X27112500Y-83275850D01*
X23112500Y-83125850D02*
X27082500Y-83125850D01*
X23282500Y-82975850D02*
X26962500Y-82975850D01*
X24237500Y-92425850D02*
X21587500Y-92425850D01*
X24237500Y-92425850D02*
X25237500Y-91425850D01*
X25237500Y-91425850D02*
X25237500Y-88850850D01*
X26412500Y-87675850D02*
X26735613Y-87675850D01*
X26437500Y-82820850D02*
X23787500Y-82820850D01*
D13*
X27257500Y-84325850D02*
X27257500Y-81775850D01*
D12*
X27437500Y-86814646D02*
X27437500Y-83850850D01*
X22787500Y-83820850D02*
G75*
G02*
X23787500Y-82820850I999999J1D01*
G01*
X22795042Y-85825850D02*
G75*
G02*
X21612500Y-87825850I-2282546J2D01*
G01*
X25237500Y-88850850D02*
G75*
G02*
X26412500Y-87675850I1175002J-2D01*
G01*
X26437500Y-82820850D02*
G75*
G02*
X27437500Y-83820850I1J-999999D01*
G01*
X27437500Y-86814646D02*
G75*
G02*
X26735613Y-87675850I-926887J38796D01*
G01*
%TO.C,SW4*%
X39156250Y-80569600D02*
X39156250Y-81363350D01*
X39156250Y-90888350D02*
X39156250Y-91682100D01*
X39156250Y-91682100D02*
X39950000Y-91682100D01*
X39950000Y-80569600D02*
X39156250Y-80569600D01*
X50268750Y-80569600D02*
X49475000Y-80569600D01*
X50268750Y-81363350D02*
X50268750Y-80569600D01*
X50268750Y-90888350D02*
X50268750Y-91682100D01*
X50268750Y-91682100D02*
X49475000Y-91682100D01*
%TD*%
%LPC*%
D14*
%TO.C,DS10*%
X91662525Y-58075850D03*
X95112525Y-58075850D03*
%TD*%
%TO.C,DI7*%
X61062525Y-36175850D03*
X64512525Y-36175850D03*
%TD*%
%TO.C,D37*%
X66412525Y-64925850D03*
X69862525Y-64925850D03*
%TD*%
%TO.C,DS8*%
X69212525Y-45825850D03*
X72662525Y-45825850D03*
%TD*%
%TO.C,D32*%
X66412525Y-61425850D03*
X69862525Y-61425850D03*
%TD*%
%TO.C,D49*%
X104012525Y-53325850D03*
X107462525Y-53325850D03*
%TD*%
%TO.C,D36*%
X72612525Y-44425850D03*
X76062525Y-44425850D03*
%TD*%
%TO.C,D31*%
X58612475Y-36175850D03*
X55162475Y-36175850D03*
%TD*%
%TO.C,DI9*%
X61062525Y-39557150D03*
X64512525Y-39557150D03*
%TD*%
%TO.C,D47*%
X61035925Y-34475850D03*
X64485925Y-34475850D03*
%TD*%
%TO.C,D51*%
X108012525Y-83925850D03*
X111462525Y-83925850D03*
%TD*%
%TO.C,D41*%
X95312475Y-44025850D03*
X91862475Y-44025850D03*
%TD*%
%TO.C,DS7*%
X75012525Y-35325850D03*
X78462525Y-35325850D03*
%TD*%
%TO.C,D35*%
X72612525Y-42825850D03*
X76062525Y-42825850D03*
%TD*%
%TO.C,DS9*%
X78139025Y-51825850D03*
X81589025Y-51825850D03*
%TD*%
%TO.C,D40*%
X95312475Y-42425850D03*
X91862475Y-42425850D03*
%TD*%
%TO.C,DI10*%
X61062525Y-41175850D03*
X64512525Y-41175850D03*
%TD*%
%TO.C,DI11*%
X61062525Y-42775850D03*
X64512525Y-42775850D03*
%TD*%
%TO.C,D48*%
X104012525Y-51716450D03*
X107462525Y-51716450D03*
%TD*%
%TO.C,D33*%
X66412525Y-63225850D03*
X69862525Y-63225850D03*
%TD*%
%TO.C,D45*%
X97562525Y-44025850D03*
X101012525Y-44025850D03*
%TD*%
%TO.C,D46*%
X97562525Y-58075850D03*
X101012525Y-58075850D03*
%TD*%
%TO.C,D29*%
X61762475Y-59625850D03*
X58312475Y-59625850D03*
%TD*%
%TO.C,D39*%
X78462475Y-33675850D03*
X75012475Y-33675850D03*
%TD*%
%TO.C,D44*%
X97562525Y-42425850D03*
X101012525Y-42425850D03*
%TD*%
%TO.C,D43*%
X58612475Y-34475850D03*
X55162475Y-34475850D03*
%TD*%
%TO.C,D30*%
X61762475Y-61425850D03*
X58312475Y-61425850D03*
%TD*%
%TO.C,DI8*%
X61062525Y-37857150D03*
X64512525Y-37857150D03*
%TD*%
%TO.C,D50*%
X104012525Y-54907150D03*
X107462525Y-54907150D03*
%TD*%
%TO.C,D28*%
X61762475Y-57825850D03*
X58312475Y-57825850D03*
%TD*%
%TO.C,DS11*%
X61062525Y-44375850D03*
X64512525Y-44375850D03*
%TD*%
D15*
%TO.C,SW36*%
X50812500Y-63625850D03*
D16*
X45812500Y-67325850D03*
D15*
X45812500Y-61425850D03*
D17*
X54162500Y-63575850D03*
D18*
X42337500Y-61450850D03*
%TD*%
D15*
%TO.C,SW45*%
X84812500Y-58125850D03*
D16*
X79812500Y-61825850D03*
D15*
X79812500Y-55925850D03*
D17*
X88162500Y-58075850D03*
D18*
X76337500Y-55950850D03*
%TD*%
D15*
%TO.C,SW49*%
X91812500Y-51625850D03*
D16*
X96812500Y-47925850D03*
D15*
X96812500Y-53825850D03*
D17*
X88462500Y-51675850D03*
D18*
X100287500Y-53800850D03*
%TD*%
D19*
%TO.C,J32*%
X105312500Y-63325850D03*
D20*
X105312500Y-65865850D03*
X105312500Y-68405850D03*
X105312500Y-70945850D03*
%TD*%
D15*
%TO.C,SW33*%
X33812500Y-69425850D03*
D16*
X28812500Y-73125850D03*
D15*
X28812500Y-67225850D03*
D17*
X37162500Y-69375850D03*
D18*
X25337500Y-67250850D03*
%TD*%
D21*
%TO.C,Hole4*%
X53912500Y-58825850D03*
%TD*%
D15*
%TO.C,SW44*%
X84812500Y-41125850D03*
D16*
X79812500Y-44825850D03*
D15*
X79812500Y-38925850D03*
D17*
X88162500Y-41075850D03*
D18*
X76337500Y-38950850D03*
%TD*%
D15*
%TO.C,SW40*%
X57812500Y-51625850D03*
D16*
X62812500Y-47925850D03*
D15*
X62812500Y-53825850D03*
D17*
X54462500Y-51675850D03*
D18*
X66287500Y-53800850D03*
%TD*%
D19*
%TO.C,Con_L_12*%
X71312500Y-32225850D03*
D20*
X71312500Y-34765850D03*
X71312500Y-37305850D03*
X71312500Y-39845850D03*
%TD*%
D21*
%TO.C,Hole6*%
X105412500Y-81625850D03*
%TD*%
D15*
%TO.C,SW43*%
X84812500Y-24125850D03*
D16*
X79812500Y-27825850D03*
D15*
X79812500Y-21925850D03*
D17*
X88162500Y-24075850D03*
D18*
X76337500Y-21950850D03*
%TD*%
D19*
%TO.C,Con_L_8*%
X37312500Y-40330850D03*
D20*
X37312500Y-42870850D03*
X37312500Y-45410850D03*
X37312500Y-47950850D03*
%TD*%
D15*
%TO.C,SW32*%
X33812500Y-52425850D03*
D16*
X28812500Y-56125850D03*
D15*
X28812500Y-50225850D03*
D17*
X37162500Y-52375850D03*
D18*
X25337500Y-50250850D03*
%TD*%
D15*
%TO.C,SW47*%
X33812500Y-35425850D03*
D16*
X28812500Y-39125850D03*
D15*
X28812500Y-33225850D03*
D17*
X37162500Y-35375850D03*
D18*
X25337500Y-33250850D03*
%TD*%
D15*
%TO.C,SW52*%
X108812500Y-42825850D03*
D16*
X113812500Y-39125850D03*
D15*
X113812500Y-45025850D03*
D17*
X105462500Y-42875850D03*
D18*
X117287500Y-45000850D03*
%TD*%
D19*
%TO.C,Con_L_10*%
X37312500Y-57025850D03*
D20*
X37312500Y-59565850D03*
X37312500Y-62105850D03*
X37312500Y-64645850D03*
%TD*%
D15*
%TO.C,SW51*%
X50812500Y-29600850D03*
D16*
X45812500Y-33300850D03*
D15*
X45812500Y-27400850D03*
D17*
X54162500Y-29550850D03*
D18*
X42337500Y-27425850D03*
%TD*%
D15*
%TO.C,SW53*%
X108812500Y-59825850D03*
D16*
X113812500Y-56125850D03*
D15*
X113812500Y-62025850D03*
D17*
X105462500Y-59875850D03*
D18*
X117287500Y-62000850D03*
%TD*%
D22*
%TO.C,J9*%
X99712500Y-77865850D03*
D20*
X99712500Y-80405850D03*
X99712500Y-82945850D03*
X99712500Y-85485850D03*
X99712500Y-88025850D03*
X99712500Y-90565850D03*
X99712500Y-93105850D03*
%TD*%
D19*
%TO.C,Con_L_14*%
X71312500Y-49285850D03*
D20*
X71312500Y-51825850D03*
X71312500Y-54365850D03*
X71312500Y-56905850D03*
%TD*%
D15*
%TO.C,SW37*%
X42112500Y-79325850D03*
D16*
X45812500Y-84325850D03*
D15*
X39912500Y-84325850D03*
D23*
X42062500Y-75975850D03*
D24*
X39937500Y-87800850D03*
%TD*%
D15*
%TO.C,SW35*%
X50812500Y-46625850D03*
D16*
X45812500Y-50325850D03*
D15*
X45812500Y-44425850D03*
D17*
X54162500Y-46575850D03*
D18*
X42337500Y-44450850D03*
%TD*%
D15*
%TO.C,SW54*%
X108812500Y-76825850D03*
D16*
X113812500Y-73125850D03*
D15*
X113812500Y-79025850D03*
D17*
X105462500Y-76875850D03*
D18*
X117287500Y-79000850D03*
%TD*%
D15*
%TO.C,SW48*%
X91812500Y-34625850D03*
D16*
X96812500Y-30925850D03*
D15*
X96812500Y-36825850D03*
D17*
X88462500Y-34675850D03*
D18*
X100287500Y-36800850D03*
%TD*%
D21*
%TO.C,Hole5*%
X105812500Y-47625850D03*
%TD*%
D15*
%TO.C,SW50*%
X91812500Y-68625850D03*
D16*
X96812500Y-64925850D03*
D15*
X96812500Y-70825850D03*
D17*
X88462500Y-68675850D03*
D18*
X100287500Y-70800850D03*
%TD*%
D15*
%TO.C,SW39*%
X67812500Y-27225850D03*
D16*
X62812500Y-30925850D03*
D15*
X62812500Y-25025850D03*
D17*
X71162500Y-27175850D03*
D18*
X59337500Y-25050850D03*
%TD*%
D15*
%TO.C,SW41*%
X57812500Y-68625850D03*
D16*
X62812500Y-64925850D03*
D15*
X62812500Y-70825850D03*
D17*
X54462500Y-68675850D03*
D18*
X66287500Y-70800850D03*
%TD*%
D15*
%TO.C,SW55*%
X108812500Y-93825850D03*
D16*
X113812500Y-90125850D03*
D15*
X113812500Y-96025850D03*
D17*
X105462500Y-93875850D03*
D18*
X117287500Y-96000850D03*
%TD*%
D15*
%TO.C,SW34*%
X25112500Y-85125850D03*
D16*
X28812500Y-90125850D03*
D15*
X22912500Y-90125850D03*
D23*
X25062500Y-81775850D03*
D24*
X22937500Y-93600850D03*
%TD*%
D25*
%TO.C,SW4*%
X37212500Y-88625850D03*
X37212500Y-83625850D03*
X37212500Y-86125850D03*
%TD*%
D26*
X100864200Y-72757550D03*
X71312500Y-69114150D03*
X93281100Y-65518950D03*
X74767100Y-60650450D03*
X74767100Y-65518950D03*
X75715100Y-66215450D03*
X60037500Y-60036150D03*
X59580900Y-41750150D03*
X103201300Y-67703050D03*
X75715100Y-59710350D03*
X107253900Y-61755950D03*
X73419200Y-38192850D03*
X101313400Y-87230450D03*
X102900400Y-75106650D03*
X83038800Y-60786850D03*
X75005400Y-58332750D03*
X107253900Y-74979350D03*
X102900400Y-87979450D03*
X82143500Y-58354750D03*
X72215800Y-38389150D03*
X101976200Y-59633350D03*
X101658180Y-72855526D03*
X41873400Y-38675850D03*
X73133200Y-32752450D03*
X90289300Y-54618150D03*
X82550600Y-32752450D03*
X108378500Y-72869650D03*
X39988500Y-77177950D03*
X62773100Y-34766950D03*
X90710800Y-62475550D03*
X108378500Y-62884050D03*
X62774200Y-38675850D03*
X86002200Y-54618150D03*
X39362500Y-55875850D03*
X32345500Y-54928450D03*
X58312500Y-54928450D03*
X66287500Y-44600450D03*
X76062500Y-45406850D03*
X76337500Y-35025450D03*
X91862500Y-36632750D03*
X26523500Y-59482650D03*
X56991000Y-60048050D03*
X50870700Y-65968950D03*
X58312500Y-65968950D03*
X42337500Y-56501450D03*
X69379600Y-56646950D03*
X60332100Y-71254550D03*
X66710300Y-68300750D03*
X44872500Y-71254550D03*
X60332100Y-68300750D03*
X62799500Y-41625550D03*
X76062500Y-41625550D03*
X76337500Y-49732250D03*
X90469200Y-49732250D03*
X64485900Y-33490950D03*
X49671200Y-33631850D03*
X32012500Y-31725850D03*
X55162500Y-31653150D03*
X94003600Y-42934250D03*
X70988000Y-42227250D03*
X73347700Y-58236850D03*
X67823900Y-42227250D03*
X60656800Y-58236850D03*
X103953700Y-44786950D03*
X80004900Y-51142350D03*
X96262500Y-44675850D03*
X83860800Y-44599250D03*
X67099600Y-51680550D03*
X67760600Y-50602850D03*
X66917700Y-48181250D03*
X98504800Y-58928750D03*
X94153300Y-49475550D03*
X95112500Y-59084750D03*
X104433000Y-56868450D03*
X74021000Y-41017250D03*
X67788500Y-41017250D03*
X75228200Y-36753450D03*
X72483300Y-41017250D03*
X60573900Y-32819550D03*
X79364200Y-36753450D03*
X59119400Y-32775850D03*
X93551600Y-48225050D03*
X95857200Y-61707250D03*
X65669700Y-46584650D03*
X102947600Y-74216250D03*
X102582100Y-62193750D03*
X105312250Y-73626100D03*
X110629900Y-73769850D03*
X59912500Y-36606250D03*
X39180100Y-36606250D03*
X41198500Y-40739850D03*
X72700600Y-39845850D03*
X50867400Y-74224550D03*
X54162500Y-43775250D03*
X103631300Y-56679550D03*
X83166400Y-50521150D03*
X42241900Y-73974050D03*
X83166400Y-56324150D03*
X69212500Y-43775250D03*
X55966700Y-59360850D03*
X103476500Y-65865850D03*
X77006100Y-51825850D03*
X101229100Y-56077850D03*
X77795600Y-53419550D03*
X68578900Y-59457950D03*
X76887800Y-64634650D03*
X96245600Y-68405850D03*
X76887800Y-61796550D03*
X88162500Y-64634650D03*
X93869400Y-64634650D03*
X60982300Y-45372350D03*
X48199100Y-44532150D03*
X48199100Y-47421450D03*
X89859000Y-47560950D03*
X53669800Y-35917550D03*
X39806500Y-36002550D03*
X105462500Y-40964650D03*
%LPD*%
M02*
