%TF.GenerationSoftware,KiCad,Pcbnew,9.0.0*%
%TF.CreationDate,2025-04-19T15:35:31+09:00*%
%TF.ProjectId,nofy_V2_R,6e6f6679-5f56-4325-9f52-2e6b69636164,rev?*%
%TF.SameCoordinates,Original*%
%TF.FileFunction,Soldermask,Bot*%
%TF.FilePolarity,Negative*%
%FSLAX46Y46*%
G04 Gerber Fmt 4.6, Leading zero omitted, Abs format (unit mm)*
G04 Created by KiCad (PCBNEW 9.0.0) date 2025-04-19 15:35:31*
%MOMM*%
%LPD*%
G01*
G04 APERTURE LIST*
%ADD10R,1.200000X0.950000*%
%ADD11C,3.000000*%
%ADD12C,4.800000*%
%ADD13R,3.000000X2.800000*%
%ADD14R,2.850000X2.750000*%
%ADD15C,1.700000*%
%ADD16O,1.700000X1.700000*%
%ADD17C,2.200000*%
%ADD18R,1.700000X1.700000*%
%ADD19R,2.800000X3.000000*%
%ADD20R,2.750000X2.850000*%
%ADD21C,2.000000*%
%ADD22C,0.600000*%
G04 APERTURE END LIST*
D10*
%TO.C,DS10*%
X91662525Y-58075850D03*
X95112525Y-58075850D03*
%TD*%
%TO.C,DI7*%
X61062525Y-36175850D03*
X64512525Y-36175850D03*
%TD*%
%TO.C,D37*%
X66412525Y-64925850D03*
X69862525Y-64925850D03*
%TD*%
%TO.C,DS8*%
X69212525Y-45825850D03*
X72662525Y-45825850D03*
%TD*%
%TO.C,D32*%
X66412525Y-61425850D03*
X69862525Y-61425850D03*
%TD*%
%TO.C,D49*%
X104012525Y-53325850D03*
X107462525Y-53325850D03*
%TD*%
%TO.C,D36*%
X72612525Y-44425850D03*
X76062525Y-44425850D03*
%TD*%
%TO.C,D31*%
X58612475Y-36175850D03*
X55162475Y-36175850D03*
%TD*%
%TO.C,DI9*%
X61062525Y-39557150D03*
X64512525Y-39557150D03*
%TD*%
%TO.C,D47*%
X61035925Y-34475850D03*
X64485925Y-34475850D03*
%TD*%
%TO.C,D51*%
X108012525Y-83925850D03*
X111462525Y-83925850D03*
%TD*%
%TO.C,D41*%
X95312475Y-44025850D03*
X91862475Y-44025850D03*
%TD*%
%TO.C,DS7*%
X75012525Y-35325850D03*
X78462525Y-35325850D03*
%TD*%
%TO.C,D35*%
X72612525Y-42825850D03*
X76062525Y-42825850D03*
%TD*%
%TO.C,DS9*%
X78139025Y-51825850D03*
X81589025Y-51825850D03*
%TD*%
%TO.C,D40*%
X95312475Y-42425850D03*
X91862475Y-42425850D03*
%TD*%
%TO.C,DI10*%
X61062525Y-41175850D03*
X64512525Y-41175850D03*
%TD*%
%TO.C,DI11*%
X61062525Y-42775850D03*
X64512525Y-42775850D03*
%TD*%
%TO.C,D48*%
X104012525Y-51716450D03*
X107462525Y-51716450D03*
%TD*%
%TO.C,D33*%
X66412525Y-63225850D03*
X69862525Y-63225850D03*
%TD*%
%TO.C,D45*%
X97562525Y-44025850D03*
X101012525Y-44025850D03*
%TD*%
%TO.C,D46*%
X97562525Y-58075850D03*
X101012525Y-58075850D03*
%TD*%
%TO.C,D29*%
X61762475Y-59625850D03*
X58312475Y-59625850D03*
%TD*%
%TO.C,D39*%
X78462475Y-33675850D03*
X75012475Y-33675850D03*
%TD*%
%TO.C,D44*%
X97562525Y-42425850D03*
X101012525Y-42425850D03*
%TD*%
%TO.C,D43*%
X58612475Y-34475850D03*
X55162475Y-34475850D03*
%TD*%
%TO.C,D30*%
X61762475Y-61425850D03*
X58312475Y-61425850D03*
%TD*%
%TO.C,DI8*%
X61062525Y-37857150D03*
X64512525Y-37857150D03*
%TD*%
%TO.C,D50*%
X104012525Y-54907150D03*
X107462525Y-54907150D03*
%TD*%
%TO.C,D28*%
X61762475Y-57825850D03*
X58312475Y-57825850D03*
%TD*%
%TO.C,DS11*%
X61062525Y-44375850D03*
X64512525Y-44375850D03*
%TD*%
D11*
%TO.C,SW36*%
X50812500Y-63625850D03*
D12*
X45812500Y-67325850D03*
D11*
X45812500Y-61425850D03*
D13*
X54162500Y-63575850D03*
D14*
X42337500Y-61450850D03*
%TD*%
D11*
%TO.C,SW45*%
X84812500Y-58125850D03*
D12*
X79812500Y-61825850D03*
D11*
X79812500Y-55925850D03*
D13*
X88162500Y-58075850D03*
D14*
X76337500Y-55950850D03*
%TD*%
D11*
%TO.C,SW49*%
X91812500Y-51625850D03*
D12*
X96812500Y-47925850D03*
D11*
X96812500Y-53825850D03*
D13*
X88462500Y-51675850D03*
D14*
X100287500Y-53800850D03*
%TD*%
D15*
%TO.C,J32*%
X105312500Y-63325850D03*
D16*
X105312500Y-65865850D03*
X105312500Y-68405850D03*
X105312500Y-70945850D03*
%TD*%
D11*
%TO.C,SW33*%
X33812500Y-69425850D03*
D12*
X28812500Y-73125850D03*
D11*
X28812500Y-67225850D03*
D13*
X37162500Y-69375850D03*
D14*
X25337500Y-67250850D03*
%TD*%
D17*
%TO.C,Hole4*%
X53912500Y-58825850D03*
%TD*%
D11*
%TO.C,SW44*%
X84812500Y-41125850D03*
D12*
X79812500Y-44825850D03*
D11*
X79812500Y-38925850D03*
D13*
X88162500Y-41075850D03*
D14*
X76337500Y-38950850D03*
%TD*%
D11*
%TO.C,SW40*%
X57812500Y-51625850D03*
D12*
X62812500Y-47925850D03*
D11*
X62812500Y-53825850D03*
D13*
X54462500Y-51675850D03*
D14*
X66287500Y-53800850D03*
%TD*%
D15*
%TO.C,Con_L_12*%
X71312500Y-32225850D03*
D16*
X71312500Y-34765850D03*
X71312500Y-37305850D03*
X71312500Y-39845850D03*
%TD*%
D17*
%TO.C,Hole6*%
X105412500Y-81625850D03*
%TD*%
D11*
%TO.C,SW43*%
X84812500Y-24125850D03*
D12*
X79812500Y-27825850D03*
D11*
X79812500Y-21925850D03*
D13*
X88162500Y-24075850D03*
D14*
X76337500Y-21950850D03*
%TD*%
D15*
%TO.C,Con_L_8*%
X37312500Y-40330850D03*
D16*
X37312500Y-42870850D03*
X37312500Y-45410850D03*
X37312500Y-47950850D03*
%TD*%
D11*
%TO.C,SW32*%
X33812500Y-52425850D03*
D12*
X28812500Y-56125850D03*
D11*
X28812500Y-50225850D03*
D13*
X37162500Y-52375850D03*
D14*
X25337500Y-50250850D03*
%TD*%
D11*
%TO.C,SW47*%
X33812500Y-35425850D03*
D12*
X28812500Y-39125850D03*
D11*
X28812500Y-33225850D03*
D13*
X37162500Y-35375850D03*
D14*
X25337500Y-33250850D03*
%TD*%
D11*
%TO.C,SW52*%
X108812500Y-42825850D03*
D12*
X113812500Y-39125850D03*
D11*
X113812500Y-45025850D03*
D13*
X105462500Y-42875850D03*
D14*
X117287500Y-45000850D03*
%TD*%
D15*
%TO.C,Con_L_10*%
X37312500Y-57025850D03*
D16*
X37312500Y-59565850D03*
X37312500Y-62105850D03*
X37312500Y-64645850D03*
%TD*%
D11*
%TO.C,SW51*%
X50812500Y-29600850D03*
D12*
X45812500Y-33300850D03*
D11*
X45812500Y-27400850D03*
D13*
X54162500Y-29550850D03*
D14*
X42337500Y-27425850D03*
%TD*%
D11*
%TO.C,SW53*%
X108812500Y-59825850D03*
D12*
X113812500Y-56125850D03*
D11*
X113812500Y-62025850D03*
D13*
X105462500Y-59875850D03*
D14*
X117287500Y-62000850D03*
%TD*%
D18*
%TO.C,J9*%
X99712500Y-77865850D03*
D16*
X99712500Y-80405850D03*
X99712500Y-82945850D03*
X99712500Y-85485850D03*
X99712500Y-88025850D03*
X99712500Y-90565850D03*
X99712500Y-93105850D03*
%TD*%
D15*
%TO.C,Con_L_14*%
X71312500Y-49285850D03*
D16*
X71312500Y-51825850D03*
X71312500Y-54365850D03*
X71312500Y-56905850D03*
%TD*%
D11*
%TO.C,SW37*%
X42112500Y-79325850D03*
D12*
X45812500Y-84325850D03*
D11*
X39912500Y-84325850D03*
D19*
X42062500Y-75975850D03*
D20*
X39937500Y-87800850D03*
%TD*%
D11*
%TO.C,SW35*%
X50812500Y-46625850D03*
D12*
X45812500Y-50325850D03*
D11*
X45812500Y-44425850D03*
D13*
X54162500Y-46575850D03*
D14*
X42337500Y-44450850D03*
%TD*%
D11*
%TO.C,SW54*%
X108812500Y-76825850D03*
D12*
X113812500Y-73125850D03*
D11*
X113812500Y-79025850D03*
D13*
X105462500Y-76875850D03*
D14*
X117287500Y-79000850D03*
%TD*%
D11*
%TO.C,SW48*%
X91812500Y-34625850D03*
D12*
X96812500Y-30925850D03*
D11*
X96812500Y-36825850D03*
D13*
X88462500Y-34675850D03*
D14*
X100287500Y-36800850D03*
%TD*%
D17*
%TO.C,Hole5*%
X105812500Y-47625850D03*
%TD*%
D11*
%TO.C,SW50*%
X91812500Y-68625850D03*
D12*
X96812500Y-64925850D03*
D11*
X96812500Y-70825850D03*
D13*
X88462500Y-68675850D03*
D14*
X100287500Y-70800850D03*
%TD*%
D11*
%TO.C,SW39*%
X67812500Y-27225850D03*
D12*
X62812500Y-30925850D03*
D11*
X62812500Y-25025850D03*
D13*
X71162500Y-27175850D03*
D14*
X59337500Y-25050850D03*
%TD*%
D11*
%TO.C,SW41*%
X57812500Y-68625850D03*
D12*
X62812500Y-64925850D03*
D11*
X62812500Y-70825850D03*
D13*
X54462500Y-68675850D03*
D14*
X66287500Y-70800850D03*
%TD*%
D11*
%TO.C,SW55*%
X108812500Y-93825850D03*
D12*
X113812500Y-90125850D03*
D11*
X113812500Y-96025850D03*
D13*
X105462500Y-93875850D03*
D14*
X117287500Y-96000850D03*
%TD*%
D11*
%TO.C,SW34*%
X25112500Y-85125850D03*
D12*
X28812500Y-90125850D03*
D11*
X22912500Y-90125850D03*
D19*
X25062500Y-81775850D03*
D20*
X22937500Y-93600850D03*
%TD*%
D21*
%TO.C,SW4*%
X37212500Y-88625850D03*
X37212500Y-83625850D03*
X37212500Y-86125850D03*
%TD*%
D22*
X100864200Y-72757550D03*
X71312500Y-69114150D03*
X93281100Y-65518950D03*
X74767100Y-60650450D03*
X74767100Y-65518950D03*
X75715100Y-66215450D03*
X60037500Y-60036150D03*
X59580900Y-41750150D03*
X103201300Y-67703050D03*
X75715100Y-59710350D03*
X107253900Y-61755950D03*
X73419200Y-38192850D03*
X101313400Y-87230450D03*
X102900400Y-75106650D03*
X83038800Y-60786850D03*
X75005400Y-58332750D03*
X107253900Y-74979350D03*
X102900400Y-87979450D03*
X82143500Y-58354750D03*
X72215800Y-38389150D03*
X101976200Y-59633350D03*
X101658180Y-72855526D03*
X41873400Y-38675850D03*
X73133200Y-32752450D03*
X90289300Y-54618150D03*
X82550600Y-32752450D03*
X108378500Y-72869650D03*
X39988500Y-77177950D03*
X62773100Y-34766950D03*
X90710800Y-62475550D03*
X108378500Y-62884050D03*
X62774200Y-38675850D03*
X86002200Y-54618150D03*
X39362500Y-55875850D03*
X32345500Y-54928450D03*
X58312500Y-54928450D03*
X66287500Y-44600450D03*
X76062500Y-45406850D03*
X76337500Y-35025450D03*
X91862500Y-36632750D03*
X26523500Y-59482650D03*
X56991000Y-60048050D03*
X50870700Y-65968950D03*
X58312500Y-65968950D03*
X42337500Y-56501450D03*
X69379600Y-56646950D03*
X60332100Y-71254550D03*
X66710300Y-68300750D03*
X44872500Y-71254550D03*
X60332100Y-68300750D03*
X62799500Y-41625550D03*
X76062500Y-41625550D03*
X76337500Y-49732250D03*
X90469200Y-49732250D03*
X64485900Y-33490950D03*
X49671200Y-33631850D03*
X32012500Y-31725850D03*
X55162500Y-31653150D03*
X94003600Y-42934250D03*
X70988000Y-42227250D03*
X73347700Y-58236850D03*
X67823900Y-42227250D03*
X60656800Y-58236850D03*
X103953700Y-44786950D03*
X80004900Y-51142350D03*
X96262500Y-44675850D03*
X83860800Y-44599250D03*
X67099600Y-51680550D03*
X67760600Y-50602850D03*
X66917700Y-48181250D03*
X98504800Y-58928750D03*
X94153300Y-49475550D03*
X95112500Y-59084750D03*
X104433000Y-56868450D03*
X74021000Y-41017250D03*
X67788500Y-41017250D03*
X75228200Y-36753450D03*
X72483300Y-41017250D03*
X60573900Y-32819550D03*
X79364200Y-36753450D03*
X59119400Y-32775850D03*
X93551600Y-48225050D03*
X95857200Y-61707250D03*
X65669700Y-46584650D03*
X102947600Y-74216250D03*
X102582100Y-62193750D03*
X105312250Y-73626100D03*
X110629900Y-73769850D03*
X59912500Y-36606250D03*
X39180100Y-36606250D03*
X41198500Y-40739850D03*
X72700600Y-39845850D03*
X50867400Y-74224550D03*
X54162500Y-43775250D03*
X103631300Y-56679550D03*
X83166400Y-50521150D03*
X42241900Y-73974050D03*
X83166400Y-56324150D03*
X69212500Y-43775250D03*
X55966700Y-59360850D03*
X103476500Y-65865850D03*
X77006100Y-51825850D03*
X101229100Y-56077850D03*
X77795600Y-53419550D03*
X68578900Y-59457950D03*
X76887800Y-64634650D03*
X96245600Y-68405850D03*
X76887800Y-61796550D03*
X88162500Y-64634650D03*
X93869400Y-64634650D03*
X60982300Y-45372350D03*
X48199100Y-44532150D03*
X48199100Y-47421450D03*
X89859000Y-47560950D03*
X53669800Y-35917550D03*
X39806500Y-36002550D03*
X105462500Y-40964650D03*
M02*
