G04 #@! TF.GenerationSoftware,KiCad,Pcbnew,9.0.0*
G04 #@! TF.CreationDate,2025-03-30T21:57:13+09:00*
G04 #@! TF.ProjectId,nofy,6e6f6679-2e6b-4696-9361-645f70636258,rev?*
G04 #@! TF.SameCoordinates,Original*
G04 #@! TF.FileFunction,Soldermask,Top*
G04 #@! TF.FilePolarity,Negative*
%FSLAX46Y46*%
G04 Gerber Fmt 4.6, Leading zero omitted, Abs format (unit mm)*
G04 Created by KiCad (PCBNEW 9.0.0) date 2025-03-30 21:57:13*
%MOMM*%
%LPD*%
G01*
G04 APERTURE LIST*
%ADD10C,3.000000*%
%ADD11C,4.800000*%
%ADD12C,1.000000*%
%ADD13C,2.200000*%
%ADD14C,1.700000*%
%ADD15O,1.700000X1.700000*%
%ADD16C,2.000000*%
%ADD17C,0.600000*%
G04 APERTURE END LIST*
D10*
X106100000Y-84300000D03*
D11*
X109800000Y-89300000D03*
D10*
X103900000Y-89300000D03*
D12*
X115350000Y-94300000D03*
D13*
X32900000Y-80800000D03*
X84500000Y-58500000D03*
D10*
X29800000Y-68600000D03*
D11*
X24800000Y-72300000D03*
D10*
X24800000Y-66400000D03*
D12*
X19800000Y-77850000D03*
D10*
X29800000Y-85600000D03*
D11*
X24800000Y-89300000D03*
D10*
X24800000Y-83400000D03*
D12*
X19800000Y-94850000D03*
D10*
X104800000Y-76000000D03*
D11*
X109800000Y-72300000D03*
D10*
X109800000Y-78200000D03*
D12*
X114800000Y-66750000D03*
D10*
X104800000Y-59000000D03*
D11*
X109800000Y-55300000D03*
D10*
X109800000Y-61200000D03*
D12*
X114800000Y-49750000D03*
D14*
X67300000Y-23160000D03*
D15*
X67300000Y-25700000D03*
X67300000Y-28240000D03*
X67300000Y-30780000D03*
D10*
X53800000Y-64700000D03*
D11*
X58800000Y-61000000D03*
D10*
X58800000Y-66900000D03*
D12*
X63800000Y-55450000D03*
D13*
X32800000Y-46800000D03*
D10*
X46800000Y-77400000D03*
D11*
X41800000Y-81100000D03*
D10*
X41800000Y-75200000D03*
D12*
X36800000Y-86650000D03*
D14*
X101300000Y-46360000D03*
D15*
X101300000Y-48900000D03*
X101300000Y-51440000D03*
X101300000Y-53980000D03*
D10*
X70800000Y-67800000D03*
D11*
X75800000Y-64100000D03*
D10*
X75800000Y-70000000D03*
D12*
X80800000Y-58550000D03*
D10*
X87800000Y-87200000D03*
D11*
X92800000Y-83500000D03*
D10*
X92800000Y-89400000D03*
D12*
X97800000Y-77950000D03*
D10*
X87800000Y-36100000D03*
D11*
X92800000Y-32400000D03*
D10*
X92800000Y-38300000D03*
D12*
X97800000Y-26850000D03*
D10*
X87800000Y-53200000D03*
D11*
X92800000Y-49500000D03*
D10*
X92800000Y-55400000D03*
D12*
X97800000Y-43950000D03*
D10*
X87800000Y-70200000D03*
D11*
X92800000Y-66500000D03*
D10*
X92800000Y-72400000D03*
D12*
X97800000Y-60950000D03*
D10*
X53800000Y-47700000D03*
D11*
X58800000Y-44000000D03*
D10*
X58800000Y-49900000D03*
D12*
X63800000Y-38450000D03*
D10*
X104800000Y-42000000D03*
D11*
X109800000Y-38300000D03*
D10*
X109800000Y-44200000D03*
D12*
X114800000Y-32750000D03*
D10*
X53800000Y-81700000D03*
D11*
X58800000Y-78000000D03*
D10*
X58800000Y-83900000D03*
D12*
X63800000Y-72450000D03*
D13*
X84630000Y-74910000D03*
D10*
X46800000Y-60400000D03*
D11*
X41800000Y-64100000D03*
D10*
X41800000Y-58200000D03*
D12*
X36800000Y-69650000D03*
D10*
X70800000Y-84800000D03*
D11*
X75800000Y-81100000D03*
D10*
X75800000Y-87000000D03*
D12*
X80800000Y-75550000D03*
D10*
X70800000Y-50800000D03*
D11*
X75800000Y-47100000D03*
D10*
X75800000Y-53000000D03*
D12*
X80800000Y-41550000D03*
D10*
X70800000Y-33800000D03*
D11*
X75800000Y-30100000D03*
D10*
X75800000Y-36000000D03*
D12*
X80800000Y-24550000D03*
D10*
X29800000Y-34600000D03*
D11*
X24800000Y-38300000D03*
D10*
X24800000Y-32400000D03*
D12*
X19800000Y-43850000D03*
D14*
X33315000Y-57805000D03*
D15*
X33315000Y-60345000D03*
X33315000Y-62885000D03*
X33315000Y-65425000D03*
D10*
X53800000Y-30700000D03*
D11*
X58800000Y-27000000D03*
D10*
X58800000Y-32900000D03*
D12*
X63800000Y-21450000D03*
D10*
X46800000Y-26400000D03*
D11*
X41800000Y-30100000D03*
D10*
X41800000Y-24200000D03*
D12*
X36800000Y-35650000D03*
D14*
X101315000Y-31305000D03*
D15*
X101315000Y-33845000D03*
X101315000Y-36385000D03*
X101315000Y-38925000D03*
D10*
X29800000Y-51600000D03*
D11*
X24800000Y-55300000D03*
D10*
X24800000Y-49400000D03*
D12*
X19800000Y-60850000D03*
D10*
X46800000Y-43400000D03*
D11*
X41800000Y-47100000D03*
D10*
X41800000Y-41200000D03*
D12*
X36800000Y-52650000D03*
D14*
X67300000Y-38305000D03*
D15*
X67300000Y-40845000D03*
X67300000Y-43385000D03*
X67300000Y-45925000D03*
D16*
X90300000Y-75400000D03*
X95300000Y-75400000D03*
X92800000Y-75400000D03*
D17*
X90950000Y-41747700D03*
X95121200Y-41747700D03*
X90946900Y-46767000D03*
X96400900Y-46767000D03*
X96350000Y-67472800D03*
X106450000Y-66100000D03*
X84378500Y-39787700D03*
X84378500Y-49860300D03*
X36083900Y-48900000D03*
X96679700Y-40573300D03*
X33150000Y-48850000D03*
X99342900Y-46739700D03*
X35750000Y-37750000D03*
X99486700Y-52662300D03*
X99486700Y-48900000D03*
X50150000Y-55624400D03*
X47718400Y-55624400D03*
X62350000Y-35158800D03*
X56559200Y-35053300D03*
X57161100Y-41478100D03*
X62350000Y-40427600D03*
X50450000Y-50315600D03*
X53808800Y-50315600D03*
X74851700Y-39878900D03*
X79350000Y-39724300D03*
X95788300Y-45241000D03*
X95788300Y-51440000D03*
X68654600Y-43390200D03*
X59214100Y-36584300D03*
X36229700Y-55905900D03*
X77310100Y-41996700D03*
X95181200Y-47536600D03*
X60600000Y-41573800D03*
X109931900Y-47536600D03*
X34168900Y-43022500D03*
X49550000Y-36100000D03*
X34798200Y-55905900D03*
X36229700Y-62885000D03*
X34168900Y-43022500D03*
X47750000Y-40640700D03*
X65397200Y-41573800D03*
X94225100Y-44558000D03*
X78893300Y-43806600D03*
X84424400Y-81368600D03*
X116031800Y-80779500D03*
X116031800Y-70146200D03*
X66300000Y-78395700D03*
X112067400Y-70146200D03*
X65317500Y-73397000D03*
X47718400Y-73397000D03*
X32050000Y-78150000D03*
X78226600Y-78587600D03*
X33600000Y-75500000D03*
X35829600Y-67472800D03*
X78226600Y-75178900D03*
X47773500Y-69006700D03*
X84411100Y-78587600D03*
X64781200Y-69693400D03*
X101407000Y-81431400D03*
X64781200Y-70733000D03*
X64781200Y-30780000D03*
X66366100Y-75178900D03*
X66300000Y-70733000D03*
X113612000Y-81431400D03*
X35829600Y-73400000D03*
X101407000Y-79259800D03*
X94446200Y-41145900D03*
X60570300Y-36897900D03*
X96985900Y-45184200D03*
X64151700Y-36950000D03*
X77323300Y-38009600D03*
X33150000Y-41650000D03*
X111300000Y-46011000D03*
X47750000Y-35114300D03*
X78518400Y-40966600D03*
X98155000Y-46423500D03*
X99170900Y-45716900D03*
X98927800Y-73083000D03*
X103791600Y-82283300D03*
X96350000Y-82283300D03*
X107090500Y-78645100D03*
X103791600Y-78645100D03*
X107850000Y-46754100D03*
X113350000Y-46754100D03*
X113350000Y-50350000D03*
X107876600Y-50350000D03*
X79509900Y-41568300D03*
X79509900Y-46738100D03*
X88775400Y-46738100D03*
X82453200Y-43760000D03*
X82453200Y-23271100D03*
X98216300Y-63564800D03*
X89649600Y-43760000D03*
X98216300Y-75400000D03*
X90067600Y-63564800D03*
X71580000Y-42788500D03*
X105942000Y-78015300D03*
X71580000Y-38273700D03*
X102461800Y-44258600D03*
X101519200Y-78255700D03*
X101300000Y-56743200D03*
X88191600Y-58586500D03*
X84822300Y-67220900D03*
X88191600Y-67220900D03*
X88191600Y-55357300D03*
X83608700Y-55455100D03*
M02*
