M48
; DRILL file {KiCad 9.0.0} date 2025-03-30T21:57:49+0900
; FORMAT={-:-/ absolute / metric / decimal}
; #@! TF.CreationDate,2025-03-30T21:57:49+09:00
; #@! TF.GenerationSoftware,Kicad,Pcbnew,9.0.0
; #@! TF.FileFunction,Plated,1,2,PTH
FMAT,2
METRIC
; #@! TA.AperFunction,Plated,PTH,ViaDrill
T1C0.300
; #@! TA.AperFunction,Plated,PTH,ComponentDrill
T2C1.000
%
G90
G05
T1
X32.05Y-78.15
X33.15Y-41.65
X33.15Y-48.85
X33.6Y-75.5
X34.169Y-43.023
X34.169Y-43.023
X34.798Y-55.906
X35.75Y-37.75
X35.83Y-67.473
X35.83Y-73.4
X36.084Y-48.9
X36.23Y-55.906
X36.23Y-62.885
X47.718Y-55.624
X47.718Y-73.397
X47.75Y-35.114
X47.75Y-40.641
X47.773Y-69.007
X49.55Y-36.1
X50.15Y-55.624
X50.45Y-50.316
X53.809Y-50.316
X56.559Y-35.053
X57.161Y-41.478
X59.214Y-36.584
X60.57Y-36.898
X60.6Y-41.574
X62.35Y-35.159
X62.35Y-40.428
X64.152Y-36.95
X64.781Y-30.78
X64.781Y-69.693
X64.781Y-70.733
X65.317Y-73.397
X65.397Y-41.574
X66.3Y-70.733
X66.3Y-78.396
X66.366Y-75.179
X68.655Y-43.39
X71.58Y-38.274
X71.58Y-42.788
X74.852Y-39.879
X77.31Y-41.997
X77.323Y-38.01
X78.227Y-75.179
X78.227Y-78.588
X78.518Y-40.967
X78.893Y-43.807
X79.35Y-39.724
X79.51Y-41.568
X79.51Y-46.738
X82.453Y-23.271
X82.453Y-43.76
X83.609Y-55.455
X84.379Y-39.788
X84.379Y-49.86
X84.411Y-78.588
X84.424Y-81.369
X84.822Y-67.221
X88.192Y-55.357
X88.192Y-58.586
X88.192Y-67.221
X88.775Y-46.738
X89.65Y-43.76
X90.068Y-63.565
X90.947Y-46.767
X90.95Y-41.748
X94.225Y-44.558
X94.446Y-41.146
X95.121Y-41.748
X95.181Y-47.537
X95.788Y-45.241
X95.788Y-51.44
X96.35Y-67.473
X96.35Y-82.283
X96.401Y-46.767
X96.68Y-40.573
X96.986Y-45.184
X98.155Y-46.423
X98.216Y-63.565
X98.216Y-75.4
X98.928Y-73.083
X99.171Y-45.717
X99.343Y-46.74
X99.487Y-48.9
X99.487Y-52.662
X101.3Y-56.743
X101.407Y-79.26
X101.407Y-81.431
X101.519Y-78.256
X102.462Y-44.259
X103.792Y-78.645
X103.792Y-82.283
X105.942Y-78.015
X106.45Y-66.1
X107.09Y-78.645
X107.85Y-46.754
X107.877Y-50.35
X109.932Y-47.537
X111.3Y-46.011
X112.067Y-70.146
X113.35Y-46.754
X113.35Y-50.35
X113.612Y-81.431
X116.032Y-70.146
X116.032Y-80.779
T2
X33.315Y-57.805
X33.315Y-60.345
X33.315Y-62.885
X33.315Y-65.425
X67.3Y-23.16
X67.3Y-25.7
X67.3Y-28.24
X67.3Y-30.78
X67.3Y-38.305
X67.3Y-40.845
X67.3Y-43.385
X67.3Y-45.925
X90.3Y-75.4
X92.8Y-75.4
X95.3Y-75.4
X101.3Y-46.36
X101.3Y-48.9
X101.3Y-51.44
X101.3Y-53.98
X101.315Y-31.305
X101.315Y-33.845
X101.315Y-36.385
X101.315Y-38.925
M30
