G04 #@! TF.GenerationSoftware,KiCad,Pcbnew,9.0.0*
G04 #@! TF.CreationDate,2025-03-30T21:57:13+09:00*
G04 #@! TF.ProjectId,nofy,6e6f6679-2e6b-4696-9361-645f70636258,rev?*
G04 #@! TF.SameCoordinates,Original*
G04 #@! TF.FileFunction,Profile,NP*
%FSLAX46Y46*%
G04 Gerber Fmt 4.6, Leading zero omitted, Abs format (unit mm)*
G04 Created by KiCad (PCBNEW 9.0.0) date 2025-03-30 21:57:13*
%MOMM*%
%LPD*%
G01*
G04 APERTURE LIST*
G04 #@! TA.AperFunction,Profile*
%ADD10C,0.050000*%
G04 #@! TD*
G04 APERTURE END LIST*
D10*
X68100000Y-21800000D02*
G75*
G02*
X67100000Y-20800000I0J1000000D01*
G01*
X85100000Y-24100000D02*
X100100000Y-24100000D01*
X67100000Y-19700000D02*
X67100000Y-20800000D01*
X18700000Y-30000000D02*
X32500000Y-29999993D01*
X17700000Y-31000000D02*
G75*
G02*
X18700000Y-30000000I1000000J0D01*
G01*
X102500000Y-97600000D02*
G75*
G02*
X101500000Y-96600000I0J1000000D01*
G01*
X17700000Y-96600000D02*
X17700000Y-31000000D01*
X50500000Y-20800000D02*
G75*
G02*
X49500000Y-21800000I-1000000J0D01*
G01*
X116400000Y-30000000D02*
X102100000Y-30000000D01*
X33500000Y-28999993D02*
X33500000Y-22800000D01*
X66100000Y-18700000D02*
G75*
G02*
X67100000Y-19700000I0J-1000000D01*
G01*
X117400000Y-31000000D02*
X117400000Y-96600000D01*
X83500000Y-89400000D02*
G75*
G02*
X84500000Y-90400000I0J-1000000D01*
G01*
X50100000Y-87300000D02*
X50100000Y-88400000D01*
X50500000Y-20800000D02*
X50500000Y-19700000D01*
X50100000Y-88400000D02*
G75*
G02*
X49100000Y-89400000I-1000000J0D01*
G01*
X83500000Y-89400000D02*
X68500000Y-89400000D01*
X84100000Y-22800000D02*
X84100000Y-23100000D01*
X50500000Y-19700000D02*
G75*
G02*
X51500000Y-18700000I1000000J0D01*
G01*
X101100000Y-25100000D02*
X101100000Y-28996246D01*
X18700000Y-97600000D02*
G75*
G02*
X17700000Y-96600000I0J1000000D01*
G01*
X68500000Y-89400000D02*
G75*
G02*
X67500000Y-88400000I0J1000000D01*
G01*
X66500000Y-86300000D02*
X51100000Y-86300000D01*
X100500000Y-91800000D02*
G75*
G02*
X101500000Y-92800000I0J-1000000D01*
G01*
X102100000Y-30000000D02*
G75*
G02*
X101100000Y-29000000I0J1000000D01*
G01*
X68100000Y-21800000D02*
X83100000Y-21800000D01*
X85100000Y-24100000D02*
G75*
G02*
X84100000Y-23100000I0J1000000D01*
G01*
X116400000Y-97600000D02*
X102500000Y-97600000D01*
X85500000Y-91800000D02*
G75*
G02*
X84500000Y-90800000I0J1000000D01*
G01*
X33100000Y-90400000D02*
G75*
G02*
X34100000Y-89400000I1000000J0D01*
G01*
X33100000Y-90400000D02*
X33100000Y-96600000D01*
X51500000Y-18700000D02*
X66100000Y-18700000D01*
X33500000Y-28999993D02*
G75*
G02*
X32500000Y-30000000I-1000000J-7D01*
G01*
X100500000Y-91800000D02*
X85500000Y-91800000D01*
X67500000Y-88400000D02*
X67500000Y-87300000D01*
X33100000Y-96600000D02*
G75*
G02*
X32100000Y-97600000I-1000000J0D01*
G01*
X49100000Y-89400000D02*
X34100000Y-89400000D01*
X100100000Y-24100000D02*
G75*
G02*
X101100000Y-25100000I0J-1000000D01*
G01*
X84500000Y-90800000D02*
X84500000Y-90400000D01*
X50100000Y-87300000D02*
G75*
G02*
X51100000Y-86300000I1000000J0D01*
G01*
X66500000Y-86300000D02*
G75*
G02*
X67500000Y-87300000I0J-1000000D01*
G01*
X33500000Y-22800000D02*
G75*
G02*
X34500000Y-21800000I1000000J0D01*
G01*
X83100000Y-21800000D02*
G75*
G02*
X84100000Y-22800000I0J-1000000D01*
G01*
X101500000Y-96600000D02*
X101500000Y-92800000D01*
X32100000Y-97600000D02*
X18700000Y-97600000D01*
X34500000Y-21800000D02*
X49500000Y-21800000D01*
X116400000Y-30000000D02*
G75*
G02*
X117400000Y-31000000I0J-1000000D01*
G01*
X117400000Y-96600000D02*
G75*
G02*
X116400000Y-97600000I-1000000J0D01*
G01*
M02*
