G04 #@! TF.GenerationSoftware,KiCad,Pcbnew,9.0.0*
G04 #@! TF.CreationDate,2025-03-30T21:57:13+09:00*
G04 #@! TF.ProjectId,nofy,6e6f6679-2e6b-4696-9361-645f70636258,rev?*
G04 #@! TF.SameCoordinates,Original*
G04 #@! TF.FileFunction,Legend,Bot*
G04 #@! TF.FilePolarity,Positive*
%FSLAX46Y46*%
G04 Gerber Fmt 4.6, Leading zero omitted, Abs format (unit mm)*
G04 Created by KiCad (PCBNEW 9.0.0) date 2025-03-30 21:57:13*
%MOMM*%
%LPD*%
G01*
G04 APERTURE LIST*
%ADD10C,0.150000*%
%ADD11C,0.500000*%
%ADD12C,0.200000*%
G04 APERTURE END LIST*
D10*
X112363220Y-96203152D02*
X112363220Y-96869819D01*
X112363220Y-96298390D02*
X112315601Y-96250771D01*
X112315601Y-96250771D02*
X112220363Y-96203152D01*
X112220363Y-96203152D02*
X112077506Y-96203152D01*
X112077506Y-96203152D02*
X111982268Y-96250771D01*
X111982268Y-96250771D02*
X111934649Y-96346009D01*
X111934649Y-96346009D02*
X111934649Y-96869819D01*
X111315601Y-96869819D02*
X111410839Y-96822200D01*
X111410839Y-96822200D02*
X111458458Y-96774580D01*
X111458458Y-96774580D02*
X111506077Y-96679342D01*
X111506077Y-96679342D02*
X111506077Y-96393628D01*
X111506077Y-96393628D02*
X111458458Y-96298390D01*
X111458458Y-96298390D02*
X111410839Y-96250771D01*
X111410839Y-96250771D02*
X111315601Y-96203152D01*
X111315601Y-96203152D02*
X111172744Y-96203152D01*
X111172744Y-96203152D02*
X111077506Y-96250771D01*
X111077506Y-96250771D02*
X111029887Y-96298390D01*
X111029887Y-96298390D02*
X110982268Y-96393628D01*
X110982268Y-96393628D02*
X110982268Y-96679342D01*
X110982268Y-96679342D02*
X111029887Y-96774580D01*
X111029887Y-96774580D02*
X111077506Y-96822200D01*
X111077506Y-96822200D02*
X111172744Y-96869819D01*
X111172744Y-96869819D02*
X111315601Y-96869819D01*
X110696553Y-96203152D02*
X110315601Y-96203152D01*
X110553696Y-96869819D02*
X110553696Y-96012676D01*
X110553696Y-96012676D02*
X110506077Y-95917438D01*
X110506077Y-95917438D02*
X110410839Y-95869819D01*
X110410839Y-95869819D02*
X110315601Y-95869819D01*
X110077505Y-96203152D02*
X109839410Y-96869819D01*
X109601315Y-96203152D02*
X109839410Y-96869819D01*
X109839410Y-96869819D02*
X109934648Y-97107914D01*
X109934648Y-97107914D02*
X109982267Y-97155533D01*
X109982267Y-97155533D02*
X110077505Y-97203152D01*
X108601314Y-95869819D02*
X108267981Y-96869819D01*
X108267981Y-96869819D02*
X107934648Y-95869819D01*
X107648933Y-95965057D02*
X107601314Y-95917438D01*
X107601314Y-95917438D02*
X107506076Y-95869819D01*
X107506076Y-95869819D02*
X107267981Y-95869819D01*
X107267981Y-95869819D02*
X107172743Y-95917438D01*
X107172743Y-95917438D02*
X107125124Y-95965057D01*
X107125124Y-95965057D02*
X107077505Y-96060295D01*
X107077505Y-96060295D02*
X107077505Y-96155533D01*
X107077505Y-96155533D02*
X107125124Y-96298390D01*
X107125124Y-96298390D02*
X107696552Y-96869819D01*
X107696552Y-96869819D02*
X107077505Y-96869819D01*
X101575000Y-90600000D02*
X101575000Y-88275000D01*
X101600000Y-88300000D02*
X106200000Y-88300000D01*
X101600000Y-88450000D02*
X106200000Y-88450000D01*
X101600000Y-88600000D02*
X106200000Y-88600000D01*
X101600000Y-88750000D02*
X106200000Y-88750000D01*
X101600000Y-88900000D02*
X106200000Y-88900000D01*
X101600000Y-89050000D02*
X106200000Y-89050000D01*
X101600000Y-89200000D02*
X106200000Y-89200000D01*
X101600000Y-89350000D02*
X106200000Y-89350000D01*
X101600000Y-89500000D02*
X106200000Y-89500000D01*
X101600000Y-89650000D02*
X106200000Y-89650000D01*
X101600000Y-89800000D02*
X106200000Y-89800000D01*
X101600000Y-89950000D02*
X106200000Y-89950000D01*
X101600000Y-90100000D02*
X106200000Y-90100000D01*
X101600000Y-90250000D02*
X106200000Y-90250000D01*
X101600000Y-90400000D02*
X106200000Y-90400000D01*
X101600000Y-90550000D02*
X106200000Y-90550000D01*
X101690000Y-88150000D02*
X106150000Y-88150000D01*
X101710000Y-90700000D02*
X106100000Y-90700000D01*
X101810000Y-88000000D02*
X106200000Y-88000000D01*
X101850000Y-90850000D02*
X105970000Y-90850000D01*
X101920000Y-87850000D02*
X106200000Y-87850000D01*
X101980000Y-91000000D02*
X105810000Y-91000000D01*
X102040000Y-87700000D02*
X106200000Y-87700000D01*
X102140000Y-91150000D02*
X105670000Y-91150000D01*
X102180000Y-87550000D02*
X106300000Y-87550000D01*
X102240000Y-91250000D02*
X105570000Y-91250000D01*
X102280000Y-87410000D02*
X106350000Y-87400000D01*
X102350000Y-91350000D02*
X105470000Y-91350000D01*
X102370000Y-87300000D02*
X106400000Y-87300000D01*
X102430000Y-91450000D02*
X105360000Y-91450000D01*
X102450000Y-87200000D02*
X106450000Y-87200000D01*
X102530000Y-87100000D02*
X106550000Y-87100000D01*
X102575000Y-91600000D02*
X101575000Y-90600000D01*
X102600000Y-87000000D02*
X101575000Y-88275000D01*
X102600000Y-87000000D02*
X106750000Y-87000000D01*
X102780000Y-86900000D02*
X106900000Y-86900000D01*
X102950000Y-86800000D02*
X107850000Y-86800000D01*
X103100000Y-86650000D02*
X108050000Y-86650000D01*
X103250000Y-86500000D02*
X108240000Y-86500000D01*
X103350000Y-86350000D02*
X108320000Y-86350000D01*
X103450000Y-86200000D02*
X108370000Y-86200000D01*
X103550000Y-86050000D02*
X108400000Y-86050000D01*
X103600000Y-85900000D02*
X108420000Y-85900000D01*
X103700000Y-85750000D02*
X108410000Y-85750000D01*
X103750000Y-85450000D02*
X108400000Y-85450000D01*
X103750000Y-85600000D02*
X108350000Y-85600000D01*
X103760000Y-85300000D02*
X108400000Y-85300000D01*
X103775000Y-85000000D02*
X103775000Y-83025000D01*
X103790000Y-82900000D02*
X108300000Y-82900000D01*
X103800000Y-83050000D02*
X108400000Y-83050000D01*
X103800000Y-83200000D02*
X108400000Y-83200000D01*
X103800000Y-83350000D02*
X108400000Y-83350000D01*
X103800000Y-83500000D02*
X108400000Y-83500000D01*
X103800000Y-83650000D02*
X108400000Y-83650000D01*
X103800000Y-83800000D02*
X108400000Y-83800000D01*
X103800000Y-83950000D02*
X108400000Y-83950000D01*
X103800000Y-84100000D02*
X108400000Y-84100000D01*
X103800000Y-84250000D02*
X108400000Y-84250000D01*
X103800000Y-84400000D02*
X108400000Y-84400000D01*
X103800000Y-84550000D02*
X108400000Y-84550000D01*
X103800000Y-84700000D02*
X108400000Y-84700000D01*
X103800000Y-84850000D02*
X108400000Y-84850000D01*
X103800000Y-85000000D02*
X108400000Y-85000000D01*
X103800000Y-85150000D02*
X108350000Y-85150000D01*
X103830000Y-82750000D02*
X108150000Y-82750000D01*
X103880000Y-82600000D02*
X108000000Y-82600000D01*
X103960000Y-82450000D02*
X108100000Y-82450000D01*
X104100000Y-82300000D02*
X108070000Y-82300000D01*
X104270000Y-82150000D02*
X107950000Y-82150000D01*
X105225000Y-91600000D02*
X102575000Y-91600000D01*
X105225000Y-91600000D02*
X106225000Y-90600000D01*
X106225000Y-90600000D02*
X106225000Y-88025000D01*
X107400000Y-86850000D02*
X107723113Y-86850000D01*
X107425000Y-81995000D02*
X104775000Y-81995000D01*
D11*
X108245000Y-79100000D02*
X106745000Y-79100000D01*
X108245000Y-83500000D02*
X108245000Y-79100000D01*
D10*
X108425000Y-85988796D02*
X108425000Y-83025000D01*
X103775000Y-82995000D02*
G75*
G02*
X104775000Y-81995000I999999J1D01*
G01*
X103782542Y-85000000D02*
G75*
G02*
X102600000Y-87000000I-2282546J2D01*
G01*
X106225000Y-88025000D02*
G75*
G02*
X107400000Y-86850000I1175002J-2D01*
G01*
X107425000Y-81995000D02*
G75*
G02*
X108425000Y-82995000I1J-999999D01*
G01*
X108425000Y-85988796D02*
G75*
G02*
X107723113Y-86850000I-926887J38796D01*
G01*
X109700000Y-79300000D02*
G75*
G02*
X108700000Y-79300000I-500000J0D01*
G01*
X108700000Y-79300000D02*
G75*
G02*
X109700000Y-79300000I500000J0D01*
G01*
D12*
X91881215Y-42904686D02*
X91881215Y-44095314D01*
X91881215Y-43500000D02*
X91682777Y-43500000D01*
X91881215Y-44095314D02*
X93468719Y-44095314D01*
X93071843Y-42904686D02*
X93071843Y-44095314D01*
X93468719Y-42904686D02*
X91881215Y-42904686D01*
X93468719Y-44095314D02*
X93468719Y-42904686D01*
X93667157Y-43500000D02*
X93468719Y-43500000D01*
X45231215Y-35504686D02*
X45231215Y-36695314D01*
X45231215Y-36100000D02*
X45032777Y-36100000D01*
X45231215Y-36695314D02*
X46818719Y-36695314D01*
X46421843Y-35504686D02*
X46421843Y-36695314D01*
X46818719Y-35504686D02*
X45231215Y-35504686D01*
X46818719Y-36695314D02*
X46818719Y-35504686D01*
X47017157Y-36100000D02*
X46818719Y-36100000D01*
X91878115Y-45104686D02*
X91878115Y-46295314D01*
X91878115Y-45700000D02*
X91679677Y-45700000D01*
X91878115Y-46295314D02*
X93465619Y-46295314D01*
X93068743Y-45104686D02*
X93068743Y-46295314D01*
X93465619Y-45104686D02*
X91878115Y-45104686D01*
X93465619Y-46295314D02*
X93465619Y-45104686D01*
X93664057Y-45700000D02*
X93465619Y-45700000D01*
X63781215Y-76204686D02*
X63781215Y-77395314D01*
X63781215Y-76800000D02*
X63582777Y-76800000D01*
X63781215Y-77395314D02*
X65368719Y-77395314D01*
X64971843Y-76204686D02*
X64971843Y-77395314D01*
X65368719Y-76204686D02*
X63781215Y-76204686D01*
X65368719Y-77395314D02*
X65368719Y-76204686D01*
X65567157Y-76800000D02*
X65368719Y-76800000D01*
X28254715Y-77529686D02*
X28254715Y-78720314D01*
X28254715Y-78125000D02*
X28056277Y-78125000D01*
X28254715Y-78720314D02*
X29842219Y-78720314D01*
X29445343Y-77529686D02*
X29445343Y-78720314D01*
X29842219Y-77529686D02*
X28254715Y-77529686D01*
X29842219Y-78720314D02*
X29842219Y-77529686D01*
X30040657Y-78125000D02*
X29842219Y-78125000D01*
D10*
X22500000Y-65075000D02*
X23500000Y-64075000D01*
X22500000Y-67725000D02*
X22500000Y-65075000D01*
X22500000Y-67725000D02*
X23500000Y-68725000D01*
X22650000Y-64930000D02*
X22650000Y-67860000D01*
X22750000Y-64850000D02*
X22750000Y-67970000D01*
X22850000Y-64740000D02*
X22850000Y-68070000D01*
X22950000Y-64640000D02*
X22950000Y-68170000D01*
X23100000Y-64480000D02*
X23100000Y-68310000D01*
X23250000Y-64350000D02*
X23250000Y-68470000D01*
X23400000Y-64210000D02*
X23400000Y-68600000D01*
X23500000Y-64075000D02*
X25825000Y-64075000D01*
X23500000Y-68725000D02*
X26075000Y-68725000D01*
X23550000Y-64100000D02*
X23550000Y-68700000D01*
X23700000Y-64100000D02*
X23700000Y-68700000D01*
X23850000Y-64100000D02*
X23850000Y-68700000D01*
X24000000Y-64100000D02*
X24000000Y-68700000D01*
X24150000Y-64100000D02*
X24150000Y-68700000D01*
X24300000Y-64100000D02*
X24300000Y-68700000D01*
X24450000Y-64100000D02*
X24450000Y-68700000D01*
X24600000Y-64100000D02*
X24600000Y-68700000D01*
X24750000Y-64100000D02*
X24750000Y-68700000D01*
X24900000Y-64100000D02*
X24900000Y-68700000D01*
X25050000Y-64100000D02*
X25050000Y-68700000D01*
X25200000Y-64100000D02*
X25200000Y-68700000D01*
X25350000Y-64100000D02*
X25350000Y-68700000D01*
X25500000Y-64100000D02*
X25500000Y-68700000D01*
X25650000Y-64100000D02*
X25650000Y-68700000D01*
X25800000Y-64100000D02*
X25800000Y-68700000D01*
X25950000Y-64190000D02*
X25950000Y-68650000D01*
X26100000Y-64310000D02*
X26100000Y-68700000D01*
X26250000Y-64420000D02*
X26250000Y-68700000D01*
X26400000Y-64540000D02*
X26400000Y-68700000D01*
X26550000Y-64680000D02*
X26550000Y-68800000D01*
X26690000Y-64780000D02*
X26700000Y-68850000D01*
X26800000Y-64870000D02*
X26800000Y-68900000D01*
X26900000Y-64950000D02*
X26900000Y-68950000D01*
X27000000Y-65030000D02*
X27000000Y-69050000D01*
X27100000Y-65100000D02*
X25825000Y-64075000D01*
X27100000Y-65100000D02*
X27100000Y-69250000D01*
X27200000Y-65280000D02*
X27200000Y-69400000D01*
X27250000Y-69900000D02*
X27250000Y-70223113D01*
X27300000Y-65450000D02*
X27300000Y-70350000D01*
X27450000Y-65600000D02*
X27450000Y-70550000D01*
X27600000Y-65750000D02*
X27600000Y-70740000D01*
X27750000Y-65850000D02*
X27750000Y-70820000D01*
X27900000Y-65950000D02*
X27900000Y-70870000D01*
X28050000Y-66050000D02*
X28050000Y-70900000D01*
X28111204Y-70925000D02*
X31075000Y-70925000D01*
X28200000Y-66100000D02*
X28200000Y-70920000D01*
X28350000Y-66200000D02*
X28350000Y-70910000D01*
X28500000Y-66250000D02*
X28500000Y-70850000D01*
X28650000Y-66250000D02*
X28650000Y-70900000D01*
X28800000Y-66260000D02*
X28800000Y-70900000D01*
X28950000Y-66300000D02*
X28950000Y-70850000D01*
X29100000Y-66275000D02*
X31075000Y-66275000D01*
X29100000Y-66300000D02*
X29100000Y-70900000D01*
X29250000Y-66300000D02*
X29250000Y-70900000D01*
X29400000Y-66300000D02*
X29400000Y-70900000D01*
X29550000Y-66300000D02*
X29550000Y-70900000D01*
X29700000Y-66300000D02*
X29700000Y-70900000D01*
X29850000Y-66300000D02*
X29850000Y-70900000D01*
X30000000Y-66300000D02*
X30000000Y-70900000D01*
X30150000Y-66300000D02*
X30150000Y-70900000D01*
X30300000Y-66300000D02*
X30300000Y-70900000D01*
X30450000Y-66300000D02*
X30450000Y-70900000D01*
X30600000Y-66300000D02*
X30600000Y-70900000D01*
D11*
X30600000Y-70745000D02*
X35000000Y-70745000D01*
D10*
X30750000Y-66300000D02*
X30750000Y-70900000D01*
X30900000Y-66300000D02*
X30900000Y-70900000D01*
X31050000Y-66300000D02*
X31050000Y-70900000D01*
X31200000Y-66290000D02*
X31200000Y-70800000D01*
X31350000Y-66330000D02*
X31350000Y-70650000D01*
X31500000Y-66380000D02*
X31500000Y-70500000D01*
X31650000Y-66460000D02*
X31650000Y-70600000D01*
X31800000Y-66600000D02*
X31800000Y-70570000D01*
X31950000Y-66770000D02*
X31950000Y-70450000D01*
X32105000Y-69925000D02*
X32105000Y-67275000D01*
D11*
X35000000Y-70745000D02*
X35000000Y-69245000D01*
D10*
X26075000Y-68725000D02*
G75*
G02*
X27250000Y-69900000I-2J-1175002D01*
G01*
X28111204Y-70925000D02*
G75*
G02*
X27250000Y-70223113I38796J926887D01*
G01*
X29100000Y-66282542D02*
G75*
G02*
X27100000Y-65100000I2J2282546D01*
G01*
X31105000Y-66275000D02*
G75*
G02*
X32105000Y-67275000I1J-999999D01*
G01*
X32105000Y-69925000D02*
G75*
G02*
X31105000Y-70925000I-999999J-1D01*
G01*
X35300000Y-71700000D02*
G75*
G02*
X34300000Y-71700000I-500000J0D01*
G01*
X34300000Y-71700000D02*
G75*
G02*
X35300000Y-71700000I500000J0D01*
G01*
X22500000Y-82075000D02*
X23500000Y-81075000D01*
X22500000Y-84725000D02*
X22500000Y-82075000D01*
X22500000Y-84725000D02*
X23500000Y-85725000D01*
X22650000Y-81930000D02*
X22650000Y-84860000D01*
X22750000Y-81850000D02*
X22750000Y-84970000D01*
X22850000Y-81740000D02*
X22850000Y-85070000D01*
X22950000Y-81640000D02*
X22950000Y-85170000D01*
X23100000Y-81480000D02*
X23100000Y-85310000D01*
X23250000Y-81350000D02*
X23250000Y-85470000D01*
X23400000Y-81210000D02*
X23400000Y-85600000D01*
X23500000Y-81075000D02*
X25825000Y-81075000D01*
X23500000Y-85725000D02*
X26075000Y-85725000D01*
X23550000Y-81100000D02*
X23550000Y-85700000D01*
X23700000Y-81100000D02*
X23700000Y-85700000D01*
X23850000Y-81100000D02*
X23850000Y-85700000D01*
X24000000Y-81100000D02*
X24000000Y-85700000D01*
X24150000Y-81100000D02*
X24150000Y-85700000D01*
X24300000Y-81100000D02*
X24300000Y-85700000D01*
X24450000Y-81100000D02*
X24450000Y-85700000D01*
X24600000Y-81100000D02*
X24600000Y-85700000D01*
X24750000Y-81100000D02*
X24750000Y-85700000D01*
X24900000Y-81100000D02*
X24900000Y-85700000D01*
X25050000Y-81100000D02*
X25050000Y-85700000D01*
X25200000Y-81100000D02*
X25200000Y-85700000D01*
X25350000Y-81100000D02*
X25350000Y-85700000D01*
X25500000Y-81100000D02*
X25500000Y-85700000D01*
X25650000Y-81100000D02*
X25650000Y-85700000D01*
X25800000Y-81100000D02*
X25800000Y-85700000D01*
X25950000Y-81190000D02*
X25950000Y-85650000D01*
X26100000Y-81310000D02*
X26100000Y-85700000D01*
X26250000Y-81420000D02*
X26250000Y-85700000D01*
X26400000Y-81540000D02*
X26400000Y-85700000D01*
X26550000Y-81680000D02*
X26550000Y-85800000D01*
X26690000Y-81780000D02*
X26700000Y-85850000D01*
X26800000Y-81870000D02*
X26800000Y-85900000D01*
X26900000Y-81950000D02*
X26900000Y-85950000D01*
X27000000Y-82030000D02*
X27000000Y-86050000D01*
X27100000Y-82100000D02*
X25825000Y-81075000D01*
X27100000Y-82100000D02*
X27100000Y-86250000D01*
X27200000Y-82280000D02*
X27200000Y-86400000D01*
X27250000Y-86900000D02*
X27250000Y-87223113D01*
X27300000Y-82450000D02*
X27300000Y-87350000D01*
X27450000Y-82600000D02*
X27450000Y-87550000D01*
X27600000Y-82750000D02*
X27600000Y-87740000D01*
X27750000Y-82850000D02*
X27750000Y-87820000D01*
X27900000Y-82950000D02*
X27900000Y-87870000D01*
X28050000Y-83050000D02*
X28050000Y-87900000D01*
X28111204Y-87925000D02*
X31075000Y-87925000D01*
X28200000Y-83100000D02*
X28200000Y-87920000D01*
X28350000Y-83200000D02*
X28350000Y-87910000D01*
X28500000Y-83250000D02*
X28500000Y-87850000D01*
X28650000Y-83250000D02*
X28650000Y-87900000D01*
X28800000Y-83260000D02*
X28800000Y-87900000D01*
X28950000Y-83300000D02*
X28950000Y-87850000D01*
X29100000Y-83275000D02*
X31075000Y-83275000D01*
X29100000Y-83300000D02*
X29100000Y-87900000D01*
X29250000Y-83300000D02*
X29250000Y-87900000D01*
X29400000Y-83300000D02*
X29400000Y-87900000D01*
X29550000Y-83300000D02*
X29550000Y-87900000D01*
X29700000Y-83300000D02*
X29700000Y-87900000D01*
X29850000Y-83300000D02*
X29850000Y-87900000D01*
X30000000Y-83300000D02*
X30000000Y-87900000D01*
X30150000Y-83300000D02*
X30150000Y-87900000D01*
X30300000Y-83300000D02*
X30300000Y-87900000D01*
X30450000Y-83300000D02*
X30450000Y-87900000D01*
X30600000Y-83300000D02*
X30600000Y-87900000D01*
D11*
X30600000Y-87745000D02*
X35000000Y-87745000D01*
D10*
X30750000Y-83300000D02*
X30750000Y-87900000D01*
X30900000Y-83300000D02*
X30900000Y-87900000D01*
X31050000Y-83300000D02*
X31050000Y-87900000D01*
X31200000Y-83290000D02*
X31200000Y-87800000D01*
X31350000Y-83330000D02*
X31350000Y-87650000D01*
X31500000Y-83380000D02*
X31500000Y-87500000D01*
X31650000Y-83460000D02*
X31650000Y-87600000D01*
X31800000Y-83600000D02*
X31800000Y-87570000D01*
X31950000Y-83770000D02*
X31950000Y-87450000D01*
X32105000Y-86925000D02*
X32105000Y-84275000D01*
D11*
X35000000Y-87745000D02*
X35000000Y-86245000D01*
D10*
X26075000Y-85725000D02*
G75*
G02*
X27250000Y-86900000I-2J-1175002D01*
G01*
X28111204Y-87925000D02*
G75*
G02*
X27250000Y-87223113I38796J926887D01*
G01*
X29100000Y-83282542D02*
G75*
G02*
X27100000Y-82100000I2J2282546D01*
G01*
X31105000Y-83275000D02*
G75*
G02*
X32105000Y-84275000I1J-999999D01*
G01*
X32105000Y-86925000D02*
G75*
G02*
X31105000Y-87925000I-999999J-1D01*
G01*
X35300000Y-88700000D02*
G75*
G02*
X34300000Y-88700000I-500000J0D01*
G01*
X34300000Y-88700000D02*
G75*
G02*
X35300000Y-88700000I500000J0D01*
G01*
D11*
X99600000Y-73855000D02*
X99600000Y-75355000D01*
D10*
X102495000Y-74675000D02*
X102495000Y-77325000D01*
X102650000Y-77830000D02*
X102650000Y-74150000D01*
X102800000Y-78000000D02*
X102800000Y-74030000D01*
X102950000Y-78140000D02*
X102950000Y-74000000D01*
X103100000Y-78220000D02*
X103100000Y-74100000D01*
X103250000Y-78270000D02*
X103250000Y-73950000D01*
X103400000Y-78310000D02*
X103400000Y-73800000D01*
X103550000Y-78300000D02*
X103550000Y-73700000D01*
X103700000Y-78300000D02*
X103700000Y-73700000D01*
X103850000Y-78300000D02*
X103850000Y-73700000D01*
D11*
X104000000Y-73855000D02*
X99600000Y-73855000D01*
D10*
X104000000Y-78300000D02*
X104000000Y-73700000D01*
X104150000Y-78300000D02*
X104150000Y-73700000D01*
X104300000Y-78300000D02*
X104300000Y-73700000D01*
X104450000Y-78300000D02*
X104450000Y-73700000D01*
X104600000Y-78300000D02*
X104600000Y-73700000D01*
X104750000Y-78300000D02*
X104750000Y-73700000D01*
X104900000Y-78300000D02*
X104900000Y-73700000D01*
X105050000Y-78300000D02*
X105050000Y-73700000D01*
X105200000Y-78300000D02*
X105200000Y-73700000D01*
X105350000Y-78300000D02*
X105350000Y-73700000D01*
X105500000Y-78300000D02*
X105500000Y-73700000D01*
X105500000Y-78325000D02*
X103525000Y-78325000D01*
X105650000Y-78300000D02*
X105650000Y-73750000D01*
X105800000Y-78340000D02*
X105800000Y-73700000D01*
X105950000Y-78350000D02*
X105950000Y-73700000D01*
X106100000Y-78350000D02*
X106100000Y-73750000D01*
X106250000Y-78400000D02*
X106250000Y-73690000D01*
X106400000Y-78500000D02*
X106400000Y-73680000D01*
X106488796Y-73675000D02*
X103525000Y-73675000D01*
X106550000Y-78550000D02*
X106550000Y-73700000D01*
X106700000Y-78650000D02*
X106700000Y-73730000D01*
X106850000Y-78750000D02*
X106850000Y-73780000D01*
X107000000Y-78850000D02*
X107000000Y-73860000D01*
X107150000Y-79000000D02*
X107150000Y-74050000D01*
X107300000Y-79150000D02*
X107300000Y-74250000D01*
X107350000Y-74700000D02*
X107350000Y-74376887D01*
X107400000Y-79320000D02*
X107400000Y-75200000D01*
X107500000Y-79500000D02*
X107500000Y-75350000D01*
X107500000Y-79500000D02*
X108775000Y-80525000D01*
X107600000Y-79570000D02*
X107600000Y-75550000D01*
X107700000Y-79650000D02*
X107700000Y-75650000D01*
X107800000Y-79730000D02*
X107800000Y-75700000D01*
X107910000Y-79820000D02*
X107900000Y-75750000D01*
X108050000Y-79920000D02*
X108050000Y-75800000D01*
X108200000Y-80060000D02*
X108200000Y-75900000D01*
X108350000Y-80180000D02*
X108350000Y-75900000D01*
X108500000Y-80290000D02*
X108500000Y-75900000D01*
X108650000Y-80410000D02*
X108650000Y-75950000D01*
X108800000Y-80500000D02*
X108800000Y-75900000D01*
X108950000Y-80500000D02*
X108950000Y-75900000D01*
X109100000Y-80500000D02*
X109100000Y-75900000D01*
X109250000Y-80500000D02*
X109250000Y-75900000D01*
X109400000Y-80500000D02*
X109400000Y-75900000D01*
X109550000Y-80500000D02*
X109550000Y-75900000D01*
X109700000Y-80500000D02*
X109700000Y-75900000D01*
X109850000Y-80500000D02*
X109850000Y-75900000D01*
X110000000Y-80500000D02*
X110000000Y-75900000D01*
X110150000Y-80500000D02*
X110150000Y-75900000D01*
X110300000Y-80500000D02*
X110300000Y-75900000D01*
X110450000Y-80500000D02*
X110450000Y-75900000D01*
X110600000Y-80500000D02*
X110600000Y-75900000D01*
X110750000Y-80500000D02*
X110750000Y-75900000D01*
X110900000Y-80500000D02*
X110900000Y-75900000D01*
X111050000Y-80500000D02*
X111050000Y-75900000D01*
X111100000Y-75875000D02*
X108525000Y-75875000D01*
X111100000Y-80525000D02*
X108775000Y-80525000D01*
X111200000Y-80390000D02*
X111200000Y-76000000D01*
X111350000Y-80250000D02*
X111350000Y-76130000D01*
X111500000Y-80120000D02*
X111500000Y-76290000D01*
X111650000Y-79960000D02*
X111650000Y-76430000D01*
X111750000Y-79860000D02*
X111750000Y-76530000D01*
X111850000Y-79750000D02*
X111850000Y-76630000D01*
X111950000Y-79670000D02*
X111950000Y-76740000D01*
X112100000Y-76875000D02*
X111100000Y-75875000D01*
X112100000Y-76875000D02*
X112100000Y-79525000D01*
X112100000Y-79525000D02*
X111100000Y-80525000D01*
X102495000Y-74675000D02*
G75*
G02*
X103495000Y-73675000I999999J1D01*
G01*
X103495000Y-78325000D02*
G75*
G02*
X102495000Y-77325000I-1J999999D01*
G01*
X105500000Y-78317458D02*
G75*
G02*
X107500000Y-79500000I-2J-2282546D01*
G01*
X106488796Y-73675000D02*
G75*
G02*
X107350000Y-74376887I-38796J-926887D01*
G01*
X108525000Y-75875000D02*
G75*
G02*
X107350000Y-74700000I2J1175002D01*
G01*
X100300000Y-72900000D02*
G75*
G02*
X99300000Y-72900000I-500000J0D01*
G01*
X99300000Y-72900000D02*
G75*
G02*
X100300000Y-72900000I500000J0D01*
G01*
D11*
X99600000Y-56855000D02*
X99600000Y-58355000D01*
D10*
X102495000Y-57675000D02*
X102495000Y-60325000D01*
X102650000Y-60830000D02*
X102650000Y-57150000D01*
X102800000Y-61000000D02*
X102800000Y-57030000D01*
X102950000Y-61140000D02*
X102950000Y-57000000D01*
X103100000Y-61220000D02*
X103100000Y-57100000D01*
X103250000Y-61270000D02*
X103250000Y-56950000D01*
X103400000Y-61310000D02*
X103400000Y-56800000D01*
X103550000Y-61300000D02*
X103550000Y-56700000D01*
X103700000Y-61300000D02*
X103700000Y-56700000D01*
X103850000Y-61300000D02*
X103850000Y-56700000D01*
D11*
X104000000Y-56855000D02*
X99600000Y-56855000D01*
D10*
X104000000Y-61300000D02*
X104000000Y-56700000D01*
X104150000Y-61300000D02*
X104150000Y-56700000D01*
X104300000Y-61300000D02*
X104300000Y-56700000D01*
X104450000Y-61300000D02*
X104450000Y-56700000D01*
X104600000Y-61300000D02*
X104600000Y-56700000D01*
X104750000Y-61300000D02*
X104750000Y-56700000D01*
X104900000Y-61300000D02*
X104900000Y-56700000D01*
X105050000Y-61300000D02*
X105050000Y-56700000D01*
X105200000Y-61300000D02*
X105200000Y-56700000D01*
X105350000Y-61300000D02*
X105350000Y-56700000D01*
X105500000Y-61300000D02*
X105500000Y-56700000D01*
X105500000Y-61325000D02*
X103525000Y-61325000D01*
X105650000Y-61300000D02*
X105650000Y-56750000D01*
X105800000Y-61340000D02*
X105800000Y-56700000D01*
X105950000Y-61350000D02*
X105950000Y-56700000D01*
X106100000Y-61350000D02*
X106100000Y-56750000D01*
X106250000Y-61400000D02*
X106250000Y-56690000D01*
X106400000Y-61500000D02*
X106400000Y-56680000D01*
X106488796Y-56675000D02*
X103525000Y-56675000D01*
X106550000Y-61550000D02*
X106550000Y-56700000D01*
X106700000Y-61650000D02*
X106700000Y-56730000D01*
X106850000Y-61750000D02*
X106850000Y-56780000D01*
X107000000Y-61850000D02*
X107000000Y-56860000D01*
X107150000Y-62000000D02*
X107150000Y-57050000D01*
X107300000Y-62150000D02*
X107300000Y-57250000D01*
X107350000Y-57700000D02*
X107350000Y-57376887D01*
X107400000Y-62320000D02*
X107400000Y-58200000D01*
X107500000Y-62500000D02*
X107500000Y-58350000D01*
X107500000Y-62500000D02*
X108775000Y-63525000D01*
X107600000Y-62570000D02*
X107600000Y-58550000D01*
X107700000Y-62650000D02*
X107700000Y-58650000D01*
X107800000Y-62730000D02*
X107800000Y-58700000D01*
X107910000Y-62820000D02*
X107900000Y-58750000D01*
X108050000Y-62920000D02*
X108050000Y-58800000D01*
X108200000Y-63060000D02*
X108200000Y-58900000D01*
X108350000Y-63180000D02*
X108350000Y-58900000D01*
X108500000Y-63290000D02*
X108500000Y-58900000D01*
X108650000Y-63410000D02*
X108650000Y-58950000D01*
X108800000Y-63500000D02*
X108800000Y-58900000D01*
X108950000Y-63500000D02*
X108950000Y-58900000D01*
X109100000Y-63500000D02*
X109100000Y-58900000D01*
X109250000Y-63500000D02*
X109250000Y-58900000D01*
X109400000Y-63500000D02*
X109400000Y-58900000D01*
X109550000Y-63500000D02*
X109550000Y-58900000D01*
X109700000Y-63500000D02*
X109700000Y-58900000D01*
X109850000Y-63500000D02*
X109850000Y-58900000D01*
X110000000Y-63500000D02*
X110000000Y-58900000D01*
X110150000Y-63500000D02*
X110150000Y-58900000D01*
X110300000Y-63500000D02*
X110300000Y-58900000D01*
X110450000Y-63500000D02*
X110450000Y-58900000D01*
X110600000Y-63500000D02*
X110600000Y-58900000D01*
X110750000Y-63500000D02*
X110750000Y-58900000D01*
X110900000Y-63500000D02*
X110900000Y-58900000D01*
X111050000Y-63500000D02*
X111050000Y-58900000D01*
X111100000Y-58875000D02*
X108525000Y-58875000D01*
X111100000Y-63525000D02*
X108775000Y-63525000D01*
X111200000Y-63390000D02*
X111200000Y-59000000D01*
X111350000Y-63250000D02*
X111350000Y-59130000D01*
X111500000Y-63120000D02*
X111500000Y-59290000D01*
X111650000Y-62960000D02*
X111650000Y-59430000D01*
X111750000Y-62860000D02*
X111750000Y-59530000D01*
X111850000Y-62750000D02*
X111850000Y-59630000D01*
X111950000Y-62670000D02*
X111950000Y-59740000D01*
X112100000Y-59875000D02*
X111100000Y-58875000D01*
X112100000Y-59875000D02*
X112100000Y-62525000D01*
X112100000Y-62525000D02*
X111100000Y-63525000D01*
X102495000Y-57675000D02*
G75*
G02*
X103495000Y-56675000I999999J1D01*
G01*
X103495000Y-61325000D02*
G75*
G02*
X102495000Y-60325000I-1J999999D01*
G01*
X105500000Y-61317458D02*
G75*
G02*
X107500000Y-62500000I-2J-2282546D01*
G01*
X106488796Y-56675000D02*
G75*
G02*
X107350000Y-57376887I-38796J-926887D01*
G01*
X108525000Y-58875000D02*
G75*
G02*
X107350000Y-57700000I2J1175002D01*
G01*
X100300000Y-55900000D02*
G75*
G02*
X99300000Y-55900000I-500000J0D01*
G01*
X99300000Y-55900000D02*
G75*
G02*
X100300000Y-55900000I500000J0D01*
G01*
D12*
X109154715Y-65404686D02*
X109154715Y-66595314D01*
X109154715Y-66000000D02*
X108956277Y-66000000D01*
X109154715Y-66595314D02*
X110742219Y-66595314D01*
X110345343Y-65404686D02*
X110345343Y-66595314D01*
X110742219Y-65404686D02*
X109154715Y-65404686D01*
X110742219Y-66595314D02*
X110742219Y-65404686D01*
X110940657Y-66000000D02*
X110742219Y-66000000D01*
X28254715Y-74929686D02*
X28254715Y-76120314D01*
X28254715Y-75525000D02*
X28056277Y-75525000D01*
X28254715Y-76120314D02*
X29842219Y-76120314D01*
X29445343Y-74929686D02*
X29445343Y-76120314D01*
X29842219Y-74929686D02*
X28254715Y-74929686D01*
X29842219Y-76120314D02*
X29842219Y-74929686D01*
X30040657Y-75525000D02*
X29842219Y-75525000D01*
D11*
X48600000Y-62555000D02*
X48600000Y-64055000D01*
D10*
X51495000Y-63375000D02*
X51495000Y-66025000D01*
X51650000Y-66530000D02*
X51650000Y-62850000D01*
X51800000Y-66700000D02*
X51800000Y-62730000D01*
X51950000Y-66840000D02*
X51950000Y-62700000D01*
X52100000Y-66920000D02*
X52100000Y-62800000D01*
X52250000Y-66970000D02*
X52250000Y-62650000D01*
X52400000Y-67010000D02*
X52400000Y-62500000D01*
X52550000Y-67000000D02*
X52550000Y-62400000D01*
X52700000Y-67000000D02*
X52700000Y-62400000D01*
X52850000Y-67000000D02*
X52850000Y-62400000D01*
D11*
X53000000Y-62555000D02*
X48600000Y-62555000D01*
D10*
X53000000Y-67000000D02*
X53000000Y-62400000D01*
X53150000Y-67000000D02*
X53150000Y-62400000D01*
X53300000Y-67000000D02*
X53300000Y-62400000D01*
X53450000Y-67000000D02*
X53450000Y-62400000D01*
X53600000Y-67000000D02*
X53600000Y-62400000D01*
X53750000Y-67000000D02*
X53750000Y-62400000D01*
X53900000Y-67000000D02*
X53900000Y-62400000D01*
X54050000Y-67000000D02*
X54050000Y-62400000D01*
X54200000Y-67000000D02*
X54200000Y-62400000D01*
X54350000Y-67000000D02*
X54350000Y-62400000D01*
X54500000Y-67000000D02*
X54500000Y-62400000D01*
X54500000Y-67025000D02*
X52525000Y-67025000D01*
X54650000Y-67000000D02*
X54650000Y-62450000D01*
X54800000Y-67040000D02*
X54800000Y-62400000D01*
X54950000Y-67050000D02*
X54950000Y-62400000D01*
X55100000Y-67050000D02*
X55100000Y-62450000D01*
X55250000Y-67100000D02*
X55250000Y-62390000D01*
X55400000Y-67200000D02*
X55400000Y-62380000D01*
X55488796Y-62375000D02*
X52525000Y-62375000D01*
X55550000Y-67250000D02*
X55550000Y-62400000D01*
X55700000Y-67350000D02*
X55700000Y-62430000D01*
X55850000Y-67450000D02*
X55850000Y-62480000D01*
X56000000Y-67550000D02*
X56000000Y-62560000D01*
X56150000Y-67700000D02*
X56150000Y-62750000D01*
X56300000Y-67850000D02*
X56300000Y-62950000D01*
X56350000Y-63400000D02*
X56350000Y-63076887D01*
X56400000Y-68020000D02*
X56400000Y-63900000D01*
X56500000Y-68200000D02*
X56500000Y-64050000D01*
X56500000Y-68200000D02*
X57775000Y-69225000D01*
X56600000Y-68270000D02*
X56600000Y-64250000D01*
X56700000Y-68350000D02*
X56700000Y-64350000D01*
X56800000Y-68430000D02*
X56800000Y-64400000D01*
X56910000Y-68520000D02*
X56900000Y-64450000D01*
X57050000Y-68620000D02*
X57050000Y-64500000D01*
X57200000Y-68760000D02*
X57200000Y-64600000D01*
X57350000Y-68880000D02*
X57350000Y-64600000D01*
X57500000Y-68990000D02*
X57500000Y-64600000D01*
X57650000Y-69110000D02*
X57650000Y-64650000D01*
X57800000Y-69200000D02*
X57800000Y-64600000D01*
X57950000Y-69200000D02*
X57950000Y-64600000D01*
X58100000Y-69200000D02*
X58100000Y-64600000D01*
X58250000Y-69200000D02*
X58250000Y-64600000D01*
X58400000Y-69200000D02*
X58400000Y-64600000D01*
X58550000Y-69200000D02*
X58550000Y-64600000D01*
X58700000Y-69200000D02*
X58700000Y-64600000D01*
X58850000Y-69200000D02*
X58850000Y-64600000D01*
X59000000Y-69200000D02*
X59000000Y-64600000D01*
X59150000Y-69200000D02*
X59150000Y-64600000D01*
X59300000Y-69200000D02*
X59300000Y-64600000D01*
X59450000Y-69200000D02*
X59450000Y-64600000D01*
X59600000Y-69200000D02*
X59600000Y-64600000D01*
X59750000Y-69200000D02*
X59750000Y-64600000D01*
X59900000Y-69200000D02*
X59900000Y-64600000D01*
X60050000Y-69200000D02*
X60050000Y-64600000D01*
X60100000Y-64575000D02*
X57525000Y-64575000D01*
X60100000Y-69225000D02*
X57775000Y-69225000D01*
X60200000Y-69090000D02*
X60200000Y-64700000D01*
X60350000Y-68950000D02*
X60350000Y-64830000D01*
X60500000Y-68820000D02*
X60500000Y-64990000D01*
X60650000Y-68660000D02*
X60650000Y-65130000D01*
X60750000Y-68560000D02*
X60750000Y-65230000D01*
X60850000Y-68450000D02*
X60850000Y-65330000D01*
X60950000Y-68370000D02*
X60950000Y-65440000D01*
X61100000Y-65575000D02*
X60100000Y-64575000D01*
X61100000Y-65575000D02*
X61100000Y-68225000D01*
X61100000Y-68225000D02*
X60100000Y-69225000D01*
X51495000Y-63375000D02*
G75*
G02*
X52495000Y-62375000I999999J1D01*
G01*
X52495000Y-67025000D02*
G75*
G02*
X51495000Y-66025000I-1J999999D01*
G01*
X54500000Y-67017458D02*
G75*
G02*
X56500000Y-68200000I-2J-2282546D01*
G01*
X55488796Y-62375000D02*
G75*
G02*
X56350000Y-63076887I-38796J-926887D01*
G01*
X57525000Y-64575000D02*
G75*
G02*
X56350000Y-63400000I2J1175002D01*
G01*
X49300000Y-61600000D02*
G75*
G02*
X48300000Y-61600000I-500000J0D01*
G01*
X48300000Y-61600000D02*
G75*
G02*
X49300000Y-61600000I500000J0D01*
G01*
D12*
X112281215Y-84504686D02*
X112281215Y-85695314D01*
X112281215Y-85100000D02*
X112082777Y-85100000D01*
X112281215Y-85695314D02*
X113868719Y-85695314D01*
X113471843Y-84504686D02*
X113471843Y-85695314D01*
X113868719Y-84504686D02*
X112281215Y-84504686D01*
X113868719Y-85695314D02*
X113868719Y-84504686D01*
X114067157Y-85100000D02*
X113868719Y-85100000D01*
D10*
X39500000Y-73875000D02*
X40500000Y-72875000D01*
X39500000Y-76525000D02*
X39500000Y-73875000D01*
X39500000Y-76525000D02*
X40500000Y-77525000D01*
X39650000Y-73730000D02*
X39650000Y-76660000D01*
X39750000Y-73650000D02*
X39750000Y-76770000D01*
X39850000Y-73540000D02*
X39850000Y-76870000D01*
X39950000Y-73440000D02*
X39950000Y-76970000D01*
X40100000Y-73280000D02*
X40100000Y-77110000D01*
X40250000Y-73150000D02*
X40250000Y-77270000D01*
X40400000Y-73010000D02*
X40400000Y-77400000D01*
X40500000Y-72875000D02*
X42825000Y-72875000D01*
X40500000Y-77525000D02*
X43075000Y-77525000D01*
X40550000Y-72900000D02*
X40550000Y-77500000D01*
X40700000Y-72900000D02*
X40700000Y-77500000D01*
X40850000Y-72900000D02*
X40850000Y-77500000D01*
X41000000Y-72900000D02*
X41000000Y-77500000D01*
X41150000Y-72900000D02*
X41150000Y-77500000D01*
X41300000Y-72900000D02*
X41300000Y-77500000D01*
X41450000Y-72900000D02*
X41450000Y-77500000D01*
X41600000Y-72900000D02*
X41600000Y-77500000D01*
X41750000Y-72900000D02*
X41750000Y-77500000D01*
X41900000Y-72900000D02*
X41900000Y-77500000D01*
X42050000Y-72900000D02*
X42050000Y-77500000D01*
X42200000Y-72900000D02*
X42200000Y-77500000D01*
X42350000Y-72900000D02*
X42350000Y-77500000D01*
X42500000Y-72900000D02*
X42500000Y-77500000D01*
X42650000Y-72900000D02*
X42650000Y-77500000D01*
X42800000Y-72900000D02*
X42800000Y-77500000D01*
X42950000Y-72990000D02*
X42950000Y-77450000D01*
X43100000Y-73110000D02*
X43100000Y-77500000D01*
X43250000Y-73220000D02*
X43250000Y-77500000D01*
X43400000Y-73340000D02*
X43400000Y-77500000D01*
X43550000Y-73480000D02*
X43550000Y-77600000D01*
X43690000Y-73580000D02*
X43700000Y-77650000D01*
X43800000Y-73670000D02*
X43800000Y-77700000D01*
X43900000Y-73750000D02*
X43900000Y-77750000D01*
X44000000Y-73830000D02*
X44000000Y-77850000D01*
X44100000Y-73900000D02*
X42825000Y-72875000D01*
X44100000Y-73900000D02*
X44100000Y-78050000D01*
X44200000Y-74080000D02*
X44200000Y-78200000D01*
X44250000Y-78700000D02*
X44250000Y-79023113D01*
X44300000Y-74250000D02*
X44300000Y-79150000D01*
X44450000Y-74400000D02*
X44450000Y-79350000D01*
X44600000Y-74550000D02*
X44600000Y-79540000D01*
X44750000Y-74650000D02*
X44750000Y-79620000D01*
X44900000Y-74750000D02*
X44900000Y-79670000D01*
X45050000Y-74850000D02*
X45050000Y-79700000D01*
X45111204Y-79725000D02*
X48075000Y-79725000D01*
X45200000Y-74900000D02*
X45200000Y-79720000D01*
X45350000Y-75000000D02*
X45350000Y-79710000D01*
X45500000Y-75050000D02*
X45500000Y-79650000D01*
X45650000Y-75050000D02*
X45650000Y-79700000D01*
X45800000Y-75060000D02*
X45800000Y-79700000D01*
X45950000Y-75100000D02*
X45950000Y-79650000D01*
X46100000Y-75075000D02*
X48075000Y-75075000D01*
X46100000Y-75100000D02*
X46100000Y-79700000D01*
X46250000Y-75100000D02*
X46250000Y-79700000D01*
X46400000Y-75100000D02*
X46400000Y-79700000D01*
X46550000Y-75100000D02*
X46550000Y-79700000D01*
X46700000Y-75100000D02*
X46700000Y-79700000D01*
X46850000Y-75100000D02*
X46850000Y-79700000D01*
X47000000Y-75100000D02*
X47000000Y-79700000D01*
X47150000Y-75100000D02*
X47150000Y-79700000D01*
X47300000Y-75100000D02*
X47300000Y-79700000D01*
X47450000Y-75100000D02*
X47450000Y-79700000D01*
X47600000Y-75100000D02*
X47600000Y-79700000D01*
D11*
X47600000Y-79545000D02*
X52000000Y-79545000D01*
D10*
X47750000Y-75100000D02*
X47750000Y-79700000D01*
X47900000Y-75100000D02*
X47900000Y-79700000D01*
X48050000Y-75100000D02*
X48050000Y-79700000D01*
X48200000Y-75090000D02*
X48200000Y-79600000D01*
X48350000Y-75130000D02*
X48350000Y-79450000D01*
X48500000Y-75180000D02*
X48500000Y-79300000D01*
X48650000Y-75260000D02*
X48650000Y-79400000D01*
X48800000Y-75400000D02*
X48800000Y-79370000D01*
X48950000Y-75570000D02*
X48950000Y-79250000D01*
X49105000Y-78725000D02*
X49105000Y-76075000D01*
D11*
X52000000Y-79545000D02*
X52000000Y-78045000D01*
D10*
X43075000Y-77525000D02*
G75*
G02*
X44250000Y-78700000I-2J-1175002D01*
G01*
X45111204Y-79725000D02*
G75*
G02*
X44250000Y-79023113I38796J926887D01*
G01*
X46100000Y-75082542D02*
G75*
G02*
X44100000Y-73900000I2J2282546D01*
G01*
X48105000Y-75075000D02*
G75*
G02*
X49105000Y-76075000I1J-999999D01*
G01*
X49105000Y-78725000D02*
G75*
G02*
X48105000Y-79725000I-999999J-1D01*
G01*
X52300000Y-80500000D02*
G75*
G02*
X51300000Y-80500000I-500000J0D01*
G01*
X51300000Y-80500000D02*
G75*
G02*
X52300000Y-80500000I500000J0D01*
G01*
D12*
X45254715Y-66704686D02*
X45254715Y-67895314D01*
X45254715Y-67300000D02*
X45056277Y-67300000D01*
X45254715Y-67895314D02*
X46842219Y-67895314D01*
X46445343Y-66704686D02*
X46445343Y-67895314D01*
X46842219Y-66704686D02*
X45254715Y-66704686D01*
X46842219Y-67895314D02*
X46842219Y-66704686D01*
X47040657Y-67300000D02*
X46842219Y-67300000D01*
D11*
X65600000Y-65655000D02*
X65600000Y-67155000D01*
D10*
X68495000Y-66475000D02*
X68495000Y-69125000D01*
X68650000Y-69630000D02*
X68650000Y-65950000D01*
X68800000Y-69800000D02*
X68800000Y-65830000D01*
X68950000Y-69940000D02*
X68950000Y-65800000D01*
X69100000Y-70020000D02*
X69100000Y-65900000D01*
X69250000Y-70070000D02*
X69250000Y-65750000D01*
X69400000Y-70110000D02*
X69400000Y-65600000D01*
X69550000Y-70100000D02*
X69550000Y-65500000D01*
X69700000Y-70100000D02*
X69700000Y-65500000D01*
X69850000Y-70100000D02*
X69850000Y-65500000D01*
D11*
X70000000Y-65655000D02*
X65600000Y-65655000D01*
D10*
X70000000Y-70100000D02*
X70000000Y-65500000D01*
X70150000Y-70100000D02*
X70150000Y-65500000D01*
X70300000Y-70100000D02*
X70300000Y-65500000D01*
X70450000Y-70100000D02*
X70450000Y-65500000D01*
X70600000Y-70100000D02*
X70600000Y-65500000D01*
X70750000Y-70100000D02*
X70750000Y-65500000D01*
X70900000Y-70100000D02*
X70900000Y-65500000D01*
X71050000Y-70100000D02*
X71050000Y-65500000D01*
X71200000Y-70100000D02*
X71200000Y-65500000D01*
X71350000Y-70100000D02*
X71350000Y-65500000D01*
X71500000Y-70100000D02*
X71500000Y-65500000D01*
X71500000Y-70125000D02*
X69525000Y-70125000D01*
X71650000Y-70100000D02*
X71650000Y-65550000D01*
X71800000Y-70140000D02*
X71800000Y-65500000D01*
X71950000Y-70150000D02*
X71950000Y-65500000D01*
X72100000Y-70150000D02*
X72100000Y-65550000D01*
X72250000Y-70200000D02*
X72250000Y-65490000D01*
X72400000Y-70300000D02*
X72400000Y-65480000D01*
X72488796Y-65475000D02*
X69525000Y-65475000D01*
X72550000Y-70350000D02*
X72550000Y-65500000D01*
X72700000Y-70450000D02*
X72700000Y-65530000D01*
X72850000Y-70550000D02*
X72850000Y-65580000D01*
X73000000Y-70650000D02*
X73000000Y-65660000D01*
X73150000Y-70800000D02*
X73150000Y-65850000D01*
X73300000Y-70950000D02*
X73300000Y-66050000D01*
X73350000Y-66500000D02*
X73350000Y-66176887D01*
X73400000Y-71120000D02*
X73400000Y-67000000D01*
X73500000Y-71300000D02*
X73500000Y-67150000D01*
X73500000Y-71300000D02*
X74775000Y-72325000D01*
X73600000Y-71370000D02*
X73600000Y-67350000D01*
X73700000Y-71450000D02*
X73700000Y-67450000D01*
X73800000Y-71530000D02*
X73800000Y-67500000D01*
X73910000Y-71620000D02*
X73900000Y-67550000D01*
X74050000Y-71720000D02*
X74050000Y-67600000D01*
X74200000Y-71860000D02*
X74200000Y-67700000D01*
X74350000Y-71980000D02*
X74350000Y-67700000D01*
X74500000Y-72090000D02*
X74500000Y-67700000D01*
X74650000Y-72210000D02*
X74650000Y-67750000D01*
X74800000Y-72300000D02*
X74800000Y-67700000D01*
X74950000Y-72300000D02*
X74950000Y-67700000D01*
X75100000Y-72300000D02*
X75100000Y-67700000D01*
X75250000Y-72300000D02*
X75250000Y-67700000D01*
X75400000Y-72300000D02*
X75400000Y-67700000D01*
X75550000Y-72300000D02*
X75550000Y-67700000D01*
X75700000Y-72300000D02*
X75700000Y-67700000D01*
X75850000Y-72300000D02*
X75850000Y-67700000D01*
X76000000Y-72300000D02*
X76000000Y-67700000D01*
X76150000Y-72300000D02*
X76150000Y-67700000D01*
X76300000Y-72300000D02*
X76300000Y-67700000D01*
X76450000Y-72300000D02*
X76450000Y-67700000D01*
X76600000Y-72300000D02*
X76600000Y-67700000D01*
X76750000Y-72300000D02*
X76750000Y-67700000D01*
X76900000Y-72300000D02*
X76900000Y-67700000D01*
X77050000Y-72300000D02*
X77050000Y-67700000D01*
X77100000Y-67675000D02*
X74525000Y-67675000D01*
X77100000Y-72325000D02*
X74775000Y-72325000D01*
X77200000Y-72190000D02*
X77200000Y-67800000D01*
X77350000Y-72050000D02*
X77350000Y-67930000D01*
X77500000Y-71920000D02*
X77500000Y-68090000D01*
X77650000Y-71760000D02*
X77650000Y-68230000D01*
X77750000Y-71660000D02*
X77750000Y-68330000D01*
X77850000Y-71550000D02*
X77850000Y-68430000D01*
X77950000Y-71470000D02*
X77950000Y-68540000D01*
X78100000Y-68675000D02*
X77100000Y-67675000D01*
X78100000Y-68675000D02*
X78100000Y-71325000D01*
X78100000Y-71325000D02*
X77100000Y-72325000D01*
X68495000Y-66475000D02*
G75*
G02*
X69495000Y-65475000I999999J1D01*
G01*
X69495000Y-70125000D02*
G75*
G02*
X68495000Y-69125000I-1J999999D01*
G01*
X71500000Y-70117458D02*
G75*
G02*
X73500000Y-71300000I-2J-2282546D01*
G01*
X72488796Y-65475000D02*
G75*
G02*
X73350000Y-66176887I-38796J-926887D01*
G01*
X74525000Y-67675000D02*
G75*
G02*
X73350000Y-66500000I2J1175002D01*
G01*
X66300000Y-64700000D02*
G75*
G02*
X65300000Y-64700000I-500000J0D01*
G01*
X65300000Y-64700000D02*
G75*
G02*
X66300000Y-64700000I500000J0D01*
G01*
D12*
X108807815Y-51004686D02*
X108807815Y-52195314D01*
X108807815Y-51600000D02*
X108609377Y-51600000D01*
X108807815Y-52195314D02*
X110395319Y-52195314D01*
X109998443Y-51004686D02*
X109998443Y-52195314D01*
X110395319Y-51004686D02*
X108807815Y-51004686D01*
X110395319Y-52195314D02*
X110395319Y-51004686D01*
X110593757Y-51600000D02*
X110395319Y-51600000D01*
X28254715Y-43629686D02*
X28254715Y-44820314D01*
X28254715Y-44225000D02*
X28056277Y-44225000D01*
X28254715Y-44820314D02*
X29842219Y-44820314D01*
X29445343Y-43629686D02*
X29445343Y-44820314D01*
X29842219Y-43629686D02*
X28254715Y-43629686D01*
X29842219Y-44820314D02*
X29842219Y-43629686D01*
X30040657Y-44225000D02*
X29842219Y-44225000D01*
X58081215Y-39904686D02*
X58081215Y-41095314D01*
X58081215Y-40500000D02*
X57882777Y-40500000D01*
X58081215Y-41095314D02*
X59668719Y-41095314D01*
X59271843Y-39904686D02*
X59271843Y-41095314D01*
X59668719Y-39904686D02*
X58081215Y-39904686D01*
X59668719Y-41095314D02*
X59668719Y-39904686D01*
X59867157Y-40500000D02*
X59668719Y-40500000D01*
D11*
X82600000Y-85055000D02*
X82600000Y-86555000D01*
D10*
X85495000Y-85875000D02*
X85495000Y-88525000D01*
X85650000Y-89030000D02*
X85650000Y-85350000D01*
X85800000Y-89200000D02*
X85800000Y-85230000D01*
X85950000Y-89340000D02*
X85950000Y-85200000D01*
X86100000Y-89420000D02*
X86100000Y-85300000D01*
X86250000Y-89470000D02*
X86250000Y-85150000D01*
X86400000Y-89510000D02*
X86400000Y-85000000D01*
X86550000Y-89500000D02*
X86550000Y-84900000D01*
X86700000Y-89500000D02*
X86700000Y-84900000D01*
X86850000Y-89500000D02*
X86850000Y-84900000D01*
D11*
X87000000Y-85055000D02*
X82600000Y-85055000D01*
D10*
X87000000Y-89500000D02*
X87000000Y-84900000D01*
X87150000Y-89500000D02*
X87150000Y-84900000D01*
X87300000Y-89500000D02*
X87300000Y-84900000D01*
X87450000Y-89500000D02*
X87450000Y-84900000D01*
X87600000Y-89500000D02*
X87600000Y-84900000D01*
X87750000Y-89500000D02*
X87750000Y-84900000D01*
X87900000Y-89500000D02*
X87900000Y-84900000D01*
X88050000Y-89500000D02*
X88050000Y-84900000D01*
X88200000Y-89500000D02*
X88200000Y-84900000D01*
X88350000Y-89500000D02*
X88350000Y-84900000D01*
X88500000Y-89500000D02*
X88500000Y-84900000D01*
X88500000Y-89525000D02*
X86525000Y-89525000D01*
X88650000Y-89500000D02*
X88650000Y-84950000D01*
X88800000Y-89540000D02*
X88800000Y-84900000D01*
X88950000Y-89550000D02*
X88950000Y-84900000D01*
X89100000Y-89550000D02*
X89100000Y-84950000D01*
X89250000Y-89600000D02*
X89250000Y-84890000D01*
X89400000Y-89700000D02*
X89400000Y-84880000D01*
X89488796Y-84875000D02*
X86525000Y-84875000D01*
X89550000Y-89750000D02*
X89550000Y-84900000D01*
X89700000Y-89850000D02*
X89700000Y-84930000D01*
X89850000Y-89950000D02*
X89850000Y-84980000D01*
X90000000Y-90050000D02*
X90000000Y-85060000D01*
X90150000Y-90200000D02*
X90150000Y-85250000D01*
X90300000Y-90350000D02*
X90300000Y-85450000D01*
X90350000Y-85900000D02*
X90350000Y-85576887D01*
X90400000Y-90520000D02*
X90400000Y-86400000D01*
X90500000Y-90700000D02*
X90500000Y-86550000D01*
X90500000Y-90700000D02*
X91775000Y-91725000D01*
X90600000Y-90770000D02*
X90600000Y-86750000D01*
X90700000Y-90850000D02*
X90700000Y-86850000D01*
X90800000Y-90930000D02*
X90800000Y-86900000D01*
X90910000Y-91020000D02*
X90900000Y-86950000D01*
X91050000Y-91120000D02*
X91050000Y-87000000D01*
X91200000Y-91260000D02*
X91200000Y-87100000D01*
X91350000Y-91380000D02*
X91350000Y-87100000D01*
X91500000Y-91490000D02*
X91500000Y-87100000D01*
X91650000Y-91610000D02*
X91650000Y-87150000D01*
X91800000Y-91700000D02*
X91800000Y-87100000D01*
X91950000Y-91700000D02*
X91950000Y-87100000D01*
X92100000Y-91700000D02*
X92100000Y-87100000D01*
X92250000Y-91700000D02*
X92250000Y-87100000D01*
X92400000Y-91700000D02*
X92400000Y-87100000D01*
X92550000Y-91700000D02*
X92550000Y-87100000D01*
X92700000Y-91700000D02*
X92700000Y-87100000D01*
X92850000Y-91700000D02*
X92850000Y-87100000D01*
X93000000Y-91700000D02*
X93000000Y-87100000D01*
X93150000Y-91700000D02*
X93150000Y-87100000D01*
X93300000Y-91700000D02*
X93300000Y-87100000D01*
X93450000Y-91700000D02*
X93450000Y-87100000D01*
X93600000Y-91700000D02*
X93600000Y-87100000D01*
X93750000Y-91700000D02*
X93750000Y-87100000D01*
X93900000Y-91700000D02*
X93900000Y-87100000D01*
X94050000Y-91700000D02*
X94050000Y-87100000D01*
X94100000Y-87075000D02*
X91525000Y-87075000D01*
X94100000Y-91725000D02*
X91775000Y-91725000D01*
X94200000Y-91590000D02*
X94200000Y-87200000D01*
X94350000Y-91450000D02*
X94350000Y-87330000D01*
X94500000Y-91320000D02*
X94500000Y-87490000D01*
X94650000Y-91160000D02*
X94650000Y-87630000D01*
X94750000Y-91060000D02*
X94750000Y-87730000D01*
X94850000Y-90950000D02*
X94850000Y-87830000D01*
X94950000Y-90870000D02*
X94950000Y-87940000D01*
X95100000Y-88075000D02*
X94100000Y-87075000D01*
X95100000Y-88075000D02*
X95100000Y-90725000D01*
X95100000Y-90725000D02*
X94100000Y-91725000D01*
X85495000Y-85875000D02*
G75*
G02*
X86495000Y-84875000I999999J1D01*
G01*
X86495000Y-89525000D02*
G75*
G02*
X85495000Y-88525000I-1J999999D01*
G01*
X88500000Y-89517458D02*
G75*
G02*
X90500000Y-90700000I-2J-2282546D01*
G01*
X89488796Y-84875000D02*
G75*
G02*
X90350000Y-85576887I-38796J-926887D01*
G01*
X91525000Y-87075000D02*
G75*
G02*
X90350000Y-85900000I2J1175002D01*
G01*
X83300000Y-84100000D02*
G75*
G02*
X82300000Y-84100000I-500000J0D01*
G01*
X82300000Y-84100000D02*
G75*
G02*
X83300000Y-84100000I500000J0D01*
G01*
D11*
X82600000Y-33955000D02*
X82600000Y-35455000D01*
D10*
X85495000Y-34775000D02*
X85495000Y-37425000D01*
X85650000Y-37930000D02*
X85650000Y-34250000D01*
X85800000Y-38100000D02*
X85800000Y-34130000D01*
X85950000Y-38240000D02*
X85950000Y-34100000D01*
X86100000Y-38320000D02*
X86100000Y-34200000D01*
X86250000Y-38370000D02*
X86250000Y-34050000D01*
X86400000Y-38410000D02*
X86400000Y-33900000D01*
X86550000Y-38400000D02*
X86550000Y-33800000D01*
X86700000Y-38400000D02*
X86700000Y-33800000D01*
X86850000Y-38400000D02*
X86850000Y-33800000D01*
D11*
X87000000Y-33955000D02*
X82600000Y-33955000D01*
D10*
X87000000Y-38400000D02*
X87000000Y-33800000D01*
X87150000Y-38400000D02*
X87150000Y-33800000D01*
X87300000Y-38400000D02*
X87300000Y-33800000D01*
X87450000Y-38400000D02*
X87450000Y-33800000D01*
X87600000Y-38400000D02*
X87600000Y-33800000D01*
X87750000Y-38400000D02*
X87750000Y-33800000D01*
X87900000Y-38400000D02*
X87900000Y-33800000D01*
X88050000Y-38400000D02*
X88050000Y-33800000D01*
X88200000Y-38400000D02*
X88200000Y-33800000D01*
X88350000Y-38400000D02*
X88350000Y-33800000D01*
X88500000Y-38400000D02*
X88500000Y-33800000D01*
X88500000Y-38425000D02*
X86525000Y-38425000D01*
X88650000Y-38400000D02*
X88650000Y-33850000D01*
X88800000Y-38440000D02*
X88800000Y-33800000D01*
X88950000Y-38450000D02*
X88950000Y-33800000D01*
X89100000Y-38450000D02*
X89100000Y-33850000D01*
X89250000Y-38500000D02*
X89250000Y-33790000D01*
X89400000Y-38600000D02*
X89400000Y-33780000D01*
X89488796Y-33775000D02*
X86525000Y-33775000D01*
X89550000Y-38650000D02*
X89550000Y-33800000D01*
X89700000Y-38750000D02*
X89700000Y-33830000D01*
X89850000Y-38850000D02*
X89850000Y-33880000D01*
X90000000Y-38950000D02*
X90000000Y-33960000D01*
X90150000Y-39100000D02*
X90150000Y-34150000D01*
X90300000Y-39250000D02*
X90300000Y-34350000D01*
X90350000Y-34800000D02*
X90350000Y-34476887D01*
X90400000Y-39420000D02*
X90400000Y-35300000D01*
X90500000Y-39600000D02*
X90500000Y-35450000D01*
X90500000Y-39600000D02*
X91775000Y-40625000D01*
X90600000Y-39670000D02*
X90600000Y-35650000D01*
X90700000Y-39750000D02*
X90700000Y-35750000D01*
X90800000Y-39830000D02*
X90800000Y-35800000D01*
X90910000Y-39920000D02*
X90900000Y-35850000D01*
X91050000Y-40020000D02*
X91050000Y-35900000D01*
X91200000Y-40160000D02*
X91200000Y-36000000D01*
X91350000Y-40280000D02*
X91350000Y-36000000D01*
X91500000Y-40390000D02*
X91500000Y-36000000D01*
X91650000Y-40510000D02*
X91650000Y-36050000D01*
X91800000Y-40600000D02*
X91800000Y-36000000D01*
X91950000Y-40600000D02*
X91950000Y-36000000D01*
X92100000Y-40600000D02*
X92100000Y-36000000D01*
X92250000Y-40600000D02*
X92250000Y-36000000D01*
X92400000Y-40600000D02*
X92400000Y-36000000D01*
X92550000Y-40600000D02*
X92550000Y-36000000D01*
X92700000Y-40600000D02*
X92700000Y-36000000D01*
X92850000Y-40600000D02*
X92850000Y-36000000D01*
X93000000Y-40600000D02*
X93000000Y-36000000D01*
X93150000Y-40600000D02*
X93150000Y-36000000D01*
X93300000Y-40600000D02*
X93300000Y-36000000D01*
X93450000Y-40600000D02*
X93450000Y-36000000D01*
X93600000Y-40600000D02*
X93600000Y-36000000D01*
X93750000Y-40600000D02*
X93750000Y-36000000D01*
X93900000Y-40600000D02*
X93900000Y-36000000D01*
X94050000Y-40600000D02*
X94050000Y-36000000D01*
X94100000Y-35975000D02*
X91525000Y-35975000D01*
X94100000Y-40625000D02*
X91775000Y-40625000D01*
X94200000Y-40490000D02*
X94200000Y-36100000D01*
X94350000Y-40350000D02*
X94350000Y-36230000D01*
X94500000Y-40220000D02*
X94500000Y-36390000D01*
X94650000Y-40060000D02*
X94650000Y-36530000D01*
X94750000Y-39960000D02*
X94750000Y-36630000D01*
X94850000Y-39850000D02*
X94850000Y-36730000D01*
X94950000Y-39770000D02*
X94950000Y-36840000D01*
X95100000Y-36975000D02*
X94100000Y-35975000D01*
X95100000Y-36975000D02*
X95100000Y-39625000D01*
X95100000Y-39625000D02*
X94100000Y-40625000D01*
X85495000Y-34775000D02*
G75*
G02*
X86495000Y-33775000I999999J1D01*
G01*
X86495000Y-38425000D02*
G75*
G02*
X85495000Y-37425000I-1J999999D01*
G01*
X88500000Y-38417458D02*
G75*
G02*
X90500000Y-39600000I-2J-2282546D01*
G01*
X89488796Y-33775000D02*
G75*
G02*
X90350000Y-34476887I-38796J-926887D01*
G01*
X91525000Y-35975000D02*
G75*
G02*
X90350000Y-34800000I2J1175002D01*
G01*
X83300000Y-33000000D02*
G75*
G02*
X82300000Y-33000000I-500000J0D01*
G01*
X82300000Y-33000000D02*
G75*
G02*
X83300000Y-33000000I500000J0D01*
G01*
D12*
X63781215Y-73604686D02*
X63781215Y-74795314D01*
X63781215Y-74200000D02*
X63582777Y-74200000D01*
X63781215Y-74795314D02*
X65368719Y-74795314D01*
X64971843Y-73604686D02*
X64971843Y-74795314D01*
X65368719Y-73604686D02*
X63781215Y-73604686D01*
X65368719Y-74795314D02*
X65368719Y-73604686D01*
X65567157Y-74200000D02*
X65368719Y-74200000D01*
D11*
X82600000Y-51055000D02*
X82600000Y-52555000D01*
D10*
X85495000Y-51875000D02*
X85495000Y-54525000D01*
X85650000Y-55030000D02*
X85650000Y-51350000D01*
X85800000Y-55200000D02*
X85800000Y-51230000D01*
X85950000Y-55340000D02*
X85950000Y-51200000D01*
X86100000Y-55420000D02*
X86100000Y-51300000D01*
X86250000Y-55470000D02*
X86250000Y-51150000D01*
X86400000Y-55510000D02*
X86400000Y-51000000D01*
X86550000Y-55500000D02*
X86550000Y-50900000D01*
X86700000Y-55500000D02*
X86700000Y-50900000D01*
X86850000Y-55500000D02*
X86850000Y-50900000D01*
D11*
X87000000Y-51055000D02*
X82600000Y-51055000D01*
D10*
X87000000Y-55500000D02*
X87000000Y-50900000D01*
X87150000Y-55500000D02*
X87150000Y-50900000D01*
X87300000Y-55500000D02*
X87300000Y-50900000D01*
X87450000Y-55500000D02*
X87450000Y-50900000D01*
X87600000Y-55500000D02*
X87600000Y-50900000D01*
X87750000Y-55500000D02*
X87750000Y-50900000D01*
X87900000Y-55500000D02*
X87900000Y-50900000D01*
X88050000Y-55500000D02*
X88050000Y-50900000D01*
X88200000Y-55500000D02*
X88200000Y-50900000D01*
X88350000Y-55500000D02*
X88350000Y-50900000D01*
X88500000Y-55500000D02*
X88500000Y-50900000D01*
X88500000Y-55525000D02*
X86525000Y-55525000D01*
X88650000Y-55500000D02*
X88650000Y-50950000D01*
X88800000Y-55540000D02*
X88800000Y-50900000D01*
X88950000Y-55550000D02*
X88950000Y-50900000D01*
X89100000Y-55550000D02*
X89100000Y-50950000D01*
X89250000Y-55600000D02*
X89250000Y-50890000D01*
X89400000Y-55700000D02*
X89400000Y-50880000D01*
X89488796Y-50875000D02*
X86525000Y-50875000D01*
X89550000Y-55750000D02*
X89550000Y-50900000D01*
X89700000Y-55850000D02*
X89700000Y-50930000D01*
X89850000Y-55950000D02*
X89850000Y-50980000D01*
X90000000Y-56050000D02*
X90000000Y-51060000D01*
X90150000Y-56200000D02*
X90150000Y-51250000D01*
X90300000Y-56350000D02*
X90300000Y-51450000D01*
X90350000Y-51900000D02*
X90350000Y-51576887D01*
X90400000Y-56520000D02*
X90400000Y-52400000D01*
X90500000Y-56700000D02*
X90500000Y-52550000D01*
X90500000Y-56700000D02*
X91775000Y-57725000D01*
X90600000Y-56770000D02*
X90600000Y-52750000D01*
X90700000Y-56850000D02*
X90700000Y-52850000D01*
X90800000Y-56930000D02*
X90800000Y-52900000D01*
X90910000Y-57020000D02*
X90900000Y-52950000D01*
X91050000Y-57120000D02*
X91050000Y-53000000D01*
X91200000Y-57260000D02*
X91200000Y-53100000D01*
X91350000Y-57380000D02*
X91350000Y-53100000D01*
X91500000Y-57490000D02*
X91500000Y-53100000D01*
X91650000Y-57610000D02*
X91650000Y-53150000D01*
X91800000Y-57700000D02*
X91800000Y-53100000D01*
X91950000Y-57700000D02*
X91950000Y-53100000D01*
X92100000Y-57700000D02*
X92100000Y-53100000D01*
X92250000Y-57700000D02*
X92250000Y-53100000D01*
X92400000Y-57700000D02*
X92400000Y-53100000D01*
X92550000Y-57700000D02*
X92550000Y-53100000D01*
X92700000Y-57700000D02*
X92700000Y-53100000D01*
X92850000Y-57700000D02*
X92850000Y-53100000D01*
X93000000Y-57700000D02*
X93000000Y-53100000D01*
X93150000Y-57700000D02*
X93150000Y-53100000D01*
X93300000Y-57700000D02*
X93300000Y-53100000D01*
X93450000Y-57700000D02*
X93450000Y-53100000D01*
X93600000Y-57700000D02*
X93600000Y-53100000D01*
X93750000Y-57700000D02*
X93750000Y-53100000D01*
X93900000Y-57700000D02*
X93900000Y-53100000D01*
X94050000Y-57700000D02*
X94050000Y-53100000D01*
X94100000Y-53075000D02*
X91525000Y-53075000D01*
X94100000Y-57725000D02*
X91775000Y-57725000D01*
X94200000Y-57590000D02*
X94200000Y-53200000D01*
X94350000Y-57450000D02*
X94350000Y-53330000D01*
X94500000Y-57320000D02*
X94500000Y-53490000D01*
X94650000Y-57160000D02*
X94650000Y-53630000D01*
X94750000Y-57060000D02*
X94750000Y-53730000D01*
X94850000Y-56950000D02*
X94850000Y-53830000D01*
X94950000Y-56870000D02*
X94950000Y-53940000D01*
X95100000Y-54075000D02*
X94100000Y-53075000D01*
X95100000Y-54075000D02*
X95100000Y-56725000D01*
X95100000Y-56725000D02*
X94100000Y-57725000D01*
X85495000Y-51875000D02*
G75*
G02*
X86495000Y-50875000I999999J1D01*
G01*
X86495000Y-55525000D02*
G75*
G02*
X85495000Y-54525000I-1J999999D01*
G01*
X88500000Y-55517458D02*
G75*
G02*
X90500000Y-56700000I-2J-2282546D01*
G01*
X89488796Y-50875000D02*
G75*
G02*
X90350000Y-51576887I-38796J-926887D01*
G01*
X91525000Y-53075000D02*
G75*
G02*
X90350000Y-51900000I2J1175002D01*
G01*
X83300000Y-50100000D02*
G75*
G02*
X82300000Y-50100000I-500000J0D01*
G01*
X82300000Y-50100000D02*
G75*
G02*
X83300000Y-50100000I500000J0D01*
G01*
D12*
X81927815Y-81814686D02*
X81927815Y-83005314D01*
X81927815Y-82410000D02*
X81729377Y-82410000D01*
X81927815Y-83005314D02*
X83515319Y-83005314D01*
X83118443Y-81814686D02*
X83118443Y-83005314D01*
X83515319Y-81814686D02*
X81927815Y-81814686D01*
X83515319Y-83005314D02*
X83515319Y-81814686D01*
X83713757Y-82410000D02*
X83515319Y-82410000D01*
X81901215Y-79214686D02*
X81901215Y-80405314D01*
X81901215Y-79810000D02*
X81702777Y-79810000D01*
X81901215Y-80405314D02*
X83488719Y-80405314D01*
X83091843Y-79214686D02*
X83091843Y-80405314D01*
X83488719Y-79214686D02*
X81901215Y-79214686D01*
X83488719Y-80405314D02*
X83488719Y-79214686D01*
X83687157Y-79810000D02*
X83488719Y-79810000D01*
D11*
X82600000Y-68055000D02*
X82600000Y-69555000D01*
D10*
X85495000Y-68875000D02*
X85495000Y-71525000D01*
X85650000Y-72030000D02*
X85650000Y-68350000D01*
X85800000Y-72200000D02*
X85800000Y-68230000D01*
X85950000Y-72340000D02*
X85950000Y-68200000D01*
X86100000Y-72420000D02*
X86100000Y-68300000D01*
X86250000Y-72470000D02*
X86250000Y-68150000D01*
X86400000Y-72510000D02*
X86400000Y-68000000D01*
X86550000Y-72500000D02*
X86550000Y-67900000D01*
X86700000Y-72500000D02*
X86700000Y-67900000D01*
X86850000Y-72500000D02*
X86850000Y-67900000D01*
D11*
X87000000Y-68055000D02*
X82600000Y-68055000D01*
D10*
X87000000Y-72500000D02*
X87000000Y-67900000D01*
X87150000Y-72500000D02*
X87150000Y-67900000D01*
X87300000Y-72500000D02*
X87300000Y-67900000D01*
X87450000Y-72500000D02*
X87450000Y-67900000D01*
X87600000Y-72500000D02*
X87600000Y-67900000D01*
X87750000Y-72500000D02*
X87750000Y-67900000D01*
X87900000Y-72500000D02*
X87900000Y-67900000D01*
X88050000Y-72500000D02*
X88050000Y-67900000D01*
X88200000Y-72500000D02*
X88200000Y-67900000D01*
X88350000Y-72500000D02*
X88350000Y-67900000D01*
X88500000Y-72500000D02*
X88500000Y-67900000D01*
X88500000Y-72525000D02*
X86525000Y-72525000D01*
X88650000Y-72500000D02*
X88650000Y-67950000D01*
X88800000Y-72540000D02*
X88800000Y-67900000D01*
X88950000Y-72550000D02*
X88950000Y-67900000D01*
X89100000Y-72550000D02*
X89100000Y-67950000D01*
X89250000Y-72600000D02*
X89250000Y-67890000D01*
X89400000Y-72700000D02*
X89400000Y-67880000D01*
X89488796Y-67875000D02*
X86525000Y-67875000D01*
X89550000Y-72750000D02*
X89550000Y-67900000D01*
X89700000Y-72850000D02*
X89700000Y-67930000D01*
X89850000Y-72950000D02*
X89850000Y-67980000D01*
X90000000Y-73050000D02*
X90000000Y-68060000D01*
X90150000Y-73200000D02*
X90150000Y-68250000D01*
X90300000Y-73350000D02*
X90300000Y-68450000D01*
X90350000Y-68900000D02*
X90350000Y-68576887D01*
X90400000Y-73520000D02*
X90400000Y-69400000D01*
X90500000Y-73700000D02*
X90500000Y-69550000D01*
X90500000Y-73700000D02*
X91775000Y-74725000D01*
X90600000Y-73770000D02*
X90600000Y-69750000D01*
X90700000Y-73850000D02*
X90700000Y-69850000D01*
X90800000Y-73930000D02*
X90800000Y-69900000D01*
X90910000Y-74020000D02*
X90900000Y-69950000D01*
X91050000Y-74120000D02*
X91050000Y-70000000D01*
X91200000Y-74260000D02*
X91200000Y-70100000D01*
X91350000Y-74380000D02*
X91350000Y-70100000D01*
X91500000Y-74490000D02*
X91500000Y-70100000D01*
X91650000Y-74610000D02*
X91650000Y-70150000D01*
X91800000Y-74700000D02*
X91800000Y-70100000D01*
X91950000Y-74700000D02*
X91950000Y-70100000D01*
X92100000Y-74700000D02*
X92100000Y-70100000D01*
X92250000Y-74700000D02*
X92250000Y-70100000D01*
X92400000Y-74700000D02*
X92400000Y-70100000D01*
X92550000Y-74700000D02*
X92550000Y-70100000D01*
X92700000Y-74700000D02*
X92700000Y-70100000D01*
X92850000Y-74700000D02*
X92850000Y-70100000D01*
X93000000Y-74700000D02*
X93000000Y-70100000D01*
X93150000Y-74700000D02*
X93150000Y-70100000D01*
X93300000Y-74700000D02*
X93300000Y-70100000D01*
X93450000Y-74700000D02*
X93450000Y-70100000D01*
X93600000Y-74700000D02*
X93600000Y-70100000D01*
X93750000Y-74700000D02*
X93750000Y-70100000D01*
X93900000Y-74700000D02*
X93900000Y-70100000D01*
X94050000Y-74700000D02*
X94050000Y-70100000D01*
X94100000Y-70075000D02*
X91525000Y-70075000D01*
X94100000Y-74725000D02*
X91775000Y-74725000D01*
X94200000Y-74590000D02*
X94200000Y-70200000D01*
X94350000Y-74450000D02*
X94350000Y-70330000D01*
X94500000Y-74320000D02*
X94500000Y-70490000D01*
X94650000Y-74160000D02*
X94650000Y-70630000D01*
X94750000Y-74060000D02*
X94750000Y-70730000D01*
X94850000Y-73950000D02*
X94850000Y-70830000D01*
X94950000Y-73870000D02*
X94950000Y-70940000D01*
X95100000Y-71075000D02*
X94100000Y-70075000D01*
X95100000Y-71075000D02*
X95100000Y-73725000D01*
X95100000Y-73725000D02*
X94100000Y-74725000D01*
X85495000Y-68875000D02*
G75*
G02*
X86495000Y-67875000I999999J1D01*
G01*
X86495000Y-72525000D02*
G75*
G02*
X85495000Y-71525000I-1J999999D01*
G01*
X88500000Y-72517458D02*
G75*
G02*
X90500000Y-73700000I-2J-2282546D01*
G01*
X89488796Y-67875000D02*
G75*
G02*
X90350000Y-68576887I-38796J-926887D01*
G01*
X91525000Y-70075000D02*
G75*
G02*
X90350000Y-68900000I2J1175002D01*
G01*
X83300000Y-67100000D02*
G75*
G02*
X82300000Y-67100000I-500000J0D01*
G01*
X82300000Y-67100000D02*
G75*
G02*
X83300000Y-67100000I500000J0D01*
G01*
D11*
X48600000Y-45555000D02*
X48600000Y-47055000D01*
D10*
X51495000Y-46375000D02*
X51495000Y-49025000D01*
X51650000Y-49530000D02*
X51650000Y-45850000D01*
X51800000Y-49700000D02*
X51800000Y-45730000D01*
X51950000Y-49840000D02*
X51950000Y-45700000D01*
X52100000Y-49920000D02*
X52100000Y-45800000D01*
X52250000Y-49970000D02*
X52250000Y-45650000D01*
X52400000Y-50010000D02*
X52400000Y-45500000D01*
X52550000Y-50000000D02*
X52550000Y-45400000D01*
X52700000Y-50000000D02*
X52700000Y-45400000D01*
X52850000Y-50000000D02*
X52850000Y-45400000D01*
D11*
X53000000Y-45555000D02*
X48600000Y-45555000D01*
D10*
X53000000Y-50000000D02*
X53000000Y-45400000D01*
X53150000Y-50000000D02*
X53150000Y-45400000D01*
X53300000Y-50000000D02*
X53300000Y-45400000D01*
X53450000Y-50000000D02*
X53450000Y-45400000D01*
X53600000Y-50000000D02*
X53600000Y-45400000D01*
X53750000Y-50000000D02*
X53750000Y-45400000D01*
X53900000Y-50000000D02*
X53900000Y-45400000D01*
X54050000Y-50000000D02*
X54050000Y-45400000D01*
X54200000Y-50000000D02*
X54200000Y-45400000D01*
X54350000Y-50000000D02*
X54350000Y-45400000D01*
X54500000Y-50000000D02*
X54500000Y-45400000D01*
X54500000Y-50025000D02*
X52525000Y-50025000D01*
X54650000Y-50000000D02*
X54650000Y-45450000D01*
X54800000Y-50040000D02*
X54800000Y-45400000D01*
X54950000Y-50050000D02*
X54950000Y-45400000D01*
X55100000Y-50050000D02*
X55100000Y-45450000D01*
X55250000Y-50100000D02*
X55250000Y-45390000D01*
X55400000Y-50200000D02*
X55400000Y-45380000D01*
X55488796Y-45375000D02*
X52525000Y-45375000D01*
X55550000Y-50250000D02*
X55550000Y-45400000D01*
X55700000Y-50350000D02*
X55700000Y-45430000D01*
X55850000Y-50450000D02*
X55850000Y-45480000D01*
X56000000Y-50550000D02*
X56000000Y-45560000D01*
X56150000Y-50700000D02*
X56150000Y-45750000D01*
X56300000Y-50850000D02*
X56300000Y-45950000D01*
X56350000Y-46400000D02*
X56350000Y-46076887D01*
X56400000Y-51020000D02*
X56400000Y-46900000D01*
X56500000Y-51200000D02*
X56500000Y-47050000D01*
X56500000Y-51200000D02*
X57775000Y-52225000D01*
X56600000Y-51270000D02*
X56600000Y-47250000D01*
X56700000Y-51350000D02*
X56700000Y-47350000D01*
X56800000Y-51430000D02*
X56800000Y-47400000D01*
X56910000Y-51520000D02*
X56900000Y-47450000D01*
X57050000Y-51620000D02*
X57050000Y-47500000D01*
X57200000Y-51760000D02*
X57200000Y-47600000D01*
X57350000Y-51880000D02*
X57350000Y-47600000D01*
X57500000Y-51990000D02*
X57500000Y-47600000D01*
X57650000Y-52110000D02*
X57650000Y-47650000D01*
X57800000Y-52200000D02*
X57800000Y-47600000D01*
X57950000Y-52200000D02*
X57950000Y-47600000D01*
X58100000Y-52200000D02*
X58100000Y-47600000D01*
X58250000Y-52200000D02*
X58250000Y-47600000D01*
X58400000Y-52200000D02*
X58400000Y-47600000D01*
X58550000Y-52200000D02*
X58550000Y-47600000D01*
X58700000Y-52200000D02*
X58700000Y-47600000D01*
X58850000Y-52200000D02*
X58850000Y-47600000D01*
X59000000Y-52200000D02*
X59000000Y-47600000D01*
X59150000Y-52200000D02*
X59150000Y-47600000D01*
X59300000Y-52200000D02*
X59300000Y-47600000D01*
X59450000Y-52200000D02*
X59450000Y-47600000D01*
X59600000Y-52200000D02*
X59600000Y-47600000D01*
X59750000Y-52200000D02*
X59750000Y-47600000D01*
X59900000Y-52200000D02*
X59900000Y-47600000D01*
X60050000Y-52200000D02*
X60050000Y-47600000D01*
X60100000Y-47575000D02*
X57525000Y-47575000D01*
X60100000Y-52225000D02*
X57775000Y-52225000D01*
X60200000Y-52090000D02*
X60200000Y-47700000D01*
X60350000Y-51950000D02*
X60350000Y-47830000D01*
X60500000Y-51820000D02*
X60500000Y-47990000D01*
X60650000Y-51660000D02*
X60650000Y-48130000D01*
X60750000Y-51560000D02*
X60750000Y-48230000D01*
X60850000Y-51450000D02*
X60850000Y-48330000D01*
X60950000Y-51370000D02*
X60950000Y-48440000D01*
X61100000Y-48575000D02*
X60100000Y-47575000D01*
X61100000Y-48575000D02*
X61100000Y-51225000D01*
X61100000Y-51225000D02*
X60100000Y-52225000D01*
X51495000Y-46375000D02*
G75*
G02*
X52495000Y-45375000I999999J1D01*
G01*
X52495000Y-50025000D02*
G75*
G02*
X51495000Y-49025000I-1J999999D01*
G01*
X54500000Y-50017458D02*
G75*
G02*
X56500000Y-51200000I-2J-2282546D01*
G01*
X55488796Y-45375000D02*
G75*
G02*
X56350000Y-46076887I-38796J-926887D01*
G01*
X57525000Y-47575000D02*
G75*
G02*
X56350000Y-46400000I2J1175002D01*
G01*
X49300000Y-44600000D02*
G75*
G02*
X48300000Y-44600000I-500000J0D01*
G01*
X48300000Y-44600000D02*
G75*
G02*
X49300000Y-44600000I500000J0D01*
G01*
D11*
X99600000Y-39855000D02*
X99600000Y-41355000D01*
D10*
X102495000Y-40675000D02*
X102495000Y-43325000D01*
X102650000Y-43830000D02*
X102650000Y-40150000D01*
X102800000Y-44000000D02*
X102800000Y-40030000D01*
X102950000Y-44140000D02*
X102950000Y-40000000D01*
X103100000Y-44220000D02*
X103100000Y-40100000D01*
X103250000Y-44270000D02*
X103250000Y-39950000D01*
X103400000Y-44310000D02*
X103400000Y-39800000D01*
X103550000Y-44300000D02*
X103550000Y-39700000D01*
X103700000Y-44300000D02*
X103700000Y-39700000D01*
X103850000Y-44300000D02*
X103850000Y-39700000D01*
D11*
X104000000Y-39855000D02*
X99600000Y-39855000D01*
D10*
X104000000Y-44300000D02*
X104000000Y-39700000D01*
X104150000Y-44300000D02*
X104150000Y-39700000D01*
X104300000Y-44300000D02*
X104300000Y-39700000D01*
X104450000Y-44300000D02*
X104450000Y-39700000D01*
X104600000Y-44300000D02*
X104600000Y-39700000D01*
X104750000Y-44300000D02*
X104750000Y-39700000D01*
X104900000Y-44300000D02*
X104900000Y-39700000D01*
X105050000Y-44300000D02*
X105050000Y-39700000D01*
X105200000Y-44300000D02*
X105200000Y-39700000D01*
X105350000Y-44300000D02*
X105350000Y-39700000D01*
X105500000Y-44300000D02*
X105500000Y-39700000D01*
X105500000Y-44325000D02*
X103525000Y-44325000D01*
X105650000Y-44300000D02*
X105650000Y-39750000D01*
X105800000Y-44340000D02*
X105800000Y-39700000D01*
X105950000Y-44350000D02*
X105950000Y-39700000D01*
X106100000Y-44350000D02*
X106100000Y-39750000D01*
X106250000Y-44400000D02*
X106250000Y-39690000D01*
X106400000Y-44500000D02*
X106400000Y-39680000D01*
X106488796Y-39675000D02*
X103525000Y-39675000D01*
X106550000Y-44550000D02*
X106550000Y-39700000D01*
X106700000Y-44650000D02*
X106700000Y-39730000D01*
X106850000Y-44750000D02*
X106850000Y-39780000D01*
X107000000Y-44850000D02*
X107000000Y-39860000D01*
X107150000Y-45000000D02*
X107150000Y-40050000D01*
X107300000Y-45150000D02*
X107300000Y-40250000D01*
X107350000Y-40700000D02*
X107350000Y-40376887D01*
X107400000Y-45320000D02*
X107400000Y-41200000D01*
X107500000Y-45500000D02*
X107500000Y-41350000D01*
X107500000Y-45500000D02*
X108775000Y-46525000D01*
X107600000Y-45570000D02*
X107600000Y-41550000D01*
X107700000Y-45650000D02*
X107700000Y-41650000D01*
X107800000Y-45730000D02*
X107800000Y-41700000D01*
X107910000Y-45820000D02*
X107900000Y-41750000D01*
X108050000Y-45920000D02*
X108050000Y-41800000D01*
X108200000Y-46060000D02*
X108200000Y-41900000D01*
X108350000Y-46180000D02*
X108350000Y-41900000D01*
X108500000Y-46290000D02*
X108500000Y-41900000D01*
X108650000Y-46410000D02*
X108650000Y-41950000D01*
X108800000Y-46500000D02*
X108800000Y-41900000D01*
X108950000Y-46500000D02*
X108950000Y-41900000D01*
X109100000Y-46500000D02*
X109100000Y-41900000D01*
X109250000Y-46500000D02*
X109250000Y-41900000D01*
X109400000Y-46500000D02*
X109400000Y-41900000D01*
X109550000Y-46500000D02*
X109550000Y-41900000D01*
X109700000Y-46500000D02*
X109700000Y-41900000D01*
X109850000Y-46500000D02*
X109850000Y-41900000D01*
X110000000Y-46500000D02*
X110000000Y-41900000D01*
X110150000Y-46500000D02*
X110150000Y-41900000D01*
X110300000Y-46500000D02*
X110300000Y-41900000D01*
X110450000Y-46500000D02*
X110450000Y-41900000D01*
X110600000Y-46500000D02*
X110600000Y-41900000D01*
X110750000Y-46500000D02*
X110750000Y-41900000D01*
X110900000Y-46500000D02*
X110900000Y-41900000D01*
X111050000Y-46500000D02*
X111050000Y-41900000D01*
X111100000Y-41875000D02*
X108525000Y-41875000D01*
X111100000Y-46525000D02*
X108775000Y-46525000D01*
X111200000Y-46390000D02*
X111200000Y-42000000D01*
X111350000Y-46250000D02*
X111350000Y-42130000D01*
X111500000Y-46120000D02*
X111500000Y-42290000D01*
X111650000Y-45960000D02*
X111650000Y-42430000D01*
X111750000Y-45860000D02*
X111750000Y-42530000D01*
X111850000Y-45750000D02*
X111850000Y-42630000D01*
X111950000Y-45670000D02*
X111950000Y-42740000D01*
X112100000Y-42875000D02*
X111100000Y-41875000D01*
X112100000Y-42875000D02*
X112100000Y-45525000D01*
X112100000Y-45525000D02*
X111100000Y-46525000D01*
X102495000Y-40675000D02*
G75*
G02*
X103495000Y-39675000I999999J1D01*
G01*
X103495000Y-44325000D02*
G75*
G02*
X102495000Y-43325000I-1J999999D01*
G01*
X105500000Y-44317458D02*
G75*
G02*
X107500000Y-45500000I-2J-2282546D01*
G01*
X106488796Y-39675000D02*
G75*
G02*
X107350000Y-40376887I-38796J-926887D01*
G01*
X108525000Y-41875000D02*
G75*
G02*
X107350000Y-40700000I2J1175002D01*
G01*
X100300000Y-38900000D02*
G75*
G02*
X99300000Y-38900000I-500000J0D01*
G01*
X99300000Y-38900000D02*
G75*
G02*
X100300000Y-38900000I500000J0D01*
G01*
D12*
X28254715Y-41029686D02*
X28254715Y-42220314D01*
X28254715Y-41625000D02*
X28056277Y-41625000D01*
X28254715Y-42220314D02*
X29842219Y-42220314D01*
X29445343Y-41029686D02*
X29445343Y-42220314D01*
X29842219Y-41029686D02*
X28254715Y-41029686D01*
X29842219Y-42220314D02*
X29842219Y-41029686D01*
X30040657Y-41625000D02*
X29842219Y-41625000D01*
D11*
X48600000Y-79555000D02*
X48600000Y-81055000D01*
D10*
X51495000Y-80375000D02*
X51495000Y-83025000D01*
X51650000Y-83530000D02*
X51650000Y-79850000D01*
X51800000Y-83700000D02*
X51800000Y-79730000D01*
X51950000Y-83840000D02*
X51950000Y-79700000D01*
X52100000Y-83920000D02*
X52100000Y-79800000D01*
X52250000Y-83970000D02*
X52250000Y-79650000D01*
X52400000Y-84010000D02*
X52400000Y-79500000D01*
X52550000Y-84000000D02*
X52550000Y-79400000D01*
X52700000Y-84000000D02*
X52700000Y-79400000D01*
X52850000Y-84000000D02*
X52850000Y-79400000D01*
D11*
X53000000Y-79555000D02*
X48600000Y-79555000D01*
D10*
X53000000Y-84000000D02*
X53000000Y-79400000D01*
X53150000Y-84000000D02*
X53150000Y-79400000D01*
X53300000Y-84000000D02*
X53300000Y-79400000D01*
X53450000Y-84000000D02*
X53450000Y-79400000D01*
X53600000Y-84000000D02*
X53600000Y-79400000D01*
X53750000Y-84000000D02*
X53750000Y-79400000D01*
X53900000Y-84000000D02*
X53900000Y-79400000D01*
X54050000Y-84000000D02*
X54050000Y-79400000D01*
X54200000Y-84000000D02*
X54200000Y-79400000D01*
X54350000Y-84000000D02*
X54350000Y-79400000D01*
X54500000Y-84000000D02*
X54500000Y-79400000D01*
X54500000Y-84025000D02*
X52525000Y-84025000D01*
X54650000Y-84000000D02*
X54650000Y-79450000D01*
X54800000Y-84040000D02*
X54800000Y-79400000D01*
X54950000Y-84050000D02*
X54950000Y-79400000D01*
X55100000Y-84050000D02*
X55100000Y-79450000D01*
X55250000Y-84100000D02*
X55250000Y-79390000D01*
X55400000Y-84200000D02*
X55400000Y-79380000D01*
X55488796Y-79375000D02*
X52525000Y-79375000D01*
X55550000Y-84250000D02*
X55550000Y-79400000D01*
X55700000Y-84350000D02*
X55700000Y-79430000D01*
X55850000Y-84450000D02*
X55850000Y-79480000D01*
X56000000Y-84550000D02*
X56000000Y-79560000D01*
X56150000Y-84700000D02*
X56150000Y-79750000D01*
X56300000Y-84850000D02*
X56300000Y-79950000D01*
X56350000Y-80400000D02*
X56350000Y-80076887D01*
X56400000Y-85020000D02*
X56400000Y-80900000D01*
X56500000Y-85200000D02*
X56500000Y-81050000D01*
X56500000Y-85200000D02*
X57775000Y-86225000D01*
X56600000Y-85270000D02*
X56600000Y-81250000D01*
X56700000Y-85350000D02*
X56700000Y-81350000D01*
X56800000Y-85430000D02*
X56800000Y-81400000D01*
X56910000Y-85520000D02*
X56900000Y-81450000D01*
X57050000Y-85620000D02*
X57050000Y-81500000D01*
X57200000Y-85760000D02*
X57200000Y-81600000D01*
X57350000Y-85880000D02*
X57350000Y-81600000D01*
X57500000Y-85990000D02*
X57500000Y-81600000D01*
X57650000Y-86110000D02*
X57650000Y-81650000D01*
X57800000Y-86200000D02*
X57800000Y-81600000D01*
X57950000Y-86200000D02*
X57950000Y-81600000D01*
X58100000Y-86200000D02*
X58100000Y-81600000D01*
X58250000Y-86200000D02*
X58250000Y-81600000D01*
X58400000Y-86200000D02*
X58400000Y-81600000D01*
X58550000Y-86200000D02*
X58550000Y-81600000D01*
X58700000Y-86200000D02*
X58700000Y-81600000D01*
X58850000Y-86200000D02*
X58850000Y-81600000D01*
X59000000Y-86200000D02*
X59000000Y-81600000D01*
X59150000Y-86200000D02*
X59150000Y-81600000D01*
X59300000Y-86200000D02*
X59300000Y-81600000D01*
X59450000Y-86200000D02*
X59450000Y-81600000D01*
X59600000Y-86200000D02*
X59600000Y-81600000D01*
X59750000Y-86200000D02*
X59750000Y-81600000D01*
X59900000Y-86200000D02*
X59900000Y-81600000D01*
X60050000Y-86200000D02*
X60050000Y-81600000D01*
X60100000Y-81575000D02*
X57525000Y-81575000D01*
X60100000Y-86225000D02*
X57775000Y-86225000D01*
X60200000Y-86090000D02*
X60200000Y-81700000D01*
X60350000Y-85950000D02*
X60350000Y-81830000D01*
X60500000Y-85820000D02*
X60500000Y-81990000D01*
X60650000Y-85660000D02*
X60650000Y-82130000D01*
X60750000Y-85560000D02*
X60750000Y-82230000D01*
X60850000Y-85450000D02*
X60850000Y-82330000D01*
X60950000Y-85370000D02*
X60950000Y-82440000D01*
X61100000Y-82575000D02*
X60100000Y-81575000D01*
X61100000Y-82575000D02*
X61100000Y-85225000D01*
X61100000Y-85225000D02*
X60100000Y-86225000D01*
X51495000Y-80375000D02*
G75*
G02*
X52495000Y-79375000I999999J1D01*
G01*
X52495000Y-84025000D02*
G75*
G02*
X51495000Y-83025000I-1J999999D01*
G01*
X54500000Y-84017458D02*
G75*
G02*
X56500000Y-85200000I-2J-2282546D01*
G01*
X55488796Y-79375000D02*
G75*
G02*
X56350000Y-80076887I-38796J-926887D01*
G01*
X57525000Y-81575000D02*
G75*
G02*
X56350000Y-80400000I2J1175002D01*
G01*
X49300000Y-78600000D02*
G75*
G02*
X48300000Y-78600000I-500000J0D01*
G01*
X48300000Y-78600000D02*
G75*
G02*
X49300000Y-78600000I500000J0D01*
G01*
D12*
X74907815Y-42904686D02*
X74907815Y-44095314D01*
X74907815Y-43500000D02*
X74709377Y-43500000D01*
X74907815Y-44095314D02*
X76495319Y-44095314D01*
X76098443Y-42904686D02*
X76098443Y-44095314D01*
X76495319Y-42904686D02*
X74907815Y-42904686D01*
X76495319Y-44095314D02*
X76495319Y-42904686D01*
X76693757Y-43500000D02*
X76495319Y-43500000D01*
X45254715Y-69404686D02*
X45254715Y-70595314D01*
X45254715Y-70000000D02*
X45056277Y-70000000D01*
X45254715Y-70595314D02*
X46842219Y-70595314D01*
X46445343Y-69404686D02*
X46445343Y-70595314D01*
X46842219Y-69404686D02*
X45254715Y-69404686D01*
X46842219Y-70595314D02*
X46842219Y-69404686D01*
X47040657Y-70000000D02*
X46842219Y-70000000D01*
X45231215Y-32804686D02*
X45231215Y-33995314D01*
X45231215Y-33400000D02*
X45032777Y-33400000D01*
X45231215Y-33995314D02*
X46818719Y-33995314D01*
X46421843Y-32804686D02*
X46421843Y-33995314D01*
X46818719Y-32804686D02*
X45231215Y-32804686D01*
X46818719Y-33995314D02*
X46818719Y-32804686D01*
X47017157Y-33400000D02*
X46818719Y-33400000D01*
X112254715Y-81704686D02*
X112254715Y-82895314D01*
X112254715Y-82300000D02*
X112056277Y-82300000D01*
X112254715Y-82895314D02*
X113842219Y-82895314D01*
X113445343Y-81704686D02*
X113445343Y-82895314D01*
X113842219Y-81704686D02*
X112254715Y-81704686D01*
X113842219Y-82895314D02*
X113842219Y-81704686D01*
X114040657Y-82300000D02*
X113842219Y-82300000D01*
D10*
X39500000Y-56875000D02*
X40500000Y-55875000D01*
X39500000Y-59525000D02*
X39500000Y-56875000D01*
X39500000Y-59525000D02*
X40500000Y-60525000D01*
X39650000Y-56730000D02*
X39650000Y-59660000D01*
X39750000Y-56650000D02*
X39750000Y-59770000D01*
X39850000Y-56540000D02*
X39850000Y-59870000D01*
X39950000Y-56440000D02*
X39950000Y-59970000D01*
X40100000Y-56280000D02*
X40100000Y-60110000D01*
X40250000Y-56150000D02*
X40250000Y-60270000D01*
X40400000Y-56010000D02*
X40400000Y-60400000D01*
X40500000Y-55875000D02*
X42825000Y-55875000D01*
X40500000Y-60525000D02*
X43075000Y-60525000D01*
X40550000Y-55900000D02*
X40550000Y-60500000D01*
X40700000Y-55900000D02*
X40700000Y-60500000D01*
X40850000Y-55900000D02*
X40850000Y-60500000D01*
X41000000Y-55900000D02*
X41000000Y-60500000D01*
X41150000Y-55900000D02*
X41150000Y-60500000D01*
X41300000Y-55900000D02*
X41300000Y-60500000D01*
X41450000Y-55900000D02*
X41450000Y-60500000D01*
X41600000Y-55900000D02*
X41600000Y-60500000D01*
X41750000Y-55900000D02*
X41750000Y-60500000D01*
X41900000Y-55900000D02*
X41900000Y-60500000D01*
X42050000Y-55900000D02*
X42050000Y-60500000D01*
X42200000Y-55900000D02*
X42200000Y-60500000D01*
X42350000Y-55900000D02*
X42350000Y-60500000D01*
X42500000Y-55900000D02*
X42500000Y-60500000D01*
X42650000Y-55900000D02*
X42650000Y-60500000D01*
X42800000Y-55900000D02*
X42800000Y-60500000D01*
X42950000Y-55990000D02*
X42950000Y-60450000D01*
X43100000Y-56110000D02*
X43100000Y-60500000D01*
X43250000Y-56220000D02*
X43250000Y-60500000D01*
X43400000Y-56340000D02*
X43400000Y-60500000D01*
X43550000Y-56480000D02*
X43550000Y-60600000D01*
X43690000Y-56580000D02*
X43700000Y-60650000D01*
X43800000Y-56670000D02*
X43800000Y-60700000D01*
X43900000Y-56750000D02*
X43900000Y-60750000D01*
X44000000Y-56830000D02*
X44000000Y-60850000D01*
X44100000Y-56900000D02*
X42825000Y-55875000D01*
X44100000Y-56900000D02*
X44100000Y-61050000D01*
X44200000Y-57080000D02*
X44200000Y-61200000D01*
X44250000Y-61700000D02*
X44250000Y-62023113D01*
X44300000Y-57250000D02*
X44300000Y-62150000D01*
X44450000Y-57400000D02*
X44450000Y-62350000D01*
X44600000Y-57550000D02*
X44600000Y-62540000D01*
X44750000Y-57650000D02*
X44750000Y-62620000D01*
X44900000Y-57750000D02*
X44900000Y-62670000D01*
X45050000Y-57850000D02*
X45050000Y-62700000D01*
X45111204Y-62725000D02*
X48075000Y-62725000D01*
X45200000Y-57900000D02*
X45200000Y-62720000D01*
X45350000Y-58000000D02*
X45350000Y-62710000D01*
X45500000Y-58050000D02*
X45500000Y-62650000D01*
X45650000Y-58050000D02*
X45650000Y-62700000D01*
X45800000Y-58060000D02*
X45800000Y-62700000D01*
X45950000Y-58100000D02*
X45950000Y-62650000D01*
X46100000Y-58075000D02*
X48075000Y-58075000D01*
X46100000Y-58100000D02*
X46100000Y-62700000D01*
X46250000Y-58100000D02*
X46250000Y-62700000D01*
X46400000Y-58100000D02*
X46400000Y-62700000D01*
X46550000Y-58100000D02*
X46550000Y-62700000D01*
X46700000Y-58100000D02*
X46700000Y-62700000D01*
X46850000Y-58100000D02*
X46850000Y-62700000D01*
X47000000Y-58100000D02*
X47000000Y-62700000D01*
X47150000Y-58100000D02*
X47150000Y-62700000D01*
X47300000Y-58100000D02*
X47300000Y-62700000D01*
X47450000Y-58100000D02*
X47450000Y-62700000D01*
X47600000Y-58100000D02*
X47600000Y-62700000D01*
D11*
X47600000Y-62545000D02*
X52000000Y-62545000D01*
D10*
X47750000Y-58100000D02*
X47750000Y-62700000D01*
X47900000Y-58100000D02*
X47900000Y-62700000D01*
X48050000Y-58100000D02*
X48050000Y-62700000D01*
X48200000Y-58090000D02*
X48200000Y-62600000D01*
X48350000Y-58130000D02*
X48350000Y-62450000D01*
X48500000Y-58180000D02*
X48500000Y-62300000D01*
X48650000Y-58260000D02*
X48650000Y-62400000D01*
X48800000Y-58400000D02*
X48800000Y-62370000D01*
X48950000Y-58570000D02*
X48950000Y-62250000D01*
X49105000Y-61725000D02*
X49105000Y-59075000D01*
D11*
X52000000Y-62545000D02*
X52000000Y-61045000D01*
D10*
X43075000Y-60525000D02*
G75*
G02*
X44250000Y-61700000I-2J-1175002D01*
G01*
X45111204Y-62725000D02*
G75*
G02*
X44250000Y-62023113I38796J926887D01*
G01*
X46100000Y-58082542D02*
G75*
G02*
X44100000Y-56900000I2J2282546D01*
G01*
X48105000Y-58075000D02*
G75*
G02*
X49105000Y-59075000I1J-999999D01*
G01*
X49105000Y-61725000D02*
G75*
G02*
X48105000Y-62725000I-999999J-1D01*
G01*
X52300000Y-63500000D02*
G75*
G02*
X51300000Y-63500000I-500000J0D01*
G01*
X51300000Y-63500000D02*
G75*
G02*
X52300000Y-63500000I500000J0D01*
G01*
D11*
X65600000Y-82655000D02*
X65600000Y-84155000D01*
D10*
X68495000Y-83475000D02*
X68495000Y-86125000D01*
X68650000Y-86630000D02*
X68650000Y-82950000D01*
X68800000Y-86800000D02*
X68800000Y-82830000D01*
X68950000Y-86940000D02*
X68950000Y-82800000D01*
X69100000Y-87020000D02*
X69100000Y-82900000D01*
X69250000Y-87070000D02*
X69250000Y-82750000D01*
X69400000Y-87110000D02*
X69400000Y-82600000D01*
X69550000Y-87100000D02*
X69550000Y-82500000D01*
X69700000Y-87100000D02*
X69700000Y-82500000D01*
X69850000Y-87100000D02*
X69850000Y-82500000D01*
D11*
X70000000Y-82655000D02*
X65600000Y-82655000D01*
D10*
X70000000Y-87100000D02*
X70000000Y-82500000D01*
X70150000Y-87100000D02*
X70150000Y-82500000D01*
X70300000Y-87100000D02*
X70300000Y-82500000D01*
X70450000Y-87100000D02*
X70450000Y-82500000D01*
X70600000Y-87100000D02*
X70600000Y-82500000D01*
X70750000Y-87100000D02*
X70750000Y-82500000D01*
X70900000Y-87100000D02*
X70900000Y-82500000D01*
X71050000Y-87100000D02*
X71050000Y-82500000D01*
X71200000Y-87100000D02*
X71200000Y-82500000D01*
X71350000Y-87100000D02*
X71350000Y-82500000D01*
X71500000Y-87100000D02*
X71500000Y-82500000D01*
X71500000Y-87125000D02*
X69525000Y-87125000D01*
X71650000Y-87100000D02*
X71650000Y-82550000D01*
X71800000Y-87140000D02*
X71800000Y-82500000D01*
X71950000Y-87150000D02*
X71950000Y-82500000D01*
X72100000Y-87150000D02*
X72100000Y-82550000D01*
X72250000Y-87200000D02*
X72250000Y-82490000D01*
X72400000Y-87300000D02*
X72400000Y-82480000D01*
X72488796Y-82475000D02*
X69525000Y-82475000D01*
X72550000Y-87350000D02*
X72550000Y-82500000D01*
X72700000Y-87450000D02*
X72700000Y-82530000D01*
X72850000Y-87550000D02*
X72850000Y-82580000D01*
X73000000Y-87650000D02*
X73000000Y-82660000D01*
X73150000Y-87800000D02*
X73150000Y-82850000D01*
X73300000Y-87950000D02*
X73300000Y-83050000D01*
X73350000Y-83500000D02*
X73350000Y-83176887D01*
X73400000Y-88120000D02*
X73400000Y-84000000D01*
X73500000Y-88300000D02*
X73500000Y-84150000D01*
X73500000Y-88300000D02*
X74775000Y-89325000D01*
X73600000Y-88370000D02*
X73600000Y-84350000D01*
X73700000Y-88450000D02*
X73700000Y-84450000D01*
X73800000Y-88530000D02*
X73800000Y-84500000D01*
X73910000Y-88620000D02*
X73900000Y-84550000D01*
X74050000Y-88720000D02*
X74050000Y-84600000D01*
X74200000Y-88860000D02*
X74200000Y-84700000D01*
X74350000Y-88980000D02*
X74350000Y-84700000D01*
X74500000Y-89090000D02*
X74500000Y-84700000D01*
X74650000Y-89210000D02*
X74650000Y-84750000D01*
X74800000Y-89300000D02*
X74800000Y-84700000D01*
X74950000Y-89300000D02*
X74950000Y-84700000D01*
X75100000Y-89300000D02*
X75100000Y-84700000D01*
X75250000Y-89300000D02*
X75250000Y-84700000D01*
X75400000Y-89300000D02*
X75400000Y-84700000D01*
X75550000Y-89300000D02*
X75550000Y-84700000D01*
X75700000Y-89300000D02*
X75700000Y-84700000D01*
X75850000Y-89300000D02*
X75850000Y-84700000D01*
X76000000Y-89300000D02*
X76000000Y-84700000D01*
X76150000Y-89300000D02*
X76150000Y-84700000D01*
X76300000Y-89300000D02*
X76300000Y-84700000D01*
X76450000Y-89300000D02*
X76450000Y-84700000D01*
X76600000Y-89300000D02*
X76600000Y-84700000D01*
X76750000Y-89300000D02*
X76750000Y-84700000D01*
X76900000Y-89300000D02*
X76900000Y-84700000D01*
X77050000Y-89300000D02*
X77050000Y-84700000D01*
X77100000Y-84675000D02*
X74525000Y-84675000D01*
X77100000Y-89325000D02*
X74775000Y-89325000D01*
X77200000Y-89190000D02*
X77200000Y-84800000D01*
X77350000Y-89050000D02*
X77350000Y-84930000D01*
X77500000Y-88920000D02*
X77500000Y-85090000D01*
X77650000Y-88760000D02*
X77650000Y-85230000D01*
X77750000Y-88660000D02*
X77750000Y-85330000D01*
X77850000Y-88550000D02*
X77850000Y-85430000D01*
X77950000Y-88470000D02*
X77950000Y-85540000D01*
X78100000Y-85675000D02*
X77100000Y-84675000D01*
X78100000Y-85675000D02*
X78100000Y-88325000D01*
X78100000Y-88325000D02*
X77100000Y-89325000D01*
X68495000Y-83475000D02*
G75*
G02*
X69495000Y-82475000I999999J1D01*
G01*
X69495000Y-87125000D02*
G75*
G02*
X68495000Y-86125000I-1J999999D01*
G01*
X71500000Y-87117458D02*
G75*
G02*
X73500000Y-88300000I-2J-2282546D01*
G01*
X72488796Y-82475000D02*
G75*
G02*
X73350000Y-83176887I-38796J-926887D01*
G01*
X74525000Y-84675000D02*
G75*
G02*
X73350000Y-83500000I2J1175002D01*
G01*
X66300000Y-81700000D02*
G75*
G02*
X65300000Y-81700000I-500000J0D01*
G01*
X65300000Y-81700000D02*
G75*
G02*
X66300000Y-81700000I500000J0D01*
G01*
D12*
X109154715Y-68004686D02*
X109154715Y-69195314D01*
X109154715Y-68600000D02*
X108956277Y-68600000D01*
X109154715Y-69195314D02*
X110742219Y-69195314D01*
X110345343Y-68004686D02*
X110345343Y-69195314D01*
X110742219Y-68004686D02*
X109154715Y-68004686D01*
X110742219Y-69195314D02*
X110742219Y-68004686D01*
X110940657Y-68600000D02*
X110742219Y-68600000D01*
X74881215Y-40304686D02*
X74881215Y-41495314D01*
X74881215Y-40900000D02*
X74682777Y-40900000D01*
X74881215Y-41495314D02*
X76468719Y-41495314D01*
X76071843Y-40304686D02*
X76071843Y-41495314D01*
X76468719Y-40304686D02*
X74881215Y-40304686D01*
X76468719Y-41495314D02*
X76468719Y-40304686D01*
X76667157Y-40900000D02*
X76468719Y-40900000D01*
D11*
X65600000Y-48655000D02*
X65600000Y-50155000D01*
D10*
X68495000Y-49475000D02*
X68495000Y-52125000D01*
X68650000Y-52630000D02*
X68650000Y-48950000D01*
X68800000Y-52800000D02*
X68800000Y-48830000D01*
X68950000Y-52940000D02*
X68950000Y-48800000D01*
X69100000Y-53020000D02*
X69100000Y-48900000D01*
X69250000Y-53070000D02*
X69250000Y-48750000D01*
X69400000Y-53110000D02*
X69400000Y-48600000D01*
X69550000Y-53100000D02*
X69550000Y-48500000D01*
X69700000Y-53100000D02*
X69700000Y-48500000D01*
X69850000Y-53100000D02*
X69850000Y-48500000D01*
D11*
X70000000Y-48655000D02*
X65600000Y-48655000D01*
D10*
X70000000Y-53100000D02*
X70000000Y-48500000D01*
X70150000Y-53100000D02*
X70150000Y-48500000D01*
X70300000Y-53100000D02*
X70300000Y-48500000D01*
X70450000Y-53100000D02*
X70450000Y-48500000D01*
X70600000Y-53100000D02*
X70600000Y-48500000D01*
X70750000Y-53100000D02*
X70750000Y-48500000D01*
X70900000Y-53100000D02*
X70900000Y-48500000D01*
X71050000Y-53100000D02*
X71050000Y-48500000D01*
X71200000Y-53100000D02*
X71200000Y-48500000D01*
X71350000Y-53100000D02*
X71350000Y-48500000D01*
X71500000Y-53100000D02*
X71500000Y-48500000D01*
X71500000Y-53125000D02*
X69525000Y-53125000D01*
X71650000Y-53100000D02*
X71650000Y-48550000D01*
X71800000Y-53140000D02*
X71800000Y-48500000D01*
X71950000Y-53150000D02*
X71950000Y-48500000D01*
X72100000Y-53150000D02*
X72100000Y-48550000D01*
X72250000Y-53200000D02*
X72250000Y-48490000D01*
X72400000Y-53300000D02*
X72400000Y-48480000D01*
X72488796Y-48475000D02*
X69525000Y-48475000D01*
X72550000Y-53350000D02*
X72550000Y-48500000D01*
X72700000Y-53450000D02*
X72700000Y-48530000D01*
X72850000Y-53550000D02*
X72850000Y-48580000D01*
X73000000Y-53650000D02*
X73000000Y-48660000D01*
X73150000Y-53800000D02*
X73150000Y-48850000D01*
X73300000Y-53950000D02*
X73300000Y-49050000D01*
X73350000Y-49500000D02*
X73350000Y-49176887D01*
X73400000Y-54120000D02*
X73400000Y-50000000D01*
X73500000Y-54300000D02*
X73500000Y-50150000D01*
X73500000Y-54300000D02*
X74775000Y-55325000D01*
X73600000Y-54370000D02*
X73600000Y-50350000D01*
X73700000Y-54450000D02*
X73700000Y-50450000D01*
X73800000Y-54530000D02*
X73800000Y-50500000D01*
X73910000Y-54620000D02*
X73900000Y-50550000D01*
X74050000Y-54720000D02*
X74050000Y-50600000D01*
X74200000Y-54860000D02*
X74200000Y-50700000D01*
X74350000Y-54980000D02*
X74350000Y-50700000D01*
X74500000Y-55090000D02*
X74500000Y-50700000D01*
X74650000Y-55210000D02*
X74650000Y-50750000D01*
X74800000Y-55300000D02*
X74800000Y-50700000D01*
X74950000Y-55300000D02*
X74950000Y-50700000D01*
X75100000Y-55300000D02*
X75100000Y-50700000D01*
X75250000Y-55300000D02*
X75250000Y-50700000D01*
X75400000Y-55300000D02*
X75400000Y-50700000D01*
X75550000Y-55300000D02*
X75550000Y-50700000D01*
X75700000Y-55300000D02*
X75700000Y-50700000D01*
X75850000Y-55300000D02*
X75850000Y-50700000D01*
X76000000Y-55300000D02*
X76000000Y-50700000D01*
X76150000Y-55300000D02*
X76150000Y-50700000D01*
X76300000Y-55300000D02*
X76300000Y-50700000D01*
X76450000Y-55300000D02*
X76450000Y-50700000D01*
X76600000Y-55300000D02*
X76600000Y-50700000D01*
X76750000Y-55300000D02*
X76750000Y-50700000D01*
X76900000Y-55300000D02*
X76900000Y-50700000D01*
X77050000Y-55300000D02*
X77050000Y-50700000D01*
X77100000Y-50675000D02*
X74525000Y-50675000D01*
X77100000Y-55325000D02*
X74775000Y-55325000D01*
X77200000Y-55190000D02*
X77200000Y-50800000D01*
X77350000Y-55050000D02*
X77350000Y-50930000D01*
X77500000Y-54920000D02*
X77500000Y-51090000D01*
X77650000Y-54760000D02*
X77650000Y-51230000D01*
X77750000Y-54660000D02*
X77750000Y-51330000D01*
X77850000Y-54550000D02*
X77850000Y-51430000D01*
X77950000Y-54470000D02*
X77950000Y-51540000D01*
X78100000Y-51675000D02*
X77100000Y-50675000D01*
X78100000Y-51675000D02*
X78100000Y-54325000D01*
X78100000Y-54325000D02*
X77100000Y-55325000D01*
X68495000Y-49475000D02*
G75*
G02*
X69495000Y-48475000I999999J1D01*
G01*
X69495000Y-53125000D02*
G75*
G02*
X68495000Y-52125000I-1J999999D01*
G01*
X71500000Y-53117458D02*
G75*
G02*
X73500000Y-54300000I-2J-2282546D01*
G01*
X72488796Y-48475000D02*
G75*
G02*
X73350000Y-49176887I-38796J-926887D01*
G01*
X74525000Y-50675000D02*
G75*
G02*
X73350000Y-49500000I2J1175002D01*
G01*
X66300000Y-47700000D02*
G75*
G02*
X65300000Y-47700000I-500000J0D01*
G01*
X65300000Y-47700000D02*
G75*
G02*
X66300000Y-47700000I500000J0D01*
G01*
D12*
X58081215Y-37304686D02*
X58081215Y-38495314D01*
X58081215Y-37900000D02*
X57882777Y-37900000D01*
X58081215Y-38495314D02*
X59668719Y-38495314D01*
X59271843Y-37304686D02*
X59271843Y-38495314D01*
X59668719Y-37304686D02*
X58081215Y-37304686D01*
X59668719Y-38495314D02*
X59668719Y-37304686D01*
X59867157Y-37900000D02*
X59668719Y-37900000D01*
X108781215Y-48504686D02*
X108781215Y-49695314D01*
X108781215Y-49100000D02*
X108582777Y-49100000D01*
X108781215Y-49695314D02*
X110368719Y-49695314D01*
X109971843Y-48504686D02*
X109971843Y-49695314D01*
X110368719Y-48504686D02*
X108781215Y-48504686D01*
X110368719Y-49695314D02*
X110368719Y-48504686D01*
X110567157Y-49100000D02*
X110368719Y-49100000D01*
D10*
X68495000Y-32475000D02*
X68495000Y-35125000D01*
X68650000Y-35630000D02*
X68650000Y-31950000D01*
X68800000Y-35800000D02*
X68800000Y-31830000D01*
X68950000Y-35940000D02*
X68950000Y-31800000D01*
X69100000Y-36020000D02*
X69100000Y-31900000D01*
X69250000Y-36070000D02*
X69250000Y-31750000D01*
X69400000Y-36110000D02*
X69400000Y-31600000D01*
X69550000Y-36100000D02*
X69550000Y-31500000D01*
X69700000Y-36100000D02*
X69700000Y-31500000D01*
X69850000Y-36100000D02*
X69850000Y-31500000D01*
X70000000Y-36100000D02*
X70000000Y-31500000D01*
X70150000Y-36100000D02*
X70150000Y-31500000D01*
X70300000Y-36100000D02*
X70300000Y-31500000D01*
X70450000Y-36100000D02*
X70450000Y-31500000D01*
X70600000Y-36100000D02*
X70600000Y-31500000D01*
X70750000Y-36100000D02*
X70750000Y-31500000D01*
X70900000Y-36100000D02*
X70900000Y-31500000D01*
X71050000Y-36100000D02*
X71050000Y-31500000D01*
X71200000Y-36100000D02*
X71200000Y-31500000D01*
X71350000Y-36100000D02*
X71350000Y-31500000D01*
X71500000Y-36100000D02*
X71500000Y-31500000D01*
X71500000Y-36125000D02*
X69525000Y-36125000D01*
X71650000Y-36100000D02*
X71650000Y-31550000D01*
X71800000Y-36140000D02*
X71800000Y-31500000D01*
X71950000Y-36150000D02*
X71950000Y-31500000D01*
X72100000Y-36150000D02*
X72100000Y-31550000D01*
X72250000Y-36200000D02*
X72250000Y-31490000D01*
X72400000Y-36300000D02*
X72400000Y-31480000D01*
X72488796Y-31475000D02*
X69525000Y-31475000D01*
X72550000Y-36350000D02*
X72550000Y-31500000D01*
X72700000Y-36450000D02*
X72700000Y-31530000D01*
X72850000Y-36550000D02*
X72850000Y-31580000D01*
X73000000Y-36650000D02*
X73000000Y-31660000D01*
X73150000Y-36800000D02*
X73150000Y-31850000D01*
X73300000Y-36950000D02*
X73300000Y-32050000D01*
X73350000Y-32500000D02*
X73350000Y-32176887D01*
X73400000Y-37120000D02*
X73400000Y-33000000D01*
X73500000Y-37300000D02*
X73500000Y-33150000D01*
X73500000Y-37300000D02*
X74775000Y-38325000D01*
X73600000Y-37370000D02*
X73600000Y-33350000D01*
X73700000Y-37450000D02*
X73700000Y-33450000D01*
X73800000Y-37530000D02*
X73800000Y-33500000D01*
X73910000Y-37620000D02*
X73900000Y-33550000D01*
X74050000Y-37720000D02*
X74050000Y-33600000D01*
X74200000Y-37860000D02*
X74200000Y-33700000D01*
X74350000Y-37980000D02*
X74350000Y-33700000D01*
X74500000Y-38090000D02*
X74500000Y-33700000D01*
X74650000Y-38210000D02*
X74650000Y-33750000D01*
X74800000Y-38300000D02*
X74800000Y-33700000D01*
X74950000Y-38300000D02*
X74950000Y-33700000D01*
X75100000Y-38300000D02*
X75100000Y-33700000D01*
X75250000Y-38300000D02*
X75250000Y-33700000D01*
X75400000Y-38300000D02*
X75400000Y-33700000D01*
X75550000Y-38300000D02*
X75550000Y-33700000D01*
X75700000Y-38300000D02*
X75700000Y-33700000D01*
X75850000Y-38300000D02*
X75850000Y-33700000D01*
X76000000Y-38300000D02*
X76000000Y-33700000D01*
X76150000Y-38300000D02*
X76150000Y-33700000D01*
X76300000Y-38300000D02*
X76300000Y-33700000D01*
X76450000Y-38300000D02*
X76450000Y-33700000D01*
X76600000Y-38300000D02*
X76600000Y-33700000D01*
X76750000Y-38300000D02*
X76750000Y-33700000D01*
X76900000Y-38300000D02*
X76900000Y-33700000D01*
X77050000Y-38300000D02*
X77050000Y-33700000D01*
X77100000Y-33675000D02*
X74525000Y-33675000D01*
X77100000Y-38325000D02*
X74775000Y-38325000D01*
X77200000Y-38190000D02*
X77200000Y-33800000D01*
X77350000Y-38050000D02*
X77350000Y-33930000D01*
X77500000Y-37920000D02*
X77500000Y-34090000D01*
X77650000Y-37760000D02*
X77650000Y-34230000D01*
X77750000Y-37660000D02*
X77750000Y-34330000D01*
X77850000Y-37550000D02*
X77850000Y-34430000D01*
X77950000Y-37470000D02*
X77950000Y-34540000D01*
X78100000Y-34675000D02*
X77100000Y-33675000D01*
X78100000Y-34675000D02*
X78100000Y-37325000D01*
X78100000Y-37325000D02*
X77100000Y-38325000D01*
X68495000Y-32475000D02*
G75*
G02*
X69495000Y-31475000I999999J1D01*
G01*
X69495000Y-36125000D02*
G75*
G02*
X68495000Y-35125000I-1J999999D01*
G01*
X71500000Y-36117458D02*
G75*
G02*
X73500000Y-37300000I-2J-2282546D01*
G01*
X72488796Y-31475000D02*
G75*
G02*
X73350000Y-32176887I-38796J-926887D01*
G01*
X74525000Y-33675000D02*
G75*
G02*
X73350000Y-32500000I2J1175002D01*
G01*
X70100000Y-30700000D02*
G75*
G02*
X69100000Y-30700000I-500000J0D01*
G01*
X69100000Y-30700000D02*
G75*
G02*
X70100000Y-30700000I500000J0D01*
G01*
X22500000Y-31075000D02*
X23500000Y-30075000D01*
X22500000Y-33725000D02*
X22500000Y-31075000D01*
X22500000Y-33725000D02*
X23500000Y-34725000D01*
X22650000Y-30930000D02*
X22650000Y-33860000D01*
X22750000Y-30850000D02*
X22750000Y-33970000D01*
X22850000Y-30740000D02*
X22850000Y-34070000D01*
X22950000Y-30640000D02*
X22950000Y-34170000D01*
X23100000Y-30480000D02*
X23100000Y-34310000D01*
X23250000Y-30350000D02*
X23250000Y-34470000D01*
X23400000Y-30210000D02*
X23400000Y-34600000D01*
X23500000Y-30075000D02*
X25825000Y-30075000D01*
X23500000Y-34725000D02*
X26075000Y-34725000D01*
X23550000Y-30100000D02*
X23550000Y-34700000D01*
X23700000Y-30100000D02*
X23700000Y-34700000D01*
X23850000Y-30100000D02*
X23850000Y-34700000D01*
X24000000Y-30100000D02*
X24000000Y-34700000D01*
X24150000Y-30100000D02*
X24150000Y-34700000D01*
X24300000Y-30100000D02*
X24300000Y-34700000D01*
X24450000Y-30100000D02*
X24450000Y-34700000D01*
X24600000Y-30100000D02*
X24600000Y-34700000D01*
X24750000Y-30100000D02*
X24750000Y-34700000D01*
X24900000Y-30100000D02*
X24900000Y-34700000D01*
X25050000Y-30100000D02*
X25050000Y-34700000D01*
X25200000Y-30100000D02*
X25200000Y-34700000D01*
X25350000Y-30100000D02*
X25350000Y-34700000D01*
X25500000Y-30100000D02*
X25500000Y-34700000D01*
X25650000Y-30100000D02*
X25650000Y-34700000D01*
X25800000Y-30100000D02*
X25800000Y-34700000D01*
X25950000Y-30190000D02*
X25950000Y-34650000D01*
X26100000Y-30310000D02*
X26100000Y-34700000D01*
X26250000Y-30420000D02*
X26250000Y-34700000D01*
X26400000Y-30540000D02*
X26400000Y-34700000D01*
X26550000Y-30680000D02*
X26550000Y-34800000D01*
X26690000Y-30780000D02*
X26700000Y-34850000D01*
X26800000Y-30870000D02*
X26800000Y-34900000D01*
X26900000Y-30950000D02*
X26900000Y-34950000D01*
X27000000Y-31030000D02*
X27000000Y-35050000D01*
X27100000Y-31100000D02*
X25825000Y-30075000D01*
X27100000Y-31100000D02*
X27100000Y-35250000D01*
X27200000Y-31280000D02*
X27200000Y-35400000D01*
X27250000Y-35900000D02*
X27250000Y-36223113D01*
X27300000Y-31450000D02*
X27300000Y-36350000D01*
X27450000Y-31600000D02*
X27450000Y-36550000D01*
X27600000Y-31750000D02*
X27600000Y-36740000D01*
X27750000Y-31850000D02*
X27750000Y-36820000D01*
X27900000Y-31950000D02*
X27900000Y-36870000D01*
X28050000Y-32050000D02*
X28050000Y-36900000D01*
X28111204Y-36925000D02*
X31075000Y-36925000D01*
X28200000Y-32100000D02*
X28200000Y-36920000D01*
X28350000Y-32200000D02*
X28350000Y-36910000D01*
X28500000Y-32250000D02*
X28500000Y-36850000D01*
X28650000Y-32250000D02*
X28650000Y-36900000D01*
X28800000Y-32260000D02*
X28800000Y-36900000D01*
X28950000Y-32300000D02*
X28950000Y-36850000D01*
X29100000Y-32275000D02*
X31075000Y-32275000D01*
X29100000Y-32300000D02*
X29100000Y-36900000D01*
X29250000Y-32300000D02*
X29250000Y-36900000D01*
X29400000Y-32300000D02*
X29400000Y-36900000D01*
X29550000Y-32300000D02*
X29550000Y-36900000D01*
X29700000Y-32300000D02*
X29700000Y-36900000D01*
X29850000Y-32300000D02*
X29850000Y-36900000D01*
X30000000Y-32300000D02*
X30000000Y-36900000D01*
X30150000Y-32300000D02*
X30150000Y-36900000D01*
X30300000Y-32300000D02*
X30300000Y-36900000D01*
X30450000Y-32300000D02*
X30450000Y-36900000D01*
X30600000Y-32300000D02*
X30600000Y-36900000D01*
D11*
X30600000Y-36745000D02*
X35000000Y-36745000D01*
D10*
X30750000Y-32300000D02*
X30750000Y-36900000D01*
X30900000Y-32300000D02*
X30900000Y-36900000D01*
X31050000Y-32300000D02*
X31050000Y-36900000D01*
X31200000Y-32290000D02*
X31200000Y-36800000D01*
X31350000Y-32330000D02*
X31350000Y-36650000D01*
X31500000Y-32380000D02*
X31500000Y-36500000D01*
X31650000Y-32460000D02*
X31650000Y-36600000D01*
X31800000Y-32600000D02*
X31800000Y-36570000D01*
X31950000Y-32770000D02*
X31950000Y-36450000D01*
X32105000Y-35925000D02*
X32105000Y-33275000D01*
D11*
X35000000Y-36745000D02*
X35000000Y-35245000D01*
D10*
X26075000Y-34725000D02*
G75*
G02*
X27250000Y-35900000I-2J-1175002D01*
G01*
X28111204Y-36925000D02*
G75*
G02*
X27250000Y-36223113I38796J926887D01*
G01*
X29100000Y-32282542D02*
G75*
G02*
X27100000Y-31100000I2J2282546D01*
G01*
X31105000Y-32275000D02*
G75*
G02*
X32105000Y-33275000I1J-999999D01*
G01*
X32105000Y-35925000D02*
G75*
G02*
X31105000Y-36925000I-999999J-1D01*
G01*
X35300000Y-37700000D02*
G75*
G02*
X34300000Y-37700000I-500000J0D01*
G01*
X34300000Y-37700000D02*
G75*
G02*
X35300000Y-37700000I500000J0D01*
G01*
D11*
X48600000Y-28555000D02*
X48600000Y-30055000D01*
D10*
X51495000Y-29375000D02*
X51495000Y-32025000D01*
X51650000Y-32530000D02*
X51650000Y-28850000D01*
X51800000Y-32700000D02*
X51800000Y-28730000D01*
X51950000Y-32840000D02*
X51950000Y-28700000D01*
X52100000Y-32920000D02*
X52100000Y-28800000D01*
X52250000Y-32970000D02*
X52250000Y-28650000D01*
X52400000Y-33010000D02*
X52400000Y-28500000D01*
X52550000Y-33000000D02*
X52550000Y-28400000D01*
X52700000Y-33000000D02*
X52700000Y-28400000D01*
X52850000Y-33000000D02*
X52850000Y-28400000D01*
D11*
X53000000Y-28555000D02*
X48600000Y-28555000D01*
D10*
X53000000Y-33000000D02*
X53000000Y-28400000D01*
X53150000Y-33000000D02*
X53150000Y-28400000D01*
X53300000Y-33000000D02*
X53300000Y-28400000D01*
X53450000Y-33000000D02*
X53450000Y-28400000D01*
X53600000Y-33000000D02*
X53600000Y-28400000D01*
X53750000Y-33000000D02*
X53750000Y-28400000D01*
X53900000Y-33000000D02*
X53900000Y-28400000D01*
X54050000Y-33000000D02*
X54050000Y-28400000D01*
X54200000Y-33000000D02*
X54200000Y-28400000D01*
X54350000Y-33000000D02*
X54350000Y-28400000D01*
X54500000Y-33000000D02*
X54500000Y-28400000D01*
X54500000Y-33025000D02*
X52525000Y-33025000D01*
X54650000Y-33000000D02*
X54650000Y-28450000D01*
X54800000Y-33040000D02*
X54800000Y-28400000D01*
X54950000Y-33050000D02*
X54950000Y-28400000D01*
X55100000Y-33050000D02*
X55100000Y-28450000D01*
X55250000Y-33100000D02*
X55250000Y-28390000D01*
X55400000Y-33200000D02*
X55400000Y-28380000D01*
X55488796Y-28375000D02*
X52525000Y-28375000D01*
X55550000Y-33250000D02*
X55550000Y-28400000D01*
X55700000Y-33350000D02*
X55700000Y-28430000D01*
X55850000Y-33450000D02*
X55850000Y-28480000D01*
X56000000Y-33550000D02*
X56000000Y-28560000D01*
X56150000Y-33700000D02*
X56150000Y-28750000D01*
X56300000Y-33850000D02*
X56300000Y-28950000D01*
X56350000Y-29400000D02*
X56350000Y-29076887D01*
X56400000Y-34020000D02*
X56400000Y-29900000D01*
X56500000Y-34200000D02*
X56500000Y-30050000D01*
X56500000Y-34200000D02*
X57775000Y-35225000D01*
X56600000Y-34270000D02*
X56600000Y-30250000D01*
X56700000Y-34350000D02*
X56700000Y-30350000D01*
X56800000Y-34430000D02*
X56800000Y-30400000D01*
X56910000Y-34520000D02*
X56900000Y-30450000D01*
X57050000Y-34620000D02*
X57050000Y-30500000D01*
X57200000Y-34760000D02*
X57200000Y-30600000D01*
X57350000Y-34880000D02*
X57350000Y-30600000D01*
X57500000Y-34990000D02*
X57500000Y-30600000D01*
X57650000Y-35110000D02*
X57650000Y-30650000D01*
X57800000Y-35200000D02*
X57800000Y-30600000D01*
X57950000Y-35200000D02*
X57950000Y-30600000D01*
X58100000Y-35200000D02*
X58100000Y-30600000D01*
X58250000Y-35200000D02*
X58250000Y-30600000D01*
X58400000Y-35200000D02*
X58400000Y-30600000D01*
X58550000Y-35200000D02*
X58550000Y-30600000D01*
X58700000Y-35200000D02*
X58700000Y-30600000D01*
X58850000Y-35200000D02*
X58850000Y-30600000D01*
X59000000Y-35200000D02*
X59000000Y-30600000D01*
X59150000Y-35200000D02*
X59150000Y-30600000D01*
X59300000Y-35200000D02*
X59300000Y-30600000D01*
X59450000Y-35200000D02*
X59450000Y-30600000D01*
X59600000Y-35200000D02*
X59600000Y-30600000D01*
X59750000Y-35200000D02*
X59750000Y-30600000D01*
X59900000Y-35200000D02*
X59900000Y-30600000D01*
X60050000Y-35200000D02*
X60050000Y-30600000D01*
X60100000Y-30575000D02*
X57525000Y-30575000D01*
X60100000Y-35225000D02*
X57775000Y-35225000D01*
X60200000Y-35090000D02*
X60200000Y-30700000D01*
X60350000Y-34950000D02*
X60350000Y-30830000D01*
X60500000Y-34820000D02*
X60500000Y-30990000D01*
X60650000Y-34660000D02*
X60650000Y-31130000D01*
X60750000Y-34560000D02*
X60750000Y-31230000D01*
X60850000Y-34450000D02*
X60850000Y-31330000D01*
X60950000Y-34370000D02*
X60950000Y-31440000D01*
X61100000Y-31575000D02*
X60100000Y-30575000D01*
X61100000Y-31575000D02*
X61100000Y-34225000D01*
X61100000Y-34225000D02*
X60100000Y-35225000D01*
X51495000Y-29375000D02*
G75*
G02*
X52495000Y-28375000I999999J1D01*
G01*
X52495000Y-33025000D02*
G75*
G02*
X51495000Y-32025000I-1J999999D01*
G01*
X54500000Y-33017458D02*
G75*
G02*
X56500000Y-34200000I-2J-2282546D01*
G01*
X55488796Y-28375000D02*
G75*
G02*
X56350000Y-29076887I-38796J-926887D01*
G01*
X57525000Y-30575000D02*
G75*
G02*
X56350000Y-29400000I2J1175002D01*
G01*
X49300000Y-27600000D02*
G75*
G02*
X48300000Y-27600000I-500000J0D01*
G01*
X48300000Y-27600000D02*
G75*
G02*
X49300000Y-27600000I500000J0D01*
G01*
X39500000Y-22875000D02*
X40500000Y-21875000D01*
X39500000Y-25525000D02*
X39500000Y-22875000D01*
X39500000Y-25525000D02*
X40500000Y-26525000D01*
X39650000Y-22730000D02*
X39650000Y-25660000D01*
X39750000Y-22650000D02*
X39750000Y-25770000D01*
X39850000Y-22540000D02*
X39850000Y-25870000D01*
X39950000Y-22440000D02*
X39950000Y-25970000D01*
X40100000Y-22280000D02*
X40100000Y-26110000D01*
X40250000Y-22150000D02*
X40250000Y-26270000D01*
X40400000Y-22010000D02*
X40400000Y-26400000D01*
X40500000Y-21875000D02*
X42825000Y-21875000D01*
X40500000Y-26525000D02*
X43075000Y-26525000D01*
X40550000Y-21900000D02*
X40550000Y-26500000D01*
X40700000Y-21900000D02*
X40700000Y-26500000D01*
X40850000Y-21900000D02*
X40850000Y-26500000D01*
X41000000Y-21900000D02*
X41000000Y-26500000D01*
X41150000Y-21900000D02*
X41150000Y-26500000D01*
X41300000Y-21900000D02*
X41300000Y-26500000D01*
X41450000Y-21900000D02*
X41450000Y-26500000D01*
X41600000Y-21900000D02*
X41600000Y-26500000D01*
X41750000Y-21900000D02*
X41750000Y-26500000D01*
X41900000Y-21900000D02*
X41900000Y-26500000D01*
X42050000Y-21900000D02*
X42050000Y-26500000D01*
X42200000Y-21900000D02*
X42200000Y-26500000D01*
X42350000Y-21900000D02*
X42350000Y-26500000D01*
X42500000Y-21900000D02*
X42500000Y-26500000D01*
X42650000Y-21900000D02*
X42650000Y-26500000D01*
X42800000Y-21900000D02*
X42800000Y-26500000D01*
X42950000Y-21990000D02*
X42950000Y-26450000D01*
X43100000Y-22110000D02*
X43100000Y-26500000D01*
X43250000Y-22220000D02*
X43250000Y-26500000D01*
X43400000Y-22340000D02*
X43400000Y-26500000D01*
X43550000Y-22480000D02*
X43550000Y-26600000D01*
X43690000Y-22580000D02*
X43700000Y-26650000D01*
X43800000Y-22670000D02*
X43800000Y-26700000D01*
X43900000Y-22750000D02*
X43900000Y-26750000D01*
X44000000Y-22830000D02*
X44000000Y-26850000D01*
X44100000Y-22900000D02*
X42825000Y-21875000D01*
X44100000Y-22900000D02*
X44100000Y-27050000D01*
X44200000Y-23080000D02*
X44200000Y-27200000D01*
X44250000Y-27700000D02*
X44250000Y-28023113D01*
X44300000Y-23250000D02*
X44300000Y-28150000D01*
X44450000Y-23400000D02*
X44450000Y-28350000D01*
X44600000Y-23550000D02*
X44600000Y-28540000D01*
X44750000Y-23650000D02*
X44750000Y-28620000D01*
X44900000Y-23750000D02*
X44900000Y-28670000D01*
X45050000Y-23850000D02*
X45050000Y-28700000D01*
X45111204Y-28725000D02*
X48075000Y-28725000D01*
X45200000Y-23900000D02*
X45200000Y-28720000D01*
X45350000Y-24000000D02*
X45350000Y-28710000D01*
X45500000Y-24050000D02*
X45500000Y-28650000D01*
X45650000Y-24050000D02*
X45650000Y-28700000D01*
X45800000Y-24060000D02*
X45800000Y-28700000D01*
X45950000Y-24100000D02*
X45950000Y-28650000D01*
X46100000Y-24075000D02*
X48075000Y-24075000D01*
X46100000Y-24100000D02*
X46100000Y-28700000D01*
X46250000Y-24100000D02*
X46250000Y-28700000D01*
X46400000Y-24100000D02*
X46400000Y-28700000D01*
X46550000Y-24100000D02*
X46550000Y-28700000D01*
X46700000Y-24100000D02*
X46700000Y-28700000D01*
X46850000Y-24100000D02*
X46850000Y-28700000D01*
X47000000Y-24100000D02*
X47000000Y-28700000D01*
X47150000Y-24100000D02*
X47150000Y-28700000D01*
X47300000Y-24100000D02*
X47300000Y-28700000D01*
X47450000Y-24100000D02*
X47450000Y-28700000D01*
X47600000Y-24100000D02*
X47600000Y-28700000D01*
D11*
X47600000Y-28545000D02*
X52000000Y-28545000D01*
D10*
X47750000Y-24100000D02*
X47750000Y-28700000D01*
X47900000Y-24100000D02*
X47900000Y-28700000D01*
X48050000Y-24100000D02*
X48050000Y-28700000D01*
X48200000Y-24090000D02*
X48200000Y-28600000D01*
X48350000Y-24130000D02*
X48350000Y-28450000D01*
X48500000Y-24180000D02*
X48500000Y-28300000D01*
X48650000Y-24260000D02*
X48650000Y-28400000D01*
X48800000Y-24400000D02*
X48800000Y-28370000D01*
X48950000Y-24570000D02*
X48950000Y-28250000D01*
X49105000Y-27725000D02*
X49105000Y-25075000D01*
D11*
X52000000Y-28545000D02*
X52000000Y-27045000D01*
D10*
X43075000Y-26525000D02*
G75*
G02*
X44250000Y-27700000I-2J-1175002D01*
G01*
X45111204Y-28725000D02*
G75*
G02*
X44250000Y-28023113I38796J926887D01*
G01*
X46100000Y-24082542D02*
G75*
G02*
X44100000Y-22900000I2J2282546D01*
G01*
X48105000Y-24075000D02*
G75*
G02*
X49105000Y-25075000I1J-999999D01*
G01*
X49105000Y-27725000D02*
G75*
G02*
X48105000Y-28725000I-999999J-1D01*
G01*
X52300000Y-29500000D02*
G75*
G02*
X51300000Y-29500000I-500000J0D01*
G01*
X51300000Y-29500000D02*
G75*
G02*
X52300000Y-29500000I500000J0D01*
G01*
X22500000Y-48075000D02*
X23500000Y-47075000D01*
X22500000Y-50725000D02*
X22500000Y-48075000D01*
X22500000Y-50725000D02*
X23500000Y-51725000D01*
X22650000Y-47930000D02*
X22650000Y-50860000D01*
X22750000Y-47850000D02*
X22750000Y-50970000D01*
X22850000Y-47740000D02*
X22850000Y-51070000D01*
X22950000Y-47640000D02*
X22950000Y-51170000D01*
X23100000Y-47480000D02*
X23100000Y-51310000D01*
X23250000Y-47350000D02*
X23250000Y-51470000D01*
X23400000Y-47210000D02*
X23400000Y-51600000D01*
X23500000Y-47075000D02*
X25825000Y-47075000D01*
X23500000Y-51725000D02*
X26075000Y-51725000D01*
X23550000Y-47100000D02*
X23550000Y-51700000D01*
X23700000Y-47100000D02*
X23700000Y-51700000D01*
X23850000Y-47100000D02*
X23850000Y-51700000D01*
X24000000Y-47100000D02*
X24000000Y-51700000D01*
X24150000Y-47100000D02*
X24150000Y-51700000D01*
X24300000Y-47100000D02*
X24300000Y-51700000D01*
X24450000Y-47100000D02*
X24450000Y-51700000D01*
X24600000Y-47100000D02*
X24600000Y-51700000D01*
X24750000Y-47100000D02*
X24750000Y-51700000D01*
X24900000Y-47100000D02*
X24900000Y-51700000D01*
X25050000Y-47100000D02*
X25050000Y-51700000D01*
X25200000Y-47100000D02*
X25200000Y-51700000D01*
X25350000Y-47100000D02*
X25350000Y-51700000D01*
X25500000Y-47100000D02*
X25500000Y-51700000D01*
X25650000Y-47100000D02*
X25650000Y-51700000D01*
X25800000Y-47100000D02*
X25800000Y-51700000D01*
X25950000Y-47190000D02*
X25950000Y-51650000D01*
X26100000Y-47310000D02*
X26100000Y-51700000D01*
X26250000Y-47420000D02*
X26250000Y-51700000D01*
X26400000Y-47540000D02*
X26400000Y-51700000D01*
X26550000Y-47680000D02*
X26550000Y-51800000D01*
X26690000Y-47780000D02*
X26700000Y-51850000D01*
X26800000Y-47870000D02*
X26800000Y-51900000D01*
X26900000Y-47950000D02*
X26900000Y-51950000D01*
X27000000Y-48030000D02*
X27000000Y-52050000D01*
X27100000Y-48100000D02*
X25825000Y-47075000D01*
X27100000Y-48100000D02*
X27100000Y-52250000D01*
X27200000Y-48280000D02*
X27200000Y-52400000D01*
X27250000Y-52900000D02*
X27250000Y-53223113D01*
X27300000Y-48450000D02*
X27300000Y-53350000D01*
X27450000Y-48600000D02*
X27450000Y-53550000D01*
X27600000Y-48750000D02*
X27600000Y-53740000D01*
X27750000Y-48850000D02*
X27750000Y-53820000D01*
X27900000Y-48950000D02*
X27900000Y-53870000D01*
X28050000Y-49050000D02*
X28050000Y-53900000D01*
X28111204Y-53925000D02*
X31075000Y-53925000D01*
X28200000Y-49100000D02*
X28200000Y-53920000D01*
X28350000Y-49200000D02*
X28350000Y-53910000D01*
X28500000Y-49250000D02*
X28500000Y-53850000D01*
X28650000Y-49250000D02*
X28650000Y-53900000D01*
X28800000Y-49260000D02*
X28800000Y-53900000D01*
X28950000Y-49300000D02*
X28950000Y-53850000D01*
X29100000Y-49275000D02*
X31075000Y-49275000D01*
X29100000Y-49300000D02*
X29100000Y-53900000D01*
X29250000Y-49300000D02*
X29250000Y-53900000D01*
X29400000Y-49300000D02*
X29400000Y-53900000D01*
X29550000Y-49300000D02*
X29550000Y-53900000D01*
X29700000Y-49300000D02*
X29700000Y-53900000D01*
X29850000Y-49300000D02*
X29850000Y-53900000D01*
X30000000Y-49300000D02*
X30000000Y-53900000D01*
X30150000Y-49300000D02*
X30150000Y-53900000D01*
X30300000Y-49300000D02*
X30300000Y-53900000D01*
X30450000Y-49300000D02*
X30450000Y-53900000D01*
X30600000Y-49300000D02*
X30600000Y-53900000D01*
D11*
X30600000Y-53745000D02*
X35000000Y-53745000D01*
D10*
X30750000Y-49300000D02*
X30750000Y-53900000D01*
X30900000Y-49300000D02*
X30900000Y-53900000D01*
X31050000Y-49300000D02*
X31050000Y-53900000D01*
X31200000Y-49290000D02*
X31200000Y-53800000D01*
X31350000Y-49330000D02*
X31350000Y-53650000D01*
X31500000Y-49380000D02*
X31500000Y-53500000D01*
X31650000Y-49460000D02*
X31650000Y-53600000D01*
X31800000Y-49600000D02*
X31800000Y-53570000D01*
X31950000Y-49770000D02*
X31950000Y-53450000D01*
X32105000Y-52925000D02*
X32105000Y-50275000D01*
D11*
X35000000Y-53745000D02*
X35000000Y-52245000D01*
D10*
X26075000Y-51725000D02*
G75*
G02*
X27250000Y-52900000I-2J-1175002D01*
G01*
X28111204Y-53925000D02*
G75*
G02*
X27250000Y-53223113I38796J926887D01*
G01*
X29100000Y-49282542D02*
G75*
G02*
X27100000Y-48100000I2J2282546D01*
G01*
X31105000Y-49275000D02*
G75*
G02*
X32105000Y-50275000I1J-999999D01*
G01*
X32105000Y-52925000D02*
G75*
G02*
X31105000Y-53925000I-999999J-1D01*
G01*
X35300000Y-54700000D02*
G75*
G02*
X34300000Y-54700000I-500000J0D01*
G01*
X34300000Y-54700000D02*
G75*
G02*
X35300000Y-54700000I500000J0D01*
G01*
X39500000Y-39875000D02*
X40500000Y-38875000D01*
X39500000Y-42525000D02*
X39500000Y-39875000D01*
X39500000Y-42525000D02*
X40500000Y-43525000D01*
X39650000Y-39730000D02*
X39650000Y-42660000D01*
X39750000Y-39650000D02*
X39750000Y-42770000D01*
X39850000Y-39540000D02*
X39850000Y-42870000D01*
X39950000Y-39440000D02*
X39950000Y-42970000D01*
X40100000Y-39280000D02*
X40100000Y-43110000D01*
X40250000Y-39150000D02*
X40250000Y-43270000D01*
X40400000Y-39010000D02*
X40400000Y-43400000D01*
X40500000Y-38875000D02*
X42825000Y-38875000D01*
X40500000Y-43525000D02*
X43075000Y-43525000D01*
X40550000Y-38900000D02*
X40550000Y-43500000D01*
X40700000Y-38900000D02*
X40700000Y-43500000D01*
X40850000Y-38900000D02*
X40850000Y-43500000D01*
X41000000Y-38900000D02*
X41000000Y-43500000D01*
X41150000Y-38900000D02*
X41150000Y-43500000D01*
X41300000Y-38900000D02*
X41300000Y-43500000D01*
X41450000Y-38900000D02*
X41450000Y-43500000D01*
X41600000Y-38900000D02*
X41600000Y-43500000D01*
X41750000Y-38900000D02*
X41750000Y-43500000D01*
X41900000Y-38900000D02*
X41900000Y-43500000D01*
X42050000Y-38900000D02*
X42050000Y-43500000D01*
X42200000Y-38900000D02*
X42200000Y-43500000D01*
X42350000Y-38900000D02*
X42350000Y-43500000D01*
X42500000Y-38900000D02*
X42500000Y-43500000D01*
X42650000Y-38900000D02*
X42650000Y-43500000D01*
X42800000Y-38900000D02*
X42800000Y-43500000D01*
X42950000Y-38990000D02*
X42950000Y-43450000D01*
X43100000Y-39110000D02*
X43100000Y-43500000D01*
X43250000Y-39220000D02*
X43250000Y-43500000D01*
X43400000Y-39340000D02*
X43400000Y-43500000D01*
X43550000Y-39480000D02*
X43550000Y-43600000D01*
X43690000Y-39580000D02*
X43700000Y-43650000D01*
X43800000Y-39670000D02*
X43800000Y-43700000D01*
X43900000Y-39750000D02*
X43900000Y-43750000D01*
X44000000Y-39830000D02*
X44000000Y-43850000D01*
X44100000Y-39900000D02*
X42825000Y-38875000D01*
X44100000Y-39900000D02*
X44100000Y-44050000D01*
X44200000Y-40080000D02*
X44200000Y-44200000D01*
X44250000Y-44700000D02*
X44250000Y-45023113D01*
X44300000Y-40250000D02*
X44300000Y-45150000D01*
X44450000Y-40400000D02*
X44450000Y-45350000D01*
X44600000Y-40550000D02*
X44600000Y-45540000D01*
X44750000Y-40650000D02*
X44750000Y-45620000D01*
X44900000Y-40750000D02*
X44900000Y-45670000D01*
X45050000Y-40850000D02*
X45050000Y-45700000D01*
X45111204Y-45725000D02*
X48075000Y-45725000D01*
X45200000Y-40900000D02*
X45200000Y-45720000D01*
X45350000Y-41000000D02*
X45350000Y-45710000D01*
X45500000Y-41050000D02*
X45500000Y-45650000D01*
X45650000Y-41050000D02*
X45650000Y-45700000D01*
X45800000Y-41060000D02*
X45800000Y-45700000D01*
X45950000Y-41100000D02*
X45950000Y-45650000D01*
X46100000Y-41075000D02*
X48075000Y-41075000D01*
X46100000Y-41100000D02*
X46100000Y-45700000D01*
X46250000Y-41100000D02*
X46250000Y-45700000D01*
X46400000Y-41100000D02*
X46400000Y-45700000D01*
X46550000Y-41100000D02*
X46550000Y-45700000D01*
X46700000Y-41100000D02*
X46700000Y-45700000D01*
X46850000Y-41100000D02*
X46850000Y-45700000D01*
X47000000Y-41100000D02*
X47000000Y-45700000D01*
X47150000Y-41100000D02*
X47150000Y-45700000D01*
X47300000Y-41100000D02*
X47300000Y-45700000D01*
X47450000Y-41100000D02*
X47450000Y-45700000D01*
X47600000Y-41100000D02*
X47600000Y-45700000D01*
D11*
X47600000Y-45545000D02*
X52000000Y-45545000D01*
D10*
X47750000Y-41100000D02*
X47750000Y-45700000D01*
X47900000Y-41100000D02*
X47900000Y-45700000D01*
X48050000Y-41100000D02*
X48050000Y-45700000D01*
X48200000Y-41090000D02*
X48200000Y-45600000D01*
X48350000Y-41130000D02*
X48350000Y-45450000D01*
X48500000Y-41180000D02*
X48500000Y-45300000D01*
X48650000Y-41260000D02*
X48650000Y-45400000D01*
X48800000Y-41400000D02*
X48800000Y-45370000D01*
X48950000Y-41570000D02*
X48950000Y-45250000D01*
X49105000Y-44725000D02*
X49105000Y-42075000D01*
D11*
X52000000Y-45545000D02*
X52000000Y-44045000D01*
D10*
X43075000Y-43525000D02*
G75*
G02*
X44250000Y-44700000I-2J-1175002D01*
G01*
X45111204Y-45725000D02*
G75*
G02*
X44250000Y-45023113I38796J926887D01*
G01*
X46100000Y-41082542D02*
G75*
G02*
X44100000Y-39900000I2J2282546D01*
G01*
X48105000Y-41075000D02*
G75*
G02*
X49105000Y-42075000I1J-999999D01*
G01*
X49105000Y-44725000D02*
G75*
G02*
X48105000Y-45725000I-999999J-1D01*
G01*
X52300000Y-46500000D02*
G75*
G02*
X51300000Y-46500000I-500000J0D01*
G01*
X51300000Y-46500000D02*
G75*
G02*
X52300000Y-46500000I500000J0D01*
G01*
X87243750Y-77343750D02*
X87243750Y-78137500D01*
X87243750Y-88456250D02*
X87243750Y-87662500D01*
X88037500Y-77343750D02*
X87243750Y-77343750D01*
X88037500Y-88456250D02*
X87243750Y-88456250D01*
X97562500Y-88456250D02*
X98356250Y-88456250D01*
X98356250Y-77343750D02*
X97562500Y-77343750D01*
X98356250Y-78137500D02*
X98356250Y-77343750D01*
X98356250Y-88456250D02*
X98356250Y-87662500D01*
M02*
