M48
; DRILL file {KiCad 9.0.0} date 2025-03-30T21:57:49+0900
; FORMAT={-:-/ absolute / metric / decimal}
; #@! TF.CreationDate,2025-03-30T21:57:49+09:00
; #@! TF.GenerationSoftware,Kicad,Pcbnew,9.0.0
; #@! TF.FileFunction,NonPlated,1,2,NPTH
FMAT,2
METRIC
; #@! TA.AperFunction,NonPlated,NPTH,ComponentDrill
T1C1.000
; #@! TA.AperFunction,NonPlated,NPTH,ComponentDrill
T2C2.200
; #@! TA.AperFunction,NonPlated,NPTH,ComponentDrill
T3C3.000
; #@! TA.AperFunction,NonPlated,NPTH,ComponentDrill
T4C4.800
%
G90
G05
T1
X19.8Y-43.85
X19.8Y-60.85
X19.8Y-77.85
X19.8Y-94.85
X36.8Y-35.65
X36.8Y-52.65
X36.8Y-69.65
X36.8Y-86.65
X63.8Y-21.45
X63.8Y-38.45
X63.8Y-55.45
X63.8Y-72.45
X80.8Y-24.55
X80.8Y-41.55
X80.8Y-58.55
X80.8Y-75.55
X97.8Y-26.85
X97.8Y-43.95
X97.8Y-60.95
X97.8Y-77.95
X114.8Y-32.75
X114.8Y-49.75
X114.8Y-66.75
X115.35Y-94.3
T2
X32.8Y-46.8
X32.9Y-80.8
X84.5Y-58.5
X84.63Y-74.91
T3
X24.8Y-32.4
X24.8Y-49.4
X24.8Y-66.4
X24.8Y-83.4
X29.8Y-34.6
X29.8Y-51.6
X29.8Y-68.6
X29.8Y-85.6
X41.8Y-24.2
X41.8Y-41.2
X41.8Y-58.2
X41.8Y-75.2
X46.8Y-26.4
X46.8Y-43.4
X46.8Y-60.4
X46.8Y-77.4
X53.8Y-30.7
X53.8Y-47.7
X53.8Y-64.7
X53.8Y-81.7
X58.8Y-32.9
X58.8Y-49.9
X58.8Y-66.9
X58.8Y-83.9
X70.8Y-33.8
X70.8Y-50.8
X70.8Y-67.8
X70.8Y-84.8
X75.8Y-36.0
X75.8Y-53.0
X75.8Y-70.0
X75.8Y-87.0
X87.8Y-36.1
X87.8Y-53.2
X87.8Y-70.2
X87.8Y-87.2
X92.8Y-38.3
X92.8Y-55.4
X92.8Y-72.4
X92.8Y-89.4
X103.9Y-89.3
X104.8Y-42.0
X104.8Y-59.0
X104.8Y-76.0
X106.1Y-84.3
X109.8Y-44.2
X109.8Y-61.2
X109.8Y-78.2
T4
X24.8Y-38.3
X24.8Y-55.3
X24.8Y-72.3
X24.8Y-89.3
X41.8Y-30.1
X41.8Y-47.1
X41.8Y-64.1
X41.8Y-81.1
X58.8Y-27.0
X58.8Y-44.0
X58.8Y-61.0
X58.8Y-78.0
X75.8Y-30.1
X75.8Y-47.1
X75.8Y-64.1
X75.8Y-81.1
X92.8Y-32.4
X92.8Y-49.5
X92.8Y-66.5
X92.8Y-83.5
X109.8Y-38.3
X109.8Y-55.3
X109.8Y-72.3
X109.8Y-89.3
M30
