G04 #@! TF.GenerationSoftware,KiCad,Pcbnew,9.0.0*
G04 #@! TF.CreationDate,2025-03-30T21:57:13+09:00*
G04 #@! TF.ProjectId,nofy,6e6f6679-2e6b-4696-9361-645f70636258,rev?*
G04 #@! TF.SameCoordinates,Original*
G04 #@! TF.FileFunction,Copper,L2,Bot*
G04 #@! TF.FilePolarity,Positive*
%FSLAX46Y46*%
G04 Gerber Fmt 4.6, Leading zero omitted, Abs format (unit mm)*
G04 Created by KiCad (PCBNEW 9.0.0) date 2025-03-30 21:57:13*
%MOMM*%
%LPD*%
G01*
G04 APERTURE LIST*
G04 #@! TA.AperFunction,SMDPad,CuDef*
%ADD10R,3.500000X3.000000*%
G04 #@! TD*
G04 #@! TA.AperFunction,SMDPad,CuDef*
%ADD11R,1.200000X0.950000*%
G04 #@! TD*
G04 #@! TA.AperFunction,SMDPad,CuDef*
%ADD12R,3.000000X3.500000*%
G04 #@! TD*
G04 #@! TA.AperFunction,ComponentPad*
%ADD13C,1.700000*%
G04 #@! TD*
G04 #@! TA.AperFunction,ComponentPad*
%ADD14O,1.700000X1.700000*%
G04 #@! TD*
G04 #@! TA.AperFunction,SMDPad,CuDef*
%ADD15R,3.000000X3.150000*%
G04 #@! TD*
G04 #@! TA.AperFunction,SMDPad,CuDef*
%ADD16R,2.300000X3.500000*%
G04 #@! TD*
G04 #@! TA.AperFunction,SMDPad,CuDef*
%ADD17R,2.950000X3.150000*%
G04 #@! TD*
G04 #@! TA.AperFunction,ComponentPad*
%ADD18C,2.000000*%
G04 #@! TD*
G04 #@! TA.AperFunction,ViaPad*
%ADD19C,0.600000*%
G04 #@! TD*
G04 #@! TA.AperFunction,Conductor*
%ADD20C,0.200000*%
G04 #@! TD*
G04 #@! TA.AperFunction,Conductor*
%ADD21C,0.350000*%
G04 #@! TD*
G04 APERTURE END LIST*
D10*
X106100000Y-80950000D03*
X103900000Y-92850000D03*
D11*
X94399975Y-43500000D03*
X90949975Y-43500000D03*
X47749975Y-36100000D03*
X44299975Y-36100000D03*
X94396875Y-45700000D03*
X90946875Y-45700000D03*
X66299975Y-76800000D03*
X62849975Y-76800000D03*
X30773475Y-78125000D03*
X27323475Y-78125000D03*
D12*
X33150000Y-68600000D03*
X21250000Y-66400000D03*
X33150000Y-85600000D03*
X21250000Y-83400000D03*
X101450000Y-76000000D03*
X113350000Y-78200000D03*
X101450000Y-59000000D03*
X113350000Y-61200000D03*
D11*
X111673475Y-66000000D03*
X108223475Y-66000000D03*
X30773475Y-75525000D03*
X27323475Y-75525000D03*
D13*
X67300000Y-23160000D03*
D14*
X67300000Y-25700000D03*
X67300000Y-28240000D03*
X67300000Y-30780000D03*
D12*
X50450000Y-64700000D03*
X62350000Y-66900000D03*
D11*
X114799975Y-85100000D03*
X111349975Y-85100000D03*
D12*
X50150000Y-77400000D03*
X38250000Y-75200000D03*
D13*
X101300000Y-46360000D03*
D14*
X101300000Y-48900000D03*
X101300000Y-51440000D03*
X101300000Y-53980000D03*
D11*
X47773475Y-67300000D03*
X44323475Y-67300000D03*
D12*
X67450000Y-67800000D03*
X79350000Y-70000000D03*
D11*
X111326575Y-51600000D03*
X107876575Y-51600000D03*
X30773475Y-44225000D03*
X27323475Y-44225000D03*
X60599975Y-40500000D03*
X57149975Y-40500000D03*
D12*
X84450000Y-87200000D03*
X96350000Y-89400000D03*
X84450000Y-36100000D03*
X96350000Y-38300000D03*
D11*
X66299975Y-74200000D03*
X62849975Y-74200000D03*
D12*
X84450000Y-53200000D03*
X96350000Y-55400000D03*
D11*
X84446575Y-82410000D03*
X80996575Y-82410000D03*
X84419975Y-79810000D03*
X80969975Y-79810000D03*
D12*
X84450000Y-70200000D03*
X96350000Y-72400000D03*
X50450000Y-47700000D03*
X62350000Y-49900000D03*
X101450000Y-42000000D03*
X113350000Y-44200000D03*
D11*
X30773475Y-41625000D03*
X27323475Y-41625000D03*
D12*
X50450000Y-81700000D03*
X62350000Y-83900000D03*
D11*
X77426575Y-43500000D03*
X73976575Y-43500000D03*
X47773475Y-70000000D03*
X44323475Y-70000000D03*
X47749975Y-33400000D03*
X44299975Y-33400000D03*
X114773475Y-82300000D03*
X111323475Y-82300000D03*
D12*
X50150000Y-60400000D03*
X38250000Y-58200000D03*
D15*
X67450000Y-84625000D03*
D12*
X79350000Y-87000000D03*
D11*
X111673475Y-68600000D03*
X108223475Y-68600000D03*
X77399975Y-40900000D03*
X73949975Y-40900000D03*
D12*
X67450000Y-50800000D03*
X79350000Y-53000000D03*
D11*
X60599975Y-37900000D03*
X57149975Y-37900000D03*
X111299975Y-49100000D03*
X107849975Y-49100000D03*
D16*
X67800000Y-33800000D03*
D12*
X79350000Y-36000000D03*
X33150000Y-34600000D03*
X21250000Y-32400000D03*
D13*
X33315000Y-57805000D03*
D14*
X33315000Y-60345000D03*
X33315000Y-62885000D03*
X33315000Y-65425000D03*
D12*
X50450000Y-30700000D03*
X62350000Y-32900000D03*
D17*
X50125000Y-26575000D03*
D12*
X38250000Y-24200000D03*
D13*
X101315000Y-31305000D03*
D14*
X101315000Y-33845000D03*
X101315000Y-36385000D03*
X101315000Y-38925000D03*
D12*
X33150000Y-51600000D03*
X21250000Y-49400000D03*
X50150000Y-43400000D03*
X38250000Y-41200000D03*
D13*
X67300000Y-38305000D03*
D14*
X67300000Y-40845000D03*
X67300000Y-43385000D03*
X67300000Y-45925000D03*
D18*
X90300000Y-75400000D03*
X95300000Y-75400000D03*
X92800000Y-75400000D03*
D19*
X90950000Y-41747700D03*
X95121200Y-41747700D03*
X90946900Y-46767000D03*
X96400900Y-46767000D03*
X96350000Y-67472800D03*
X106450000Y-66100000D03*
X84378500Y-39787700D03*
X84378500Y-49860300D03*
X36083900Y-48900000D03*
X96679700Y-40573300D03*
X33150000Y-48850000D03*
X99342900Y-46739700D03*
X35750000Y-37750000D03*
X99486700Y-52662300D03*
X99486700Y-48900000D03*
X50150000Y-55624400D03*
X47718400Y-55624400D03*
X62350000Y-35158800D03*
X56559200Y-35053300D03*
X57161100Y-41478100D03*
X62350000Y-40427600D03*
X50450000Y-50315600D03*
X53808800Y-50315600D03*
X74851700Y-39878900D03*
X79350000Y-39724300D03*
X95788300Y-45241000D03*
X95788300Y-51440000D03*
X68654600Y-43390200D03*
X59214100Y-36584300D03*
X36229700Y-55905900D03*
X77310100Y-41996700D03*
X95181200Y-47536600D03*
X60600000Y-41573800D03*
X109931900Y-47536600D03*
X34168900Y-43022500D03*
X49550000Y-36100000D03*
X34798200Y-55905900D03*
X36229700Y-62885000D03*
X34168900Y-43022500D03*
X47750000Y-40640700D03*
X65397200Y-41573800D03*
X94225100Y-44558000D03*
X78893300Y-43806600D03*
X84424400Y-81368600D03*
X116031800Y-80779500D03*
X116031800Y-70146200D03*
X66300000Y-78395700D03*
X112067400Y-70146200D03*
X65317500Y-73397000D03*
X47718400Y-73397000D03*
X32050000Y-78150000D03*
X78226600Y-78587600D03*
X33600000Y-75500000D03*
X35829600Y-67472800D03*
X78226600Y-75178900D03*
X47773500Y-69006700D03*
X84411100Y-78587600D03*
X64781200Y-69693400D03*
X101407000Y-81431400D03*
X64781200Y-70733000D03*
X64781200Y-30780000D03*
X66366100Y-75178900D03*
X66300000Y-70733000D03*
X113612000Y-81431400D03*
X35829600Y-73400000D03*
X101407000Y-79259800D03*
X94446200Y-41145900D03*
X60570300Y-36897900D03*
X96985900Y-45184200D03*
X64151700Y-36950000D03*
X77323300Y-38009600D03*
X33150000Y-41650000D03*
X111300000Y-46011000D03*
X47750000Y-35114300D03*
X78518400Y-40966600D03*
X98155000Y-46423500D03*
X99170900Y-45716900D03*
X98927800Y-73083000D03*
X103791600Y-82283300D03*
X96350000Y-82283300D03*
X107090500Y-78645100D03*
X103791600Y-78645100D03*
X107850000Y-46754100D03*
X113350000Y-46754100D03*
X113350000Y-50350000D03*
X107876600Y-50350000D03*
X79509900Y-41568300D03*
X79509900Y-46738100D03*
X88775400Y-46738100D03*
X82453200Y-43760000D03*
X82453200Y-23271100D03*
X98216300Y-63564800D03*
X89649600Y-43760000D03*
X98216300Y-75400000D03*
X90067600Y-63564800D03*
X71580000Y-42788500D03*
X105942000Y-78015300D03*
X71580000Y-38273700D03*
X102461800Y-44258600D03*
X101519200Y-78255700D03*
X101300000Y-56743200D03*
X88191600Y-58586500D03*
X84822300Y-67220900D03*
X88191600Y-67220900D03*
X88191600Y-55357300D03*
X83608700Y-55455100D03*
D20*
X95121200Y-39528800D02*
X95121200Y-41747700D01*
X90950000Y-43500000D02*
X90950000Y-41747700D01*
X96350000Y-38300000D02*
X95121200Y-39528800D01*
X96400900Y-53297400D02*
X96400900Y-46767000D01*
X96350000Y-55400000D02*
X96350000Y-53348300D01*
X90946900Y-45700000D02*
X90946900Y-46767000D01*
X96350000Y-53348300D02*
X96400900Y-53297400D01*
X108223500Y-66000000D02*
X106550000Y-66000000D01*
X96350000Y-72400000D02*
X96350000Y-67472800D01*
X106550000Y-66000000D02*
X106450000Y-66100000D01*
X84378500Y-39787700D02*
X84378500Y-49860300D01*
X21250000Y-32400000D02*
X21250000Y-38650000D01*
X21250000Y-38650000D02*
X24225000Y-41625000D01*
X24225000Y-41625000D02*
X27323500Y-41625000D01*
X32157800Y-52592200D02*
X32157800Y-67607800D01*
X33150000Y-70651700D02*
X33150000Y-68600000D01*
X96679700Y-43967500D02*
X98569200Y-45857000D01*
X36083900Y-40413600D02*
X35750000Y-40079700D01*
X96679700Y-40573300D02*
X96679700Y-43967500D01*
X34815100Y-83034900D02*
X34815100Y-72316800D01*
X35750000Y-37000000D02*
X33350000Y-34600000D01*
X33150000Y-51600000D02*
X32157800Y-52592200D01*
X98569200Y-45857000D02*
X98569200Y-45966000D01*
X35750000Y-37750000D02*
X35750000Y-37000000D01*
X98569200Y-45966000D02*
X99342900Y-46739700D01*
X34815100Y-72316800D02*
X33150000Y-70651700D01*
X33150000Y-85600000D02*
X33150000Y-84700000D01*
X33350000Y-34600000D02*
X33150000Y-34600000D01*
X36083900Y-48900000D02*
X36083900Y-40413600D01*
X32157800Y-67607800D02*
X33150000Y-68600000D01*
X33150000Y-48850000D02*
X33150000Y-51600000D01*
X35750000Y-40079700D02*
X35750000Y-37750000D01*
X33150000Y-84700000D02*
X34815100Y-83034900D01*
X24398300Y-44200000D02*
X21250000Y-47348300D01*
X27323500Y-44200000D02*
X24398300Y-44200000D01*
X21250000Y-47348300D02*
X21250000Y-49400000D01*
X27323500Y-44225000D02*
X27323500Y-44200000D01*
X21250000Y-66400000D02*
X21250000Y-73039000D01*
X23736000Y-75525000D02*
X27323500Y-75525000D01*
X21250000Y-73039000D02*
X23736000Y-75525000D01*
X27323500Y-78125000D02*
X27323500Y-78100000D01*
X21250000Y-83150000D02*
X21250000Y-83400000D01*
X27323500Y-78100000D02*
X26300000Y-78100000D01*
X26300000Y-78100000D02*
X21250000Y-83150000D01*
X44250000Y-33350000D02*
X40050000Y-33350000D01*
X44300000Y-33400000D02*
X44250000Y-33350000D01*
X40050000Y-33350000D02*
X38250000Y-31550000D01*
X38250000Y-31550000D02*
X38250000Y-24200000D01*
X43350000Y-36100000D02*
X44300000Y-36100000D01*
X38250000Y-41200000D02*
X43350000Y-36100000D01*
X47718400Y-45831600D02*
X47718400Y-55624400D01*
X50150000Y-60400000D02*
X50150000Y-55624400D01*
X50150000Y-43400000D02*
X47718400Y-45831600D01*
X48603200Y-66578900D02*
X50150000Y-68125700D01*
X50150000Y-34231600D02*
X48606500Y-32688100D01*
X50150000Y-60400000D02*
X50150000Y-62451700D01*
X99486700Y-52662300D02*
X99486700Y-48900000D01*
X50150000Y-62451700D02*
X48989900Y-62451700D01*
X48603200Y-62838400D02*
X48603200Y-66578900D01*
X48606500Y-28831300D02*
X48986100Y-28451700D01*
X50150000Y-68125700D02*
X50150000Y-77400000D01*
X50150000Y-43400000D02*
X50150000Y-34231600D01*
X48606500Y-32688100D02*
X48606500Y-28831300D01*
X50125000Y-26575000D02*
X50125000Y-28451700D01*
X48989900Y-62451700D02*
X48603200Y-62838400D01*
X48986100Y-28451700D02*
X50125000Y-28451700D01*
X38250000Y-58200000D02*
X38250000Y-64800000D01*
X38250000Y-64800000D02*
X40750000Y-67300000D01*
X40750000Y-67300000D02*
X44323500Y-67300000D01*
X44000000Y-70150000D02*
X44323500Y-70473500D01*
X38250000Y-75200000D02*
X38950000Y-75200000D01*
X38950000Y-75200000D02*
X44000000Y-70150000D01*
X44323500Y-70473500D02*
X44323500Y-70000000D01*
X57150000Y-37900000D02*
X57150000Y-37123300D01*
X56559200Y-36532500D02*
X56559200Y-35053300D01*
X62350000Y-32900000D02*
X62350000Y-35158800D01*
X57150000Y-37123300D02*
X56559200Y-36532500D01*
X57150000Y-41276700D02*
X57161100Y-41287800D01*
X57161100Y-41287800D02*
X57161100Y-41478100D01*
X57150000Y-40500000D02*
X57150000Y-41276700D01*
X62350000Y-49900000D02*
X62350000Y-40427600D01*
X50450000Y-81700000D02*
X50450000Y-79648300D01*
X51987800Y-68289500D02*
X50450000Y-66751700D01*
X50450000Y-79648300D02*
X51603400Y-79648300D01*
X51603400Y-79648300D02*
X51987800Y-79263900D01*
X51962700Y-34264400D02*
X51962700Y-45270200D01*
X51584600Y-45648300D02*
X50450000Y-45648300D01*
X53808700Y-61341300D02*
X53808700Y-50315600D01*
X50450000Y-47700000D02*
X50450000Y-45648300D01*
X50450000Y-47700000D02*
X50450000Y-50315600D01*
X50450000Y-30700000D02*
X50450000Y-32751700D01*
X50450000Y-64700000D02*
X53808700Y-61341300D01*
X53808700Y-50315600D02*
X53808800Y-50315600D01*
X50450000Y-32751700D02*
X51962700Y-34264400D01*
X51987800Y-79263900D02*
X51987800Y-68289500D01*
X51962700Y-45270200D02*
X51584600Y-45648300D01*
X50450000Y-64700000D02*
X50450000Y-66751700D01*
X62350000Y-66900000D02*
X62350000Y-68951700D01*
X62850000Y-74200000D02*
X62850000Y-69451700D01*
X62850000Y-69451700D02*
X62350000Y-68951700D01*
X62350000Y-78076700D02*
X62350000Y-83900000D01*
X62850000Y-77576700D02*
X62350000Y-78076700D01*
X62850000Y-76800000D02*
X62850000Y-77576700D01*
X73950000Y-40900000D02*
X74851700Y-40900000D01*
X79350000Y-36000000D02*
X79350000Y-39724300D01*
X74851700Y-40900000D02*
X74851700Y-39878900D01*
X68479100Y-43390200D02*
X68654600Y-43390200D01*
X67450000Y-50800000D02*
X67450000Y-67800000D01*
X67450000Y-84625000D02*
X67450000Y-67800000D01*
X67450000Y-49774100D02*
X67450000Y-48748300D01*
X68479100Y-36530800D02*
X68479100Y-43390200D01*
X67800000Y-35851700D02*
X68479100Y-36530800D01*
X67450000Y-49774100D02*
X67450000Y-50800000D01*
X67800000Y-33800000D02*
X67800000Y-35851700D01*
X95788300Y-45241000D02*
X95788300Y-51440000D01*
X68479100Y-47719200D02*
X67450000Y-48748300D01*
X68479100Y-43390200D02*
X68479100Y-47719200D01*
X73976600Y-43500000D02*
X73976600Y-43626600D01*
X77751100Y-44500000D02*
X78563400Y-45312300D01*
X74850000Y-44500000D02*
X77751100Y-44500000D01*
X73976600Y-43626600D02*
X74850000Y-44500000D01*
X78563400Y-45312300D02*
X78563400Y-50161700D01*
X79350000Y-50948300D02*
X79350000Y-53000000D01*
X78563400Y-50161700D02*
X79350000Y-50948300D01*
X80970000Y-79033300D02*
X79350100Y-77413400D01*
X79350100Y-77413400D02*
X79350100Y-72051700D01*
X79350000Y-70000000D02*
X79350000Y-72051700D01*
X79350100Y-72051700D02*
X79350000Y-72051700D01*
X80970000Y-79810000D02*
X80970000Y-79033300D01*
X111326600Y-50823300D02*
X109931900Y-49428600D01*
X47750000Y-36100000D02*
X47750000Y-40640700D01*
X34966500Y-43820100D02*
X34966500Y-55737600D01*
X77426600Y-43500000D02*
X78328300Y-43500000D01*
X77310100Y-42606800D02*
X77310100Y-41996700D01*
X30775000Y-44225000D02*
X30773500Y-44225000D01*
X94396900Y-45700000D02*
X94396900Y-46752300D01*
X60600000Y-40500000D02*
X60600000Y-39723300D01*
X78328300Y-43500000D02*
X78586700Y-43500000D01*
X31977500Y-43022500D02*
X30775000Y-44225000D01*
X78586700Y-43500000D02*
X78893300Y-43806600D01*
X94396900Y-44923300D02*
X94225100Y-44751500D01*
X111326600Y-51600000D02*
X111326600Y-50823300D01*
X59214100Y-38337400D02*
X59214100Y-36584300D01*
X77426600Y-43500000D02*
X77426600Y-42723300D01*
X36229700Y-62885000D02*
X36229700Y-55905900D01*
X67300000Y-28550000D02*
X65397200Y-30452800D01*
X60600000Y-40500000D02*
X60600000Y-41573800D01*
X109931900Y-49428600D02*
X109931900Y-47536600D01*
X34168900Y-43022500D02*
X34966500Y-43820100D01*
X94396900Y-46752300D02*
X95181200Y-47536600D01*
X94396900Y-45700000D02*
X94396900Y-44923300D01*
X49550000Y-36100000D02*
X47750000Y-36100000D01*
X67300000Y-28240000D02*
X67300000Y-28550000D01*
X34966500Y-55737600D02*
X34798200Y-55905900D01*
X77426600Y-42723300D02*
X77310100Y-42606800D01*
X60600000Y-39723300D02*
X59214100Y-38337400D01*
X65397200Y-30452800D02*
X65397200Y-41573800D01*
X94225100Y-44751500D02*
X94225100Y-44558000D01*
X34168900Y-43022500D02*
X31977500Y-43022500D01*
X65384900Y-73397000D02*
X65317500Y-73397000D01*
X112067400Y-69770600D02*
X112067400Y-70146200D01*
X116031800Y-80779500D02*
X116031800Y-70146200D01*
X66300000Y-76800000D02*
X66300000Y-76023300D01*
X32050000Y-78150000D02*
X32025000Y-78125000D01*
X111673500Y-69376700D02*
X112067400Y-69770600D01*
X84424400Y-81611100D02*
X84424400Y-81368600D01*
X65384900Y-75108200D02*
X66300000Y-76023300D01*
X111673500Y-68600000D02*
X111673500Y-69376700D01*
X32025000Y-78125000D02*
X30773500Y-78125000D01*
X65384900Y-45300100D02*
X65384900Y-73397000D01*
X84446600Y-81633300D02*
X84424400Y-81611100D01*
X65384900Y-73397000D02*
X65384900Y-75108200D01*
X114800000Y-84323300D02*
X116031800Y-83091500D01*
X47773500Y-70776700D02*
X47718400Y-70831800D01*
X114800000Y-85100000D02*
X114800000Y-84323300D01*
X84446600Y-82410000D02*
X84446600Y-81633300D01*
X116031800Y-83091500D02*
X116031800Y-80779500D01*
X66300000Y-76800000D02*
X66300000Y-78395700D01*
X67300000Y-43385000D02*
X65384900Y-45300100D01*
X47718400Y-70831800D02*
X47718400Y-73397000D01*
X47773500Y-70000000D02*
X47773500Y-70776700D01*
X33315000Y-65425000D02*
X33825000Y-65425000D01*
X35829600Y-67472800D02*
X35829600Y-73400000D01*
X30773500Y-75525000D02*
X33575000Y-75525000D01*
X113612000Y-82040200D02*
X113612000Y-81431400D01*
X113871800Y-82300000D02*
X113612000Y-82040200D01*
X66366100Y-75178900D02*
X66300000Y-75112800D01*
X35829600Y-67429600D02*
X35829600Y-67472800D01*
X66300000Y-75112800D02*
X66300000Y-74200000D01*
X114773500Y-82300000D02*
X113871800Y-82300000D01*
X47773500Y-67300000D02*
X47773500Y-69006700D01*
X84420000Y-79033300D02*
X84411100Y-79024400D01*
X66300000Y-74200000D02*
X66300000Y-70733000D01*
X111673475Y-66000000D02*
X115151700Y-69478225D01*
X101407000Y-79259800D02*
X101407000Y-81431400D01*
X84420000Y-79810000D02*
X84420000Y-79033300D01*
X78226600Y-75178900D02*
X78226600Y-78587600D01*
X33575000Y-75525000D02*
X33600000Y-75500000D01*
X64781200Y-70733000D02*
X64781200Y-69693400D01*
X84411100Y-79024400D02*
X84411100Y-78587600D01*
X111673500Y-66000000D02*
X111673475Y-66000000D01*
X115151700Y-81145100D02*
X114773500Y-81523300D01*
X64781200Y-30780000D02*
X64781200Y-69693400D01*
X33825000Y-65425000D02*
X35829600Y-67429600D01*
X115151700Y-69478225D02*
X115151700Y-81145100D01*
X114773500Y-81523300D02*
X114773500Y-82300000D01*
X94400000Y-41192100D02*
X94446200Y-41145900D01*
X77323300Y-40046600D02*
X77323300Y-38009600D01*
X77400000Y-40900000D02*
X77400000Y-40589400D01*
X64151700Y-36950000D02*
X64151700Y-28848300D01*
X35423200Y-58236800D02*
X33315000Y-60345000D01*
X64151700Y-28848300D02*
X67300000Y-25700000D01*
X77400000Y-40589400D02*
X77400000Y-40123300D01*
X111300000Y-49100000D02*
X111300000Y-46011000D01*
X95301700Y-43500000D02*
X96985900Y-45184200D01*
X34675900Y-41650000D02*
X35423200Y-42397300D01*
X77400000Y-40123300D02*
X77323300Y-40046600D01*
X33150000Y-41650000D02*
X34675900Y-41650000D01*
X94400000Y-43500000D02*
X95301700Y-43500000D01*
X47750000Y-33400000D02*
X47750000Y-35114300D01*
X30950000Y-41650000D02*
X30925000Y-41625000D01*
X35423200Y-42397300D02*
X35423200Y-58236800D01*
X30925000Y-41625000D02*
X30773500Y-41625000D01*
X60570300Y-36897900D02*
X60600000Y-36927600D01*
X94400000Y-43500000D02*
X94400000Y-41192100D01*
X77777200Y-40966600D02*
X78518400Y-40966600D01*
X60600000Y-36927600D02*
X60600000Y-37900000D01*
X33150000Y-41650000D02*
X30950000Y-41650000D01*
X77400000Y-40589400D02*
X77777200Y-40966600D01*
D21*
X98155000Y-46423500D02*
X98155000Y-53248400D01*
X99170900Y-45716900D02*
X99170900Y-35979100D01*
X99170900Y-35979100D02*
X101305000Y-33845000D01*
X98155000Y-53248400D02*
X98927800Y-54021200D01*
X101305000Y-33845000D02*
X101315000Y-33845000D01*
X98927800Y-54021200D02*
X98927800Y-73083000D01*
D20*
X80996600Y-83301700D02*
X80996600Y-82410000D01*
X79350000Y-84948300D02*
X80996600Y-83301700D01*
X79350000Y-87000000D02*
X79350000Y-84948300D01*
X108223500Y-68600000D02*
X108223500Y-69376700D01*
X108223500Y-69376700D02*
X107090500Y-70509700D01*
X96350000Y-89400000D02*
X96350000Y-82283300D01*
X107090500Y-70509700D02*
X107090500Y-78645100D01*
X103791600Y-82283300D02*
X103791600Y-78645100D01*
X107850000Y-49100000D02*
X107850000Y-46754100D01*
X113350000Y-44200000D02*
X113350000Y-46754100D01*
X107876600Y-51600000D02*
X107876600Y-50350000D01*
X113350000Y-61200000D02*
X113350000Y-50350000D01*
X111323500Y-80226500D02*
X113350000Y-78200000D01*
X111323500Y-82300000D02*
X111323500Y-80226500D01*
X111298200Y-85100000D02*
X110000000Y-85100000D01*
X105801100Y-90948900D02*
X103900000Y-92850000D01*
X110000000Y-85100000D02*
X105801100Y-89298900D01*
X105801100Y-89298900D02*
X105801100Y-90948900D01*
X88775400Y-49800500D02*
X88775400Y-46738100D01*
X79509900Y-46738100D02*
X79509900Y-41568300D01*
X89456500Y-67480300D02*
X89456500Y-54906800D01*
X89616000Y-50641100D02*
X88775400Y-49800500D01*
X90300000Y-68323800D02*
X89456500Y-67480300D01*
X89616000Y-54747300D02*
X89616000Y-50641100D01*
X90300000Y-75400000D02*
X90300000Y-68323800D01*
X89456500Y-54906800D02*
X89616000Y-54747300D01*
X90067600Y-63564800D02*
X90067600Y-50324500D01*
X89649600Y-49906500D02*
X89649600Y-43760000D01*
X90067600Y-50324500D02*
X89649600Y-49906500D01*
X98216300Y-75400000D02*
X98216300Y-63564800D01*
X82453200Y-23271100D02*
X82453200Y-43760000D01*
X71580000Y-42788500D02*
X71580000Y-38273700D01*
X101450000Y-44051700D02*
X101656900Y-44258600D01*
X101450000Y-42000000D02*
X101450000Y-44051700D01*
X101519200Y-78120900D02*
X101519200Y-78255700D01*
X101656900Y-44258600D02*
X102461800Y-44258600D01*
X101450000Y-59000000D02*
X102461800Y-57988200D01*
X105942000Y-80792000D02*
X105942000Y-78015300D01*
X101450000Y-59000000D02*
X101450000Y-76000000D01*
X101450000Y-76000000D02*
X101450000Y-78051700D01*
X106100000Y-80950000D02*
X105942000Y-80792000D01*
X102461800Y-57988200D02*
X102461800Y-44258600D01*
X101450000Y-78051700D02*
X101519200Y-78120900D01*
X88191600Y-58586500D02*
X88191600Y-67220900D01*
X83654900Y-51943400D02*
X83654900Y-38946800D01*
X83710400Y-55353400D02*
X83710400Y-55251700D01*
X84450000Y-69174100D02*
X84450000Y-68148300D01*
X83654900Y-38946800D02*
X84450000Y-38151700D01*
X84450000Y-87200000D02*
X84450000Y-85148300D01*
X84450000Y-69174100D02*
X84450000Y-70200000D01*
X84822300Y-67776000D02*
X84822300Y-67220900D01*
X82707200Y-73994500D02*
X82707200Y-83405500D01*
X83710400Y-51998900D02*
X83654900Y-51943400D01*
X83608700Y-55455100D02*
X83710400Y-55353400D01*
X88191600Y-55357300D02*
X88191600Y-58586500D01*
X84450000Y-53200000D02*
X84450000Y-55251700D01*
X83710400Y-55251700D02*
X83710400Y-51998900D01*
X83710400Y-55251700D02*
X84450000Y-55251700D01*
X84450000Y-68148300D02*
X84822300Y-67776000D01*
X84450000Y-70200000D02*
X84450000Y-72251700D01*
X82707200Y-83405500D02*
X84450000Y-85148300D01*
X101300000Y-53980000D02*
X101300000Y-56743200D01*
X84450000Y-36100000D02*
X84450000Y-38151700D01*
X84450000Y-72251700D02*
X82707200Y-73994500D01*
M02*
