M48
; DRILL file {KiCad 9.0.0} date 2025-03-20T15:30:15+0900
; FORMAT={-:-/ absolute / metric / decimal}
; #@! TF.CreationDate,2025-03-20T15:30:15+09:00
; #@! TF.GenerationSoftware,Kicad,Pcbnew,9.0.0
; #@! TF.FileFunction,NonPlated,1,2,NPTH
FMAT,2
METRIC
; #@! TA.AperFunction,NonPlated,NPTH,ComponentDrill
T1C1.000
; #@! TA.AperFunction,NonPlated,NPTH,ComponentDrill
T2C3.000
; #@! TA.AperFunction,NonPlated,NPTH,ComponentDrill
T3C3.200
; #@! TA.AperFunction,NonPlated,NPTH,ComponentDrill
T4C4.800
%
G90
G05
T1
X19.8Y-43.85
X19.8Y-60.85
X19.8Y-77.85
X19.8Y-94.85
X36.8Y-35.65
X36.8Y-52.65
X36.8Y-69.65
X36.8Y-86.65
X63.8Y-21.45
X63.8Y-38.45
X63.8Y-55.45
X63.8Y-72.45
X80.8Y-24.55
X80.8Y-41.55
X80.8Y-58.55
X80.8Y-75.55
X97.8Y-26.85
X97.8Y-43.95
X97.8Y-60.95
X97.8Y-77.95
X114.8Y-32.75
X114.8Y-49.75
X114.8Y-66.75
X115.35Y-94.3
X118.65Y-63.6
X118.65Y-65.1
X118.65Y-66.6
X118.65Y-68.1
X119.95Y-63.6
X119.95Y-65.1
X119.95Y-66.6
X119.95Y-68.1
X123.8Y-43.85
X123.8Y-60.85
X134.35Y-77.3
X134.35Y-94.3
X150.8Y-77.95
X157.8Y-35.65
X157.8Y-52.65
X157.8Y-69.65
X174.8Y-32.55
X174.8Y-49.55
X174.8Y-66.55
X201.8Y-24.575
X201.8Y-41.575
X201.8Y-58.55
X218.8Y-32.75
X218.8Y-49.75
X218.8Y-66.75
X218.8Y-83.75
T2
X24.8Y-32.4
X24.8Y-49.4
X24.8Y-66.4
X24.8Y-83.4
X29.8Y-34.6
X29.8Y-51.6
X29.8Y-68.6
X29.8Y-85.6
X41.8Y-24.2
X41.8Y-41.2
X41.8Y-58.2
X41.8Y-75.2
X46.8Y-26.4
X46.8Y-43.4
X46.8Y-60.4
X46.8Y-77.4
X53.8Y-30.7
X53.8Y-47.7
X53.8Y-64.7
X53.8Y-81.7
X58.8Y-32.9
X58.8Y-49.9
X58.8Y-66.9
X58.8Y-83.9
X70.8Y-33.8
X70.8Y-50.8
X70.8Y-67.8
X70.8Y-84.8
X75.8Y-36.0
X75.8Y-53.0
X75.8Y-70.0
X75.8Y-87.0
X87.8Y-36.1
X87.8Y-53.2
X87.8Y-70.2
X87.8Y-87.2
X92.8Y-38.3
X92.8Y-55.4
X92.8Y-72.4
X92.8Y-89.4
X103.9Y-89.3
X104.8Y-42.0
X104.8Y-59.0
X104.8Y-76.0
X106.1Y-84.3
X109.8Y-44.2
X109.8Y-61.2
X109.8Y-78.2
X122.9Y-72.3
X122.9Y-89.3
X125.1Y-67.3
X125.1Y-84.3
X128.8Y-32.4
X128.8Y-49.4
X133.8Y-34.6
X133.8Y-51.6
X140.8Y-87.2
X145.8Y-26.6
X145.8Y-43.6
X145.8Y-60.6
X145.8Y-89.4
X150.8Y-28.8
X150.8Y-45.8
X150.8Y-62.8
X162.8Y-24.2
X162.8Y-41.2
X162.8Y-58.2
X167.8Y-26.4
X167.8Y-43.4
X167.8Y-60.4
X179.8Y-21.1
X179.8Y-38.1
X179.8Y-55.1
X184.8Y-23.3
X184.8Y-40.3
X184.8Y-57.3
X191.8Y-33.825
X191.8Y-50.825
X191.8Y-67.8
X196.8Y-36.025
X196.8Y-53.025
X196.8Y-70.0
X208.8Y-42.0
X208.8Y-59.0
X208.8Y-76.0
X208.8Y-93.0
X213.8Y-44.2
X213.8Y-61.2
X213.8Y-78.2
X213.8Y-95.2
T3
X32.8Y-46.8
X32.9Y-80.8
X84.5Y-58.5
X84.63Y-74.91
X153.9Y-57.9
X205.4Y-80.8
X205.8Y-46.8
T4
X24.8Y-38.3
X24.8Y-55.3
X24.8Y-72.3
X24.8Y-89.3
X41.8Y-30.1
X41.8Y-47.1
X41.8Y-64.1
X41.8Y-81.1
X58.8Y-27.0
X58.8Y-44.0
X58.8Y-61.0
X58.8Y-78.0
X75.8Y-30.1
X75.8Y-47.1
X75.8Y-64.1
X75.8Y-81.1
X92.8Y-32.4
X92.8Y-49.5
X92.8Y-66.5
X92.8Y-83.5
X109.8Y-38.3
X109.8Y-55.3
X109.8Y-72.3
X109.8Y-89.3
X128.8Y-38.3
X128.8Y-55.3
X128.8Y-72.3
X128.8Y-89.3
X145.8Y-32.5
X145.8Y-49.5
X145.8Y-66.5
X145.8Y-83.5
X162.8Y-30.1
X162.8Y-47.1
X162.8Y-64.1
X179.8Y-27.0
X179.8Y-44.0
X179.8Y-61.0
X196.8Y-30.125
X196.8Y-47.125
X196.8Y-64.1
X213.8Y-38.3
X213.8Y-55.3
X213.8Y-72.3
X213.8Y-89.3
M30
