G04 #@! TF.GenerationSoftware,KiCad,Pcbnew,9.0.0*
G04 #@! TF.CreationDate,2025-03-20T15:30:03+09:00*
G04 #@! TF.ProjectId,nofy,6e6f6679-2e6b-4696-9361-645f70636258,rev?*
G04 #@! TF.SameCoordinates,Original*
G04 #@! TF.FileFunction,Soldermask,Bot*
G04 #@! TF.FilePolarity,Negative*
%FSLAX46Y46*%
G04 Gerber Fmt 4.6, Leading zero omitted, Abs format (unit mm)*
G04 Created by KiCad (PCBNEW 9.0.0) date 2025-03-20 15:30:03*
%MOMM*%
%LPD*%
G01*
G04 APERTURE LIST*
G04 Aperture macros list*
%AMRoundRect*
0 Rectangle with rounded corners*
0 $1 Rounding radius*
0 $2 $3 $4 $5 $6 $7 $8 $9 X,Y pos of 4 corners*
0 Add a 4 corners polygon primitive as box body*
4,1,4,$2,$3,$4,$5,$6,$7,$8,$9,$2,$3,0*
0 Add four circle primitives for the rounded corners*
1,1,$1+$1,$2,$3*
1,1,$1+$1,$4,$5*
1,1,$1+$1,$6,$7*
1,1,$1+$1,$8,$9*
0 Add four rect primitives between the rounded corners*
20,1,$1+$1,$2,$3,$4,$5,0*
20,1,$1+$1,$4,$5,$6,$7,0*
20,1,$1+$1,$6,$7,$8,$9,0*
20,1,$1+$1,$8,$9,$2,$3,0*%
G04 Aperture macros list end*
%ADD10C,3.200000*%
%ADD11R,1.200000X0.950000*%
%ADD12C,3.000000*%
%ADD13C,4.800000*%
%ADD14R,2.300000X3.550000*%
%ADD15R,3.000000X3.500000*%
%ADD16C,1.000000*%
%ADD17R,3.500000X3.000000*%
%ADD18R,3.000000X3.050000*%
%ADD19C,1.700000*%
%ADD20O,1.700000X1.700000*%
%ADD21R,1.700000X1.700000*%
%ADD22R,3.000000X3.150000*%
%ADD23C,0.600000*%
%ADD24R,2.300000X3.500000*%
%ADD25R,2.950000X3.150000*%
%ADD26RoundRect,0.150000X-0.150000X0.825000X-0.150000X-0.825000X0.150000X-0.825000X0.150000X0.825000X0*%
%ADD27C,2.000000*%
G04 APERTURE END LIST*
D10*
X32800000Y-46800000D03*
D11*
X178700025Y-65200000D03*
X182150025Y-65200000D03*
D12*
X150800000Y-28800000D03*
D13*
X145800000Y-32500000D03*
D12*
X145800000Y-26600000D03*
D14*
X153800000Y-28775000D03*
D15*
X142250000Y-26600000D03*
D12*
X106100000Y-84300000D03*
D13*
X109800000Y-89300000D03*
D12*
X103900000Y-89300000D03*
D16*
X115350000Y-94300000D03*
D17*
X106100000Y-80950000D03*
X103900000Y-92850000D03*
D12*
X125100000Y-67300000D03*
D13*
X128800000Y-72300000D03*
D12*
X122900000Y-72300000D03*
D16*
X134350000Y-77300000D03*
D17*
X125100000Y-63950000D03*
X122900000Y-75850000D03*
D12*
X191800000Y-67800000D03*
D13*
X196800000Y-64100000D03*
D12*
X196800000Y-70000000D03*
D16*
X201800000Y-58550000D03*
D18*
X188450000Y-67575000D03*
D15*
X200350000Y-70000000D03*
D12*
X140800000Y-87200000D03*
D13*
X145800000Y-83500000D03*
D12*
X145800000Y-89400000D03*
D16*
X150800000Y-77950000D03*
D15*
X137450000Y-87200000D03*
X149350000Y-89400000D03*
D11*
X94399975Y-43500000D03*
X90949975Y-43500000D03*
D10*
X32900000Y-80800000D03*
X205800000Y-46800000D03*
D11*
X192126525Y-43600000D03*
X195576525Y-43600000D03*
X174026525Y-34000000D03*
X177476525Y-34000000D03*
X47749975Y-36100000D03*
X44299975Y-36100000D03*
X208000025Y-68500000D03*
X211450025Y-68500000D03*
X152526525Y-67700000D03*
X155976525Y-67700000D03*
X94396875Y-45700000D03*
X90946875Y-45700000D03*
X131526525Y-75200000D03*
X134976525Y-75200000D03*
D19*
X205300000Y-62500000D03*
D20*
X205300000Y-65040000D03*
X205300000Y-67580000D03*
X205300000Y-70120000D03*
D11*
X66299975Y-76800000D03*
X62849975Y-76800000D03*
D12*
X191800000Y-33825000D03*
D13*
X196800000Y-30125000D03*
D12*
X196800000Y-36025000D03*
D16*
X201800000Y-24575000D03*
D15*
X188450000Y-33825000D03*
X200350000Y-36025000D03*
D11*
X30773475Y-78125000D03*
X27323475Y-78125000D03*
D19*
X171300000Y-31400000D03*
D20*
X171300000Y-33940000D03*
X171300000Y-36480000D03*
X171300000Y-39020000D03*
D12*
X29800000Y-68600000D03*
D13*
X24800000Y-72300000D03*
D12*
X24800000Y-66400000D03*
D16*
X19800000Y-77850000D03*
D15*
X33150000Y-68600000D03*
X21250000Y-66400000D03*
D12*
X29800000Y-85600000D03*
D13*
X24800000Y-89300000D03*
D12*
X24800000Y-83400000D03*
D16*
X19800000Y-94850000D03*
D15*
X33150000Y-85600000D03*
X21250000Y-83400000D03*
D12*
X104800000Y-76000000D03*
D13*
X109800000Y-72300000D03*
D12*
X109800000Y-78200000D03*
D16*
X114800000Y-66750000D03*
D15*
X101450000Y-76000000D03*
X113350000Y-78200000D03*
D12*
X104800000Y-59000000D03*
D13*
X109800000Y-55300000D03*
D12*
X109800000Y-61200000D03*
D16*
X114800000Y-49750000D03*
D15*
X101450000Y-59000000D03*
X113350000Y-61200000D03*
D11*
X111673475Y-66000000D03*
X108223475Y-66000000D03*
X30773475Y-75525000D03*
X27323475Y-75525000D03*
D19*
X67300000Y-23160000D03*
D20*
X67300000Y-25700000D03*
X67300000Y-28240000D03*
X67300000Y-30780000D03*
D12*
X208800000Y-42000000D03*
D13*
X213800000Y-38300000D03*
D12*
X213800000Y-44200000D03*
D16*
X218800000Y-32750000D03*
D15*
X205450000Y-42000000D03*
X217350000Y-44200000D03*
D12*
X53800000Y-64700000D03*
D13*
X58800000Y-61000000D03*
D12*
X58800000Y-66900000D03*
D16*
X63800000Y-55450000D03*
D15*
X50450000Y-64700000D03*
X62350000Y-66900000D03*
D11*
X131716525Y-82770000D03*
X135166525Y-82770000D03*
D12*
X184800000Y-57300000D03*
D13*
X179800000Y-61000000D03*
D12*
X179800000Y-55100000D03*
D16*
X174800000Y-66550000D03*
D15*
X188150000Y-57300000D03*
X176250000Y-55100000D03*
D11*
X114799975Y-85100000D03*
X111349975Y-85100000D03*
D12*
X46800000Y-77400000D03*
D13*
X41800000Y-81100000D03*
D12*
X41800000Y-75200000D03*
D16*
X36800000Y-86650000D03*
D15*
X50150000Y-77400000D03*
X38250000Y-75200000D03*
D19*
X137300000Y-39505000D03*
D20*
X137300000Y-42045000D03*
X137300000Y-44585000D03*
X137300000Y-47125000D03*
D19*
X101300000Y-46360000D03*
D20*
X101300000Y-48900000D03*
X101300000Y-51440000D03*
X101300000Y-53980000D03*
D11*
X207826525Y-52100000D03*
X211276525Y-52100000D03*
X47773475Y-67300000D03*
X44323475Y-67300000D03*
D12*
X125100000Y-84300000D03*
D13*
X128800000Y-89300000D03*
D12*
X122900000Y-89300000D03*
D16*
X134350000Y-94300000D03*
D17*
X125100000Y-80950000D03*
X122900000Y-92850000D03*
D11*
X207826525Y-49300000D03*
X211276525Y-49300000D03*
D12*
X208800000Y-76000000D03*
D13*
X213800000Y-72300000D03*
D12*
X213800000Y-78200000D03*
D16*
X218800000Y-66750000D03*
D15*
X205450000Y-76000000D03*
X217350000Y-78200000D03*
D12*
X70800000Y-67800000D03*
D13*
X75800000Y-64100000D03*
D12*
X75800000Y-70000000D03*
D16*
X80800000Y-58550000D03*
D15*
X67450000Y-67800000D03*
X79350000Y-70000000D03*
D11*
X111326575Y-51600000D03*
X107876575Y-51600000D03*
X30773475Y-44225000D03*
X27323475Y-44225000D03*
X60599975Y-40500000D03*
X57149975Y-40500000D03*
D12*
X208800000Y-93000000D03*
D13*
X213800000Y-89300000D03*
D12*
X213800000Y-95200000D03*
D16*
X218800000Y-83750000D03*
D15*
X205450000Y-93000000D03*
X217350000Y-95200000D03*
D12*
X87800000Y-87200000D03*
D13*
X92800000Y-83500000D03*
D12*
X92800000Y-89400000D03*
D16*
X97800000Y-77950000D03*
D15*
X84450000Y-87200000D03*
X96350000Y-89400000D03*
D11*
X152526525Y-70000000D03*
X155976525Y-70000000D03*
D12*
X87800000Y-36100000D03*
D13*
X92800000Y-32400000D03*
D12*
X92800000Y-38300000D03*
D16*
X97800000Y-26850000D03*
D15*
X84450000Y-36100000D03*
X96350000Y-38300000D03*
D11*
X66299975Y-74200000D03*
X62849975Y-74200000D03*
D12*
X87800000Y-53200000D03*
D13*
X92800000Y-49500000D03*
D12*
X92800000Y-55400000D03*
D16*
X97800000Y-43950000D03*
D15*
X84450000Y-53200000D03*
X96350000Y-55400000D03*
D12*
X133800000Y-34600000D03*
D13*
X128800000Y-38300000D03*
D12*
X128800000Y-32400000D03*
D16*
X123800000Y-43850000D03*
D15*
X137150000Y-34600000D03*
X125250000Y-32400000D03*
D12*
X150800000Y-62800000D03*
D13*
X145800000Y-66500000D03*
D12*
X145800000Y-60600000D03*
D15*
X154150000Y-62800000D03*
X142250000Y-60600000D03*
D11*
X84446575Y-82410000D03*
X80996575Y-82410000D03*
X84419975Y-79810000D03*
X80969975Y-79810000D03*
D19*
X137300000Y-56200000D03*
D20*
X137300000Y-58740000D03*
X137300000Y-61280000D03*
X137300000Y-63820000D03*
D12*
X87800000Y-70200000D03*
D13*
X92800000Y-66500000D03*
D12*
X92800000Y-72400000D03*
D16*
X97800000Y-60950000D03*
D15*
X84450000Y-70200000D03*
X96350000Y-72400000D03*
D12*
X53800000Y-47700000D03*
D13*
X58800000Y-44000000D03*
D12*
X58800000Y-49900000D03*
D16*
X63800000Y-38450000D03*
D15*
X50450000Y-47700000D03*
X62350000Y-49900000D03*
D11*
X156000025Y-34100000D03*
X159450025Y-34100000D03*
D12*
X104800000Y-42000000D03*
D13*
X109800000Y-38300000D03*
D12*
X109800000Y-44200000D03*
D16*
X114800000Y-32750000D03*
D15*
X101450000Y-42000000D03*
X113350000Y-44200000D03*
D12*
X167800000Y-60400000D03*
D13*
X162800000Y-64100000D03*
D12*
X162800000Y-58200000D03*
D16*
X157800000Y-69650000D03*
D15*
X171150000Y-60400000D03*
X159250000Y-58200000D03*
D12*
X184800000Y-40300000D03*
D13*
X179800000Y-44000000D03*
D12*
X179800000Y-38100000D03*
D16*
X174800000Y-49550000D03*
D15*
X188150000Y-40300000D03*
X176250000Y-38100000D03*
D11*
X30773475Y-41625000D03*
X27323475Y-41625000D03*
D21*
X199700000Y-77040000D03*
D20*
X199700000Y-79580000D03*
X199700000Y-82120000D03*
X199700000Y-84660000D03*
X199700000Y-87200000D03*
X199700000Y-89740000D03*
X199700000Y-92280000D03*
D19*
X171300000Y-48460000D03*
D20*
X171300000Y-51000000D03*
X171300000Y-53540000D03*
X171300000Y-56080000D03*
D12*
X53800000Y-81700000D03*
D13*
X58800000Y-78000000D03*
D12*
X58800000Y-83900000D03*
D16*
X63800000Y-72450000D03*
D15*
X50450000Y-81700000D03*
X62350000Y-83900000D03*
D11*
X77426575Y-43500000D03*
X73976575Y-43500000D03*
D10*
X205400000Y-80800000D03*
D11*
X47773475Y-70000000D03*
X44323475Y-70000000D03*
X148526525Y-38800000D03*
X151976525Y-38800000D03*
X47749975Y-33400000D03*
X44299975Y-33400000D03*
X192126525Y-40800000D03*
X195576525Y-40800000D03*
D12*
X167800000Y-26400000D03*
D13*
X162800000Y-30100000D03*
D12*
X162800000Y-24200000D03*
D16*
X157800000Y-35650000D03*
D15*
X171150000Y-26400000D03*
X159250000Y-24200000D03*
D12*
X167800000Y-43400000D03*
D13*
X162800000Y-47100000D03*
D12*
X162800000Y-41200000D03*
D16*
X157800000Y-52650000D03*
D15*
X171150000Y-43400000D03*
X159250000Y-41200000D03*
D11*
X114773475Y-82300000D03*
X111323475Y-82300000D03*
X174026525Y-31200000D03*
X177476525Y-31200000D03*
D12*
X184800000Y-23300000D03*
D13*
X179800000Y-27000000D03*
D12*
X179800000Y-21100000D03*
D16*
X174800000Y-32550000D03*
D22*
X188150000Y-23475000D03*
D15*
X176250000Y-21100000D03*
D12*
X133800000Y-51600000D03*
D13*
X128800000Y-55300000D03*
D12*
X128800000Y-49400000D03*
D16*
X123800000Y-60850000D03*
D15*
X137150000Y-51600000D03*
X125250000Y-49400000D03*
D12*
X46800000Y-60400000D03*
D13*
X41800000Y-64100000D03*
D12*
X41800000Y-58200000D03*
D16*
X36800000Y-69650000D03*
D15*
X50150000Y-60400000D03*
X38250000Y-58200000D03*
D11*
X122026525Y-39800000D03*
X125476525Y-39800000D03*
X148526525Y-35500000D03*
X151976525Y-35500000D03*
D12*
X70800000Y-84800000D03*
D13*
X75800000Y-81100000D03*
D12*
X75800000Y-87000000D03*
D16*
X80800000Y-75550000D03*
D22*
X67450000Y-84625000D03*
D15*
X79350000Y-87000000D03*
D11*
X122153125Y-36400000D03*
X125603125Y-36400000D03*
D23*
X118650000Y-63600000D03*
X118650000Y-65100000D03*
X118650000Y-66600000D03*
X118650000Y-68100000D03*
X119950000Y-63600000D03*
X119950000Y-65100000D03*
X119950000Y-66600000D03*
X119950000Y-68100000D03*
D11*
X156000025Y-37000000D03*
X159450025Y-37000000D03*
X208000025Y-65500000D03*
X211450025Y-65500000D03*
X111673475Y-68600000D03*
X108223475Y-68600000D03*
X77399975Y-40900000D03*
X73949975Y-40900000D03*
X178600025Y-67600000D03*
X182050025Y-67600000D03*
D12*
X70800000Y-50800000D03*
D13*
X75800000Y-47100000D03*
D12*
X75800000Y-53000000D03*
D16*
X80800000Y-41550000D03*
D15*
X67450000Y-50800000D03*
X79350000Y-53000000D03*
D11*
X60599975Y-37900000D03*
X57149975Y-37900000D03*
X111299975Y-49100000D03*
X107849975Y-49100000D03*
X131500025Y-78600000D03*
X134950025Y-78600000D03*
D10*
X84630000Y-74910000D03*
X84500000Y-58500000D03*
D12*
X70800000Y-33800000D03*
D13*
X75800000Y-30100000D03*
D12*
X75800000Y-36000000D03*
D16*
X80800000Y-24550000D03*
D24*
X67800000Y-33800000D03*
D15*
X79350000Y-36000000D03*
D10*
X153900000Y-57900000D03*
D12*
X150800000Y-45800000D03*
D13*
X145800000Y-49500000D03*
D12*
X145800000Y-43600000D03*
D15*
X154150000Y-45800000D03*
X142250000Y-43600000D03*
D12*
X208800000Y-59000000D03*
D13*
X213800000Y-55300000D03*
D12*
X213800000Y-61200000D03*
D16*
X218800000Y-49750000D03*
D15*
X205450000Y-59000000D03*
X217350000Y-61200000D03*
D12*
X29800000Y-34600000D03*
D13*
X24800000Y-38300000D03*
D12*
X24800000Y-32400000D03*
D16*
X19800000Y-43850000D03*
D15*
X33150000Y-34600000D03*
X21250000Y-32400000D03*
D19*
X33315000Y-57805000D03*
D20*
X33315000Y-60345000D03*
X33315000Y-62885000D03*
X33315000Y-65425000D03*
D12*
X53800000Y-30700000D03*
D13*
X58800000Y-27000000D03*
D12*
X58800000Y-32900000D03*
D16*
X63800000Y-21450000D03*
D15*
X50450000Y-30700000D03*
X62350000Y-32900000D03*
D12*
X46800000Y-26400000D03*
D13*
X41800000Y-30100000D03*
D12*
X41800000Y-24200000D03*
D16*
X36800000Y-35650000D03*
D25*
X50125000Y-26575000D03*
D15*
X38250000Y-24200000D03*
D12*
X191800000Y-50825000D03*
D13*
X196800000Y-47125000D03*
D12*
X196800000Y-53025000D03*
D16*
X201800000Y-41575000D03*
D15*
X188450000Y-50825000D03*
X200350000Y-53025000D03*
D19*
X101315000Y-31305000D03*
D20*
X101315000Y-33845000D03*
X101315000Y-36385000D03*
X101315000Y-38925000D03*
D12*
X29800000Y-51600000D03*
D13*
X24800000Y-55300000D03*
D12*
X24800000Y-49400000D03*
D16*
X19800000Y-60850000D03*
D15*
X33150000Y-51600000D03*
X21250000Y-49400000D03*
D12*
X46800000Y-43400000D03*
D13*
X41800000Y-47100000D03*
D12*
X41800000Y-41200000D03*
D16*
X36800000Y-52650000D03*
D15*
X50150000Y-43400000D03*
X38250000Y-41200000D03*
D19*
X67300000Y-38305000D03*
D20*
X67300000Y-40845000D03*
X67300000Y-43385000D03*
X67300000Y-45925000D03*
D26*
X133155000Y-67125000D03*
X134425000Y-67125000D03*
X135695000Y-67125000D03*
X136965000Y-67125000D03*
X138235000Y-67125000D03*
X139505000Y-67125000D03*
X140775000Y-67125000D03*
X142045000Y-67125000D03*
X142045000Y-72075000D03*
X140775000Y-72075000D03*
X139505000Y-72075000D03*
X138235000Y-72075000D03*
X136965000Y-72075000D03*
X135695000Y-72075000D03*
X134425000Y-72075000D03*
X133155000Y-72075000D03*
D27*
X143290000Y-75400000D03*
X148290000Y-75400000D03*
X145790000Y-75400000D03*
X90300000Y-75400000D03*
X95300000Y-75400000D03*
X92800000Y-75400000D03*
D23*
X151976500Y-34518300D03*
X142250000Y-35233500D03*
X148526500Y-36480000D03*
X184922600Y-37851800D03*
X140047700Y-42045000D03*
X201689600Y-49700200D03*
X173580300Y-32780100D03*
X184922600Y-34889700D03*
X201689600Y-42985500D03*
X192126500Y-37851800D03*
X148526500Y-37796800D03*
X156000000Y-35878400D03*
X207826500Y-50282000D03*
X140047700Y-37826700D03*
X156251300Y-32812100D03*
X123256400Y-41285000D03*
X193753400Y-42985500D03*
X151976500Y-40667000D03*
X142250000Y-40667000D03*
X181764000Y-35504200D03*
X153090400Y-40020600D03*
X153090400Y-38267900D03*
X161061000Y-38267900D03*
X192218300Y-44400600D03*
X191008700Y-43776000D03*
X139045400Y-40025500D03*
X202850400Y-46738100D03*
X148526500Y-40025500D03*
X207826500Y-53359200D03*
X174026500Y-35328300D03*
X156000000Y-38267900D03*
X161061000Y-35297800D03*
X185182900Y-43776000D03*
X203602700Y-53359200D03*
X146853800Y-62519200D03*
X144288300Y-62519200D03*
X148338700Y-64680900D03*
X155976500Y-64985800D03*
X179668100Y-68317600D03*
X152526500Y-66608400D03*
X208000000Y-67508500D03*
X149695500Y-52307800D03*
X148998300Y-66608400D03*
X179815900Y-65328800D03*
X146147500Y-52909500D03*
X182112300Y-57434400D03*
X131526500Y-58586500D03*
X122026500Y-58586500D03*
X201714900Y-60717100D03*
X169409000Y-53711700D03*
X133796000Y-56200000D03*
X169409000Y-57636100D03*
X203698700Y-70120000D03*
X146147500Y-56480100D03*
X183647000Y-60717100D03*
X208000000Y-70120000D03*
X125158100Y-75839000D03*
X133845900Y-75839000D03*
X182150000Y-64104300D03*
X176250000Y-63923600D03*
X196686500Y-40813900D03*
X200836500Y-40813900D03*
X202291300Y-43776000D03*
X196802600Y-43776000D03*
X180993500Y-68347300D03*
X198307300Y-68163000D03*
X143600000Y-86150000D03*
X135166500Y-81776200D03*
X212381500Y-49198600D03*
X217350000Y-49198600D03*
X217350000Y-50478100D03*
X211276500Y-50478100D03*
X173904100Y-55624400D03*
X173904100Y-59202700D03*
X194045000Y-60030300D03*
X184922600Y-65953300D03*
X184922600Y-68700600D03*
X148524800Y-61548600D03*
X165216300Y-62242800D03*
X165216300Y-60575000D03*
X149069000Y-60575000D03*
X199046700Y-74051700D03*
X200054800Y-62644500D03*
X161033600Y-44451200D03*
X191287400Y-46872100D03*
X197889200Y-54848900D03*
X194855800Y-54848900D03*
X202894200Y-90726800D03*
X201857900Y-62644500D03*
X161261900Y-43010000D03*
X140775000Y-73964300D03*
X141932700Y-73964300D03*
X149874000Y-37347900D03*
X147848100Y-63568200D03*
X203264100Y-62659600D03*
X142872800Y-63696300D03*
X209223800Y-63813300D03*
X181205000Y-40533300D03*
X211690300Y-75144400D03*
X210424900Y-73879000D03*
X193870700Y-57619100D03*
X173751200Y-40533300D03*
X193870700Y-54759500D03*
X211690300Y-82404700D03*
X202773200Y-57619100D03*
X183626500Y-54759500D03*
X133155000Y-73898100D03*
X173352000Y-37552600D03*
X150780800Y-51806300D03*
X192400400Y-61357000D03*
X204054400Y-65937800D03*
X201256200Y-65937800D03*
X139080300Y-57278500D03*
X200961000Y-61357000D03*
X201657400Y-72762400D03*
X201657400Y-89740000D03*
X192400400Y-53234200D03*
X150780800Y-57278500D03*
X205218700Y-72762400D03*
X217350000Y-67008400D03*
X211450000Y-67008400D03*
X140182100Y-54746700D03*
X137150000Y-54746700D03*
X155854300Y-54754400D03*
X125100000Y-61918600D03*
X139569900Y-55859800D03*
X171150000Y-40421200D03*
X172719300Y-40421200D03*
X161061000Y-54554400D03*
X170136400Y-54554400D03*
X160684500Y-55859800D03*
X139378700Y-62431700D03*
X136355800Y-79321200D03*
X138270100Y-68800000D03*
X188150000Y-64706900D03*
X125100000Y-78940900D03*
X175974500Y-68686500D03*
X175974500Y-64727000D03*
X137600100Y-69529400D03*
X153486300Y-75962100D03*
X190003800Y-63310500D03*
X167294600Y-63015700D03*
X137600100Y-77791500D03*
X167294600Y-68444200D03*
X153997300Y-68260400D03*
X136324000Y-69296000D03*
X205450000Y-44475000D03*
X203469800Y-44475000D03*
X135695000Y-57551600D03*
X205450000Y-55475600D03*
X217350000Y-84007200D03*
X211057600Y-84007200D03*
X90950000Y-41747700D03*
X95121200Y-41747700D03*
X90946900Y-46767000D03*
X96400900Y-46767000D03*
X96350000Y-67472800D03*
X106450000Y-66100000D03*
X168481600Y-55419400D03*
X162192800Y-55419400D03*
X162192800Y-53913000D03*
X168481600Y-58237800D03*
X132504700Y-53911500D03*
X84378500Y-39787700D03*
X84378500Y-49860300D03*
X36083900Y-48900000D03*
X96679700Y-40573300D03*
X33150000Y-48850000D03*
X99342900Y-46739700D03*
X35750000Y-37750000D03*
X99486700Y-52662300D03*
X99486700Y-48900000D03*
X50150000Y-55624400D03*
X47718400Y-55624400D03*
X62350000Y-35158800D03*
X56559200Y-35053300D03*
X57161100Y-41478100D03*
X62350000Y-40427600D03*
X50450000Y-50315600D03*
X53808800Y-50315600D03*
X74851700Y-39878900D03*
X79350000Y-39724300D03*
X95788300Y-45241000D03*
X95788300Y-51440000D03*
X68654600Y-43390200D03*
X59214100Y-36584300D03*
X36229700Y-55905900D03*
X77310100Y-41996700D03*
X95181200Y-47536600D03*
X60600000Y-41573800D03*
X109931900Y-47536600D03*
X34168900Y-43022500D03*
X49550000Y-36100000D03*
X34798200Y-55905900D03*
X36229700Y-62885000D03*
X34168900Y-43022500D03*
X47750000Y-40640700D03*
X65397200Y-41573800D03*
X94225100Y-44558000D03*
X78893300Y-43806600D03*
X84424400Y-81368600D03*
X116031800Y-80779500D03*
X116031800Y-70146200D03*
X66300000Y-78395700D03*
X112067400Y-70146200D03*
X65317500Y-73397000D03*
X47718400Y-73397000D03*
X32050000Y-78150000D03*
X78226600Y-78587600D03*
X33600000Y-75500000D03*
X35829600Y-67472800D03*
X78226600Y-75178900D03*
X47773500Y-69006700D03*
X84411100Y-78587600D03*
X64781200Y-69693400D03*
X101407000Y-81431400D03*
X64781200Y-70733000D03*
X64781200Y-30780000D03*
X66366100Y-75178900D03*
X66300000Y-70733000D03*
X113612000Y-81431400D03*
X35829600Y-73400000D03*
X101407000Y-79259800D03*
X94446200Y-41145900D03*
X60570300Y-36897900D03*
X96985900Y-45184200D03*
X64151700Y-36950000D03*
X77323300Y-38009600D03*
X33150000Y-41650000D03*
X111300000Y-46011000D03*
X47750000Y-35114300D03*
X78518400Y-40966600D03*
X98155000Y-46423500D03*
X99170900Y-45716900D03*
X98927800Y-73083000D03*
X165611800Y-71325400D03*
X136965000Y-70434900D03*
X142045000Y-70434900D03*
X202281100Y-82146100D03*
X165611800Y-67198500D03*
X145790000Y-71325400D03*
X165896500Y-33940000D03*
X145790000Y-70434900D03*
X202281100Y-67480900D03*
X103791600Y-82283300D03*
X96350000Y-82283300D03*
X107090500Y-78645100D03*
X103791600Y-78645100D03*
X107850000Y-46754100D03*
X113350000Y-46754100D03*
X113350000Y-50350000D03*
X107876600Y-50350000D03*
X138870100Y-75400000D03*
X138870100Y-63820000D03*
X79509900Y-41568300D03*
X79509900Y-46738100D03*
X88775400Y-46738100D03*
X82453200Y-43760000D03*
X82453200Y-23271100D03*
X98216300Y-63564800D03*
X89649600Y-43760000D03*
X98216300Y-75400000D03*
X90067600Y-63564800D03*
X71580000Y-42788500D03*
X105942000Y-78015300D03*
X71580000Y-38273700D03*
X102461800Y-44258600D03*
X101519200Y-78255700D03*
X157082000Y-67379500D03*
X151274000Y-67474400D03*
X151274000Y-73397000D03*
X138235000Y-74619400D03*
X157634700Y-49831600D03*
X164627600Y-39845900D03*
X164627600Y-43825000D03*
X135045900Y-54113100D03*
X159960200Y-54691900D03*
X159960200Y-43825000D03*
X160028400Y-61382400D03*
X164606700Y-61382400D03*
X149364800Y-70540400D03*
X160028400Y-70540400D03*
X164606700Y-53075600D03*
X139505000Y-69747600D03*
X154599000Y-66250100D03*
X156576200Y-50814200D03*
X154599000Y-69832100D03*
X156331700Y-66250100D03*
X101300000Y-56743200D03*
X88191600Y-58586500D03*
X84822300Y-67220900D03*
X88191600Y-67220900D03*
X88191600Y-55357300D03*
X83608700Y-55455100D03*
M02*
