G04 #@! TF.GenerationSoftware,KiCad,Pcbnew,9.0.0*
G04 #@! TF.CreationDate,2025-03-20T15:30:03+09:00*
G04 #@! TF.ProjectId,nofy,6e6f6679-2e6b-4696-9361-645f70636258,rev?*
G04 #@! TF.SameCoordinates,Original*
G04 #@! TF.FileFunction,Copper,L2,Bot*
G04 #@! TF.FilePolarity,Positive*
%FSLAX46Y46*%
G04 Gerber Fmt 4.6, Leading zero omitted, Abs format (unit mm)*
G04 Created by KiCad (PCBNEW 9.0.0) date 2025-03-20 15:30:03*
%MOMM*%
%LPD*%
G01*
G04 APERTURE LIST*
G04 Aperture macros list*
%AMRoundRect*
0 Rectangle with rounded corners*
0 $1 Rounding radius*
0 $2 $3 $4 $5 $6 $7 $8 $9 X,Y pos of 4 corners*
0 Add a 4 corners polygon primitive as box body*
4,1,4,$2,$3,$4,$5,$6,$7,$8,$9,$2,$3,0*
0 Add four circle primitives for the rounded corners*
1,1,$1+$1,$2,$3*
1,1,$1+$1,$4,$5*
1,1,$1+$1,$6,$7*
1,1,$1+$1,$8,$9*
0 Add four rect primitives between the rounded corners*
20,1,$1+$1,$2,$3,$4,$5,0*
20,1,$1+$1,$4,$5,$6,$7,0*
20,1,$1+$1,$6,$7,$8,$9,0*
20,1,$1+$1,$8,$9,$2,$3,0*%
G04 Aperture macros list end*
G04 #@! TA.AperFunction,SMDPad,CuDef*
%ADD10R,1.200000X0.950000*%
G04 #@! TD*
G04 #@! TA.AperFunction,SMDPad,CuDef*
%ADD11R,2.300000X3.550000*%
G04 #@! TD*
G04 #@! TA.AperFunction,SMDPad,CuDef*
%ADD12R,3.000000X3.500000*%
G04 #@! TD*
G04 #@! TA.AperFunction,SMDPad,CuDef*
%ADD13R,3.500000X3.000000*%
G04 #@! TD*
G04 #@! TA.AperFunction,SMDPad,CuDef*
%ADD14R,3.000000X3.050000*%
G04 #@! TD*
G04 #@! TA.AperFunction,ComponentPad*
%ADD15C,1.700000*%
G04 #@! TD*
G04 #@! TA.AperFunction,ComponentPad*
%ADD16O,1.700000X1.700000*%
G04 #@! TD*
G04 #@! TA.AperFunction,ComponentPad*
%ADD17R,1.700000X1.700000*%
G04 #@! TD*
G04 #@! TA.AperFunction,SMDPad,CuDef*
%ADD18R,3.000000X3.150000*%
G04 #@! TD*
G04 #@! TA.AperFunction,SMDPad,CuDef*
%ADD19R,2.300000X3.500000*%
G04 #@! TD*
G04 #@! TA.AperFunction,SMDPad,CuDef*
%ADD20R,2.950000X3.150000*%
G04 #@! TD*
G04 #@! TA.AperFunction,SMDPad,CuDef*
%ADD21RoundRect,0.150000X-0.150000X0.825000X-0.150000X-0.825000X0.150000X-0.825000X0.150000X0.825000X0*%
G04 #@! TD*
G04 #@! TA.AperFunction,ComponentPad*
%ADD22C,2.000000*%
G04 #@! TD*
G04 #@! TA.AperFunction,ViaPad*
%ADD23C,0.600000*%
G04 #@! TD*
G04 #@! TA.AperFunction,Conductor*
%ADD24C,0.200000*%
G04 #@! TD*
G04 #@! TA.AperFunction,Conductor*
%ADD25C,0.350000*%
G04 #@! TD*
G04 APERTURE END LIST*
D10*
X178700025Y-65200000D03*
X182150025Y-65200000D03*
D11*
X153800000Y-28775000D03*
D12*
X142250000Y-26600000D03*
D13*
X106100000Y-80950000D03*
X103900000Y-92850000D03*
X125100000Y-63950000D03*
X122900000Y-75850000D03*
D14*
X188450000Y-67575000D03*
D12*
X200350000Y-70000000D03*
X137450000Y-87200000D03*
X149350000Y-89400000D03*
D10*
X94399975Y-43500000D03*
X90949975Y-43500000D03*
X192126525Y-43600000D03*
X195576525Y-43600000D03*
X174026525Y-34000000D03*
X177476525Y-34000000D03*
X47749975Y-36100000D03*
X44299975Y-36100000D03*
X208000025Y-68500000D03*
X211450025Y-68500000D03*
X152526525Y-67700000D03*
X155976525Y-67700000D03*
X94396875Y-45700000D03*
X90946875Y-45700000D03*
X131526525Y-75200000D03*
X134976525Y-75200000D03*
D15*
X205300000Y-62500000D03*
D16*
X205300000Y-65040000D03*
X205300000Y-67580000D03*
X205300000Y-70120000D03*
D10*
X66299975Y-76800000D03*
X62849975Y-76800000D03*
D12*
X188450000Y-33825000D03*
X200350000Y-36025000D03*
D10*
X30773475Y-78125000D03*
X27323475Y-78125000D03*
D15*
X171300000Y-31400000D03*
D16*
X171300000Y-33940000D03*
X171300000Y-36480000D03*
X171300000Y-39020000D03*
D12*
X33150000Y-68600000D03*
X21250000Y-66400000D03*
X33150000Y-85600000D03*
X21250000Y-83400000D03*
X101450000Y-76000000D03*
X113350000Y-78200000D03*
X101450000Y-59000000D03*
X113350000Y-61200000D03*
D10*
X111673475Y-66000000D03*
X108223475Y-66000000D03*
X30773475Y-75525000D03*
X27323475Y-75525000D03*
D15*
X67300000Y-23160000D03*
D16*
X67300000Y-25700000D03*
X67300000Y-28240000D03*
X67300000Y-30780000D03*
D12*
X205450000Y-42000000D03*
X217350000Y-44200000D03*
X50450000Y-64700000D03*
X62350000Y-66900000D03*
D10*
X131716525Y-82770000D03*
X135166525Y-82770000D03*
D12*
X188150000Y-57300000D03*
X176250000Y-55100000D03*
D10*
X114799975Y-85100000D03*
X111349975Y-85100000D03*
D12*
X50150000Y-77400000D03*
X38250000Y-75200000D03*
D15*
X137300000Y-39505000D03*
D16*
X137300000Y-42045000D03*
X137300000Y-44585000D03*
X137300000Y-47125000D03*
D15*
X101300000Y-46360000D03*
D16*
X101300000Y-48900000D03*
X101300000Y-51440000D03*
X101300000Y-53980000D03*
D10*
X207826525Y-52100000D03*
X211276525Y-52100000D03*
X47773475Y-67300000D03*
X44323475Y-67300000D03*
D13*
X125100000Y-80950000D03*
X122900000Y-92850000D03*
D10*
X207826525Y-49300000D03*
X211276525Y-49300000D03*
D12*
X205450000Y-76000000D03*
X217350000Y-78200000D03*
X67450000Y-67800000D03*
X79350000Y-70000000D03*
D10*
X111326575Y-51600000D03*
X107876575Y-51600000D03*
X30773475Y-44225000D03*
X27323475Y-44225000D03*
X60599975Y-40500000D03*
X57149975Y-40500000D03*
D12*
X205450000Y-93000000D03*
X217350000Y-95200000D03*
X84450000Y-87200000D03*
X96350000Y-89400000D03*
D10*
X152526525Y-70000000D03*
X155976525Y-70000000D03*
D12*
X84450000Y-36100000D03*
X96350000Y-38300000D03*
D10*
X66299975Y-74200000D03*
X62849975Y-74200000D03*
D12*
X84450000Y-53200000D03*
X96350000Y-55400000D03*
X137150000Y-34600000D03*
X125250000Y-32400000D03*
X154150000Y-62800000D03*
X142250000Y-60600000D03*
D10*
X84446575Y-82410000D03*
X80996575Y-82410000D03*
X84419975Y-79810000D03*
X80969975Y-79810000D03*
D15*
X137300000Y-56200000D03*
D16*
X137300000Y-58740000D03*
X137300000Y-61280000D03*
X137300000Y-63820000D03*
D12*
X84450000Y-70200000D03*
X96350000Y-72400000D03*
X50450000Y-47700000D03*
X62350000Y-49900000D03*
D10*
X156000025Y-34100000D03*
X159450025Y-34100000D03*
D12*
X101450000Y-42000000D03*
X113350000Y-44200000D03*
X171150000Y-60400000D03*
X159250000Y-58200000D03*
X188150000Y-40300000D03*
X176250000Y-38100000D03*
D10*
X30773475Y-41625000D03*
X27323475Y-41625000D03*
D17*
X199700000Y-77040000D03*
D16*
X199700000Y-79580000D03*
X199700000Y-82120000D03*
X199700000Y-84660000D03*
X199700000Y-87200000D03*
X199700000Y-89740000D03*
X199700000Y-92280000D03*
D15*
X171300000Y-48460000D03*
D16*
X171300000Y-51000000D03*
X171300000Y-53540000D03*
X171300000Y-56080000D03*
D12*
X50450000Y-81700000D03*
X62350000Y-83900000D03*
D10*
X77426575Y-43500000D03*
X73976575Y-43500000D03*
X47773475Y-70000000D03*
X44323475Y-70000000D03*
X148526525Y-38800000D03*
X151976525Y-38800000D03*
X47749975Y-33400000D03*
X44299975Y-33400000D03*
X192126525Y-40800000D03*
X195576525Y-40800000D03*
D12*
X171150000Y-26400000D03*
X159250000Y-24200000D03*
X171150000Y-43400000D03*
X159250000Y-41200000D03*
D10*
X114773475Y-82300000D03*
X111323475Y-82300000D03*
X174026525Y-31200000D03*
X177476525Y-31200000D03*
D18*
X188150000Y-23475000D03*
D12*
X176250000Y-21100000D03*
X137150000Y-51600000D03*
X125250000Y-49400000D03*
X50150000Y-60400000D03*
X38250000Y-58200000D03*
D10*
X122026525Y-39800000D03*
X125476525Y-39800000D03*
X148526525Y-35500000D03*
X151976525Y-35500000D03*
D18*
X67450000Y-84625000D03*
D12*
X79350000Y-87000000D03*
D10*
X122153125Y-36400000D03*
X125603125Y-36400000D03*
X156000025Y-37000000D03*
X159450025Y-37000000D03*
X208000025Y-65500000D03*
X211450025Y-65500000D03*
X111673475Y-68600000D03*
X108223475Y-68600000D03*
X77399975Y-40900000D03*
X73949975Y-40900000D03*
X178600025Y-67600000D03*
X182050025Y-67600000D03*
D12*
X67450000Y-50800000D03*
X79350000Y-53000000D03*
D10*
X60599975Y-37900000D03*
X57149975Y-37900000D03*
X111299975Y-49100000D03*
X107849975Y-49100000D03*
X131500025Y-78600000D03*
X134950025Y-78600000D03*
D19*
X67800000Y-33800000D03*
D12*
X79350000Y-36000000D03*
X154150000Y-45800000D03*
X142250000Y-43600000D03*
X205450000Y-59000000D03*
X217350000Y-61200000D03*
X33150000Y-34600000D03*
X21250000Y-32400000D03*
D15*
X33315000Y-57805000D03*
D16*
X33315000Y-60345000D03*
X33315000Y-62885000D03*
X33315000Y-65425000D03*
D12*
X50450000Y-30700000D03*
X62350000Y-32900000D03*
D20*
X50125000Y-26575000D03*
D12*
X38250000Y-24200000D03*
X188450000Y-50825000D03*
X200350000Y-53025000D03*
D15*
X101315000Y-31305000D03*
D16*
X101315000Y-33845000D03*
X101315000Y-36385000D03*
X101315000Y-38925000D03*
D12*
X33150000Y-51600000D03*
X21250000Y-49400000D03*
X50150000Y-43400000D03*
X38250000Y-41200000D03*
D15*
X67300000Y-38305000D03*
D16*
X67300000Y-40845000D03*
X67300000Y-43385000D03*
X67300000Y-45925000D03*
D21*
X133155000Y-67125000D03*
X134425000Y-67125000D03*
X135695000Y-67125000D03*
X136965000Y-67125000D03*
X138235000Y-67125000D03*
X139505000Y-67125000D03*
X140775000Y-67125000D03*
X142045000Y-67125000D03*
X142045000Y-72075000D03*
X140775000Y-72075000D03*
X139505000Y-72075000D03*
X138235000Y-72075000D03*
X136965000Y-72075000D03*
X135695000Y-72075000D03*
X134425000Y-72075000D03*
X133155000Y-72075000D03*
D22*
X143290000Y-75400000D03*
X148290000Y-75400000D03*
X145790000Y-75400000D03*
X90300000Y-75400000D03*
X95300000Y-75400000D03*
X92800000Y-75400000D03*
D23*
X151976500Y-34518300D03*
X142250000Y-35233500D03*
X148526500Y-36480000D03*
X184922600Y-37851800D03*
X140047700Y-42045000D03*
X201689600Y-49700200D03*
X173580300Y-32780100D03*
X184922600Y-34889700D03*
X201689600Y-42985500D03*
X192126500Y-37851800D03*
X148526500Y-37796800D03*
X156000000Y-35878400D03*
X207826500Y-50282000D03*
X140047700Y-37826700D03*
X156251300Y-32812100D03*
X123256400Y-41285000D03*
X193753400Y-42985500D03*
X151976500Y-40667000D03*
X142250000Y-40667000D03*
X181764000Y-35504200D03*
X153090400Y-40020600D03*
X153090400Y-38267900D03*
X161061000Y-38267900D03*
X192218300Y-44400600D03*
X191008700Y-43776000D03*
X139045400Y-40025500D03*
X202850400Y-46738100D03*
X148526500Y-40025500D03*
X207826500Y-53359200D03*
X174026500Y-35328300D03*
X156000000Y-38267900D03*
X161061000Y-35297800D03*
X185182900Y-43776000D03*
X203602700Y-53359200D03*
X146853800Y-62519200D03*
X144288300Y-62519200D03*
X148338700Y-64680900D03*
X155976500Y-64985800D03*
X179668100Y-68317600D03*
X152526500Y-66608400D03*
X208000000Y-67508500D03*
X149695500Y-52307800D03*
X148998300Y-66608400D03*
X179815900Y-65328800D03*
X146147500Y-52909500D03*
X182112300Y-57434400D03*
X131526500Y-58586500D03*
X122026500Y-58586500D03*
X201714900Y-60717100D03*
X169409000Y-53711700D03*
X133796000Y-56200000D03*
X169409000Y-57636100D03*
X203698700Y-70120000D03*
X146147500Y-56480100D03*
X183647000Y-60717100D03*
X208000000Y-70120000D03*
X125158100Y-75839000D03*
X133845900Y-75839000D03*
X182150000Y-64104300D03*
X176250000Y-63923600D03*
X196686500Y-40813900D03*
X200836500Y-40813900D03*
X202291300Y-43776000D03*
X196802600Y-43776000D03*
X180993500Y-68347300D03*
X198307300Y-68163000D03*
X143600000Y-86150000D03*
X135166500Y-81776200D03*
X212381500Y-49198600D03*
X217350000Y-49198600D03*
X217350000Y-50478100D03*
X211276500Y-50478100D03*
X173904100Y-55624400D03*
X173904100Y-59202700D03*
X194045000Y-60030300D03*
X184922600Y-65953300D03*
X184922600Y-68700600D03*
X148524800Y-61548600D03*
X165216300Y-62242800D03*
X165216300Y-60575000D03*
X149069000Y-60575000D03*
X199046700Y-74051700D03*
X200054800Y-62644500D03*
X161033600Y-44451200D03*
X191287400Y-46872100D03*
X197889200Y-54848900D03*
X194855800Y-54848900D03*
X202894200Y-90726800D03*
X201857900Y-62644500D03*
X161261900Y-43010000D03*
X140775000Y-73964300D03*
X141932700Y-73964300D03*
X149874000Y-37347900D03*
X147848100Y-63568200D03*
X203264100Y-62659600D03*
X142872800Y-63696300D03*
X209223800Y-63813300D03*
X181205000Y-40533300D03*
X211690300Y-75144400D03*
X210424900Y-73879000D03*
X193870700Y-57619100D03*
X173751200Y-40533300D03*
X193870700Y-54759500D03*
X211690300Y-82404700D03*
X202773200Y-57619100D03*
X183626500Y-54759500D03*
X133155000Y-73898100D03*
X173352000Y-37552600D03*
X150780800Y-51806300D03*
X192400400Y-61357000D03*
X204054400Y-65937800D03*
X201256200Y-65937800D03*
X139080300Y-57278500D03*
X200961000Y-61357000D03*
X201657400Y-72762400D03*
X201657400Y-89740000D03*
X192400400Y-53234200D03*
X150780800Y-57278500D03*
X205218700Y-72762400D03*
X217350000Y-67008400D03*
X211450000Y-67008400D03*
X140182100Y-54746700D03*
X137150000Y-54746700D03*
X155854300Y-54754400D03*
X125100000Y-61918600D03*
X139569900Y-55859800D03*
X171150000Y-40421200D03*
X172719300Y-40421200D03*
X161061000Y-54554400D03*
X170136400Y-54554400D03*
X160684500Y-55859800D03*
X139378700Y-62431700D03*
X136355800Y-79321200D03*
X138270100Y-68800000D03*
X188150000Y-64706900D03*
X125100000Y-78940900D03*
X175974500Y-68686500D03*
X175974500Y-64727000D03*
X137600100Y-69529400D03*
X153486300Y-75962100D03*
X190003800Y-63310500D03*
X167294600Y-63015700D03*
X137600100Y-77791500D03*
X167294600Y-68444200D03*
X153997300Y-68260400D03*
X136324000Y-69296000D03*
X205450000Y-44475000D03*
X203469800Y-44475000D03*
X135695000Y-57551600D03*
X205450000Y-55475600D03*
X217350000Y-84007200D03*
X211057600Y-84007200D03*
X90950000Y-41747700D03*
X95121200Y-41747700D03*
X90946900Y-46767000D03*
X96400900Y-46767000D03*
X96350000Y-67472800D03*
X106450000Y-66100000D03*
X168481600Y-55419400D03*
X162192800Y-55419400D03*
X162192800Y-53913000D03*
X168481600Y-58237800D03*
X132504700Y-53911500D03*
X84378500Y-39787700D03*
X84378500Y-49860300D03*
X36083900Y-48900000D03*
X96679700Y-40573300D03*
X33150000Y-48850000D03*
X99342900Y-46739700D03*
X35750000Y-37750000D03*
X99486700Y-52662300D03*
X99486700Y-48900000D03*
X50150000Y-55624400D03*
X47718400Y-55624400D03*
X62350000Y-35158800D03*
X56559200Y-35053300D03*
X57161100Y-41478100D03*
X62350000Y-40427600D03*
X50450000Y-50315600D03*
X53808800Y-50315600D03*
X74851700Y-39878900D03*
X79350000Y-39724300D03*
X95788300Y-45241000D03*
X95788300Y-51440000D03*
X68654600Y-43390200D03*
X59214100Y-36584300D03*
X36229700Y-55905900D03*
X77310100Y-41996700D03*
X95181200Y-47536600D03*
X60600000Y-41573800D03*
X109931900Y-47536600D03*
X34168900Y-43022500D03*
X49550000Y-36100000D03*
X34798200Y-55905900D03*
X36229700Y-62885000D03*
X34168900Y-43022500D03*
X47750000Y-40640700D03*
X65397200Y-41573800D03*
X94225100Y-44558000D03*
X78893300Y-43806600D03*
X84424400Y-81368600D03*
X116031800Y-80779500D03*
X116031800Y-70146200D03*
X66300000Y-78395700D03*
X112067400Y-70146200D03*
X65317500Y-73397000D03*
X47718400Y-73397000D03*
X32050000Y-78150000D03*
X78226600Y-78587600D03*
X33600000Y-75500000D03*
X35829600Y-67472800D03*
X78226600Y-75178900D03*
X47773500Y-69006700D03*
X84411100Y-78587600D03*
X64781200Y-69693400D03*
X101407000Y-81431400D03*
X64781200Y-70733000D03*
X64781200Y-30780000D03*
X66366100Y-75178900D03*
X66300000Y-70733000D03*
X113612000Y-81431400D03*
X35829600Y-73400000D03*
X101407000Y-79259800D03*
X94446200Y-41145900D03*
X60570300Y-36897900D03*
X96985900Y-45184200D03*
X64151700Y-36950000D03*
X77323300Y-38009600D03*
X33150000Y-41650000D03*
X111300000Y-46011000D03*
X47750000Y-35114300D03*
X78518400Y-40966600D03*
X98155000Y-46423500D03*
X99170900Y-45716900D03*
X98927800Y-73083000D03*
X165611800Y-71325400D03*
X136965000Y-70434900D03*
X142045000Y-70434900D03*
X202281100Y-82146100D03*
X165611800Y-67198500D03*
X145790000Y-71325400D03*
X165896500Y-33940000D03*
X145790000Y-70434900D03*
X202281100Y-67480900D03*
X103791600Y-82283300D03*
X96350000Y-82283300D03*
X107090500Y-78645100D03*
X103791600Y-78645100D03*
X107850000Y-46754100D03*
X113350000Y-46754100D03*
X113350000Y-50350000D03*
X107876600Y-50350000D03*
X138870100Y-75400000D03*
X138870100Y-63820000D03*
X79509900Y-41568300D03*
X79509900Y-46738100D03*
X88775400Y-46738100D03*
X82453200Y-43760000D03*
X82453200Y-23271100D03*
X98216300Y-63564800D03*
X89649600Y-43760000D03*
X98216300Y-75400000D03*
X90067600Y-63564800D03*
X71580000Y-42788500D03*
X105942000Y-78015300D03*
X71580000Y-38273700D03*
X102461800Y-44258600D03*
X101519200Y-78255700D03*
X157082000Y-67379500D03*
X151274000Y-67474400D03*
X151274000Y-73397000D03*
X138235000Y-74619400D03*
X157634700Y-49831600D03*
X164627600Y-39845900D03*
X164627600Y-43825000D03*
X135045900Y-54113100D03*
X159960200Y-54691900D03*
X159960200Y-43825000D03*
X160028400Y-61382400D03*
X164606700Y-61382400D03*
X149364800Y-70540400D03*
X160028400Y-70540400D03*
X164606700Y-53075600D03*
X139505000Y-69747600D03*
X154599000Y-66250100D03*
X156576200Y-50814200D03*
X154599000Y-69832100D03*
X156331700Y-66250100D03*
X101300000Y-56743200D03*
X88191600Y-58586500D03*
X84822300Y-67220900D03*
X88191600Y-67220900D03*
X88191600Y-55357300D03*
X83608700Y-55455100D03*
D24*
X142250000Y-26600000D02*
X142250000Y-35233500D01*
X151976500Y-35500000D02*
X151976500Y-34518300D01*
X156000000Y-34100000D02*
X156000000Y-35878400D01*
X192126500Y-37851800D02*
X192126500Y-41176500D01*
X156000000Y-34100000D02*
X156000000Y-33323300D01*
X184922600Y-34889700D02*
X184922600Y-37851800D01*
X207826500Y-49300000D02*
X207826500Y-50282000D01*
X122153100Y-37176700D02*
X123256400Y-38280000D01*
X140047700Y-37826700D02*
X140047700Y-42045000D01*
X156000000Y-33323300D02*
X156251300Y-33072000D01*
X201689600Y-49700200D02*
X201689600Y-42985500D01*
X174026500Y-31200000D02*
X174026500Y-31976700D01*
X192126500Y-41176500D02*
X193753400Y-42803400D01*
X174026500Y-31976700D02*
X173580300Y-32422900D01*
X123256400Y-38280000D02*
X123256400Y-41285000D01*
X148526500Y-35500000D02*
X148526500Y-36480000D01*
X156251300Y-33072000D02*
X156251300Y-32812100D01*
X173580300Y-32422900D02*
X173580300Y-32780100D01*
X122153100Y-36400000D02*
X122153100Y-37176700D01*
X193753400Y-42803400D02*
X193753400Y-42985500D01*
X148526500Y-37796800D02*
X148526500Y-36480000D01*
X142250000Y-43600000D02*
X142250000Y-40667000D01*
X151976500Y-38800000D02*
X151976500Y-40667000D01*
X203602700Y-61958000D02*
X203602700Y-53359200D01*
X205012100Y-63888300D02*
X203865800Y-62742000D01*
X148526500Y-38800000D02*
X148526500Y-40025500D01*
X153090400Y-40020600D02*
X153090400Y-38267900D01*
X205300000Y-65040000D02*
X205300000Y-63888300D01*
X192218300Y-44400600D02*
X192126500Y-44308800D01*
X137300000Y-44500000D02*
X139045400Y-42754600D01*
X192126500Y-44308800D02*
X192126500Y-43600000D01*
X191224800Y-43600000D02*
X191048800Y-43776000D01*
X161061000Y-38267900D02*
X161061000Y-35297800D01*
X203865800Y-62221100D02*
X203602700Y-61958000D01*
X137300000Y-44585000D02*
X137300000Y-44500000D01*
X203865800Y-62742000D02*
X203865800Y-62221100D01*
X203602700Y-53359200D02*
X202850400Y-52606900D01*
X156000000Y-37000000D02*
X156000000Y-38267900D01*
X185182900Y-43776000D02*
X185182900Y-43660300D01*
X191048800Y-43776000D02*
X191008700Y-43776000D01*
X205300000Y-63888300D02*
X205012100Y-63888300D01*
X192126500Y-43600000D02*
X191224800Y-43600000D01*
X181764000Y-40241400D02*
X181764000Y-35504200D01*
X202850400Y-52606900D02*
X202850400Y-46738100D01*
X207826500Y-52100000D02*
X207826500Y-53359200D01*
X139045400Y-42754600D02*
X139045400Y-40025500D01*
X174026500Y-34000000D02*
X174026500Y-35328300D01*
X185182900Y-43660300D02*
X181764000Y-40241400D01*
X148338700Y-64680800D02*
X148052100Y-64680800D01*
X146853800Y-63482500D02*
X146853800Y-62519200D01*
X155976500Y-64985800D02*
X155730000Y-65232300D01*
X155976500Y-67700000D02*
X155976500Y-66923300D01*
X144169200Y-62519200D02*
X144288300Y-62519200D01*
X155730000Y-65232300D02*
X155730000Y-66676800D01*
X148052100Y-64680800D02*
X146853800Y-63482500D01*
X148338700Y-64680900D02*
X148338700Y-64680800D01*
X142250000Y-60600000D02*
X144169200Y-62519200D01*
X155730000Y-66676800D02*
X155976500Y-66923300D01*
X178700000Y-66723300D02*
X178700000Y-65200000D01*
X148998300Y-61926000D02*
X149695500Y-61228800D01*
X152526500Y-70000000D02*
X152526500Y-67700000D01*
X208000000Y-65500000D02*
X208000000Y-67508500D01*
X152526500Y-67700000D02*
X152526500Y-66608400D01*
X148998300Y-66608400D02*
X148998300Y-61926000D01*
X179501700Y-68151200D02*
X179668100Y-68317600D01*
X179687100Y-65200000D02*
X179815900Y-65328800D01*
X178700000Y-65200000D02*
X179601700Y-65200000D01*
X179501700Y-67600000D02*
X179501700Y-68151200D01*
X178600000Y-67600000D02*
X178600000Y-66823300D01*
X178600000Y-66823300D02*
X178700000Y-66723300D01*
X149695500Y-61228800D02*
X149695500Y-52307800D01*
X179601700Y-65200000D02*
X179687100Y-65200000D01*
X178600000Y-67600000D02*
X179501700Y-67600000D01*
X125250000Y-49400000D02*
X125476500Y-49173500D01*
X125476500Y-49173500D02*
X125476500Y-39800000D01*
X131526500Y-58469500D02*
X133796000Y-56200000D01*
X131526500Y-58586500D02*
X131526500Y-58469500D01*
X201714900Y-61650600D02*
X201714900Y-60717100D01*
X202459600Y-62705900D02*
X202459600Y-62395300D01*
X203452700Y-63699000D02*
X202459600Y-62705900D01*
X122026500Y-39800000D02*
X122026500Y-58586500D01*
X131526500Y-75200000D02*
X131526500Y-58586500D01*
X203452700Y-69874000D02*
X203452700Y-63699000D01*
X131500000Y-78600000D02*
X131500000Y-79376700D01*
X131500000Y-77823300D02*
X131526500Y-77796800D01*
X169409000Y-57636100D02*
X169409000Y-53711700D01*
X131716500Y-79593200D02*
X131500000Y-79376700D01*
X131526500Y-77796800D02*
X131526500Y-75200000D01*
X183647000Y-58969100D02*
X182112300Y-57434400D01*
X146147500Y-56480100D02*
X146147500Y-52909500D01*
X202459600Y-62395300D02*
X201714900Y-61650600D01*
X131716500Y-82770000D02*
X131716500Y-79593200D01*
X131500000Y-78600000D02*
X131500000Y-77823300D01*
X208000000Y-68500000D02*
X208000000Y-70120000D01*
X203698700Y-70120000D02*
X203452700Y-69874000D01*
X183647000Y-60717100D02*
X183647000Y-58969100D01*
X159250000Y-24200000D02*
X159250000Y-33123300D01*
X159450000Y-34100000D02*
X159450000Y-33323300D01*
X159250000Y-33123300D02*
X159450000Y-33323300D01*
X159250000Y-41200000D02*
X159250000Y-39148300D01*
X159450000Y-38948300D02*
X159450000Y-37000000D01*
X159250000Y-39148300D02*
X159450000Y-38948300D01*
X156089100Y-69223300D02*
X159250000Y-66062400D01*
X155976500Y-69223300D02*
X156089100Y-69223300D01*
X155976500Y-70000000D02*
X155976500Y-69223300D01*
X159250000Y-66062400D02*
X159250000Y-58200000D01*
X125147100Y-75850000D02*
X125158100Y-75839000D01*
X134976500Y-75200000D02*
X134074800Y-75200000D01*
X134074800Y-75610100D02*
X134074800Y-75200000D01*
X133845900Y-75839000D02*
X134074800Y-75610100D01*
X122900000Y-75850000D02*
X125147100Y-75850000D01*
X177476500Y-31200000D02*
X177476500Y-30423300D01*
X176250000Y-29196800D02*
X177476500Y-30423300D01*
X176250000Y-21100000D02*
X176250000Y-29196800D01*
X176250000Y-38100000D02*
X176250000Y-36003200D01*
X176250000Y-36003200D02*
X177476500Y-34776700D01*
X177476500Y-34000000D02*
X177476500Y-34776700D01*
X182150000Y-65200000D02*
X182150000Y-64104300D01*
X176250000Y-55100000D02*
X176250000Y-63923600D01*
X134950000Y-78600000D02*
X134950000Y-79376700D01*
X124500000Y-91250000D02*
X122900000Y-92850000D01*
X133528300Y-80798400D02*
X133528300Y-85471700D01*
X127700000Y-86550000D02*
X124500000Y-89750000D01*
X133528300Y-85471700D02*
X132450000Y-86550000D01*
X124500000Y-89750000D02*
X124500000Y-91250000D01*
X134950000Y-79376700D02*
X133528300Y-80798400D01*
X132450000Y-86550000D02*
X127700000Y-86550000D01*
X200350000Y-38076700D02*
X200836500Y-38563200D01*
X196686500Y-40813900D02*
X196492100Y-40813900D01*
X200350000Y-36025000D02*
X200350000Y-38076700D01*
X200836500Y-38563200D02*
X200836500Y-40813900D01*
X196492100Y-40813900D02*
X196478200Y-40800000D01*
X195576500Y-40800000D02*
X196478200Y-40800000D01*
X196478200Y-43600000D02*
X196626600Y-43600000D01*
X196626600Y-43600000D02*
X196802600Y-43776000D01*
X202291300Y-52885400D02*
X202151700Y-53025000D01*
X195576500Y-43600000D02*
X196478200Y-43600000D01*
X202291300Y-47029800D02*
X202291300Y-52885400D01*
X200350000Y-53025000D02*
X202151700Y-53025000D01*
X202248700Y-43818600D02*
X202248700Y-46987200D01*
X202248700Y-46987200D02*
X202291300Y-47029800D01*
X202291300Y-43776000D02*
X202248700Y-43818600D01*
X181148300Y-68192500D02*
X181148300Y-67600000D01*
X198513000Y-68163000D02*
X198307300Y-68163000D01*
X182050000Y-67600000D02*
X181148300Y-67600000D01*
X200350000Y-70000000D02*
X198513000Y-68163000D01*
X180993500Y-68347300D02*
X181148300Y-68192500D01*
X143600000Y-86150000D02*
X144850000Y-86150000D01*
X148100000Y-89400000D02*
X149350000Y-89400000D01*
X135166500Y-82770000D02*
X135166500Y-81776200D01*
X144850000Y-86150000D02*
X148100000Y-89400000D01*
X212279600Y-49198600D02*
X212178200Y-49300000D01*
X211276500Y-49300000D02*
X212178200Y-49300000D01*
X212381500Y-49198600D02*
X212279600Y-49198600D01*
X217350000Y-44200000D02*
X217350000Y-49198600D01*
X217350000Y-61200000D02*
X217350000Y-50478100D01*
X211276500Y-52100000D02*
X211276500Y-50478100D01*
X199700000Y-79220100D02*
X200868800Y-78051300D01*
X197762600Y-71900200D02*
X196105500Y-71900200D01*
X173904100Y-59202700D02*
X173904100Y-55624400D01*
X194989400Y-66265600D02*
X194045000Y-65321200D01*
X200868800Y-78051300D02*
X200868800Y-75006400D01*
X199700000Y-79580000D02*
X199700000Y-79220100D01*
X200868800Y-75006400D02*
X197762600Y-71900200D01*
X194045000Y-65321200D02*
X194045000Y-60030300D01*
X194989400Y-70784100D02*
X194989400Y-66265600D01*
X196105500Y-71900200D02*
X194989400Y-70784100D01*
X184922600Y-68700600D02*
X184922600Y-65953300D01*
X148524800Y-61548600D02*
X149069000Y-61004400D01*
X165216300Y-62242800D02*
X165216300Y-60575000D01*
X199700000Y-77040000D02*
X199700000Y-75888300D01*
X149069000Y-61004400D02*
X149069000Y-60575000D01*
X199046700Y-75235000D02*
X199046700Y-74051700D01*
X199700000Y-75888300D02*
X199046700Y-75235000D01*
X161033600Y-44451200D02*
X161261900Y-44222900D01*
X161261900Y-44222900D02*
X161261900Y-43010000D01*
X194855800Y-50440500D02*
X194855800Y-54848900D01*
X202894200Y-90726800D02*
X202894200Y-65526700D01*
X202894200Y-65526700D02*
X201857900Y-64490400D01*
X201857900Y-64490400D02*
X201857900Y-62644500D01*
X191287400Y-46872100D02*
X194855800Y-50440500D01*
X197889200Y-54848900D02*
X197889200Y-60478900D01*
X197889200Y-60478900D02*
X200054800Y-62644500D01*
D25*
X183626500Y-54759500D02*
X183626500Y-42954800D01*
X209223800Y-72677900D02*
X210424900Y-73879000D01*
X148923300Y-52765400D02*
X147848100Y-53840600D01*
X149874000Y-41786200D02*
X148923300Y-42736900D01*
X183626500Y-42954800D02*
X181205000Y-40533300D01*
X142872800Y-63696300D02*
X142872800Y-73024200D01*
X140775000Y-72075000D02*
X140775000Y-73964300D01*
X173751200Y-37951800D02*
X173352000Y-37552600D01*
X133155000Y-72075000D02*
X133155000Y-73898100D01*
X149874000Y-37347900D02*
X149874000Y-41786200D01*
X142872800Y-73024200D02*
X141932700Y-73964300D01*
X203264100Y-62525700D02*
X202773200Y-62034800D01*
X147848100Y-53840600D02*
X147848100Y-63568200D01*
X209223800Y-63813300D02*
X209223800Y-72677900D01*
X173751200Y-40533300D02*
X173751200Y-37951800D01*
X203264100Y-62659600D02*
X203264100Y-62525700D01*
X148923300Y-42736900D02*
X148923300Y-52765400D01*
X202773200Y-62034800D02*
X202773200Y-57619100D01*
X193870700Y-54759500D02*
X193870700Y-57619100D01*
X211690300Y-75144400D02*
X211690300Y-82404700D01*
D24*
X205676700Y-66310000D02*
X204426600Y-66310000D01*
X150780800Y-57278500D02*
X150780800Y-51806300D01*
X201657400Y-89740000D02*
X201657400Y-72762400D01*
X206466800Y-71514300D02*
X206466800Y-67100100D01*
X206466800Y-67100100D02*
X205676700Y-66310000D01*
X201256200Y-61652200D02*
X200961000Y-61357000D01*
X204426600Y-66310000D02*
X204054400Y-65937800D01*
X138451700Y-57907100D02*
X138451700Y-58740000D01*
X137300000Y-58740000D02*
X138451700Y-58740000D01*
X139080300Y-57278500D02*
X138451700Y-57907100D01*
X192400400Y-53234200D02*
X192400400Y-61357000D01*
X205218700Y-72762400D02*
X206466800Y-71514300D01*
X201256200Y-65937800D02*
X201256200Y-61652200D01*
X217350000Y-78200000D02*
X217350000Y-67008400D01*
X211450000Y-65500000D02*
X211450000Y-67008400D01*
X154150000Y-31201700D02*
X153800000Y-30851700D01*
X137150000Y-51600000D02*
X137150000Y-54746700D01*
X154150000Y-45800000D02*
X154150000Y-31201700D01*
X154150000Y-53050100D02*
X155854300Y-54754400D01*
X154150000Y-45800000D02*
X154150000Y-47851700D01*
X140775000Y-67125000D02*
X140182100Y-66532100D01*
X153800000Y-28775000D02*
X153800000Y-30851700D01*
X154150000Y-62800000D02*
X154150000Y-60748300D01*
X155854300Y-59044000D02*
X154150000Y-60748300D01*
X154150000Y-47851700D02*
X154150000Y-53050100D01*
X140182100Y-66532100D02*
X140182100Y-54746700D01*
X155854300Y-54754400D02*
X155854300Y-59044000D01*
X161061000Y-55483300D02*
X160684500Y-55859800D01*
X170136400Y-46465300D02*
X170136400Y-54554400D01*
X171150000Y-60400000D02*
X171150000Y-58348300D01*
X171150000Y-26400000D02*
X172951700Y-28201700D01*
X161061000Y-54554400D02*
X161061000Y-55483300D01*
X139682000Y-55971900D02*
X139569900Y-55859800D01*
X172951700Y-28201700D02*
X172951700Y-35486100D01*
X139378700Y-62431700D02*
X139505000Y-62558000D01*
X170136400Y-54554400D02*
X170136400Y-57334700D01*
X171150000Y-43400000D02*
X171150000Y-45451700D01*
X171150000Y-45451700D02*
X170136400Y-46465300D01*
X172719300Y-35718500D02*
X172719300Y-40421200D01*
X172951700Y-35486100D02*
X172719300Y-35718500D01*
X139505000Y-62558000D02*
X139505000Y-67125000D01*
X139378700Y-62431700D02*
X139682000Y-62128400D01*
X139682000Y-62128400D02*
X139682000Y-55971900D01*
X170136400Y-57334700D02*
X171150000Y-58348300D01*
X125100000Y-63950000D02*
X125100000Y-61918600D01*
X171150000Y-43400000D02*
X171150000Y-40421200D01*
X138270100Y-68777068D02*
X138270100Y-68800000D01*
X138270100Y-68800000D02*
X137479557Y-68800000D01*
X137479557Y-68800000D02*
X136999100Y-69280457D01*
X186609000Y-36707300D02*
X188150000Y-38248300D01*
X138235000Y-68065000D02*
X138235000Y-67125000D01*
X138250000Y-68080000D02*
X138235000Y-68065000D01*
X188150000Y-40300000D02*
X188150000Y-42351700D01*
X188150000Y-57300000D02*
X188150000Y-55248300D01*
X125100000Y-80950000D02*
X125100000Y-78940900D01*
X136999100Y-69471800D02*
X136355900Y-70115000D01*
X188150000Y-40300000D02*
X188150000Y-38248300D01*
X188150000Y-25351700D02*
X186609000Y-26892700D01*
X138250000Y-68779900D02*
X138250000Y-68080000D01*
X188150000Y-42351700D02*
X186621100Y-43880600D01*
X188150000Y-57300000D02*
X188150000Y-64706900D01*
X136355800Y-70115000D02*
X136355800Y-79321200D01*
X186621100Y-43880600D02*
X186621100Y-53719400D01*
X136999100Y-69280457D02*
X136999100Y-69471800D01*
X186621100Y-53719400D02*
X188150000Y-55248300D01*
X138270100Y-68800000D02*
X138250000Y-68779900D01*
X136355900Y-70115000D02*
X136355800Y-70115000D01*
X186609000Y-26892700D02*
X186609000Y-36707300D01*
X188150000Y-23475000D02*
X188150000Y-25351700D01*
X175974500Y-68686500D02*
X175974500Y-64727000D01*
X190003800Y-54430500D02*
X190003800Y-63310500D01*
X188450000Y-65495500D02*
X188450000Y-65748300D01*
X153486300Y-68771400D02*
X153997300Y-68260400D01*
X137450000Y-87200000D02*
X137600100Y-87049900D01*
X136965000Y-67125000D02*
X136324000Y-67766000D01*
X188450000Y-33825000D02*
X188450000Y-35876700D01*
X188450000Y-50825000D02*
X188450000Y-52876700D01*
X188450000Y-50281300D02*
X188450000Y-50825000D01*
X188450000Y-48773300D02*
X189956300Y-47267000D01*
X153486300Y-75962100D02*
X153486300Y-68771400D01*
X136324000Y-67766000D02*
X136324000Y-69296000D01*
X137600100Y-87049900D02*
X137600100Y-77791500D01*
X189956300Y-47267000D02*
X189956300Y-37383000D01*
X137600100Y-77791500D02*
X137600100Y-69529400D01*
X190003800Y-63310500D02*
X190003800Y-63941700D01*
X188450000Y-52876700D02*
X190003800Y-54430500D01*
X188450000Y-50281300D02*
X188450000Y-48773300D01*
X167294600Y-68444200D02*
X167294600Y-63015700D01*
X190003800Y-63941700D02*
X188450000Y-65495500D01*
X188450000Y-67575000D02*
X188450000Y-65748300D01*
X189956300Y-37383000D02*
X188450000Y-35876700D01*
X206868500Y-62343000D02*
X205577200Y-61051700D01*
X205450000Y-76000000D02*
X205450000Y-73948300D01*
X205577200Y-61051700D02*
X205450000Y-61051700D01*
X205450000Y-76000000D02*
X205450000Y-76850000D01*
X205450000Y-73948300D02*
X206868500Y-72529800D01*
X206868500Y-72529800D02*
X206868500Y-62343000D01*
X205450000Y-59000000D02*
X205450000Y-55475600D01*
X205450000Y-59000000D02*
X205450000Y-61051700D01*
X207983100Y-90466900D02*
X205450000Y-93000000D01*
X203469800Y-49765400D02*
X203469800Y-44475000D01*
X205450000Y-51745600D02*
X203469800Y-49765400D01*
X207983100Y-79383100D02*
X207983100Y-90466900D01*
X135695000Y-67125000D02*
X135695000Y-57551600D01*
X205450000Y-42000000D02*
X205450000Y-44475000D01*
X205450000Y-55475600D02*
X205450000Y-51745600D01*
X205450000Y-76850000D02*
X207983100Y-79383100D01*
X211057600Y-69669100D02*
X211057600Y-84007200D01*
X211450000Y-68500000D02*
X211450000Y-69276700D01*
X211450000Y-69276700D02*
X211057600Y-69669100D01*
X217350000Y-95200000D02*
X217350000Y-84007200D01*
X95121200Y-39528800D02*
X95121200Y-41747700D01*
X90950000Y-43500000D02*
X90950000Y-41747700D01*
X96350000Y-38300000D02*
X95121200Y-39528800D01*
X96400900Y-53297400D02*
X96400900Y-46767000D01*
X96350000Y-55400000D02*
X96350000Y-53348300D01*
X90946900Y-45700000D02*
X90946900Y-46767000D01*
X96350000Y-53348300D02*
X96400900Y-53297400D01*
X108223500Y-66000000D02*
X106550000Y-66000000D01*
X96350000Y-72400000D02*
X96350000Y-67472800D01*
X106550000Y-66000000D02*
X106450000Y-66100000D01*
X125250000Y-36046900D02*
X125603100Y-36400000D01*
X125250000Y-32400000D02*
X125250000Y-36046900D01*
X137150000Y-34600000D02*
X137050000Y-34600000D01*
X162192800Y-55419400D02*
X162192800Y-53913000D01*
X133900000Y-37750000D02*
X131975900Y-39674100D01*
X137050000Y-34600000D02*
X133900000Y-37750000D01*
X168481600Y-55419400D02*
X168481600Y-58237800D01*
X132504700Y-53911500D02*
X134425000Y-55831800D01*
X134425000Y-55831800D02*
X134425000Y-67125000D01*
X131975900Y-53382700D02*
X132504700Y-53911500D01*
X131975900Y-39674100D02*
X131975900Y-53382700D01*
X84378500Y-39787700D02*
X84378500Y-49860300D01*
X21250000Y-32400000D02*
X21250000Y-38650000D01*
X21250000Y-38650000D02*
X24225000Y-41625000D01*
X24225000Y-41625000D02*
X27323500Y-41625000D01*
X32157800Y-52592200D02*
X32157800Y-67607800D01*
X33150000Y-70651700D02*
X33150000Y-68600000D01*
X96679700Y-43967500D02*
X98569200Y-45857000D01*
X36083900Y-40413600D02*
X35750000Y-40079700D01*
X96679700Y-40573300D02*
X96679700Y-43967500D01*
X34815100Y-83034900D02*
X34815100Y-72316800D01*
X35750000Y-37000000D02*
X33350000Y-34600000D01*
X33150000Y-51600000D02*
X32157800Y-52592200D01*
X98569200Y-45857000D02*
X98569200Y-45966000D01*
X35750000Y-37750000D02*
X35750000Y-37000000D01*
X98569200Y-45966000D02*
X99342900Y-46739700D01*
X34815100Y-72316800D02*
X33150000Y-70651700D01*
X33150000Y-85600000D02*
X33150000Y-84700000D01*
X33350000Y-34600000D02*
X33150000Y-34600000D01*
X36083900Y-48900000D02*
X36083900Y-40413600D01*
X32157800Y-67607800D02*
X33150000Y-68600000D01*
X33150000Y-48850000D02*
X33150000Y-51600000D01*
X35750000Y-40079700D02*
X35750000Y-37750000D01*
X33150000Y-84700000D02*
X34815100Y-83034900D01*
X24398300Y-44200000D02*
X21250000Y-47348300D01*
X27323500Y-44200000D02*
X24398300Y-44200000D01*
X21250000Y-47348300D02*
X21250000Y-49400000D01*
X27323500Y-44225000D02*
X27323500Y-44200000D01*
X21250000Y-66400000D02*
X21250000Y-73039000D01*
X23736000Y-75525000D02*
X27323500Y-75525000D01*
X21250000Y-73039000D02*
X23736000Y-75525000D01*
X27323500Y-78125000D02*
X27323500Y-78100000D01*
X21250000Y-83150000D02*
X21250000Y-83400000D01*
X27323500Y-78100000D02*
X26300000Y-78100000D01*
X26300000Y-78100000D02*
X21250000Y-83150000D01*
X44250000Y-33350000D02*
X40050000Y-33350000D01*
X44300000Y-33400000D02*
X44250000Y-33350000D01*
X40050000Y-33350000D02*
X38250000Y-31550000D01*
X38250000Y-31550000D02*
X38250000Y-24200000D01*
X43350000Y-36100000D02*
X44300000Y-36100000D01*
X38250000Y-41200000D02*
X43350000Y-36100000D01*
X47718400Y-45831600D02*
X47718400Y-55624400D01*
X50150000Y-60400000D02*
X50150000Y-55624400D01*
X50150000Y-43400000D02*
X47718400Y-45831600D01*
X48603200Y-66578900D02*
X50150000Y-68125700D01*
X50150000Y-34231600D02*
X48606500Y-32688100D01*
X50150000Y-60400000D02*
X50150000Y-62451700D01*
X99486700Y-52662300D02*
X99486700Y-48900000D01*
X50150000Y-62451700D02*
X48989900Y-62451700D01*
X48603200Y-62838400D02*
X48603200Y-66578900D01*
X48606500Y-28831300D02*
X48986100Y-28451700D01*
X50150000Y-68125700D02*
X50150000Y-77400000D01*
X50150000Y-43400000D02*
X50150000Y-34231600D01*
X48606500Y-32688100D02*
X48606500Y-28831300D01*
X50125000Y-26575000D02*
X50125000Y-28451700D01*
X48989900Y-62451700D02*
X48603200Y-62838400D01*
X48986100Y-28451700D02*
X50125000Y-28451700D01*
X38250000Y-58200000D02*
X38250000Y-64800000D01*
X38250000Y-64800000D02*
X40750000Y-67300000D01*
X40750000Y-67300000D02*
X44323500Y-67300000D01*
X44000000Y-70150000D02*
X44323500Y-70473500D01*
X38250000Y-75200000D02*
X38950000Y-75200000D01*
X38950000Y-75200000D02*
X44000000Y-70150000D01*
X44323500Y-70473500D02*
X44323500Y-70000000D01*
X57150000Y-37900000D02*
X57150000Y-37123300D01*
X56559200Y-36532500D02*
X56559200Y-35053300D01*
X62350000Y-32900000D02*
X62350000Y-35158800D01*
X57150000Y-37123300D02*
X56559200Y-36532500D01*
X57150000Y-41276700D02*
X57161100Y-41287800D01*
X57161100Y-41287800D02*
X57161100Y-41478100D01*
X57150000Y-40500000D02*
X57150000Y-41276700D01*
X62350000Y-49900000D02*
X62350000Y-40427600D01*
X50450000Y-81700000D02*
X50450000Y-79648300D01*
X51987800Y-68289500D02*
X50450000Y-66751700D01*
X50450000Y-79648300D02*
X51603400Y-79648300D01*
X51603400Y-79648300D02*
X51987800Y-79263900D01*
X51962700Y-34264400D02*
X51962700Y-45270200D01*
X51584600Y-45648300D02*
X50450000Y-45648300D01*
X53808700Y-61341300D02*
X53808700Y-50315600D01*
X50450000Y-47700000D02*
X50450000Y-45648300D01*
X50450000Y-47700000D02*
X50450000Y-50315600D01*
X50450000Y-30700000D02*
X50450000Y-32751700D01*
X50450000Y-64700000D02*
X53808700Y-61341300D01*
X53808700Y-50315600D02*
X53808800Y-50315600D01*
X50450000Y-32751700D02*
X51962700Y-34264400D01*
X51987800Y-79263900D02*
X51987800Y-68289500D01*
X51962700Y-45270200D02*
X51584600Y-45648300D01*
X50450000Y-64700000D02*
X50450000Y-66751700D01*
X62350000Y-66900000D02*
X62350000Y-68951700D01*
X62850000Y-74200000D02*
X62850000Y-69451700D01*
X62850000Y-69451700D02*
X62350000Y-68951700D01*
X62350000Y-78076700D02*
X62350000Y-83900000D01*
X62850000Y-77576700D02*
X62350000Y-78076700D01*
X62850000Y-76800000D02*
X62850000Y-77576700D01*
X73950000Y-40900000D02*
X74851700Y-40900000D01*
X79350000Y-36000000D02*
X79350000Y-39724300D01*
X74851700Y-40900000D02*
X74851700Y-39878900D01*
X68479100Y-43390200D02*
X68654600Y-43390200D01*
X67450000Y-50800000D02*
X67450000Y-67800000D01*
X67450000Y-84625000D02*
X67450000Y-67800000D01*
X67450000Y-49774100D02*
X67450000Y-48748300D01*
X68479100Y-36530800D02*
X68479100Y-43390200D01*
X67800000Y-35851700D02*
X68479100Y-36530800D01*
X67450000Y-49774100D02*
X67450000Y-50800000D01*
X67800000Y-33800000D02*
X67800000Y-35851700D01*
X95788300Y-45241000D02*
X95788300Y-51440000D01*
X68479100Y-47719200D02*
X67450000Y-48748300D01*
X68479100Y-43390200D02*
X68479100Y-47719200D01*
X73976600Y-43500000D02*
X73976600Y-43626600D01*
X77751100Y-44500000D02*
X78563400Y-45312300D01*
X74850000Y-44500000D02*
X77751100Y-44500000D01*
X73976600Y-43626600D02*
X74850000Y-44500000D01*
X78563400Y-45312300D02*
X78563400Y-50161700D01*
X79350000Y-50948300D02*
X79350000Y-53000000D01*
X78563400Y-50161700D02*
X79350000Y-50948300D01*
X80970000Y-79033300D02*
X79350100Y-77413400D01*
X79350100Y-77413400D02*
X79350100Y-72051700D01*
X79350000Y-70000000D02*
X79350000Y-72051700D01*
X79350100Y-72051700D02*
X79350000Y-72051700D01*
X80970000Y-79810000D02*
X80970000Y-79033300D01*
X111326600Y-50823300D02*
X109931900Y-49428600D01*
X47750000Y-36100000D02*
X47750000Y-40640700D01*
X34966500Y-43820100D02*
X34966500Y-55737600D01*
X77426600Y-43500000D02*
X78328300Y-43500000D01*
X77310100Y-42606800D02*
X77310100Y-41996700D01*
X30775000Y-44225000D02*
X30773500Y-44225000D01*
X94396900Y-45700000D02*
X94396900Y-46752300D01*
X60600000Y-40500000D02*
X60600000Y-39723300D01*
X78328300Y-43500000D02*
X78586700Y-43500000D01*
X31977500Y-43022500D02*
X30775000Y-44225000D01*
X78586700Y-43500000D02*
X78893300Y-43806600D01*
X94396900Y-44923300D02*
X94225100Y-44751500D01*
X111326600Y-51600000D02*
X111326600Y-50823300D01*
X59214100Y-38337400D02*
X59214100Y-36584300D01*
X77426600Y-43500000D02*
X77426600Y-42723300D01*
X36229700Y-62885000D02*
X36229700Y-55905900D01*
X67300000Y-28550000D02*
X65397200Y-30452800D01*
X60600000Y-40500000D02*
X60600000Y-41573800D01*
X109931900Y-49428600D02*
X109931900Y-47536600D01*
X34168900Y-43022500D02*
X34966500Y-43820100D01*
X94396900Y-46752300D02*
X95181200Y-47536600D01*
X94396900Y-45700000D02*
X94396900Y-44923300D01*
X49550000Y-36100000D02*
X47750000Y-36100000D01*
X67300000Y-28240000D02*
X67300000Y-28550000D01*
X34966500Y-55737600D02*
X34798200Y-55905900D01*
X77426600Y-42723300D02*
X77310100Y-42606800D01*
X60600000Y-39723300D02*
X59214100Y-38337400D01*
X65397200Y-30452800D02*
X65397200Y-41573800D01*
X94225100Y-44751500D02*
X94225100Y-44558000D01*
X34168900Y-43022500D02*
X31977500Y-43022500D01*
X65384900Y-73397000D02*
X65317500Y-73397000D01*
X112067400Y-69770600D02*
X112067400Y-70146200D01*
X116031800Y-80779500D02*
X116031800Y-70146200D01*
X66300000Y-76800000D02*
X66300000Y-76023300D01*
X32050000Y-78150000D02*
X32025000Y-78125000D01*
X111673500Y-69376700D02*
X112067400Y-69770600D01*
X84424400Y-81611100D02*
X84424400Y-81368600D01*
X65384900Y-75108200D02*
X66300000Y-76023300D01*
X111673500Y-68600000D02*
X111673500Y-69376700D01*
X32025000Y-78125000D02*
X30773500Y-78125000D01*
X65384900Y-45300100D02*
X65384900Y-73397000D01*
X84446600Y-81633300D02*
X84424400Y-81611100D01*
X65384900Y-73397000D02*
X65384900Y-75108200D01*
X114800000Y-84323300D02*
X116031800Y-83091500D01*
X47773500Y-70776700D02*
X47718400Y-70831800D01*
X114800000Y-85100000D02*
X114800000Y-84323300D01*
X84446600Y-82410000D02*
X84446600Y-81633300D01*
X116031800Y-83091500D02*
X116031800Y-80779500D01*
X66300000Y-76800000D02*
X66300000Y-78395700D01*
X67300000Y-43385000D02*
X65384900Y-45300100D01*
X47718400Y-70831800D02*
X47718400Y-73397000D01*
X47773500Y-70000000D02*
X47773500Y-70776700D01*
X33315000Y-65425000D02*
X33825000Y-65425000D01*
X35829600Y-67472800D02*
X35829600Y-73400000D01*
X30773500Y-75525000D02*
X33575000Y-75525000D01*
X113612000Y-82040200D02*
X113612000Y-81431400D01*
X113871800Y-82300000D02*
X113612000Y-82040200D01*
X66366100Y-75178900D02*
X66300000Y-75112800D01*
X35829600Y-67429600D02*
X35829600Y-67472800D01*
X66300000Y-75112800D02*
X66300000Y-74200000D01*
X114773500Y-82300000D02*
X113871800Y-82300000D01*
X47773500Y-67300000D02*
X47773500Y-69006700D01*
X84420000Y-79033300D02*
X84411100Y-79024400D01*
X66300000Y-74200000D02*
X66300000Y-70733000D01*
X111673475Y-66000000D02*
X115151700Y-69478225D01*
X101407000Y-79259800D02*
X101407000Y-81431400D01*
X84420000Y-79810000D02*
X84420000Y-79033300D01*
X78226600Y-75178900D02*
X78226600Y-78587600D01*
X33575000Y-75525000D02*
X33600000Y-75500000D01*
X64781200Y-70733000D02*
X64781200Y-69693400D01*
X84411100Y-79024400D02*
X84411100Y-78587600D01*
X111673500Y-66000000D02*
X111673475Y-66000000D01*
X115151700Y-81145100D02*
X114773500Y-81523300D01*
X64781200Y-30780000D02*
X64781200Y-69693400D01*
X33825000Y-65425000D02*
X35829600Y-67429600D01*
X115151700Y-69478225D02*
X115151700Y-81145100D01*
X114773500Y-81523300D02*
X114773500Y-82300000D01*
X94400000Y-41192100D02*
X94446200Y-41145900D01*
X77323300Y-40046600D02*
X77323300Y-38009600D01*
X77400000Y-40900000D02*
X77400000Y-40589400D01*
X64151700Y-36950000D02*
X64151700Y-28848300D01*
X35423200Y-58236800D02*
X33315000Y-60345000D01*
X64151700Y-28848300D02*
X67300000Y-25700000D01*
X77400000Y-40589400D02*
X77400000Y-40123300D01*
X111300000Y-49100000D02*
X111300000Y-46011000D01*
X95301700Y-43500000D02*
X96985900Y-45184200D01*
X34675900Y-41650000D02*
X35423200Y-42397300D01*
X77400000Y-40123300D02*
X77323300Y-40046600D01*
X33150000Y-41650000D02*
X34675900Y-41650000D01*
X94400000Y-43500000D02*
X95301700Y-43500000D01*
X47750000Y-33400000D02*
X47750000Y-35114300D01*
X30950000Y-41650000D02*
X30925000Y-41625000D01*
X35423200Y-42397300D02*
X35423200Y-58236800D01*
X30925000Y-41625000D02*
X30773500Y-41625000D01*
X60570300Y-36897900D02*
X60600000Y-36927600D01*
X94400000Y-43500000D02*
X94400000Y-41192100D01*
X77777200Y-40966600D02*
X78518400Y-40966600D01*
X60600000Y-36927600D02*
X60600000Y-37900000D01*
X33150000Y-41650000D02*
X30950000Y-41650000D01*
X77400000Y-40589400D02*
X77777200Y-40966600D01*
D25*
X98155000Y-46423500D02*
X98155000Y-53248400D01*
X99170900Y-45716900D02*
X99170900Y-35979100D01*
X99170900Y-35979100D02*
X101305000Y-33845000D01*
X98155000Y-53248400D02*
X98927800Y-54021200D01*
X101305000Y-33845000D02*
X101315000Y-33845000D01*
X98927800Y-54021200D02*
X98927800Y-73083000D01*
D24*
X80996600Y-83301700D02*
X80996600Y-82410000D01*
X79350000Y-84948300D02*
X80996600Y-83301700D01*
X79350000Y-87000000D02*
X79350000Y-84948300D01*
D25*
X202337300Y-82089900D02*
X202337300Y-67537100D01*
X202337300Y-67537100D02*
X202281100Y-67480900D01*
X142045000Y-67125000D02*
X142045000Y-70434900D01*
X145790000Y-75400000D02*
X145790000Y-71325400D01*
X136965000Y-72075000D02*
X136965000Y-70434900D01*
X145790000Y-71325400D02*
X145790000Y-70434900D01*
X165611800Y-71325400D02*
X165611800Y-67198500D01*
X202281100Y-82146100D02*
X202337300Y-82089900D01*
X165611800Y-67198500D02*
X165896500Y-66913800D01*
X165896500Y-66913800D02*
X165896500Y-33940000D01*
D24*
X108223500Y-68600000D02*
X108223500Y-69376700D01*
X108223500Y-69376700D02*
X107090500Y-70509700D01*
X96350000Y-89400000D02*
X96350000Y-82283300D01*
X107090500Y-70509700D02*
X107090500Y-78645100D01*
X103791600Y-82283300D02*
X103791600Y-78645100D01*
X107850000Y-49100000D02*
X107850000Y-46754100D01*
X113350000Y-44200000D02*
X113350000Y-46754100D01*
X107876600Y-51600000D02*
X107876600Y-50350000D01*
X113350000Y-61200000D02*
X113350000Y-50350000D01*
X111323500Y-80226500D02*
X113350000Y-78200000D01*
X111323500Y-82300000D02*
X111323500Y-80226500D01*
X111298200Y-85100000D02*
X110000000Y-85100000D01*
X105801100Y-90948900D02*
X103900000Y-92850000D01*
X110000000Y-85100000D02*
X105801100Y-89298900D01*
X105801100Y-89298900D02*
X105801100Y-90948900D01*
X138870100Y-75400000D02*
X138870100Y-63820000D01*
X88775400Y-49800500D02*
X88775400Y-46738100D01*
X79509900Y-46738100D02*
X79509900Y-41568300D01*
X89456500Y-67480300D02*
X89456500Y-54906800D01*
X89616000Y-50641100D02*
X88775400Y-49800500D01*
X90300000Y-68323800D02*
X89456500Y-67480300D01*
X89616000Y-54747300D02*
X89616000Y-50641100D01*
X90300000Y-75400000D02*
X90300000Y-68323800D01*
X89456500Y-54906800D02*
X89616000Y-54747300D01*
X90067600Y-63564800D02*
X90067600Y-50324500D01*
X89649600Y-49906500D02*
X89649600Y-43760000D01*
X90067600Y-50324500D02*
X89649600Y-49906500D01*
X98216300Y-75400000D02*
X98216300Y-63564800D01*
X82453200Y-23271100D02*
X82453200Y-43760000D01*
X71580000Y-42788500D02*
X71580000Y-38273700D01*
X101450000Y-44051700D02*
X101656900Y-44258600D01*
X101450000Y-42000000D02*
X101450000Y-44051700D01*
X101519200Y-78120900D02*
X101519200Y-78255700D01*
X101656900Y-44258600D02*
X102461800Y-44258600D01*
X101450000Y-59000000D02*
X102461800Y-57988200D01*
X105942000Y-80792000D02*
X105942000Y-78015300D01*
X101450000Y-59000000D02*
X101450000Y-76000000D01*
X101450000Y-76000000D02*
X101450000Y-78051700D01*
X106100000Y-80950000D02*
X105942000Y-80792000D01*
X102461800Y-57988200D02*
X102461800Y-44258600D01*
X101450000Y-78051700D02*
X101519200Y-78120900D01*
X157082000Y-53891800D02*
X156977900Y-53787700D01*
X156977900Y-51265300D02*
X157634700Y-50608500D01*
X151274000Y-67474400D02*
X151274000Y-73397000D01*
X138235000Y-72075000D02*
X138235000Y-74619400D01*
X157634700Y-50608500D02*
X157634700Y-49831600D01*
X156977900Y-53787700D02*
X156977900Y-51265300D01*
X157082000Y-67379500D02*
X157082000Y-53891800D01*
X164627600Y-39845900D02*
X164627600Y-43825000D01*
X159960200Y-43825000D02*
X159960200Y-54691900D01*
X135695000Y-72075000D02*
X135045900Y-71425900D01*
X135045900Y-71425900D02*
X135045900Y-54113100D01*
X164606700Y-61382400D02*
X164606700Y-53075600D01*
X160028400Y-70540400D02*
X160028400Y-61382400D01*
X149364800Y-74325200D02*
X149364800Y-70540400D01*
X148290000Y-75400000D02*
X149364800Y-74325200D01*
X156576200Y-54154200D02*
X156576200Y-50814200D01*
X156626200Y-54204200D02*
X156576200Y-54154200D01*
X154599000Y-69832100D02*
X154599000Y-66250100D01*
X156626200Y-65955600D02*
X156626200Y-54204200D01*
X156331700Y-66250100D02*
X156626200Y-65955600D01*
X139505000Y-72075000D02*
X139505000Y-69747600D01*
X88191600Y-58586500D02*
X88191600Y-67220900D01*
X83654900Y-51943400D02*
X83654900Y-38946800D01*
X83710400Y-55353400D02*
X83710400Y-55251700D01*
X84450000Y-69174100D02*
X84450000Y-68148300D01*
X83654900Y-38946800D02*
X84450000Y-38151700D01*
X84450000Y-87200000D02*
X84450000Y-85148300D01*
X84450000Y-69174100D02*
X84450000Y-70200000D01*
X84822300Y-67776000D02*
X84822300Y-67220900D01*
X82707200Y-73994500D02*
X82707200Y-83405500D01*
X83710400Y-51998900D02*
X83654900Y-51943400D01*
X83608700Y-55455100D02*
X83710400Y-55353400D01*
X88191600Y-55357300D02*
X88191600Y-58586500D01*
X84450000Y-53200000D02*
X84450000Y-55251700D01*
X83710400Y-55251700D02*
X83710400Y-51998900D01*
X83710400Y-55251700D02*
X84450000Y-55251700D01*
X84450000Y-68148300D02*
X84822300Y-67776000D01*
X84450000Y-70200000D02*
X84450000Y-72251700D01*
X82707200Y-83405500D02*
X84450000Y-85148300D01*
X101300000Y-53980000D02*
X101300000Y-56743200D01*
X84450000Y-36100000D02*
X84450000Y-38151700D01*
X84450000Y-72251700D02*
X82707200Y-73994500D01*
M02*
