G04 #@! TF.GenerationSoftware,KiCad,Pcbnew,9.0.0*
G04 #@! TF.CreationDate,2025-03-20T15:30:03+09:00*
G04 #@! TF.ProjectId,nofy,6e6f6679-2e6b-4696-9361-645f70636258,rev?*
G04 #@! TF.SameCoordinates,Original*
G04 #@! TF.FileFunction,Copper,L1,Top*
G04 #@! TF.FilePolarity,Positive*
%FSLAX46Y46*%
G04 Gerber Fmt 4.6, Leading zero omitted, Abs format (unit mm)*
G04 Created by KiCad (PCBNEW 9.0.0) date 2025-03-20 15:30:03*
%MOMM*%
%LPD*%
G01*
G04 APERTURE LIST*
G04 #@! TA.AperFunction,ComponentPad*
%ADD10C,1.700000*%
G04 #@! TD*
G04 #@! TA.AperFunction,ComponentPad*
%ADD11O,1.700000X1.700000*%
G04 #@! TD*
G04 #@! TA.AperFunction,ComponentPad*
%ADD12R,1.700000X1.700000*%
G04 #@! TD*
G04 #@! TA.AperFunction,ComponentPad*
%ADD13C,2.000000*%
G04 #@! TD*
G04 #@! TA.AperFunction,ViaPad*
%ADD14C,0.600000*%
G04 #@! TD*
G04 #@! TA.AperFunction,Conductor*
%ADD15C,0.200000*%
G04 #@! TD*
G04 #@! TA.AperFunction,Conductor*
%ADD16C,0.350000*%
G04 #@! TD*
G04 APERTURE END LIST*
D10*
X205300000Y-62500000D03*
D11*
X205300000Y-65040000D03*
X205300000Y-67580000D03*
X205300000Y-70120000D03*
D10*
X171300000Y-31400000D03*
D11*
X171300000Y-33940000D03*
X171300000Y-36480000D03*
X171300000Y-39020000D03*
D10*
X67300000Y-23160000D03*
D11*
X67300000Y-25700000D03*
X67300000Y-28240000D03*
X67300000Y-30780000D03*
D10*
X137300000Y-39505000D03*
D11*
X137300000Y-42045000D03*
X137300000Y-44585000D03*
X137300000Y-47125000D03*
D10*
X101300000Y-46360000D03*
D11*
X101300000Y-48900000D03*
X101300000Y-51440000D03*
X101300000Y-53980000D03*
D10*
X137300000Y-56200000D03*
D11*
X137300000Y-58740000D03*
X137300000Y-61280000D03*
X137300000Y-63820000D03*
D12*
X199700000Y-77040000D03*
D11*
X199700000Y-79580000D03*
X199700000Y-82120000D03*
X199700000Y-84660000D03*
X199700000Y-87200000D03*
X199700000Y-89740000D03*
X199700000Y-92280000D03*
D10*
X171300000Y-48460000D03*
D11*
X171300000Y-51000000D03*
X171300000Y-53540000D03*
X171300000Y-56080000D03*
D10*
X33315000Y-57805000D03*
D11*
X33315000Y-60345000D03*
X33315000Y-62885000D03*
X33315000Y-65425000D03*
D10*
X101315000Y-31305000D03*
D11*
X101315000Y-33845000D03*
X101315000Y-36385000D03*
X101315000Y-38925000D03*
D10*
X67300000Y-38305000D03*
D11*
X67300000Y-40845000D03*
X67300000Y-43385000D03*
X67300000Y-45925000D03*
D13*
X143290000Y-75400000D03*
X148290000Y-75400000D03*
X145790000Y-75400000D03*
X90300000Y-75400000D03*
X95300000Y-75400000D03*
X92800000Y-75400000D03*
D14*
X151976500Y-34518300D03*
X142250000Y-35233500D03*
X148526500Y-36480000D03*
X184922600Y-37851800D03*
X140047700Y-42045000D03*
X201689600Y-49700200D03*
X173580300Y-32780100D03*
X184922600Y-34889700D03*
X201689600Y-42985500D03*
X192126500Y-37851800D03*
X148526500Y-37796800D03*
X156000000Y-35878400D03*
X207826500Y-50282000D03*
X140047700Y-37826700D03*
X156251300Y-32812100D03*
X123256400Y-41285000D03*
X193753400Y-42985500D03*
X151976500Y-40667000D03*
X142250000Y-40667000D03*
X181764000Y-35504200D03*
X153090400Y-40020600D03*
X153090400Y-38267900D03*
X161061000Y-38267900D03*
X192218300Y-44400600D03*
X191008700Y-43776000D03*
X139045400Y-40025500D03*
X202850400Y-46738100D03*
X148526500Y-40025500D03*
X207826500Y-53359200D03*
X174026500Y-35328300D03*
X156000000Y-38267900D03*
X161061000Y-35297800D03*
X185182900Y-43776000D03*
X203602700Y-53359200D03*
X146853800Y-62519200D03*
X144288300Y-62519200D03*
X148338700Y-64680900D03*
X155976500Y-64985800D03*
X179668100Y-68317600D03*
X152526500Y-66608400D03*
X208000000Y-67508500D03*
X149695500Y-52307800D03*
X148998300Y-66608400D03*
X179815900Y-65328800D03*
X146147500Y-52909500D03*
X182112300Y-57434400D03*
X131526500Y-58586500D03*
X122026500Y-58586500D03*
X201714900Y-60717100D03*
X169409000Y-53711700D03*
X133796000Y-56200000D03*
X169409000Y-57636100D03*
X203698700Y-70120000D03*
X146147500Y-56480100D03*
X183647000Y-60717100D03*
X208000000Y-70120000D03*
X125158100Y-75839000D03*
X133845900Y-75839000D03*
X182150000Y-64104300D03*
X176250000Y-63923600D03*
X196686500Y-40813900D03*
X200836500Y-40813900D03*
X202291300Y-43776000D03*
X196802600Y-43776000D03*
X180993500Y-68347300D03*
X198307300Y-68163000D03*
X143600000Y-86150000D03*
X135166500Y-81776200D03*
X212381500Y-49198600D03*
X217350000Y-49198600D03*
X217350000Y-50478100D03*
X211276500Y-50478100D03*
X173904100Y-55624400D03*
X173904100Y-59202700D03*
X194045000Y-60030300D03*
X184922600Y-65953300D03*
X184922600Y-68700600D03*
X148524800Y-61548600D03*
X165216300Y-62242800D03*
X165216300Y-60575000D03*
X149069000Y-60575000D03*
X199046700Y-74051700D03*
X200054800Y-62644500D03*
X161033600Y-44451200D03*
X191287400Y-46872100D03*
X197889200Y-54848900D03*
X194855800Y-54848900D03*
X202894200Y-90726800D03*
X201857900Y-62644500D03*
X161261900Y-43010000D03*
X140775000Y-73964300D03*
X141932700Y-73964300D03*
X149874000Y-37347900D03*
X147848100Y-63568200D03*
X203264100Y-62659600D03*
X142872800Y-63696300D03*
X209223800Y-63813300D03*
X181205000Y-40533300D03*
X211690300Y-75144400D03*
X210424900Y-73879000D03*
X193870700Y-57619100D03*
X173751200Y-40533300D03*
X193870700Y-54759500D03*
X211690300Y-82404700D03*
X202773200Y-57619100D03*
X183626500Y-54759500D03*
X133155000Y-73898100D03*
X173352000Y-37552600D03*
X150780800Y-51806300D03*
X192400400Y-61357000D03*
X204054400Y-65937800D03*
X201256200Y-65937800D03*
X139080300Y-57278500D03*
X200961000Y-61357000D03*
X201657400Y-72762400D03*
X201657400Y-89740000D03*
X192400400Y-53234200D03*
X150780800Y-57278500D03*
X205218700Y-72762400D03*
X217350000Y-67008400D03*
X211450000Y-67008400D03*
X140182100Y-54746700D03*
X137150000Y-54746700D03*
X155854300Y-54754400D03*
X125100000Y-61918600D03*
X139569900Y-55859800D03*
X171150000Y-40421200D03*
X172719300Y-40421200D03*
X161061000Y-54554400D03*
X170136400Y-54554400D03*
X160684500Y-55859800D03*
X139378700Y-62431700D03*
X136355800Y-79321200D03*
X138270100Y-68800000D03*
X188150000Y-64706900D03*
X125100000Y-78940900D03*
X175974500Y-68686500D03*
X175974500Y-64727000D03*
X137600100Y-69529400D03*
X153486300Y-75962100D03*
X190003800Y-63310500D03*
X167294600Y-63015700D03*
X137600100Y-77791500D03*
X167294600Y-68444200D03*
X153997300Y-68260400D03*
X136324000Y-69296000D03*
X205450000Y-44475000D03*
X203469800Y-44475000D03*
X135695000Y-57551600D03*
X205450000Y-55475600D03*
X217350000Y-84007200D03*
X211057600Y-84007200D03*
X90950000Y-41747700D03*
X95121200Y-41747700D03*
X90946900Y-46767000D03*
X96400900Y-46767000D03*
X96350000Y-67472800D03*
X106450000Y-66100000D03*
X168481600Y-55419400D03*
X162192800Y-55419400D03*
X162192800Y-53913000D03*
X168481600Y-58237800D03*
X132504700Y-53911500D03*
X84378500Y-39787700D03*
X84378500Y-49860300D03*
X36083900Y-48900000D03*
X96679700Y-40573300D03*
X33150000Y-48850000D03*
X99342900Y-46739700D03*
X35750000Y-37750000D03*
X99486700Y-52662300D03*
X99486700Y-48900000D03*
X50150000Y-55624400D03*
X47718400Y-55624400D03*
X62350000Y-35158800D03*
X56559200Y-35053300D03*
X57161100Y-41478100D03*
X62350000Y-40427600D03*
X50450000Y-50315600D03*
X53808800Y-50315600D03*
X74851700Y-39878900D03*
X79350000Y-39724300D03*
X95788300Y-45241000D03*
X95788300Y-51440000D03*
X68654600Y-43390200D03*
X59214100Y-36584300D03*
X36229700Y-55905900D03*
X77310100Y-41996700D03*
X95181200Y-47536600D03*
X60600000Y-41573800D03*
X109931900Y-47536600D03*
X34168900Y-43022500D03*
X49550000Y-36100000D03*
X34798200Y-55905900D03*
X36229700Y-62885000D03*
X34168900Y-43022500D03*
X47750000Y-40640700D03*
X65397200Y-41573800D03*
X94225100Y-44558000D03*
X78893300Y-43806600D03*
X84424400Y-81368600D03*
X116031800Y-80779500D03*
X116031800Y-70146200D03*
X66300000Y-78395700D03*
X112067400Y-70146200D03*
X65317500Y-73397000D03*
X47718400Y-73397000D03*
X32050000Y-78150000D03*
X78226600Y-78587600D03*
X33600000Y-75500000D03*
X35829600Y-67472800D03*
X78226600Y-75178900D03*
X47773500Y-69006700D03*
X84411100Y-78587600D03*
X64781200Y-69693400D03*
X101407000Y-81431400D03*
X64781200Y-70733000D03*
X64781200Y-30780000D03*
X66366100Y-75178900D03*
X66300000Y-70733000D03*
X113612000Y-81431400D03*
X35829600Y-73400000D03*
X101407000Y-79259800D03*
X94446200Y-41145900D03*
X60570300Y-36897900D03*
X96985900Y-45184200D03*
X64151700Y-36950000D03*
X77323300Y-38009600D03*
X33150000Y-41650000D03*
X111300000Y-46011000D03*
X47750000Y-35114300D03*
X78518400Y-40966600D03*
X98155000Y-46423500D03*
X99170900Y-45716900D03*
X98927800Y-73083000D03*
X165611800Y-71325400D03*
X136965000Y-70434900D03*
X142045000Y-70434900D03*
X202281100Y-82146100D03*
X165611800Y-67198500D03*
X145790000Y-71325400D03*
X165896500Y-33940000D03*
X145790000Y-70434900D03*
X202281100Y-67480900D03*
X103791600Y-82283300D03*
X96350000Y-82283300D03*
X107090500Y-78645100D03*
X103791600Y-78645100D03*
X107850000Y-46754100D03*
X113350000Y-46754100D03*
X113350000Y-50350000D03*
X107876600Y-50350000D03*
X138870100Y-75400000D03*
X138870100Y-63820000D03*
X79509900Y-41568300D03*
X79509900Y-46738100D03*
X88775400Y-46738100D03*
X82453200Y-43760000D03*
X82453200Y-23271100D03*
X98216300Y-63564800D03*
X89649600Y-43760000D03*
X98216300Y-75400000D03*
X90067600Y-63564800D03*
X71580000Y-42788500D03*
X105942000Y-78015300D03*
X71580000Y-38273700D03*
X102461800Y-44258600D03*
X101519200Y-78255700D03*
X157082000Y-67379500D03*
X151274000Y-67474400D03*
X151274000Y-73397000D03*
X138235000Y-74619400D03*
X157634700Y-49831600D03*
X164627600Y-39845900D03*
X164627600Y-43825000D03*
X135045900Y-54113100D03*
X159960200Y-54691900D03*
X159960200Y-43825000D03*
X160028400Y-61382400D03*
X164606700Y-61382400D03*
X149364800Y-70540400D03*
X160028400Y-70540400D03*
X164606700Y-53075600D03*
X139505000Y-69747600D03*
X154599000Y-66250100D03*
X156576200Y-50814200D03*
X154599000Y-69832100D03*
X156331700Y-66250100D03*
X101300000Y-56743200D03*
X88191600Y-58586500D03*
X84822300Y-67220900D03*
X88191600Y-67220900D03*
X88191600Y-55357300D03*
X83608700Y-55455100D03*
D15*
X151261300Y-35233500D02*
X142250000Y-35233500D01*
X151976500Y-34518300D02*
X151261300Y-35233500D01*
X173580300Y-32780100D02*
X175689900Y-34889700D01*
X156000000Y-35878400D02*
X149128100Y-35878400D01*
X148526500Y-37796800D02*
X148496600Y-37826700D01*
X164921100Y-32812100D02*
X164953100Y-32780100D01*
X207794500Y-50250000D02*
X207826500Y-50282000D01*
X192126500Y-37851800D02*
X184922600Y-37851800D01*
X135388300Y-41285000D02*
X123256400Y-41285000D01*
X202239400Y-50250000D02*
X207794500Y-50250000D01*
X164953100Y-32780100D02*
X173580300Y-32780100D01*
X136148300Y-42045000D02*
X135388300Y-41285000D01*
X148496600Y-37826700D02*
X140047700Y-37826700D01*
X175689900Y-34889700D02*
X184922600Y-34889700D01*
X137300000Y-42045000D02*
X136148300Y-42045000D01*
X156251300Y-32812100D02*
X164921100Y-32812100D01*
X149128100Y-35878400D02*
X148526500Y-36480000D01*
X137300000Y-42045000D02*
X140047700Y-42045000D01*
X193753400Y-42985500D02*
X201689600Y-42985500D01*
X201689600Y-49700200D02*
X202239400Y-50250000D01*
X151976500Y-40667000D02*
X142250000Y-40667000D01*
X173996000Y-35297800D02*
X161061000Y-35297800D01*
X139045400Y-40025500D02*
X148526500Y-40025500D01*
X153090400Y-38267900D02*
X156000000Y-38267900D01*
X200512900Y-44400600D02*
X202850400Y-46738100D01*
X207826500Y-53359200D02*
X203602700Y-53359200D01*
X148526500Y-40025500D02*
X148531400Y-40020600D01*
X148531400Y-40020600D02*
X153090400Y-40020600D01*
X192218300Y-44400600D02*
X200512900Y-44400600D01*
X174026500Y-35328300D02*
X173996000Y-35297800D01*
X181588100Y-35328300D02*
X181764000Y-35504200D01*
X185182900Y-43776000D02*
X191008700Y-43776000D01*
X174026500Y-35328300D02*
X181588100Y-35328300D01*
X156000000Y-38267900D02*
X161061000Y-38267900D01*
X144288300Y-62519200D02*
X146853800Y-62519200D01*
X148338700Y-64680900D02*
X155671600Y-64680900D01*
X155671600Y-64680900D02*
X155976500Y-64985800D01*
X203408700Y-66840400D02*
X204148300Y-67580000D01*
X152769900Y-66851800D02*
X152526500Y-66608400D01*
X179837100Y-65350000D02*
X192599100Y-65350000D01*
X192599100Y-65350000D02*
X194089500Y-66840400D01*
X179668100Y-68317600D02*
X179408500Y-68058000D01*
X194089500Y-66840400D02*
X203408700Y-66840400D01*
X167852700Y-68151400D02*
X167543800Y-67842500D01*
X156580900Y-66851800D02*
X152769900Y-66851800D01*
X167543800Y-67842500D02*
X162028600Y-67842500D01*
X160794500Y-66608400D02*
X156824300Y-66608400D01*
X179408500Y-68058000D02*
X168028700Y-68058000D01*
X204148300Y-67580000D02*
X205300000Y-67580000D01*
X137300000Y-47125000D02*
X142482800Y-52307800D01*
X179815900Y-65328800D02*
X179837100Y-65350000D01*
X208000000Y-67508500D02*
X207928500Y-67580000D01*
X148998300Y-66608400D02*
X152526500Y-66608400D01*
X142482800Y-52307800D02*
X149695500Y-52307800D01*
X168028700Y-68058000D02*
X167935300Y-68151400D01*
X162028600Y-67842500D02*
X160794500Y-66608400D01*
X167935300Y-68151400D02*
X167852700Y-68151400D01*
X207928500Y-67580000D02*
X205300000Y-67580000D01*
X156824300Y-66608400D02*
X156580900Y-66851800D01*
X169409000Y-53711700D02*
X163302400Y-53711700D01*
X162902000Y-53311300D02*
X161154500Y-53311300D01*
X163302400Y-53711700D02*
X162902000Y-53311300D01*
X137580100Y-56480100D02*
X146147500Y-56480100D01*
X176765500Y-57636100D02*
X169409000Y-57636100D01*
X201714900Y-60717100D02*
X183647000Y-60717100D01*
X208000000Y-70120000D02*
X205300000Y-70120000D01*
X137300000Y-56200000D02*
X133796000Y-56200000D01*
X156988800Y-53511300D02*
X156387000Y-52909500D01*
X160954500Y-53511300D02*
X156988800Y-53511300D01*
X176967200Y-57434400D02*
X176765500Y-57636100D01*
X182112300Y-57434400D02*
X176967200Y-57434400D01*
X137300000Y-56200000D02*
X137580100Y-56480100D01*
X156387000Y-52909500D02*
X146147500Y-52909500D01*
X161154500Y-53311300D02*
X160954500Y-53511300D01*
X131526500Y-58586500D02*
X122026500Y-58586500D01*
X205300000Y-70120000D02*
X203698700Y-70120000D01*
X133845900Y-75839000D02*
X125158100Y-75839000D01*
X176250000Y-63923600D02*
X176455300Y-64128900D01*
X176455300Y-64128900D02*
X182125400Y-64128900D01*
X182125400Y-64128900D02*
X182150000Y-64104300D01*
X200836500Y-40813900D02*
X196686500Y-40813900D01*
X196802600Y-43776000D02*
X202291300Y-43776000D01*
X181270100Y-68070700D02*
X188436200Y-68070700D01*
X188436200Y-68070700D02*
X189984000Y-69618500D01*
X180993500Y-68347300D02*
X181270100Y-68070700D01*
X189984000Y-69618500D02*
X193250100Y-69618500D01*
X193250100Y-69618500D02*
X194705600Y-68163000D01*
X194705600Y-68163000D02*
X198307300Y-68163000D01*
X139733300Y-82283300D02*
X135673600Y-82283300D01*
X143600000Y-86150000D02*
X139733300Y-82283300D01*
X135673600Y-82283300D02*
X135166500Y-81776200D01*
X212381500Y-49198600D02*
X217350000Y-49198600D01*
X211276500Y-50478100D02*
X217350000Y-50478100D01*
X177450000Y-58287800D02*
X181227900Y-58287800D01*
X173904100Y-55624400D02*
X172907300Y-55624400D01*
X172907300Y-55624400D02*
X172451700Y-56080000D01*
X171300000Y-56080000D02*
X172451700Y-56080000D01*
X176535100Y-59202700D02*
X177450000Y-58287800D01*
X182970400Y-60030300D02*
X194045000Y-60030300D01*
X181227900Y-58287800D02*
X182970400Y-60030300D01*
X173904100Y-59202700D02*
X176535100Y-59202700D01*
X199046700Y-74051700D02*
X199046700Y-73143100D01*
X143357200Y-63164400D02*
X141472800Y-61280000D01*
X173836800Y-63617500D02*
X176172600Y-65953300D01*
X148524800Y-61548600D02*
X148524800Y-61773800D01*
X148524800Y-61773800D02*
X147134200Y-63164400D01*
X191576600Y-71931300D02*
X188345900Y-68700600D01*
X165216300Y-62242800D02*
X166591000Y-63617500D01*
X141472800Y-61280000D02*
X137300000Y-61280000D01*
X188345900Y-68700600D02*
X184922600Y-68700600D01*
X199046700Y-73143100D02*
X197834900Y-71931300D01*
X147134200Y-63164400D02*
X143357200Y-63164400D01*
X176172600Y-65953300D02*
X184922600Y-65953300D01*
X166591000Y-63617500D02*
X173836800Y-63617500D01*
X149069000Y-60575000D02*
X165216300Y-60575000D01*
X197834900Y-71931300D02*
X191576600Y-71931300D01*
X191287400Y-46872100D02*
X166677300Y-46872100D01*
X199700000Y-92280000D02*
X201470000Y-92280000D01*
X161103700Y-44381100D02*
X161033600Y-44451200D01*
X137300000Y-39505000D02*
X137300000Y-39654700D01*
X139062500Y-41417200D02*
X159669100Y-41417200D01*
X166677300Y-46872100D02*
X164186300Y-44381100D01*
X137300000Y-39654700D02*
X139062500Y-41417200D01*
X194855800Y-54848900D02*
X197889200Y-54848900D01*
X164186300Y-44381100D02*
X161103700Y-44381100D01*
X201470000Y-92280000D02*
X202894200Y-90855800D01*
X202894200Y-90855800D02*
X202894200Y-90726800D01*
X159669100Y-41417200D02*
X161261900Y-43010000D01*
X200054800Y-62644500D02*
X201857900Y-62644500D01*
D16*
X199700000Y-84660000D02*
X209435000Y-84660000D01*
X211690300Y-75144400D02*
X210424900Y-73879000D01*
X140708800Y-73898100D02*
X133155000Y-73898100D01*
X147720000Y-63696300D02*
X147848100Y-63568200D01*
X172526700Y-36727300D02*
X172526700Y-36480000D01*
X169205400Y-37347900D02*
X170073300Y-36480000D01*
X204417800Y-63813300D02*
X203264100Y-62659600D01*
X171300000Y-36480000D02*
X172526700Y-36480000D01*
X209435000Y-84660000D02*
X211690300Y-82404700D01*
X202773200Y-57619100D02*
X193870700Y-57619100D01*
X149874000Y-37347900D02*
X169205400Y-37347900D01*
X142872800Y-63696300D02*
X147720000Y-63696300D01*
X171034300Y-36480000D02*
X170073300Y-36480000D01*
X140775000Y-73964300D02*
X140708800Y-73898100D01*
X140775000Y-73964300D02*
X141932700Y-73964300D01*
X209223800Y-63813300D02*
X204417800Y-63813300D01*
X173352000Y-37552600D02*
X172526700Y-36727300D01*
X193870700Y-54759500D02*
X183626500Y-54759500D01*
X181205000Y-40533300D02*
X173751200Y-40533300D01*
X171034300Y-36480000D02*
X171300000Y-36480000D01*
D15*
X158953300Y-52307300D02*
X158452300Y-51806300D01*
X158452300Y-51806300D02*
X150780800Y-51806300D01*
X181413700Y-52307300D02*
X158953300Y-52307300D01*
X192400400Y-53234200D02*
X182340600Y-53234200D01*
X150780800Y-57278500D02*
X139080300Y-57278500D01*
X199700000Y-89740000D02*
X201657400Y-89740000D01*
X192400400Y-61357000D02*
X200961000Y-61357000D01*
X204054400Y-65937800D02*
X201256200Y-65937800D01*
X182340600Y-53234200D02*
X181413700Y-52307300D01*
X205218700Y-72762400D02*
X201657400Y-72762400D01*
X211450000Y-67008400D02*
X217350000Y-67008400D01*
X137150000Y-54746700D02*
X140182100Y-54746700D01*
X155854300Y-54754400D02*
X155846600Y-54746700D01*
X155846600Y-54746700D02*
X140182100Y-54746700D01*
X125613100Y-62431700D02*
X139378700Y-62431700D01*
X125100000Y-61918600D02*
X125613100Y-62431700D01*
X139569900Y-55859800D02*
X160684500Y-55859800D01*
X171150000Y-40421200D02*
X172719300Y-40421200D01*
X161061000Y-54554400D02*
X170136400Y-54554400D01*
X167045500Y-69045900D02*
X167543800Y-69045900D01*
X141367000Y-69206700D02*
X156452100Y-69206700D01*
X125100000Y-78940900D02*
X125480300Y-79321200D01*
X140317900Y-68800000D02*
X140724600Y-69206700D01*
X166691600Y-68692000D02*
X167045500Y-69045900D01*
X167903100Y-68686500D02*
X175974500Y-68686500D01*
X175974500Y-64727000D02*
X175994600Y-64706900D01*
X138270100Y-68800000D02*
X140317900Y-68800000D01*
X125480300Y-79321200D02*
X136355800Y-79321200D01*
X156452100Y-69206700D02*
X156966800Y-68692000D01*
X175994600Y-64706900D02*
X188150000Y-64706900D01*
X167903100Y-68686600D02*
X167903100Y-68686500D01*
X167543800Y-69045900D02*
X167903100Y-68686600D01*
X140724600Y-69206700D02*
X141367000Y-69206700D01*
X156966800Y-68692000D02*
X166691600Y-68692000D01*
X178495000Y-63723500D02*
X177787200Y-63015700D01*
X190003800Y-63310500D02*
X181793800Y-63310500D01*
X167110800Y-68260400D02*
X153997300Y-68260400D01*
X137600100Y-69529400D02*
X137366700Y-69296000D01*
X177787200Y-63015700D02*
X167294600Y-63015700D01*
X137366700Y-69296000D02*
X136324000Y-69296000D01*
X167294600Y-68444200D02*
X167110800Y-68260400D01*
X149208500Y-77791500D02*
X137600100Y-77791500D01*
X153486300Y-75962100D02*
X151037900Y-75962100D01*
X151037900Y-75962100D02*
X149208500Y-77791500D01*
X181793800Y-63310500D02*
X181380800Y-63723500D01*
X181380800Y-63723500D02*
X178495000Y-63723500D01*
X176600300Y-57233300D02*
X176800900Y-57032700D01*
X157377400Y-57112100D02*
X157377400Y-57112000D01*
X157377400Y-57112000D02*
X160640400Y-57112000D01*
X138831200Y-57880200D02*
X151190800Y-57880200D01*
X153112300Y-59801700D02*
X154687800Y-59801700D01*
X151190800Y-57880200D02*
X153112300Y-59801700D01*
X169857100Y-57233300D02*
X176600300Y-57233300D01*
X176800900Y-57032700D02*
X181107800Y-57032700D01*
X203469800Y-44475000D02*
X205450000Y-44475000D01*
X168979900Y-56356100D02*
X169857100Y-57233300D01*
X181107800Y-57032700D02*
X182664900Y-55475600D01*
X160640400Y-57112000D02*
X161396300Y-56356100D01*
X135695000Y-57551600D02*
X138502600Y-57551600D01*
X182664900Y-55475600D02*
X205450000Y-55475600D01*
X161396300Y-56356100D02*
X168979900Y-56356100D01*
X154687800Y-59801700D02*
X157377400Y-57112100D01*
X138502600Y-57551600D02*
X138831200Y-57880200D01*
X211057600Y-84007200D02*
X217350000Y-84007200D01*
X90950000Y-41747700D02*
X95121200Y-41747700D01*
X96400900Y-46767000D02*
X90946900Y-46767000D01*
X96350000Y-67472800D02*
X105077200Y-67472800D01*
X105077200Y-67472800D02*
X106450000Y-66100000D01*
X183136300Y-59366100D02*
X181606300Y-57836100D01*
X132904900Y-53511300D02*
X132504700Y-53911500D01*
X162192800Y-55419400D02*
X168481600Y-55419400D01*
X156822500Y-53913000D02*
X156420800Y-53511300D01*
X177133500Y-57836100D02*
X176731800Y-58237800D01*
X176731800Y-58237800D02*
X168481600Y-58237800D01*
X181606300Y-57836100D02*
X177133500Y-57836100D01*
X162192800Y-53913000D02*
X156822500Y-53913000D01*
X202166100Y-59366100D02*
X183136300Y-59366100D01*
X156420800Y-53511300D02*
X132904900Y-53511300D01*
X205300000Y-62500000D02*
X202166100Y-59366100D01*
X88636800Y-40142400D02*
X88282100Y-39787700D01*
X101315000Y-38925000D02*
X95048100Y-38925000D01*
X88282100Y-39787700D02*
X84378500Y-39787700D01*
X76487700Y-49860300D02*
X84378500Y-49860300D01*
X73685700Y-52662300D02*
X42685800Y-52662300D01*
X37543100Y-57805000D02*
X33315000Y-57805000D01*
X42685800Y-52662300D02*
X37543100Y-57805000D01*
X95048100Y-38925000D02*
X93830700Y-40142400D01*
X93830700Y-40142400D02*
X88636800Y-40142400D01*
X73685700Y-52662300D02*
X76487700Y-49860300D01*
X44261800Y-39575000D02*
X71385500Y-39575000D01*
X101300000Y-46360000D02*
X100920300Y-46739700D01*
X84674600Y-40342500D02*
X88068700Y-40342500D01*
X84129400Y-40389400D02*
X84627700Y-40389400D01*
X72312800Y-40502300D02*
X77806000Y-40502300D01*
X88470400Y-40744200D02*
X93996700Y-40744200D01*
X71385500Y-39575000D02*
X72312800Y-40502300D01*
X84082500Y-40342500D02*
X84129400Y-40389400D01*
X84627700Y-40389400D02*
X84674600Y-40342500D01*
X93996700Y-40744200D02*
X94225300Y-40515600D01*
X33200000Y-48900000D02*
X33150000Y-48850000D01*
X77806000Y-40502300D02*
X77965800Y-40342500D01*
X36083900Y-48900000D02*
X33200000Y-48900000D01*
X88068700Y-40342500D02*
X88470400Y-40744200D01*
X96622000Y-40515600D02*
X96679700Y-40573300D01*
X100920300Y-46739700D02*
X99342900Y-46739700D01*
X77965800Y-40342500D02*
X84082500Y-40342500D01*
X35750000Y-37750000D02*
X42436800Y-37750000D01*
X42436800Y-37750000D02*
X44261800Y-39575000D01*
X94225300Y-40515600D02*
X96622000Y-40515600D01*
X100148300Y-48900000D02*
X99486700Y-48900000D01*
X91737500Y-52662300D02*
X99486700Y-52662300D01*
X88143700Y-56256100D02*
X91737500Y-52662300D01*
X101300000Y-48900000D02*
X100148300Y-48900000D01*
X50781700Y-56256100D02*
X88143700Y-56256100D01*
X47718400Y-55624400D02*
X50150000Y-55624400D01*
X50150000Y-55624400D02*
X50781700Y-56256100D01*
X62244500Y-35053300D02*
X62350000Y-35158800D01*
X56559200Y-35053300D02*
X62244500Y-35053300D01*
X57161100Y-41478100D02*
X58211600Y-40427600D01*
X58211600Y-40427600D02*
X62350000Y-40427600D01*
X67300000Y-45925000D02*
X66485600Y-46739400D01*
X66485600Y-46739400D02*
X57385000Y-46739400D01*
X53808800Y-50315600D02*
X50450000Y-50315600D01*
X57385000Y-46739400D02*
X53808800Y-50315600D01*
X74851700Y-39878900D02*
X79195400Y-39878900D01*
X79195400Y-39878900D02*
X79350000Y-39724300D01*
X79343000Y-45241000D02*
X77492200Y-43390200D01*
X101300000Y-51440000D02*
X95788300Y-51440000D01*
X77492200Y-43390200D02*
X68654600Y-43390200D01*
X95788300Y-45241000D02*
X79343000Y-45241000D01*
X50034300Y-36584300D02*
X59214100Y-36584300D01*
X94225100Y-44558000D02*
X79644700Y-44558000D01*
X79644700Y-44558000D02*
X78893300Y-43806600D01*
X60600000Y-41573800D02*
X65397200Y-41573800D01*
X34168900Y-43022500D02*
X34168900Y-42844300D01*
X39537100Y-40331600D02*
X40487300Y-39381400D01*
X34168900Y-42844300D02*
X36681600Y-40331600D01*
X44559300Y-40640700D02*
X47750000Y-40640700D01*
X65820100Y-41996700D02*
X65397200Y-41573800D01*
X43300000Y-39381400D02*
X44559300Y-40640700D01*
X77310100Y-41996700D02*
X65820100Y-41996700D01*
X40487300Y-39381400D02*
X43300000Y-39381400D01*
X109931900Y-47536600D02*
X95181200Y-47536600D01*
X49550000Y-36100000D02*
X50034300Y-36584300D01*
X33315000Y-62885000D02*
X34466700Y-62885000D01*
X36681600Y-40331600D02*
X39537100Y-40331600D01*
X34798200Y-55905900D02*
X36229700Y-55905900D01*
X34466700Y-62885000D02*
X36229700Y-62885000D01*
X33375000Y-76825000D02*
X35999000Y-76825000D01*
X79924800Y-81368600D02*
X76951900Y-78395700D01*
X76951900Y-78395700D02*
X66300000Y-78395700D01*
X39427000Y-73397000D02*
X47718400Y-73397000D01*
X35999000Y-76825000D02*
X39427000Y-73397000D01*
X85013500Y-80779500D02*
X116031800Y-80779500D01*
X112067400Y-70146200D02*
X116031800Y-70146200D01*
X47718400Y-73397000D02*
X65317500Y-73397000D01*
X84424400Y-81368600D02*
X85013500Y-80779500D01*
X32050000Y-78150000D02*
X33375000Y-76825000D01*
X84424400Y-81368600D02*
X79924800Y-81368600D01*
X35829600Y-73400000D02*
X35700000Y-73400000D01*
X47773500Y-69006700D02*
X37363500Y-69006700D01*
X37363500Y-69006700D02*
X35829600Y-67472800D01*
X66300000Y-70733000D02*
X64781200Y-70733000D01*
X67300000Y-30780000D02*
X64781200Y-30780000D01*
X64781200Y-69693400D02*
X48460200Y-69693400D01*
X48460200Y-69693400D02*
X47773500Y-69006700D01*
X113612000Y-81431400D02*
X101407000Y-81431400D01*
X78226600Y-75178900D02*
X66366100Y-75178900D01*
X35700000Y-73400000D02*
X33600000Y-75500000D01*
X85083300Y-79259800D02*
X101407000Y-79259800D01*
X78226600Y-78587600D02*
X84411100Y-78587600D01*
X84411100Y-78587600D02*
X85083300Y-79259800D01*
X97054900Y-45115200D02*
X96985900Y-45184200D01*
X102040700Y-45115200D02*
X97054900Y-45115200D01*
X64151700Y-36950000D02*
X64101700Y-36900000D01*
X88304100Y-41145900D02*
X94446200Y-41145900D01*
X78739700Y-40745300D02*
X83917300Y-40745300D01*
X102936500Y-46011000D02*
X102040700Y-45115200D01*
X60570300Y-36897900D02*
X60282900Y-37185300D01*
X49301057Y-36701000D02*
X48949000Y-36348943D01*
X36551057Y-35049000D02*
X47684700Y-35049000D01*
X47684700Y-35049000D02*
X47750000Y-35114300D01*
X64241000Y-37114600D02*
X74314600Y-37114600D01*
X111300000Y-46011000D02*
X102936500Y-46011000D01*
X87903500Y-40745300D02*
X88304100Y-41145900D01*
X64151700Y-37025300D02*
X64241000Y-37114600D01*
X64101700Y-36900000D02*
X60572400Y-36900000D01*
X83917300Y-40745300D02*
X83963100Y-40791100D01*
X49868200Y-36985300D02*
X49621000Y-36985300D01*
X48949000Y-36348943D02*
X48949000Y-36313300D01*
X75209600Y-38009600D02*
X77323300Y-38009600D01*
X64151700Y-36950000D02*
X64151700Y-37025300D01*
X60282900Y-37185300D02*
X50068200Y-37185300D01*
X84794000Y-40791100D02*
X84839800Y-40745300D01*
X49336700Y-36701000D02*
X49301057Y-36701000D01*
X49621000Y-36985300D02*
X49336700Y-36701000D01*
X33150000Y-38450057D02*
X36551057Y-35049000D01*
X83963100Y-40791100D02*
X84794000Y-40791100D01*
X74314600Y-37114600D02*
X75209600Y-38009600D01*
X78518400Y-40966600D02*
X78739700Y-40745300D01*
X60572400Y-36900000D02*
X60570300Y-36897900D01*
X50068200Y-37185300D02*
X49868200Y-36985300D01*
X33150000Y-41650000D02*
X33150000Y-38450057D01*
X48949000Y-36313300D02*
X47750000Y-35114300D01*
X84839800Y-40745300D02*
X87903500Y-40745300D01*
D16*
X95117000Y-73083000D02*
X98927800Y-73083000D01*
X99083000Y-45717000D02*
X99170900Y-45717000D01*
X99170900Y-45717000D02*
X99170900Y-45716900D01*
X98155000Y-46423500D02*
X98376500Y-46423500D01*
X98376500Y-46423500D02*
X99083000Y-45717000D01*
X92800000Y-75400000D02*
X95117000Y-73083000D01*
X199700000Y-82120000D02*
X200926700Y-82120000D01*
X188187500Y-67565800D02*
X167941200Y-67565800D01*
X200952800Y-82146100D02*
X202281100Y-82146100D01*
X200926700Y-82120000D02*
X200952800Y-82146100D01*
X189887002Y-65866298D02*
X188187500Y-67565800D01*
X145790000Y-71325400D02*
X165611800Y-71325400D01*
X136965000Y-70434900D02*
X142045000Y-70434900D01*
X194056834Y-67480900D02*
X192442232Y-65866298D01*
X202281100Y-67480900D02*
X194056834Y-67480900D01*
X167573900Y-67198500D02*
X165611800Y-67198500D01*
X142045000Y-70434900D02*
X145790000Y-70434900D01*
X167941200Y-67565800D02*
X167573900Y-67198500D01*
X192442232Y-65866298D02*
X189887002Y-65866298D01*
X171300000Y-33940000D02*
X165896500Y-33940000D01*
D15*
X103791600Y-78645100D02*
X107090500Y-78645100D01*
X96350000Y-82283300D02*
X103791600Y-82283300D01*
X113350000Y-46754100D02*
X107850000Y-46754100D01*
X113350000Y-50350000D02*
X107876600Y-50350000D01*
X138451700Y-63820000D02*
X138870100Y-63820000D01*
X143290000Y-75400000D02*
X138870100Y-75400000D01*
X137300000Y-63820000D02*
X138451700Y-63820000D01*
X78061000Y-41360000D02*
X78269300Y-41568300D01*
X68451700Y-40845000D02*
X68966700Y-41360000D01*
X67300000Y-40845000D02*
X68451700Y-40845000D01*
X68966700Y-41360000D02*
X78061000Y-41360000D01*
X88775400Y-46738100D02*
X79509900Y-46738100D01*
X78269300Y-41568300D02*
X79509900Y-41568300D01*
X82453200Y-43760000D02*
X89649600Y-43760000D01*
X98216300Y-75400000D02*
X95300000Y-75400000D01*
X67300000Y-23160000D02*
X67411100Y-23271100D01*
X67411100Y-23271100D02*
X82453200Y-23271100D01*
X90067600Y-63564800D02*
X98216300Y-63564800D01*
X67331300Y-38273700D02*
X67300000Y-38305000D01*
X100991700Y-42788500D02*
X102461800Y-44258600D01*
X71580000Y-42788500D02*
X100991700Y-42788500D01*
X105942000Y-78015300D02*
X101759600Y-78015300D01*
X101759600Y-78015300D02*
X101519200Y-78255700D01*
X71580000Y-38273700D02*
X67331300Y-38273700D01*
X157082000Y-67379500D02*
X156987100Y-67474400D01*
X169928400Y-49831600D02*
X157634700Y-49831600D01*
X156987100Y-67474400D02*
X151274000Y-67474400D01*
X171300000Y-48460000D02*
X169928400Y-49831600D01*
X138235000Y-74619400D02*
X142179100Y-74619400D01*
X142179100Y-74619400D02*
X143401500Y-73397000D01*
X143401500Y-73397000D02*
X151274000Y-73397000D01*
X169322400Y-39845900D02*
X164627600Y-39845900D01*
X135045900Y-54113100D02*
X156254400Y-54113100D01*
X164627600Y-43825000D02*
X159960200Y-43825000D01*
X156833200Y-54691900D02*
X159960200Y-54691900D01*
X171300000Y-39020000D02*
X170148300Y-39020000D01*
X156254400Y-54113100D02*
X156833200Y-54691900D01*
X170148300Y-39020000D02*
X169322400Y-39845900D01*
X160028400Y-61382400D02*
X164606700Y-61382400D01*
X169683900Y-53075600D02*
X164606700Y-53075600D01*
X170148300Y-53540000D02*
X169683900Y-53075600D01*
X171300000Y-53540000D02*
X170148300Y-53540000D01*
X160028400Y-70540400D02*
X149364800Y-70540400D01*
X171300000Y-51000000D02*
X170148300Y-51000000D01*
X170148300Y-51000000D02*
X156762000Y-51000000D01*
X139589500Y-69832100D02*
X154599000Y-69832100D01*
X156762000Y-51000000D02*
X156576200Y-50814200D01*
X156331700Y-66250100D02*
X154599000Y-66250100D01*
X139505000Y-69747600D02*
X139589500Y-69832100D01*
X99456700Y-58586500D02*
X101300000Y-56743200D01*
X83706500Y-55357300D02*
X83608700Y-55455100D01*
X84822300Y-67220900D02*
X88191600Y-67220900D01*
X88191600Y-55357300D02*
X83706500Y-55357300D01*
X88191600Y-58586500D02*
X99456700Y-58586500D01*
M02*
