G04 #@! TF.GenerationSoftware,KiCad,Pcbnew,9.0.0*
G04 #@! TF.CreationDate,2025-03-30T21:58:58+09:00*
G04 #@! TF.ProjectId,nofy,6e6f6679-2e6b-4696-9361-645f70636258,rev?*
G04 #@! TF.SameCoordinates,Original*
G04 #@! TF.FileFunction,Soldermask,Top*
G04 #@! TF.FilePolarity,Negative*
%FSLAX46Y46*%
G04 Gerber Fmt 4.6, Leading zero omitted, Abs format (unit mm)*
G04 Created by KiCad (PCBNEW 9.0.0) date 2025-03-30 21:58:58*
%MOMM*%
%LPD*%
G01*
G04 APERTURE LIST*
%ADD10C,3.000000*%
%ADD11C,4.800000*%
%ADD12C,1.000000*%
%ADD13C,1.700000*%
%ADD14O,1.700000X1.700000*%
%ADD15C,2.200000*%
%ADD16R,1.700000X1.700000*%
%ADD17C,2.000000*%
%ADD18C,0.600000*%
G04 APERTURE END LIST*
D10*
X46873500Y-25333000D03*
D11*
X41873500Y-29033000D03*
D10*
X41873500Y-23133000D03*
X21173500Y-63833000D03*
D11*
X24873500Y-68833000D03*
D10*
X18973500Y-68833000D03*
D12*
X30423500Y-73833000D03*
D10*
X87873500Y-64333000D03*
D11*
X92873500Y-60633000D03*
D10*
X92873500Y-66533000D03*
D12*
X97873500Y-55083000D03*
D10*
X36873500Y-83733000D03*
D11*
X41873500Y-80033000D03*
D10*
X41873500Y-85933000D03*
D12*
X46873500Y-74483000D03*
D13*
X101373500Y-59033000D03*
D14*
X101373500Y-61573000D03*
X101373500Y-64113000D03*
X101373500Y-66653000D03*
D15*
X49973500Y-54533000D03*
D10*
X87873500Y-30358000D03*
D11*
X92873500Y-26658000D03*
D10*
X92873500Y-32558000D03*
D12*
X97873500Y-21108000D03*
D13*
X67373500Y-27933000D03*
D14*
X67373500Y-30473000D03*
X67373500Y-33013000D03*
X67373500Y-35553000D03*
D15*
X101473500Y-77333000D03*
D10*
X104873500Y-38533000D03*
D11*
X109873500Y-34833000D03*
D10*
X109873500Y-40733000D03*
D12*
X114873500Y-29283000D03*
D10*
X80873500Y-53833000D03*
D11*
X75873500Y-57533000D03*
D10*
X75873500Y-51633000D03*
D12*
X70873500Y-63083000D03*
D13*
X33373500Y-36038000D03*
D14*
X33373500Y-38578000D03*
X33373500Y-41118000D03*
X33373500Y-43658000D03*
D10*
X21173500Y-80833000D03*
D11*
X24873500Y-85833000D03*
D10*
X18973500Y-85833000D03*
D12*
X30423500Y-90833000D03*
D10*
X104873500Y-72533000D03*
D11*
X109873500Y-68833000D03*
D10*
X109873500Y-74733000D03*
D12*
X114873500Y-63283000D03*
D10*
X104873500Y-89533000D03*
D11*
X109873500Y-85833000D03*
D10*
X109873500Y-91733000D03*
D12*
X114873500Y-80283000D03*
D10*
X29873500Y-31133000D03*
D11*
X24873500Y-34833000D03*
D10*
X24873500Y-28933000D03*
D12*
X19873500Y-40383000D03*
D10*
X46873500Y-59333000D03*
D11*
X41873500Y-63033000D03*
D10*
X41873500Y-57133000D03*
D13*
X33373500Y-52733000D03*
D14*
X33373500Y-55273000D03*
X33373500Y-57813000D03*
X33373500Y-60353000D03*
D10*
X63873500Y-56933000D03*
D11*
X58873500Y-60633000D03*
D10*
X58873500Y-54733000D03*
D12*
X53873500Y-66183000D03*
D10*
X80873500Y-36833000D03*
D11*
X75873500Y-40533000D03*
D10*
X75873500Y-34633000D03*
D12*
X70873500Y-46083000D03*
D16*
X95773500Y-73573000D03*
D14*
X95773500Y-76113000D03*
X95773500Y-78653000D03*
X95773500Y-81193000D03*
X95773500Y-83733000D03*
X95773500Y-86273000D03*
X95773500Y-88813000D03*
D13*
X67373500Y-44993000D03*
D14*
X67373500Y-47533000D03*
X67373500Y-50073000D03*
X67373500Y-52613000D03*
D10*
X63873500Y-22933000D03*
D11*
X58873500Y-26633000D03*
D10*
X58873500Y-20733000D03*
D12*
X53873500Y-32183000D03*
D10*
X63873500Y-39933000D03*
D11*
X58873500Y-43633000D03*
D10*
X58873500Y-37733000D03*
D12*
X53873500Y-49183000D03*
D10*
X80873500Y-19833000D03*
D11*
X75873500Y-23533000D03*
D10*
X75873500Y-17633000D03*
D12*
X70873500Y-29083000D03*
D10*
X29873500Y-48133000D03*
D11*
X24873500Y-51833000D03*
D10*
X24873500Y-45933000D03*
D12*
X19873500Y-57383000D03*
D15*
X101873500Y-43333000D03*
D10*
X46873500Y-42333000D03*
D11*
X41873500Y-46033000D03*
D10*
X41873500Y-40133000D03*
X104873500Y-55533000D03*
D11*
X109873500Y-51833000D03*
D10*
X109873500Y-57733000D03*
D12*
X114873500Y-46283000D03*
D10*
X87873500Y-47358000D03*
D11*
X92873500Y-43658000D03*
D10*
X92873500Y-49558000D03*
D12*
X97873500Y-38108000D03*
D17*
X39363500Y-71933000D03*
X44363500Y-71933000D03*
X41863500Y-71933000D03*
D18*
X44600000Y-33013000D03*
X80996100Y-34384800D03*
X36121200Y-38578000D03*
X97763100Y-46233200D03*
X69653800Y-29313100D03*
X80996100Y-31422700D03*
X97763100Y-39518500D03*
X88200000Y-34384800D03*
X44600000Y-34329800D03*
X52073500Y-32411400D03*
X103900000Y-46815000D03*
X36121200Y-34359700D03*
X52324800Y-29345100D03*
X19329900Y-37818000D03*
X89826900Y-39518500D03*
X48050000Y-37200000D03*
X38323500Y-37200000D03*
X77837500Y-32037200D03*
X49163900Y-36553600D03*
X49163900Y-34800900D03*
X57134500Y-34800900D03*
X88291800Y-40933600D03*
X87082200Y-40309000D03*
X35118900Y-36558500D03*
X98923900Y-43271100D03*
X44600000Y-36558500D03*
X103900000Y-49892200D03*
X70100000Y-31861300D03*
X52073500Y-34800900D03*
X57134500Y-31830800D03*
X81256400Y-40309000D03*
X99676200Y-49892200D03*
X42927300Y-59052200D03*
X40361800Y-59052200D03*
X44412200Y-61213900D03*
X52050000Y-61518800D03*
X73300000Y-64773800D03*
X48600000Y-63141400D03*
X104073500Y-64041500D03*
X45769000Y-48840800D03*
X45071800Y-63141400D03*
X75889400Y-61861800D03*
X42221000Y-49442500D03*
X78185800Y-53967400D03*
X27600000Y-55119500D03*
X18100000Y-55119500D03*
X97788400Y-57250100D03*
X65482500Y-50244700D03*
X29869500Y-52733000D03*
X65482500Y-54169100D03*
X99772200Y-66653000D03*
X42221000Y-53013100D03*
X79720500Y-57250100D03*
X104073500Y-66653000D03*
X21559600Y-72700000D03*
X31050000Y-72700000D03*
X78223500Y-60637300D03*
X72319452Y-60507459D03*
X98364800Y-40309000D03*
X92876100Y-40309000D03*
X79500000Y-64773800D03*
X94380800Y-64696000D03*
X34300000Y-79300000D03*
X32700000Y-79300000D03*
X69977600Y-52700000D03*
X69977600Y-55735700D03*
X90118500Y-56563300D03*
X80996100Y-62486300D03*
X80996100Y-65233600D03*
X44598300Y-58081600D03*
X61289800Y-58775800D03*
X61289800Y-57108000D03*
X45142500Y-57108000D03*
X95120200Y-70584700D03*
X96128300Y-59177500D03*
X57107100Y-40984200D03*
X87360900Y-43405100D03*
X93962700Y-51381900D03*
X90929300Y-51381900D03*
X98967700Y-87259800D03*
X97931400Y-59177500D03*
X57335400Y-39543000D03*
X36848500Y-70497300D03*
X38006200Y-70497300D03*
X45947500Y-33880900D03*
X43921600Y-60101200D03*
X99337600Y-59192600D03*
X38946300Y-60229300D03*
X105297300Y-60346300D03*
X77278500Y-37066300D03*
X107763800Y-71677400D03*
X106498400Y-70412000D03*
X89944200Y-54152100D03*
X69824700Y-37066300D03*
X89944200Y-51292500D03*
X107763800Y-78937700D03*
X98846700Y-54152100D03*
X79700000Y-51292500D03*
X29228500Y-70431100D03*
X69425500Y-34085600D03*
X46854300Y-48339300D03*
X88473900Y-57890000D03*
X100127900Y-62470800D03*
X97329700Y-62470800D03*
X35153800Y-53811500D03*
X97034500Y-57890000D03*
X97730900Y-69295400D03*
X97730900Y-86273000D03*
X88473900Y-49767200D03*
X46854300Y-53811500D03*
X101292200Y-69295400D03*
X36255600Y-51279700D03*
X33223500Y-51279700D03*
X51927800Y-51287400D03*
X26650000Y-58964700D03*
X35643400Y-52392800D03*
X67223500Y-36954200D03*
X68792800Y-36954200D03*
X57134500Y-51087400D03*
X66209900Y-51087400D03*
X56758000Y-52392800D03*
X35452200Y-58964700D03*
X32429300Y-75854200D03*
X34343600Y-65333000D03*
X84223500Y-61239900D03*
X26400000Y-77500000D03*
X72048000Y-65219500D03*
X72048000Y-61260000D03*
X33673600Y-66062400D03*
X49559800Y-72495100D03*
X86077300Y-59843500D03*
X63368100Y-59548700D03*
X33673600Y-74324500D03*
X63368100Y-64977200D03*
X50070800Y-64793400D03*
X32382755Y-64942122D03*
X31768500Y-54084600D03*
X101523500Y-52008600D03*
X113423500Y-80540200D03*
X107131100Y-80540200D03*
X64555100Y-51952400D03*
X58266300Y-51952400D03*
X58266300Y-50446000D03*
X64555100Y-54770800D03*
X28050000Y-50100000D03*
X61685300Y-67858400D03*
X33038500Y-66967900D03*
X38118500Y-66967900D03*
X98354600Y-78679100D03*
X61685300Y-63731500D03*
X41863500Y-67858400D03*
X61970000Y-30473000D03*
X41863500Y-66967900D03*
X98354600Y-64013900D03*
X34943600Y-71933000D03*
X34943600Y-60353000D03*
X53155500Y-63912500D03*
X47347500Y-64007400D03*
X47347500Y-69930000D03*
X34308500Y-71152400D03*
X53708200Y-46364600D03*
X60701100Y-36378900D03*
X60701100Y-40358000D03*
X31119400Y-50646100D03*
X56033700Y-51224900D03*
X56033700Y-40358000D03*
X56101900Y-57915400D03*
X60680200Y-57915400D03*
X45438300Y-67073400D03*
X56101900Y-67073400D03*
X60680200Y-49608600D03*
X35578500Y-66280600D03*
X50672500Y-62783100D03*
X52649700Y-47347200D03*
X50672500Y-66365100D03*
X52405200Y-62783100D03*
M02*
