M48
; DRILL file {KiCad 9.0.0} date 2025-03-30T21:59:10+0900
; FORMAT={-:-/ absolute / metric / decimal}
; #@! TF.CreationDate,2025-03-30T21:59:10+09:00
; #@! TF.GenerationSoftware,Kicad,Pcbnew,9.0.0
; #@! TF.FileFunction,NonPlated,1,2,NPTH
FMAT,2
METRIC
; #@! TA.AperFunction,NonPlated,NPTH,ComponentDrill
T1C1.000
; #@! TA.AperFunction,NonPlated,NPTH,ComponentDrill
T2C2.200
; #@! TA.AperFunction,NonPlated,NPTH,ComponentDrill
T3C3.000
; #@! TA.AperFunction,NonPlated,NPTH,ComponentDrill
T4C4.800
%
G90
G05
T1
X19.873Y-40.383
X19.873Y-57.383
X30.423Y-73.833
X30.423Y-90.833
X46.873Y-74.483
X53.873Y-32.183
X53.873Y-49.183
X53.873Y-66.183
X70.873Y-29.083
X70.873Y-46.083
X70.873Y-63.083
X97.873Y-21.108
X97.873Y-38.108
X97.873Y-55.083
X114.873Y-29.283
X114.873Y-46.283
X114.873Y-63.283
X114.873Y-80.283
T2
X49.973Y-54.533
X101.474Y-77.333
X101.873Y-43.333
T3
X18.973Y-68.833
X18.973Y-85.833
X21.174Y-63.833
X21.174Y-80.833
X24.873Y-28.933
X24.873Y-45.933
X29.873Y-31.133
X29.873Y-48.133
X36.873Y-83.733
X41.873Y-23.133
X41.873Y-40.133
X41.873Y-57.133
X41.873Y-85.933
X46.873Y-25.333
X46.873Y-42.333
X46.873Y-59.333
X58.873Y-20.733
X58.873Y-37.733
X58.873Y-54.733
X63.873Y-22.933
X63.873Y-39.933
X63.873Y-56.933
X75.873Y-17.633
X75.873Y-34.633
X75.873Y-51.633
X80.873Y-19.833
X80.873Y-36.833
X80.873Y-53.833
X87.873Y-30.358
X87.873Y-47.358
X87.873Y-64.333
X92.873Y-32.558
X92.873Y-49.558
X92.873Y-66.533
X104.873Y-38.533
X104.873Y-55.533
X104.873Y-72.533
X104.873Y-89.533
X109.873Y-40.733
X109.873Y-57.733
X109.873Y-74.733
X109.873Y-91.733
T4
X24.873Y-34.833
X24.873Y-51.833
X24.873Y-68.833
X24.873Y-85.833
X41.873Y-29.033
X41.873Y-46.033
X41.873Y-63.033
X41.873Y-80.033
X58.873Y-26.633
X58.873Y-43.633
X58.873Y-60.633
X75.873Y-23.533
X75.873Y-40.533
X75.873Y-57.533
X92.873Y-26.658
X92.873Y-43.658
X92.873Y-60.633
X109.873Y-34.833
X109.873Y-51.833
X109.873Y-68.833
X109.873Y-85.833
M30
