%TF.GenerationSoftware,KiCad,Pcbnew,9.0.0*%
%TF.CreationDate,2025-03-20T15:30:15+09:00*%
%TF.ProjectId,nofy,6e6f6679-2e6b-4696-9361-645f70636258,rev?*%
%TF.SameCoordinates,Original*%
%TF.FileFunction,Drillmap*%
%TF.FilePolarity,Positive*%
%FSLAX45Y45*%
G04 Gerber Fmt 4.5, Leading zero omitted, Abs format (unit mm)*
G04 Created by KiCad (PCBNEW 9.0.0) date 2025-03-20 15:30:15*
%MOMM*%
%LPD*%
G01*
G04 APERTURE LIST*
%ADD10C,0.050000*%
%ADD11C,0.100000*%
%ADD12C,0.200000*%
G04 APERTURE END LIST*
D10*
X15450000Y-2320000D02*
G75*
G02*
X15350000Y-2420000I-100000J0D01*
G01*
X6810000Y-2180000D02*
G75*
G02*
X6710000Y-2080000I0J100000D01*
G01*
X8510000Y-2410000D02*
X10010000Y-2410000D01*
X6710000Y-1970000D02*
X6710000Y-2080000D01*
X1750000Y-3000000D02*
X3250000Y-2999999D01*
X18750000Y-6930000D02*
G75*
G02*
X18850000Y-7030000I0J-100000D01*
G01*
X1650000Y-3100000D02*
G75*
G02*
X1750000Y-3000000I100000J0D01*
G01*
X12050000Y-3100000D02*
X12050000Y-6200000D01*
X17150000Y-1970000D02*
G75*
G02*
X17250000Y-1870000I100000J0D01*
G01*
X10250000Y-9760000D02*
G75*
G02*
X10150000Y-9660000I0J100000D01*
G01*
X1650000Y-9660000D02*
X1650000Y-3100000D01*
X5050000Y-2080000D02*
G75*
G02*
X4950000Y-2180000I-100000J0D01*
G01*
X11710000Y-3000000D02*
X10210000Y-3000000D01*
X3350000Y-2899999D02*
X3350000Y-2280000D01*
X17110000Y-7030000D02*
G75*
G02*
X17210000Y-6930000I100000J0D01*
G01*
X19940000Y-9760000D02*
X22110000Y-9760000D01*
X6610000Y-1870000D02*
G75*
G02*
X6710000Y-1970000I0J-100000D01*
G01*
X13710000Y-9660000D02*
G75*
G02*
X13610000Y-9760000I-100000J0D01*
G01*
X17150000Y-2080000D02*
G75*
G02*
X17050000Y-2180000I-100000J0D01*
G01*
X20610000Y-2999999D02*
G75*
G02*
X20510001Y-2899999I0J99999D01*
G01*
X8350000Y-8940000D02*
G75*
G02*
X8450000Y-9040000I0J-100000D01*
G01*
X5010000Y-8730000D02*
X5010000Y-8840000D01*
X13710000Y-9660000D02*
X13710000Y-9280000D01*
X17150000Y-1970000D02*
X17150000Y-2080000D01*
X19840000Y-7340000D02*
X19840000Y-9660000D01*
X15410000Y-7340000D02*
G75*
G02*
X15510000Y-7240000I100000J0D01*
G01*
X18710000Y-1870000D02*
X17250000Y-1870000D01*
X20410000Y-2180000D02*
X18910000Y-2180000D01*
X19740000Y-7240000D02*
G75*
G02*
X19840000Y-7340000I0J-100000D01*
G01*
X17110000Y-7140000D02*
X17110000Y-7030000D01*
X5050000Y-2080000D02*
X5050000Y-1970000D01*
X18950000Y-7240000D02*
X19740000Y-7240000D01*
X5010000Y-8840000D02*
G75*
G02*
X4910000Y-8940000I-100000J0D01*
G01*
X11810000Y-3100655D02*
X11810000Y-6200000D01*
X18910000Y-2180000D02*
G75*
G02*
X18810000Y-2080000I0J100000D01*
G01*
X15510000Y-7240000D02*
X17010000Y-7240000D01*
X8350000Y-8940000D02*
X6850000Y-8940000D01*
X8410000Y-2280000D02*
X8410000Y-2310000D01*
X5050000Y-1970000D02*
G75*
G02*
X5150000Y-1870000I100000J0D01*
G01*
X10110000Y-2510000D02*
X10110000Y-2899625D01*
X1750000Y-9760000D02*
G75*
G02*
X1650000Y-9660000I0J100000D01*
G01*
X6850000Y-8940000D02*
G75*
G02*
X6750000Y-8840000I0J100000D01*
G01*
X17050000Y-2180000D02*
X15550000Y-2180000D01*
X6650000Y-8630000D02*
X5110000Y-8630000D01*
X17110000Y-7140000D02*
G75*
G02*
X17010000Y-7240000I-100000J0D01*
G01*
X10050000Y-9180000D02*
G75*
G02*
X10150000Y-9280000I0J-100000D01*
G01*
X10210000Y-3000000D02*
G75*
G02*
X10110000Y-2900000I0J100000D01*
G01*
X6810000Y-2180000D02*
X8310000Y-2180000D01*
X8510000Y-2410000D02*
G75*
G02*
X8410000Y-2310000I0J100000D01*
G01*
X11710000Y-9760000D02*
X10250000Y-9760000D01*
X20410000Y-2180000D02*
G75*
G02*
X20510000Y-2280000I0J-100000D01*
G01*
X13750000Y-2520000D02*
G75*
G02*
X13850000Y-2420000I100000J0D01*
G01*
X8550000Y-9180000D02*
G75*
G02*
X8450000Y-9080000I0J100000D01*
G01*
X12150000Y-9760000D02*
G75*
G02*
X12050000Y-9660000I0J100000D01*
G01*
X17210000Y-6930000D02*
X18750000Y-6930000D01*
X18950000Y-7240000D02*
G75*
G02*
X18850000Y-7140000I0J100000D01*
G01*
X12150000Y-9760000D02*
X13610000Y-9760000D01*
X3310000Y-9040000D02*
G75*
G02*
X3410000Y-8940000I100000J0D01*
G01*
X3310000Y-9040000D02*
X3310000Y-9660000D01*
X5150000Y-1870000D02*
X6610000Y-1870000D01*
X12050000Y-3100000D02*
G75*
G02*
X12150000Y-3000000I100000J0D01*
G01*
X13750000Y-2900000D02*
X13750000Y-2520000D01*
X13650000Y-3000000D02*
X12150000Y-3000000D01*
X18710000Y-1870000D02*
G75*
G02*
X18810000Y-1970000I0J-100000D01*
G01*
X3350000Y-2899999D02*
G75*
G02*
X3250000Y-3000000I-100000J-1D01*
G01*
X18850000Y-7030000D02*
X18850000Y-7140000D01*
X22210000Y-9660000D02*
X22210000Y-3100000D01*
X19940000Y-9760000D02*
G75*
G02*
X19840000Y-9660000I0J100000D01*
G01*
X12050000Y-9660000D02*
X12050000Y-6970000D01*
X10050000Y-9180000D02*
X8550000Y-9180000D01*
X13810000Y-9180000D02*
X15310000Y-9180000D01*
X18810000Y-2080000D02*
X18810000Y-1970000D01*
X6750000Y-8840000D02*
X6750000Y-8730000D01*
X15350000Y-2420000D02*
X13850000Y-2420000D01*
X3310000Y-9660000D02*
G75*
G02*
X3210000Y-9760000I-100000J0D01*
G01*
X15410000Y-9080000D02*
X15410000Y-7340000D01*
X20510000Y-2899999D02*
X20510000Y-2280000D01*
X22110000Y-3000000D02*
G75*
G02*
X22210000Y-3100000I0J-100000D01*
G01*
X4910000Y-8940000D02*
X3410000Y-8940000D01*
X10010000Y-2410000D02*
G75*
G02*
X10110000Y-2510000I0J-100000D01*
G01*
X8450000Y-9080000D02*
X8450000Y-9040000D01*
X5010000Y-8730000D02*
G75*
G02*
X5110000Y-8630000I100000J0D01*
G01*
X6650000Y-8630000D02*
G75*
G02*
X6750000Y-8730000I0J-100000D01*
G01*
X3350000Y-2280000D02*
G75*
G02*
X3450000Y-2180000I100000J0D01*
G01*
X13750000Y-2900000D02*
G75*
G02*
X13650000Y-3000000I-100000J0D01*
G01*
X13710000Y-9280000D02*
G75*
G02*
X13810000Y-9180000I100000J0D01*
G01*
X8310000Y-2180000D02*
G75*
G02*
X8410000Y-2280000I0J-100000D01*
G01*
X15450000Y-2280000D02*
X15450000Y-2320000D01*
X15450000Y-2280000D02*
G75*
G02*
X15550000Y-2180000I100000J0D01*
G01*
X11810000Y-6970000D02*
X11810000Y-9660000D01*
X10150000Y-9660000D02*
X10150000Y-9280000D01*
X3210000Y-9760000D02*
X1750000Y-9760000D01*
X15410000Y-9080000D02*
G75*
G02*
X15310000Y-9180000I-100000J0D01*
G01*
X3450000Y-2180000D02*
X4950000Y-2180000D01*
X22110000Y-3000000D02*
X20610000Y-2999999D01*
X11710000Y-3000000D02*
G75*
G02*
X11810000Y-3100000I0J-100000D01*
G01*
X22210000Y-9660000D02*
G75*
G02*
X22110000Y-9760000I-100000J0D01*
G01*
X11810000Y-9660000D02*
G75*
G02*
X11710000Y-9760000I-100000J0D01*
G01*
D11*
X11810000Y-6970000D02*
G75*
G02*
X12050000Y-6970000I120000J0D01*
G01*
X12050000Y-6200000D02*
G75*
G02*
X11810000Y-6200000I-120000J0D01*
G01*
D12*
D11*
X3190000Y-7800000D02*
X3220000Y-7830000D01*
X3220000Y-7800000D02*
X3190000Y-7830000D01*
X3300000Y-4150000D02*
X3330000Y-4180000D01*
X3330000Y-4150000D02*
X3300000Y-4180000D01*
X3300000Y-4870000D02*
X3330000Y-4900000D01*
X3330000Y-4870000D02*
X3300000Y-4900000D01*
X3345000Y-7535000D02*
X3375000Y-7565000D01*
X3375000Y-7535000D02*
X3345000Y-7565000D01*
X3401890Y-4287250D02*
X3431890Y-4317250D01*
X3431890Y-4287250D02*
X3401890Y-4317250D01*
X3401890Y-4287250D02*
X3431890Y-4317250D01*
X3431890Y-4287250D02*
X3401890Y-4317250D01*
X3464820Y-5575590D02*
X3494820Y-5605590D01*
X3494820Y-5575590D02*
X3464820Y-5605590D01*
X3560000Y-3760000D02*
X3590000Y-3790000D01*
X3590000Y-3760000D02*
X3560000Y-3790000D01*
X3567960Y-6732280D02*
X3597960Y-6762280D01*
X3597960Y-6732280D02*
X3567960Y-6762280D01*
X3567960Y-7325000D02*
X3597960Y-7355000D01*
X3597960Y-7325000D02*
X3567960Y-7355000D01*
X3593390Y-4875000D02*
X3623390Y-4905000D01*
X3623390Y-4875000D02*
X3593390Y-4905000D01*
X3607970Y-5575590D02*
X3637970Y-5605590D01*
X3637970Y-5575590D02*
X3607970Y-5605590D01*
X3607970Y-6273500D02*
X3637970Y-6303500D01*
X3637970Y-6273500D02*
X3607970Y-6303500D01*
X4756840Y-5547440D02*
X4786840Y-5577440D01*
X4786840Y-5547440D02*
X4756840Y-5577440D01*
X4756840Y-7324700D02*
X4786840Y-7354700D01*
X4786840Y-7324700D02*
X4756840Y-7354700D01*
X4760000Y-3496430D02*
X4790000Y-3526430D01*
X4790000Y-3496430D02*
X4760000Y-3526430D01*
X4760000Y-4049070D02*
X4790000Y-4079070D01*
X4790000Y-4049070D02*
X4760000Y-4079070D01*
X4762350Y-6885670D02*
X4792350Y-6915670D01*
X4792350Y-6885670D02*
X4762350Y-6915670D01*
X4940000Y-3595000D02*
X4970000Y-3625000D01*
X4970000Y-3595000D02*
X4940000Y-3625000D01*
X5000000Y-5547440D02*
X5030000Y-5577440D01*
X5030000Y-5547440D02*
X5000000Y-5577440D01*
X5030000Y-5016560D02*
X5060000Y-5046560D01*
X5060000Y-5016560D02*
X5030000Y-5046560D01*
X5365880Y-5016560D02*
X5395880Y-5046560D01*
X5395880Y-5016560D02*
X5365880Y-5046560D01*
X5640920Y-3490330D02*
X5670920Y-3520330D01*
X5670920Y-3490330D02*
X5640920Y-3520330D01*
X5701110Y-4132810D02*
X5731110Y-4162810D01*
X5731110Y-4132810D02*
X5701110Y-4162810D01*
X5906410Y-3643430D02*
X5936410Y-3673430D01*
X5936410Y-3643430D02*
X5906410Y-3673430D01*
X6042030Y-3674790D02*
X6072030Y-3704790D01*
X6072030Y-3674790D02*
X6042030Y-3704790D01*
X6045000Y-4142380D02*
X6075000Y-4172380D01*
X6075000Y-4142380D02*
X6045000Y-4172380D01*
X6220000Y-3500880D02*
X6250000Y-3530880D01*
X6250000Y-3500880D02*
X6220000Y-3530880D01*
X6220000Y-4027760D02*
X6250000Y-4057760D01*
X6250000Y-4027760D02*
X6220000Y-4057760D01*
X6400170Y-3680000D02*
X6430170Y-3710000D01*
X6430170Y-3680000D02*
X6400170Y-3710000D01*
X6463120Y-3063000D02*
X6493120Y-3093000D01*
X6493120Y-3063000D02*
X6463120Y-3093000D01*
X6463120Y-6954340D02*
X6493120Y-6984340D01*
X6493120Y-6954340D02*
X6463120Y-6984340D01*
X6463120Y-7058300D02*
X6493120Y-7088300D01*
X6493120Y-7058300D02*
X6463120Y-7088300D01*
X6516750Y-7324700D02*
X6546750Y-7354700D01*
X6546750Y-7324700D02*
X6516750Y-7354700D01*
X6524720Y-4142380D02*
X6554720Y-4172380D01*
X6554720Y-4142380D02*
X6524720Y-4172380D01*
X6615000Y-7058300D02*
X6645000Y-7088300D01*
X6645000Y-7058300D02*
X6615000Y-7088300D01*
X6615000Y-7824570D02*
X6645000Y-7854570D01*
X6645000Y-7824570D02*
X6615000Y-7854570D01*
X6621610Y-7502890D02*
X6651610Y-7532890D01*
X6651610Y-7502890D02*
X6621610Y-7532890D01*
X6850460Y-4324020D02*
X6880460Y-4354020D01*
X6880460Y-4324020D02*
X6850460Y-4354020D01*
X7143000Y-3812370D02*
X7173000Y-3842370D01*
X7173000Y-3812370D02*
X7143000Y-3842370D01*
X7143000Y-4263850D02*
X7173000Y-4293850D01*
X7173000Y-4263850D02*
X7143000Y-4293850D01*
X7470170Y-3972890D02*
X7500170Y-4002890D01*
X7500170Y-3972890D02*
X7470170Y-4002890D01*
X7716010Y-4184670D02*
X7746010Y-4214670D01*
X7746010Y-4184670D02*
X7716010Y-4214670D01*
X7717330Y-3785960D02*
X7747330Y-3815960D01*
X7747330Y-3785960D02*
X7717330Y-3815960D01*
X7807660Y-7502890D02*
X7837660Y-7532890D01*
X7837660Y-7502890D02*
X7807660Y-7532890D01*
X7807660Y-7843760D02*
X7837660Y-7873760D01*
X7837660Y-7843760D02*
X7807660Y-7873760D01*
X7836840Y-4081660D02*
X7866840Y-4111660D01*
X7866840Y-4081660D02*
X7836840Y-4111660D01*
X7874330Y-4365660D02*
X7904330Y-4395660D01*
X7904330Y-4365660D02*
X7874330Y-4395660D01*
X7920000Y-3957430D02*
X7950000Y-3987430D01*
X7950000Y-3957430D02*
X7920000Y-3987430D01*
X7935990Y-4141830D02*
X7965990Y-4171830D01*
X7965990Y-4141830D02*
X7935990Y-4171830D01*
X7935990Y-4658810D02*
X7965990Y-4688810D01*
X7965990Y-4658810D02*
X7935990Y-4688810D01*
X8230320Y-2312110D02*
X8260320Y-2342110D01*
X8260320Y-2312110D02*
X8230320Y-2342110D01*
X8230320Y-4361000D02*
X8260320Y-4391000D01*
X8260320Y-4361000D02*
X8230320Y-4391000D01*
X8345870Y-5530510D02*
X8375870Y-5560510D01*
X8375870Y-5530510D02*
X8345870Y-5560510D01*
X8422850Y-3963770D02*
X8452850Y-3993770D01*
X8452850Y-3963770D02*
X8422850Y-3993770D01*
X8422850Y-4971030D02*
X8452850Y-5001030D01*
X8452850Y-4971030D02*
X8422850Y-5001030D01*
X8426110Y-7843760D02*
X8456110Y-7873760D01*
X8456110Y-7843760D02*
X8426110Y-7873760D01*
X8427440Y-8121860D02*
X8457440Y-8151860D01*
X8457440Y-8121860D02*
X8427440Y-8151860D01*
X8467230Y-6707090D02*
X8497230Y-6737090D01*
X8497230Y-6707090D02*
X8467230Y-6737090D01*
X8804160Y-5520730D02*
X8834160Y-5550730D01*
X8834160Y-5520730D02*
X8804160Y-5550730D01*
X8804160Y-5843650D02*
X8834160Y-5873650D01*
X8834160Y-5843650D02*
X8804160Y-5873650D01*
X8804160Y-6707090D02*
X8834160Y-6737090D01*
X8834160Y-6707090D02*
X8804160Y-6737090D01*
X8862540Y-4658810D02*
X8892540Y-4688810D01*
X8892540Y-4658810D02*
X8862540Y-4688810D01*
X8949960Y-4361000D02*
X8979960Y-4391000D01*
X8979960Y-4361000D02*
X8949960Y-4391000D01*
X8991760Y-6341480D02*
X9021760Y-6371480D01*
X9021760Y-6341480D02*
X8991760Y-6371480D01*
X9079690Y-4661700D02*
X9109690Y-4691700D01*
X9109690Y-4661700D02*
X9079690Y-4691700D01*
X9080000Y-4159770D02*
X9110000Y-4189770D01*
X9110000Y-4159770D02*
X9080000Y-4189770D01*
X9407510Y-4440800D02*
X9437510Y-4470800D01*
X9437510Y-4440800D02*
X9407510Y-4470800D01*
X9429620Y-4099590D02*
X9459620Y-4129590D01*
X9459620Y-4099590D02*
X9429620Y-4129590D01*
X9497120Y-4159770D02*
X9527120Y-4189770D01*
X9527120Y-4159770D02*
X9497120Y-4189770D01*
X9503120Y-4738660D02*
X9533120Y-4768660D01*
X9533120Y-4738660D02*
X9503120Y-4768660D01*
X9563830Y-4509100D02*
X9593830Y-4539100D01*
X9593830Y-4509100D02*
X9563830Y-4539100D01*
X9563830Y-5129000D02*
X9593830Y-5159000D01*
X9593830Y-5129000D02*
X9563830Y-5159000D01*
X9620000Y-6732280D02*
X9650000Y-6762280D01*
X9650000Y-6732280D02*
X9620000Y-6762280D01*
X9620000Y-8213330D02*
X9650000Y-8243330D01*
X9650000Y-8213330D02*
X9620000Y-8243330D01*
X9625090Y-4661700D02*
X9655090Y-4691700D01*
X9655090Y-4661700D02*
X9625090Y-4691700D01*
X9652970Y-4042330D02*
X9682970Y-4072330D01*
X9682970Y-4042330D02*
X9652970Y-4072330D01*
X9683590Y-4503420D02*
X9713590Y-4533420D01*
X9713590Y-4503420D02*
X9683590Y-4533420D01*
X9800500Y-4627350D02*
X9830500Y-4657350D01*
X9830500Y-4627350D02*
X9800500Y-4657350D01*
X9806630Y-6341480D02*
X9836630Y-6371480D01*
X9836630Y-6341480D02*
X9806630Y-6371480D01*
X9806630Y-7525000D02*
X9836630Y-7555000D01*
X9836630Y-7525000D02*
X9806630Y-7555000D01*
X9877780Y-7293300D02*
X9907780Y-7323300D01*
X9907780Y-7293300D02*
X9877780Y-7323300D01*
X9902090Y-4556690D02*
X9932090Y-4586690D01*
X9932090Y-4556690D02*
X9902090Y-4586690D01*
X9919290Y-4658970D02*
X9949290Y-4688970D01*
X9949290Y-4658970D02*
X9919290Y-4688970D01*
X9933670Y-4875000D02*
X9963670Y-4905000D01*
X9963670Y-4875000D02*
X9933670Y-4905000D01*
X9933670Y-5251230D02*
X9963670Y-5281230D01*
X9963670Y-5251230D02*
X9933670Y-5281230D01*
X10115000Y-5659320D02*
X10145000Y-5689320D01*
X10145000Y-5659320D02*
X10115000Y-5689320D01*
X10125700Y-7910980D02*
X10155700Y-7940980D01*
X10155700Y-7910980D02*
X10125700Y-7940980D01*
X10125700Y-8128140D02*
X10155700Y-8158140D01*
X10155700Y-8128140D02*
X10125700Y-8158140D01*
X10136920Y-7810570D02*
X10166920Y-7840570D01*
X10166920Y-7810570D02*
X10136920Y-7840570D01*
X10231180Y-4410860D02*
X10261180Y-4440860D01*
X10261180Y-4410860D02*
X10231180Y-4440860D01*
X10364160Y-7849510D02*
X10394160Y-7879510D01*
X10394160Y-7849510D02*
X10364160Y-7879510D01*
X10364160Y-8213330D02*
X10394160Y-8243330D01*
X10394160Y-8213330D02*
X10364160Y-8243330D01*
X10579200Y-7786530D02*
X10609200Y-7816530D01*
X10609200Y-7786530D02*
X10579200Y-7816530D01*
X10630000Y-6595000D02*
X10660000Y-6625000D01*
X10660000Y-6595000D02*
X10630000Y-6625000D01*
X10694050Y-7849510D02*
X10724050Y-7879510D01*
X10724050Y-7849510D02*
X10694050Y-7879510D01*
X10770000Y-4660410D02*
X10800000Y-4690410D01*
X10800000Y-4660410D02*
X10770000Y-4690410D01*
X10772660Y-5020000D02*
X10802660Y-5050000D01*
X10802660Y-5020000D02*
X10772660Y-5050000D01*
X10978190Y-4738660D02*
X11008190Y-4768660D01*
X11008190Y-4738660D02*
X10978190Y-4768660D01*
X11115000Y-4586100D02*
X11145000Y-4616100D01*
X11145000Y-4586100D02*
X11115000Y-4616100D01*
X11191740Y-6999620D02*
X11221740Y-7029620D01*
X11221740Y-6999620D02*
X11191740Y-7029620D01*
X11320000Y-4660410D02*
X11350000Y-4690410D01*
X11350000Y-4660410D02*
X11320000Y-4690410D01*
X11320000Y-5020000D02*
X11350000Y-5050000D01*
X11350000Y-5020000D02*
X11320000Y-5050000D01*
X11346200Y-8128140D02*
X11376200Y-8158140D01*
X11376200Y-8128140D02*
X11346200Y-8158140D01*
X11588180Y-6999620D02*
X11618180Y-7029620D01*
X11618180Y-6999620D02*
X11588180Y-7029620D01*
X11588180Y-8062950D02*
X11618180Y-8092950D01*
X11618180Y-8062950D02*
X11588180Y-8092950D01*
X12187650Y-5843650D02*
X12217650Y-5873650D01*
X12217650Y-5843650D02*
X12187650Y-5873650D01*
X12310640Y-4113500D02*
X12340640Y-4143500D01*
X12340640Y-4113500D02*
X12310640Y-4143500D01*
X12495000Y-6176860D02*
X12525000Y-6206860D01*
X12525000Y-6176860D02*
X12495000Y-6206860D01*
X12495000Y-7879090D02*
X12525000Y-7909090D01*
X12525000Y-7879090D02*
X12495000Y-7909090D01*
X12500810Y-7568900D02*
X12530810Y-7598900D01*
X12530810Y-7568900D02*
X12500810Y-7598900D01*
X13137650Y-5843650D02*
X13167650Y-5873650D01*
X13167650Y-5843650D02*
X13137650Y-5873650D01*
X13235470Y-5376150D02*
X13265470Y-5406150D01*
X13265470Y-5376150D02*
X13235470Y-5406150D01*
X13300500Y-7374810D02*
X13330500Y-7404810D01*
X13330500Y-7374810D02*
X13300500Y-7404810D01*
X13364600Y-5605000D02*
X13394600Y-5635000D01*
X13394600Y-5605000D02*
X13364600Y-5635000D01*
X13369590Y-7568900D02*
X13399590Y-7598900D01*
X13399590Y-7568900D02*
X13369590Y-7598900D01*
X13489590Y-5396310D02*
X13519590Y-5426310D01*
X13519590Y-5396310D02*
X13489590Y-5426310D01*
X13501650Y-8162620D02*
X13531650Y-8192620D01*
X13531650Y-8162620D02*
X13501650Y-8192620D01*
X13554500Y-5740160D02*
X13584500Y-5770160D01*
X13584500Y-5740160D02*
X13554500Y-5770160D01*
X13617400Y-6914600D02*
X13647400Y-6944600D01*
X13647400Y-6914600D02*
X13617400Y-6944600D01*
X13620580Y-7917120D02*
X13650580Y-7947120D01*
X13650580Y-7917120D02*
X13620580Y-7947120D01*
X13681500Y-7028490D02*
X13711500Y-7058490D01*
X13711500Y-7028490D02*
X13681500Y-7058490D01*
X13700000Y-5459670D02*
X13730000Y-5489670D01*
X13730000Y-5459670D02*
X13700000Y-5489670D01*
X13745010Y-6937940D02*
X13775010Y-6967940D01*
X13775010Y-6937940D02*
X13745010Y-6967940D01*
X13745010Y-7764150D02*
X13775010Y-7794150D01*
X13775010Y-7764150D02*
X13745010Y-7794150D01*
X13808500Y-7446940D02*
X13838500Y-7476940D01*
X13838500Y-7446940D02*
X13808500Y-7476940D01*
X13812010Y-6865000D02*
X13842010Y-6895000D01*
X13842010Y-6865000D02*
X13812010Y-6895000D01*
X13872010Y-6367000D02*
X13902010Y-6397000D01*
X13902010Y-6367000D02*
X13872010Y-6397000D01*
X13872010Y-7525000D02*
X13902010Y-7555000D01*
X13902010Y-7525000D02*
X13872010Y-7555000D01*
X13889540Y-3987550D02*
X13919540Y-4017550D01*
X13919540Y-3987550D02*
X13889540Y-4017550D01*
X13893030Y-5712850D02*
X13923030Y-5742850D01*
X13923030Y-5712850D02*
X13893030Y-5742850D01*
X13922870Y-6228170D02*
X13952870Y-6258170D01*
X13952870Y-6228170D02*
X13922870Y-6258170D01*
X13935500Y-6959760D02*
X13965500Y-6989760D01*
X13965500Y-6959760D02*
X13935500Y-6989760D01*
X13941990Y-5570980D02*
X13971990Y-5600980D01*
X13971990Y-5570980D02*
X13941990Y-5600980D01*
X13989770Y-3767670D02*
X14019770Y-3797670D01*
X14019770Y-3767670D02*
X13989770Y-3797670D01*
X13989770Y-4189500D02*
X14019770Y-4219500D01*
X14019770Y-4189500D02*
X13989770Y-4219500D01*
X14003210Y-5459670D02*
X14033210Y-5489670D01*
X14033210Y-5459670D02*
X14003210Y-5489670D01*
X14062500Y-7381430D02*
X14092500Y-7411430D01*
X14092500Y-7381430D02*
X14062500Y-7411430D01*
X14178270Y-7381430D02*
X14208270Y-7411430D01*
X14208270Y-7381430D02*
X14178270Y-7411430D01*
X14189500Y-7028490D02*
X14219500Y-7058490D01*
X14219500Y-7028490D02*
X14189500Y-7058490D01*
X14210000Y-3508350D02*
X14240000Y-3538350D01*
X14240000Y-3508350D02*
X14210000Y-3538350D01*
X14210000Y-4051700D02*
X14240000Y-4081700D01*
X14240000Y-4051700D02*
X14210000Y-4081700D01*
X14272280Y-6354630D02*
X14302280Y-6384630D01*
X14302280Y-6354630D02*
X14272280Y-6384630D01*
X14345000Y-8600000D02*
X14375000Y-8630000D01*
X14375000Y-8600000D02*
X14345000Y-8630000D01*
X14413830Y-6236920D02*
X14443830Y-6266920D01*
X14443830Y-6236920D02*
X14413830Y-6266920D01*
X14564000Y-7028490D02*
X14594000Y-7058490D01*
X14594000Y-7028490D02*
X14564000Y-7058490D01*
X14564000Y-7117540D02*
X14594000Y-7147540D01*
X14594000Y-7117540D02*
X14564000Y-7147540D01*
X14599750Y-5275950D02*
X14629750Y-5305950D01*
X14629750Y-5275950D02*
X14599750Y-5305950D01*
X14599750Y-5633010D02*
X14629750Y-5663010D01*
X14629750Y-5633010D02*
X14599750Y-5663010D01*
X14670380Y-6236920D02*
X14700380Y-6266920D01*
X14700380Y-6236920D02*
X14670380Y-6266920D01*
X14769810Y-6341820D02*
X14799810Y-6371820D01*
X14799810Y-6341820D02*
X14769810Y-6371820D01*
X14818870Y-6453090D02*
X14848870Y-6483090D01*
X14848870Y-6453090D02*
X14818870Y-6483090D01*
X14837480Y-6139860D02*
X14867480Y-6169860D01*
X14867480Y-6139860D02*
X14837480Y-6169860D01*
X14837650Y-3633000D02*
X14867650Y-3663000D01*
X14867650Y-3633000D02*
X14837650Y-3663000D01*
X14837650Y-3764680D02*
X14867650Y-3794680D01*
X14867650Y-3764680D02*
X14837650Y-3794680D01*
X14837650Y-3987550D02*
X14867650Y-4017550D01*
X14867650Y-3987550D02*
X14837650Y-4017550D01*
X14884830Y-6645840D02*
X14914830Y-6675840D01*
X14914830Y-6645840D02*
X14884830Y-6675840D01*
X14891900Y-6042500D02*
X14921900Y-6072500D01*
X14921900Y-6042500D02*
X14891900Y-6072500D01*
X14921480Y-7039040D02*
X14951480Y-7069040D01*
X14951480Y-7039040D02*
X14921480Y-7069040D01*
X14954550Y-5215780D02*
X14984550Y-5245780D01*
X14984550Y-5215780D02*
X14954550Y-5245780D01*
X14972400Y-3719790D02*
X15002400Y-3749790D01*
X15002400Y-3719790D02*
X14972400Y-3749790D01*
X15063080Y-5165630D02*
X15093080Y-5195630D01*
X15093080Y-5165630D02*
X15063080Y-5195630D01*
X15063080Y-5712850D02*
X15093080Y-5742850D01*
X15093080Y-5712850D02*
X15063080Y-5742850D01*
X15112400Y-6732440D02*
X15142400Y-6762440D01*
X15142400Y-6732440D02*
X15112400Y-6762440D01*
X15112400Y-7324700D02*
X15142400Y-7354700D01*
X15142400Y-7324700D02*
X15112400Y-7354700D01*
X15182650Y-3436830D02*
X15212650Y-3466830D01*
X15212650Y-3436830D02*
X15182650Y-3466830D01*
X15182650Y-4051700D02*
X15212650Y-4081700D01*
X15212650Y-4051700D02*
X15182650Y-4081700D01*
X15237650Y-6645840D02*
X15267650Y-6675840D01*
X15267650Y-6645840D02*
X15237650Y-6675840D01*
X15294040Y-3811790D02*
X15324040Y-3841790D01*
X15324040Y-3811790D02*
X15294040Y-3841790D01*
X15294040Y-3987060D02*
X15324040Y-4017060D01*
X15324040Y-3987060D02*
X15294040Y-4017060D01*
X15333630Y-7581210D02*
X15363630Y-7611210D01*
X15363630Y-7581210D02*
X15333630Y-7611210D01*
X15384730Y-6811040D02*
X15414730Y-6841040D01*
X15414730Y-6811040D02*
X15384730Y-6841040D01*
X15444900Y-6610010D02*
X15474900Y-6640010D01*
X15474900Y-6610010D02*
X15444900Y-6640010D01*
X15444900Y-6968210D02*
X15474900Y-6998210D01*
X15474900Y-6968210D02*
X15444900Y-6998210D01*
X15570430Y-5460440D02*
X15600430Y-5490440D01*
X15600430Y-5460440D02*
X15570430Y-5490440D01*
X15582650Y-6483580D02*
X15612650Y-6513580D01*
X15612650Y-6483580D02*
X15582650Y-6513580D01*
X15585000Y-3572840D02*
X15615000Y-3602840D01*
X15615000Y-3572840D02*
X15585000Y-3602840D01*
X15585000Y-3811790D02*
X15615000Y-3841790D01*
X15615000Y-3811790D02*
X15585000Y-3841790D01*
X15610130Y-3266210D02*
X15640130Y-3296210D01*
X15640130Y-3266210D02*
X15610130Y-3296210D01*
X15618170Y-6610010D02*
X15648170Y-6640010D01*
X15648170Y-6610010D02*
X15618170Y-6640010D01*
X15642620Y-5066420D02*
X15672620Y-5096420D01*
X15672620Y-5066420D02*
X15642620Y-5096420D01*
X15693200Y-6722950D02*
X15723200Y-6752950D01*
X15723200Y-6722950D02*
X15693200Y-6752950D01*
X15748470Y-4968160D02*
X15778470Y-4998160D01*
X15778470Y-4968160D02*
X15748470Y-4998160D01*
X15981020Y-4367500D02*
X16011020Y-4397500D01*
X16011020Y-4367500D02*
X15981020Y-4397500D01*
X15981020Y-5454190D02*
X16011020Y-5484190D01*
X16011020Y-5454190D02*
X15981020Y-5484190D01*
X15987840Y-6123240D02*
X16017840Y-6153240D01*
X16017840Y-6123240D02*
X15987840Y-6153240D01*
X15987840Y-7039040D02*
X16017840Y-7069040D01*
X16017840Y-7039040D02*
X15987840Y-7069040D01*
X16053450Y-5570980D02*
X16083450Y-5600980D01*
X16083450Y-5570980D02*
X16053450Y-5600980D01*
X16088360Y-4430120D02*
X16118360Y-4460120D01*
X16118360Y-4430120D02*
X16088360Y-4460120D01*
X16091100Y-3514780D02*
X16121100Y-3544780D01*
X16121100Y-3514780D02*
X16091100Y-3544780D01*
X16091100Y-3811790D02*
X16121100Y-3841790D01*
X16121100Y-3811790D02*
X16091100Y-3841790D01*
X16091100Y-5440440D02*
X16121100Y-5470440D01*
X16121100Y-5440440D02*
X16091100Y-5470440D01*
X16111190Y-4286000D02*
X16141190Y-4316000D01*
X16141190Y-4286000D02*
X16111190Y-4316000D01*
X16204280Y-5376300D02*
X16234280Y-5406300D01*
X16234280Y-5376300D02*
X16204280Y-5406300D01*
X16204280Y-5526940D02*
X16234280Y-5556940D01*
X16234280Y-5526940D02*
X16204280Y-5556940D01*
X16445670Y-5292560D02*
X16475670Y-5322560D01*
X16475670Y-5292560D02*
X16445670Y-5322560D01*
X16445670Y-6123240D02*
X16475670Y-6153240D01*
X16475670Y-6123240D02*
X16445670Y-6153240D01*
X16447760Y-3969590D02*
X16477760Y-3999590D01*
X16477760Y-3969590D02*
X16447760Y-3999590D01*
X16447760Y-4367500D02*
X16477760Y-4397500D01*
X16477760Y-4367500D02*
X16447760Y-4397500D01*
X16506630Y-6042500D02*
X16536630Y-6072500D01*
X16536630Y-6042500D02*
X16506630Y-6072500D01*
X16506630Y-6209280D02*
X16536630Y-6239280D01*
X16536630Y-6209280D02*
X16506630Y-6239280D01*
X16546180Y-6704850D02*
X16576180Y-6734850D01*
X16576180Y-6704850D02*
X16546180Y-6734850D01*
X16546180Y-7117540D02*
X16576180Y-7147540D01*
X16576180Y-7117540D02*
X16546180Y-7147540D01*
X16574650Y-3379000D02*
X16604650Y-3409000D01*
X16604650Y-3379000D02*
X16574650Y-3409000D01*
X16714460Y-6286570D02*
X16744460Y-6316570D01*
X16744460Y-6286570D02*
X16714460Y-6316570D01*
X16714460Y-6829420D02*
X16744460Y-6859420D01*
X16744460Y-6829420D02*
X16714460Y-6859420D01*
X16833160Y-5526940D02*
X16863160Y-5556940D01*
X16863160Y-5526940D02*
X16833160Y-5556940D01*
X16833160Y-5808780D02*
X16863160Y-5838780D01*
X16863160Y-5808780D02*
X16833160Y-5838780D01*
X16925900Y-5356170D02*
X16955900Y-5386170D01*
X16955900Y-5356170D02*
X16925900Y-5386170D01*
X16925900Y-5748610D02*
X16955900Y-5778610D01*
X16955900Y-5748610D02*
X16925900Y-5778610D01*
X16998640Y-5440440D02*
X17028640Y-5470440D01*
X17028640Y-5440440D02*
X16998640Y-5470440D01*
X17100000Y-4027120D02*
X17130000Y-4057120D01*
X17130000Y-4027120D02*
X17100000Y-4057120D01*
X17256930Y-4027120D02*
X17286930Y-4057120D01*
X17286930Y-4027120D02*
X17256930Y-4057120D01*
X17320200Y-3740260D02*
X17350200Y-3770260D01*
X17350200Y-3740260D02*
X17320200Y-3770260D01*
X17343030Y-3263010D02*
X17373030Y-3293010D01*
X17373030Y-3263010D02*
X17343030Y-3293010D01*
X17360120Y-4038330D02*
X17390120Y-4068330D01*
X17390120Y-4038330D02*
X17360120Y-4068330D01*
X17375410Y-5547440D02*
X17405410Y-5577440D01*
X17405410Y-5547440D02*
X17375410Y-5577440D01*
X17375410Y-5905270D02*
X17405410Y-5935270D01*
X17405410Y-5905270D02*
X17375410Y-5935270D01*
X17387650Y-3517830D02*
X17417650Y-3547830D01*
X17417650Y-3517830D02*
X17387650Y-3547830D01*
X17582450Y-6457700D02*
X17612450Y-6487700D01*
X17612450Y-6457700D02*
X17582450Y-6487700D01*
X17582450Y-6853650D02*
X17612450Y-6883650D01*
X17612450Y-6853650D02*
X17582450Y-6883650D01*
X17610000Y-6377360D02*
X17640000Y-6407360D01*
X17640000Y-6377360D02*
X17610000Y-6407360D01*
X17951810Y-6816760D02*
X17981810Y-6846760D01*
X17981810Y-6816760D02*
X17951810Y-6846760D01*
X17966590Y-6517880D02*
X17996590Y-6547880D01*
X17996590Y-6517880D02*
X17966590Y-6547880D01*
X18084350Y-6819730D02*
X18114350Y-6849730D01*
X18114350Y-6819730D02*
X18084350Y-6849730D01*
X18105500Y-4038330D02*
X18135500Y-4068330D01*
X18135500Y-4038330D02*
X18105500Y-4068330D01*
X18161400Y-3535420D02*
X18191400Y-3565420D01*
X18191400Y-3535420D02*
X18161400Y-3565420D01*
X18196230Y-5728440D02*
X18226230Y-5758440D01*
X18226230Y-5728440D02*
X18196230Y-5758440D01*
X18200000Y-6395430D02*
X18230000Y-6425430D01*
X18230000Y-6395430D02*
X18200000Y-6425430D01*
X18347650Y-5460950D02*
X18377650Y-5490950D01*
X18377650Y-5460950D02*
X18347650Y-5490950D01*
X18349700Y-6056710D02*
X18379700Y-6086710D01*
X18379700Y-6056710D02*
X18349700Y-6086710D01*
X18477260Y-3473970D02*
X18507260Y-3503970D01*
X18507260Y-3473970D02*
X18477260Y-3503970D01*
X18477260Y-3770180D02*
X18507260Y-3800180D01*
X18507260Y-3770180D02*
X18477260Y-3800180D01*
X18477260Y-6580330D02*
X18507260Y-6610330D01*
X18507260Y-6580330D02*
X18477260Y-6610330D01*
X18477260Y-6855060D02*
X18507260Y-6885060D01*
X18507260Y-6855060D02*
X18477260Y-6885060D01*
X18503290Y-4362600D02*
X18533290Y-4392600D01*
X18533290Y-4362600D02*
X18503290Y-4392600D01*
X18800000Y-6455690D02*
X18830000Y-6485690D01*
X18830000Y-6455690D02*
X18800000Y-6485690D01*
X18985380Y-6316050D02*
X19015380Y-6346050D01*
X19015380Y-6316050D02*
X18985380Y-6346050D01*
X19085870Y-4362600D02*
X19115870Y-4392600D01*
X19115870Y-4362600D02*
X19085870Y-4392600D01*
X19113740Y-4672210D02*
X19143740Y-4702210D01*
X19143740Y-4672210D02*
X19113740Y-4702210D01*
X19197650Y-3770180D02*
X19227650Y-3800180D01*
X19227650Y-3770180D02*
X19197650Y-3800180D01*
X19206830Y-4425060D02*
X19236830Y-4455060D01*
X19236830Y-4425060D02*
X19206830Y-4455060D01*
X19225040Y-5308420D02*
X19255040Y-5338420D01*
X19255040Y-5308420D02*
X19225040Y-5338420D01*
X19225040Y-6120700D02*
X19255040Y-6150700D01*
X19255040Y-6120700D02*
X19225040Y-6150700D01*
X19360340Y-4283550D02*
X19390340Y-4313550D01*
X19390340Y-4283550D02*
X19360340Y-4313550D01*
X19372070Y-5460950D02*
X19402070Y-5490950D01*
X19402070Y-5460950D02*
X19372070Y-5490950D01*
X19372070Y-5746910D02*
X19402070Y-5776910D01*
X19402070Y-5746910D02*
X19372070Y-5776910D01*
X19389500Y-5988030D02*
X19419500Y-6018030D01*
X19419500Y-5988030D02*
X19389500Y-6018030D01*
X19470580Y-5469890D02*
X19500580Y-5499890D01*
X19500580Y-5469890D02*
X19470580Y-5499890D01*
X19653650Y-4066390D02*
X19683650Y-4096390D01*
X19683650Y-4066390D02*
X19653650Y-4096390D01*
X19665260Y-4362600D02*
X19695260Y-4392600D01*
X19695260Y-4362600D02*
X19665260Y-4392600D01*
X19773920Y-5469890D02*
X19803920Y-5499890D01*
X19803920Y-5469890D02*
X19773920Y-5499890D01*
X19815730Y-6801300D02*
X19845730Y-6831300D01*
X19845730Y-6801300D02*
X19815730Y-6831300D01*
X19889670Y-7390170D02*
X19919670Y-7420170D01*
X19919670Y-7390170D02*
X19889670Y-7420170D01*
X19990480Y-6249450D02*
X20020480Y-6279450D01*
X20020480Y-6249450D02*
X19990480Y-6279450D01*
X20068650Y-4066390D02*
X20098650Y-4096390D01*
X20098650Y-4066390D02*
X20068650Y-4096390D01*
X20081100Y-6120700D02*
X20111100Y-6150700D01*
X20111100Y-6120700D02*
X20081100Y-6150700D01*
X20110620Y-6578780D02*
X20140620Y-6608780D01*
X20140620Y-6578780D02*
X20110620Y-6608780D01*
X20150740Y-7261240D02*
X20180740Y-7291240D01*
X20180740Y-7261240D02*
X20150740Y-7291240D01*
X20150740Y-8959000D02*
X20180740Y-8989000D01*
X20180740Y-8959000D02*
X20150740Y-8989000D01*
X20153960Y-4283550D02*
X20183960Y-4313550D01*
X20183960Y-4283550D02*
X20153960Y-4313550D01*
X20153960Y-4955020D02*
X20183960Y-4985020D01*
X20183960Y-4955020D02*
X20153960Y-4985020D01*
X20156490Y-6056710D02*
X20186490Y-6086710D01*
X20186490Y-6056710D02*
X20156490Y-6086710D01*
X20170790Y-6249450D02*
X20200790Y-6279450D01*
X20200790Y-6249450D02*
X20170790Y-6279450D01*
X20213110Y-6733090D02*
X20243110Y-6763090D01*
X20243110Y-6733090D02*
X20213110Y-6763090D01*
X20213110Y-8199610D02*
X20243110Y-8229610D01*
X20243110Y-8199610D02*
X20213110Y-8229610D01*
X20214130Y-4362600D02*
X20244130Y-4392600D01*
X20244130Y-4362600D02*
X20214130Y-4392600D01*
X20262320Y-5746910D02*
X20292320Y-5776910D01*
X20292320Y-5746910D02*
X20262320Y-5776910D01*
X20270040Y-4658810D02*
X20300040Y-4688810D01*
X20300040Y-4658810D02*
X20270040Y-4688810D01*
X20274420Y-9057680D02*
X20304420Y-9087680D01*
X20304420Y-9057680D02*
X20274420Y-9087680D01*
X20311410Y-6250960D02*
X20341410Y-6280960D01*
X20341410Y-6250960D02*
X20311410Y-6280960D01*
X20331980Y-4432500D02*
X20361980Y-4462500D01*
X20361980Y-4432500D02*
X20331980Y-4462500D01*
X20345270Y-5320920D02*
X20375270Y-5350920D01*
X20375270Y-5320920D02*
X20345270Y-5350920D01*
X20354870Y-6997000D02*
X20384870Y-7027000D01*
X20384870Y-6997000D02*
X20354870Y-7027000D01*
X20390440Y-6578780D02*
X20420440Y-6608780D01*
X20420440Y-6578780D02*
X20390440Y-6608780D01*
X20506870Y-7261240D02*
X20536870Y-7291240D01*
X20536870Y-7261240D02*
X20506870Y-7291240D01*
X20530000Y-4432500D02*
X20560000Y-4462500D01*
X20560000Y-4432500D02*
X20530000Y-4462500D01*
X20530000Y-5532560D02*
X20560000Y-5562560D01*
X20560000Y-5532560D02*
X20530000Y-5562560D01*
X20767650Y-5013200D02*
X20797650Y-5043200D01*
X20797650Y-5013200D02*
X20767650Y-5043200D01*
X20767650Y-5320920D02*
X20797650Y-5350920D01*
X20797650Y-5320920D02*
X20767650Y-5350920D01*
X20785000Y-6735850D02*
X20815000Y-6765850D01*
X20815000Y-6735850D02*
X20785000Y-6765850D01*
X20785000Y-6997000D02*
X20815000Y-7027000D01*
X20815000Y-6997000D02*
X20785000Y-7027000D01*
X20907380Y-6366330D02*
X20937380Y-6396330D01*
X20937380Y-6366330D02*
X20907380Y-6396330D01*
X21027490Y-7372900D02*
X21057490Y-7402900D01*
X21057490Y-7372900D02*
X21027490Y-7402900D01*
X21090760Y-8385720D02*
X21120760Y-8415720D01*
X21120760Y-8385720D02*
X21090760Y-8415720D01*
X21112650Y-5032810D02*
X21142650Y-5062810D01*
X21142650Y-5032810D02*
X21112650Y-5062810D01*
X21130000Y-6685840D02*
X21160000Y-6715840D01*
X21160000Y-6685840D02*
X21130000Y-6715840D01*
X21154030Y-7499440D02*
X21184030Y-7529440D01*
X21184030Y-7499440D02*
X21154030Y-7529440D01*
X21154030Y-8225470D02*
X21184030Y-8255470D01*
X21184030Y-8225470D02*
X21154030Y-8255470D01*
X21223150Y-4904860D02*
X21253150Y-4934860D01*
X21253150Y-4904860D02*
X21223150Y-4934860D01*
X21720000Y-4904860D02*
X21750000Y-4934860D01*
X21750000Y-4904860D02*
X21720000Y-4934860D01*
X21720000Y-5032810D02*
X21750000Y-5062810D01*
X21750000Y-5032810D02*
X21720000Y-5062810D01*
X21720000Y-6685840D02*
X21750000Y-6715840D01*
X21750000Y-6685840D02*
X21720000Y-6715840D01*
X21720000Y-8385720D02*
X21750000Y-8415720D01*
X21750000Y-8385720D02*
X21720000Y-8415720D01*
X3381500Y-5780500D02*
G75*
G02*
X3281500Y-5780500I-50000J0D01*
G01*
X3281500Y-5780500D02*
G75*
G02*
X3381500Y-5780500I50000J0D01*
G01*
X3381500Y-6034500D02*
G75*
G02*
X3281500Y-6034500I-50000J0D01*
G01*
X3281500Y-6034500D02*
G75*
G02*
X3381500Y-6034500I50000J0D01*
G01*
X3381500Y-6288500D02*
G75*
G02*
X3281500Y-6288500I-50000J0D01*
G01*
X3281500Y-6288500D02*
G75*
G02*
X3381500Y-6288500I50000J0D01*
G01*
X3381500Y-6542500D02*
G75*
G02*
X3281500Y-6542500I-50000J0D01*
G01*
X3281500Y-6542500D02*
G75*
G02*
X3381500Y-6542500I50000J0D01*
G01*
X6780000Y-2316000D02*
G75*
G02*
X6680000Y-2316000I-50000J0D01*
G01*
X6680000Y-2316000D02*
G75*
G02*
X6780000Y-2316000I50000J0D01*
G01*
X6780000Y-2570000D02*
G75*
G02*
X6680000Y-2570000I-50000J0D01*
G01*
X6680000Y-2570000D02*
G75*
G02*
X6780000Y-2570000I50000J0D01*
G01*
X6780000Y-2824000D02*
G75*
G02*
X6680000Y-2824000I-50000J0D01*
G01*
X6680000Y-2824000D02*
G75*
G02*
X6780000Y-2824000I50000J0D01*
G01*
X6780000Y-3078000D02*
G75*
G02*
X6680000Y-3078000I-50000J0D01*
G01*
X6680000Y-3078000D02*
G75*
G02*
X6780000Y-3078000I50000J0D01*
G01*
X6780000Y-3830500D02*
G75*
G02*
X6680000Y-3830500I-50000J0D01*
G01*
X6680000Y-3830500D02*
G75*
G02*
X6780000Y-3830500I50000J0D01*
G01*
X6780000Y-4084500D02*
G75*
G02*
X6680000Y-4084500I-50000J0D01*
G01*
X6680000Y-4084500D02*
G75*
G02*
X6780000Y-4084500I50000J0D01*
G01*
X6780000Y-4338500D02*
G75*
G02*
X6680000Y-4338500I-50000J0D01*
G01*
X6680000Y-4338500D02*
G75*
G02*
X6780000Y-4338500I50000J0D01*
G01*
X6780000Y-4592500D02*
G75*
G02*
X6680000Y-4592500I-50000J0D01*
G01*
X6680000Y-4592500D02*
G75*
G02*
X6780000Y-4592500I50000J0D01*
G01*
X9080000Y-7540000D02*
G75*
G02*
X8980000Y-7540000I-50000J0D01*
G01*
X8980000Y-7540000D02*
G75*
G02*
X9080000Y-7540000I50000J0D01*
G01*
X9330000Y-7540000D02*
G75*
G02*
X9230000Y-7540000I-50000J0D01*
G01*
X9230000Y-7540000D02*
G75*
G02*
X9330000Y-7540000I50000J0D01*
G01*
X9580000Y-7540000D02*
G75*
G02*
X9480000Y-7540000I-50000J0D01*
G01*
X9480000Y-7540000D02*
G75*
G02*
X9580000Y-7540000I50000J0D01*
G01*
X10180000Y-4636000D02*
G75*
G02*
X10080000Y-4636000I-50000J0D01*
G01*
X10080000Y-4636000D02*
G75*
G02*
X10180000Y-4636000I50000J0D01*
G01*
X10180000Y-4890000D02*
G75*
G02*
X10080000Y-4890000I-50000J0D01*
G01*
X10080000Y-4890000D02*
G75*
G02*
X10180000Y-4890000I50000J0D01*
G01*
X10180000Y-5144000D02*
G75*
G02*
X10080000Y-5144000I-50000J0D01*
G01*
X10080000Y-5144000D02*
G75*
G02*
X10180000Y-5144000I50000J0D01*
G01*
X10180000Y-5398000D02*
G75*
G02*
X10080000Y-5398000I-50000J0D01*
G01*
X10080000Y-5398000D02*
G75*
G02*
X10180000Y-5398000I50000J0D01*
G01*
X10181500Y-3130500D02*
G75*
G02*
X10081500Y-3130500I-50000J0D01*
G01*
X10081500Y-3130500D02*
G75*
G02*
X10181500Y-3130500I50000J0D01*
G01*
X10181500Y-3384500D02*
G75*
G02*
X10081500Y-3384500I-50000J0D01*
G01*
X10081500Y-3384500D02*
G75*
G02*
X10181500Y-3384500I50000J0D01*
G01*
X10181500Y-3638500D02*
G75*
G02*
X10081500Y-3638500I-50000J0D01*
G01*
X10081500Y-3638500D02*
G75*
G02*
X10181500Y-3638500I50000J0D01*
G01*
X10181500Y-3892500D02*
G75*
G02*
X10081500Y-3892500I-50000J0D01*
G01*
X10081500Y-3892500D02*
G75*
G02*
X10181500Y-3892500I50000J0D01*
G01*
X13780000Y-3950500D02*
G75*
G02*
X13680000Y-3950500I-50000J0D01*
G01*
X13680000Y-3950500D02*
G75*
G02*
X13780000Y-3950500I50000J0D01*
G01*
X13780000Y-4204500D02*
G75*
G02*
X13680000Y-4204500I-50000J0D01*
G01*
X13680000Y-4204500D02*
G75*
G02*
X13780000Y-4204500I50000J0D01*
G01*
X13780000Y-4458500D02*
G75*
G02*
X13680000Y-4458500I-50000J0D01*
G01*
X13680000Y-4458500D02*
G75*
G02*
X13780000Y-4458500I50000J0D01*
G01*
X13780000Y-4712500D02*
G75*
G02*
X13680000Y-4712500I-50000J0D01*
G01*
X13680000Y-4712500D02*
G75*
G02*
X13780000Y-4712500I50000J0D01*
G01*
X13780000Y-5620000D02*
G75*
G02*
X13680000Y-5620000I-50000J0D01*
G01*
X13680000Y-5620000D02*
G75*
G02*
X13780000Y-5620000I50000J0D01*
G01*
X13780000Y-5874000D02*
G75*
G02*
X13680000Y-5874000I-50000J0D01*
G01*
X13680000Y-5874000D02*
G75*
G02*
X13780000Y-5874000I50000J0D01*
G01*
X13780000Y-6128000D02*
G75*
G02*
X13680000Y-6128000I-50000J0D01*
G01*
X13680000Y-6128000D02*
G75*
G02*
X13780000Y-6128000I50000J0D01*
G01*
X13780000Y-6382000D02*
G75*
G02*
X13680000Y-6382000I-50000J0D01*
G01*
X13680000Y-6382000D02*
G75*
G02*
X13780000Y-6382000I50000J0D01*
G01*
X14379000Y-7540000D02*
G75*
G02*
X14279000Y-7540000I-50000J0D01*
G01*
X14279000Y-7540000D02*
G75*
G02*
X14379000Y-7540000I50000J0D01*
G01*
X14629000Y-7540000D02*
G75*
G02*
X14529000Y-7540000I-50000J0D01*
G01*
X14529000Y-7540000D02*
G75*
G02*
X14629000Y-7540000I50000J0D01*
G01*
X14879000Y-7540000D02*
G75*
G02*
X14779000Y-7540000I-50000J0D01*
G01*
X14779000Y-7540000D02*
G75*
G02*
X14879000Y-7540000I50000J0D01*
G01*
X17180000Y-3140000D02*
G75*
G02*
X17080000Y-3140000I-50000J0D01*
G01*
X17080000Y-3140000D02*
G75*
G02*
X17180000Y-3140000I50000J0D01*
G01*
X17180000Y-3394000D02*
G75*
G02*
X17080000Y-3394000I-50000J0D01*
G01*
X17080000Y-3394000D02*
G75*
G02*
X17180000Y-3394000I50000J0D01*
G01*
X17180000Y-3648000D02*
G75*
G02*
X17080000Y-3648000I-50000J0D01*
G01*
X17080000Y-3648000D02*
G75*
G02*
X17180000Y-3648000I50000J0D01*
G01*
X17180000Y-3902000D02*
G75*
G02*
X17080000Y-3902000I-50000J0D01*
G01*
X17080000Y-3902000D02*
G75*
G02*
X17180000Y-3902000I50000J0D01*
G01*
X17180000Y-4846000D02*
G75*
G02*
X17080000Y-4846000I-50000J0D01*
G01*
X17080000Y-4846000D02*
G75*
G02*
X17180000Y-4846000I50000J0D01*
G01*
X17180000Y-5100000D02*
G75*
G02*
X17080000Y-5100000I-50000J0D01*
G01*
X17080000Y-5100000D02*
G75*
G02*
X17180000Y-5100000I50000J0D01*
G01*
X17180000Y-5354000D02*
G75*
G02*
X17080000Y-5354000I-50000J0D01*
G01*
X17080000Y-5354000D02*
G75*
G02*
X17180000Y-5354000I50000J0D01*
G01*
X17180000Y-5608000D02*
G75*
G02*
X17080000Y-5608000I-50000J0D01*
G01*
X17080000Y-5608000D02*
G75*
G02*
X17180000Y-5608000I50000J0D01*
G01*
X20020000Y-7704000D02*
G75*
G02*
X19920000Y-7704000I-50000J0D01*
G01*
X19920000Y-7704000D02*
G75*
G02*
X20020000Y-7704000I50000J0D01*
G01*
X20020000Y-7958000D02*
G75*
G02*
X19920000Y-7958000I-50000J0D01*
G01*
X19920000Y-7958000D02*
G75*
G02*
X20020000Y-7958000I50000J0D01*
G01*
X20020000Y-8212000D02*
G75*
G02*
X19920000Y-8212000I-50000J0D01*
G01*
X19920000Y-8212000D02*
G75*
G02*
X20020000Y-8212000I50000J0D01*
G01*
X20020000Y-8466000D02*
G75*
G02*
X19920000Y-8466000I-50000J0D01*
G01*
X19920000Y-8466000D02*
G75*
G02*
X20020000Y-8466000I50000J0D01*
G01*
X20020000Y-8720000D02*
G75*
G02*
X19920000Y-8720000I-50000J0D01*
G01*
X19920000Y-8720000D02*
G75*
G02*
X20020000Y-8720000I50000J0D01*
G01*
X20020000Y-8974000D02*
G75*
G02*
X19920000Y-8974000I-50000J0D01*
G01*
X19920000Y-8974000D02*
G75*
G02*
X20020000Y-8974000I50000J0D01*
G01*
X20020000Y-9228000D02*
G75*
G02*
X19920000Y-9228000I-50000J0D01*
G01*
X19920000Y-9228000D02*
G75*
G02*
X20020000Y-9228000I50000J0D01*
G01*
X20580000Y-6250000D02*
G75*
G02*
X20480000Y-6250000I-50000J0D01*
G01*
X20480000Y-6250000D02*
G75*
G02*
X20580000Y-6250000I50000J0D01*
G01*
X20580000Y-6504000D02*
G75*
G02*
X20480000Y-6504000I-50000J0D01*
G01*
X20480000Y-6504000D02*
G75*
G02*
X20580000Y-6504000I50000J0D01*
G01*
X20580000Y-6758000D02*
G75*
G02*
X20480000Y-6758000I-50000J0D01*
G01*
X20480000Y-6758000D02*
G75*
G02*
X20580000Y-6758000I50000J0D01*
G01*
X20580000Y-7012000D02*
G75*
G02*
X20480000Y-7012000I-50000J0D01*
G01*
X20480000Y-7012000D02*
G75*
G02*
X20580000Y-7012000I50000J0D01*
G01*
D12*
X1908277Y-10073984D02*
X1908277Y-9873984D01*
X1908277Y-9873984D02*
X1955896Y-9873984D01*
X1955896Y-9873984D02*
X1984467Y-9883508D01*
X1984467Y-9883508D02*
X2003515Y-9902555D01*
X2003515Y-9902555D02*
X2013039Y-9921603D01*
X2013039Y-9921603D02*
X2022562Y-9959698D01*
X2022562Y-9959698D02*
X2022562Y-9988270D01*
X2022562Y-9988270D02*
X2013039Y-10026365D01*
X2013039Y-10026365D02*
X2003515Y-10045412D01*
X2003515Y-10045412D02*
X1984467Y-10064460D01*
X1984467Y-10064460D02*
X1955896Y-10073984D01*
X1955896Y-10073984D02*
X1908277Y-10073984D01*
X2108277Y-10073984D02*
X2108277Y-9940650D01*
X2108277Y-9978746D02*
X2117801Y-9959698D01*
X2117801Y-9959698D02*
X2127324Y-9950174D01*
X2127324Y-9950174D02*
X2146372Y-9940650D01*
X2146372Y-9940650D02*
X2165420Y-9940650D01*
X2232086Y-10073984D02*
X2232086Y-9940650D01*
X2232086Y-9873984D02*
X2222563Y-9883508D01*
X2222563Y-9883508D02*
X2232086Y-9893031D01*
X2232086Y-9893031D02*
X2241610Y-9883508D01*
X2241610Y-9883508D02*
X2232086Y-9873984D01*
X2232086Y-9873984D02*
X2232086Y-9893031D01*
X2355896Y-10073984D02*
X2336848Y-10064460D01*
X2336848Y-10064460D02*
X2327324Y-10045412D01*
X2327324Y-10045412D02*
X2327324Y-9873984D01*
X2460658Y-10073984D02*
X2441610Y-10064460D01*
X2441610Y-10064460D02*
X2432086Y-10045412D01*
X2432086Y-10045412D02*
X2432086Y-9873984D01*
X2689229Y-10073984D02*
X2689229Y-9873984D01*
X2689229Y-9873984D02*
X2755896Y-10016841D01*
X2755896Y-10016841D02*
X2822562Y-9873984D01*
X2822562Y-9873984D02*
X2822562Y-10073984D01*
X3003515Y-10073984D02*
X3003515Y-9969222D01*
X3003515Y-9969222D02*
X2993991Y-9950174D01*
X2993991Y-9950174D02*
X2974943Y-9940650D01*
X2974943Y-9940650D02*
X2936848Y-9940650D01*
X2936848Y-9940650D02*
X2917801Y-9950174D01*
X3003515Y-10064460D02*
X2984467Y-10073984D01*
X2984467Y-10073984D02*
X2936848Y-10073984D01*
X2936848Y-10073984D02*
X2917801Y-10064460D01*
X2917801Y-10064460D02*
X2908277Y-10045412D01*
X2908277Y-10045412D02*
X2908277Y-10026365D01*
X2908277Y-10026365D02*
X2917801Y-10007317D01*
X2917801Y-10007317D02*
X2936848Y-9997793D01*
X2936848Y-9997793D02*
X2984467Y-9997793D01*
X2984467Y-9997793D02*
X3003515Y-9988270D01*
X3098753Y-9940650D02*
X3098753Y-10140650D01*
X3098753Y-9950174D02*
X3117801Y-9940650D01*
X3117801Y-9940650D02*
X3155896Y-9940650D01*
X3155896Y-9940650D02*
X3174943Y-9950174D01*
X3174943Y-9950174D02*
X3184467Y-9959698D01*
X3184467Y-9959698D02*
X3193991Y-9978746D01*
X3193991Y-9978746D02*
X3193991Y-10035889D01*
X3193991Y-10035889D02*
X3184467Y-10054936D01*
X3184467Y-10054936D02*
X3174943Y-10064460D01*
X3174943Y-10064460D02*
X3155896Y-10073984D01*
X3155896Y-10073984D02*
X3117801Y-10073984D01*
X3117801Y-10073984D02*
X3098753Y-10064460D01*
X3279705Y-10054936D02*
X3289229Y-10064460D01*
X3289229Y-10064460D02*
X3279705Y-10073984D01*
X3279705Y-10073984D02*
X3270182Y-10064460D01*
X3270182Y-10064460D02*
X3279705Y-10054936D01*
X3279705Y-10054936D02*
X3279705Y-10073984D01*
X3279705Y-9950174D02*
X3289229Y-9959698D01*
X3289229Y-9959698D02*
X3279705Y-9969222D01*
X3279705Y-9969222D02*
X3270182Y-9959698D01*
X3270182Y-9959698D02*
X3279705Y-9950174D01*
X3279705Y-9950174D02*
X3279705Y-9969222D01*
D11*
X1617500Y-10387500D02*
X1647500Y-10417500D01*
X1647500Y-10387500D02*
X1617500Y-10417500D01*
D12*
X1946372Y-10293984D02*
X1965420Y-10293984D01*
X1965420Y-10293984D02*
X1984467Y-10303508D01*
X1984467Y-10303508D02*
X1993991Y-10313031D01*
X1993991Y-10313031D02*
X2003515Y-10332079D01*
X2003515Y-10332079D02*
X2013039Y-10370174D01*
X2013039Y-10370174D02*
X2013039Y-10417793D01*
X2013039Y-10417793D02*
X2003515Y-10455889D01*
X2003515Y-10455889D02*
X1993991Y-10474936D01*
X1993991Y-10474936D02*
X1984467Y-10484460D01*
X1984467Y-10484460D02*
X1965420Y-10493984D01*
X1965420Y-10493984D02*
X1946372Y-10493984D01*
X1946372Y-10493984D02*
X1927324Y-10484460D01*
X1927324Y-10484460D02*
X1917801Y-10474936D01*
X1917801Y-10474936D02*
X1908277Y-10455889D01*
X1908277Y-10455889D02*
X1898753Y-10417793D01*
X1898753Y-10417793D02*
X1898753Y-10370174D01*
X1898753Y-10370174D02*
X1908277Y-10332079D01*
X1908277Y-10332079D02*
X1917801Y-10313031D01*
X1917801Y-10313031D02*
X1927324Y-10303508D01*
X1927324Y-10303508D02*
X1946372Y-10293984D01*
X2098753Y-10474936D02*
X2108277Y-10484460D01*
X2108277Y-10484460D02*
X2098753Y-10493984D01*
X2098753Y-10493984D02*
X2089229Y-10484460D01*
X2089229Y-10484460D02*
X2098753Y-10474936D01*
X2098753Y-10474936D02*
X2098753Y-10493984D01*
X2174944Y-10293984D02*
X2298753Y-10293984D01*
X2298753Y-10293984D02*
X2232086Y-10370174D01*
X2232086Y-10370174D02*
X2260658Y-10370174D01*
X2260658Y-10370174D02*
X2279705Y-10379698D01*
X2279705Y-10379698D02*
X2289229Y-10389222D01*
X2289229Y-10389222D02*
X2298753Y-10408270D01*
X2298753Y-10408270D02*
X2298753Y-10455889D01*
X2298753Y-10455889D02*
X2289229Y-10474936D01*
X2289229Y-10474936D02*
X2279705Y-10484460D01*
X2279705Y-10484460D02*
X2260658Y-10493984D01*
X2260658Y-10493984D02*
X2203515Y-10493984D01*
X2203515Y-10493984D02*
X2184467Y-10484460D01*
X2184467Y-10484460D02*
X2174944Y-10474936D01*
X2422563Y-10293984D02*
X2441610Y-10293984D01*
X2441610Y-10293984D02*
X2460658Y-10303508D01*
X2460658Y-10303508D02*
X2470182Y-10313031D01*
X2470182Y-10313031D02*
X2479705Y-10332079D01*
X2479705Y-10332079D02*
X2489229Y-10370174D01*
X2489229Y-10370174D02*
X2489229Y-10417793D01*
X2489229Y-10417793D02*
X2479705Y-10455889D01*
X2479705Y-10455889D02*
X2470182Y-10474936D01*
X2470182Y-10474936D02*
X2460658Y-10484460D01*
X2460658Y-10484460D02*
X2441610Y-10493984D01*
X2441610Y-10493984D02*
X2422563Y-10493984D01*
X2422563Y-10493984D02*
X2403515Y-10484460D01*
X2403515Y-10484460D02*
X2393991Y-10474936D01*
X2393991Y-10474936D02*
X2384467Y-10455889D01*
X2384467Y-10455889D02*
X2374944Y-10417793D01*
X2374944Y-10417793D02*
X2374944Y-10370174D01*
X2374944Y-10370174D02*
X2384467Y-10332079D01*
X2384467Y-10332079D02*
X2393991Y-10313031D01*
X2393991Y-10313031D02*
X2403515Y-10303508D01*
X2403515Y-10303508D02*
X2422563Y-10293984D01*
X2613039Y-10293984D02*
X2632086Y-10293984D01*
X2632086Y-10293984D02*
X2651134Y-10303508D01*
X2651134Y-10303508D02*
X2660658Y-10313031D01*
X2660658Y-10313031D02*
X2670182Y-10332079D01*
X2670182Y-10332079D02*
X2679705Y-10370174D01*
X2679705Y-10370174D02*
X2679705Y-10417793D01*
X2679705Y-10417793D02*
X2670182Y-10455889D01*
X2670182Y-10455889D02*
X2660658Y-10474936D01*
X2660658Y-10474936D02*
X2651134Y-10484460D01*
X2651134Y-10484460D02*
X2632086Y-10493984D01*
X2632086Y-10493984D02*
X2613039Y-10493984D01*
X2613039Y-10493984D02*
X2593991Y-10484460D01*
X2593991Y-10484460D02*
X2584467Y-10474936D01*
X2584467Y-10474936D02*
X2574944Y-10455889D01*
X2574944Y-10455889D02*
X2565420Y-10417793D01*
X2565420Y-10417793D02*
X2565420Y-10370174D01*
X2565420Y-10370174D02*
X2574944Y-10332079D01*
X2574944Y-10332079D02*
X2584467Y-10313031D01*
X2584467Y-10313031D02*
X2593991Y-10303508D01*
X2593991Y-10303508D02*
X2613039Y-10293984D01*
X2765420Y-10493984D02*
X2765420Y-10360650D01*
X2765420Y-10379698D02*
X2774944Y-10370174D01*
X2774944Y-10370174D02*
X2793991Y-10360650D01*
X2793991Y-10360650D02*
X2822563Y-10360650D01*
X2822563Y-10360650D02*
X2841610Y-10370174D01*
X2841610Y-10370174D02*
X2851134Y-10389222D01*
X2851134Y-10389222D02*
X2851134Y-10493984D01*
X2851134Y-10389222D02*
X2860658Y-10370174D01*
X2860658Y-10370174D02*
X2879705Y-10360650D01*
X2879705Y-10360650D02*
X2908277Y-10360650D01*
X2908277Y-10360650D02*
X2927324Y-10370174D01*
X2927324Y-10370174D02*
X2936848Y-10389222D01*
X2936848Y-10389222D02*
X2936848Y-10493984D01*
X3032086Y-10493984D02*
X3032086Y-10360650D01*
X3032086Y-10379698D02*
X3041610Y-10370174D01*
X3041610Y-10370174D02*
X3060658Y-10360650D01*
X3060658Y-10360650D02*
X3089229Y-10360650D01*
X3089229Y-10360650D02*
X3108277Y-10370174D01*
X3108277Y-10370174D02*
X3117801Y-10389222D01*
X3117801Y-10389222D02*
X3117801Y-10493984D01*
X3117801Y-10389222D02*
X3127324Y-10370174D01*
X3127324Y-10370174D02*
X3146372Y-10360650D01*
X3146372Y-10360650D02*
X3174943Y-10360650D01*
X3174943Y-10360650D02*
X3193991Y-10370174D01*
X3193991Y-10370174D02*
X3203515Y-10389222D01*
X3203515Y-10389222D02*
X3203515Y-10493984D01*
X3593991Y-10284460D02*
X3422563Y-10541603D01*
X3851134Y-10293984D02*
X3870182Y-10293984D01*
X3870182Y-10293984D02*
X3889229Y-10303508D01*
X3889229Y-10303508D02*
X3898753Y-10313031D01*
X3898753Y-10313031D02*
X3908277Y-10332079D01*
X3908277Y-10332079D02*
X3917801Y-10370174D01*
X3917801Y-10370174D02*
X3917801Y-10417793D01*
X3917801Y-10417793D02*
X3908277Y-10455889D01*
X3908277Y-10455889D02*
X3898753Y-10474936D01*
X3898753Y-10474936D02*
X3889229Y-10484460D01*
X3889229Y-10484460D02*
X3870182Y-10493984D01*
X3870182Y-10493984D02*
X3851134Y-10493984D01*
X3851134Y-10493984D02*
X3832086Y-10484460D01*
X3832086Y-10484460D02*
X3822563Y-10474936D01*
X3822563Y-10474936D02*
X3813039Y-10455889D01*
X3813039Y-10455889D02*
X3803515Y-10417793D01*
X3803515Y-10417793D02*
X3803515Y-10370174D01*
X3803515Y-10370174D02*
X3813039Y-10332079D01*
X3813039Y-10332079D02*
X3822563Y-10313031D01*
X3822563Y-10313031D02*
X3832086Y-10303508D01*
X3832086Y-10303508D02*
X3851134Y-10293984D01*
X4003515Y-10474936D02*
X4013039Y-10484460D01*
X4013039Y-10484460D02*
X4003515Y-10493984D01*
X4003515Y-10493984D02*
X3993991Y-10484460D01*
X3993991Y-10484460D02*
X4003515Y-10474936D01*
X4003515Y-10474936D02*
X4003515Y-10493984D01*
X4136848Y-10293984D02*
X4155896Y-10293984D01*
X4155896Y-10293984D02*
X4174944Y-10303508D01*
X4174944Y-10303508D02*
X4184467Y-10313031D01*
X4184467Y-10313031D02*
X4193991Y-10332079D01*
X4193991Y-10332079D02*
X4203515Y-10370174D01*
X4203515Y-10370174D02*
X4203515Y-10417793D01*
X4203515Y-10417793D02*
X4193991Y-10455889D01*
X4193991Y-10455889D02*
X4184467Y-10474936D01*
X4184467Y-10474936D02*
X4174944Y-10484460D01*
X4174944Y-10484460D02*
X4155896Y-10493984D01*
X4155896Y-10493984D02*
X4136848Y-10493984D01*
X4136848Y-10493984D02*
X4117801Y-10484460D01*
X4117801Y-10484460D02*
X4108277Y-10474936D01*
X4108277Y-10474936D02*
X4098753Y-10455889D01*
X4098753Y-10455889D02*
X4089229Y-10417793D01*
X4089229Y-10417793D02*
X4089229Y-10370174D01*
X4089229Y-10370174D02*
X4098753Y-10332079D01*
X4098753Y-10332079D02*
X4108277Y-10313031D01*
X4108277Y-10313031D02*
X4117801Y-10303508D01*
X4117801Y-10303508D02*
X4136848Y-10293984D01*
X4393991Y-10493984D02*
X4279706Y-10493984D01*
X4336848Y-10493984D02*
X4336848Y-10293984D01*
X4336848Y-10293984D02*
X4317801Y-10322555D01*
X4317801Y-10322555D02*
X4298753Y-10341603D01*
X4298753Y-10341603D02*
X4279706Y-10351127D01*
X4584468Y-10493984D02*
X4470182Y-10493984D01*
X4527325Y-10493984D02*
X4527325Y-10293984D01*
X4527325Y-10293984D02*
X4508277Y-10322555D01*
X4508277Y-10322555D02*
X4489229Y-10341603D01*
X4489229Y-10341603D02*
X4470182Y-10351127D01*
X4698753Y-10379698D02*
X4679706Y-10370174D01*
X4679706Y-10370174D02*
X4670182Y-10360650D01*
X4670182Y-10360650D02*
X4660658Y-10341603D01*
X4660658Y-10341603D02*
X4660658Y-10332079D01*
X4660658Y-10332079D02*
X4670182Y-10313031D01*
X4670182Y-10313031D02*
X4679706Y-10303508D01*
X4679706Y-10303508D02*
X4698753Y-10293984D01*
X4698753Y-10293984D02*
X4736849Y-10293984D01*
X4736849Y-10293984D02*
X4755896Y-10303508D01*
X4755896Y-10303508D02*
X4765420Y-10313031D01*
X4765420Y-10313031D02*
X4774944Y-10332079D01*
X4774944Y-10332079D02*
X4774944Y-10341603D01*
X4774944Y-10341603D02*
X4765420Y-10360650D01*
X4765420Y-10360650D02*
X4755896Y-10370174D01*
X4755896Y-10370174D02*
X4736849Y-10379698D01*
X4736849Y-10379698D02*
X4698753Y-10379698D01*
X4698753Y-10379698D02*
X4679706Y-10389222D01*
X4679706Y-10389222D02*
X4670182Y-10398746D01*
X4670182Y-10398746D02*
X4660658Y-10417793D01*
X4660658Y-10417793D02*
X4660658Y-10455889D01*
X4660658Y-10455889D02*
X4670182Y-10474936D01*
X4670182Y-10474936D02*
X4679706Y-10484460D01*
X4679706Y-10484460D02*
X4698753Y-10493984D01*
X4698753Y-10493984D02*
X4736849Y-10493984D01*
X4736849Y-10493984D02*
X4755896Y-10484460D01*
X4755896Y-10484460D02*
X4765420Y-10474936D01*
X4765420Y-10474936D02*
X4774944Y-10455889D01*
X4774944Y-10455889D02*
X4774944Y-10417793D01*
X4774944Y-10417793D02*
X4765420Y-10398746D01*
X4765420Y-10398746D02*
X4755896Y-10389222D01*
X4755896Y-10389222D02*
X4736849Y-10379698D01*
X4851134Y-10293984D02*
X4851134Y-10332079D01*
X4927325Y-10293984D02*
X4927325Y-10332079D01*
X5222563Y-10570174D02*
X5213039Y-10560650D01*
X5213039Y-10560650D02*
X5193991Y-10532079D01*
X5193991Y-10532079D02*
X5184468Y-10513031D01*
X5184468Y-10513031D02*
X5174944Y-10484460D01*
X5174944Y-10484460D02*
X5165420Y-10436841D01*
X5165420Y-10436841D02*
X5165420Y-10398746D01*
X5165420Y-10398746D02*
X5174944Y-10351127D01*
X5174944Y-10351127D02*
X5184468Y-10322555D01*
X5184468Y-10322555D02*
X5193991Y-10303508D01*
X5193991Y-10303508D02*
X5213039Y-10274936D01*
X5213039Y-10274936D02*
X5222563Y-10265412D01*
X5289230Y-10313031D02*
X5298753Y-10303508D01*
X5298753Y-10303508D02*
X5317801Y-10293984D01*
X5317801Y-10293984D02*
X5365420Y-10293984D01*
X5365420Y-10293984D02*
X5384468Y-10303508D01*
X5384468Y-10303508D02*
X5393991Y-10313031D01*
X5393991Y-10313031D02*
X5403515Y-10332079D01*
X5403515Y-10332079D02*
X5403515Y-10351127D01*
X5403515Y-10351127D02*
X5393991Y-10379698D01*
X5393991Y-10379698D02*
X5279706Y-10493984D01*
X5279706Y-10493984D02*
X5403515Y-10493984D01*
X5498753Y-10493984D02*
X5536849Y-10493984D01*
X5536849Y-10493984D02*
X5555896Y-10484460D01*
X5555896Y-10484460D02*
X5565420Y-10474936D01*
X5565420Y-10474936D02*
X5584468Y-10446365D01*
X5584468Y-10446365D02*
X5593991Y-10408270D01*
X5593991Y-10408270D02*
X5593991Y-10332079D01*
X5593991Y-10332079D02*
X5584468Y-10313031D01*
X5584468Y-10313031D02*
X5574944Y-10303508D01*
X5574944Y-10303508D02*
X5555896Y-10293984D01*
X5555896Y-10293984D02*
X5517801Y-10293984D01*
X5517801Y-10293984D02*
X5498753Y-10303508D01*
X5498753Y-10303508D02*
X5489230Y-10313031D01*
X5489230Y-10313031D02*
X5479706Y-10332079D01*
X5479706Y-10332079D02*
X5479706Y-10379698D01*
X5479706Y-10379698D02*
X5489230Y-10398746D01*
X5489230Y-10398746D02*
X5498753Y-10408270D01*
X5498753Y-10408270D02*
X5517801Y-10417793D01*
X5517801Y-10417793D02*
X5555896Y-10417793D01*
X5555896Y-10417793D02*
X5574944Y-10408270D01*
X5574944Y-10408270D02*
X5584468Y-10398746D01*
X5584468Y-10398746D02*
X5593991Y-10379698D01*
X5765420Y-10360650D02*
X5765420Y-10493984D01*
X5717801Y-10284460D02*
X5670182Y-10427317D01*
X5670182Y-10427317D02*
X5793991Y-10427317D01*
X6022563Y-10493984D02*
X6022563Y-10293984D01*
X6108277Y-10493984D02*
X6108277Y-10389222D01*
X6108277Y-10389222D02*
X6098753Y-10370174D01*
X6098753Y-10370174D02*
X6079706Y-10360650D01*
X6079706Y-10360650D02*
X6051134Y-10360650D01*
X6051134Y-10360650D02*
X6032087Y-10370174D01*
X6032087Y-10370174D02*
X6022563Y-10379698D01*
X6232087Y-10493984D02*
X6213039Y-10484460D01*
X6213039Y-10484460D02*
X6203515Y-10474936D01*
X6203515Y-10474936D02*
X6193991Y-10455889D01*
X6193991Y-10455889D02*
X6193991Y-10398746D01*
X6193991Y-10398746D02*
X6203515Y-10379698D01*
X6203515Y-10379698D02*
X6213039Y-10370174D01*
X6213039Y-10370174D02*
X6232087Y-10360650D01*
X6232087Y-10360650D02*
X6260658Y-10360650D01*
X6260658Y-10360650D02*
X6279706Y-10370174D01*
X6279706Y-10370174D02*
X6289230Y-10379698D01*
X6289230Y-10379698D02*
X6298753Y-10398746D01*
X6298753Y-10398746D02*
X6298753Y-10455889D01*
X6298753Y-10455889D02*
X6289230Y-10474936D01*
X6289230Y-10474936D02*
X6279706Y-10484460D01*
X6279706Y-10484460D02*
X6260658Y-10493984D01*
X6260658Y-10493984D02*
X6232087Y-10493984D01*
X6413039Y-10493984D02*
X6393991Y-10484460D01*
X6393991Y-10484460D02*
X6384468Y-10465412D01*
X6384468Y-10465412D02*
X6384468Y-10293984D01*
X6565420Y-10484460D02*
X6546372Y-10493984D01*
X6546372Y-10493984D02*
X6508277Y-10493984D01*
X6508277Y-10493984D02*
X6489230Y-10484460D01*
X6489230Y-10484460D02*
X6479706Y-10465412D01*
X6479706Y-10465412D02*
X6479706Y-10389222D01*
X6479706Y-10389222D02*
X6489230Y-10370174D01*
X6489230Y-10370174D02*
X6508277Y-10360650D01*
X6508277Y-10360650D02*
X6546372Y-10360650D01*
X6546372Y-10360650D02*
X6565420Y-10370174D01*
X6565420Y-10370174D02*
X6574944Y-10389222D01*
X6574944Y-10389222D02*
X6574944Y-10408270D01*
X6574944Y-10408270D02*
X6479706Y-10427317D01*
X6651134Y-10484460D02*
X6670182Y-10493984D01*
X6670182Y-10493984D02*
X6708277Y-10493984D01*
X6708277Y-10493984D02*
X6727325Y-10484460D01*
X6727325Y-10484460D02*
X6736849Y-10465412D01*
X6736849Y-10465412D02*
X6736849Y-10455889D01*
X6736849Y-10455889D02*
X6727325Y-10436841D01*
X6727325Y-10436841D02*
X6708277Y-10427317D01*
X6708277Y-10427317D02*
X6679706Y-10427317D01*
X6679706Y-10427317D02*
X6660658Y-10417793D01*
X6660658Y-10417793D02*
X6651134Y-10398746D01*
X6651134Y-10398746D02*
X6651134Y-10389222D01*
X6651134Y-10389222D02*
X6660658Y-10370174D01*
X6660658Y-10370174D02*
X6679706Y-10360650D01*
X6679706Y-10360650D02*
X6708277Y-10360650D01*
X6708277Y-10360650D02*
X6727325Y-10370174D01*
X6803515Y-10570174D02*
X6813039Y-10560650D01*
X6813039Y-10560650D02*
X6832087Y-10532079D01*
X6832087Y-10532079D02*
X6841611Y-10513031D01*
X6841611Y-10513031D02*
X6851134Y-10484460D01*
X6851134Y-10484460D02*
X6860658Y-10436841D01*
X6860658Y-10436841D02*
X6860658Y-10398746D01*
X6860658Y-10398746D02*
X6851134Y-10351127D01*
X6851134Y-10351127D02*
X6841611Y-10322555D01*
X6841611Y-10322555D02*
X6832087Y-10303508D01*
X6832087Y-10303508D02*
X6813039Y-10274936D01*
X6813039Y-10274936D02*
X6803515Y-10265412D01*
D11*
X1647500Y-10666500D02*
G75*
G02*
X1547500Y-10666500I-50000J0D01*
G01*
X1547500Y-10666500D02*
G75*
G02*
X1647500Y-10666500I50000J0D01*
G01*
D12*
X2013039Y-10757984D02*
X1898753Y-10757984D01*
X1955896Y-10757984D02*
X1955896Y-10557984D01*
X1955896Y-10557984D02*
X1936848Y-10586555D01*
X1936848Y-10586555D02*
X1917801Y-10605603D01*
X1917801Y-10605603D02*
X1898753Y-10615127D01*
X2098753Y-10738936D02*
X2108277Y-10748460D01*
X2108277Y-10748460D02*
X2098753Y-10757984D01*
X2098753Y-10757984D02*
X2089229Y-10748460D01*
X2089229Y-10748460D02*
X2098753Y-10738936D01*
X2098753Y-10738936D02*
X2098753Y-10757984D01*
X2232086Y-10557984D02*
X2251134Y-10557984D01*
X2251134Y-10557984D02*
X2270182Y-10567508D01*
X2270182Y-10567508D02*
X2279705Y-10577031D01*
X2279705Y-10577031D02*
X2289229Y-10596079D01*
X2289229Y-10596079D02*
X2298753Y-10634174D01*
X2298753Y-10634174D02*
X2298753Y-10681793D01*
X2298753Y-10681793D02*
X2289229Y-10719889D01*
X2289229Y-10719889D02*
X2279705Y-10738936D01*
X2279705Y-10738936D02*
X2270182Y-10748460D01*
X2270182Y-10748460D02*
X2251134Y-10757984D01*
X2251134Y-10757984D02*
X2232086Y-10757984D01*
X2232086Y-10757984D02*
X2213039Y-10748460D01*
X2213039Y-10748460D02*
X2203515Y-10738936D01*
X2203515Y-10738936D02*
X2193991Y-10719889D01*
X2193991Y-10719889D02*
X2184467Y-10681793D01*
X2184467Y-10681793D02*
X2184467Y-10634174D01*
X2184467Y-10634174D02*
X2193991Y-10596079D01*
X2193991Y-10596079D02*
X2203515Y-10577031D01*
X2203515Y-10577031D02*
X2213039Y-10567508D01*
X2213039Y-10567508D02*
X2232086Y-10557984D01*
X2422563Y-10557984D02*
X2441610Y-10557984D01*
X2441610Y-10557984D02*
X2460658Y-10567508D01*
X2460658Y-10567508D02*
X2470182Y-10577031D01*
X2470182Y-10577031D02*
X2479705Y-10596079D01*
X2479705Y-10596079D02*
X2489229Y-10634174D01*
X2489229Y-10634174D02*
X2489229Y-10681793D01*
X2489229Y-10681793D02*
X2479705Y-10719889D01*
X2479705Y-10719889D02*
X2470182Y-10738936D01*
X2470182Y-10738936D02*
X2460658Y-10748460D01*
X2460658Y-10748460D02*
X2441610Y-10757984D01*
X2441610Y-10757984D02*
X2422563Y-10757984D01*
X2422563Y-10757984D02*
X2403515Y-10748460D01*
X2403515Y-10748460D02*
X2393991Y-10738936D01*
X2393991Y-10738936D02*
X2384467Y-10719889D01*
X2384467Y-10719889D02*
X2374944Y-10681793D01*
X2374944Y-10681793D02*
X2374944Y-10634174D01*
X2374944Y-10634174D02*
X2384467Y-10596079D01*
X2384467Y-10596079D02*
X2393991Y-10577031D01*
X2393991Y-10577031D02*
X2403515Y-10567508D01*
X2403515Y-10567508D02*
X2422563Y-10557984D01*
X2613039Y-10557984D02*
X2632086Y-10557984D01*
X2632086Y-10557984D02*
X2651134Y-10567508D01*
X2651134Y-10567508D02*
X2660658Y-10577031D01*
X2660658Y-10577031D02*
X2670182Y-10596079D01*
X2670182Y-10596079D02*
X2679705Y-10634174D01*
X2679705Y-10634174D02*
X2679705Y-10681793D01*
X2679705Y-10681793D02*
X2670182Y-10719889D01*
X2670182Y-10719889D02*
X2660658Y-10738936D01*
X2660658Y-10738936D02*
X2651134Y-10748460D01*
X2651134Y-10748460D02*
X2632086Y-10757984D01*
X2632086Y-10757984D02*
X2613039Y-10757984D01*
X2613039Y-10757984D02*
X2593991Y-10748460D01*
X2593991Y-10748460D02*
X2584467Y-10738936D01*
X2584467Y-10738936D02*
X2574944Y-10719889D01*
X2574944Y-10719889D02*
X2565420Y-10681793D01*
X2565420Y-10681793D02*
X2565420Y-10634174D01*
X2565420Y-10634174D02*
X2574944Y-10596079D01*
X2574944Y-10596079D02*
X2584467Y-10577031D01*
X2584467Y-10577031D02*
X2593991Y-10567508D01*
X2593991Y-10567508D02*
X2613039Y-10557984D01*
X2765420Y-10757984D02*
X2765420Y-10624650D01*
X2765420Y-10643698D02*
X2774944Y-10634174D01*
X2774944Y-10634174D02*
X2793991Y-10624650D01*
X2793991Y-10624650D02*
X2822563Y-10624650D01*
X2822563Y-10624650D02*
X2841610Y-10634174D01*
X2841610Y-10634174D02*
X2851134Y-10653222D01*
X2851134Y-10653222D02*
X2851134Y-10757984D01*
X2851134Y-10653222D02*
X2860658Y-10634174D01*
X2860658Y-10634174D02*
X2879705Y-10624650D01*
X2879705Y-10624650D02*
X2908277Y-10624650D01*
X2908277Y-10624650D02*
X2927324Y-10634174D01*
X2927324Y-10634174D02*
X2936848Y-10653222D01*
X2936848Y-10653222D02*
X2936848Y-10757984D01*
X3032086Y-10757984D02*
X3032086Y-10624650D01*
X3032086Y-10643698D02*
X3041610Y-10634174D01*
X3041610Y-10634174D02*
X3060658Y-10624650D01*
X3060658Y-10624650D02*
X3089229Y-10624650D01*
X3089229Y-10624650D02*
X3108277Y-10634174D01*
X3108277Y-10634174D02*
X3117801Y-10653222D01*
X3117801Y-10653222D02*
X3117801Y-10757984D01*
X3117801Y-10653222D02*
X3127324Y-10634174D01*
X3127324Y-10634174D02*
X3146372Y-10624650D01*
X3146372Y-10624650D02*
X3174943Y-10624650D01*
X3174943Y-10624650D02*
X3193991Y-10634174D01*
X3193991Y-10634174D02*
X3203515Y-10653222D01*
X3203515Y-10653222D02*
X3203515Y-10757984D01*
X3593991Y-10548460D02*
X3422563Y-10805603D01*
X3851134Y-10557984D02*
X3870182Y-10557984D01*
X3870182Y-10557984D02*
X3889229Y-10567508D01*
X3889229Y-10567508D02*
X3898753Y-10577031D01*
X3898753Y-10577031D02*
X3908277Y-10596079D01*
X3908277Y-10596079D02*
X3917801Y-10634174D01*
X3917801Y-10634174D02*
X3917801Y-10681793D01*
X3917801Y-10681793D02*
X3908277Y-10719889D01*
X3908277Y-10719889D02*
X3898753Y-10738936D01*
X3898753Y-10738936D02*
X3889229Y-10748460D01*
X3889229Y-10748460D02*
X3870182Y-10757984D01*
X3870182Y-10757984D02*
X3851134Y-10757984D01*
X3851134Y-10757984D02*
X3832086Y-10748460D01*
X3832086Y-10748460D02*
X3822563Y-10738936D01*
X3822563Y-10738936D02*
X3813039Y-10719889D01*
X3813039Y-10719889D02*
X3803515Y-10681793D01*
X3803515Y-10681793D02*
X3803515Y-10634174D01*
X3803515Y-10634174D02*
X3813039Y-10596079D01*
X3813039Y-10596079D02*
X3822563Y-10577031D01*
X3822563Y-10577031D02*
X3832086Y-10567508D01*
X3832086Y-10567508D02*
X3851134Y-10557984D01*
X4003515Y-10738936D02*
X4013039Y-10748460D01*
X4013039Y-10748460D02*
X4003515Y-10757984D01*
X4003515Y-10757984D02*
X3993991Y-10748460D01*
X3993991Y-10748460D02*
X4003515Y-10738936D01*
X4003515Y-10738936D02*
X4003515Y-10757984D01*
X4136848Y-10557984D02*
X4155896Y-10557984D01*
X4155896Y-10557984D02*
X4174944Y-10567508D01*
X4174944Y-10567508D02*
X4184467Y-10577031D01*
X4184467Y-10577031D02*
X4193991Y-10596079D01*
X4193991Y-10596079D02*
X4203515Y-10634174D01*
X4203515Y-10634174D02*
X4203515Y-10681793D01*
X4203515Y-10681793D02*
X4193991Y-10719889D01*
X4193991Y-10719889D02*
X4184467Y-10738936D01*
X4184467Y-10738936D02*
X4174944Y-10748460D01*
X4174944Y-10748460D02*
X4155896Y-10757984D01*
X4155896Y-10757984D02*
X4136848Y-10757984D01*
X4136848Y-10757984D02*
X4117801Y-10748460D01*
X4117801Y-10748460D02*
X4108277Y-10738936D01*
X4108277Y-10738936D02*
X4098753Y-10719889D01*
X4098753Y-10719889D02*
X4089229Y-10681793D01*
X4089229Y-10681793D02*
X4089229Y-10634174D01*
X4089229Y-10634174D02*
X4098753Y-10596079D01*
X4098753Y-10596079D02*
X4108277Y-10577031D01*
X4108277Y-10577031D02*
X4117801Y-10567508D01*
X4117801Y-10567508D02*
X4136848Y-10557984D01*
X4270182Y-10557984D02*
X4393991Y-10557984D01*
X4393991Y-10557984D02*
X4327325Y-10634174D01*
X4327325Y-10634174D02*
X4355896Y-10634174D01*
X4355896Y-10634174D02*
X4374944Y-10643698D01*
X4374944Y-10643698D02*
X4384468Y-10653222D01*
X4384468Y-10653222D02*
X4393991Y-10672270D01*
X4393991Y-10672270D02*
X4393991Y-10719889D01*
X4393991Y-10719889D02*
X4384468Y-10738936D01*
X4384468Y-10738936D02*
X4374944Y-10748460D01*
X4374944Y-10748460D02*
X4355896Y-10757984D01*
X4355896Y-10757984D02*
X4298753Y-10757984D01*
X4298753Y-10757984D02*
X4279706Y-10748460D01*
X4279706Y-10748460D02*
X4270182Y-10738936D01*
X4489229Y-10757984D02*
X4527325Y-10757984D01*
X4527325Y-10757984D02*
X4546372Y-10748460D01*
X4546372Y-10748460D02*
X4555896Y-10738936D01*
X4555896Y-10738936D02*
X4574944Y-10710365D01*
X4574944Y-10710365D02*
X4584468Y-10672270D01*
X4584468Y-10672270D02*
X4584468Y-10596079D01*
X4584468Y-10596079D02*
X4574944Y-10577031D01*
X4574944Y-10577031D02*
X4565420Y-10567508D01*
X4565420Y-10567508D02*
X4546372Y-10557984D01*
X4546372Y-10557984D02*
X4508277Y-10557984D01*
X4508277Y-10557984D02*
X4489229Y-10567508D01*
X4489229Y-10567508D02*
X4479706Y-10577031D01*
X4479706Y-10577031D02*
X4470182Y-10596079D01*
X4470182Y-10596079D02*
X4470182Y-10643698D01*
X4470182Y-10643698D02*
X4479706Y-10662746D01*
X4479706Y-10662746D02*
X4489229Y-10672270D01*
X4489229Y-10672270D02*
X4508277Y-10681793D01*
X4508277Y-10681793D02*
X4546372Y-10681793D01*
X4546372Y-10681793D02*
X4565420Y-10672270D01*
X4565420Y-10672270D02*
X4574944Y-10662746D01*
X4574944Y-10662746D02*
X4584468Y-10643698D01*
X4755896Y-10624650D02*
X4755896Y-10757984D01*
X4708277Y-10548460D02*
X4660658Y-10691317D01*
X4660658Y-10691317D02*
X4784468Y-10691317D01*
X4851134Y-10557984D02*
X4851134Y-10596079D01*
X4927325Y-10557984D02*
X4927325Y-10596079D01*
X5222563Y-10834174D02*
X5213039Y-10824650D01*
X5213039Y-10824650D02*
X5193991Y-10796079D01*
X5193991Y-10796079D02*
X5184468Y-10777031D01*
X5184468Y-10777031D02*
X5174944Y-10748460D01*
X5174944Y-10748460D02*
X5165420Y-10700841D01*
X5165420Y-10700841D02*
X5165420Y-10662746D01*
X5165420Y-10662746D02*
X5174944Y-10615127D01*
X5174944Y-10615127D02*
X5184468Y-10586555D01*
X5184468Y-10586555D02*
X5193991Y-10567508D01*
X5193991Y-10567508D02*
X5213039Y-10538936D01*
X5213039Y-10538936D02*
X5222563Y-10529412D01*
X5393991Y-10557984D02*
X5298753Y-10557984D01*
X5298753Y-10557984D02*
X5289230Y-10653222D01*
X5289230Y-10653222D02*
X5298753Y-10643698D01*
X5298753Y-10643698D02*
X5317801Y-10634174D01*
X5317801Y-10634174D02*
X5365420Y-10634174D01*
X5365420Y-10634174D02*
X5384468Y-10643698D01*
X5384468Y-10643698D02*
X5393991Y-10653222D01*
X5393991Y-10653222D02*
X5403515Y-10672270D01*
X5403515Y-10672270D02*
X5403515Y-10719889D01*
X5403515Y-10719889D02*
X5393991Y-10738936D01*
X5393991Y-10738936D02*
X5384468Y-10748460D01*
X5384468Y-10748460D02*
X5365420Y-10757984D01*
X5365420Y-10757984D02*
X5317801Y-10757984D01*
X5317801Y-10757984D02*
X5298753Y-10748460D01*
X5298753Y-10748460D02*
X5289230Y-10738936D01*
X5470182Y-10557984D02*
X5593991Y-10557984D01*
X5593991Y-10557984D02*
X5527325Y-10634174D01*
X5527325Y-10634174D02*
X5555896Y-10634174D01*
X5555896Y-10634174D02*
X5574944Y-10643698D01*
X5574944Y-10643698D02*
X5584468Y-10653222D01*
X5584468Y-10653222D02*
X5593991Y-10672270D01*
X5593991Y-10672270D02*
X5593991Y-10719889D01*
X5593991Y-10719889D02*
X5584468Y-10738936D01*
X5584468Y-10738936D02*
X5574944Y-10748460D01*
X5574944Y-10748460D02*
X5555896Y-10757984D01*
X5555896Y-10757984D02*
X5498753Y-10757984D01*
X5498753Y-10757984D02*
X5479706Y-10748460D01*
X5479706Y-10748460D02*
X5470182Y-10738936D01*
X5832087Y-10757984D02*
X5832087Y-10557984D01*
X5917801Y-10757984D02*
X5917801Y-10653222D01*
X5917801Y-10653222D02*
X5908277Y-10634174D01*
X5908277Y-10634174D02*
X5889230Y-10624650D01*
X5889230Y-10624650D02*
X5860658Y-10624650D01*
X5860658Y-10624650D02*
X5841610Y-10634174D01*
X5841610Y-10634174D02*
X5832087Y-10643698D01*
X6041610Y-10757984D02*
X6022563Y-10748460D01*
X6022563Y-10748460D02*
X6013039Y-10738936D01*
X6013039Y-10738936D02*
X6003515Y-10719889D01*
X6003515Y-10719889D02*
X6003515Y-10662746D01*
X6003515Y-10662746D02*
X6013039Y-10643698D01*
X6013039Y-10643698D02*
X6022563Y-10634174D01*
X6022563Y-10634174D02*
X6041610Y-10624650D01*
X6041610Y-10624650D02*
X6070182Y-10624650D01*
X6070182Y-10624650D02*
X6089230Y-10634174D01*
X6089230Y-10634174D02*
X6098753Y-10643698D01*
X6098753Y-10643698D02*
X6108277Y-10662746D01*
X6108277Y-10662746D02*
X6108277Y-10719889D01*
X6108277Y-10719889D02*
X6098753Y-10738936D01*
X6098753Y-10738936D02*
X6089230Y-10748460D01*
X6089230Y-10748460D02*
X6070182Y-10757984D01*
X6070182Y-10757984D02*
X6041610Y-10757984D01*
X6222563Y-10757984D02*
X6203515Y-10748460D01*
X6203515Y-10748460D02*
X6193991Y-10729412D01*
X6193991Y-10729412D02*
X6193991Y-10557984D01*
X6374944Y-10748460D02*
X6355896Y-10757984D01*
X6355896Y-10757984D02*
X6317801Y-10757984D01*
X6317801Y-10757984D02*
X6298753Y-10748460D01*
X6298753Y-10748460D02*
X6289230Y-10729412D01*
X6289230Y-10729412D02*
X6289230Y-10653222D01*
X6289230Y-10653222D02*
X6298753Y-10634174D01*
X6298753Y-10634174D02*
X6317801Y-10624650D01*
X6317801Y-10624650D02*
X6355896Y-10624650D01*
X6355896Y-10624650D02*
X6374944Y-10634174D01*
X6374944Y-10634174D02*
X6384468Y-10653222D01*
X6384468Y-10653222D02*
X6384468Y-10672270D01*
X6384468Y-10672270D02*
X6289230Y-10691317D01*
X6460658Y-10748460D02*
X6479706Y-10757984D01*
X6479706Y-10757984D02*
X6517801Y-10757984D01*
X6517801Y-10757984D02*
X6536849Y-10748460D01*
X6536849Y-10748460D02*
X6546372Y-10729412D01*
X6546372Y-10729412D02*
X6546372Y-10719889D01*
X6546372Y-10719889D02*
X6536849Y-10700841D01*
X6536849Y-10700841D02*
X6517801Y-10691317D01*
X6517801Y-10691317D02*
X6489230Y-10691317D01*
X6489230Y-10691317D02*
X6470182Y-10681793D01*
X6470182Y-10681793D02*
X6460658Y-10662746D01*
X6460658Y-10662746D02*
X6460658Y-10653222D01*
X6460658Y-10653222D02*
X6470182Y-10634174D01*
X6470182Y-10634174D02*
X6489230Y-10624650D01*
X6489230Y-10624650D02*
X6517801Y-10624650D01*
X6517801Y-10624650D02*
X6536849Y-10634174D01*
X6613039Y-10834174D02*
X6622563Y-10824650D01*
X6622563Y-10824650D02*
X6641611Y-10796079D01*
X6641611Y-10796079D02*
X6651134Y-10777031D01*
X6651134Y-10777031D02*
X6660658Y-10748460D01*
X6660658Y-10748460D02*
X6670182Y-10700841D01*
X6670182Y-10700841D02*
X6670182Y-10662746D01*
X6670182Y-10662746D02*
X6660658Y-10615127D01*
X6660658Y-10615127D02*
X6651134Y-10586555D01*
X6651134Y-10586555D02*
X6641611Y-10567508D01*
X6641611Y-10567508D02*
X6622563Y-10538936D01*
X6622563Y-10538936D02*
X6613039Y-10529412D01*
M02*
