M48
; DRILL file {KiCad 9.0.0} date 2025-03-20T15:30:15+0900
; FORMAT={-:-/ absolute / metric / decimal}
; #@! TF.CreationDate,2025-03-20T15:30:15+09:00
; #@! TF.GenerationSoftware,Kicad,Pcbnew,9.0.0
; #@! TF.FileFunction,Plated,1,2,PTH
FMAT,2
METRIC
; #@! TA.AperFunction,Plated,PTH,ViaDrill
T1C0.300
; #@! TA.AperFunction,Plated,PTH,ComponentDrill
T2C1.000
%
G90
G05
T1
X32.05Y-78.15
X33.15Y-41.65
X33.15Y-48.85
X33.6Y-75.5
X34.169Y-43.023
X34.169Y-43.023
X34.798Y-55.906
X35.75Y-37.75
X35.83Y-67.473
X35.83Y-73.4
X36.084Y-48.9
X36.23Y-55.906
X36.23Y-62.885
X47.718Y-55.624
X47.718Y-73.397
X47.75Y-35.114
X47.75Y-40.641
X47.773Y-69.007
X49.55Y-36.1
X50.15Y-55.624
X50.45Y-50.316
X53.809Y-50.316
X56.559Y-35.053
X57.161Y-41.478
X59.214Y-36.584
X60.57Y-36.898
X60.6Y-41.574
X62.35Y-35.159
X62.35Y-40.428
X64.152Y-36.95
X64.781Y-30.78
X64.781Y-69.693
X64.781Y-70.733
X65.317Y-73.397
X65.397Y-41.574
X66.3Y-70.733
X66.3Y-78.396
X66.366Y-75.179
X68.655Y-43.39
X71.58Y-38.274
X71.58Y-42.788
X74.852Y-39.879
X77.31Y-41.997
X77.323Y-38.01
X78.227Y-75.179
X78.227Y-78.588
X78.518Y-40.967
X78.893Y-43.807
X79.35Y-39.724
X79.51Y-41.568
X79.51Y-46.738
X82.453Y-23.271
X82.453Y-43.76
X83.609Y-55.455
X84.379Y-39.788
X84.379Y-49.86
X84.411Y-78.588
X84.424Y-81.369
X84.822Y-67.221
X88.192Y-55.357
X88.192Y-58.586
X88.192Y-67.221
X88.775Y-46.738
X89.65Y-43.76
X90.068Y-63.565
X90.947Y-46.767
X90.95Y-41.748
X94.225Y-44.558
X94.446Y-41.146
X95.121Y-41.748
X95.181Y-47.537
X95.788Y-45.241
X95.788Y-51.44
X96.35Y-67.473
X96.35Y-82.283
X96.401Y-46.767
X96.68Y-40.573
X96.986Y-45.184
X98.155Y-46.423
X98.216Y-63.565
X98.216Y-75.4
X98.928Y-73.083
X99.171Y-45.717
X99.343Y-46.74
X99.487Y-48.9
X99.487Y-52.662
X101.3Y-56.743
X101.407Y-79.26
X101.407Y-81.431
X101.519Y-78.256
X102.462Y-44.259
X103.792Y-78.645
X103.792Y-82.283
X105.942Y-78.015
X106.45Y-66.1
X107.09Y-78.645
X107.85Y-46.754
X107.877Y-50.35
X109.932Y-47.537
X111.3Y-46.011
X112.067Y-70.146
X113.35Y-46.754
X113.35Y-50.35
X113.612Y-81.431
X116.032Y-70.146
X116.032Y-80.779
X122.026Y-58.586
X123.256Y-41.285
X125.1Y-61.919
X125.1Y-78.941
X125.158Y-75.839
X131.526Y-58.586
X132.505Y-53.911
X133.155Y-73.898
X133.796Y-56.2
X133.846Y-75.839
X135.046Y-54.113
X135.166Y-81.776
X135.695Y-57.552
X136.324Y-69.296
X136.356Y-79.321
X136.965Y-70.435
X137.15Y-54.747
X137.6Y-69.529
X137.6Y-77.791
X138.235Y-74.619
X138.27Y-68.8
X138.87Y-63.82
X138.87Y-75.4
X139.045Y-40.026
X139.08Y-57.278
X139.379Y-62.432
X139.505Y-69.748
X139.57Y-55.86
X140.048Y-37.827
X140.048Y-42.045
X140.182Y-54.747
X140.775Y-73.964
X141.933Y-73.964
X142.045Y-70.435
X142.25Y-35.233
X142.25Y-40.667
X142.873Y-63.696
X143.6Y-86.15
X144.288Y-62.519
X145.79Y-70.435
X145.79Y-71.325
X146.147Y-52.909
X146.147Y-56.48
X146.854Y-62.519
X147.848Y-63.568
X148.339Y-64.681
X148.525Y-61.549
X148.526Y-36.48
X148.526Y-37.797
X148.526Y-40.026
X148.998Y-66.608
X149.069Y-60.575
X149.365Y-70.54
X149.695Y-52.308
X149.874Y-37.348
X150.781Y-51.806
X150.781Y-57.278
X151.274Y-67.474
X151.274Y-73.397
X151.976Y-34.518
X151.976Y-40.667
X152.526Y-66.608
X153.09Y-38.268
X153.09Y-40.021
X153.486Y-75.962
X153.997Y-68.26
X154.599Y-66.25
X154.599Y-69.832
X155.854Y-54.754
X155.976Y-64.986
X156.0Y-35.878
X156.0Y-38.268
X156.251Y-32.812
X156.332Y-66.25
X156.576Y-50.814
X157.082Y-67.379
X157.635Y-49.832
X159.96Y-43.825
X159.96Y-54.692
X160.028Y-61.382
X160.028Y-70.54
X160.684Y-55.86
X161.034Y-44.451
X161.061Y-35.298
X161.061Y-38.268
X161.061Y-54.554
X161.262Y-43.01
X162.193Y-53.913
X162.193Y-55.419
X164.607Y-53.076
X164.607Y-61.382
X164.628Y-39.846
X164.628Y-43.825
X165.216Y-60.575
X165.216Y-62.243
X165.612Y-67.198
X165.612Y-71.325
X165.897Y-33.94
X167.295Y-63.016
X167.295Y-68.444
X168.482Y-55.419
X168.482Y-58.238
X169.409Y-53.712
X169.409Y-57.636
X170.136Y-54.554
X171.15Y-40.421
X172.719Y-40.421
X173.352Y-37.553
X173.58Y-32.78
X173.751Y-40.533
X173.904Y-55.624
X173.904Y-59.203
X174.026Y-35.328
X175.975Y-64.727
X175.975Y-68.686
X176.25Y-63.924
X179.668Y-68.318
X179.816Y-65.329
X180.993Y-68.347
X181.205Y-40.533
X181.764Y-35.504
X182.112Y-57.434
X182.15Y-64.104
X183.626Y-54.759
X183.647Y-60.717
X184.923Y-34.89
X184.923Y-37.852
X184.923Y-65.953
X184.923Y-68.701
X185.183Y-43.776
X188.15Y-64.707
X190.004Y-63.31
X191.009Y-43.776
X191.287Y-46.872
X192.126Y-37.852
X192.218Y-44.401
X192.4Y-53.234
X192.4Y-61.357
X193.753Y-42.985
X193.871Y-54.759
X193.871Y-57.619
X194.045Y-60.03
X194.856Y-54.849
X196.686Y-40.814
X196.803Y-43.776
X197.889Y-54.849
X198.307Y-68.163
X199.047Y-74.052
X200.055Y-62.644
X200.837Y-40.814
X200.961Y-61.357
X201.256Y-65.938
X201.657Y-72.762
X201.657Y-89.74
X201.69Y-42.985
X201.69Y-49.7
X201.715Y-60.717
X201.858Y-62.644
X202.281Y-67.481
X202.281Y-82.146
X202.291Y-43.776
X202.773Y-57.619
X202.85Y-46.738
X202.894Y-90.727
X203.264Y-62.66
X203.47Y-44.475
X203.603Y-53.359
X203.699Y-70.12
X204.054Y-65.938
X205.219Y-72.762
X205.45Y-44.475
X205.45Y-55.476
X207.826Y-50.282
X207.826Y-53.359
X208.0Y-67.508
X208.0Y-70.12
X209.224Y-63.813
X210.425Y-73.879
X211.058Y-84.007
X211.276Y-50.478
X211.45Y-67.008
X211.69Y-75.144
X211.69Y-82.405
X212.381Y-49.199
X217.35Y-49.199
X217.35Y-50.478
X217.35Y-67.008
X217.35Y-84.007
T2
X33.315Y-57.805
X33.315Y-60.345
X33.315Y-62.885
X33.315Y-65.425
X67.3Y-23.16
X67.3Y-25.7
X67.3Y-28.24
X67.3Y-30.78
X67.3Y-38.305
X67.3Y-40.845
X67.3Y-43.385
X67.3Y-45.925
X90.3Y-75.4
X92.8Y-75.4
X95.3Y-75.4
X101.3Y-46.36
X101.3Y-48.9
X101.3Y-51.44
X101.3Y-53.98
X101.315Y-31.305
X101.315Y-33.845
X101.315Y-36.385
X101.315Y-38.925
X137.3Y-39.505
X137.3Y-42.045
X137.3Y-44.585
X137.3Y-47.125
X137.3Y-56.2
X137.3Y-58.74
X137.3Y-61.28
X137.3Y-63.82
X143.29Y-75.4
X145.79Y-75.4
X148.29Y-75.4
X171.3Y-31.4
X171.3Y-33.94
X171.3Y-36.48
X171.3Y-39.02
X171.3Y-48.46
X171.3Y-51.0
X171.3Y-53.54
X171.3Y-56.08
X199.7Y-77.04
X199.7Y-79.58
X199.7Y-82.12
X199.7Y-84.66
X199.7Y-87.2
X199.7Y-89.74
X199.7Y-92.28
X205.3Y-62.5
X205.3Y-65.04
X205.3Y-67.58
X205.3Y-70.12
M30
