%TF.GenerationSoftware,KiCad,Pcbnew,9.0.0*%
%TF.CreationDate,2025-03-30T21:59:10+09:00*%
%TF.ProjectId,nofy,6e6f6679-2e6b-4696-9361-645f70636258,rev?*%
%TF.SameCoordinates,Original*%
%TF.FileFunction,Drillmap*%
%TF.FilePolarity,Positive*%
%FSLAX45Y45*%
G04 Gerber Fmt 4.5, Leading zero omitted, Abs format (unit mm)*
G04 Created by KiCad (PCBNEW 9.0.0) date 2025-03-30 21:59:10*
%MOMM*%
%LPD*%
G01*
G04 APERTURE LIST*
%ADD10C,0.050000*%
%ADD11C,0.200000*%
%ADD12C,0.100000*%
G04 APERTURE END LIST*
D10*
X5057350Y-1973300D02*
G75*
G02*
X4957350Y-2073300I-100000J0D01*
G01*
X8357350Y-6583300D02*
G75*
G02*
X8457350Y-6683300I0J-100000D01*
G01*
X1727350Y-2753300D02*
X1727350Y-9313300D01*
X6757350Y-1623300D02*
G75*
G02*
X6857350Y-1523300I100000J0D01*
G01*
X6717350Y-6683300D02*
G75*
G02*
X6817350Y-6583300I100000J0D01*
G01*
X9547350Y-9413300D02*
X11597350Y-9413300D01*
X3317350Y-9313300D02*
G75*
G02*
X3217350Y-9413300I-100000J0D01*
G01*
X6757350Y-1733300D02*
G75*
G02*
X6657350Y-1833300I-100000J0D01*
G01*
X10217350Y-2653299D02*
G75*
G02*
X10117351Y-2553299I0J99999D01*
G01*
X3317350Y-9313300D02*
X3317350Y-8933300D01*
X6757350Y-1623300D02*
X6757350Y-1733300D01*
X9447350Y-6993300D02*
X9447350Y-9313300D01*
X5017350Y-6993300D02*
G75*
G02*
X5117350Y-6893300I100000J0D01*
G01*
X8317350Y-1523300D02*
X6857350Y-1523300D01*
X10017350Y-1833300D02*
X8517350Y-1833300D01*
X9347350Y-6893300D02*
G75*
G02*
X9447350Y-6993300I0J-100000D01*
G01*
X6717350Y-6793300D02*
X6717350Y-6683300D01*
X8557350Y-6893300D02*
X9347350Y-6893300D01*
X8517350Y-1833300D02*
G75*
G02*
X8417350Y-1733300I0J100000D01*
G01*
X5117350Y-6893300D02*
X6617350Y-6893300D01*
X6657350Y-1833300D02*
X5157350Y-1833300D01*
X6717350Y-6793300D02*
G75*
G02*
X6617350Y-6893300I-100000J0D01*
G01*
X10017350Y-1833300D02*
G75*
G02*
X10117350Y-1933300I0J-100000D01*
G01*
X3357350Y-2173300D02*
G75*
G02*
X3457350Y-2073300I100000J0D01*
G01*
X1827350Y-9413300D02*
G75*
G02*
X1727350Y-9313300I0J100000D01*
G01*
X6817350Y-6583300D02*
X8357350Y-6583300D01*
X8557350Y-6893300D02*
G75*
G02*
X8457350Y-6793300I0J100000D01*
G01*
X1827350Y-9413300D02*
X3217350Y-9413300D01*
X1727350Y-2753300D02*
G75*
G02*
X1827350Y-2653300I100000J0D01*
G01*
X3357350Y-2553300D02*
X3357350Y-2173300D01*
X3257350Y-2653300D02*
X1827350Y-2653300D01*
X8317350Y-1523300D02*
G75*
G02*
X8417350Y-1623300I0J-100000D01*
G01*
X8457350Y-6683300D02*
X8457350Y-6793300D01*
X11697350Y-9313300D02*
X11697350Y-2753300D01*
X9547350Y-9413300D02*
G75*
G02*
X9447350Y-9313300I0J100000D01*
G01*
X3417350Y-8833300D02*
X4917350Y-8833300D01*
X8417350Y-1733300D02*
X8417350Y-1623300D01*
X4957350Y-2073300D02*
X3457350Y-2073300D01*
X5017350Y-8733300D02*
X5017350Y-6993300D01*
X10117350Y-2553299D02*
X10117350Y-1933300D01*
X11597350Y-2653300D02*
G75*
G02*
X11697350Y-2753300I0J-100000D01*
G01*
X3357350Y-2553300D02*
G75*
G02*
X3257350Y-2653300I-100000J0D01*
G01*
X3317350Y-8933300D02*
G75*
G02*
X3417350Y-8833300I100000J0D01*
G01*
X5057350Y-1933300D02*
X5057350Y-1973300D01*
X5057350Y-1933300D02*
G75*
G02*
X5157350Y-1833300I100000J0D01*
G01*
X5017350Y-8733300D02*
G75*
G02*
X4917350Y-8833300I-100000J0D01*
G01*
X11597350Y-2653300D02*
X10217350Y-2653299D01*
X11697350Y-9313300D02*
G75*
G02*
X11597350Y-9413300I-100000J0D01*
G01*
D11*
D12*
X1795000Y-5496950D02*
X1825000Y-5526950D01*
X1825000Y-5496950D02*
X1795000Y-5526950D01*
X1917990Y-3766800D02*
X1947990Y-3796800D01*
X1947990Y-3766800D02*
X1917990Y-3796800D01*
X2140960Y-7255000D02*
X2170960Y-7285000D01*
X2170960Y-7255000D02*
X2140960Y-7285000D01*
X2625000Y-7735000D02*
X2655000Y-7765000D01*
X2655000Y-7735000D02*
X2625000Y-7765000D01*
X2650000Y-5881470D02*
X2680000Y-5911470D01*
X2680000Y-5881470D02*
X2650000Y-5911470D01*
X2745000Y-5496950D02*
X2775000Y-5526950D01*
X2775000Y-5496950D02*
X2745000Y-5526950D01*
X2790000Y-4995000D02*
X2820000Y-5025000D01*
X2820000Y-4995000D02*
X2790000Y-5025000D01*
X2907850Y-7028110D02*
X2937850Y-7058110D01*
X2937850Y-7028110D02*
X2907850Y-7058110D01*
X2971950Y-5258300D02*
X3001950Y-5288300D01*
X3001950Y-5258300D02*
X2971950Y-5288300D01*
X3090000Y-7255000D02*
X3120000Y-7285000D01*
X3120000Y-7255000D02*
X3090000Y-7285000D01*
X3096940Y-5049610D02*
X3126940Y-5079610D01*
X3126940Y-5049610D02*
X3096940Y-5079610D01*
X3161850Y-5393460D02*
X3191850Y-5423460D01*
X3191850Y-5393460D02*
X3161850Y-5423460D01*
X3223275Y-6479212D02*
X3253275Y-6509212D01*
X3253275Y-6479212D02*
X3223275Y-6509212D01*
X3227930Y-7570420D02*
X3257930Y-7600420D01*
X3257930Y-7570420D02*
X3227930Y-7600420D01*
X3255000Y-7915000D02*
X3285000Y-7945000D01*
X3285000Y-7915000D02*
X3255000Y-7945000D01*
X3288850Y-6681790D02*
X3318850Y-6711790D01*
X3318850Y-6681790D02*
X3288850Y-6711790D01*
X3307350Y-5112970D02*
X3337350Y-5142970D01*
X3337350Y-5112970D02*
X3307350Y-5142970D01*
X3352360Y-6591240D02*
X3382360Y-6621240D01*
X3382360Y-6591240D02*
X3352360Y-6621240D01*
X3352360Y-7417450D02*
X3382360Y-7447450D01*
X3382360Y-7417450D02*
X3352360Y-7447450D01*
X3415000Y-7915000D02*
X3445000Y-7945000D01*
X3445000Y-7915000D02*
X3415000Y-7945000D01*
X3415850Y-7100240D02*
X3445850Y-7130240D01*
X3445850Y-7100240D02*
X3415850Y-7130240D01*
X3419360Y-6518300D02*
X3449360Y-6548300D01*
X3449360Y-6518300D02*
X3419360Y-6548300D01*
X3479360Y-6020300D02*
X3509360Y-6050300D01*
X3509360Y-6020300D02*
X3479360Y-6050300D01*
X3479360Y-7178300D02*
X3509360Y-7208300D01*
X3509360Y-7178300D02*
X3479360Y-7208300D01*
X3496890Y-3640850D02*
X3526890Y-3670850D01*
X3526890Y-3640850D02*
X3496890Y-3670850D01*
X3500380Y-5366150D02*
X3530380Y-5396150D01*
X3530380Y-5366150D02*
X3500380Y-5396150D01*
X3530220Y-5881470D02*
X3560220Y-5911470D01*
X3560220Y-5881470D02*
X3530220Y-5911470D01*
X3542850Y-6613060D02*
X3572850Y-6643060D01*
X3572850Y-6613060D02*
X3542850Y-6643060D01*
X3549340Y-5224280D02*
X3579340Y-5254280D01*
X3579340Y-5224280D02*
X3549340Y-5254280D01*
X3597120Y-3420970D02*
X3627120Y-3450970D01*
X3627120Y-3420970D02*
X3597120Y-3450970D01*
X3597120Y-3842800D02*
X3627120Y-3872800D01*
X3627120Y-3842800D02*
X3597120Y-3872800D01*
X3610560Y-5112970D02*
X3640560Y-5142970D01*
X3640560Y-5112970D02*
X3610560Y-5142970D01*
X3669850Y-7034730D02*
X3699850Y-7064730D01*
X3699850Y-7034730D02*
X3669850Y-7064730D01*
X3785620Y-7034730D02*
X3815620Y-7064730D01*
X3815620Y-7034730D02*
X3785620Y-7064730D01*
X3796850Y-6681790D02*
X3826850Y-6711790D01*
X3826850Y-6681790D02*
X3796850Y-6711790D01*
X3817350Y-3705000D02*
X3847350Y-3735000D01*
X3847350Y-3705000D02*
X3817350Y-3735000D01*
X3879630Y-6007930D02*
X3909630Y-6037930D01*
X3909630Y-6007930D02*
X3879630Y-6037930D01*
X4021180Y-5890220D02*
X4051180Y-5920220D01*
X4051180Y-5890220D02*
X4021180Y-5920220D01*
X4171350Y-6681790D02*
X4201350Y-6711790D01*
X4201350Y-6681790D02*
X4171350Y-6711790D01*
X4171350Y-6770840D02*
X4201350Y-6800840D01*
X4201350Y-6770840D02*
X4171350Y-6800840D01*
X4207100Y-4929250D02*
X4237100Y-4959250D01*
X4237100Y-4929250D02*
X4207100Y-4959250D01*
X4207100Y-5286310D02*
X4237100Y-5316310D01*
X4237100Y-5286310D02*
X4207100Y-5316310D01*
X4277730Y-5890220D02*
X4307730Y-5920220D01*
X4307730Y-5890220D02*
X4277730Y-5920220D01*
X4377160Y-5995120D02*
X4407160Y-6025120D01*
X4407160Y-5995120D02*
X4377160Y-6025120D01*
X4426220Y-6106390D02*
X4456220Y-6136390D01*
X4456220Y-6106390D02*
X4426220Y-6136390D01*
X4444830Y-5793160D02*
X4474830Y-5823160D01*
X4474830Y-5793160D02*
X4444830Y-5823160D01*
X4445000Y-3286300D02*
X4475000Y-3316300D01*
X4475000Y-3286300D02*
X4445000Y-3316300D01*
X4445000Y-3417980D02*
X4475000Y-3447980D01*
X4475000Y-3417980D02*
X4445000Y-3447980D01*
X4445000Y-3640850D02*
X4475000Y-3670850D01*
X4475000Y-3640850D02*
X4445000Y-3670850D01*
X4492180Y-6299140D02*
X4522180Y-6329140D01*
X4522180Y-6299140D02*
X4492180Y-6329140D01*
X4499250Y-5695800D02*
X4529250Y-5725800D01*
X4529250Y-5695800D02*
X4499250Y-5725800D01*
X4528830Y-6692340D02*
X4558830Y-6722340D01*
X4558830Y-6692340D02*
X4528830Y-6722340D01*
X4561900Y-4869080D02*
X4591900Y-4899080D01*
X4591900Y-4869080D02*
X4561900Y-4899080D01*
X4579750Y-3373090D02*
X4609750Y-3403090D01*
X4609750Y-3373090D02*
X4579750Y-3403090D01*
X4670430Y-4818930D02*
X4700430Y-4848930D01*
X4700430Y-4818930D02*
X4670430Y-4848930D01*
X4670430Y-5366150D02*
X4700430Y-5396150D01*
X4700430Y-5366150D02*
X4670430Y-5396150D01*
X4719750Y-6385740D02*
X4749750Y-6415740D01*
X4749750Y-6385740D02*
X4719750Y-6415740D01*
X4719750Y-6978000D02*
X4749750Y-7008000D01*
X4749750Y-6978000D02*
X4719750Y-7008000D01*
X4790000Y-3705000D02*
X4820000Y-3735000D01*
X4820000Y-3705000D02*
X4790000Y-3735000D01*
X4845000Y-6299140D02*
X4875000Y-6329140D01*
X4875000Y-6299140D02*
X4845000Y-6329140D01*
X4901390Y-3465090D02*
X4931390Y-3495090D01*
X4931390Y-3465090D02*
X4901390Y-3495090D01*
X4901390Y-3640360D02*
X4931390Y-3670360D01*
X4931390Y-3640360D02*
X4901390Y-3670360D01*
X4940980Y-7234510D02*
X4970980Y-7264510D01*
X4970980Y-7234510D02*
X4940980Y-7264510D01*
X4992080Y-6464340D02*
X5022080Y-6494340D01*
X5022080Y-6464340D02*
X4992080Y-6494340D01*
X5052250Y-6263310D02*
X5082250Y-6293310D01*
X5082250Y-6263310D02*
X5052250Y-6293310D01*
X5052250Y-6621510D02*
X5082250Y-6651510D01*
X5082250Y-6621510D02*
X5052250Y-6651510D01*
X5177780Y-5113740D02*
X5207780Y-5143740D01*
X5207780Y-5113740D02*
X5177780Y-5143740D01*
X5190000Y-6136880D02*
X5220000Y-6166880D01*
X5220000Y-6136880D02*
X5190000Y-6166880D01*
X5192350Y-3226140D02*
X5222350Y-3256140D01*
X5222350Y-3226140D02*
X5192350Y-3256140D01*
X5192350Y-3465090D02*
X5222350Y-3495090D01*
X5222350Y-3465090D02*
X5192350Y-3495090D01*
X5217480Y-2919510D02*
X5247480Y-2949510D01*
X5247480Y-2919510D02*
X5217480Y-2949510D01*
X5225520Y-6263310D02*
X5255520Y-6293310D01*
X5255520Y-6263310D02*
X5225520Y-6293310D01*
X5249970Y-4719720D02*
X5279970Y-4749720D01*
X5279970Y-4719720D02*
X5249970Y-4749720D01*
X5300550Y-6376250D02*
X5330550Y-6406250D01*
X5330550Y-6376250D02*
X5300550Y-6406250D01*
X5355820Y-4621460D02*
X5385820Y-4651460D01*
X5385820Y-4621460D02*
X5355820Y-4651460D01*
X5588370Y-4020800D02*
X5618370Y-4050800D01*
X5618370Y-4020800D02*
X5588370Y-4050800D01*
X5588370Y-5107490D02*
X5618370Y-5137490D01*
X5618370Y-5107490D02*
X5588370Y-5137490D01*
X5595190Y-5776540D02*
X5625190Y-5806540D01*
X5625190Y-5776540D02*
X5595190Y-5806540D01*
X5595190Y-6692340D02*
X5625190Y-6722340D01*
X5625190Y-6692340D02*
X5595190Y-6722340D01*
X5660800Y-5224280D02*
X5690800Y-5254280D01*
X5690800Y-5224280D02*
X5660800Y-5254280D01*
X5695710Y-4083420D02*
X5725710Y-4113420D01*
X5725710Y-4083420D02*
X5695710Y-4113420D01*
X5698450Y-3168080D02*
X5728450Y-3198080D01*
X5728450Y-3168080D02*
X5698450Y-3198080D01*
X5698450Y-3465090D02*
X5728450Y-3495090D01*
X5728450Y-3465090D02*
X5698450Y-3495090D01*
X5698450Y-5093740D02*
X5728450Y-5123740D01*
X5728450Y-5093740D02*
X5698450Y-5123740D01*
X5718540Y-3939300D02*
X5748540Y-3969300D01*
X5748540Y-3939300D02*
X5718540Y-3969300D01*
X5811630Y-5029600D02*
X5841630Y-5059600D01*
X5841630Y-5029600D02*
X5811630Y-5059600D01*
X5811630Y-5180240D02*
X5841630Y-5210240D01*
X5841630Y-5180240D02*
X5811630Y-5210240D01*
X6053020Y-4945860D02*
X6083020Y-4975860D01*
X6083020Y-4945860D02*
X6053020Y-4975860D01*
X6053020Y-5776540D02*
X6083020Y-5806540D01*
X6083020Y-5776540D02*
X6053020Y-5806540D01*
X6055110Y-3622890D02*
X6085110Y-3652890D01*
X6085110Y-3622890D02*
X6055110Y-3652890D01*
X6055110Y-4020800D02*
X6085110Y-4050800D01*
X6085110Y-4020800D02*
X6055110Y-4050800D01*
X6113980Y-5695800D02*
X6143980Y-5725800D01*
X6143980Y-5695800D02*
X6113980Y-5725800D01*
X6113980Y-5862580D02*
X6143980Y-5892580D01*
X6143980Y-5862580D02*
X6113980Y-5892580D01*
X6153530Y-6358150D02*
X6183530Y-6388150D01*
X6183530Y-6358150D02*
X6153530Y-6388150D01*
X6153530Y-6770840D02*
X6183530Y-6800840D01*
X6183530Y-6770840D02*
X6153530Y-6800840D01*
X6182000Y-3032300D02*
X6212000Y-3062300D01*
X6212000Y-3032300D02*
X6182000Y-3062300D01*
X6321810Y-5939870D02*
X6351810Y-5969870D01*
X6351810Y-5939870D02*
X6321810Y-5969870D01*
X6321810Y-6482720D02*
X6351810Y-6512720D01*
X6351810Y-6482720D02*
X6321810Y-6512720D01*
X6440510Y-5180240D02*
X6470510Y-5210240D01*
X6470510Y-5180240D02*
X6440510Y-5210240D01*
X6440510Y-5462080D02*
X6470510Y-5492080D01*
X6470510Y-5462080D02*
X6440510Y-5492080D01*
X6533250Y-5009470D02*
X6563250Y-5039470D01*
X6563250Y-5009470D02*
X6533250Y-5039470D01*
X6533250Y-5401910D02*
X6563250Y-5431910D01*
X6563250Y-5401910D02*
X6533250Y-5431910D01*
X6605990Y-5093740D02*
X6635990Y-5123740D01*
X6635990Y-5093740D02*
X6605990Y-5123740D01*
X6707350Y-3680420D02*
X6737350Y-3710420D01*
X6737350Y-3680420D02*
X6707350Y-3710420D01*
X6864280Y-3680420D02*
X6894280Y-3710420D01*
X6894280Y-3680420D02*
X6864280Y-3710420D01*
X6927550Y-3393560D02*
X6957550Y-3423560D01*
X6957550Y-3393560D02*
X6927550Y-3423560D01*
X6950380Y-2916310D02*
X6980380Y-2946310D01*
X6980380Y-2916310D02*
X6950380Y-2946310D01*
X6967470Y-3691630D02*
X6997470Y-3721630D01*
X6997470Y-3691630D02*
X6967470Y-3721630D01*
X6982760Y-5255000D02*
X7012760Y-5285000D01*
X7012760Y-5255000D02*
X6982760Y-5285000D01*
X6982760Y-5558570D02*
X7012760Y-5588570D01*
X7012760Y-5558570D02*
X6982760Y-5588570D01*
X6995000Y-3171130D02*
X7025000Y-3201130D01*
X7025000Y-3171130D02*
X6995000Y-3201130D01*
X7189800Y-6111000D02*
X7219800Y-6141000D01*
X7219800Y-6111000D02*
X7189800Y-6141000D01*
X7189800Y-6506950D02*
X7219800Y-6536950D01*
X7219800Y-6506950D02*
X7189800Y-6536950D01*
X7216945Y-6035746D02*
X7246945Y-6065746D01*
X7246945Y-6035746D02*
X7216945Y-6065746D01*
X7315000Y-6462380D02*
X7345000Y-6492380D01*
X7345000Y-6462380D02*
X7315000Y-6492380D01*
X7573940Y-6171180D02*
X7603940Y-6201180D01*
X7603940Y-6171180D02*
X7573940Y-6201180D01*
X7712850Y-3691630D02*
X7742850Y-3721630D01*
X7742850Y-3691630D02*
X7712850Y-3721630D01*
X7768750Y-3188720D02*
X7798750Y-3218720D01*
X7798750Y-3188720D02*
X7768750Y-3218720D01*
X7803580Y-5381740D02*
X7833580Y-5411740D01*
X7833580Y-5381740D02*
X7803580Y-5411740D01*
X7807350Y-6048730D02*
X7837350Y-6078730D01*
X7837350Y-6048730D02*
X7807350Y-6078730D01*
X7935000Y-6462380D02*
X7965000Y-6492380D01*
X7965000Y-6462380D02*
X7935000Y-6492380D01*
X7955000Y-5114250D02*
X7985000Y-5144250D01*
X7985000Y-5114250D02*
X7955000Y-5144250D01*
X7957050Y-5710010D02*
X7987050Y-5740010D01*
X7987050Y-5710010D02*
X7957050Y-5740010D01*
X8084610Y-3127270D02*
X8114610Y-3157270D01*
X8114610Y-3127270D02*
X8084610Y-3157270D01*
X8084610Y-3423480D02*
X8114610Y-3453480D01*
X8114610Y-3423480D02*
X8084610Y-3453480D01*
X8084610Y-6233630D02*
X8114610Y-6263630D01*
X8114610Y-6233630D02*
X8084610Y-6263630D01*
X8084610Y-6508360D02*
X8114610Y-6538360D01*
X8114610Y-6508360D02*
X8084610Y-6538360D01*
X8110640Y-4015900D02*
X8140640Y-4045900D01*
X8140640Y-4015900D02*
X8110640Y-4045900D01*
X8407350Y-6108990D02*
X8437350Y-6138990D01*
X8437350Y-6108990D02*
X8407350Y-6138990D01*
X8592730Y-5969350D02*
X8622730Y-5999350D01*
X8622730Y-5969350D02*
X8592730Y-5999350D01*
X8693220Y-4015900D02*
X8723220Y-4045900D01*
X8723220Y-4015900D02*
X8693220Y-4045900D01*
X8721090Y-4325510D02*
X8751090Y-4355510D01*
X8751090Y-4325510D02*
X8721090Y-4355510D01*
X8805000Y-3423480D02*
X8835000Y-3453480D01*
X8835000Y-3423480D02*
X8805000Y-3453480D01*
X8814180Y-4078360D02*
X8844180Y-4108360D01*
X8844180Y-4078360D02*
X8814180Y-4108360D01*
X8832390Y-4961720D02*
X8862390Y-4991720D01*
X8862390Y-4961720D02*
X8832390Y-4991720D01*
X8832390Y-5774000D02*
X8862390Y-5804000D01*
X8862390Y-5774000D02*
X8832390Y-5804000D01*
X8967690Y-3936850D02*
X8997690Y-3966850D01*
X8997690Y-3936850D02*
X8967690Y-3966850D01*
X8979420Y-5114250D02*
X9009420Y-5144250D01*
X9009420Y-5114250D02*
X8979420Y-5144250D01*
X8979420Y-5400210D02*
X9009420Y-5430210D01*
X9009420Y-5400210D02*
X8979420Y-5430210D01*
X8996850Y-5641330D02*
X9026850Y-5671330D01*
X9026850Y-5641330D02*
X8996850Y-5671330D01*
X9077930Y-5123190D02*
X9107930Y-5153190D01*
X9107930Y-5123190D02*
X9077930Y-5153190D01*
X9272610Y-4015900D02*
X9302610Y-4045900D01*
X9302610Y-4015900D02*
X9272610Y-4045900D01*
X9381270Y-5123190D02*
X9411270Y-5153190D01*
X9411270Y-5123190D02*
X9381270Y-5153190D01*
X9423080Y-6454600D02*
X9453080Y-6484600D01*
X9453080Y-6454600D02*
X9423080Y-6484600D01*
X9497020Y-7043470D02*
X9527020Y-7073470D01*
X9527020Y-7043470D02*
X9497020Y-7073470D01*
X9597830Y-5902750D02*
X9627830Y-5932750D01*
X9627830Y-5902750D02*
X9597830Y-5932750D01*
X9688450Y-5774000D02*
X9718450Y-5804000D01*
X9718450Y-5774000D02*
X9688450Y-5804000D01*
X9717970Y-6232080D02*
X9747970Y-6262080D01*
X9747970Y-6232080D02*
X9717970Y-6262080D01*
X9758090Y-6914540D02*
X9788090Y-6944540D01*
X9788090Y-6914540D02*
X9758090Y-6944540D01*
X9758090Y-8612300D02*
X9788090Y-8642300D01*
X9788090Y-8612300D02*
X9758090Y-8642300D01*
X9761310Y-3936850D02*
X9791310Y-3966850D01*
X9791310Y-3936850D02*
X9761310Y-3966850D01*
X9761310Y-4608320D02*
X9791310Y-4638320D01*
X9791310Y-4608320D02*
X9761310Y-4638320D01*
X9763840Y-5710010D02*
X9793840Y-5740010D01*
X9793840Y-5710010D02*
X9763840Y-5740010D01*
X9778140Y-5902750D02*
X9808140Y-5932750D01*
X9808140Y-5902750D02*
X9778140Y-5932750D01*
X9820460Y-6386390D02*
X9850460Y-6416390D01*
X9850460Y-6386390D02*
X9820460Y-6416390D01*
X9820460Y-7852910D02*
X9850460Y-7882910D01*
X9850460Y-7852910D02*
X9820460Y-7882910D01*
X9821480Y-4015900D02*
X9851480Y-4045900D01*
X9851480Y-4015900D02*
X9821480Y-4045900D01*
X9869670Y-5400210D02*
X9899670Y-5430210D01*
X9899670Y-5400210D02*
X9869670Y-5430210D01*
X9877390Y-4312110D02*
X9907390Y-4342110D01*
X9907390Y-4312110D02*
X9877390Y-4342110D01*
X9881770Y-8710980D02*
X9911770Y-8740980D01*
X9911770Y-8710980D02*
X9881770Y-8740980D01*
X9918760Y-5904260D02*
X9948760Y-5934260D01*
X9948760Y-5904260D02*
X9918760Y-5934260D01*
X9952620Y-4974220D02*
X9982620Y-5004220D01*
X9982620Y-4974220D02*
X9952620Y-5004220D01*
X9962220Y-6650300D02*
X9992220Y-6680300D01*
X9992220Y-6650300D02*
X9962220Y-6680300D01*
X9997790Y-6232080D02*
X10027790Y-6262080D01*
X10027790Y-6232080D02*
X9997790Y-6262080D01*
X10114220Y-6914540D02*
X10144220Y-6944540D01*
X10144220Y-6914540D02*
X10114220Y-6944540D01*
X10137350Y-5185860D02*
X10167350Y-5215860D01*
X10167350Y-5185860D02*
X10137350Y-5215860D01*
X10375000Y-4666500D02*
X10405000Y-4696500D01*
X10405000Y-4666500D02*
X10375000Y-4696500D01*
X10375000Y-4974220D02*
X10405000Y-5004220D01*
X10405000Y-4974220D02*
X10375000Y-5004220D01*
X10392350Y-6389150D02*
X10422350Y-6419150D01*
X10422350Y-6389150D02*
X10392350Y-6419150D01*
X10392350Y-6650300D02*
X10422350Y-6680300D01*
X10422350Y-6650300D02*
X10392350Y-6680300D01*
X10514730Y-6019630D02*
X10544730Y-6049630D01*
X10544730Y-6019630D02*
X10514730Y-6049630D01*
X10634840Y-7026200D02*
X10664840Y-7056200D01*
X10664840Y-7026200D02*
X10634840Y-7056200D01*
X10698110Y-8039020D02*
X10728110Y-8069020D01*
X10728110Y-8039020D02*
X10698110Y-8069020D01*
X10761380Y-7152740D02*
X10791380Y-7182740D01*
X10791380Y-7152740D02*
X10761380Y-7182740D01*
X10761380Y-7878770D02*
X10791380Y-7908770D01*
X10791380Y-7878770D02*
X10761380Y-7908770D01*
X11327350Y-8039020D02*
X11357350Y-8069020D01*
X11357350Y-8039020D02*
X11327350Y-8069020D01*
X3387350Y-3603800D02*
G75*
G02*
X3287350Y-3603800I-50000J0D01*
G01*
X3287350Y-3603800D02*
G75*
G02*
X3387350Y-3603800I50000J0D01*
G01*
X3387350Y-3857800D02*
G75*
G02*
X3287350Y-3857800I-50000J0D01*
G01*
X3287350Y-3857800D02*
G75*
G02*
X3387350Y-3857800I50000J0D01*
G01*
X3387350Y-4111800D02*
G75*
G02*
X3287350Y-4111800I-50000J0D01*
G01*
X3287350Y-4111800D02*
G75*
G02*
X3387350Y-4111800I50000J0D01*
G01*
X3387350Y-4365800D02*
G75*
G02*
X3287350Y-4365800I-50000J0D01*
G01*
X3287350Y-4365800D02*
G75*
G02*
X3387350Y-4365800I50000J0D01*
G01*
X3387350Y-5273300D02*
G75*
G02*
X3287350Y-5273300I-50000J0D01*
G01*
X3287350Y-5273300D02*
G75*
G02*
X3387350Y-5273300I50000J0D01*
G01*
X3387350Y-5527300D02*
G75*
G02*
X3287350Y-5527300I-50000J0D01*
G01*
X3287350Y-5527300D02*
G75*
G02*
X3387350Y-5527300I50000J0D01*
G01*
X3387350Y-5781300D02*
G75*
G02*
X3287350Y-5781300I-50000J0D01*
G01*
X3287350Y-5781300D02*
G75*
G02*
X3387350Y-5781300I50000J0D01*
G01*
X3387350Y-6035300D02*
G75*
G02*
X3287350Y-6035300I-50000J0D01*
G01*
X3287350Y-6035300D02*
G75*
G02*
X3387350Y-6035300I50000J0D01*
G01*
X3986350Y-7193300D02*
G75*
G02*
X3886350Y-7193300I-50000J0D01*
G01*
X3886350Y-7193300D02*
G75*
G02*
X3986350Y-7193300I50000J0D01*
G01*
X4236350Y-7193300D02*
G75*
G02*
X4136350Y-7193300I-50000J0D01*
G01*
X4136350Y-7193300D02*
G75*
G02*
X4236350Y-7193300I50000J0D01*
G01*
X4486350Y-7193300D02*
G75*
G02*
X4386350Y-7193300I-50000J0D01*
G01*
X4386350Y-7193300D02*
G75*
G02*
X4486350Y-7193300I50000J0D01*
G01*
X6787350Y-2793300D02*
G75*
G02*
X6687350Y-2793300I-50000J0D01*
G01*
X6687350Y-2793300D02*
G75*
G02*
X6787350Y-2793300I50000J0D01*
G01*
X6787350Y-3047300D02*
G75*
G02*
X6687350Y-3047300I-50000J0D01*
G01*
X6687350Y-3047300D02*
G75*
G02*
X6787350Y-3047300I50000J0D01*
G01*
X6787350Y-3301300D02*
G75*
G02*
X6687350Y-3301300I-50000J0D01*
G01*
X6687350Y-3301300D02*
G75*
G02*
X6787350Y-3301300I50000J0D01*
G01*
X6787350Y-3555300D02*
G75*
G02*
X6687350Y-3555300I-50000J0D01*
G01*
X6687350Y-3555300D02*
G75*
G02*
X6787350Y-3555300I50000J0D01*
G01*
X6787350Y-4499300D02*
G75*
G02*
X6687350Y-4499300I-50000J0D01*
G01*
X6687350Y-4499300D02*
G75*
G02*
X6787350Y-4499300I50000J0D01*
G01*
X6787350Y-4753300D02*
G75*
G02*
X6687350Y-4753300I-50000J0D01*
G01*
X6687350Y-4753300D02*
G75*
G02*
X6787350Y-4753300I50000J0D01*
G01*
X6787350Y-5007300D02*
G75*
G02*
X6687350Y-5007300I-50000J0D01*
G01*
X6687350Y-5007300D02*
G75*
G02*
X6787350Y-5007300I50000J0D01*
G01*
X6787350Y-5261300D02*
G75*
G02*
X6687350Y-5261300I-50000J0D01*
G01*
X6687350Y-5261300D02*
G75*
G02*
X6787350Y-5261300I50000J0D01*
G01*
X9627350Y-7357300D02*
G75*
G02*
X9527350Y-7357300I-50000J0D01*
G01*
X9527350Y-7357300D02*
G75*
G02*
X9627350Y-7357300I50000J0D01*
G01*
X9627350Y-7611300D02*
G75*
G02*
X9527350Y-7611300I-50000J0D01*
G01*
X9527350Y-7611300D02*
G75*
G02*
X9627350Y-7611300I50000J0D01*
G01*
X9627350Y-7865300D02*
G75*
G02*
X9527350Y-7865300I-50000J0D01*
G01*
X9527350Y-7865300D02*
G75*
G02*
X9627350Y-7865300I50000J0D01*
G01*
X9627350Y-8119300D02*
G75*
G02*
X9527350Y-8119300I-50000J0D01*
G01*
X9527350Y-8119300D02*
G75*
G02*
X9627350Y-8119300I50000J0D01*
G01*
X9627350Y-8373300D02*
G75*
G02*
X9527350Y-8373300I-50000J0D01*
G01*
X9527350Y-8373300D02*
G75*
G02*
X9627350Y-8373300I50000J0D01*
G01*
X9627350Y-8627300D02*
G75*
G02*
X9527350Y-8627300I-50000J0D01*
G01*
X9527350Y-8627300D02*
G75*
G02*
X9627350Y-8627300I50000J0D01*
G01*
X9627350Y-8881300D02*
G75*
G02*
X9527350Y-8881300I-50000J0D01*
G01*
X9527350Y-8881300D02*
G75*
G02*
X9627350Y-8881300I50000J0D01*
G01*
X10187350Y-5903300D02*
G75*
G02*
X10087350Y-5903300I-50000J0D01*
G01*
X10087350Y-5903300D02*
G75*
G02*
X10187350Y-5903300I50000J0D01*
G01*
X10187350Y-6157300D02*
G75*
G02*
X10087350Y-6157300I-50000J0D01*
G01*
X10087350Y-6157300D02*
G75*
G02*
X10187350Y-6157300I50000J0D01*
G01*
X10187350Y-6411300D02*
G75*
G02*
X10087350Y-6411300I-50000J0D01*
G01*
X10087350Y-6411300D02*
G75*
G02*
X10187350Y-6411300I50000J0D01*
G01*
X10187350Y-6665300D02*
G75*
G02*
X10087350Y-6665300I-50000J0D01*
G01*
X10087350Y-6665300D02*
G75*
G02*
X10187350Y-6665300I50000J0D01*
G01*
D11*
X1985627Y-9727284D02*
X1985627Y-9527284D01*
X1985627Y-9527284D02*
X2033246Y-9527284D01*
X2033246Y-9527284D02*
X2061817Y-9536808D01*
X2061817Y-9536808D02*
X2080865Y-9555855D01*
X2080865Y-9555855D02*
X2090389Y-9574903D01*
X2090389Y-9574903D02*
X2099913Y-9612998D01*
X2099913Y-9612998D02*
X2099913Y-9641570D01*
X2099913Y-9641570D02*
X2090389Y-9679665D01*
X2090389Y-9679665D02*
X2080865Y-9698712D01*
X2080865Y-9698712D02*
X2061817Y-9717760D01*
X2061817Y-9717760D02*
X2033246Y-9727284D01*
X2033246Y-9727284D02*
X1985627Y-9727284D01*
X2185627Y-9727284D02*
X2185627Y-9593950D01*
X2185627Y-9632046D02*
X2195151Y-9612998D01*
X2195151Y-9612998D02*
X2204674Y-9603474D01*
X2204674Y-9603474D02*
X2223722Y-9593950D01*
X2223722Y-9593950D02*
X2242770Y-9593950D01*
X2309436Y-9727284D02*
X2309436Y-9593950D01*
X2309436Y-9527284D02*
X2299913Y-9536808D01*
X2299913Y-9536808D02*
X2309436Y-9546331D01*
X2309436Y-9546331D02*
X2318960Y-9536808D01*
X2318960Y-9536808D02*
X2309436Y-9527284D01*
X2309436Y-9527284D02*
X2309436Y-9546331D01*
X2433246Y-9727284D02*
X2414198Y-9717760D01*
X2414198Y-9717760D02*
X2404674Y-9698712D01*
X2404674Y-9698712D02*
X2404674Y-9527284D01*
X2538008Y-9727284D02*
X2518960Y-9717760D01*
X2518960Y-9717760D02*
X2509436Y-9698712D01*
X2509436Y-9698712D02*
X2509436Y-9527284D01*
X2766579Y-9727284D02*
X2766579Y-9527284D01*
X2766579Y-9527284D02*
X2833246Y-9670141D01*
X2833246Y-9670141D02*
X2899912Y-9527284D01*
X2899912Y-9527284D02*
X2899912Y-9727284D01*
X3080865Y-9727284D02*
X3080865Y-9622522D01*
X3080865Y-9622522D02*
X3071341Y-9603474D01*
X3071341Y-9603474D02*
X3052293Y-9593950D01*
X3052293Y-9593950D02*
X3014198Y-9593950D01*
X3014198Y-9593950D02*
X2995151Y-9603474D01*
X3080865Y-9717760D02*
X3061817Y-9727284D01*
X3061817Y-9727284D02*
X3014198Y-9727284D01*
X3014198Y-9727284D02*
X2995151Y-9717760D01*
X2995151Y-9717760D02*
X2985627Y-9698712D01*
X2985627Y-9698712D02*
X2985627Y-9679665D01*
X2985627Y-9679665D02*
X2995151Y-9660617D01*
X2995151Y-9660617D02*
X3014198Y-9651093D01*
X3014198Y-9651093D02*
X3061817Y-9651093D01*
X3061817Y-9651093D02*
X3080865Y-9641570D01*
X3176103Y-9593950D02*
X3176103Y-9793950D01*
X3176103Y-9603474D02*
X3195151Y-9593950D01*
X3195151Y-9593950D02*
X3233246Y-9593950D01*
X3233246Y-9593950D02*
X3252293Y-9603474D01*
X3252293Y-9603474D02*
X3261817Y-9612998D01*
X3261817Y-9612998D02*
X3271341Y-9632046D01*
X3271341Y-9632046D02*
X3271341Y-9689189D01*
X3271341Y-9689189D02*
X3261817Y-9708236D01*
X3261817Y-9708236D02*
X3252293Y-9717760D01*
X3252293Y-9717760D02*
X3233246Y-9727284D01*
X3233246Y-9727284D02*
X3195151Y-9727284D01*
X3195151Y-9727284D02*
X3176103Y-9717760D01*
X3357055Y-9708236D02*
X3366579Y-9717760D01*
X3366579Y-9717760D02*
X3357055Y-9727284D01*
X3357055Y-9727284D02*
X3347532Y-9717760D01*
X3347532Y-9717760D02*
X3357055Y-9708236D01*
X3357055Y-9708236D02*
X3357055Y-9727284D01*
X3357055Y-9603474D02*
X3366579Y-9612998D01*
X3366579Y-9612998D02*
X3357055Y-9622522D01*
X3357055Y-9622522D02*
X3347532Y-9612998D01*
X3347532Y-9612998D02*
X3357055Y-9603474D01*
X3357055Y-9603474D02*
X3357055Y-9622522D01*
D12*
X1694850Y-10040800D02*
X1724850Y-10070800D01*
X1724850Y-10040800D02*
X1694850Y-10070800D01*
D11*
X2023722Y-9947284D02*
X2042770Y-9947284D01*
X2042770Y-9947284D02*
X2061817Y-9956808D01*
X2061817Y-9956808D02*
X2071341Y-9966331D01*
X2071341Y-9966331D02*
X2080865Y-9985379D01*
X2080865Y-9985379D02*
X2090389Y-10023474D01*
X2090389Y-10023474D02*
X2090389Y-10071093D01*
X2090389Y-10071093D02*
X2080865Y-10109189D01*
X2080865Y-10109189D02*
X2071341Y-10128236D01*
X2071341Y-10128236D02*
X2061817Y-10137760D01*
X2061817Y-10137760D02*
X2042770Y-10147284D01*
X2042770Y-10147284D02*
X2023722Y-10147284D01*
X2023722Y-10147284D02*
X2004674Y-10137760D01*
X2004674Y-10137760D02*
X1995151Y-10128236D01*
X1995151Y-10128236D02*
X1985627Y-10109189D01*
X1985627Y-10109189D02*
X1976103Y-10071093D01*
X1976103Y-10071093D02*
X1976103Y-10023474D01*
X1976103Y-10023474D02*
X1985627Y-9985379D01*
X1985627Y-9985379D02*
X1995151Y-9966331D01*
X1995151Y-9966331D02*
X2004674Y-9956808D01*
X2004674Y-9956808D02*
X2023722Y-9947284D01*
X2176103Y-10128236D02*
X2185627Y-10137760D01*
X2185627Y-10137760D02*
X2176103Y-10147284D01*
X2176103Y-10147284D02*
X2166579Y-10137760D01*
X2166579Y-10137760D02*
X2176103Y-10128236D01*
X2176103Y-10128236D02*
X2176103Y-10147284D01*
X2252294Y-9947284D02*
X2376103Y-9947284D01*
X2376103Y-9947284D02*
X2309436Y-10023474D01*
X2309436Y-10023474D02*
X2338008Y-10023474D01*
X2338008Y-10023474D02*
X2357055Y-10032998D01*
X2357055Y-10032998D02*
X2366579Y-10042522D01*
X2366579Y-10042522D02*
X2376103Y-10061570D01*
X2376103Y-10061570D02*
X2376103Y-10109189D01*
X2376103Y-10109189D02*
X2366579Y-10128236D01*
X2366579Y-10128236D02*
X2357055Y-10137760D01*
X2357055Y-10137760D02*
X2338008Y-10147284D01*
X2338008Y-10147284D02*
X2280865Y-10147284D01*
X2280865Y-10147284D02*
X2261817Y-10137760D01*
X2261817Y-10137760D02*
X2252294Y-10128236D01*
X2499913Y-9947284D02*
X2518960Y-9947284D01*
X2518960Y-9947284D02*
X2538008Y-9956808D01*
X2538008Y-9956808D02*
X2547532Y-9966331D01*
X2547532Y-9966331D02*
X2557055Y-9985379D01*
X2557055Y-9985379D02*
X2566579Y-10023474D01*
X2566579Y-10023474D02*
X2566579Y-10071093D01*
X2566579Y-10071093D02*
X2557055Y-10109189D01*
X2557055Y-10109189D02*
X2547532Y-10128236D01*
X2547532Y-10128236D02*
X2538008Y-10137760D01*
X2538008Y-10137760D02*
X2518960Y-10147284D01*
X2518960Y-10147284D02*
X2499913Y-10147284D01*
X2499913Y-10147284D02*
X2480865Y-10137760D01*
X2480865Y-10137760D02*
X2471341Y-10128236D01*
X2471341Y-10128236D02*
X2461817Y-10109189D01*
X2461817Y-10109189D02*
X2452294Y-10071093D01*
X2452294Y-10071093D02*
X2452294Y-10023474D01*
X2452294Y-10023474D02*
X2461817Y-9985379D01*
X2461817Y-9985379D02*
X2471341Y-9966331D01*
X2471341Y-9966331D02*
X2480865Y-9956808D01*
X2480865Y-9956808D02*
X2499913Y-9947284D01*
X2690389Y-9947284D02*
X2709436Y-9947284D01*
X2709436Y-9947284D02*
X2728484Y-9956808D01*
X2728484Y-9956808D02*
X2738008Y-9966331D01*
X2738008Y-9966331D02*
X2747532Y-9985379D01*
X2747532Y-9985379D02*
X2757055Y-10023474D01*
X2757055Y-10023474D02*
X2757055Y-10071093D01*
X2757055Y-10071093D02*
X2747532Y-10109189D01*
X2747532Y-10109189D02*
X2738008Y-10128236D01*
X2738008Y-10128236D02*
X2728484Y-10137760D01*
X2728484Y-10137760D02*
X2709436Y-10147284D01*
X2709436Y-10147284D02*
X2690389Y-10147284D01*
X2690389Y-10147284D02*
X2671341Y-10137760D01*
X2671341Y-10137760D02*
X2661817Y-10128236D01*
X2661817Y-10128236D02*
X2652294Y-10109189D01*
X2652294Y-10109189D02*
X2642770Y-10071093D01*
X2642770Y-10071093D02*
X2642770Y-10023474D01*
X2642770Y-10023474D02*
X2652294Y-9985379D01*
X2652294Y-9985379D02*
X2661817Y-9966331D01*
X2661817Y-9966331D02*
X2671341Y-9956808D01*
X2671341Y-9956808D02*
X2690389Y-9947284D01*
X2842770Y-10147284D02*
X2842770Y-10013950D01*
X2842770Y-10032998D02*
X2852293Y-10023474D01*
X2852293Y-10023474D02*
X2871341Y-10013950D01*
X2871341Y-10013950D02*
X2899913Y-10013950D01*
X2899913Y-10013950D02*
X2918960Y-10023474D01*
X2918960Y-10023474D02*
X2928484Y-10042522D01*
X2928484Y-10042522D02*
X2928484Y-10147284D01*
X2928484Y-10042522D02*
X2938008Y-10023474D01*
X2938008Y-10023474D02*
X2957055Y-10013950D01*
X2957055Y-10013950D02*
X2985627Y-10013950D01*
X2985627Y-10013950D02*
X3004674Y-10023474D01*
X3004674Y-10023474D02*
X3014198Y-10042522D01*
X3014198Y-10042522D02*
X3014198Y-10147284D01*
X3109436Y-10147284D02*
X3109436Y-10013950D01*
X3109436Y-10032998D02*
X3118960Y-10023474D01*
X3118960Y-10023474D02*
X3138008Y-10013950D01*
X3138008Y-10013950D02*
X3166579Y-10013950D01*
X3166579Y-10013950D02*
X3185627Y-10023474D01*
X3185627Y-10023474D02*
X3195151Y-10042522D01*
X3195151Y-10042522D02*
X3195151Y-10147284D01*
X3195151Y-10042522D02*
X3204674Y-10023474D01*
X3204674Y-10023474D02*
X3223722Y-10013950D01*
X3223722Y-10013950D02*
X3252293Y-10013950D01*
X3252293Y-10013950D02*
X3271341Y-10023474D01*
X3271341Y-10023474D02*
X3280865Y-10042522D01*
X3280865Y-10042522D02*
X3280865Y-10147284D01*
X3671341Y-9937760D02*
X3499913Y-10194903D01*
X3928484Y-9947284D02*
X3947532Y-9947284D01*
X3947532Y-9947284D02*
X3966579Y-9956808D01*
X3966579Y-9956808D02*
X3976103Y-9966331D01*
X3976103Y-9966331D02*
X3985627Y-9985379D01*
X3985627Y-9985379D02*
X3995151Y-10023474D01*
X3995151Y-10023474D02*
X3995151Y-10071093D01*
X3995151Y-10071093D02*
X3985627Y-10109189D01*
X3985627Y-10109189D02*
X3976103Y-10128236D01*
X3976103Y-10128236D02*
X3966579Y-10137760D01*
X3966579Y-10137760D02*
X3947532Y-10147284D01*
X3947532Y-10147284D02*
X3928484Y-10147284D01*
X3928484Y-10147284D02*
X3909436Y-10137760D01*
X3909436Y-10137760D02*
X3899913Y-10128236D01*
X3899913Y-10128236D02*
X3890389Y-10109189D01*
X3890389Y-10109189D02*
X3880865Y-10071093D01*
X3880865Y-10071093D02*
X3880865Y-10023474D01*
X3880865Y-10023474D02*
X3890389Y-9985379D01*
X3890389Y-9985379D02*
X3899913Y-9966331D01*
X3899913Y-9966331D02*
X3909436Y-9956808D01*
X3909436Y-9956808D02*
X3928484Y-9947284D01*
X4080865Y-10128236D02*
X4090389Y-10137760D01*
X4090389Y-10137760D02*
X4080865Y-10147284D01*
X4080865Y-10147284D02*
X4071341Y-10137760D01*
X4071341Y-10137760D02*
X4080865Y-10128236D01*
X4080865Y-10128236D02*
X4080865Y-10147284D01*
X4214198Y-9947284D02*
X4233246Y-9947284D01*
X4233246Y-9947284D02*
X4252294Y-9956808D01*
X4252294Y-9956808D02*
X4261818Y-9966331D01*
X4261818Y-9966331D02*
X4271341Y-9985379D01*
X4271341Y-9985379D02*
X4280865Y-10023474D01*
X4280865Y-10023474D02*
X4280865Y-10071093D01*
X4280865Y-10071093D02*
X4271341Y-10109189D01*
X4271341Y-10109189D02*
X4261818Y-10128236D01*
X4261818Y-10128236D02*
X4252294Y-10137760D01*
X4252294Y-10137760D02*
X4233246Y-10147284D01*
X4233246Y-10147284D02*
X4214198Y-10147284D01*
X4214198Y-10147284D02*
X4195151Y-10137760D01*
X4195151Y-10137760D02*
X4185627Y-10128236D01*
X4185627Y-10128236D02*
X4176103Y-10109189D01*
X4176103Y-10109189D02*
X4166579Y-10071093D01*
X4166579Y-10071093D02*
X4166579Y-10023474D01*
X4166579Y-10023474D02*
X4176103Y-9985379D01*
X4176103Y-9985379D02*
X4185627Y-9966331D01*
X4185627Y-9966331D02*
X4195151Y-9956808D01*
X4195151Y-9956808D02*
X4214198Y-9947284D01*
X4471341Y-10147284D02*
X4357056Y-10147284D01*
X4414198Y-10147284D02*
X4414198Y-9947284D01*
X4414198Y-9947284D02*
X4395151Y-9975855D01*
X4395151Y-9975855D02*
X4376103Y-9994903D01*
X4376103Y-9994903D02*
X4357056Y-10004427D01*
X4661818Y-10147284D02*
X4547532Y-10147284D01*
X4604675Y-10147284D02*
X4604675Y-9947284D01*
X4604675Y-9947284D02*
X4585627Y-9975855D01*
X4585627Y-9975855D02*
X4566579Y-9994903D01*
X4566579Y-9994903D02*
X4547532Y-10004427D01*
X4776103Y-10032998D02*
X4757056Y-10023474D01*
X4757056Y-10023474D02*
X4747532Y-10013950D01*
X4747532Y-10013950D02*
X4738008Y-9994903D01*
X4738008Y-9994903D02*
X4738008Y-9985379D01*
X4738008Y-9985379D02*
X4747532Y-9966331D01*
X4747532Y-9966331D02*
X4757056Y-9956808D01*
X4757056Y-9956808D02*
X4776103Y-9947284D01*
X4776103Y-9947284D02*
X4814199Y-9947284D01*
X4814199Y-9947284D02*
X4833246Y-9956808D01*
X4833246Y-9956808D02*
X4842770Y-9966331D01*
X4842770Y-9966331D02*
X4852294Y-9985379D01*
X4852294Y-9985379D02*
X4852294Y-9994903D01*
X4852294Y-9994903D02*
X4842770Y-10013950D01*
X4842770Y-10013950D02*
X4833246Y-10023474D01*
X4833246Y-10023474D02*
X4814199Y-10032998D01*
X4814199Y-10032998D02*
X4776103Y-10032998D01*
X4776103Y-10032998D02*
X4757056Y-10042522D01*
X4757056Y-10042522D02*
X4747532Y-10052046D01*
X4747532Y-10052046D02*
X4738008Y-10071093D01*
X4738008Y-10071093D02*
X4738008Y-10109189D01*
X4738008Y-10109189D02*
X4747532Y-10128236D01*
X4747532Y-10128236D02*
X4757056Y-10137760D01*
X4757056Y-10137760D02*
X4776103Y-10147284D01*
X4776103Y-10147284D02*
X4814199Y-10147284D01*
X4814199Y-10147284D02*
X4833246Y-10137760D01*
X4833246Y-10137760D02*
X4842770Y-10128236D01*
X4842770Y-10128236D02*
X4852294Y-10109189D01*
X4852294Y-10109189D02*
X4852294Y-10071093D01*
X4852294Y-10071093D02*
X4842770Y-10052046D01*
X4842770Y-10052046D02*
X4833246Y-10042522D01*
X4833246Y-10042522D02*
X4814199Y-10032998D01*
X4928484Y-9947284D02*
X4928484Y-9985379D01*
X5004675Y-9947284D02*
X5004675Y-9985379D01*
X5299913Y-10223474D02*
X5290389Y-10213950D01*
X5290389Y-10213950D02*
X5271341Y-10185379D01*
X5271341Y-10185379D02*
X5261818Y-10166331D01*
X5261818Y-10166331D02*
X5252294Y-10137760D01*
X5252294Y-10137760D02*
X5242770Y-10090141D01*
X5242770Y-10090141D02*
X5242770Y-10052046D01*
X5242770Y-10052046D02*
X5252294Y-10004427D01*
X5252294Y-10004427D02*
X5261818Y-9975855D01*
X5261818Y-9975855D02*
X5271341Y-9956808D01*
X5271341Y-9956808D02*
X5290389Y-9928236D01*
X5290389Y-9928236D02*
X5299913Y-9918712D01*
X5480865Y-10147284D02*
X5366580Y-10147284D01*
X5423722Y-10147284D02*
X5423722Y-9947284D01*
X5423722Y-9947284D02*
X5404675Y-9975855D01*
X5404675Y-9975855D02*
X5385627Y-9994903D01*
X5385627Y-9994903D02*
X5366580Y-10004427D01*
X5547532Y-9947284D02*
X5680865Y-9947284D01*
X5680865Y-9947284D02*
X5595151Y-10147284D01*
X5842770Y-9947284D02*
X5804675Y-9947284D01*
X5804675Y-9947284D02*
X5785627Y-9956808D01*
X5785627Y-9956808D02*
X5776103Y-9966331D01*
X5776103Y-9966331D02*
X5757056Y-9994903D01*
X5757056Y-9994903D02*
X5747532Y-10032998D01*
X5747532Y-10032998D02*
X5747532Y-10109189D01*
X5747532Y-10109189D02*
X5757056Y-10128236D01*
X5757056Y-10128236D02*
X5766579Y-10137760D01*
X5766579Y-10137760D02*
X5785627Y-10147284D01*
X5785627Y-10147284D02*
X5823722Y-10147284D01*
X5823722Y-10147284D02*
X5842770Y-10137760D01*
X5842770Y-10137760D02*
X5852294Y-10128236D01*
X5852294Y-10128236D02*
X5861818Y-10109189D01*
X5861818Y-10109189D02*
X5861818Y-10061570D01*
X5861818Y-10061570D02*
X5852294Y-10042522D01*
X5852294Y-10042522D02*
X5842770Y-10032998D01*
X5842770Y-10032998D02*
X5823722Y-10023474D01*
X5823722Y-10023474D02*
X5785627Y-10023474D01*
X5785627Y-10023474D02*
X5766579Y-10032998D01*
X5766579Y-10032998D02*
X5757056Y-10042522D01*
X5757056Y-10042522D02*
X5747532Y-10061570D01*
X6099913Y-10147284D02*
X6099913Y-9947284D01*
X6185627Y-10147284D02*
X6185627Y-10042522D01*
X6185627Y-10042522D02*
X6176103Y-10023474D01*
X6176103Y-10023474D02*
X6157056Y-10013950D01*
X6157056Y-10013950D02*
X6128484Y-10013950D01*
X6128484Y-10013950D02*
X6109437Y-10023474D01*
X6109437Y-10023474D02*
X6099913Y-10032998D01*
X6309437Y-10147284D02*
X6290389Y-10137760D01*
X6290389Y-10137760D02*
X6280865Y-10128236D01*
X6280865Y-10128236D02*
X6271341Y-10109189D01*
X6271341Y-10109189D02*
X6271341Y-10052046D01*
X6271341Y-10052046D02*
X6280865Y-10032998D01*
X6280865Y-10032998D02*
X6290389Y-10023474D01*
X6290389Y-10023474D02*
X6309437Y-10013950D01*
X6309437Y-10013950D02*
X6338008Y-10013950D01*
X6338008Y-10013950D02*
X6357056Y-10023474D01*
X6357056Y-10023474D02*
X6366580Y-10032998D01*
X6366580Y-10032998D02*
X6376103Y-10052046D01*
X6376103Y-10052046D02*
X6376103Y-10109189D01*
X6376103Y-10109189D02*
X6366580Y-10128236D01*
X6366580Y-10128236D02*
X6357056Y-10137760D01*
X6357056Y-10137760D02*
X6338008Y-10147284D01*
X6338008Y-10147284D02*
X6309437Y-10147284D01*
X6490389Y-10147284D02*
X6471341Y-10137760D01*
X6471341Y-10137760D02*
X6461818Y-10118712D01*
X6461818Y-10118712D02*
X6461818Y-9947284D01*
X6642770Y-10137760D02*
X6623722Y-10147284D01*
X6623722Y-10147284D02*
X6585627Y-10147284D01*
X6585627Y-10147284D02*
X6566580Y-10137760D01*
X6566580Y-10137760D02*
X6557056Y-10118712D01*
X6557056Y-10118712D02*
X6557056Y-10042522D01*
X6557056Y-10042522D02*
X6566580Y-10023474D01*
X6566580Y-10023474D02*
X6585627Y-10013950D01*
X6585627Y-10013950D02*
X6623722Y-10013950D01*
X6623722Y-10013950D02*
X6642770Y-10023474D01*
X6642770Y-10023474D02*
X6652294Y-10042522D01*
X6652294Y-10042522D02*
X6652294Y-10061570D01*
X6652294Y-10061570D02*
X6557056Y-10080617D01*
X6728484Y-10137760D02*
X6747532Y-10147284D01*
X6747532Y-10147284D02*
X6785627Y-10147284D01*
X6785627Y-10147284D02*
X6804675Y-10137760D01*
X6804675Y-10137760D02*
X6814199Y-10118712D01*
X6814199Y-10118712D02*
X6814199Y-10109189D01*
X6814199Y-10109189D02*
X6804675Y-10090141D01*
X6804675Y-10090141D02*
X6785627Y-10080617D01*
X6785627Y-10080617D02*
X6757056Y-10080617D01*
X6757056Y-10080617D02*
X6738008Y-10071093D01*
X6738008Y-10071093D02*
X6728484Y-10052046D01*
X6728484Y-10052046D02*
X6728484Y-10042522D01*
X6728484Y-10042522D02*
X6738008Y-10023474D01*
X6738008Y-10023474D02*
X6757056Y-10013950D01*
X6757056Y-10013950D02*
X6785627Y-10013950D01*
X6785627Y-10013950D02*
X6804675Y-10023474D01*
X6880865Y-10223474D02*
X6890389Y-10213950D01*
X6890389Y-10213950D02*
X6909437Y-10185379D01*
X6909437Y-10185379D02*
X6918961Y-10166331D01*
X6918961Y-10166331D02*
X6928484Y-10137760D01*
X6928484Y-10137760D02*
X6938008Y-10090141D01*
X6938008Y-10090141D02*
X6938008Y-10052046D01*
X6938008Y-10052046D02*
X6928484Y-10004427D01*
X6928484Y-10004427D02*
X6918961Y-9975855D01*
X6918961Y-9975855D02*
X6909437Y-9956808D01*
X6909437Y-9956808D02*
X6890389Y-9928236D01*
X6890389Y-9928236D02*
X6880865Y-9918712D01*
D12*
X1724850Y-10319800D02*
G75*
G02*
X1624850Y-10319800I-50000J0D01*
G01*
X1624850Y-10319800D02*
G75*
G02*
X1724850Y-10319800I50000J0D01*
G01*
D11*
X2090389Y-10411284D02*
X1976103Y-10411284D01*
X2033246Y-10411284D02*
X2033246Y-10211284D01*
X2033246Y-10211284D02*
X2014198Y-10239855D01*
X2014198Y-10239855D02*
X1995151Y-10258903D01*
X1995151Y-10258903D02*
X1976103Y-10268427D01*
X2176103Y-10392236D02*
X2185627Y-10401760D01*
X2185627Y-10401760D02*
X2176103Y-10411284D01*
X2176103Y-10411284D02*
X2166579Y-10401760D01*
X2166579Y-10401760D02*
X2176103Y-10392236D01*
X2176103Y-10392236D02*
X2176103Y-10411284D01*
X2309436Y-10211284D02*
X2328484Y-10211284D01*
X2328484Y-10211284D02*
X2347532Y-10220808D01*
X2347532Y-10220808D02*
X2357055Y-10230331D01*
X2357055Y-10230331D02*
X2366579Y-10249379D01*
X2366579Y-10249379D02*
X2376103Y-10287474D01*
X2376103Y-10287474D02*
X2376103Y-10335093D01*
X2376103Y-10335093D02*
X2366579Y-10373189D01*
X2366579Y-10373189D02*
X2357055Y-10392236D01*
X2357055Y-10392236D02*
X2347532Y-10401760D01*
X2347532Y-10401760D02*
X2328484Y-10411284D01*
X2328484Y-10411284D02*
X2309436Y-10411284D01*
X2309436Y-10411284D02*
X2290389Y-10401760D01*
X2290389Y-10401760D02*
X2280865Y-10392236D01*
X2280865Y-10392236D02*
X2271341Y-10373189D01*
X2271341Y-10373189D02*
X2261817Y-10335093D01*
X2261817Y-10335093D02*
X2261817Y-10287474D01*
X2261817Y-10287474D02*
X2271341Y-10249379D01*
X2271341Y-10249379D02*
X2280865Y-10230331D01*
X2280865Y-10230331D02*
X2290389Y-10220808D01*
X2290389Y-10220808D02*
X2309436Y-10211284D01*
X2499913Y-10211284D02*
X2518960Y-10211284D01*
X2518960Y-10211284D02*
X2538008Y-10220808D01*
X2538008Y-10220808D02*
X2547532Y-10230331D01*
X2547532Y-10230331D02*
X2557055Y-10249379D01*
X2557055Y-10249379D02*
X2566579Y-10287474D01*
X2566579Y-10287474D02*
X2566579Y-10335093D01*
X2566579Y-10335093D02*
X2557055Y-10373189D01*
X2557055Y-10373189D02*
X2547532Y-10392236D01*
X2547532Y-10392236D02*
X2538008Y-10401760D01*
X2538008Y-10401760D02*
X2518960Y-10411284D01*
X2518960Y-10411284D02*
X2499913Y-10411284D01*
X2499913Y-10411284D02*
X2480865Y-10401760D01*
X2480865Y-10401760D02*
X2471341Y-10392236D01*
X2471341Y-10392236D02*
X2461817Y-10373189D01*
X2461817Y-10373189D02*
X2452294Y-10335093D01*
X2452294Y-10335093D02*
X2452294Y-10287474D01*
X2452294Y-10287474D02*
X2461817Y-10249379D01*
X2461817Y-10249379D02*
X2471341Y-10230331D01*
X2471341Y-10230331D02*
X2480865Y-10220808D01*
X2480865Y-10220808D02*
X2499913Y-10211284D01*
X2690389Y-10211284D02*
X2709436Y-10211284D01*
X2709436Y-10211284D02*
X2728484Y-10220808D01*
X2728484Y-10220808D02*
X2738008Y-10230331D01*
X2738008Y-10230331D02*
X2747532Y-10249379D01*
X2747532Y-10249379D02*
X2757055Y-10287474D01*
X2757055Y-10287474D02*
X2757055Y-10335093D01*
X2757055Y-10335093D02*
X2747532Y-10373189D01*
X2747532Y-10373189D02*
X2738008Y-10392236D01*
X2738008Y-10392236D02*
X2728484Y-10401760D01*
X2728484Y-10401760D02*
X2709436Y-10411284D01*
X2709436Y-10411284D02*
X2690389Y-10411284D01*
X2690389Y-10411284D02*
X2671341Y-10401760D01*
X2671341Y-10401760D02*
X2661817Y-10392236D01*
X2661817Y-10392236D02*
X2652294Y-10373189D01*
X2652294Y-10373189D02*
X2642770Y-10335093D01*
X2642770Y-10335093D02*
X2642770Y-10287474D01*
X2642770Y-10287474D02*
X2652294Y-10249379D01*
X2652294Y-10249379D02*
X2661817Y-10230331D01*
X2661817Y-10230331D02*
X2671341Y-10220808D01*
X2671341Y-10220808D02*
X2690389Y-10211284D01*
X2842770Y-10411284D02*
X2842770Y-10277950D01*
X2842770Y-10296998D02*
X2852293Y-10287474D01*
X2852293Y-10287474D02*
X2871341Y-10277950D01*
X2871341Y-10277950D02*
X2899913Y-10277950D01*
X2899913Y-10277950D02*
X2918960Y-10287474D01*
X2918960Y-10287474D02*
X2928484Y-10306522D01*
X2928484Y-10306522D02*
X2928484Y-10411284D01*
X2928484Y-10306522D02*
X2938008Y-10287474D01*
X2938008Y-10287474D02*
X2957055Y-10277950D01*
X2957055Y-10277950D02*
X2985627Y-10277950D01*
X2985627Y-10277950D02*
X3004674Y-10287474D01*
X3004674Y-10287474D02*
X3014198Y-10306522D01*
X3014198Y-10306522D02*
X3014198Y-10411284D01*
X3109436Y-10411284D02*
X3109436Y-10277950D01*
X3109436Y-10296998D02*
X3118960Y-10287474D01*
X3118960Y-10287474D02*
X3138008Y-10277950D01*
X3138008Y-10277950D02*
X3166579Y-10277950D01*
X3166579Y-10277950D02*
X3185627Y-10287474D01*
X3185627Y-10287474D02*
X3195151Y-10306522D01*
X3195151Y-10306522D02*
X3195151Y-10411284D01*
X3195151Y-10306522D02*
X3204674Y-10287474D01*
X3204674Y-10287474D02*
X3223722Y-10277950D01*
X3223722Y-10277950D02*
X3252293Y-10277950D01*
X3252293Y-10277950D02*
X3271341Y-10287474D01*
X3271341Y-10287474D02*
X3280865Y-10306522D01*
X3280865Y-10306522D02*
X3280865Y-10411284D01*
X3671341Y-10201760D02*
X3499913Y-10458903D01*
X3928484Y-10211284D02*
X3947532Y-10211284D01*
X3947532Y-10211284D02*
X3966579Y-10220808D01*
X3966579Y-10220808D02*
X3976103Y-10230331D01*
X3976103Y-10230331D02*
X3985627Y-10249379D01*
X3985627Y-10249379D02*
X3995151Y-10287474D01*
X3995151Y-10287474D02*
X3995151Y-10335093D01*
X3995151Y-10335093D02*
X3985627Y-10373189D01*
X3985627Y-10373189D02*
X3976103Y-10392236D01*
X3976103Y-10392236D02*
X3966579Y-10401760D01*
X3966579Y-10401760D02*
X3947532Y-10411284D01*
X3947532Y-10411284D02*
X3928484Y-10411284D01*
X3928484Y-10411284D02*
X3909436Y-10401760D01*
X3909436Y-10401760D02*
X3899913Y-10392236D01*
X3899913Y-10392236D02*
X3890389Y-10373189D01*
X3890389Y-10373189D02*
X3880865Y-10335093D01*
X3880865Y-10335093D02*
X3880865Y-10287474D01*
X3880865Y-10287474D02*
X3890389Y-10249379D01*
X3890389Y-10249379D02*
X3899913Y-10230331D01*
X3899913Y-10230331D02*
X3909436Y-10220808D01*
X3909436Y-10220808D02*
X3928484Y-10211284D01*
X4080865Y-10392236D02*
X4090389Y-10401760D01*
X4090389Y-10401760D02*
X4080865Y-10411284D01*
X4080865Y-10411284D02*
X4071341Y-10401760D01*
X4071341Y-10401760D02*
X4080865Y-10392236D01*
X4080865Y-10392236D02*
X4080865Y-10411284D01*
X4214198Y-10211284D02*
X4233246Y-10211284D01*
X4233246Y-10211284D02*
X4252294Y-10220808D01*
X4252294Y-10220808D02*
X4261818Y-10230331D01*
X4261818Y-10230331D02*
X4271341Y-10249379D01*
X4271341Y-10249379D02*
X4280865Y-10287474D01*
X4280865Y-10287474D02*
X4280865Y-10335093D01*
X4280865Y-10335093D02*
X4271341Y-10373189D01*
X4271341Y-10373189D02*
X4261818Y-10392236D01*
X4261818Y-10392236D02*
X4252294Y-10401760D01*
X4252294Y-10401760D02*
X4233246Y-10411284D01*
X4233246Y-10411284D02*
X4214198Y-10411284D01*
X4214198Y-10411284D02*
X4195151Y-10401760D01*
X4195151Y-10401760D02*
X4185627Y-10392236D01*
X4185627Y-10392236D02*
X4176103Y-10373189D01*
X4176103Y-10373189D02*
X4166579Y-10335093D01*
X4166579Y-10335093D02*
X4166579Y-10287474D01*
X4166579Y-10287474D02*
X4176103Y-10249379D01*
X4176103Y-10249379D02*
X4185627Y-10230331D01*
X4185627Y-10230331D02*
X4195151Y-10220808D01*
X4195151Y-10220808D02*
X4214198Y-10211284D01*
X4347532Y-10211284D02*
X4471341Y-10211284D01*
X4471341Y-10211284D02*
X4404675Y-10287474D01*
X4404675Y-10287474D02*
X4433246Y-10287474D01*
X4433246Y-10287474D02*
X4452294Y-10296998D01*
X4452294Y-10296998D02*
X4461818Y-10306522D01*
X4461818Y-10306522D02*
X4471341Y-10325570D01*
X4471341Y-10325570D02*
X4471341Y-10373189D01*
X4471341Y-10373189D02*
X4461818Y-10392236D01*
X4461818Y-10392236D02*
X4452294Y-10401760D01*
X4452294Y-10401760D02*
X4433246Y-10411284D01*
X4433246Y-10411284D02*
X4376103Y-10411284D01*
X4376103Y-10411284D02*
X4357056Y-10401760D01*
X4357056Y-10401760D02*
X4347532Y-10392236D01*
X4566579Y-10411284D02*
X4604675Y-10411284D01*
X4604675Y-10411284D02*
X4623722Y-10401760D01*
X4623722Y-10401760D02*
X4633246Y-10392236D01*
X4633246Y-10392236D02*
X4652294Y-10363665D01*
X4652294Y-10363665D02*
X4661818Y-10325570D01*
X4661818Y-10325570D02*
X4661818Y-10249379D01*
X4661818Y-10249379D02*
X4652294Y-10230331D01*
X4652294Y-10230331D02*
X4642770Y-10220808D01*
X4642770Y-10220808D02*
X4623722Y-10211284D01*
X4623722Y-10211284D02*
X4585627Y-10211284D01*
X4585627Y-10211284D02*
X4566579Y-10220808D01*
X4566579Y-10220808D02*
X4557056Y-10230331D01*
X4557056Y-10230331D02*
X4547532Y-10249379D01*
X4547532Y-10249379D02*
X4547532Y-10296998D01*
X4547532Y-10296998D02*
X4557056Y-10316046D01*
X4557056Y-10316046D02*
X4566579Y-10325570D01*
X4566579Y-10325570D02*
X4585627Y-10335093D01*
X4585627Y-10335093D02*
X4623722Y-10335093D01*
X4623722Y-10335093D02*
X4642770Y-10325570D01*
X4642770Y-10325570D02*
X4652294Y-10316046D01*
X4652294Y-10316046D02*
X4661818Y-10296998D01*
X4833246Y-10277950D02*
X4833246Y-10411284D01*
X4785627Y-10201760D02*
X4738008Y-10344617D01*
X4738008Y-10344617D02*
X4861818Y-10344617D01*
X4928484Y-10211284D02*
X4928484Y-10249379D01*
X5004675Y-10211284D02*
X5004675Y-10249379D01*
X5299913Y-10487474D02*
X5290389Y-10477950D01*
X5290389Y-10477950D02*
X5271341Y-10449379D01*
X5271341Y-10449379D02*
X5261818Y-10430331D01*
X5261818Y-10430331D02*
X5252294Y-10401760D01*
X5252294Y-10401760D02*
X5242770Y-10354141D01*
X5242770Y-10354141D02*
X5242770Y-10316046D01*
X5242770Y-10316046D02*
X5252294Y-10268427D01*
X5252294Y-10268427D02*
X5261818Y-10239855D01*
X5261818Y-10239855D02*
X5271341Y-10220808D01*
X5271341Y-10220808D02*
X5290389Y-10192236D01*
X5290389Y-10192236D02*
X5299913Y-10182712D01*
X5357056Y-10211284D02*
X5480865Y-10211284D01*
X5480865Y-10211284D02*
X5414199Y-10287474D01*
X5414199Y-10287474D02*
X5442770Y-10287474D01*
X5442770Y-10287474D02*
X5461818Y-10296998D01*
X5461818Y-10296998D02*
X5471341Y-10306522D01*
X5471341Y-10306522D02*
X5480865Y-10325570D01*
X5480865Y-10325570D02*
X5480865Y-10373189D01*
X5480865Y-10373189D02*
X5471341Y-10392236D01*
X5471341Y-10392236D02*
X5461818Y-10401760D01*
X5461818Y-10401760D02*
X5442770Y-10411284D01*
X5442770Y-10411284D02*
X5385627Y-10411284D01*
X5385627Y-10411284D02*
X5366580Y-10401760D01*
X5366580Y-10401760D02*
X5357056Y-10392236D01*
X5604675Y-10211284D02*
X5623722Y-10211284D01*
X5623722Y-10211284D02*
X5642770Y-10220808D01*
X5642770Y-10220808D02*
X5652294Y-10230331D01*
X5652294Y-10230331D02*
X5661818Y-10249379D01*
X5661818Y-10249379D02*
X5671341Y-10287474D01*
X5671341Y-10287474D02*
X5671341Y-10335093D01*
X5671341Y-10335093D02*
X5661818Y-10373189D01*
X5661818Y-10373189D02*
X5652294Y-10392236D01*
X5652294Y-10392236D02*
X5642770Y-10401760D01*
X5642770Y-10401760D02*
X5623722Y-10411284D01*
X5623722Y-10411284D02*
X5604675Y-10411284D01*
X5604675Y-10411284D02*
X5585627Y-10401760D01*
X5585627Y-10401760D02*
X5576103Y-10392236D01*
X5576103Y-10392236D02*
X5566580Y-10373189D01*
X5566580Y-10373189D02*
X5557056Y-10335093D01*
X5557056Y-10335093D02*
X5557056Y-10287474D01*
X5557056Y-10287474D02*
X5566580Y-10249379D01*
X5566580Y-10249379D02*
X5576103Y-10230331D01*
X5576103Y-10230331D02*
X5585627Y-10220808D01*
X5585627Y-10220808D02*
X5604675Y-10211284D01*
X5909437Y-10411284D02*
X5909437Y-10211284D01*
X5995151Y-10411284D02*
X5995151Y-10306522D01*
X5995151Y-10306522D02*
X5985627Y-10287474D01*
X5985627Y-10287474D02*
X5966580Y-10277950D01*
X5966580Y-10277950D02*
X5938008Y-10277950D01*
X5938008Y-10277950D02*
X5918960Y-10287474D01*
X5918960Y-10287474D02*
X5909437Y-10296998D01*
X6118960Y-10411284D02*
X6099913Y-10401760D01*
X6099913Y-10401760D02*
X6090389Y-10392236D01*
X6090389Y-10392236D02*
X6080865Y-10373189D01*
X6080865Y-10373189D02*
X6080865Y-10316046D01*
X6080865Y-10316046D02*
X6090389Y-10296998D01*
X6090389Y-10296998D02*
X6099913Y-10287474D01*
X6099913Y-10287474D02*
X6118960Y-10277950D01*
X6118960Y-10277950D02*
X6147532Y-10277950D01*
X6147532Y-10277950D02*
X6166580Y-10287474D01*
X6166580Y-10287474D02*
X6176103Y-10296998D01*
X6176103Y-10296998D02*
X6185627Y-10316046D01*
X6185627Y-10316046D02*
X6185627Y-10373189D01*
X6185627Y-10373189D02*
X6176103Y-10392236D01*
X6176103Y-10392236D02*
X6166580Y-10401760D01*
X6166580Y-10401760D02*
X6147532Y-10411284D01*
X6147532Y-10411284D02*
X6118960Y-10411284D01*
X6299913Y-10411284D02*
X6280865Y-10401760D01*
X6280865Y-10401760D02*
X6271341Y-10382712D01*
X6271341Y-10382712D02*
X6271341Y-10211284D01*
X6452294Y-10401760D02*
X6433246Y-10411284D01*
X6433246Y-10411284D02*
X6395151Y-10411284D01*
X6395151Y-10411284D02*
X6376103Y-10401760D01*
X6376103Y-10401760D02*
X6366580Y-10382712D01*
X6366580Y-10382712D02*
X6366580Y-10306522D01*
X6366580Y-10306522D02*
X6376103Y-10287474D01*
X6376103Y-10287474D02*
X6395151Y-10277950D01*
X6395151Y-10277950D02*
X6433246Y-10277950D01*
X6433246Y-10277950D02*
X6452294Y-10287474D01*
X6452294Y-10287474D02*
X6461818Y-10306522D01*
X6461818Y-10306522D02*
X6461818Y-10325570D01*
X6461818Y-10325570D02*
X6366580Y-10344617D01*
X6538008Y-10401760D02*
X6557056Y-10411284D01*
X6557056Y-10411284D02*
X6595151Y-10411284D01*
X6595151Y-10411284D02*
X6614199Y-10401760D01*
X6614199Y-10401760D02*
X6623722Y-10382712D01*
X6623722Y-10382712D02*
X6623722Y-10373189D01*
X6623722Y-10373189D02*
X6614199Y-10354141D01*
X6614199Y-10354141D02*
X6595151Y-10344617D01*
X6595151Y-10344617D02*
X6566580Y-10344617D01*
X6566580Y-10344617D02*
X6547532Y-10335093D01*
X6547532Y-10335093D02*
X6538008Y-10316046D01*
X6538008Y-10316046D02*
X6538008Y-10306522D01*
X6538008Y-10306522D02*
X6547532Y-10287474D01*
X6547532Y-10287474D02*
X6566580Y-10277950D01*
X6566580Y-10277950D02*
X6595151Y-10277950D01*
X6595151Y-10277950D02*
X6614199Y-10287474D01*
X6690389Y-10487474D02*
X6699913Y-10477950D01*
X6699913Y-10477950D02*
X6718961Y-10449379D01*
X6718961Y-10449379D02*
X6728484Y-10430331D01*
X6728484Y-10430331D02*
X6738008Y-10401760D01*
X6738008Y-10401760D02*
X6747532Y-10354141D01*
X6747532Y-10354141D02*
X6747532Y-10316046D01*
X6747532Y-10316046D02*
X6738008Y-10268427D01*
X6738008Y-10268427D02*
X6728484Y-10239855D01*
X6728484Y-10239855D02*
X6718961Y-10220808D01*
X6718961Y-10220808D02*
X6699913Y-10192236D01*
X6699913Y-10192236D02*
X6690389Y-10182712D01*
M02*
