G04 #@! TF.GenerationSoftware,KiCad,Pcbnew,9.0.0*
G04 #@! TF.CreationDate,2025-03-20T15:30:03+09:00*
G04 #@! TF.ProjectId,nofy,6e6f6679-2e6b-4696-9361-645f70636258,rev?*
G04 #@! TF.SameCoordinates,Original*
G04 #@! TF.FileFunction,Profile,NP*
%FSLAX46Y46*%
G04 Gerber Fmt 4.6, Leading zero omitted, Abs format (unit mm)*
G04 Created by KiCad (PCBNEW 9.0.0) date 2025-03-20 15:30:03*
%MOMM*%
%LPD*%
G01*
G04 APERTURE LIST*
G04 #@! TA.AperFunction,Profile*
%ADD10C,0.050000*%
G04 #@! TD*
G04 #@! TA.AperFunction,Profile*
%ADD11C,0.100000*%
G04 #@! TD*
G04 APERTURE END LIST*
D10*
X154500000Y-23200000D02*
G75*
G02*
X153500000Y-24200000I-1000000J0D01*
G01*
X68100000Y-21800000D02*
G75*
G02*
X67100000Y-20800000I0J1000000D01*
G01*
X85100000Y-24100000D02*
X100100000Y-24100000D01*
X67100000Y-19700000D02*
X67100000Y-20800000D01*
X17500000Y-30000000D02*
X32500000Y-29999993D01*
X187500000Y-69300000D02*
G75*
G02*
X188500000Y-70300000I0J-1000000D01*
G01*
X16500000Y-31000000D02*
G75*
G02*
X17500000Y-30000000I1000000J0D01*
G01*
X120500000Y-31000000D02*
X120500000Y-62000000D01*
X171500000Y-19700000D02*
G75*
G02*
X172500000Y-18700000I1000000J0D01*
G01*
X102500000Y-97600000D02*
G75*
G02*
X101500000Y-96600000I0J1000000D01*
G01*
X16500000Y-96600000D02*
X16500000Y-31000000D01*
X50500000Y-20800000D02*
G75*
G02*
X49500000Y-21800000I-1000000J0D01*
G01*
X117100000Y-30000000D02*
X102100000Y-30000000D01*
X33500000Y-28999993D02*
X33500000Y-22800000D01*
X171100000Y-70300000D02*
G75*
G02*
X172100000Y-69300000I1000000J0D01*
G01*
X199400000Y-97600000D02*
X221100000Y-97600000D01*
X66100000Y-18700000D02*
G75*
G02*
X67100000Y-19700000I0J-1000000D01*
G01*
X137100000Y-96600000D02*
G75*
G02*
X136100000Y-97600000I-1000000J0D01*
G01*
X171500000Y-20800000D02*
G75*
G02*
X170500000Y-21800000I-1000000J0D01*
G01*
X206100000Y-29999993D02*
G75*
G02*
X205100007Y-28999993I0J999993D01*
G01*
X83500000Y-89400000D02*
G75*
G02*
X84500000Y-90400000I0J-1000000D01*
G01*
X50100000Y-87300000D02*
X50100000Y-88400000D01*
X137100000Y-96600000D02*
X137100000Y-92800000D01*
X171500000Y-19700000D02*
X171500000Y-20800000D01*
X198400000Y-73400000D02*
X198400000Y-96600000D01*
X154100000Y-73400000D02*
G75*
G02*
X155100000Y-72400000I1000000J0D01*
G01*
X187100000Y-18700000D02*
X172500000Y-18700000D01*
X204100000Y-21800000D02*
X189100000Y-21800000D01*
X197400000Y-72400000D02*
G75*
G02*
X198400000Y-73400000I0J-1000000D01*
G01*
X171100000Y-71400000D02*
X171100000Y-70300000D01*
X50500000Y-20800000D02*
X50500000Y-19700000D01*
X189500000Y-72400000D02*
X197400000Y-72400000D01*
X50100000Y-88400000D02*
G75*
G02*
X49100000Y-89400000I-1000000J0D01*
G01*
X118100000Y-31006552D02*
X118100000Y-62000000D01*
X189100000Y-21800000D02*
G75*
G02*
X188100000Y-20800000I0J1000000D01*
G01*
X155100000Y-72400000D02*
X170100000Y-72400000D01*
X83500000Y-89400000D02*
X68500000Y-89400000D01*
X84100000Y-22800000D02*
X84100000Y-23100000D01*
X50500000Y-19700000D02*
G75*
G02*
X51500000Y-18700000I1000000J0D01*
G01*
X101100000Y-25100000D02*
X101100000Y-28996246D01*
X17500000Y-97600000D02*
G75*
G02*
X16500000Y-96600000I0J1000000D01*
G01*
X68500000Y-89400000D02*
G75*
G02*
X67500000Y-88400000I0J1000000D01*
G01*
X170500000Y-21800000D02*
X155500000Y-21800000D01*
X66500000Y-86300000D02*
X51100000Y-86300000D01*
X171100000Y-71400000D02*
G75*
G02*
X170100000Y-72400000I-1000000J0D01*
G01*
X100500000Y-91800000D02*
G75*
G02*
X101500000Y-92800000I0J-1000000D01*
G01*
X102100000Y-30000000D02*
G75*
G02*
X101100000Y-29000000I0J1000000D01*
G01*
X68100000Y-21800000D02*
X83100000Y-21800000D01*
X85100000Y-24100000D02*
G75*
G02*
X84100000Y-23100000I0J1000000D01*
G01*
X117100000Y-97600000D02*
X102500000Y-97600000D01*
X204100000Y-21800000D02*
G75*
G02*
X205100000Y-22800000I0J-1000000D01*
G01*
X137500000Y-25200000D02*
G75*
G02*
X138500000Y-24200000I1000000J0D01*
G01*
X85500000Y-91800000D02*
G75*
G02*
X84500000Y-90800000I0J1000000D01*
G01*
X121500000Y-97600000D02*
G75*
G02*
X120500000Y-96600000I0J1000000D01*
G01*
X172100000Y-69300000D02*
X187500000Y-69300000D01*
X189500000Y-72400000D02*
G75*
G02*
X188500000Y-71400000I0J1000000D01*
G01*
X121500000Y-97600000D02*
X136100000Y-97600000D01*
X33100000Y-90400000D02*
G75*
G02*
X34100000Y-89400000I1000000J0D01*
G01*
X33100000Y-90400000D02*
X33100000Y-96600000D01*
X51500000Y-18700000D02*
X66100000Y-18700000D01*
X120500000Y-31000000D02*
G75*
G02*
X121500000Y-30000000I1000000J0D01*
G01*
X137500000Y-29000000D02*
X137500000Y-25200000D01*
X136500000Y-30000000D02*
X121500000Y-30000000D01*
X187100000Y-18700000D02*
G75*
G02*
X188100000Y-19700000I0J-1000000D01*
G01*
X33500000Y-28999993D02*
G75*
G02*
X32500000Y-30000000I-1000000J-7D01*
G01*
X188500000Y-70300000D02*
X188500000Y-71400000D01*
X222100000Y-96600000D02*
X222100000Y-31000000D01*
X199400000Y-97600000D02*
G75*
G02*
X198400000Y-96600000I0J1000000D01*
G01*
X120500000Y-96600000D02*
X120500000Y-69700000D01*
X100500000Y-91800000D02*
X85500000Y-91800000D01*
X138100000Y-91800000D02*
X153100000Y-91800000D01*
X188100000Y-20800000D02*
X188100000Y-19700000D01*
X67500000Y-88400000D02*
X67500000Y-87300000D01*
X153500000Y-24200000D02*
X138500000Y-24200000D01*
X33100000Y-96600000D02*
G75*
G02*
X32100000Y-97600000I-1000000J0D01*
G01*
X154100000Y-90800000D02*
X154100000Y-73400000D01*
X205100000Y-28999993D02*
X205100000Y-22800000D01*
X221100000Y-30000000D02*
G75*
G02*
X222100000Y-31000000I0J-1000000D01*
G01*
X49100000Y-89400000D02*
X34100000Y-89400000D01*
X100100000Y-24100000D02*
G75*
G02*
X101100000Y-25100000I0J-1000000D01*
G01*
X84500000Y-90800000D02*
X84500000Y-90400000D01*
X50100000Y-87300000D02*
G75*
G02*
X51100000Y-86300000I1000000J0D01*
G01*
X66500000Y-86300000D02*
G75*
G02*
X67500000Y-87300000I0J-1000000D01*
G01*
X33500000Y-22800000D02*
G75*
G02*
X34500000Y-21800000I1000000J0D01*
G01*
X137500000Y-29000000D02*
G75*
G02*
X136500000Y-30000000I-1000000J0D01*
G01*
X137100000Y-92800000D02*
G75*
G02*
X138100000Y-91800000I1000000J0D01*
G01*
X83100000Y-21800000D02*
G75*
G02*
X84100000Y-22800000I0J-1000000D01*
G01*
X154500000Y-22800000D02*
X154500000Y-23200000D01*
X154500000Y-22800000D02*
G75*
G02*
X155500000Y-21800000I1000000J0D01*
G01*
X118100000Y-69700000D02*
X118100000Y-96600000D01*
X101500000Y-96600000D02*
X101500000Y-92800000D01*
X32100000Y-97600000D02*
X17500000Y-97600000D01*
X154100000Y-90800000D02*
G75*
G02*
X153100000Y-91800000I-1000000J0D01*
G01*
X34500000Y-21800000D02*
X49500000Y-21800000D01*
X221100000Y-30000000D02*
X206100000Y-29999993D01*
X117100000Y-30000000D02*
G75*
G02*
X118100000Y-31000000I0J-1000000D01*
G01*
X222100000Y-96600000D02*
G75*
G02*
X221100000Y-97600000I-1000000J0D01*
G01*
X118100000Y-96600000D02*
G75*
G02*
X117100000Y-97600000I-1000000J0D01*
G01*
D11*
X118100000Y-69700000D02*
G75*
G02*
X120500000Y-69700000I1200000J0D01*
G01*
X120500000Y-62000000D02*
G75*
G02*
X118100000Y-62000000I-1200000J0D01*
G01*
M02*
