%TF.GenerationSoftware,KiCad,Pcbnew,9.0.0*%
%TF.CreationDate,2025-03-20T15:30:15+09:00*%
%TF.ProjectId,nofy,6e6f6679-2e6b-4696-9361-645f70636258,rev?*%
%TF.SameCoordinates,Original*%
%TF.FileFunction,Drillmap*%
%TF.FilePolarity,Positive*%
%FSLAX45Y45*%
G04 Gerber Fmt 4.5, Leading zero omitted, Abs format (unit mm)*
G04 Created by KiCad (PCBNEW 9.0.0) date 2025-03-20 15:30:15*
%MOMM*%
%LPD*%
G01*
G04 APERTURE LIST*
%ADD10C,0.050000*%
%ADD11C,0.100000*%
%ADD12C,0.200000*%
%ADD13C,0.300000*%
%ADD14C,0.320000*%
%ADD15C,0.480000*%
G04 APERTURE END LIST*
D10*
X15450000Y-2320000D02*
G75*
G02*
X15350000Y-2420000I-100000J0D01*
G01*
X6810000Y-2180000D02*
G75*
G02*
X6710000Y-2080000I0J100000D01*
G01*
X8510000Y-2410000D02*
X10010000Y-2410000D01*
X6710000Y-1970000D02*
X6710000Y-2080000D01*
X1750000Y-3000000D02*
X3250000Y-2999999D01*
X18750000Y-6930000D02*
G75*
G02*
X18850000Y-7030000I0J-100000D01*
G01*
X1650000Y-3100000D02*
G75*
G02*
X1750000Y-3000000I100000J0D01*
G01*
X12050000Y-3100000D02*
X12050000Y-6200000D01*
X17150000Y-1970000D02*
G75*
G02*
X17250000Y-1870000I100000J0D01*
G01*
X10250000Y-9760000D02*
G75*
G02*
X10150000Y-9660000I0J100000D01*
G01*
X1650000Y-9660000D02*
X1650000Y-3100000D01*
X5050000Y-2080000D02*
G75*
G02*
X4950000Y-2180000I-100000J0D01*
G01*
X11710000Y-3000000D02*
X10210000Y-3000000D01*
X3350000Y-2899999D02*
X3350000Y-2280000D01*
X17110000Y-7030000D02*
G75*
G02*
X17210000Y-6930000I100000J0D01*
G01*
X19940000Y-9760000D02*
X22110000Y-9760000D01*
X6610000Y-1870000D02*
G75*
G02*
X6710000Y-1970000I0J-100000D01*
G01*
X13710000Y-9660000D02*
G75*
G02*
X13610000Y-9760000I-100000J0D01*
G01*
X17150000Y-2080000D02*
G75*
G02*
X17050000Y-2180000I-100000J0D01*
G01*
X20610000Y-2999999D02*
G75*
G02*
X20510001Y-2899999I0J99999D01*
G01*
X8350000Y-8940000D02*
G75*
G02*
X8450000Y-9040000I0J-100000D01*
G01*
X5010000Y-8730000D02*
X5010000Y-8840000D01*
X13710000Y-9660000D02*
X13710000Y-9280000D01*
X17150000Y-1970000D02*
X17150000Y-2080000D01*
X19840000Y-7340000D02*
X19840000Y-9660000D01*
X15410000Y-7340000D02*
G75*
G02*
X15510000Y-7240000I100000J0D01*
G01*
X18710000Y-1870000D02*
X17250000Y-1870000D01*
X20410000Y-2180000D02*
X18910000Y-2180000D01*
X19740000Y-7240000D02*
G75*
G02*
X19840000Y-7340000I0J-100000D01*
G01*
X17110000Y-7140000D02*
X17110000Y-7030000D01*
X5050000Y-2080000D02*
X5050000Y-1970000D01*
X18950000Y-7240000D02*
X19740000Y-7240000D01*
X5010000Y-8840000D02*
G75*
G02*
X4910000Y-8940000I-100000J0D01*
G01*
X11810000Y-3100655D02*
X11810000Y-6200000D01*
X18910000Y-2180000D02*
G75*
G02*
X18810000Y-2080000I0J100000D01*
G01*
X15510000Y-7240000D02*
X17010000Y-7240000D01*
X8350000Y-8940000D02*
X6850000Y-8940000D01*
X8410000Y-2280000D02*
X8410000Y-2310000D01*
X5050000Y-1970000D02*
G75*
G02*
X5150000Y-1870000I100000J0D01*
G01*
X10110000Y-2510000D02*
X10110000Y-2899625D01*
X1750000Y-9760000D02*
G75*
G02*
X1650000Y-9660000I0J100000D01*
G01*
X6850000Y-8940000D02*
G75*
G02*
X6750000Y-8840000I0J100000D01*
G01*
X17050000Y-2180000D02*
X15550000Y-2180000D01*
X6650000Y-8630000D02*
X5110000Y-8630000D01*
X17110000Y-7140000D02*
G75*
G02*
X17010000Y-7240000I-100000J0D01*
G01*
X10050000Y-9180000D02*
G75*
G02*
X10150000Y-9280000I0J-100000D01*
G01*
X10210000Y-3000000D02*
G75*
G02*
X10110000Y-2900000I0J100000D01*
G01*
X6810000Y-2180000D02*
X8310000Y-2180000D01*
X8510000Y-2410000D02*
G75*
G02*
X8410000Y-2310000I0J100000D01*
G01*
X11710000Y-9760000D02*
X10250000Y-9760000D01*
X20410000Y-2180000D02*
G75*
G02*
X20510000Y-2280000I0J-100000D01*
G01*
X13750000Y-2520000D02*
G75*
G02*
X13850000Y-2420000I100000J0D01*
G01*
X8550000Y-9180000D02*
G75*
G02*
X8450000Y-9080000I0J100000D01*
G01*
X12150000Y-9760000D02*
G75*
G02*
X12050000Y-9660000I0J100000D01*
G01*
X17210000Y-6930000D02*
X18750000Y-6930000D01*
X18950000Y-7240000D02*
G75*
G02*
X18850000Y-7140000I0J100000D01*
G01*
X12150000Y-9760000D02*
X13610000Y-9760000D01*
X3310000Y-9040000D02*
G75*
G02*
X3410000Y-8940000I100000J0D01*
G01*
X3310000Y-9040000D02*
X3310000Y-9660000D01*
X5150000Y-1870000D02*
X6610000Y-1870000D01*
X12050000Y-3100000D02*
G75*
G02*
X12150000Y-3000000I100000J0D01*
G01*
X13750000Y-2900000D02*
X13750000Y-2520000D01*
X13650000Y-3000000D02*
X12150000Y-3000000D01*
X18710000Y-1870000D02*
G75*
G02*
X18810000Y-1970000I0J-100000D01*
G01*
X3350000Y-2899999D02*
G75*
G02*
X3250000Y-3000000I-100000J-1D01*
G01*
X18850000Y-7030000D02*
X18850000Y-7140000D01*
X22210000Y-9660000D02*
X22210000Y-3100000D01*
X19940000Y-9760000D02*
G75*
G02*
X19840000Y-9660000I0J100000D01*
G01*
X12050000Y-9660000D02*
X12050000Y-6970000D01*
X10050000Y-9180000D02*
X8550000Y-9180000D01*
X13810000Y-9180000D02*
X15310000Y-9180000D01*
X18810000Y-2080000D02*
X18810000Y-1970000D01*
X6750000Y-8840000D02*
X6750000Y-8730000D01*
X15350000Y-2420000D02*
X13850000Y-2420000D01*
X3310000Y-9660000D02*
G75*
G02*
X3210000Y-9760000I-100000J0D01*
G01*
X15410000Y-9080000D02*
X15410000Y-7340000D01*
X20510000Y-2899999D02*
X20510000Y-2280000D01*
X22110000Y-3000000D02*
G75*
G02*
X22210000Y-3100000I0J-100000D01*
G01*
X4910000Y-8940000D02*
X3410000Y-8940000D01*
X10010000Y-2410000D02*
G75*
G02*
X10110000Y-2510000I0J-100000D01*
G01*
X8450000Y-9080000D02*
X8450000Y-9040000D01*
X5010000Y-8730000D02*
G75*
G02*
X5110000Y-8630000I100000J0D01*
G01*
X6650000Y-8630000D02*
G75*
G02*
X6750000Y-8730000I0J-100000D01*
G01*
X3350000Y-2280000D02*
G75*
G02*
X3450000Y-2180000I100000J0D01*
G01*
X13750000Y-2900000D02*
G75*
G02*
X13650000Y-3000000I-100000J0D01*
G01*
X13710000Y-9280000D02*
G75*
G02*
X13810000Y-9180000I100000J0D01*
G01*
X8310000Y-2180000D02*
G75*
G02*
X8410000Y-2280000I0J-100000D01*
G01*
X15450000Y-2280000D02*
X15450000Y-2320000D01*
X15450000Y-2280000D02*
G75*
G02*
X15550000Y-2180000I100000J0D01*
G01*
X11810000Y-6970000D02*
X11810000Y-9660000D01*
X10150000Y-9660000D02*
X10150000Y-9280000D01*
X3210000Y-9760000D02*
X1750000Y-9760000D01*
X15410000Y-9080000D02*
G75*
G02*
X15310000Y-9180000I-100000J0D01*
G01*
X3450000Y-2180000D02*
X4950000Y-2180000D01*
X22110000Y-3000000D02*
X20610000Y-2999999D01*
X11710000Y-3000000D02*
G75*
G02*
X11810000Y-3100000I0J-100000D01*
G01*
X22210000Y-9660000D02*
G75*
G02*
X22110000Y-9760000I-100000J0D01*
G01*
X11810000Y-9660000D02*
G75*
G02*
X11710000Y-9760000I-100000J0D01*
G01*
D11*
X11810000Y-6970000D02*
G75*
G02*
X12050000Y-6970000I120000J0D01*
G01*
X12050000Y-6200000D02*
G75*
G02*
X11810000Y-6200000I-120000J0D01*
G01*
D12*
D11*
X1930000Y-4335000D02*
X2030000Y-4435000D01*
X2030000Y-4335000D02*
X1930000Y-4435000D01*
X1930000Y-6035000D02*
X2030000Y-6135000D01*
X2030000Y-6035000D02*
X1930000Y-6135000D01*
X1930000Y-7735000D02*
X2030000Y-7835000D01*
X2030000Y-7735000D02*
X1930000Y-7835000D01*
X1930000Y-9435000D02*
X2030000Y-9535000D01*
X2030000Y-9435000D02*
X1930000Y-9535000D01*
X3630000Y-3515000D02*
X3730000Y-3615000D01*
X3730000Y-3515000D02*
X3630000Y-3615000D01*
X3630000Y-5215000D02*
X3730000Y-5315000D01*
X3730000Y-5215000D02*
X3630000Y-5315000D01*
X3630000Y-6915000D02*
X3730000Y-7015000D01*
X3730000Y-6915000D02*
X3630000Y-7015000D01*
X3630000Y-8615000D02*
X3730000Y-8715000D01*
X3730000Y-8615000D02*
X3630000Y-8715000D01*
X6330000Y-2095000D02*
X6430000Y-2195000D01*
X6430000Y-2095000D02*
X6330000Y-2195000D01*
X6330000Y-3795000D02*
X6430000Y-3895000D01*
X6430000Y-3795000D02*
X6330000Y-3895000D01*
X6330000Y-5495000D02*
X6430000Y-5595000D01*
X6430000Y-5495000D02*
X6330000Y-5595000D01*
X6330000Y-7195000D02*
X6430000Y-7295000D01*
X6430000Y-7195000D02*
X6330000Y-7295000D01*
X8030000Y-2405000D02*
X8130000Y-2505000D01*
X8130000Y-2405000D02*
X8030000Y-2505000D01*
X8030000Y-4105000D02*
X8130000Y-4205000D01*
X8130000Y-4105000D02*
X8030000Y-4205000D01*
X8030000Y-5805000D02*
X8130000Y-5905000D01*
X8130000Y-5805000D02*
X8030000Y-5905000D01*
X8030000Y-7505000D02*
X8130000Y-7605000D01*
X8130000Y-7505000D02*
X8030000Y-7605000D01*
X9730000Y-2635000D02*
X9830000Y-2735000D01*
X9830000Y-2635000D02*
X9730000Y-2735000D01*
X9730000Y-4345000D02*
X9830000Y-4445000D01*
X9830000Y-4345000D02*
X9730000Y-4445000D01*
X9730000Y-6045000D02*
X9830000Y-6145000D01*
X9830000Y-6045000D02*
X9730000Y-6145000D01*
X9730000Y-7745000D02*
X9830000Y-7845000D01*
X9830000Y-7745000D02*
X9730000Y-7845000D01*
X11430000Y-3225000D02*
X11530000Y-3325000D01*
X11530000Y-3225000D02*
X11430000Y-3325000D01*
X11430000Y-4925000D02*
X11530000Y-5025000D01*
X11530000Y-4925000D02*
X11430000Y-5025000D01*
X11430000Y-6625000D02*
X11530000Y-6725000D01*
X11530000Y-6625000D02*
X11430000Y-6725000D01*
X11485000Y-9380000D02*
X11585000Y-9480000D01*
X11585000Y-9380000D02*
X11485000Y-9480000D01*
X11815000Y-6310000D02*
X11915000Y-6410000D01*
X11915000Y-6310000D02*
X11815000Y-6410000D01*
X11815000Y-6460000D02*
X11915000Y-6560000D01*
X11915000Y-6460000D02*
X11815000Y-6560000D01*
X11815000Y-6610000D02*
X11915000Y-6710000D01*
X11915000Y-6610000D02*
X11815000Y-6710000D01*
X11815000Y-6760000D02*
X11915000Y-6860000D01*
X11915000Y-6760000D02*
X11815000Y-6860000D01*
X11945000Y-6310000D02*
X12045000Y-6410000D01*
X12045000Y-6310000D02*
X11945000Y-6410000D01*
X11945000Y-6460000D02*
X12045000Y-6560000D01*
X12045000Y-6460000D02*
X11945000Y-6560000D01*
X11945000Y-6610000D02*
X12045000Y-6710000D01*
X12045000Y-6610000D02*
X11945000Y-6710000D01*
X11945000Y-6760000D02*
X12045000Y-6860000D01*
X12045000Y-6760000D02*
X11945000Y-6860000D01*
X12330000Y-4335000D02*
X12430000Y-4435000D01*
X12430000Y-4335000D02*
X12330000Y-4435000D01*
X12330000Y-6035000D02*
X12430000Y-6135000D01*
X12430000Y-6035000D02*
X12330000Y-6135000D01*
X13385000Y-7680000D02*
X13485000Y-7780000D01*
X13485000Y-7680000D02*
X13385000Y-7780000D01*
X13385000Y-9380000D02*
X13485000Y-9480000D01*
X13485000Y-9380000D02*
X13385000Y-9480000D01*
X15030000Y-7745000D02*
X15130000Y-7845000D01*
X15130000Y-7745000D02*
X15030000Y-7845000D01*
X15730000Y-3515000D02*
X15830000Y-3615000D01*
X15830000Y-3515000D02*
X15730000Y-3615000D01*
X15730000Y-5215000D02*
X15830000Y-5315000D01*
X15830000Y-5215000D02*
X15730000Y-5315000D01*
X15730000Y-6915000D02*
X15830000Y-7015000D01*
X15830000Y-6915000D02*
X15730000Y-7015000D01*
X17430000Y-3205000D02*
X17530000Y-3305000D01*
X17530000Y-3205000D02*
X17430000Y-3305000D01*
X17430000Y-4905000D02*
X17530000Y-5005000D01*
X17530000Y-4905000D02*
X17430000Y-5005000D01*
X17430000Y-6605000D02*
X17530000Y-6705000D01*
X17530000Y-6605000D02*
X17430000Y-6705000D01*
X20130000Y-2407500D02*
X20230000Y-2507500D01*
X20230000Y-2407500D02*
X20130000Y-2507500D01*
X20130000Y-4107500D02*
X20230000Y-4207500D01*
X20230000Y-4107500D02*
X20130000Y-4207500D01*
X20130000Y-5805000D02*
X20230000Y-5905000D01*
X20230000Y-5805000D02*
X20130000Y-5905000D01*
X21830000Y-3225000D02*
X21930000Y-3325000D01*
X21930000Y-3225000D02*
X21830000Y-3325000D01*
X21830000Y-4925000D02*
X21930000Y-5025000D01*
X21930000Y-4925000D02*
X21830000Y-5025000D01*
X21830000Y-6625000D02*
X21930000Y-6725000D01*
X21930000Y-6625000D02*
X21830000Y-6725000D01*
X21830000Y-8325000D02*
X21930000Y-8425000D01*
X21930000Y-8325000D02*
X21830000Y-8425000D01*
D13*
X2630000Y-3240000D02*
G75*
G02*
X2330000Y-3240000I-150000J0D01*
G01*
X2330000Y-3240000D02*
G75*
G02*
X2630000Y-3240000I150000J0D01*
G01*
X2630000Y-4940000D02*
G75*
G02*
X2330000Y-4940000I-150000J0D01*
G01*
X2330000Y-4940000D02*
G75*
G02*
X2630000Y-4940000I150000J0D01*
G01*
X2630000Y-6640000D02*
G75*
G02*
X2330000Y-6640000I-150000J0D01*
G01*
X2330000Y-6640000D02*
G75*
G02*
X2630000Y-6640000I150000J0D01*
G01*
X2630000Y-8340000D02*
G75*
G02*
X2330000Y-8340000I-150000J0D01*
G01*
X2330000Y-8340000D02*
G75*
G02*
X2630000Y-8340000I150000J0D01*
G01*
X3130000Y-3460000D02*
G75*
G02*
X2830000Y-3460000I-150000J0D01*
G01*
X2830000Y-3460000D02*
G75*
G02*
X3130000Y-3460000I150000J0D01*
G01*
X3130000Y-5160000D02*
G75*
G02*
X2830000Y-5160000I-150000J0D01*
G01*
X2830000Y-5160000D02*
G75*
G02*
X3130000Y-5160000I150000J0D01*
G01*
X3130000Y-6860000D02*
G75*
G02*
X2830000Y-6860000I-150000J0D01*
G01*
X2830000Y-6860000D02*
G75*
G02*
X3130000Y-6860000I150000J0D01*
G01*
X3130000Y-8560000D02*
G75*
G02*
X2830000Y-8560000I-150000J0D01*
G01*
X2830000Y-8560000D02*
G75*
G02*
X3130000Y-8560000I150000J0D01*
G01*
X4330000Y-2420000D02*
G75*
G02*
X4030000Y-2420000I-150000J0D01*
G01*
X4030000Y-2420000D02*
G75*
G02*
X4330000Y-2420000I150000J0D01*
G01*
X4330000Y-4120000D02*
G75*
G02*
X4030000Y-4120000I-150000J0D01*
G01*
X4030000Y-4120000D02*
G75*
G02*
X4330000Y-4120000I150000J0D01*
G01*
X4330000Y-5820000D02*
G75*
G02*
X4030000Y-5820000I-150000J0D01*
G01*
X4030000Y-5820000D02*
G75*
G02*
X4330000Y-5820000I150000J0D01*
G01*
X4330000Y-7520000D02*
G75*
G02*
X4030000Y-7520000I-150000J0D01*
G01*
X4030000Y-7520000D02*
G75*
G02*
X4330000Y-7520000I150000J0D01*
G01*
X4830000Y-2640000D02*
G75*
G02*
X4530000Y-2640000I-150000J0D01*
G01*
X4530000Y-2640000D02*
G75*
G02*
X4830000Y-2640000I150000J0D01*
G01*
X4830000Y-4340000D02*
G75*
G02*
X4530000Y-4340000I-150000J0D01*
G01*
X4530000Y-4340000D02*
G75*
G02*
X4830000Y-4340000I150000J0D01*
G01*
X4830000Y-6040000D02*
G75*
G02*
X4530000Y-6040000I-150000J0D01*
G01*
X4530000Y-6040000D02*
G75*
G02*
X4830000Y-6040000I150000J0D01*
G01*
X4830000Y-7740000D02*
G75*
G02*
X4530000Y-7740000I-150000J0D01*
G01*
X4530000Y-7740000D02*
G75*
G02*
X4830000Y-7740000I150000J0D01*
G01*
X5530000Y-3070000D02*
G75*
G02*
X5230000Y-3070000I-150000J0D01*
G01*
X5230000Y-3070000D02*
G75*
G02*
X5530000Y-3070000I150000J0D01*
G01*
X5530000Y-4770000D02*
G75*
G02*
X5230000Y-4770000I-150000J0D01*
G01*
X5230000Y-4770000D02*
G75*
G02*
X5530000Y-4770000I150000J0D01*
G01*
X5530000Y-6470000D02*
G75*
G02*
X5230000Y-6470000I-150000J0D01*
G01*
X5230000Y-6470000D02*
G75*
G02*
X5530000Y-6470000I150000J0D01*
G01*
X5530000Y-8170000D02*
G75*
G02*
X5230000Y-8170000I-150000J0D01*
G01*
X5230000Y-8170000D02*
G75*
G02*
X5530000Y-8170000I150000J0D01*
G01*
X6030000Y-3290000D02*
G75*
G02*
X5730000Y-3290000I-150000J0D01*
G01*
X5730000Y-3290000D02*
G75*
G02*
X6030000Y-3290000I150000J0D01*
G01*
X6030000Y-4990000D02*
G75*
G02*
X5730000Y-4990000I-150000J0D01*
G01*
X5730000Y-4990000D02*
G75*
G02*
X6030000Y-4990000I150000J0D01*
G01*
X6030000Y-6690000D02*
G75*
G02*
X5730000Y-6690000I-150000J0D01*
G01*
X5730000Y-6690000D02*
G75*
G02*
X6030000Y-6690000I150000J0D01*
G01*
X6030000Y-8390000D02*
G75*
G02*
X5730000Y-8390000I-150000J0D01*
G01*
X5730000Y-8390000D02*
G75*
G02*
X6030000Y-8390000I150000J0D01*
G01*
X7230000Y-3380000D02*
G75*
G02*
X6930000Y-3380000I-150000J0D01*
G01*
X6930000Y-3380000D02*
G75*
G02*
X7230000Y-3380000I150000J0D01*
G01*
X7230000Y-5080000D02*
G75*
G02*
X6930000Y-5080000I-150000J0D01*
G01*
X6930000Y-5080000D02*
G75*
G02*
X7230000Y-5080000I150000J0D01*
G01*
X7230000Y-6780000D02*
G75*
G02*
X6930000Y-6780000I-150000J0D01*
G01*
X6930000Y-6780000D02*
G75*
G02*
X7230000Y-6780000I150000J0D01*
G01*
X7230000Y-8480000D02*
G75*
G02*
X6930000Y-8480000I-150000J0D01*
G01*
X6930000Y-8480000D02*
G75*
G02*
X7230000Y-8480000I150000J0D01*
G01*
X7730000Y-3600000D02*
G75*
G02*
X7430000Y-3600000I-150000J0D01*
G01*
X7430000Y-3600000D02*
G75*
G02*
X7730000Y-3600000I150000J0D01*
G01*
X7730000Y-5300000D02*
G75*
G02*
X7430000Y-5300000I-150000J0D01*
G01*
X7430000Y-5300000D02*
G75*
G02*
X7730000Y-5300000I150000J0D01*
G01*
X7730000Y-7000000D02*
G75*
G02*
X7430000Y-7000000I-150000J0D01*
G01*
X7430000Y-7000000D02*
G75*
G02*
X7730000Y-7000000I150000J0D01*
G01*
X7730000Y-8700000D02*
G75*
G02*
X7430000Y-8700000I-150000J0D01*
G01*
X7430000Y-8700000D02*
G75*
G02*
X7730000Y-8700000I150000J0D01*
G01*
X8930000Y-3610000D02*
G75*
G02*
X8630000Y-3610000I-150000J0D01*
G01*
X8630000Y-3610000D02*
G75*
G02*
X8930000Y-3610000I150000J0D01*
G01*
X8930000Y-5320000D02*
G75*
G02*
X8630000Y-5320000I-150000J0D01*
G01*
X8630000Y-5320000D02*
G75*
G02*
X8930000Y-5320000I150000J0D01*
G01*
X8930000Y-7020000D02*
G75*
G02*
X8630000Y-7020000I-150000J0D01*
G01*
X8630000Y-7020000D02*
G75*
G02*
X8930000Y-7020000I150000J0D01*
G01*
X8930000Y-8720000D02*
G75*
G02*
X8630000Y-8720000I-150000J0D01*
G01*
X8630000Y-8720000D02*
G75*
G02*
X8930000Y-8720000I150000J0D01*
G01*
X9430000Y-3830000D02*
G75*
G02*
X9130000Y-3830000I-150000J0D01*
G01*
X9130000Y-3830000D02*
G75*
G02*
X9430000Y-3830000I150000J0D01*
G01*
X9430000Y-5540000D02*
G75*
G02*
X9130000Y-5540000I-150000J0D01*
G01*
X9130000Y-5540000D02*
G75*
G02*
X9430000Y-5540000I150000J0D01*
G01*
X9430000Y-7240000D02*
G75*
G02*
X9130000Y-7240000I-150000J0D01*
G01*
X9130000Y-7240000D02*
G75*
G02*
X9430000Y-7240000I150000J0D01*
G01*
X9430000Y-8940000D02*
G75*
G02*
X9130000Y-8940000I-150000J0D01*
G01*
X9130000Y-8940000D02*
G75*
G02*
X9430000Y-8940000I150000J0D01*
G01*
X10540000Y-8930000D02*
G75*
G02*
X10240000Y-8930000I-150000J0D01*
G01*
X10240000Y-8930000D02*
G75*
G02*
X10540000Y-8930000I150000J0D01*
G01*
X10630000Y-4200000D02*
G75*
G02*
X10330000Y-4200000I-150000J0D01*
G01*
X10330000Y-4200000D02*
G75*
G02*
X10630000Y-4200000I150000J0D01*
G01*
X10630000Y-5900000D02*
G75*
G02*
X10330000Y-5900000I-150000J0D01*
G01*
X10330000Y-5900000D02*
G75*
G02*
X10630000Y-5900000I150000J0D01*
G01*
X10630000Y-7600000D02*
G75*
G02*
X10330000Y-7600000I-150000J0D01*
G01*
X10330000Y-7600000D02*
G75*
G02*
X10630000Y-7600000I150000J0D01*
G01*
X10760000Y-8430000D02*
G75*
G02*
X10460000Y-8430000I-150000J0D01*
G01*
X10460000Y-8430000D02*
G75*
G02*
X10760000Y-8430000I150000J0D01*
G01*
X11130000Y-4420000D02*
G75*
G02*
X10830000Y-4420000I-150000J0D01*
G01*
X10830000Y-4420000D02*
G75*
G02*
X11130000Y-4420000I150000J0D01*
G01*
X11130000Y-6120000D02*
G75*
G02*
X10830000Y-6120000I-150000J0D01*
G01*
X10830000Y-6120000D02*
G75*
G02*
X11130000Y-6120000I150000J0D01*
G01*
X11130000Y-7820000D02*
G75*
G02*
X10830000Y-7820000I-150000J0D01*
G01*
X10830000Y-7820000D02*
G75*
G02*
X11130000Y-7820000I150000J0D01*
G01*
X12440000Y-7230000D02*
G75*
G02*
X12140000Y-7230000I-150000J0D01*
G01*
X12140000Y-7230000D02*
G75*
G02*
X12440000Y-7230000I150000J0D01*
G01*
X12440000Y-8930000D02*
G75*
G02*
X12140000Y-8930000I-150000J0D01*
G01*
X12140000Y-8930000D02*
G75*
G02*
X12440000Y-8930000I150000J0D01*
G01*
X12660000Y-6730000D02*
G75*
G02*
X12360000Y-6730000I-150000J0D01*
G01*
X12360000Y-6730000D02*
G75*
G02*
X12660000Y-6730000I150000J0D01*
G01*
X12660000Y-8430000D02*
G75*
G02*
X12360000Y-8430000I-150000J0D01*
G01*
X12360000Y-8430000D02*
G75*
G02*
X12660000Y-8430000I150000J0D01*
G01*
X13030000Y-3240000D02*
G75*
G02*
X12730000Y-3240000I-150000J0D01*
G01*
X12730000Y-3240000D02*
G75*
G02*
X13030000Y-3240000I150000J0D01*
G01*
X13030000Y-4940000D02*
G75*
G02*
X12730000Y-4940000I-150000J0D01*
G01*
X12730000Y-4940000D02*
G75*
G02*
X13030000Y-4940000I150000J0D01*
G01*
X13530000Y-3460000D02*
G75*
G02*
X13230000Y-3460000I-150000J0D01*
G01*
X13230000Y-3460000D02*
G75*
G02*
X13530000Y-3460000I150000J0D01*
G01*
X13530000Y-5160000D02*
G75*
G02*
X13230000Y-5160000I-150000J0D01*
G01*
X13230000Y-5160000D02*
G75*
G02*
X13530000Y-5160000I150000J0D01*
G01*
X14230000Y-8720000D02*
G75*
G02*
X13930000Y-8720000I-150000J0D01*
G01*
X13930000Y-8720000D02*
G75*
G02*
X14230000Y-8720000I150000J0D01*
G01*
X14730000Y-2660000D02*
G75*
G02*
X14430000Y-2660000I-150000J0D01*
G01*
X14430000Y-2660000D02*
G75*
G02*
X14730000Y-2660000I150000J0D01*
G01*
X14730000Y-4360000D02*
G75*
G02*
X14430000Y-4360000I-150000J0D01*
G01*
X14430000Y-4360000D02*
G75*
G02*
X14730000Y-4360000I150000J0D01*
G01*
X14730000Y-6060000D02*
G75*
G02*
X14430000Y-6060000I-150000J0D01*
G01*
X14430000Y-6060000D02*
G75*
G02*
X14730000Y-6060000I150000J0D01*
G01*
X14730000Y-8940000D02*
G75*
G02*
X14430000Y-8940000I-150000J0D01*
G01*
X14430000Y-8940000D02*
G75*
G02*
X14730000Y-8940000I150000J0D01*
G01*
X15230000Y-2880000D02*
G75*
G02*
X14930000Y-2880000I-150000J0D01*
G01*
X14930000Y-2880000D02*
G75*
G02*
X15230000Y-2880000I150000J0D01*
G01*
X15230000Y-4580000D02*
G75*
G02*
X14930000Y-4580000I-150000J0D01*
G01*
X14930000Y-4580000D02*
G75*
G02*
X15230000Y-4580000I150000J0D01*
G01*
X15230000Y-6280000D02*
G75*
G02*
X14930000Y-6280000I-150000J0D01*
G01*
X14930000Y-6280000D02*
G75*
G02*
X15230000Y-6280000I150000J0D01*
G01*
X16430000Y-2420000D02*
G75*
G02*
X16130000Y-2420000I-150000J0D01*
G01*
X16130000Y-2420000D02*
G75*
G02*
X16430000Y-2420000I150000J0D01*
G01*
X16430000Y-4120000D02*
G75*
G02*
X16130000Y-4120000I-150000J0D01*
G01*
X16130000Y-4120000D02*
G75*
G02*
X16430000Y-4120000I150000J0D01*
G01*
X16430000Y-5820000D02*
G75*
G02*
X16130000Y-5820000I-150000J0D01*
G01*
X16130000Y-5820000D02*
G75*
G02*
X16430000Y-5820000I150000J0D01*
G01*
X16930000Y-2640000D02*
G75*
G02*
X16630000Y-2640000I-150000J0D01*
G01*
X16630000Y-2640000D02*
G75*
G02*
X16930000Y-2640000I150000J0D01*
G01*
X16930000Y-4340000D02*
G75*
G02*
X16630000Y-4340000I-150000J0D01*
G01*
X16630000Y-4340000D02*
G75*
G02*
X16930000Y-4340000I150000J0D01*
G01*
X16930000Y-6040000D02*
G75*
G02*
X16630000Y-6040000I-150000J0D01*
G01*
X16630000Y-6040000D02*
G75*
G02*
X16930000Y-6040000I150000J0D01*
G01*
X18130000Y-2110000D02*
G75*
G02*
X17830000Y-2110000I-150000J0D01*
G01*
X17830000Y-2110000D02*
G75*
G02*
X18130000Y-2110000I150000J0D01*
G01*
X18130000Y-3810000D02*
G75*
G02*
X17830000Y-3810000I-150000J0D01*
G01*
X17830000Y-3810000D02*
G75*
G02*
X18130000Y-3810000I150000J0D01*
G01*
X18130000Y-5510000D02*
G75*
G02*
X17830000Y-5510000I-150000J0D01*
G01*
X17830000Y-5510000D02*
G75*
G02*
X18130000Y-5510000I150000J0D01*
G01*
X18630000Y-2330000D02*
G75*
G02*
X18330000Y-2330000I-150000J0D01*
G01*
X18330000Y-2330000D02*
G75*
G02*
X18630000Y-2330000I150000J0D01*
G01*
X18630000Y-4030000D02*
G75*
G02*
X18330000Y-4030000I-150000J0D01*
G01*
X18330000Y-4030000D02*
G75*
G02*
X18630000Y-4030000I150000J0D01*
G01*
X18630000Y-5730000D02*
G75*
G02*
X18330000Y-5730000I-150000J0D01*
G01*
X18330000Y-5730000D02*
G75*
G02*
X18630000Y-5730000I150000J0D01*
G01*
X19330000Y-3382500D02*
G75*
G02*
X19030000Y-3382500I-150000J0D01*
G01*
X19030000Y-3382500D02*
G75*
G02*
X19330000Y-3382500I150000J0D01*
G01*
X19330000Y-5082500D02*
G75*
G02*
X19030000Y-5082500I-150000J0D01*
G01*
X19030000Y-5082500D02*
G75*
G02*
X19330000Y-5082500I150000J0D01*
G01*
X19330000Y-6780000D02*
G75*
G02*
X19030000Y-6780000I-150000J0D01*
G01*
X19030000Y-6780000D02*
G75*
G02*
X19330000Y-6780000I150000J0D01*
G01*
X19830000Y-3602500D02*
G75*
G02*
X19530000Y-3602500I-150000J0D01*
G01*
X19530000Y-3602500D02*
G75*
G02*
X19830000Y-3602500I150000J0D01*
G01*
X19830000Y-5302500D02*
G75*
G02*
X19530000Y-5302500I-150000J0D01*
G01*
X19530000Y-5302500D02*
G75*
G02*
X19830000Y-5302500I150000J0D01*
G01*
X19830000Y-7000000D02*
G75*
G02*
X19530000Y-7000000I-150000J0D01*
G01*
X19530000Y-7000000D02*
G75*
G02*
X19830000Y-7000000I150000J0D01*
G01*
X21030000Y-4200000D02*
G75*
G02*
X20730000Y-4200000I-150000J0D01*
G01*
X20730000Y-4200000D02*
G75*
G02*
X21030000Y-4200000I150000J0D01*
G01*
X21030000Y-5900000D02*
G75*
G02*
X20730000Y-5900000I-150000J0D01*
G01*
X20730000Y-5900000D02*
G75*
G02*
X21030000Y-5900000I150000J0D01*
G01*
X21030000Y-7600000D02*
G75*
G02*
X20730000Y-7600000I-150000J0D01*
G01*
X20730000Y-7600000D02*
G75*
G02*
X21030000Y-7600000I150000J0D01*
G01*
X21030000Y-9300000D02*
G75*
G02*
X20730000Y-9300000I-150000J0D01*
G01*
X20730000Y-9300000D02*
G75*
G02*
X21030000Y-9300000I150000J0D01*
G01*
X21530000Y-4420000D02*
G75*
G02*
X21230000Y-4420000I-150000J0D01*
G01*
X21230000Y-4420000D02*
G75*
G02*
X21530000Y-4420000I150000J0D01*
G01*
X21530000Y-6120000D02*
G75*
G02*
X21230000Y-6120000I-150000J0D01*
G01*
X21230000Y-6120000D02*
G75*
G02*
X21530000Y-6120000I150000J0D01*
G01*
X21530000Y-7820000D02*
G75*
G02*
X21230000Y-7820000I-150000J0D01*
G01*
X21230000Y-7820000D02*
G75*
G02*
X21530000Y-7820000I150000J0D01*
G01*
X21530000Y-9520000D02*
G75*
G02*
X21230000Y-9520000I-150000J0D01*
G01*
X21230000Y-9520000D02*
G75*
G02*
X21530000Y-9520000I150000J0D01*
G01*
D14*
X3280000Y-4520000D02*
X3280000Y-4840000D01*
X3120000Y-4680000D02*
X3440000Y-4680000D01*
X3290000Y-7920000D02*
X3290000Y-8240000D01*
X3130000Y-8080000D02*
X3450000Y-8080000D01*
X8450000Y-5690000D02*
X8450000Y-6010000D01*
X8290000Y-5850000D02*
X8610000Y-5850000D01*
X8463000Y-7331000D02*
X8463000Y-7651000D01*
X8303000Y-7491000D02*
X8623000Y-7491000D01*
X15390000Y-5630000D02*
X15390000Y-5950000D01*
X15230000Y-5790000D02*
X15550000Y-5790000D01*
X20540000Y-7920000D02*
X20540000Y-8240000D01*
X20380000Y-8080000D02*
X20700000Y-8080000D01*
X20580000Y-4520000D02*
X20580000Y-4840000D01*
X20420000Y-4680000D02*
X20740000Y-4680000D01*
D15*
X2649707Y-3999707D02*
X2649707Y-3660293D01*
X2310293Y-3660293D01*
X2310293Y-3999707D01*
X2649707Y-3999707D01*
X2649707Y-5699707D02*
X2649707Y-5360293D01*
X2310293Y-5360293D01*
X2310293Y-5699707D01*
X2649707Y-5699707D01*
X2649707Y-7399707D02*
X2649707Y-7060293D01*
X2310293Y-7060293D01*
X2310293Y-7399707D01*
X2649707Y-7399707D01*
X2649707Y-9099707D02*
X2649707Y-8760293D01*
X2310293Y-8760293D01*
X2310293Y-9099707D01*
X2649707Y-9099707D01*
X4349707Y-3179707D02*
X4349707Y-2840293D01*
X4010293Y-2840293D01*
X4010293Y-3179707D01*
X4349707Y-3179707D01*
X4349707Y-4879707D02*
X4349707Y-4540293D01*
X4010293Y-4540293D01*
X4010293Y-4879707D01*
X4349707Y-4879707D01*
X4349707Y-6579707D02*
X4349707Y-6240293D01*
X4010293Y-6240293D01*
X4010293Y-6579707D01*
X4349707Y-6579707D01*
X4349707Y-8279707D02*
X4349707Y-7940293D01*
X4010293Y-7940293D01*
X4010293Y-8279707D01*
X4349707Y-8279707D01*
X6049707Y-2869707D02*
X6049707Y-2530293D01*
X5710293Y-2530293D01*
X5710293Y-2869707D01*
X6049707Y-2869707D01*
X6049707Y-4569707D02*
X6049707Y-4230293D01*
X5710293Y-4230293D01*
X5710293Y-4569707D01*
X6049707Y-4569707D01*
X6049707Y-6269707D02*
X6049707Y-5930293D01*
X5710293Y-5930293D01*
X5710293Y-6269707D01*
X6049707Y-6269707D01*
X6049707Y-7969707D02*
X6049707Y-7630293D01*
X5710293Y-7630293D01*
X5710293Y-7969707D01*
X6049707Y-7969707D01*
X7749707Y-3179707D02*
X7749707Y-2840293D01*
X7410293Y-2840293D01*
X7410293Y-3179707D01*
X7749707Y-3179707D01*
X7749707Y-4879707D02*
X7749707Y-4540293D01*
X7410293Y-4540293D01*
X7410293Y-4879707D01*
X7749707Y-4879707D01*
X7749707Y-6579707D02*
X7749707Y-6240293D01*
X7410293Y-6240293D01*
X7410293Y-6579707D01*
X7749707Y-6579707D01*
X7749707Y-8279707D02*
X7749707Y-7940293D01*
X7410293Y-7940293D01*
X7410293Y-8279707D01*
X7749707Y-8279707D01*
X9449707Y-3409707D02*
X9449707Y-3070293D01*
X9110293Y-3070293D01*
X9110293Y-3409707D01*
X9449707Y-3409707D01*
X9449707Y-5119707D02*
X9449707Y-4780293D01*
X9110293Y-4780293D01*
X9110293Y-5119707D01*
X9449707Y-5119707D01*
X9449707Y-6819707D02*
X9449707Y-6480293D01*
X9110293Y-6480293D01*
X9110293Y-6819707D01*
X9449707Y-6819707D01*
X9449707Y-8519707D02*
X9449707Y-8180293D01*
X9110293Y-8180293D01*
X9110293Y-8519707D01*
X9449707Y-8519707D01*
X11149707Y-3999707D02*
X11149707Y-3660293D01*
X10810293Y-3660293D01*
X10810293Y-3999707D01*
X11149707Y-3999707D01*
X11149707Y-5699707D02*
X11149707Y-5360293D01*
X10810293Y-5360293D01*
X10810293Y-5699707D01*
X11149707Y-5699707D01*
X11149707Y-7399707D02*
X11149707Y-7060293D01*
X10810293Y-7060293D01*
X10810293Y-7399707D01*
X11149707Y-7399707D01*
X11149707Y-9099707D02*
X11149707Y-8760293D01*
X10810293Y-8760293D01*
X10810293Y-9099707D01*
X11149707Y-9099707D01*
X13049707Y-3999707D02*
X13049707Y-3660293D01*
X12710293Y-3660293D01*
X12710293Y-3999707D01*
X13049707Y-3999707D01*
X13049707Y-5699707D02*
X13049707Y-5360293D01*
X12710293Y-5360293D01*
X12710293Y-5699707D01*
X13049707Y-5699707D01*
X13049707Y-7399707D02*
X13049707Y-7060293D01*
X12710293Y-7060293D01*
X12710293Y-7399707D01*
X13049707Y-7399707D01*
X13049707Y-9099707D02*
X13049707Y-8760293D01*
X12710293Y-8760293D01*
X12710293Y-9099707D01*
X13049707Y-9099707D01*
X14749707Y-3419707D02*
X14749707Y-3080293D01*
X14410293Y-3080293D01*
X14410293Y-3419707D01*
X14749707Y-3419707D01*
X14749707Y-5119707D02*
X14749707Y-4780293D01*
X14410293Y-4780293D01*
X14410293Y-5119707D01*
X14749707Y-5119707D01*
X14749707Y-6819707D02*
X14749707Y-6480293D01*
X14410293Y-6480293D01*
X14410293Y-6819707D01*
X14749707Y-6819707D01*
X14749707Y-8519707D02*
X14749707Y-8180293D01*
X14410293Y-8180293D01*
X14410293Y-8519707D01*
X14749707Y-8519707D01*
X16449707Y-3179707D02*
X16449707Y-2840293D01*
X16110293Y-2840293D01*
X16110293Y-3179707D01*
X16449707Y-3179707D01*
X16449707Y-4879707D02*
X16449707Y-4540293D01*
X16110293Y-4540293D01*
X16110293Y-4879707D01*
X16449707Y-4879707D01*
X16449707Y-6579707D02*
X16449707Y-6240293D01*
X16110293Y-6240293D01*
X16110293Y-6579707D01*
X16449707Y-6579707D01*
X18149707Y-2869707D02*
X18149707Y-2530293D01*
X17810293Y-2530293D01*
X17810293Y-2869707D01*
X18149707Y-2869707D01*
X18149707Y-4569707D02*
X18149707Y-4230293D01*
X17810293Y-4230293D01*
X17810293Y-4569707D01*
X18149707Y-4569707D01*
X18149707Y-6269707D02*
X18149707Y-5930293D01*
X17810293Y-5930293D01*
X17810293Y-6269707D01*
X18149707Y-6269707D01*
X19849707Y-3182207D02*
X19849707Y-2842793D01*
X19510293Y-2842793D01*
X19510293Y-3182207D01*
X19849707Y-3182207D01*
X19849707Y-4882207D02*
X19849707Y-4542793D01*
X19510293Y-4542793D01*
X19510293Y-4882207D01*
X19849707Y-4882207D01*
X19849707Y-6579707D02*
X19849707Y-6240293D01*
X19510293Y-6240293D01*
X19510293Y-6579707D01*
X19849707Y-6579707D01*
X21549707Y-3999707D02*
X21549707Y-3660293D01*
X21210293Y-3660293D01*
X21210293Y-3999707D01*
X21549707Y-3999707D01*
X21549707Y-5699707D02*
X21549707Y-5360293D01*
X21210293Y-5360293D01*
X21210293Y-5699707D01*
X21549707Y-5699707D01*
X21549707Y-7399707D02*
X21549707Y-7060293D01*
X21210293Y-7060293D01*
X21210293Y-7399707D01*
X21549707Y-7399707D01*
X21549707Y-9099707D02*
X21549707Y-8760293D01*
X21210293Y-8760293D01*
X21210293Y-9099707D01*
X21549707Y-9099707D01*
D12*
X1908277Y-10073984D02*
X1908277Y-9873984D01*
X1908277Y-9873984D02*
X1955896Y-9873984D01*
X1955896Y-9873984D02*
X1984467Y-9883508D01*
X1984467Y-9883508D02*
X2003515Y-9902555D01*
X2003515Y-9902555D02*
X2013039Y-9921603D01*
X2013039Y-9921603D02*
X2022562Y-9959698D01*
X2022562Y-9959698D02*
X2022562Y-9988270D01*
X2022562Y-9988270D02*
X2013039Y-10026365D01*
X2013039Y-10026365D02*
X2003515Y-10045412D01*
X2003515Y-10045412D02*
X1984467Y-10064460D01*
X1984467Y-10064460D02*
X1955896Y-10073984D01*
X1955896Y-10073984D02*
X1908277Y-10073984D01*
X2108277Y-10073984D02*
X2108277Y-9940650D01*
X2108277Y-9978746D02*
X2117801Y-9959698D01*
X2117801Y-9959698D02*
X2127324Y-9950174D01*
X2127324Y-9950174D02*
X2146372Y-9940650D01*
X2146372Y-9940650D02*
X2165420Y-9940650D01*
X2232086Y-10073984D02*
X2232086Y-9940650D01*
X2232086Y-9873984D02*
X2222563Y-9883508D01*
X2222563Y-9883508D02*
X2232086Y-9893031D01*
X2232086Y-9893031D02*
X2241610Y-9883508D01*
X2241610Y-9883508D02*
X2232086Y-9873984D01*
X2232086Y-9873984D02*
X2232086Y-9893031D01*
X2355896Y-10073984D02*
X2336848Y-10064460D01*
X2336848Y-10064460D02*
X2327324Y-10045412D01*
X2327324Y-10045412D02*
X2327324Y-9873984D01*
X2460658Y-10073984D02*
X2441610Y-10064460D01*
X2441610Y-10064460D02*
X2432086Y-10045412D01*
X2432086Y-10045412D02*
X2432086Y-9873984D01*
X2689229Y-10073984D02*
X2689229Y-9873984D01*
X2689229Y-9873984D02*
X2755896Y-10016841D01*
X2755896Y-10016841D02*
X2822562Y-9873984D01*
X2822562Y-9873984D02*
X2822562Y-10073984D01*
X3003515Y-10073984D02*
X3003515Y-9969222D01*
X3003515Y-9969222D02*
X2993991Y-9950174D01*
X2993991Y-9950174D02*
X2974943Y-9940650D01*
X2974943Y-9940650D02*
X2936848Y-9940650D01*
X2936848Y-9940650D02*
X2917801Y-9950174D01*
X3003515Y-10064460D02*
X2984467Y-10073984D01*
X2984467Y-10073984D02*
X2936848Y-10073984D01*
X2936848Y-10073984D02*
X2917801Y-10064460D01*
X2917801Y-10064460D02*
X2908277Y-10045412D01*
X2908277Y-10045412D02*
X2908277Y-10026365D01*
X2908277Y-10026365D02*
X2917801Y-10007317D01*
X2917801Y-10007317D02*
X2936848Y-9997793D01*
X2936848Y-9997793D02*
X2984467Y-9997793D01*
X2984467Y-9997793D02*
X3003515Y-9988270D01*
X3098753Y-9940650D02*
X3098753Y-10140650D01*
X3098753Y-9950174D02*
X3117801Y-9940650D01*
X3117801Y-9940650D02*
X3155896Y-9940650D01*
X3155896Y-9940650D02*
X3174943Y-9950174D01*
X3174943Y-9950174D02*
X3184467Y-9959698D01*
X3184467Y-9959698D02*
X3193991Y-9978746D01*
X3193991Y-9978746D02*
X3193991Y-10035889D01*
X3193991Y-10035889D02*
X3184467Y-10054936D01*
X3184467Y-10054936D02*
X3174943Y-10064460D01*
X3174943Y-10064460D02*
X3155896Y-10073984D01*
X3155896Y-10073984D02*
X3117801Y-10073984D01*
X3117801Y-10073984D02*
X3098753Y-10064460D01*
X3279705Y-10054936D02*
X3289229Y-10064460D01*
X3289229Y-10064460D02*
X3279705Y-10073984D01*
X3279705Y-10073984D02*
X3270182Y-10064460D01*
X3270182Y-10064460D02*
X3279705Y-10054936D01*
X3279705Y-10054936D02*
X3279705Y-10073984D01*
X3279705Y-9950174D02*
X3289229Y-9959698D01*
X3289229Y-9959698D02*
X3279705Y-9969222D01*
X3279705Y-9969222D02*
X3270182Y-9959698D01*
X3270182Y-9959698D02*
X3279705Y-9950174D01*
X3279705Y-9950174D02*
X3279705Y-9969222D01*
D11*
X1547500Y-10352500D02*
X1647500Y-10452500D01*
X1647500Y-10352500D02*
X1547500Y-10452500D01*
D12*
X2013039Y-10493984D02*
X1898753Y-10493984D01*
X1955896Y-10493984D02*
X1955896Y-10293984D01*
X1955896Y-10293984D02*
X1936848Y-10322555D01*
X1936848Y-10322555D02*
X1917801Y-10341603D01*
X1917801Y-10341603D02*
X1898753Y-10351127D01*
X2098753Y-10474936D02*
X2108277Y-10484460D01*
X2108277Y-10484460D02*
X2098753Y-10493984D01*
X2098753Y-10493984D02*
X2089229Y-10484460D01*
X2089229Y-10484460D02*
X2098753Y-10474936D01*
X2098753Y-10474936D02*
X2098753Y-10493984D01*
X2232086Y-10293984D02*
X2251134Y-10293984D01*
X2251134Y-10293984D02*
X2270182Y-10303508D01*
X2270182Y-10303508D02*
X2279705Y-10313031D01*
X2279705Y-10313031D02*
X2289229Y-10332079D01*
X2289229Y-10332079D02*
X2298753Y-10370174D01*
X2298753Y-10370174D02*
X2298753Y-10417793D01*
X2298753Y-10417793D02*
X2289229Y-10455889D01*
X2289229Y-10455889D02*
X2279705Y-10474936D01*
X2279705Y-10474936D02*
X2270182Y-10484460D01*
X2270182Y-10484460D02*
X2251134Y-10493984D01*
X2251134Y-10493984D02*
X2232086Y-10493984D01*
X2232086Y-10493984D02*
X2213039Y-10484460D01*
X2213039Y-10484460D02*
X2203515Y-10474936D01*
X2203515Y-10474936D02*
X2193991Y-10455889D01*
X2193991Y-10455889D02*
X2184467Y-10417793D01*
X2184467Y-10417793D02*
X2184467Y-10370174D01*
X2184467Y-10370174D02*
X2193991Y-10332079D01*
X2193991Y-10332079D02*
X2203515Y-10313031D01*
X2203515Y-10313031D02*
X2213039Y-10303508D01*
X2213039Y-10303508D02*
X2232086Y-10293984D01*
X2422563Y-10293984D02*
X2441610Y-10293984D01*
X2441610Y-10293984D02*
X2460658Y-10303508D01*
X2460658Y-10303508D02*
X2470182Y-10313031D01*
X2470182Y-10313031D02*
X2479705Y-10332079D01*
X2479705Y-10332079D02*
X2489229Y-10370174D01*
X2489229Y-10370174D02*
X2489229Y-10417793D01*
X2489229Y-10417793D02*
X2479705Y-10455889D01*
X2479705Y-10455889D02*
X2470182Y-10474936D01*
X2470182Y-10474936D02*
X2460658Y-10484460D01*
X2460658Y-10484460D02*
X2441610Y-10493984D01*
X2441610Y-10493984D02*
X2422563Y-10493984D01*
X2422563Y-10493984D02*
X2403515Y-10484460D01*
X2403515Y-10484460D02*
X2393991Y-10474936D01*
X2393991Y-10474936D02*
X2384467Y-10455889D01*
X2384467Y-10455889D02*
X2374944Y-10417793D01*
X2374944Y-10417793D02*
X2374944Y-10370174D01*
X2374944Y-10370174D02*
X2384467Y-10332079D01*
X2384467Y-10332079D02*
X2393991Y-10313031D01*
X2393991Y-10313031D02*
X2403515Y-10303508D01*
X2403515Y-10303508D02*
X2422563Y-10293984D01*
X2613039Y-10293984D02*
X2632086Y-10293984D01*
X2632086Y-10293984D02*
X2651134Y-10303508D01*
X2651134Y-10303508D02*
X2660658Y-10313031D01*
X2660658Y-10313031D02*
X2670182Y-10332079D01*
X2670182Y-10332079D02*
X2679705Y-10370174D01*
X2679705Y-10370174D02*
X2679705Y-10417793D01*
X2679705Y-10417793D02*
X2670182Y-10455889D01*
X2670182Y-10455889D02*
X2660658Y-10474936D01*
X2660658Y-10474936D02*
X2651134Y-10484460D01*
X2651134Y-10484460D02*
X2632086Y-10493984D01*
X2632086Y-10493984D02*
X2613039Y-10493984D01*
X2613039Y-10493984D02*
X2593991Y-10484460D01*
X2593991Y-10484460D02*
X2584467Y-10474936D01*
X2584467Y-10474936D02*
X2574944Y-10455889D01*
X2574944Y-10455889D02*
X2565420Y-10417793D01*
X2565420Y-10417793D02*
X2565420Y-10370174D01*
X2565420Y-10370174D02*
X2574944Y-10332079D01*
X2574944Y-10332079D02*
X2584467Y-10313031D01*
X2584467Y-10313031D02*
X2593991Y-10303508D01*
X2593991Y-10303508D02*
X2613039Y-10293984D01*
X2765420Y-10493984D02*
X2765420Y-10360650D01*
X2765420Y-10379698D02*
X2774944Y-10370174D01*
X2774944Y-10370174D02*
X2793991Y-10360650D01*
X2793991Y-10360650D02*
X2822563Y-10360650D01*
X2822563Y-10360650D02*
X2841610Y-10370174D01*
X2841610Y-10370174D02*
X2851134Y-10389222D01*
X2851134Y-10389222D02*
X2851134Y-10493984D01*
X2851134Y-10389222D02*
X2860658Y-10370174D01*
X2860658Y-10370174D02*
X2879705Y-10360650D01*
X2879705Y-10360650D02*
X2908277Y-10360650D01*
X2908277Y-10360650D02*
X2927324Y-10370174D01*
X2927324Y-10370174D02*
X2936848Y-10389222D01*
X2936848Y-10389222D02*
X2936848Y-10493984D01*
X3032086Y-10493984D02*
X3032086Y-10360650D01*
X3032086Y-10379698D02*
X3041610Y-10370174D01*
X3041610Y-10370174D02*
X3060658Y-10360650D01*
X3060658Y-10360650D02*
X3089229Y-10360650D01*
X3089229Y-10360650D02*
X3108277Y-10370174D01*
X3108277Y-10370174D02*
X3117801Y-10389222D01*
X3117801Y-10389222D02*
X3117801Y-10493984D01*
X3117801Y-10389222D02*
X3127324Y-10370174D01*
X3127324Y-10370174D02*
X3146372Y-10360650D01*
X3146372Y-10360650D02*
X3174943Y-10360650D01*
X3174943Y-10360650D02*
X3193991Y-10370174D01*
X3193991Y-10370174D02*
X3203515Y-10389222D01*
X3203515Y-10389222D02*
X3203515Y-10493984D01*
X3593991Y-10284460D02*
X3422563Y-10541603D01*
X3851134Y-10293984D02*
X3870182Y-10293984D01*
X3870182Y-10293984D02*
X3889229Y-10303508D01*
X3889229Y-10303508D02*
X3898753Y-10313031D01*
X3898753Y-10313031D02*
X3908277Y-10332079D01*
X3908277Y-10332079D02*
X3917801Y-10370174D01*
X3917801Y-10370174D02*
X3917801Y-10417793D01*
X3917801Y-10417793D02*
X3908277Y-10455889D01*
X3908277Y-10455889D02*
X3898753Y-10474936D01*
X3898753Y-10474936D02*
X3889229Y-10484460D01*
X3889229Y-10484460D02*
X3870182Y-10493984D01*
X3870182Y-10493984D02*
X3851134Y-10493984D01*
X3851134Y-10493984D02*
X3832086Y-10484460D01*
X3832086Y-10484460D02*
X3822563Y-10474936D01*
X3822563Y-10474936D02*
X3813039Y-10455889D01*
X3813039Y-10455889D02*
X3803515Y-10417793D01*
X3803515Y-10417793D02*
X3803515Y-10370174D01*
X3803515Y-10370174D02*
X3813039Y-10332079D01*
X3813039Y-10332079D02*
X3822563Y-10313031D01*
X3822563Y-10313031D02*
X3832086Y-10303508D01*
X3832086Y-10303508D02*
X3851134Y-10293984D01*
X4003515Y-10474936D02*
X4013039Y-10484460D01*
X4013039Y-10484460D02*
X4003515Y-10493984D01*
X4003515Y-10493984D02*
X3993991Y-10484460D01*
X3993991Y-10484460D02*
X4003515Y-10474936D01*
X4003515Y-10474936D02*
X4003515Y-10493984D01*
X4136848Y-10293984D02*
X4155896Y-10293984D01*
X4155896Y-10293984D02*
X4174944Y-10303508D01*
X4174944Y-10303508D02*
X4184467Y-10313031D01*
X4184467Y-10313031D02*
X4193991Y-10332079D01*
X4193991Y-10332079D02*
X4203515Y-10370174D01*
X4203515Y-10370174D02*
X4203515Y-10417793D01*
X4203515Y-10417793D02*
X4193991Y-10455889D01*
X4193991Y-10455889D02*
X4184467Y-10474936D01*
X4184467Y-10474936D02*
X4174944Y-10484460D01*
X4174944Y-10484460D02*
X4155896Y-10493984D01*
X4155896Y-10493984D02*
X4136848Y-10493984D01*
X4136848Y-10493984D02*
X4117801Y-10484460D01*
X4117801Y-10484460D02*
X4108277Y-10474936D01*
X4108277Y-10474936D02*
X4098753Y-10455889D01*
X4098753Y-10455889D02*
X4089229Y-10417793D01*
X4089229Y-10417793D02*
X4089229Y-10370174D01*
X4089229Y-10370174D02*
X4098753Y-10332079D01*
X4098753Y-10332079D02*
X4108277Y-10313031D01*
X4108277Y-10313031D02*
X4117801Y-10303508D01*
X4117801Y-10303508D02*
X4136848Y-10293984D01*
X4270182Y-10293984D02*
X4393991Y-10293984D01*
X4393991Y-10293984D02*
X4327325Y-10370174D01*
X4327325Y-10370174D02*
X4355896Y-10370174D01*
X4355896Y-10370174D02*
X4374944Y-10379698D01*
X4374944Y-10379698D02*
X4384468Y-10389222D01*
X4384468Y-10389222D02*
X4393991Y-10408270D01*
X4393991Y-10408270D02*
X4393991Y-10455889D01*
X4393991Y-10455889D02*
X4384468Y-10474936D01*
X4384468Y-10474936D02*
X4374944Y-10484460D01*
X4374944Y-10484460D02*
X4355896Y-10493984D01*
X4355896Y-10493984D02*
X4298753Y-10493984D01*
X4298753Y-10493984D02*
X4279706Y-10484460D01*
X4279706Y-10484460D02*
X4270182Y-10474936D01*
X4489229Y-10493984D02*
X4527325Y-10493984D01*
X4527325Y-10493984D02*
X4546372Y-10484460D01*
X4546372Y-10484460D02*
X4555896Y-10474936D01*
X4555896Y-10474936D02*
X4574944Y-10446365D01*
X4574944Y-10446365D02*
X4584468Y-10408270D01*
X4584468Y-10408270D02*
X4584468Y-10332079D01*
X4584468Y-10332079D02*
X4574944Y-10313031D01*
X4574944Y-10313031D02*
X4565420Y-10303508D01*
X4565420Y-10303508D02*
X4546372Y-10293984D01*
X4546372Y-10293984D02*
X4508277Y-10293984D01*
X4508277Y-10293984D02*
X4489229Y-10303508D01*
X4489229Y-10303508D02*
X4479706Y-10313031D01*
X4479706Y-10313031D02*
X4470182Y-10332079D01*
X4470182Y-10332079D02*
X4470182Y-10379698D01*
X4470182Y-10379698D02*
X4479706Y-10398746D01*
X4479706Y-10398746D02*
X4489229Y-10408270D01*
X4489229Y-10408270D02*
X4508277Y-10417793D01*
X4508277Y-10417793D02*
X4546372Y-10417793D01*
X4546372Y-10417793D02*
X4565420Y-10408270D01*
X4565420Y-10408270D02*
X4574944Y-10398746D01*
X4574944Y-10398746D02*
X4584468Y-10379698D01*
X4755896Y-10360650D02*
X4755896Y-10493984D01*
X4708277Y-10284460D02*
X4660658Y-10427317D01*
X4660658Y-10427317D02*
X4784468Y-10427317D01*
X4851134Y-10293984D02*
X4851134Y-10332079D01*
X4927325Y-10293984D02*
X4927325Y-10332079D01*
X5222563Y-10570174D02*
X5213039Y-10560650D01*
X5213039Y-10560650D02*
X5193991Y-10532079D01*
X5193991Y-10532079D02*
X5184468Y-10513031D01*
X5184468Y-10513031D02*
X5174944Y-10484460D01*
X5174944Y-10484460D02*
X5165420Y-10436841D01*
X5165420Y-10436841D02*
X5165420Y-10398746D01*
X5165420Y-10398746D02*
X5174944Y-10351127D01*
X5174944Y-10351127D02*
X5184468Y-10322555D01*
X5184468Y-10322555D02*
X5193991Y-10303508D01*
X5193991Y-10303508D02*
X5213039Y-10274936D01*
X5213039Y-10274936D02*
X5222563Y-10265412D01*
X5393991Y-10293984D02*
X5298753Y-10293984D01*
X5298753Y-10293984D02*
X5289230Y-10389222D01*
X5289230Y-10389222D02*
X5298753Y-10379698D01*
X5298753Y-10379698D02*
X5317801Y-10370174D01*
X5317801Y-10370174D02*
X5365420Y-10370174D01*
X5365420Y-10370174D02*
X5384468Y-10379698D01*
X5384468Y-10379698D02*
X5393991Y-10389222D01*
X5393991Y-10389222D02*
X5403515Y-10408270D01*
X5403515Y-10408270D02*
X5403515Y-10455889D01*
X5403515Y-10455889D02*
X5393991Y-10474936D01*
X5393991Y-10474936D02*
X5384468Y-10484460D01*
X5384468Y-10484460D02*
X5365420Y-10493984D01*
X5365420Y-10493984D02*
X5317801Y-10493984D01*
X5317801Y-10493984D02*
X5298753Y-10484460D01*
X5298753Y-10484460D02*
X5289230Y-10474936D01*
X5527325Y-10293984D02*
X5546372Y-10293984D01*
X5546372Y-10293984D02*
X5565420Y-10303508D01*
X5565420Y-10303508D02*
X5574944Y-10313031D01*
X5574944Y-10313031D02*
X5584468Y-10332079D01*
X5584468Y-10332079D02*
X5593991Y-10370174D01*
X5593991Y-10370174D02*
X5593991Y-10417793D01*
X5593991Y-10417793D02*
X5584468Y-10455889D01*
X5584468Y-10455889D02*
X5574944Y-10474936D01*
X5574944Y-10474936D02*
X5565420Y-10484460D01*
X5565420Y-10484460D02*
X5546372Y-10493984D01*
X5546372Y-10493984D02*
X5527325Y-10493984D01*
X5527325Y-10493984D02*
X5508277Y-10484460D01*
X5508277Y-10484460D02*
X5498753Y-10474936D01*
X5498753Y-10474936D02*
X5489230Y-10455889D01*
X5489230Y-10455889D02*
X5479706Y-10417793D01*
X5479706Y-10417793D02*
X5479706Y-10370174D01*
X5479706Y-10370174D02*
X5489230Y-10332079D01*
X5489230Y-10332079D02*
X5498753Y-10313031D01*
X5498753Y-10313031D02*
X5508277Y-10303508D01*
X5508277Y-10303508D02*
X5527325Y-10293984D01*
X5832087Y-10493984D02*
X5832087Y-10293984D01*
X5917801Y-10493984D02*
X5917801Y-10389222D01*
X5917801Y-10389222D02*
X5908277Y-10370174D01*
X5908277Y-10370174D02*
X5889230Y-10360650D01*
X5889230Y-10360650D02*
X5860658Y-10360650D01*
X5860658Y-10360650D02*
X5841610Y-10370174D01*
X5841610Y-10370174D02*
X5832087Y-10379698D01*
X6041610Y-10493984D02*
X6022563Y-10484460D01*
X6022563Y-10484460D02*
X6013039Y-10474936D01*
X6013039Y-10474936D02*
X6003515Y-10455889D01*
X6003515Y-10455889D02*
X6003515Y-10398746D01*
X6003515Y-10398746D02*
X6013039Y-10379698D01*
X6013039Y-10379698D02*
X6022563Y-10370174D01*
X6022563Y-10370174D02*
X6041610Y-10360650D01*
X6041610Y-10360650D02*
X6070182Y-10360650D01*
X6070182Y-10360650D02*
X6089230Y-10370174D01*
X6089230Y-10370174D02*
X6098753Y-10379698D01*
X6098753Y-10379698D02*
X6108277Y-10398746D01*
X6108277Y-10398746D02*
X6108277Y-10455889D01*
X6108277Y-10455889D02*
X6098753Y-10474936D01*
X6098753Y-10474936D02*
X6089230Y-10484460D01*
X6089230Y-10484460D02*
X6070182Y-10493984D01*
X6070182Y-10493984D02*
X6041610Y-10493984D01*
X6222563Y-10493984D02*
X6203515Y-10484460D01*
X6203515Y-10484460D02*
X6193991Y-10465412D01*
X6193991Y-10465412D02*
X6193991Y-10293984D01*
X6374944Y-10484460D02*
X6355896Y-10493984D01*
X6355896Y-10493984D02*
X6317801Y-10493984D01*
X6317801Y-10493984D02*
X6298753Y-10484460D01*
X6298753Y-10484460D02*
X6289230Y-10465412D01*
X6289230Y-10465412D02*
X6289230Y-10389222D01*
X6289230Y-10389222D02*
X6298753Y-10370174D01*
X6298753Y-10370174D02*
X6317801Y-10360650D01*
X6317801Y-10360650D02*
X6355896Y-10360650D01*
X6355896Y-10360650D02*
X6374944Y-10370174D01*
X6374944Y-10370174D02*
X6384468Y-10389222D01*
X6384468Y-10389222D02*
X6384468Y-10408270D01*
X6384468Y-10408270D02*
X6289230Y-10427317D01*
X6460658Y-10484460D02*
X6479706Y-10493984D01*
X6479706Y-10493984D02*
X6517801Y-10493984D01*
X6517801Y-10493984D02*
X6536849Y-10484460D01*
X6536849Y-10484460D02*
X6546372Y-10465412D01*
X6546372Y-10465412D02*
X6546372Y-10455889D01*
X6546372Y-10455889D02*
X6536849Y-10436841D01*
X6536849Y-10436841D02*
X6517801Y-10427317D01*
X6517801Y-10427317D02*
X6489230Y-10427317D01*
X6489230Y-10427317D02*
X6470182Y-10417793D01*
X6470182Y-10417793D02*
X6460658Y-10398746D01*
X6460658Y-10398746D02*
X6460658Y-10389222D01*
X6460658Y-10389222D02*
X6470182Y-10370174D01*
X6470182Y-10370174D02*
X6489230Y-10360650D01*
X6489230Y-10360650D02*
X6517801Y-10360650D01*
X6517801Y-10360650D02*
X6536849Y-10370174D01*
X6613039Y-10570174D02*
X6622563Y-10560650D01*
X6622563Y-10560650D02*
X6641611Y-10532079D01*
X6641611Y-10532079D02*
X6651134Y-10513031D01*
X6651134Y-10513031D02*
X6660658Y-10484460D01*
X6660658Y-10484460D02*
X6670182Y-10436841D01*
X6670182Y-10436841D02*
X6670182Y-10398746D01*
X6670182Y-10398746D02*
X6660658Y-10351127D01*
X6660658Y-10351127D02*
X6651134Y-10322555D01*
X6651134Y-10322555D02*
X6641611Y-10303508D01*
X6641611Y-10303508D02*
X6622563Y-10274936D01*
X6622563Y-10274936D02*
X6613039Y-10265412D01*
X6974944Y-10570174D02*
X6965420Y-10560650D01*
X6965420Y-10560650D02*
X6946372Y-10532079D01*
X6946372Y-10532079D02*
X6936849Y-10513031D01*
X6936849Y-10513031D02*
X6927325Y-10484460D01*
X6927325Y-10484460D02*
X6917801Y-10436841D01*
X6917801Y-10436841D02*
X6917801Y-10398746D01*
X6917801Y-10398746D02*
X6927325Y-10351127D01*
X6927325Y-10351127D02*
X6936849Y-10322555D01*
X6936849Y-10322555D02*
X6946372Y-10303508D01*
X6946372Y-10303508D02*
X6965420Y-10274936D01*
X6965420Y-10274936D02*
X6974944Y-10265412D01*
X7051134Y-10360650D02*
X7051134Y-10493984D01*
X7051134Y-10379698D02*
X7060658Y-10370174D01*
X7060658Y-10370174D02*
X7079706Y-10360650D01*
X7079706Y-10360650D02*
X7108277Y-10360650D01*
X7108277Y-10360650D02*
X7127325Y-10370174D01*
X7127325Y-10370174D02*
X7136849Y-10389222D01*
X7136849Y-10389222D02*
X7136849Y-10493984D01*
X7260658Y-10493984D02*
X7241611Y-10484460D01*
X7241611Y-10484460D02*
X7232087Y-10474936D01*
X7232087Y-10474936D02*
X7222563Y-10455889D01*
X7222563Y-10455889D02*
X7222563Y-10398746D01*
X7222563Y-10398746D02*
X7232087Y-10379698D01*
X7232087Y-10379698D02*
X7241611Y-10370174D01*
X7241611Y-10370174D02*
X7260658Y-10360650D01*
X7260658Y-10360650D02*
X7289230Y-10360650D01*
X7289230Y-10360650D02*
X7308277Y-10370174D01*
X7308277Y-10370174D02*
X7317801Y-10379698D01*
X7317801Y-10379698D02*
X7327325Y-10398746D01*
X7327325Y-10398746D02*
X7327325Y-10455889D01*
X7327325Y-10455889D02*
X7317801Y-10474936D01*
X7317801Y-10474936D02*
X7308277Y-10484460D01*
X7308277Y-10484460D02*
X7289230Y-10493984D01*
X7289230Y-10493984D02*
X7260658Y-10493984D01*
X7384468Y-10360650D02*
X7460658Y-10360650D01*
X7413039Y-10293984D02*
X7413039Y-10465412D01*
X7413039Y-10465412D02*
X7422563Y-10484460D01*
X7422563Y-10484460D02*
X7441611Y-10493984D01*
X7441611Y-10493984D02*
X7460658Y-10493984D01*
X7679706Y-10360650D02*
X7679706Y-10560650D01*
X7679706Y-10370174D02*
X7698753Y-10360650D01*
X7698753Y-10360650D02*
X7736849Y-10360650D01*
X7736849Y-10360650D02*
X7755896Y-10370174D01*
X7755896Y-10370174D02*
X7765420Y-10379698D01*
X7765420Y-10379698D02*
X7774944Y-10398746D01*
X7774944Y-10398746D02*
X7774944Y-10455889D01*
X7774944Y-10455889D02*
X7765420Y-10474936D01*
X7765420Y-10474936D02*
X7755896Y-10484460D01*
X7755896Y-10484460D02*
X7736849Y-10493984D01*
X7736849Y-10493984D02*
X7698753Y-10493984D01*
X7698753Y-10493984D02*
X7679706Y-10484460D01*
X7889230Y-10493984D02*
X7870182Y-10484460D01*
X7870182Y-10484460D02*
X7860658Y-10465412D01*
X7860658Y-10465412D02*
X7860658Y-10293984D01*
X8051134Y-10493984D02*
X8051134Y-10389222D01*
X8051134Y-10389222D02*
X8041611Y-10370174D01*
X8041611Y-10370174D02*
X8022563Y-10360650D01*
X8022563Y-10360650D02*
X7984468Y-10360650D01*
X7984468Y-10360650D02*
X7965420Y-10370174D01*
X8051134Y-10484460D02*
X8032087Y-10493984D01*
X8032087Y-10493984D02*
X7984468Y-10493984D01*
X7984468Y-10493984D02*
X7965420Y-10484460D01*
X7965420Y-10484460D02*
X7955896Y-10465412D01*
X7955896Y-10465412D02*
X7955896Y-10446365D01*
X7955896Y-10446365D02*
X7965420Y-10427317D01*
X7965420Y-10427317D02*
X7984468Y-10417793D01*
X7984468Y-10417793D02*
X8032087Y-10417793D01*
X8032087Y-10417793D02*
X8051134Y-10408270D01*
X8117801Y-10360650D02*
X8193992Y-10360650D01*
X8146373Y-10293984D02*
X8146373Y-10465412D01*
X8146373Y-10465412D02*
X8155896Y-10484460D01*
X8155896Y-10484460D02*
X8174944Y-10493984D01*
X8174944Y-10493984D02*
X8193992Y-10493984D01*
X8336849Y-10484460D02*
X8317801Y-10493984D01*
X8317801Y-10493984D02*
X8279706Y-10493984D01*
X8279706Y-10493984D02*
X8260658Y-10484460D01*
X8260658Y-10484460D02*
X8251134Y-10465412D01*
X8251134Y-10465412D02*
X8251134Y-10389222D01*
X8251134Y-10389222D02*
X8260658Y-10370174D01*
X8260658Y-10370174D02*
X8279706Y-10360650D01*
X8279706Y-10360650D02*
X8317801Y-10360650D01*
X8317801Y-10360650D02*
X8336849Y-10370174D01*
X8336849Y-10370174D02*
X8346373Y-10389222D01*
X8346373Y-10389222D02*
X8346373Y-10408270D01*
X8346373Y-10408270D02*
X8251134Y-10427317D01*
X8517801Y-10493984D02*
X8517801Y-10293984D01*
X8517801Y-10484460D02*
X8498754Y-10493984D01*
X8498754Y-10493984D02*
X8460658Y-10493984D01*
X8460658Y-10493984D02*
X8441611Y-10484460D01*
X8441611Y-10484460D02*
X8432087Y-10474936D01*
X8432087Y-10474936D02*
X8422563Y-10455889D01*
X8422563Y-10455889D02*
X8422563Y-10398746D01*
X8422563Y-10398746D02*
X8432087Y-10379698D01*
X8432087Y-10379698D02*
X8441611Y-10370174D01*
X8441611Y-10370174D02*
X8460658Y-10360650D01*
X8460658Y-10360650D02*
X8498754Y-10360650D01*
X8498754Y-10360650D02*
X8517801Y-10370174D01*
X8593992Y-10570174D02*
X8603516Y-10560650D01*
X8603516Y-10560650D02*
X8622563Y-10532079D01*
X8622563Y-10532079D02*
X8632087Y-10513031D01*
X8632087Y-10513031D02*
X8641611Y-10484460D01*
X8641611Y-10484460D02*
X8651135Y-10436841D01*
X8651135Y-10436841D02*
X8651135Y-10398746D01*
X8651135Y-10398746D02*
X8641611Y-10351127D01*
X8641611Y-10351127D02*
X8632087Y-10322555D01*
X8632087Y-10322555D02*
X8622563Y-10303508D01*
X8622563Y-10303508D02*
X8603516Y-10274936D01*
X8603516Y-10274936D02*
X8593992Y-10265412D01*
X1647500Y-10666500D02*
G75*
G02*
X1447500Y-10666500I-100000J0D01*
G01*
X1447500Y-10666500D02*
G75*
G02*
X1647500Y-10666500I100000J0D01*
G01*
X1889229Y-10557984D02*
X2013039Y-10557984D01*
X2013039Y-10557984D02*
X1946372Y-10634174D01*
X1946372Y-10634174D02*
X1974943Y-10634174D01*
X1974943Y-10634174D02*
X1993991Y-10643698D01*
X1993991Y-10643698D02*
X2003515Y-10653222D01*
X2003515Y-10653222D02*
X2013039Y-10672270D01*
X2013039Y-10672270D02*
X2013039Y-10719889D01*
X2013039Y-10719889D02*
X2003515Y-10738936D01*
X2003515Y-10738936D02*
X1993991Y-10748460D01*
X1993991Y-10748460D02*
X1974943Y-10757984D01*
X1974943Y-10757984D02*
X1917801Y-10757984D01*
X1917801Y-10757984D02*
X1898753Y-10748460D01*
X1898753Y-10748460D02*
X1889229Y-10738936D01*
X2098753Y-10738936D02*
X2108277Y-10748460D01*
X2108277Y-10748460D02*
X2098753Y-10757984D01*
X2098753Y-10757984D02*
X2089229Y-10748460D01*
X2089229Y-10748460D02*
X2098753Y-10738936D01*
X2098753Y-10738936D02*
X2098753Y-10757984D01*
X2232086Y-10557984D02*
X2251134Y-10557984D01*
X2251134Y-10557984D02*
X2270182Y-10567508D01*
X2270182Y-10567508D02*
X2279705Y-10577031D01*
X2279705Y-10577031D02*
X2289229Y-10596079D01*
X2289229Y-10596079D02*
X2298753Y-10634174D01*
X2298753Y-10634174D02*
X2298753Y-10681793D01*
X2298753Y-10681793D02*
X2289229Y-10719889D01*
X2289229Y-10719889D02*
X2279705Y-10738936D01*
X2279705Y-10738936D02*
X2270182Y-10748460D01*
X2270182Y-10748460D02*
X2251134Y-10757984D01*
X2251134Y-10757984D02*
X2232086Y-10757984D01*
X2232086Y-10757984D02*
X2213039Y-10748460D01*
X2213039Y-10748460D02*
X2203515Y-10738936D01*
X2203515Y-10738936D02*
X2193991Y-10719889D01*
X2193991Y-10719889D02*
X2184467Y-10681793D01*
X2184467Y-10681793D02*
X2184467Y-10634174D01*
X2184467Y-10634174D02*
X2193991Y-10596079D01*
X2193991Y-10596079D02*
X2203515Y-10577031D01*
X2203515Y-10577031D02*
X2213039Y-10567508D01*
X2213039Y-10567508D02*
X2232086Y-10557984D01*
X2422563Y-10557984D02*
X2441610Y-10557984D01*
X2441610Y-10557984D02*
X2460658Y-10567508D01*
X2460658Y-10567508D02*
X2470182Y-10577031D01*
X2470182Y-10577031D02*
X2479705Y-10596079D01*
X2479705Y-10596079D02*
X2489229Y-10634174D01*
X2489229Y-10634174D02*
X2489229Y-10681793D01*
X2489229Y-10681793D02*
X2479705Y-10719889D01*
X2479705Y-10719889D02*
X2470182Y-10738936D01*
X2470182Y-10738936D02*
X2460658Y-10748460D01*
X2460658Y-10748460D02*
X2441610Y-10757984D01*
X2441610Y-10757984D02*
X2422563Y-10757984D01*
X2422563Y-10757984D02*
X2403515Y-10748460D01*
X2403515Y-10748460D02*
X2393991Y-10738936D01*
X2393991Y-10738936D02*
X2384467Y-10719889D01*
X2384467Y-10719889D02*
X2374944Y-10681793D01*
X2374944Y-10681793D02*
X2374944Y-10634174D01*
X2374944Y-10634174D02*
X2384467Y-10596079D01*
X2384467Y-10596079D02*
X2393991Y-10577031D01*
X2393991Y-10577031D02*
X2403515Y-10567508D01*
X2403515Y-10567508D02*
X2422563Y-10557984D01*
X2613039Y-10557984D02*
X2632086Y-10557984D01*
X2632086Y-10557984D02*
X2651134Y-10567508D01*
X2651134Y-10567508D02*
X2660658Y-10577031D01*
X2660658Y-10577031D02*
X2670182Y-10596079D01*
X2670182Y-10596079D02*
X2679705Y-10634174D01*
X2679705Y-10634174D02*
X2679705Y-10681793D01*
X2679705Y-10681793D02*
X2670182Y-10719889D01*
X2670182Y-10719889D02*
X2660658Y-10738936D01*
X2660658Y-10738936D02*
X2651134Y-10748460D01*
X2651134Y-10748460D02*
X2632086Y-10757984D01*
X2632086Y-10757984D02*
X2613039Y-10757984D01*
X2613039Y-10757984D02*
X2593991Y-10748460D01*
X2593991Y-10748460D02*
X2584467Y-10738936D01*
X2584467Y-10738936D02*
X2574944Y-10719889D01*
X2574944Y-10719889D02*
X2565420Y-10681793D01*
X2565420Y-10681793D02*
X2565420Y-10634174D01*
X2565420Y-10634174D02*
X2574944Y-10596079D01*
X2574944Y-10596079D02*
X2584467Y-10577031D01*
X2584467Y-10577031D02*
X2593991Y-10567508D01*
X2593991Y-10567508D02*
X2613039Y-10557984D01*
X2765420Y-10757984D02*
X2765420Y-10624650D01*
X2765420Y-10643698D02*
X2774944Y-10634174D01*
X2774944Y-10634174D02*
X2793991Y-10624650D01*
X2793991Y-10624650D02*
X2822563Y-10624650D01*
X2822563Y-10624650D02*
X2841610Y-10634174D01*
X2841610Y-10634174D02*
X2851134Y-10653222D01*
X2851134Y-10653222D02*
X2851134Y-10757984D01*
X2851134Y-10653222D02*
X2860658Y-10634174D01*
X2860658Y-10634174D02*
X2879705Y-10624650D01*
X2879705Y-10624650D02*
X2908277Y-10624650D01*
X2908277Y-10624650D02*
X2927324Y-10634174D01*
X2927324Y-10634174D02*
X2936848Y-10653222D01*
X2936848Y-10653222D02*
X2936848Y-10757984D01*
X3032086Y-10757984D02*
X3032086Y-10624650D01*
X3032086Y-10643698D02*
X3041610Y-10634174D01*
X3041610Y-10634174D02*
X3060658Y-10624650D01*
X3060658Y-10624650D02*
X3089229Y-10624650D01*
X3089229Y-10624650D02*
X3108277Y-10634174D01*
X3108277Y-10634174D02*
X3117801Y-10653222D01*
X3117801Y-10653222D02*
X3117801Y-10757984D01*
X3117801Y-10653222D02*
X3127324Y-10634174D01*
X3127324Y-10634174D02*
X3146372Y-10624650D01*
X3146372Y-10624650D02*
X3174943Y-10624650D01*
X3174943Y-10624650D02*
X3193991Y-10634174D01*
X3193991Y-10634174D02*
X3203515Y-10653222D01*
X3203515Y-10653222D02*
X3203515Y-10757984D01*
X3593991Y-10548460D02*
X3422563Y-10805603D01*
X3851134Y-10557984D02*
X3870182Y-10557984D01*
X3870182Y-10557984D02*
X3889229Y-10567508D01*
X3889229Y-10567508D02*
X3898753Y-10577031D01*
X3898753Y-10577031D02*
X3908277Y-10596079D01*
X3908277Y-10596079D02*
X3917801Y-10634174D01*
X3917801Y-10634174D02*
X3917801Y-10681793D01*
X3917801Y-10681793D02*
X3908277Y-10719889D01*
X3908277Y-10719889D02*
X3898753Y-10738936D01*
X3898753Y-10738936D02*
X3889229Y-10748460D01*
X3889229Y-10748460D02*
X3870182Y-10757984D01*
X3870182Y-10757984D02*
X3851134Y-10757984D01*
X3851134Y-10757984D02*
X3832086Y-10748460D01*
X3832086Y-10748460D02*
X3822563Y-10738936D01*
X3822563Y-10738936D02*
X3813039Y-10719889D01*
X3813039Y-10719889D02*
X3803515Y-10681793D01*
X3803515Y-10681793D02*
X3803515Y-10634174D01*
X3803515Y-10634174D02*
X3813039Y-10596079D01*
X3813039Y-10596079D02*
X3822563Y-10577031D01*
X3822563Y-10577031D02*
X3832086Y-10567508D01*
X3832086Y-10567508D02*
X3851134Y-10557984D01*
X4003515Y-10738936D02*
X4013039Y-10748460D01*
X4013039Y-10748460D02*
X4003515Y-10757984D01*
X4003515Y-10757984D02*
X3993991Y-10748460D01*
X3993991Y-10748460D02*
X4003515Y-10738936D01*
X4003515Y-10738936D02*
X4003515Y-10757984D01*
X4203515Y-10757984D02*
X4089229Y-10757984D01*
X4146372Y-10757984D02*
X4146372Y-10557984D01*
X4146372Y-10557984D02*
X4127325Y-10586555D01*
X4127325Y-10586555D02*
X4108277Y-10605603D01*
X4108277Y-10605603D02*
X4089229Y-10615127D01*
X4393991Y-10757984D02*
X4279706Y-10757984D01*
X4336848Y-10757984D02*
X4336848Y-10557984D01*
X4336848Y-10557984D02*
X4317801Y-10586555D01*
X4317801Y-10586555D02*
X4298753Y-10605603D01*
X4298753Y-10605603D02*
X4279706Y-10615127D01*
X4508277Y-10643698D02*
X4489229Y-10634174D01*
X4489229Y-10634174D02*
X4479706Y-10624650D01*
X4479706Y-10624650D02*
X4470182Y-10605603D01*
X4470182Y-10605603D02*
X4470182Y-10596079D01*
X4470182Y-10596079D02*
X4479706Y-10577031D01*
X4479706Y-10577031D02*
X4489229Y-10567508D01*
X4489229Y-10567508D02*
X4508277Y-10557984D01*
X4508277Y-10557984D02*
X4546372Y-10557984D01*
X4546372Y-10557984D02*
X4565420Y-10567508D01*
X4565420Y-10567508D02*
X4574944Y-10577031D01*
X4574944Y-10577031D02*
X4584468Y-10596079D01*
X4584468Y-10596079D02*
X4584468Y-10605603D01*
X4584468Y-10605603D02*
X4574944Y-10624650D01*
X4574944Y-10624650D02*
X4565420Y-10634174D01*
X4565420Y-10634174D02*
X4546372Y-10643698D01*
X4546372Y-10643698D02*
X4508277Y-10643698D01*
X4508277Y-10643698D02*
X4489229Y-10653222D01*
X4489229Y-10653222D02*
X4479706Y-10662746D01*
X4479706Y-10662746D02*
X4470182Y-10681793D01*
X4470182Y-10681793D02*
X4470182Y-10719889D01*
X4470182Y-10719889D02*
X4479706Y-10738936D01*
X4479706Y-10738936D02*
X4489229Y-10748460D01*
X4489229Y-10748460D02*
X4508277Y-10757984D01*
X4508277Y-10757984D02*
X4546372Y-10757984D01*
X4546372Y-10757984D02*
X4565420Y-10748460D01*
X4565420Y-10748460D02*
X4574944Y-10738936D01*
X4574944Y-10738936D02*
X4584468Y-10719889D01*
X4584468Y-10719889D02*
X4584468Y-10681793D01*
X4584468Y-10681793D02*
X4574944Y-10662746D01*
X4574944Y-10662746D02*
X4565420Y-10653222D01*
X4565420Y-10653222D02*
X4546372Y-10643698D01*
X4774944Y-10757984D02*
X4660658Y-10757984D01*
X4717801Y-10757984D02*
X4717801Y-10557984D01*
X4717801Y-10557984D02*
X4698753Y-10586555D01*
X4698753Y-10586555D02*
X4679706Y-10605603D01*
X4679706Y-10605603D02*
X4660658Y-10615127D01*
X4851134Y-10557984D02*
X4851134Y-10596079D01*
X4927325Y-10557984D02*
X4927325Y-10596079D01*
X5222563Y-10834174D02*
X5213039Y-10824650D01*
X5213039Y-10824650D02*
X5193991Y-10796079D01*
X5193991Y-10796079D02*
X5184468Y-10777031D01*
X5184468Y-10777031D02*
X5174944Y-10748460D01*
X5174944Y-10748460D02*
X5165420Y-10700841D01*
X5165420Y-10700841D02*
X5165420Y-10662746D01*
X5165420Y-10662746D02*
X5174944Y-10615127D01*
X5174944Y-10615127D02*
X5184468Y-10586555D01*
X5184468Y-10586555D02*
X5193991Y-10567508D01*
X5193991Y-10567508D02*
X5213039Y-10538936D01*
X5213039Y-10538936D02*
X5222563Y-10529412D01*
X5308277Y-10757984D02*
X5346372Y-10757984D01*
X5346372Y-10757984D02*
X5365420Y-10748460D01*
X5365420Y-10748460D02*
X5374944Y-10738936D01*
X5374944Y-10738936D02*
X5393991Y-10710365D01*
X5393991Y-10710365D02*
X5403515Y-10672270D01*
X5403515Y-10672270D02*
X5403515Y-10596079D01*
X5403515Y-10596079D02*
X5393991Y-10577031D01*
X5393991Y-10577031D02*
X5384468Y-10567508D01*
X5384468Y-10567508D02*
X5365420Y-10557984D01*
X5365420Y-10557984D02*
X5327325Y-10557984D01*
X5327325Y-10557984D02*
X5308277Y-10567508D01*
X5308277Y-10567508D02*
X5298753Y-10577031D01*
X5298753Y-10577031D02*
X5289230Y-10596079D01*
X5289230Y-10596079D02*
X5289230Y-10643698D01*
X5289230Y-10643698D02*
X5298753Y-10662746D01*
X5298753Y-10662746D02*
X5308277Y-10672270D01*
X5308277Y-10672270D02*
X5327325Y-10681793D01*
X5327325Y-10681793D02*
X5365420Y-10681793D01*
X5365420Y-10681793D02*
X5384468Y-10672270D01*
X5384468Y-10672270D02*
X5393991Y-10662746D01*
X5393991Y-10662746D02*
X5403515Y-10643698D01*
X5527325Y-10557984D02*
X5546372Y-10557984D01*
X5546372Y-10557984D02*
X5565420Y-10567508D01*
X5565420Y-10567508D02*
X5574944Y-10577031D01*
X5574944Y-10577031D02*
X5584468Y-10596079D01*
X5584468Y-10596079D02*
X5593991Y-10634174D01*
X5593991Y-10634174D02*
X5593991Y-10681793D01*
X5593991Y-10681793D02*
X5584468Y-10719889D01*
X5584468Y-10719889D02*
X5574944Y-10738936D01*
X5574944Y-10738936D02*
X5565420Y-10748460D01*
X5565420Y-10748460D02*
X5546372Y-10757984D01*
X5546372Y-10757984D02*
X5527325Y-10757984D01*
X5527325Y-10757984D02*
X5508277Y-10748460D01*
X5508277Y-10748460D02*
X5498753Y-10738936D01*
X5498753Y-10738936D02*
X5489230Y-10719889D01*
X5489230Y-10719889D02*
X5479706Y-10681793D01*
X5479706Y-10681793D02*
X5479706Y-10634174D01*
X5479706Y-10634174D02*
X5489230Y-10596079D01*
X5489230Y-10596079D02*
X5498753Y-10577031D01*
X5498753Y-10577031D02*
X5508277Y-10567508D01*
X5508277Y-10567508D02*
X5527325Y-10557984D01*
X5832087Y-10757984D02*
X5832087Y-10557984D01*
X5917801Y-10757984D02*
X5917801Y-10653222D01*
X5917801Y-10653222D02*
X5908277Y-10634174D01*
X5908277Y-10634174D02*
X5889230Y-10624650D01*
X5889230Y-10624650D02*
X5860658Y-10624650D01*
X5860658Y-10624650D02*
X5841610Y-10634174D01*
X5841610Y-10634174D02*
X5832087Y-10643698D01*
X6041610Y-10757984D02*
X6022563Y-10748460D01*
X6022563Y-10748460D02*
X6013039Y-10738936D01*
X6013039Y-10738936D02*
X6003515Y-10719889D01*
X6003515Y-10719889D02*
X6003515Y-10662746D01*
X6003515Y-10662746D02*
X6013039Y-10643698D01*
X6013039Y-10643698D02*
X6022563Y-10634174D01*
X6022563Y-10634174D02*
X6041610Y-10624650D01*
X6041610Y-10624650D02*
X6070182Y-10624650D01*
X6070182Y-10624650D02*
X6089230Y-10634174D01*
X6089230Y-10634174D02*
X6098753Y-10643698D01*
X6098753Y-10643698D02*
X6108277Y-10662746D01*
X6108277Y-10662746D02*
X6108277Y-10719889D01*
X6108277Y-10719889D02*
X6098753Y-10738936D01*
X6098753Y-10738936D02*
X6089230Y-10748460D01*
X6089230Y-10748460D02*
X6070182Y-10757984D01*
X6070182Y-10757984D02*
X6041610Y-10757984D01*
X6222563Y-10757984D02*
X6203515Y-10748460D01*
X6203515Y-10748460D02*
X6193991Y-10729412D01*
X6193991Y-10729412D02*
X6193991Y-10557984D01*
X6374944Y-10748460D02*
X6355896Y-10757984D01*
X6355896Y-10757984D02*
X6317801Y-10757984D01*
X6317801Y-10757984D02*
X6298753Y-10748460D01*
X6298753Y-10748460D02*
X6289230Y-10729412D01*
X6289230Y-10729412D02*
X6289230Y-10653222D01*
X6289230Y-10653222D02*
X6298753Y-10634174D01*
X6298753Y-10634174D02*
X6317801Y-10624650D01*
X6317801Y-10624650D02*
X6355896Y-10624650D01*
X6355896Y-10624650D02*
X6374944Y-10634174D01*
X6374944Y-10634174D02*
X6384468Y-10653222D01*
X6384468Y-10653222D02*
X6384468Y-10672270D01*
X6384468Y-10672270D02*
X6289230Y-10691317D01*
X6460658Y-10748460D02*
X6479706Y-10757984D01*
X6479706Y-10757984D02*
X6517801Y-10757984D01*
X6517801Y-10757984D02*
X6536849Y-10748460D01*
X6536849Y-10748460D02*
X6546372Y-10729412D01*
X6546372Y-10729412D02*
X6546372Y-10719889D01*
X6546372Y-10719889D02*
X6536849Y-10700841D01*
X6536849Y-10700841D02*
X6517801Y-10691317D01*
X6517801Y-10691317D02*
X6489230Y-10691317D01*
X6489230Y-10691317D02*
X6470182Y-10681793D01*
X6470182Y-10681793D02*
X6460658Y-10662746D01*
X6460658Y-10662746D02*
X6460658Y-10653222D01*
X6460658Y-10653222D02*
X6470182Y-10634174D01*
X6470182Y-10634174D02*
X6489230Y-10624650D01*
X6489230Y-10624650D02*
X6517801Y-10624650D01*
X6517801Y-10624650D02*
X6536849Y-10634174D01*
X6613039Y-10834174D02*
X6622563Y-10824650D01*
X6622563Y-10824650D02*
X6641611Y-10796079D01*
X6641611Y-10796079D02*
X6651134Y-10777031D01*
X6651134Y-10777031D02*
X6660658Y-10748460D01*
X6660658Y-10748460D02*
X6670182Y-10700841D01*
X6670182Y-10700841D02*
X6670182Y-10662746D01*
X6670182Y-10662746D02*
X6660658Y-10615127D01*
X6660658Y-10615127D02*
X6651134Y-10586555D01*
X6651134Y-10586555D02*
X6641611Y-10567508D01*
X6641611Y-10567508D02*
X6622563Y-10538936D01*
X6622563Y-10538936D02*
X6613039Y-10529412D01*
X6974944Y-10834174D02*
X6965420Y-10824650D01*
X6965420Y-10824650D02*
X6946372Y-10796079D01*
X6946372Y-10796079D02*
X6936849Y-10777031D01*
X6936849Y-10777031D02*
X6927325Y-10748460D01*
X6927325Y-10748460D02*
X6917801Y-10700841D01*
X6917801Y-10700841D02*
X6917801Y-10662746D01*
X6917801Y-10662746D02*
X6927325Y-10615127D01*
X6927325Y-10615127D02*
X6936849Y-10586555D01*
X6936849Y-10586555D02*
X6946372Y-10567508D01*
X6946372Y-10567508D02*
X6965420Y-10538936D01*
X6965420Y-10538936D02*
X6974944Y-10529412D01*
X7051134Y-10624650D02*
X7051134Y-10757984D01*
X7051134Y-10643698D02*
X7060658Y-10634174D01*
X7060658Y-10634174D02*
X7079706Y-10624650D01*
X7079706Y-10624650D02*
X7108277Y-10624650D01*
X7108277Y-10624650D02*
X7127325Y-10634174D01*
X7127325Y-10634174D02*
X7136849Y-10653222D01*
X7136849Y-10653222D02*
X7136849Y-10757984D01*
X7260658Y-10757984D02*
X7241611Y-10748460D01*
X7241611Y-10748460D02*
X7232087Y-10738936D01*
X7232087Y-10738936D02*
X7222563Y-10719889D01*
X7222563Y-10719889D02*
X7222563Y-10662746D01*
X7222563Y-10662746D02*
X7232087Y-10643698D01*
X7232087Y-10643698D02*
X7241611Y-10634174D01*
X7241611Y-10634174D02*
X7260658Y-10624650D01*
X7260658Y-10624650D02*
X7289230Y-10624650D01*
X7289230Y-10624650D02*
X7308277Y-10634174D01*
X7308277Y-10634174D02*
X7317801Y-10643698D01*
X7317801Y-10643698D02*
X7327325Y-10662746D01*
X7327325Y-10662746D02*
X7327325Y-10719889D01*
X7327325Y-10719889D02*
X7317801Y-10738936D01*
X7317801Y-10738936D02*
X7308277Y-10748460D01*
X7308277Y-10748460D02*
X7289230Y-10757984D01*
X7289230Y-10757984D02*
X7260658Y-10757984D01*
X7384468Y-10624650D02*
X7460658Y-10624650D01*
X7413039Y-10557984D02*
X7413039Y-10729412D01*
X7413039Y-10729412D02*
X7422563Y-10748460D01*
X7422563Y-10748460D02*
X7441611Y-10757984D01*
X7441611Y-10757984D02*
X7460658Y-10757984D01*
X7679706Y-10624650D02*
X7679706Y-10824650D01*
X7679706Y-10634174D02*
X7698753Y-10624650D01*
X7698753Y-10624650D02*
X7736849Y-10624650D01*
X7736849Y-10624650D02*
X7755896Y-10634174D01*
X7755896Y-10634174D02*
X7765420Y-10643698D01*
X7765420Y-10643698D02*
X7774944Y-10662746D01*
X7774944Y-10662746D02*
X7774944Y-10719889D01*
X7774944Y-10719889D02*
X7765420Y-10738936D01*
X7765420Y-10738936D02*
X7755896Y-10748460D01*
X7755896Y-10748460D02*
X7736849Y-10757984D01*
X7736849Y-10757984D02*
X7698753Y-10757984D01*
X7698753Y-10757984D02*
X7679706Y-10748460D01*
X7889230Y-10757984D02*
X7870182Y-10748460D01*
X7870182Y-10748460D02*
X7860658Y-10729412D01*
X7860658Y-10729412D02*
X7860658Y-10557984D01*
X8051134Y-10757984D02*
X8051134Y-10653222D01*
X8051134Y-10653222D02*
X8041611Y-10634174D01*
X8041611Y-10634174D02*
X8022563Y-10624650D01*
X8022563Y-10624650D02*
X7984468Y-10624650D01*
X7984468Y-10624650D02*
X7965420Y-10634174D01*
X8051134Y-10748460D02*
X8032087Y-10757984D01*
X8032087Y-10757984D02*
X7984468Y-10757984D01*
X7984468Y-10757984D02*
X7965420Y-10748460D01*
X7965420Y-10748460D02*
X7955896Y-10729412D01*
X7955896Y-10729412D02*
X7955896Y-10710365D01*
X7955896Y-10710365D02*
X7965420Y-10691317D01*
X7965420Y-10691317D02*
X7984468Y-10681793D01*
X7984468Y-10681793D02*
X8032087Y-10681793D01*
X8032087Y-10681793D02*
X8051134Y-10672270D01*
X8117801Y-10624650D02*
X8193992Y-10624650D01*
X8146373Y-10557984D02*
X8146373Y-10729412D01*
X8146373Y-10729412D02*
X8155896Y-10748460D01*
X8155896Y-10748460D02*
X8174944Y-10757984D01*
X8174944Y-10757984D02*
X8193992Y-10757984D01*
X8336849Y-10748460D02*
X8317801Y-10757984D01*
X8317801Y-10757984D02*
X8279706Y-10757984D01*
X8279706Y-10757984D02*
X8260658Y-10748460D01*
X8260658Y-10748460D02*
X8251134Y-10729412D01*
X8251134Y-10729412D02*
X8251134Y-10653222D01*
X8251134Y-10653222D02*
X8260658Y-10634174D01*
X8260658Y-10634174D02*
X8279706Y-10624650D01*
X8279706Y-10624650D02*
X8317801Y-10624650D01*
X8317801Y-10624650D02*
X8336849Y-10634174D01*
X8336849Y-10634174D02*
X8346373Y-10653222D01*
X8346373Y-10653222D02*
X8346373Y-10672270D01*
X8346373Y-10672270D02*
X8251134Y-10691317D01*
X8517801Y-10757984D02*
X8517801Y-10557984D01*
X8517801Y-10748460D02*
X8498754Y-10757984D01*
X8498754Y-10757984D02*
X8460658Y-10757984D01*
X8460658Y-10757984D02*
X8441611Y-10748460D01*
X8441611Y-10748460D02*
X8432087Y-10738936D01*
X8432087Y-10738936D02*
X8422563Y-10719889D01*
X8422563Y-10719889D02*
X8422563Y-10662746D01*
X8422563Y-10662746D02*
X8432087Y-10643698D01*
X8432087Y-10643698D02*
X8441611Y-10634174D01*
X8441611Y-10634174D02*
X8460658Y-10624650D01*
X8460658Y-10624650D02*
X8498754Y-10624650D01*
X8498754Y-10624650D02*
X8517801Y-10634174D01*
X8593992Y-10834174D02*
X8603516Y-10824650D01*
X8603516Y-10824650D02*
X8622563Y-10796079D01*
X8622563Y-10796079D02*
X8632087Y-10777031D01*
X8632087Y-10777031D02*
X8641611Y-10748460D01*
X8641611Y-10748460D02*
X8651135Y-10700841D01*
X8651135Y-10700841D02*
X8651135Y-10662746D01*
X8651135Y-10662746D02*
X8641611Y-10615127D01*
X8641611Y-10615127D02*
X8632087Y-10586555D01*
X8632087Y-10586555D02*
X8622563Y-10567508D01*
X8622563Y-10567508D02*
X8603516Y-10538936D01*
X8603516Y-10538936D02*
X8593992Y-10529412D01*
X1547500Y-10886500D02*
X1547500Y-11086500D01*
X1447500Y-10986500D02*
X1647500Y-10986500D01*
X1889229Y-10877984D02*
X2013039Y-10877984D01*
X2013039Y-10877984D02*
X1946372Y-10954174D01*
X1946372Y-10954174D02*
X1974943Y-10954174D01*
X1974943Y-10954174D02*
X1993991Y-10963698D01*
X1993991Y-10963698D02*
X2003515Y-10973222D01*
X2003515Y-10973222D02*
X2013039Y-10992270D01*
X2013039Y-10992270D02*
X2013039Y-11039889D01*
X2013039Y-11039889D02*
X2003515Y-11058936D01*
X2003515Y-11058936D02*
X1993991Y-11068460D01*
X1993991Y-11068460D02*
X1974943Y-11077984D01*
X1974943Y-11077984D02*
X1917801Y-11077984D01*
X1917801Y-11077984D02*
X1898753Y-11068460D01*
X1898753Y-11068460D02*
X1889229Y-11058936D01*
X2098753Y-11058936D02*
X2108277Y-11068460D01*
X2108277Y-11068460D02*
X2098753Y-11077984D01*
X2098753Y-11077984D02*
X2089229Y-11068460D01*
X2089229Y-11068460D02*
X2098753Y-11058936D01*
X2098753Y-11058936D02*
X2098753Y-11077984D01*
X2184467Y-10897031D02*
X2193991Y-10887508D01*
X2193991Y-10887508D02*
X2213039Y-10877984D01*
X2213039Y-10877984D02*
X2260658Y-10877984D01*
X2260658Y-10877984D02*
X2279705Y-10887508D01*
X2279705Y-10887508D02*
X2289229Y-10897031D01*
X2289229Y-10897031D02*
X2298753Y-10916079D01*
X2298753Y-10916079D02*
X2298753Y-10935127D01*
X2298753Y-10935127D02*
X2289229Y-10963698D01*
X2289229Y-10963698D02*
X2174944Y-11077984D01*
X2174944Y-11077984D02*
X2298753Y-11077984D01*
X2422563Y-10877984D02*
X2441610Y-10877984D01*
X2441610Y-10877984D02*
X2460658Y-10887508D01*
X2460658Y-10887508D02*
X2470182Y-10897031D01*
X2470182Y-10897031D02*
X2479705Y-10916079D01*
X2479705Y-10916079D02*
X2489229Y-10954174D01*
X2489229Y-10954174D02*
X2489229Y-11001793D01*
X2489229Y-11001793D02*
X2479705Y-11039889D01*
X2479705Y-11039889D02*
X2470182Y-11058936D01*
X2470182Y-11058936D02*
X2460658Y-11068460D01*
X2460658Y-11068460D02*
X2441610Y-11077984D01*
X2441610Y-11077984D02*
X2422563Y-11077984D01*
X2422563Y-11077984D02*
X2403515Y-11068460D01*
X2403515Y-11068460D02*
X2393991Y-11058936D01*
X2393991Y-11058936D02*
X2384467Y-11039889D01*
X2384467Y-11039889D02*
X2374944Y-11001793D01*
X2374944Y-11001793D02*
X2374944Y-10954174D01*
X2374944Y-10954174D02*
X2384467Y-10916079D01*
X2384467Y-10916079D02*
X2393991Y-10897031D01*
X2393991Y-10897031D02*
X2403515Y-10887508D01*
X2403515Y-10887508D02*
X2422563Y-10877984D01*
X2613039Y-10877984D02*
X2632086Y-10877984D01*
X2632086Y-10877984D02*
X2651134Y-10887508D01*
X2651134Y-10887508D02*
X2660658Y-10897031D01*
X2660658Y-10897031D02*
X2670182Y-10916079D01*
X2670182Y-10916079D02*
X2679705Y-10954174D01*
X2679705Y-10954174D02*
X2679705Y-11001793D01*
X2679705Y-11001793D02*
X2670182Y-11039889D01*
X2670182Y-11039889D02*
X2660658Y-11058936D01*
X2660658Y-11058936D02*
X2651134Y-11068460D01*
X2651134Y-11068460D02*
X2632086Y-11077984D01*
X2632086Y-11077984D02*
X2613039Y-11077984D01*
X2613039Y-11077984D02*
X2593991Y-11068460D01*
X2593991Y-11068460D02*
X2584467Y-11058936D01*
X2584467Y-11058936D02*
X2574944Y-11039889D01*
X2574944Y-11039889D02*
X2565420Y-11001793D01*
X2565420Y-11001793D02*
X2565420Y-10954174D01*
X2565420Y-10954174D02*
X2574944Y-10916079D01*
X2574944Y-10916079D02*
X2584467Y-10897031D01*
X2584467Y-10897031D02*
X2593991Y-10887508D01*
X2593991Y-10887508D02*
X2613039Y-10877984D01*
X2765420Y-11077984D02*
X2765420Y-10944650D01*
X2765420Y-10963698D02*
X2774944Y-10954174D01*
X2774944Y-10954174D02*
X2793991Y-10944650D01*
X2793991Y-10944650D02*
X2822563Y-10944650D01*
X2822563Y-10944650D02*
X2841610Y-10954174D01*
X2841610Y-10954174D02*
X2851134Y-10973222D01*
X2851134Y-10973222D02*
X2851134Y-11077984D01*
X2851134Y-10973222D02*
X2860658Y-10954174D01*
X2860658Y-10954174D02*
X2879705Y-10944650D01*
X2879705Y-10944650D02*
X2908277Y-10944650D01*
X2908277Y-10944650D02*
X2927324Y-10954174D01*
X2927324Y-10954174D02*
X2936848Y-10973222D01*
X2936848Y-10973222D02*
X2936848Y-11077984D01*
X3032086Y-11077984D02*
X3032086Y-10944650D01*
X3032086Y-10963698D02*
X3041610Y-10954174D01*
X3041610Y-10954174D02*
X3060658Y-10944650D01*
X3060658Y-10944650D02*
X3089229Y-10944650D01*
X3089229Y-10944650D02*
X3108277Y-10954174D01*
X3108277Y-10954174D02*
X3117801Y-10973222D01*
X3117801Y-10973222D02*
X3117801Y-11077984D01*
X3117801Y-10973222D02*
X3127324Y-10954174D01*
X3127324Y-10954174D02*
X3146372Y-10944650D01*
X3146372Y-10944650D02*
X3174943Y-10944650D01*
X3174943Y-10944650D02*
X3193991Y-10954174D01*
X3193991Y-10954174D02*
X3203515Y-10973222D01*
X3203515Y-10973222D02*
X3203515Y-11077984D01*
X3593991Y-10868460D02*
X3422563Y-11125603D01*
X3851134Y-10877984D02*
X3870182Y-10877984D01*
X3870182Y-10877984D02*
X3889229Y-10887508D01*
X3889229Y-10887508D02*
X3898753Y-10897031D01*
X3898753Y-10897031D02*
X3908277Y-10916079D01*
X3908277Y-10916079D02*
X3917801Y-10954174D01*
X3917801Y-10954174D02*
X3917801Y-11001793D01*
X3917801Y-11001793D02*
X3908277Y-11039889D01*
X3908277Y-11039889D02*
X3898753Y-11058936D01*
X3898753Y-11058936D02*
X3889229Y-11068460D01*
X3889229Y-11068460D02*
X3870182Y-11077984D01*
X3870182Y-11077984D02*
X3851134Y-11077984D01*
X3851134Y-11077984D02*
X3832086Y-11068460D01*
X3832086Y-11068460D02*
X3822563Y-11058936D01*
X3822563Y-11058936D02*
X3813039Y-11039889D01*
X3813039Y-11039889D02*
X3803515Y-11001793D01*
X3803515Y-11001793D02*
X3803515Y-10954174D01*
X3803515Y-10954174D02*
X3813039Y-10916079D01*
X3813039Y-10916079D02*
X3822563Y-10897031D01*
X3822563Y-10897031D02*
X3832086Y-10887508D01*
X3832086Y-10887508D02*
X3851134Y-10877984D01*
X4003515Y-11058936D02*
X4013039Y-11068460D01*
X4013039Y-11068460D02*
X4003515Y-11077984D01*
X4003515Y-11077984D02*
X3993991Y-11068460D01*
X3993991Y-11068460D02*
X4003515Y-11058936D01*
X4003515Y-11058936D02*
X4003515Y-11077984D01*
X4203515Y-11077984D02*
X4089229Y-11077984D01*
X4146372Y-11077984D02*
X4146372Y-10877984D01*
X4146372Y-10877984D02*
X4127325Y-10906555D01*
X4127325Y-10906555D02*
X4108277Y-10925603D01*
X4108277Y-10925603D02*
X4089229Y-10935127D01*
X4279706Y-10897031D02*
X4289229Y-10887508D01*
X4289229Y-10887508D02*
X4308277Y-10877984D01*
X4308277Y-10877984D02*
X4355896Y-10877984D01*
X4355896Y-10877984D02*
X4374944Y-10887508D01*
X4374944Y-10887508D02*
X4384468Y-10897031D01*
X4384468Y-10897031D02*
X4393991Y-10916079D01*
X4393991Y-10916079D02*
X4393991Y-10935127D01*
X4393991Y-10935127D02*
X4384468Y-10963698D01*
X4384468Y-10963698D02*
X4270182Y-11077984D01*
X4270182Y-11077984D02*
X4393991Y-11077984D01*
X4565420Y-10877984D02*
X4527325Y-10877984D01*
X4527325Y-10877984D02*
X4508277Y-10887508D01*
X4508277Y-10887508D02*
X4498753Y-10897031D01*
X4498753Y-10897031D02*
X4479706Y-10925603D01*
X4479706Y-10925603D02*
X4470182Y-10963698D01*
X4470182Y-10963698D02*
X4470182Y-11039889D01*
X4470182Y-11039889D02*
X4479706Y-11058936D01*
X4479706Y-11058936D02*
X4489229Y-11068460D01*
X4489229Y-11068460D02*
X4508277Y-11077984D01*
X4508277Y-11077984D02*
X4546372Y-11077984D01*
X4546372Y-11077984D02*
X4565420Y-11068460D01*
X4565420Y-11068460D02*
X4574944Y-11058936D01*
X4574944Y-11058936D02*
X4584468Y-11039889D01*
X4584468Y-11039889D02*
X4584468Y-10992270D01*
X4584468Y-10992270D02*
X4574944Y-10973222D01*
X4574944Y-10973222D02*
X4565420Y-10963698D01*
X4565420Y-10963698D02*
X4546372Y-10954174D01*
X4546372Y-10954174D02*
X4508277Y-10954174D01*
X4508277Y-10954174D02*
X4489229Y-10963698D01*
X4489229Y-10963698D02*
X4479706Y-10973222D01*
X4479706Y-10973222D02*
X4470182Y-10992270D01*
X4708277Y-10877984D02*
X4727325Y-10877984D01*
X4727325Y-10877984D02*
X4746372Y-10887508D01*
X4746372Y-10887508D02*
X4755896Y-10897031D01*
X4755896Y-10897031D02*
X4765420Y-10916079D01*
X4765420Y-10916079D02*
X4774944Y-10954174D01*
X4774944Y-10954174D02*
X4774944Y-11001793D01*
X4774944Y-11001793D02*
X4765420Y-11039889D01*
X4765420Y-11039889D02*
X4755896Y-11058936D01*
X4755896Y-11058936D02*
X4746372Y-11068460D01*
X4746372Y-11068460D02*
X4727325Y-11077984D01*
X4727325Y-11077984D02*
X4708277Y-11077984D01*
X4708277Y-11077984D02*
X4689229Y-11068460D01*
X4689229Y-11068460D02*
X4679706Y-11058936D01*
X4679706Y-11058936D02*
X4670182Y-11039889D01*
X4670182Y-11039889D02*
X4660658Y-11001793D01*
X4660658Y-11001793D02*
X4660658Y-10954174D01*
X4660658Y-10954174D02*
X4670182Y-10916079D01*
X4670182Y-10916079D02*
X4679706Y-10897031D01*
X4679706Y-10897031D02*
X4689229Y-10887508D01*
X4689229Y-10887508D02*
X4708277Y-10877984D01*
X4851134Y-10877984D02*
X4851134Y-10916079D01*
X4927325Y-10877984D02*
X4927325Y-10916079D01*
X5222563Y-11154174D02*
X5213039Y-11144650D01*
X5213039Y-11144650D02*
X5193991Y-11116079D01*
X5193991Y-11116079D02*
X5184468Y-11097031D01*
X5184468Y-11097031D02*
X5174944Y-11068460D01*
X5174944Y-11068460D02*
X5165420Y-11020841D01*
X5165420Y-11020841D02*
X5165420Y-10982746D01*
X5165420Y-10982746D02*
X5174944Y-10935127D01*
X5174944Y-10935127D02*
X5184468Y-10906555D01*
X5184468Y-10906555D02*
X5193991Y-10887508D01*
X5193991Y-10887508D02*
X5213039Y-10858936D01*
X5213039Y-10858936D02*
X5222563Y-10849412D01*
X5279706Y-10877984D02*
X5413039Y-10877984D01*
X5413039Y-10877984D02*
X5327325Y-11077984D01*
X5641610Y-11077984D02*
X5641610Y-10877984D01*
X5727325Y-11077984D02*
X5727325Y-10973222D01*
X5727325Y-10973222D02*
X5717801Y-10954174D01*
X5717801Y-10954174D02*
X5698753Y-10944650D01*
X5698753Y-10944650D02*
X5670182Y-10944650D01*
X5670182Y-10944650D02*
X5651134Y-10954174D01*
X5651134Y-10954174D02*
X5641610Y-10963698D01*
X5851134Y-11077984D02*
X5832087Y-11068460D01*
X5832087Y-11068460D02*
X5822563Y-11058936D01*
X5822563Y-11058936D02*
X5813039Y-11039889D01*
X5813039Y-11039889D02*
X5813039Y-10982746D01*
X5813039Y-10982746D02*
X5822563Y-10963698D01*
X5822563Y-10963698D02*
X5832087Y-10954174D01*
X5832087Y-10954174D02*
X5851134Y-10944650D01*
X5851134Y-10944650D02*
X5879706Y-10944650D01*
X5879706Y-10944650D02*
X5898753Y-10954174D01*
X5898753Y-10954174D02*
X5908277Y-10963698D01*
X5908277Y-10963698D02*
X5917801Y-10982746D01*
X5917801Y-10982746D02*
X5917801Y-11039889D01*
X5917801Y-11039889D02*
X5908277Y-11058936D01*
X5908277Y-11058936D02*
X5898753Y-11068460D01*
X5898753Y-11068460D02*
X5879706Y-11077984D01*
X5879706Y-11077984D02*
X5851134Y-11077984D01*
X6032087Y-11077984D02*
X6013039Y-11068460D01*
X6013039Y-11068460D02*
X6003515Y-11049412D01*
X6003515Y-11049412D02*
X6003515Y-10877984D01*
X6184468Y-11068460D02*
X6165420Y-11077984D01*
X6165420Y-11077984D02*
X6127325Y-11077984D01*
X6127325Y-11077984D02*
X6108277Y-11068460D01*
X6108277Y-11068460D02*
X6098753Y-11049412D01*
X6098753Y-11049412D02*
X6098753Y-10973222D01*
X6098753Y-10973222D02*
X6108277Y-10954174D01*
X6108277Y-10954174D02*
X6127325Y-10944650D01*
X6127325Y-10944650D02*
X6165420Y-10944650D01*
X6165420Y-10944650D02*
X6184468Y-10954174D01*
X6184468Y-10954174D02*
X6193991Y-10973222D01*
X6193991Y-10973222D02*
X6193991Y-10992270D01*
X6193991Y-10992270D02*
X6098753Y-11011317D01*
X6270182Y-11068460D02*
X6289230Y-11077984D01*
X6289230Y-11077984D02*
X6327325Y-11077984D01*
X6327325Y-11077984D02*
X6346372Y-11068460D01*
X6346372Y-11068460D02*
X6355896Y-11049412D01*
X6355896Y-11049412D02*
X6355896Y-11039889D01*
X6355896Y-11039889D02*
X6346372Y-11020841D01*
X6346372Y-11020841D02*
X6327325Y-11011317D01*
X6327325Y-11011317D02*
X6298753Y-11011317D01*
X6298753Y-11011317D02*
X6279706Y-11001793D01*
X6279706Y-11001793D02*
X6270182Y-10982746D01*
X6270182Y-10982746D02*
X6270182Y-10973222D01*
X6270182Y-10973222D02*
X6279706Y-10954174D01*
X6279706Y-10954174D02*
X6298753Y-10944650D01*
X6298753Y-10944650D02*
X6327325Y-10944650D01*
X6327325Y-10944650D02*
X6346372Y-10954174D01*
X6422563Y-11154174D02*
X6432087Y-11144650D01*
X6432087Y-11144650D02*
X6451134Y-11116079D01*
X6451134Y-11116079D02*
X6460658Y-11097031D01*
X6460658Y-11097031D02*
X6470182Y-11068460D01*
X6470182Y-11068460D02*
X6479706Y-11020841D01*
X6479706Y-11020841D02*
X6479706Y-10982746D01*
X6479706Y-10982746D02*
X6470182Y-10935127D01*
X6470182Y-10935127D02*
X6460658Y-10906555D01*
X6460658Y-10906555D02*
X6451134Y-10887508D01*
X6451134Y-10887508D02*
X6432087Y-10858936D01*
X6432087Y-10858936D02*
X6422563Y-10849412D01*
X6784468Y-11154174D02*
X6774944Y-11144650D01*
X6774944Y-11144650D02*
X6755896Y-11116079D01*
X6755896Y-11116079D02*
X6746372Y-11097031D01*
X6746372Y-11097031D02*
X6736849Y-11068460D01*
X6736849Y-11068460D02*
X6727325Y-11020841D01*
X6727325Y-11020841D02*
X6727325Y-10982746D01*
X6727325Y-10982746D02*
X6736849Y-10935127D01*
X6736849Y-10935127D02*
X6746372Y-10906555D01*
X6746372Y-10906555D02*
X6755896Y-10887508D01*
X6755896Y-10887508D02*
X6774944Y-10858936D01*
X6774944Y-10858936D02*
X6784468Y-10849412D01*
X6860658Y-10944650D02*
X6860658Y-11077984D01*
X6860658Y-10963698D02*
X6870182Y-10954174D01*
X6870182Y-10954174D02*
X6889230Y-10944650D01*
X6889230Y-10944650D02*
X6917801Y-10944650D01*
X6917801Y-10944650D02*
X6936849Y-10954174D01*
X6936849Y-10954174D02*
X6946372Y-10973222D01*
X6946372Y-10973222D02*
X6946372Y-11077984D01*
X7070182Y-11077984D02*
X7051134Y-11068460D01*
X7051134Y-11068460D02*
X7041611Y-11058936D01*
X7041611Y-11058936D02*
X7032087Y-11039889D01*
X7032087Y-11039889D02*
X7032087Y-10982746D01*
X7032087Y-10982746D02*
X7041611Y-10963698D01*
X7041611Y-10963698D02*
X7051134Y-10954174D01*
X7051134Y-10954174D02*
X7070182Y-10944650D01*
X7070182Y-10944650D02*
X7098753Y-10944650D01*
X7098753Y-10944650D02*
X7117801Y-10954174D01*
X7117801Y-10954174D02*
X7127325Y-10963698D01*
X7127325Y-10963698D02*
X7136849Y-10982746D01*
X7136849Y-10982746D02*
X7136849Y-11039889D01*
X7136849Y-11039889D02*
X7127325Y-11058936D01*
X7127325Y-11058936D02*
X7117801Y-11068460D01*
X7117801Y-11068460D02*
X7098753Y-11077984D01*
X7098753Y-11077984D02*
X7070182Y-11077984D01*
X7193992Y-10944650D02*
X7270182Y-10944650D01*
X7222563Y-10877984D02*
X7222563Y-11049412D01*
X7222563Y-11049412D02*
X7232087Y-11068460D01*
X7232087Y-11068460D02*
X7251134Y-11077984D01*
X7251134Y-11077984D02*
X7270182Y-11077984D01*
X7489230Y-10944650D02*
X7489230Y-11144650D01*
X7489230Y-10954174D02*
X7508277Y-10944650D01*
X7508277Y-10944650D02*
X7546373Y-10944650D01*
X7546373Y-10944650D02*
X7565420Y-10954174D01*
X7565420Y-10954174D02*
X7574944Y-10963698D01*
X7574944Y-10963698D02*
X7584468Y-10982746D01*
X7584468Y-10982746D02*
X7584468Y-11039889D01*
X7584468Y-11039889D02*
X7574944Y-11058936D01*
X7574944Y-11058936D02*
X7565420Y-11068460D01*
X7565420Y-11068460D02*
X7546373Y-11077984D01*
X7546373Y-11077984D02*
X7508277Y-11077984D01*
X7508277Y-11077984D02*
X7489230Y-11068460D01*
X7698753Y-11077984D02*
X7679706Y-11068460D01*
X7679706Y-11068460D02*
X7670182Y-11049412D01*
X7670182Y-11049412D02*
X7670182Y-10877984D01*
X7860658Y-11077984D02*
X7860658Y-10973222D01*
X7860658Y-10973222D02*
X7851134Y-10954174D01*
X7851134Y-10954174D02*
X7832087Y-10944650D01*
X7832087Y-10944650D02*
X7793992Y-10944650D01*
X7793992Y-10944650D02*
X7774944Y-10954174D01*
X7860658Y-11068460D02*
X7841611Y-11077984D01*
X7841611Y-11077984D02*
X7793992Y-11077984D01*
X7793992Y-11077984D02*
X7774944Y-11068460D01*
X7774944Y-11068460D02*
X7765420Y-11049412D01*
X7765420Y-11049412D02*
X7765420Y-11030365D01*
X7765420Y-11030365D02*
X7774944Y-11011317D01*
X7774944Y-11011317D02*
X7793992Y-11001793D01*
X7793992Y-11001793D02*
X7841611Y-11001793D01*
X7841611Y-11001793D02*
X7860658Y-10992270D01*
X7927325Y-10944650D02*
X8003515Y-10944650D01*
X7955896Y-10877984D02*
X7955896Y-11049412D01*
X7955896Y-11049412D02*
X7965420Y-11068460D01*
X7965420Y-11068460D02*
X7984468Y-11077984D01*
X7984468Y-11077984D02*
X8003515Y-11077984D01*
X8146373Y-11068460D02*
X8127325Y-11077984D01*
X8127325Y-11077984D02*
X8089230Y-11077984D01*
X8089230Y-11077984D02*
X8070182Y-11068460D01*
X8070182Y-11068460D02*
X8060658Y-11049412D01*
X8060658Y-11049412D02*
X8060658Y-10973222D01*
X8060658Y-10973222D02*
X8070182Y-10954174D01*
X8070182Y-10954174D02*
X8089230Y-10944650D01*
X8089230Y-10944650D02*
X8127325Y-10944650D01*
X8127325Y-10944650D02*
X8146373Y-10954174D01*
X8146373Y-10954174D02*
X8155896Y-10973222D01*
X8155896Y-10973222D02*
X8155896Y-10992270D01*
X8155896Y-10992270D02*
X8060658Y-11011317D01*
X8327325Y-11077984D02*
X8327325Y-10877984D01*
X8327325Y-11068460D02*
X8308277Y-11077984D01*
X8308277Y-11077984D02*
X8270182Y-11077984D01*
X8270182Y-11077984D02*
X8251134Y-11068460D01*
X8251134Y-11068460D02*
X8241611Y-11058936D01*
X8241611Y-11058936D02*
X8232087Y-11039889D01*
X8232087Y-11039889D02*
X8232087Y-10982746D01*
X8232087Y-10982746D02*
X8241611Y-10963698D01*
X8241611Y-10963698D02*
X8251134Y-10954174D01*
X8251134Y-10954174D02*
X8270182Y-10944650D01*
X8270182Y-10944650D02*
X8308277Y-10944650D01*
X8308277Y-10944650D02*
X8327325Y-10954174D01*
X8403516Y-11154174D02*
X8413039Y-11144650D01*
X8413039Y-11144650D02*
X8432087Y-11116079D01*
X8432087Y-11116079D02*
X8441611Y-11097031D01*
X8441611Y-11097031D02*
X8451135Y-11068460D01*
X8451135Y-11068460D02*
X8460658Y-11020841D01*
X8460658Y-11020841D02*
X8460658Y-10982746D01*
X8460658Y-10982746D02*
X8451135Y-10935127D01*
X8451135Y-10935127D02*
X8441611Y-10906555D01*
X8441611Y-10906555D02*
X8432087Y-10887508D01*
X8432087Y-10887508D02*
X8413039Y-10858936D01*
X8413039Y-10858936D02*
X8403516Y-10849412D01*
X1618211Y-11377211D02*
X1618211Y-11235789D01*
X1476789Y-11235789D01*
X1476789Y-11377211D01*
X1618211Y-11377211D01*
X1993991Y-11264650D02*
X1993991Y-11397984D01*
X1946372Y-11188460D02*
X1898753Y-11331317D01*
X1898753Y-11331317D02*
X2022562Y-11331317D01*
X2098753Y-11378936D02*
X2108277Y-11388460D01*
X2108277Y-11388460D02*
X2098753Y-11397984D01*
X2098753Y-11397984D02*
X2089229Y-11388460D01*
X2089229Y-11388460D02*
X2098753Y-11378936D01*
X2098753Y-11378936D02*
X2098753Y-11397984D01*
X2222563Y-11283698D02*
X2203515Y-11274174D01*
X2203515Y-11274174D02*
X2193991Y-11264650D01*
X2193991Y-11264650D02*
X2184467Y-11245603D01*
X2184467Y-11245603D02*
X2184467Y-11236079D01*
X2184467Y-11236079D02*
X2193991Y-11217031D01*
X2193991Y-11217031D02*
X2203515Y-11207508D01*
X2203515Y-11207508D02*
X2222563Y-11197984D01*
X2222563Y-11197984D02*
X2260658Y-11197984D01*
X2260658Y-11197984D02*
X2279705Y-11207508D01*
X2279705Y-11207508D02*
X2289229Y-11217031D01*
X2289229Y-11217031D02*
X2298753Y-11236079D01*
X2298753Y-11236079D02*
X2298753Y-11245603D01*
X2298753Y-11245603D02*
X2289229Y-11264650D01*
X2289229Y-11264650D02*
X2279705Y-11274174D01*
X2279705Y-11274174D02*
X2260658Y-11283698D01*
X2260658Y-11283698D02*
X2222563Y-11283698D01*
X2222563Y-11283698D02*
X2203515Y-11293222D01*
X2203515Y-11293222D02*
X2193991Y-11302746D01*
X2193991Y-11302746D02*
X2184467Y-11321793D01*
X2184467Y-11321793D02*
X2184467Y-11359888D01*
X2184467Y-11359888D02*
X2193991Y-11378936D01*
X2193991Y-11378936D02*
X2203515Y-11388460D01*
X2203515Y-11388460D02*
X2222563Y-11397984D01*
X2222563Y-11397984D02*
X2260658Y-11397984D01*
X2260658Y-11397984D02*
X2279705Y-11388460D01*
X2279705Y-11388460D02*
X2289229Y-11378936D01*
X2289229Y-11378936D02*
X2298753Y-11359888D01*
X2298753Y-11359888D02*
X2298753Y-11321793D01*
X2298753Y-11321793D02*
X2289229Y-11302746D01*
X2289229Y-11302746D02*
X2279705Y-11293222D01*
X2279705Y-11293222D02*
X2260658Y-11283698D01*
X2422563Y-11197984D02*
X2441610Y-11197984D01*
X2441610Y-11197984D02*
X2460658Y-11207508D01*
X2460658Y-11207508D02*
X2470182Y-11217031D01*
X2470182Y-11217031D02*
X2479705Y-11236079D01*
X2479705Y-11236079D02*
X2489229Y-11274174D01*
X2489229Y-11274174D02*
X2489229Y-11321793D01*
X2489229Y-11321793D02*
X2479705Y-11359888D01*
X2479705Y-11359888D02*
X2470182Y-11378936D01*
X2470182Y-11378936D02*
X2460658Y-11388460D01*
X2460658Y-11388460D02*
X2441610Y-11397984D01*
X2441610Y-11397984D02*
X2422563Y-11397984D01*
X2422563Y-11397984D02*
X2403515Y-11388460D01*
X2403515Y-11388460D02*
X2393991Y-11378936D01*
X2393991Y-11378936D02*
X2384467Y-11359888D01*
X2384467Y-11359888D02*
X2374944Y-11321793D01*
X2374944Y-11321793D02*
X2374944Y-11274174D01*
X2374944Y-11274174D02*
X2384467Y-11236079D01*
X2384467Y-11236079D02*
X2393991Y-11217031D01*
X2393991Y-11217031D02*
X2403515Y-11207508D01*
X2403515Y-11207508D02*
X2422563Y-11197984D01*
X2613039Y-11197984D02*
X2632086Y-11197984D01*
X2632086Y-11197984D02*
X2651134Y-11207508D01*
X2651134Y-11207508D02*
X2660658Y-11217031D01*
X2660658Y-11217031D02*
X2670182Y-11236079D01*
X2670182Y-11236079D02*
X2679705Y-11274174D01*
X2679705Y-11274174D02*
X2679705Y-11321793D01*
X2679705Y-11321793D02*
X2670182Y-11359888D01*
X2670182Y-11359888D02*
X2660658Y-11378936D01*
X2660658Y-11378936D02*
X2651134Y-11388460D01*
X2651134Y-11388460D02*
X2632086Y-11397984D01*
X2632086Y-11397984D02*
X2613039Y-11397984D01*
X2613039Y-11397984D02*
X2593991Y-11388460D01*
X2593991Y-11388460D02*
X2584467Y-11378936D01*
X2584467Y-11378936D02*
X2574944Y-11359888D01*
X2574944Y-11359888D02*
X2565420Y-11321793D01*
X2565420Y-11321793D02*
X2565420Y-11274174D01*
X2565420Y-11274174D02*
X2574944Y-11236079D01*
X2574944Y-11236079D02*
X2584467Y-11217031D01*
X2584467Y-11217031D02*
X2593991Y-11207508D01*
X2593991Y-11207508D02*
X2613039Y-11197984D01*
X2765420Y-11397984D02*
X2765420Y-11264650D01*
X2765420Y-11283698D02*
X2774944Y-11274174D01*
X2774944Y-11274174D02*
X2793991Y-11264650D01*
X2793991Y-11264650D02*
X2822563Y-11264650D01*
X2822563Y-11264650D02*
X2841610Y-11274174D01*
X2841610Y-11274174D02*
X2851134Y-11293222D01*
X2851134Y-11293222D02*
X2851134Y-11397984D01*
X2851134Y-11293222D02*
X2860658Y-11274174D01*
X2860658Y-11274174D02*
X2879705Y-11264650D01*
X2879705Y-11264650D02*
X2908277Y-11264650D01*
X2908277Y-11264650D02*
X2927324Y-11274174D01*
X2927324Y-11274174D02*
X2936848Y-11293222D01*
X2936848Y-11293222D02*
X2936848Y-11397984D01*
X3032086Y-11397984D02*
X3032086Y-11264650D01*
X3032086Y-11283698D02*
X3041610Y-11274174D01*
X3041610Y-11274174D02*
X3060658Y-11264650D01*
X3060658Y-11264650D02*
X3089229Y-11264650D01*
X3089229Y-11264650D02*
X3108277Y-11274174D01*
X3108277Y-11274174D02*
X3117801Y-11293222D01*
X3117801Y-11293222D02*
X3117801Y-11397984D01*
X3117801Y-11293222D02*
X3127324Y-11274174D01*
X3127324Y-11274174D02*
X3146372Y-11264650D01*
X3146372Y-11264650D02*
X3174943Y-11264650D01*
X3174943Y-11264650D02*
X3193991Y-11274174D01*
X3193991Y-11274174D02*
X3203515Y-11293222D01*
X3203515Y-11293222D02*
X3203515Y-11397984D01*
X3593991Y-11188460D02*
X3422563Y-11445603D01*
X3851134Y-11197984D02*
X3870182Y-11197984D01*
X3870182Y-11197984D02*
X3889229Y-11207508D01*
X3889229Y-11207508D02*
X3898753Y-11217031D01*
X3898753Y-11217031D02*
X3908277Y-11236079D01*
X3908277Y-11236079D02*
X3917801Y-11274174D01*
X3917801Y-11274174D02*
X3917801Y-11321793D01*
X3917801Y-11321793D02*
X3908277Y-11359888D01*
X3908277Y-11359888D02*
X3898753Y-11378936D01*
X3898753Y-11378936D02*
X3889229Y-11388460D01*
X3889229Y-11388460D02*
X3870182Y-11397984D01*
X3870182Y-11397984D02*
X3851134Y-11397984D01*
X3851134Y-11397984D02*
X3832086Y-11388460D01*
X3832086Y-11388460D02*
X3822563Y-11378936D01*
X3822563Y-11378936D02*
X3813039Y-11359888D01*
X3813039Y-11359888D02*
X3803515Y-11321793D01*
X3803515Y-11321793D02*
X3803515Y-11274174D01*
X3803515Y-11274174D02*
X3813039Y-11236079D01*
X3813039Y-11236079D02*
X3822563Y-11217031D01*
X3822563Y-11217031D02*
X3832086Y-11207508D01*
X3832086Y-11207508D02*
X3851134Y-11197984D01*
X4003515Y-11378936D02*
X4013039Y-11388460D01*
X4013039Y-11388460D02*
X4003515Y-11397984D01*
X4003515Y-11397984D02*
X3993991Y-11388460D01*
X3993991Y-11388460D02*
X4003515Y-11378936D01*
X4003515Y-11378936D02*
X4003515Y-11397984D01*
X4203515Y-11397984D02*
X4089229Y-11397984D01*
X4146372Y-11397984D02*
X4146372Y-11197984D01*
X4146372Y-11197984D02*
X4127325Y-11226555D01*
X4127325Y-11226555D02*
X4108277Y-11245603D01*
X4108277Y-11245603D02*
X4089229Y-11255127D01*
X4317801Y-11283698D02*
X4298753Y-11274174D01*
X4298753Y-11274174D02*
X4289229Y-11264650D01*
X4289229Y-11264650D02*
X4279706Y-11245603D01*
X4279706Y-11245603D02*
X4279706Y-11236079D01*
X4279706Y-11236079D02*
X4289229Y-11217031D01*
X4289229Y-11217031D02*
X4298753Y-11207508D01*
X4298753Y-11207508D02*
X4317801Y-11197984D01*
X4317801Y-11197984D02*
X4355896Y-11197984D01*
X4355896Y-11197984D02*
X4374944Y-11207508D01*
X4374944Y-11207508D02*
X4384468Y-11217031D01*
X4384468Y-11217031D02*
X4393991Y-11236079D01*
X4393991Y-11236079D02*
X4393991Y-11245603D01*
X4393991Y-11245603D02*
X4384468Y-11264650D01*
X4384468Y-11264650D02*
X4374944Y-11274174D01*
X4374944Y-11274174D02*
X4355896Y-11283698D01*
X4355896Y-11283698D02*
X4317801Y-11283698D01*
X4317801Y-11283698D02*
X4298753Y-11293222D01*
X4298753Y-11293222D02*
X4289229Y-11302746D01*
X4289229Y-11302746D02*
X4279706Y-11321793D01*
X4279706Y-11321793D02*
X4279706Y-11359888D01*
X4279706Y-11359888D02*
X4289229Y-11378936D01*
X4289229Y-11378936D02*
X4298753Y-11388460D01*
X4298753Y-11388460D02*
X4317801Y-11397984D01*
X4317801Y-11397984D02*
X4355896Y-11397984D01*
X4355896Y-11397984D02*
X4374944Y-11388460D01*
X4374944Y-11388460D02*
X4384468Y-11378936D01*
X4384468Y-11378936D02*
X4393991Y-11359888D01*
X4393991Y-11359888D02*
X4393991Y-11321793D01*
X4393991Y-11321793D02*
X4384468Y-11302746D01*
X4384468Y-11302746D02*
X4374944Y-11293222D01*
X4374944Y-11293222D02*
X4355896Y-11283698D01*
X4489229Y-11397984D02*
X4527325Y-11397984D01*
X4527325Y-11397984D02*
X4546372Y-11388460D01*
X4546372Y-11388460D02*
X4555896Y-11378936D01*
X4555896Y-11378936D02*
X4574944Y-11350365D01*
X4574944Y-11350365D02*
X4584468Y-11312269D01*
X4584468Y-11312269D02*
X4584468Y-11236079D01*
X4584468Y-11236079D02*
X4574944Y-11217031D01*
X4574944Y-11217031D02*
X4565420Y-11207508D01*
X4565420Y-11207508D02*
X4546372Y-11197984D01*
X4546372Y-11197984D02*
X4508277Y-11197984D01*
X4508277Y-11197984D02*
X4489229Y-11207508D01*
X4489229Y-11207508D02*
X4479706Y-11217031D01*
X4479706Y-11217031D02*
X4470182Y-11236079D01*
X4470182Y-11236079D02*
X4470182Y-11283698D01*
X4470182Y-11283698D02*
X4479706Y-11302746D01*
X4479706Y-11302746D02*
X4489229Y-11312269D01*
X4489229Y-11312269D02*
X4508277Y-11321793D01*
X4508277Y-11321793D02*
X4546372Y-11321793D01*
X4546372Y-11321793D02*
X4565420Y-11312269D01*
X4565420Y-11312269D02*
X4574944Y-11302746D01*
X4574944Y-11302746D02*
X4584468Y-11283698D01*
X4708277Y-11197984D02*
X4727325Y-11197984D01*
X4727325Y-11197984D02*
X4746372Y-11207508D01*
X4746372Y-11207508D02*
X4755896Y-11217031D01*
X4755896Y-11217031D02*
X4765420Y-11236079D01*
X4765420Y-11236079D02*
X4774944Y-11274174D01*
X4774944Y-11274174D02*
X4774944Y-11321793D01*
X4774944Y-11321793D02*
X4765420Y-11359888D01*
X4765420Y-11359888D02*
X4755896Y-11378936D01*
X4755896Y-11378936D02*
X4746372Y-11388460D01*
X4746372Y-11388460D02*
X4727325Y-11397984D01*
X4727325Y-11397984D02*
X4708277Y-11397984D01*
X4708277Y-11397984D02*
X4689229Y-11388460D01*
X4689229Y-11388460D02*
X4679706Y-11378936D01*
X4679706Y-11378936D02*
X4670182Y-11359888D01*
X4670182Y-11359888D02*
X4660658Y-11321793D01*
X4660658Y-11321793D02*
X4660658Y-11274174D01*
X4660658Y-11274174D02*
X4670182Y-11236079D01*
X4670182Y-11236079D02*
X4679706Y-11217031D01*
X4679706Y-11217031D02*
X4689229Y-11207508D01*
X4689229Y-11207508D02*
X4708277Y-11197984D01*
X4851134Y-11197984D02*
X4851134Y-11236079D01*
X4927325Y-11197984D02*
X4927325Y-11236079D01*
X5222563Y-11474174D02*
X5213039Y-11464650D01*
X5213039Y-11464650D02*
X5193991Y-11436079D01*
X5193991Y-11436079D02*
X5184468Y-11417031D01*
X5184468Y-11417031D02*
X5174944Y-11388460D01*
X5174944Y-11388460D02*
X5165420Y-11340841D01*
X5165420Y-11340841D02*
X5165420Y-11302746D01*
X5165420Y-11302746D02*
X5174944Y-11255127D01*
X5174944Y-11255127D02*
X5184468Y-11226555D01*
X5184468Y-11226555D02*
X5193991Y-11207508D01*
X5193991Y-11207508D02*
X5213039Y-11178936D01*
X5213039Y-11178936D02*
X5222563Y-11169412D01*
X5384468Y-11264650D02*
X5384468Y-11397984D01*
X5336849Y-11188460D02*
X5289230Y-11331317D01*
X5289230Y-11331317D02*
X5413039Y-11331317D01*
X5584468Y-11197984D02*
X5489230Y-11197984D01*
X5489230Y-11197984D02*
X5479706Y-11293222D01*
X5479706Y-11293222D02*
X5489230Y-11283698D01*
X5489230Y-11283698D02*
X5508277Y-11274174D01*
X5508277Y-11274174D02*
X5555896Y-11274174D01*
X5555896Y-11274174D02*
X5574944Y-11283698D01*
X5574944Y-11283698D02*
X5584468Y-11293222D01*
X5584468Y-11293222D02*
X5593991Y-11312269D01*
X5593991Y-11312269D02*
X5593991Y-11359888D01*
X5593991Y-11359888D02*
X5584468Y-11378936D01*
X5584468Y-11378936D02*
X5574944Y-11388460D01*
X5574944Y-11388460D02*
X5555896Y-11397984D01*
X5555896Y-11397984D02*
X5508277Y-11397984D01*
X5508277Y-11397984D02*
X5489230Y-11388460D01*
X5489230Y-11388460D02*
X5479706Y-11378936D01*
X5832087Y-11397984D02*
X5832087Y-11197984D01*
X5917801Y-11397984D02*
X5917801Y-11293222D01*
X5917801Y-11293222D02*
X5908277Y-11274174D01*
X5908277Y-11274174D02*
X5889230Y-11264650D01*
X5889230Y-11264650D02*
X5860658Y-11264650D01*
X5860658Y-11264650D02*
X5841610Y-11274174D01*
X5841610Y-11274174D02*
X5832087Y-11283698D01*
X6041610Y-11397984D02*
X6022563Y-11388460D01*
X6022563Y-11388460D02*
X6013039Y-11378936D01*
X6013039Y-11378936D02*
X6003515Y-11359888D01*
X6003515Y-11359888D02*
X6003515Y-11302746D01*
X6003515Y-11302746D02*
X6013039Y-11283698D01*
X6013039Y-11283698D02*
X6022563Y-11274174D01*
X6022563Y-11274174D02*
X6041610Y-11264650D01*
X6041610Y-11264650D02*
X6070182Y-11264650D01*
X6070182Y-11264650D02*
X6089230Y-11274174D01*
X6089230Y-11274174D02*
X6098753Y-11283698D01*
X6098753Y-11283698D02*
X6108277Y-11302746D01*
X6108277Y-11302746D02*
X6108277Y-11359888D01*
X6108277Y-11359888D02*
X6098753Y-11378936D01*
X6098753Y-11378936D02*
X6089230Y-11388460D01*
X6089230Y-11388460D02*
X6070182Y-11397984D01*
X6070182Y-11397984D02*
X6041610Y-11397984D01*
X6222563Y-11397984D02*
X6203515Y-11388460D01*
X6203515Y-11388460D02*
X6193991Y-11369412D01*
X6193991Y-11369412D02*
X6193991Y-11197984D01*
X6374944Y-11388460D02*
X6355896Y-11397984D01*
X6355896Y-11397984D02*
X6317801Y-11397984D01*
X6317801Y-11397984D02*
X6298753Y-11388460D01*
X6298753Y-11388460D02*
X6289230Y-11369412D01*
X6289230Y-11369412D02*
X6289230Y-11293222D01*
X6289230Y-11293222D02*
X6298753Y-11274174D01*
X6298753Y-11274174D02*
X6317801Y-11264650D01*
X6317801Y-11264650D02*
X6355896Y-11264650D01*
X6355896Y-11264650D02*
X6374944Y-11274174D01*
X6374944Y-11274174D02*
X6384468Y-11293222D01*
X6384468Y-11293222D02*
X6384468Y-11312269D01*
X6384468Y-11312269D02*
X6289230Y-11331317D01*
X6460658Y-11388460D02*
X6479706Y-11397984D01*
X6479706Y-11397984D02*
X6517801Y-11397984D01*
X6517801Y-11397984D02*
X6536849Y-11388460D01*
X6536849Y-11388460D02*
X6546372Y-11369412D01*
X6546372Y-11369412D02*
X6546372Y-11359888D01*
X6546372Y-11359888D02*
X6536849Y-11340841D01*
X6536849Y-11340841D02*
X6517801Y-11331317D01*
X6517801Y-11331317D02*
X6489230Y-11331317D01*
X6489230Y-11331317D02*
X6470182Y-11321793D01*
X6470182Y-11321793D02*
X6460658Y-11302746D01*
X6460658Y-11302746D02*
X6460658Y-11293222D01*
X6460658Y-11293222D02*
X6470182Y-11274174D01*
X6470182Y-11274174D02*
X6489230Y-11264650D01*
X6489230Y-11264650D02*
X6517801Y-11264650D01*
X6517801Y-11264650D02*
X6536849Y-11274174D01*
X6613039Y-11474174D02*
X6622563Y-11464650D01*
X6622563Y-11464650D02*
X6641611Y-11436079D01*
X6641611Y-11436079D02*
X6651134Y-11417031D01*
X6651134Y-11417031D02*
X6660658Y-11388460D01*
X6660658Y-11388460D02*
X6670182Y-11340841D01*
X6670182Y-11340841D02*
X6670182Y-11302746D01*
X6670182Y-11302746D02*
X6660658Y-11255127D01*
X6660658Y-11255127D02*
X6651134Y-11226555D01*
X6651134Y-11226555D02*
X6641611Y-11207508D01*
X6641611Y-11207508D02*
X6622563Y-11178936D01*
X6622563Y-11178936D02*
X6613039Y-11169412D01*
X6974944Y-11474174D02*
X6965420Y-11464650D01*
X6965420Y-11464650D02*
X6946372Y-11436079D01*
X6946372Y-11436079D02*
X6936849Y-11417031D01*
X6936849Y-11417031D02*
X6927325Y-11388460D01*
X6927325Y-11388460D02*
X6917801Y-11340841D01*
X6917801Y-11340841D02*
X6917801Y-11302746D01*
X6917801Y-11302746D02*
X6927325Y-11255127D01*
X6927325Y-11255127D02*
X6936849Y-11226555D01*
X6936849Y-11226555D02*
X6946372Y-11207508D01*
X6946372Y-11207508D02*
X6965420Y-11178936D01*
X6965420Y-11178936D02*
X6974944Y-11169412D01*
X7051134Y-11264650D02*
X7051134Y-11397984D01*
X7051134Y-11283698D02*
X7060658Y-11274174D01*
X7060658Y-11274174D02*
X7079706Y-11264650D01*
X7079706Y-11264650D02*
X7108277Y-11264650D01*
X7108277Y-11264650D02*
X7127325Y-11274174D01*
X7127325Y-11274174D02*
X7136849Y-11293222D01*
X7136849Y-11293222D02*
X7136849Y-11397984D01*
X7260658Y-11397984D02*
X7241611Y-11388460D01*
X7241611Y-11388460D02*
X7232087Y-11378936D01*
X7232087Y-11378936D02*
X7222563Y-11359888D01*
X7222563Y-11359888D02*
X7222563Y-11302746D01*
X7222563Y-11302746D02*
X7232087Y-11283698D01*
X7232087Y-11283698D02*
X7241611Y-11274174D01*
X7241611Y-11274174D02*
X7260658Y-11264650D01*
X7260658Y-11264650D02*
X7289230Y-11264650D01*
X7289230Y-11264650D02*
X7308277Y-11274174D01*
X7308277Y-11274174D02*
X7317801Y-11283698D01*
X7317801Y-11283698D02*
X7327325Y-11302746D01*
X7327325Y-11302746D02*
X7327325Y-11359888D01*
X7327325Y-11359888D02*
X7317801Y-11378936D01*
X7317801Y-11378936D02*
X7308277Y-11388460D01*
X7308277Y-11388460D02*
X7289230Y-11397984D01*
X7289230Y-11397984D02*
X7260658Y-11397984D01*
X7384468Y-11264650D02*
X7460658Y-11264650D01*
X7413039Y-11197984D02*
X7413039Y-11369412D01*
X7413039Y-11369412D02*
X7422563Y-11388460D01*
X7422563Y-11388460D02*
X7441611Y-11397984D01*
X7441611Y-11397984D02*
X7460658Y-11397984D01*
X7679706Y-11264650D02*
X7679706Y-11464650D01*
X7679706Y-11274174D02*
X7698753Y-11264650D01*
X7698753Y-11264650D02*
X7736849Y-11264650D01*
X7736849Y-11264650D02*
X7755896Y-11274174D01*
X7755896Y-11274174D02*
X7765420Y-11283698D01*
X7765420Y-11283698D02*
X7774944Y-11302746D01*
X7774944Y-11302746D02*
X7774944Y-11359888D01*
X7774944Y-11359888D02*
X7765420Y-11378936D01*
X7765420Y-11378936D02*
X7755896Y-11388460D01*
X7755896Y-11388460D02*
X7736849Y-11397984D01*
X7736849Y-11397984D02*
X7698753Y-11397984D01*
X7698753Y-11397984D02*
X7679706Y-11388460D01*
X7889230Y-11397984D02*
X7870182Y-11388460D01*
X7870182Y-11388460D02*
X7860658Y-11369412D01*
X7860658Y-11369412D02*
X7860658Y-11197984D01*
X8051134Y-11397984D02*
X8051134Y-11293222D01*
X8051134Y-11293222D02*
X8041611Y-11274174D01*
X8041611Y-11274174D02*
X8022563Y-11264650D01*
X8022563Y-11264650D02*
X7984468Y-11264650D01*
X7984468Y-11264650D02*
X7965420Y-11274174D01*
X8051134Y-11388460D02*
X8032087Y-11397984D01*
X8032087Y-11397984D02*
X7984468Y-11397984D01*
X7984468Y-11397984D02*
X7965420Y-11388460D01*
X7965420Y-11388460D02*
X7955896Y-11369412D01*
X7955896Y-11369412D02*
X7955896Y-11350365D01*
X7955896Y-11350365D02*
X7965420Y-11331317D01*
X7965420Y-11331317D02*
X7984468Y-11321793D01*
X7984468Y-11321793D02*
X8032087Y-11321793D01*
X8032087Y-11321793D02*
X8051134Y-11312269D01*
X8117801Y-11264650D02*
X8193992Y-11264650D01*
X8146373Y-11197984D02*
X8146373Y-11369412D01*
X8146373Y-11369412D02*
X8155896Y-11388460D01*
X8155896Y-11388460D02*
X8174944Y-11397984D01*
X8174944Y-11397984D02*
X8193992Y-11397984D01*
X8336849Y-11388460D02*
X8317801Y-11397984D01*
X8317801Y-11397984D02*
X8279706Y-11397984D01*
X8279706Y-11397984D02*
X8260658Y-11388460D01*
X8260658Y-11388460D02*
X8251134Y-11369412D01*
X8251134Y-11369412D02*
X8251134Y-11293222D01*
X8251134Y-11293222D02*
X8260658Y-11274174D01*
X8260658Y-11274174D02*
X8279706Y-11264650D01*
X8279706Y-11264650D02*
X8317801Y-11264650D01*
X8317801Y-11264650D02*
X8336849Y-11274174D01*
X8336849Y-11274174D02*
X8346373Y-11293222D01*
X8346373Y-11293222D02*
X8346373Y-11312269D01*
X8346373Y-11312269D02*
X8251134Y-11331317D01*
X8517801Y-11397984D02*
X8517801Y-11197984D01*
X8517801Y-11388460D02*
X8498754Y-11397984D01*
X8498754Y-11397984D02*
X8460658Y-11397984D01*
X8460658Y-11397984D02*
X8441611Y-11388460D01*
X8441611Y-11388460D02*
X8432087Y-11378936D01*
X8432087Y-11378936D02*
X8422563Y-11359888D01*
X8422563Y-11359888D02*
X8422563Y-11302746D01*
X8422563Y-11302746D02*
X8432087Y-11283698D01*
X8432087Y-11283698D02*
X8441611Y-11274174D01*
X8441611Y-11274174D02*
X8460658Y-11264650D01*
X8460658Y-11264650D02*
X8498754Y-11264650D01*
X8498754Y-11264650D02*
X8517801Y-11274174D01*
X8593992Y-11474174D02*
X8603516Y-11464650D01*
X8603516Y-11464650D02*
X8622563Y-11436079D01*
X8622563Y-11436079D02*
X8632087Y-11417031D01*
X8632087Y-11417031D02*
X8641611Y-11388460D01*
X8641611Y-11388460D02*
X8651135Y-11340841D01*
X8651135Y-11340841D02*
X8651135Y-11302746D01*
X8651135Y-11302746D02*
X8641611Y-11255127D01*
X8641611Y-11255127D02*
X8632087Y-11226555D01*
X8632087Y-11226555D02*
X8622563Y-11207508D01*
X8622563Y-11207508D02*
X8603516Y-11178936D01*
X8603516Y-11178936D02*
X8593992Y-11169412D01*
M02*
